<svg version="1.1" viewBox="0.0 0.0 600.0 371.0" fill="none" stroke="none" stroke-linecap="square" stroke-miterlimit="10" width="600" height="371" xmlns:xlink="http://www.w3.org/1999/xlink" xmlns="http://www.w3.org/2000/svg"><path fill="#ffffff" d="M0 0L600.0 0L600.0 371.0L0 371.0L0 0Z" fill-rule="nonzero"/><path fill="#fbbc04" d="M300.0 54.916668C382.16156 54.916668 448.76666 121.521774 448.76666 203.68333C448.76666 285.8449 382.16156 352.45 300.0 352.45C217.83844 352.45 151.23334 285.8449 151.23334 203.68333C151.23334 121.521774 217.83844 54.916668 300.0 54.916668L300.0 203.68333Z" fill-rule="nonzero"/><path fill="#000000" d="M263.625 205.46458L264.875 205.35521Q264.96875 206.10521 265.29688 206.58958Q265.625 207.07396 266.29688 207.37083Q266.98438 207.66771 267.84375 207.66771Q268.59375 207.66771 269.17188 207.44896Q269.76562 207.21458 270.04688 206.82396Q270.32812 206.43333 270.32812 205.96458Q270.32812 205.49583 270.04688 205.15208Q269.78125 204.79271 269.15625 204.54271Q268.75 204.38646 267.35938 204.05833Q265.98438 203.73021 265.4375 203.43333Q264.71875 203.05833 264.35938 202.51146Q264.01562 201.94896 264.01562 201.24583Q264.01562 200.49583 264.4375 199.83958Q264.875 199.16771 265.70312 198.83958Q266.53125 198.49583 267.54688 198.49583Q268.65625 198.49583 269.5 198.85521Q270.35938 199.21458 270.8125 199.91771Q271.26562 200.60521 271.3125 201.48021L270.03125 201.57396Q269.9375 200.63646 269.34375 200.15208Q268.75 199.65208 267.59375 199.65208Q266.39062 199.65208 265.84375 200.10521Q265.29688 200.54271 265.29688 201.16771Q265.29688 201.69896 265.6875 202.05833Q266.0625 202.40208 267.67188 202.77708Q269.29688 203.13646 269.89062 203.40208Q270.76562 203.80833 271.1875 204.43333Q271.60938 205.04271 271.60938 205.85521Q271.60938 206.65208 271.14062 207.37083Q270.6875 208.07396 269.82812 208.46458Q268.96875 208.85521 267.90625 208.85521Q266.54688 208.85521 265.625 208.46458Q264.70312 208.05833 264.17188 207.26146Q263.65625 206.46458 263.625 205.46458ZM277.65625 207.79271Q276.98438 208.37083 276.34375 208.62083Q275.71875 208.85521 274.98438 208.85521Q273.79688 208.85521 273.14062 208.27708Q272.5 207.68333 272.5 206.76146Q272.5 206.23021 272.73438 205.79271Q272.98438 205.35521 273.375 205.08958Q273.78125 204.82396 274.26562 204.68333Q274.625 204.58958 275.35938 204.49583Q276.85938 204.32396 277.5625 204.07396Q277.5625 203.82396 277.5625 203.76146Q277.5625 202.99583 277.21875 202.69896Q276.75 202.27708 275.8125 202.27708Q274.95312 202.27708 274.53125 202.58958Q274.125 202.88646 273.92188 203.65208L272.71875 203.49583Q272.875 202.71458 273.25 202.24583Q273.64062 201.77708 274.34375 201.52708Q275.0625 201.26146 276.0 201.26146Q276.92188 201.26146 277.5 201.48021Q278.07812 201.69896 278.34375 202.02708Q278.625 202.35521 278.73438 202.87083Q278.79688 203.18333 278.79688 203.99583L278.79688 205.63646Q278.79688 207.35521 278.875 207.80833Q278.95312 208.26146 279.1875 208.68333L277.90625 208.68333Q277.71875 208.29271 277.65625 207.79271ZM277.5625 205.04271Q276.89062 205.30833 275.54688 205.51146Q274.79688 205.62083 274.46875 205.76146Q274.15625 205.88646 273.98438 206.15208Q273.8125 206.41771 273.8125 206.73021Q273.8125 207.23021 274.1875 207.55833Q274.5625 207.88646 275.28125 207.88646Q276.0 207.88646 276.54688 207.57396Q277.09375 207.26146 277.35938 206.71458Q277.5625 206.30833 277.5625 205.49583L277.5625 205.04271ZM283.60938 207.58958L283.78125 208.66771Q283.26562 208.77708 282.85938 208.77708Q282.1875 208.77708 281.8125 208.57396Q281.45312 208.35521 281.29688 208.01146Q281.15625 207.66771 281.15625 206.55833L281.15625 202.38646L280.25 202.38646L280.25 201.41771L281.15625 201.41771L281.15625 199.62083L282.375 198.88646L282.375 201.41771L283.60938 201.41771L283.60938 202.38646L282.375 202.38646L282.375 206.62083Q282.375 207.15208 282.4375 207.30833Q282.5 207.44896 282.64062 207.54271Q282.79688 207.63646 283.0625 207.63646Q283.28125 207.63646 283.60938 207.58958ZM284.9375 200.07396L284.9375 198.66771L286.15625 198.66771L286.15625 200.07396L284.9375 200.07396ZM284.9375 208.68333L284.9375 201.41771L286.15625 201.41771L286.15625 208.68333L284.9375 208.68333ZM287.4375 206.51146L288.64062 206.32396Q288.75 207.05833 289.21875 207.44896Q289.6875 207.83958 290.53125 207.83958Q291.375 207.83958 291.78125 207.49583Q292.20312 207.15208 292.20312 206.68333Q292.20312 206.26146 291.82812 206.02708Q291.57812 205.85521 290.57812 205.60521Q289.21875 205.26146 288.6875 205.01146Q288.17188 204.76146 287.90625 204.32396Q287.64062 203.88646 287.64062 203.35521Q287.64062 202.87083 287.85938 202.46458Q288.07812 202.04271 288.46875 201.76146Q288.75 201.55833 289.23438 201.41771Q289.73438 201.26146 290.3125 201.26146Q291.15625 201.26146 291.79688 201.51146Q292.45312 201.74583 292.76562 202.16771Q293.07812 202.58958 293.1875 203.29271L291.98438 203.46458Q291.90625 202.90208 291.5 202.58958Q291.10938 202.27708 290.39062 202.27708Q289.54688 202.27708 289.1875 202.55833Q288.82812 202.82396 288.82812 203.21458Q288.82812 203.44896 288.96875 203.63646Q289.125 203.83958 289.45312 203.96458Q289.625 204.02708 290.53125 204.27708Q291.84375 204.63646 292.35938 204.85521Q292.875 205.07396 293.15625 205.49583Q293.45312 205.91771 293.45312 206.54271Q293.45312 207.16771 293.09375 207.71458Q292.75 208.24583 292.0625 208.55833Q291.39062 208.85521 290.53125 208.85521Q289.125 208.85521 288.375 208.26146Q287.64062 207.66771 287.4375 206.51146ZM295.21875 208.68333L295.21875 202.38646L294.125 202.38646L294.125 201.41771L295.21875 201.41771L295.21875 200.65208Q295.21875 199.91771 295.34375 199.55833Q295.53125 199.08958 295.96875 198.79271Q296.42188 198.49583 297.23438 198.49583Q297.75 198.49583 298.375 198.62083L298.1875 199.68333Q297.8125 199.62083 297.46875 199.62083Q296.90625 199.62083 296.67188 199.85521Q296.4375 200.08958 296.4375 200.74583L296.4375 201.41771L297.85938 201.41771L297.85938 202.38646L296.4375 202.38646L296.4375 208.68333L295.21875 208.68333ZM303.65625 207.79271Q302.98438 208.37083 302.34375 208.62083Q301.71875 208.85521 300.98438 208.85521Q299.79688 208.85521 299.14062 208.27708Q298.5 207.68333 298.5 206.76146Q298.5 206.23021 298.73438 205.79271Q298.98438 205.35521 299.375 205.08958Q299.78125 204.82396 300.26562 204.68333Q300.625 204.58958 301.35938 204.49583Q302.85938 204.32396 303.5625 204.07396Q303.5625 203.82396 303.5625 203.76146Q303.5625 202.99583 303.21875 202.69896Q302.75 202.27708 301.8125 202.27708Q300.95312 202.27708 300.53125 202.58958Q300.125 202.88646 299.92188 203.65208L298.71875 203.49583Q298.875 202.71458 299.25 202.24583Q299.64062 201.77708 300.34375 201.52708Q301.0625 201.26146 302.0 201.26146Q302.92188 201.26146 303.5 201.48021Q304.07812 201.69896 304.34375 202.02708Q304.625 202.35521 304.73438 202.87083Q304.79688 203.18333 304.79688 203.99583L304.79688 205.63646Q304.79688 207.35521 304.875 207.80833Q304.95312 208.26146 305.1875 208.68333L303.90625 208.68333Q303.71875 208.29271 303.65625 207.79271ZM303.5625 205.04271Q302.89062 205.30833 301.54688 205.51146Q300.79688 205.62083 300.46875 205.76146Q300.15625 205.88646 299.98438 206.15208Q299.8125 206.41771 299.8125 206.73021Q299.8125 207.23021 300.1875 207.55833Q300.5625 207.88646 301.28125 207.88646Q302.0 207.88646 302.54688 207.57396Q303.09375 207.26146 303.35938 206.71458Q303.5625 206.30833 303.5625 205.49583L303.5625 205.04271ZM311.65625 206.02708L312.875 206.18333Q312.67188 207.43333 311.84375 208.15208Q311.03125 208.85521 309.84375 208.85521Q308.35938 208.85521 307.45312 207.88646Q306.54688 206.90208 306.54688 205.07396Q306.54688 203.90208 306.9375 203.02708Q307.32812 202.13646 308.125 201.69896Q308.92188 201.26146 309.85938 201.26146Q311.03125 201.26146 311.78125 201.85521Q312.54688 202.44896 312.75 203.55833L311.5625 203.74583Q311.39062 203.01146 310.95312 202.65208Q310.51562 202.27708 309.90625 202.27708Q308.96875 202.27708 308.39062 202.94896Q307.8125 203.60521 307.8125 205.04271Q307.8125 206.51146 308.375 207.18333Q308.9375 207.83958 309.82812 207.83958Q310.5625 207.83958 311.04688 207.40208Q311.53125 206.94896 311.65625 206.02708ZM316.60938 207.58958L316.78125 208.66771Q316.26562 208.77708 315.85938 208.77708Q315.1875 208.77708 314.8125 208.57396Q314.45312 208.35521 314.29688 208.01146Q314.15625 207.66771 314.15625 206.55833L314.15625 202.38646L313.25 202.38646L313.25 201.41771L314.15625 201.41771L314.15625 199.62083L315.375 198.88646L315.375 201.41771L316.60938 201.41771L316.60938 202.38646L315.375 202.38646L315.375 206.62083Q315.375 207.15208 315.4375 207.30833Q315.5 207.44896 315.64062 207.54271Q315.79688 207.63646 316.0625 207.63646Q316.28125 207.63646 316.60938 207.58958ZM317.46875 205.05833Q317.46875 203.04271 318.59375 202.05833Q319.51562 201.26146 320.875 201.26146Q322.35938 201.26146 323.3125 202.24583Q324.26562 203.21458 324.26562 204.94896Q324.26562 206.35521 323.84375 207.16771Q323.42188 207.96458 322.60938 208.41771Q321.8125 208.85521 320.875 208.85521Q319.34375 208.85521 318.40625 207.87083Q317.46875 206.88646 317.46875 205.05833ZM318.73438 205.05833Q318.73438 206.44896 319.34375 207.15208Q319.95312 207.83958 320.875 207.83958Q321.78125 207.83958 322.39062 207.13646Q323.0 206.43333 323.0 205.01146Q323.0 203.66771 322.39062 202.98021Q321.78125 202.27708 320.875 202.27708Q319.95312 202.27708 319.34375 202.96458Q318.73438 203.65208 318.73438 205.05833ZM325.90625 208.68333L325.90625 201.41771L327.01562 201.41771L327.01562 202.52708Q327.4375 201.74583 327.79688 201.51146Q328.15625 201.26146 328.59375 201.26146Q329.21875 201.26146 329.85938 201.65208L329.4375 202.79271Q328.98438 202.52708 328.53125 202.52708Q328.125 202.52708 327.79688 202.77708Q327.48438 203.01146 327.34375 203.44896Q327.14062 204.10521 327.14062 204.88646L327.14062 208.68333L325.90625 208.68333ZM330.875 211.48021L330.73438 210.32396Q331.14062 210.43333 331.4375 210.43333Q331.84375 210.43333 332.09375 210.29271Q332.34375 210.16771 332.5 209.91771Q332.60938 209.73021 332.875 208.99583Q332.90625 208.90208 332.98438 208.69896L330.21875 201.41771L331.54688 201.41771L333.0625 205.62083Q333.35938 206.43333 333.59375 207.30833Q333.79688 206.46458 334.09375 205.65208L335.64062 201.41771L336.875 201.41771L334.10938 208.80833Q333.67188 209.99583 333.42188 210.44896Q333.09375 211.05833 332.67188 211.33958Q332.25 211.63646 331.65625 211.63646Q331.3125 211.63646 330.875 211.48021Z" fill-rule="nonzero"/><path fill="#000000" d="M30.315624 32.534374L32.20625 33.003124Q31.6125 35.346874 30.065624 36.58125Q28.51875 37.8 26.26875 37.8Q23.95625 37.8 22.503124 36.8625Q21.065624 35.909374 20.3 34.128124Q19.55 32.33125 19.55 30.284374Q19.55 28.05 20.39375 26.39375Q21.253124 24.721874 22.83125 23.8625Q24.409374 22.9875 26.3 22.9875Q28.45625 22.9875 29.909374 24.08125Q31.378124 25.175 31.95625 27.159374L30.096874 27.596874Q29.596874 26.034374 28.64375 25.33125Q27.70625 24.6125 26.26875 24.6125Q24.6125 24.6125 23.503124 25.409374Q22.39375 26.190624 21.940624 27.534374Q21.503124 28.8625 21.503124 30.26875Q21.503124 32.096874 22.034374 33.471874Q22.565624 34.83125 23.690624 35.503124Q24.815624 36.175 26.1125 36.175Q27.70625 36.175 28.815624 35.253124Q29.925 34.33125 30.315624 32.534374ZM40.64375 36.26875Q39.659374 37.096874 38.753124 37.440624Q37.846874 37.784374 36.815624 37.784374Q35.1125 37.784374 34.190624 36.95625Q33.26875 36.1125 33.26875 34.815624Q33.26875 34.05 33.6125 33.425Q33.971874 32.8 34.534374 32.425Q35.096874 32.034374 35.8 31.83125Q36.315624 31.70625 37.3625 31.565624Q39.4875 31.315624 40.4875 30.971874Q40.503124 30.6125 40.503124 30.503124Q40.503124 29.440624 40.003124 28.9875Q39.33125 28.39375 38.003124 28.39375Q36.753124 28.39375 36.159374 28.83125Q35.58125 29.26875 35.3 30.378124L33.58125 30.14375Q33.815624 29.034374 34.346874 28.3625Q34.878124 27.675 35.89375 27.315624Q36.909374 26.940624 38.253124 26.940624Q39.58125 26.940624 40.409374 27.253124Q41.2375 27.565624 41.628124 28.05Q42.01875 28.51875 42.175 29.2375Q42.26875 29.690624 42.26875 30.8625L42.26875 33.20625Q42.26875 35.659374 42.378124 36.315624Q42.4875 36.95625 42.83125 37.55L40.9875 37.55Q40.721874 37.003124 40.64375 36.26875ZM40.4875 32.346874Q39.534374 32.7375 37.6125 33.003124Q36.534374 33.159374 36.08125 33.3625Q35.64375 33.55 35.39375 33.925Q35.14375 34.3 35.14375 34.76875Q35.14375 35.471874 35.675 35.940624Q36.20625 36.409374 37.2375 36.409374Q38.253124 36.409374 39.034374 35.971874Q39.83125 35.51875 40.20625 34.753124Q40.4875 34.14375 40.4875 32.9875L40.4875 32.346874ZM48.70625 35.971874L48.95625 37.534374Q48.221874 37.690624 47.628124 37.690624Q46.675 37.690624 46.14375 37.39375Q45.628124 37.08125 45.409374 36.596874Q45.190624 36.096874 45.190624 34.51875L45.190624 28.55L43.909374 28.55L43.909374 27.175L45.190624 27.175L45.190624 24.6125L46.940624 23.55L46.940624 27.175L48.70625 27.175L48.70625 28.55L46.940624 28.55L46.940624 34.6125Q46.940624 35.3625 47.034374 35.58125Q47.128124 35.784374 47.33125 35.925Q47.55 36.05 47.940624 36.05Q48.221874 36.05 48.70625 35.971874ZM57.64375 36.26875Q56.659374 37.096874 55.753124 37.440624Q54.846874 37.784374 53.815624 37.784374Q52.1125 37.784374 51.190624 36.95625Q50.26875 36.1125 50.26875 34.815624Q50.26875 34.05 50.6125 33.425Q50.971874 32.8 51.534374 32.425Q52.096874 32.034374 52.8 31.83125Q53.315624 31.70625 54.3625 31.565624Q56.4875 31.315624 57.4875 30.971874Q57.503124 30.6125 57.503124 30.503124Q57.503124 29.440624 57.003124 28.9875Q56.33125 28.39375 55.003124 28.39375Q53.753124 28.39375 53.159374 28.83125Q52.58125 29.26875 52.3 30.378124L50.58125 30.14375Q50.815624 29.034374 51.346874 28.3625Q51.878124 27.675 52.89375 27.315624Q53.909374 26.940624 55.253124 26.940624Q56.58125 26.940624 57.409374 27.253124Q58.2375 27.565624 58.628124 28.05Q59.01875 28.51875 59.175 29.2375Q59.26875 29.690624 59.26875 30.8625L59.26875 33.20625Q59.26875 35.659374 59.378124 36.315624Q59.4875 36.95625 59.83125 37.55L57.9875 37.55Q57.721874 37.003124 57.64375 36.26875ZM57.4875 32.346874Q56.534374 32.7375 54.6125 33.003124Q53.534374 33.159374 53.08125 33.3625Q52.64375 33.55 52.39375 33.925Q52.14375 34.3 52.14375 34.76875Q52.14375 35.471874 52.675 35.940624Q53.20625 36.409374 54.2375 36.409374Q55.253124 36.409374 56.034374 35.971874Q56.83125 35.51875 57.20625 34.753124Q57.4875 34.14375 57.4875 32.9875L57.4875 32.346874ZM61.8625 41.51875L61.8625 27.175L63.471874 27.175L63.471874 28.51875Q64.03438 27.7375 64.7375 27.346874Q65.45625 26.940624 66.47188 26.940624Q67.8 26.940624 68.81563 27.628124Q69.83125 28.315624 70.34688 29.565624Q70.87813 30.8 70.87813 32.284374Q70.87813 33.878124 70.3 35.159374Q69.7375 36.425 68.64375 37.1125Q67.55 37.784374 66.34688 37.784374Q65.47188 37.784374 64.76875 37.409374Q64.08125 37.034374 63.628124 36.471874L63.628124 41.51875L61.8625 41.51875ZM63.45625 32.425Q63.45625 34.425 64.26875 35.378124Q65.08125 36.33125 66.2375 36.33125Q67.40938 36.33125 68.2375 35.346874Q69.08125 34.3625 69.08125 32.26875Q69.08125 30.3 68.25313 29.315624Q67.44063 28.315624 66.31563 28.315624Q65.19063 28.315624 64.31563 29.378124Q63.45625 30.425 63.45625 32.425ZM79.65938 37.55L79.65938 36.01875Q78.45625 37.784374 76.37813 37.784374Q75.45625 37.784374 74.65938 37.440624Q73.8625 37.08125 73.47188 36.55Q73.09688 36.01875 72.94063 35.2375Q72.83125 34.721874 72.83125 33.596874L72.83125 27.175L74.58125 27.175L74.58125 32.925Q74.58125 34.3 74.69063 34.784374Q74.8625 35.471874 75.39375 35.878124Q75.94063 36.26875 76.72188 36.26875Q77.51875 36.26875 78.20625 35.8625Q78.90938 35.45625 79.19063 34.76875Q79.4875 34.065624 79.4875 32.7375L79.4875 27.175L81.2375 27.175L81.2375 37.55L79.65938 37.55ZM82.83125 37.55L82.83125 23.2375L84.58125 23.2375L84.58125 37.55L82.83125 37.55ZM90.70625 35.971874L90.95625 37.534374Q90.22188 37.690624 89.62813 37.690624Q88.675 37.690624 88.14375 37.39375Q87.62813 37.08125 87.40938 36.596874Q87.19063 36.096874 87.19063 34.51875L87.19063 28.55L85.90938 28.55L85.90938 27.175L87.19063 27.175L87.19063 24.6125L88.94063 23.55L88.94063 27.175L90.70625 27.175L90.70625 28.55L88.94063 28.55L88.94063 34.6125Q88.94063 35.3625 89.03438 35.58125Q89.12813 35.784374 89.33125 35.925Q89.55 36.05 89.94063 36.05Q90.22188 36.05 90.70625 35.971874ZM99.09688 37.55L99.09688 23.2375L104.4875 23.2375Q105.925 23.2375 106.675 23.3625Q107.72188 23.55 108.44063 24.05Q109.15938 24.534374 109.58125 25.425Q110.01875 26.315624 110.01875 27.378124Q110.01875 29.20625 108.84688 30.471874Q107.69063 31.721874 104.65938 31.721874L100.9875 31.721874L100.9875 37.55L99.09688 37.55ZM100.9875 30.034374L104.69063 30.034374Q106.51875 30.034374 107.28438 29.3625Q108.06563 28.675 108.06563 27.425Q108.06563 26.534374 107.6125 25.89375Q107.15938 25.253124 106.425 25.05Q105.94063 24.925 104.64375 24.925L100.9875 24.925L100.9875 30.034374ZM118.97188 34.20625L120.78438 34.440624Q120.3625 36.01875 119.19063 36.909374Q118.03438 37.784374 116.22188 37.784374Q113.95625 37.784374 112.6125 36.39375Q111.28438 34.9875 111.28438 32.45625Q111.28438 29.83125 112.62813 28.39375Q113.97188 26.940624 116.12813 26.940624Q118.20625 26.940624 119.51875 28.3625Q120.84688 29.76875 120.84688 32.346874Q120.84688 32.503124 120.83125 32.815624L113.09688 32.815624Q113.19063 34.51875 114.06563 35.425Q114.94063 36.33125 116.2375 36.33125Q117.20625 36.33125 117.87813 35.83125Q118.56563 35.315624 118.97188 34.20625ZM113.19063 31.3625L118.9875 31.3625Q118.87813 30.065624 118.33125 29.409374Q117.4875 28.39375 116.14375 28.39375Q114.94063 28.39375 114.1125 29.20625Q113.28438 30.003124 113.19063 31.3625ZM122.84688 37.55L122.84688 27.175L124.425 27.175L124.425 28.753124Q125.03438 27.64375 125.55 27.3Q126.06563 26.940624 126.675 26.940624Q127.56563 26.940624 128.4875 27.503124L127.87813 29.14375Q127.2375 28.753124 126.59688 28.753124Q126.01875 28.753124 125.55 29.1125Q125.09688 29.45625 124.89375 30.065624Q124.6125 31.003124 124.6125 32.1125L124.6125 37.55L122.84688 37.55ZM130.28438 37.55L130.28438 28.55L128.7375 28.55L128.7375 27.175L130.28438 27.175L130.28438 26.08125Q130.28438 25.034374 130.47188 24.51875Q130.72188 23.83125 131.3625 23.409374Q132.00313 22.9875 133.15938 22.9875Q133.90938 22.9875 134.8 23.159374L134.53438 24.690624Q133.9875 24.596874 133.50313 24.596874Q132.70625 24.596874 132.3625 24.940624Q132.03438 25.284374 132.03438 26.221874L132.03438 27.175L134.06563 27.175L134.06563 28.55L132.03438 28.55L132.03438 37.55L130.28438 37.55ZM135.22188 32.3625Q135.22188 29.4875 136.81563 28.096874Q138.15938 26.940624 140.08125 26.940624Q142.22188 26.940624 143.56563 28.346874Q144.925 29.753124 144.925 32.221874Q144.925 34.221874 144.33125 35.378124Q143.7375 36.51875 142.58125 37.159374Q141.44063 37.784374 140.08125 37.784374Q137.89375 37.784374 136.55 36.39375Q135.22188 34.9875 135.22188 32.3625ZM137.01875 32.3625Q137.01875 34.3625 137.87813 35.346874Q138.75313 36.33125 140.08125 36.33125Q141.39375 36.33125 142.25313 35.346874Q143.12813 34.346874 143.12813 32.3Q143.12813 30.378124 142.25313 29.39375Q141.37813 28.39375 140.08125 28.39375Q138.75313 28.39375 137.87813 29.39375Q137.01875 30.378124 137.01875 32.3625ZM146.84688 37.55L146.84688 27.175L148.425 27.175L148.425 28.753124Q149.03438 27.64375 149.55 27.3Q150.06563 26.940624 150.675 26.940624Q151.56563 26.940624 152.4875 27.503124L151.87813 29.14375Q151.2375 28.753124 150.59688 28.753124Q150.01875 28.753124 149.55 29.1125Q149.09688 29.45625 148.89375 30.065624Q148.6125 31.003124 148.6125 32.1125L148.6125 37.55L146.84688 37.55ZM153.8625 37.55L153.8625 27.175L155.44063 27.175L155.44063 28.628124Q155.925 27.878124 156.7375 27.409374Q157.55 26.940624 158.58125 26.940624Q159.7375 26.940624 160.47188 27.425Q161.20625 27.89375 161.51875 28.753124Q162.75313 26.940624 164.72188 26.940624Q166.26875 26.940624 167.09688 27.8Q167.925 28.659374 167.925 30.425L167.925 37.55L166.175 37.55L166.175 31.01875Q166.175 29.95625 166.00313 29.503124Q165.83125 29.034374 165.37813 28.753124Q164.94063 28.471874 164.33125 28.471874Q163.2375 28.471874 162.50313 29.20625Q161.78438 29.925 161.78438 31.51875L161.78438 37.55L160.03438 37.55L160.03438 30.815624Q160.03438 29.64375 159.59688 29.065624Q159.175 28.471874 158.19063 28.471874Q157.45625 28.471874 156.81563 28.8625Q156.19063 29.253124 155.90938 30.003124Q155.62813 30.753124 155.62813 32.175L155.62813 37.55L153.8625 37.55ZM176.64375 36.26875Q175.65938 37.096874 174.75313 37.440624Q173.84688 37.784374 172.81563 37.784374Q171.1125 37.784374 170.19063 36.95625Q169.26875 36.1125 169.26875 34.815624Q169.26875 34.05 169.6125 33.425Q169.97188 32.8 170.53438 32.425Q171.09688 32.034374 171.8 31.83125Q172.31563 31.70625 173.3625 31.565624Q175.4875 31.315624 176.4875 30.971874Q176.50313 30.6125 176.50313 30.503124Q176.50313 29.440624 176.00313 28.9875Q175.33125 28.39375 174.00313 28.39375Q172.75313 28.39375 172.15938 28.83125Q171.58125 29.26875 171.3 30.378124L169.58125 30.14375Q169.81563 29.034374 170.34688 28.3625Q170.87813 27.675 171.89375 27.315624Q172.90938 26.940624 174.25313 26.940624Q175.58125 26.940624 176.40938 27.253124Q177.2375 27.565624 177.62813 28.05Q178.01875 28.51875 178.175 29.2375Q178.26875 29.690624 178.26875 30.8625L178.26875 33.20625Q178.26875 35.659374 178.37813 36.315624Q178.4875 36.95625 178.83125 37.55L176.9875 37.55Q176.72188 37.003124 176.64375 36.26875ZM176.4875 32.346874Q175.53438 32.7375 173.6125 33.003124Q172.53438 33.159374 172.08125 33.3625Q171.64375 33.55 171.39375 33.925Q171.14375 34.3 171.14375 34.76875Q171.14375 35.471874 171.675 35.940624Q172.20625 36.409374 173.2375 36.409374Q174.25313 36.409374 175.03438 35.971874Q175.83125 35.51875 176.20625 34.753124Q176.4875 34.14375 176.4875 32.9875L176.4875 32.346874ZM180.8625 37.55L180.8625 27.175L182.45625 27.175L182.45625 28.659374Q183.59688 26.940624 185.75313 26.940624Q186.69063 26.940624 187.47188 27.284374Q188.26875 27.6125 188.65938 28.159374Q189.05 28.70625 189.20625 29.45625Q189.3 29.95625 189.3 31.175L189.3 37.55L187.53438 37.55L187.53438 31.2375Q187.53438 30.159374 187.33125 29.628124Q187.12813 29.096874 186.59688 28.784374Q186.08125 28.471874 185.37813 28.471874Q184.25313 28.471874 183.44063 29.190624Q182.62813 29.89375 182.62813 31.878124L182.62813 37.55L180.8625 37.55ZM197.64375 33.753124L199.3625 33.971874Q199.08125 35.76875 197.90938 36.784374Q196.75313 37.784374 195.05 37.784374Q192.925 37.784374 191.62813 36.39375Q190.33125 35.003124 190.33125 32.409374Q190.33125 30.721874 190.87813 29.471874Q191.44063 28.20625 192.58125 27.58125Q193.72188 26.940624 195.06563 26.940624Q196.75313 26.940624 197.81563 27.8Q198.89375 28.659374 199.20625 30.221874L197.4875 30.4875Q197.25313 29.440624 196.62813 28.925Q196.00313 28.39375 195.12813 28.39375Q193.8 28.39375 192.97188 29.346874Q192.14375 30.3 192.14375 32.346874Q192.14375 34.440624 192.94063 35.39375Q193.7375 36.33125 195.03438 36.33125Q196.06563 36.33125 196.75313 35.70625Q197.45625 35.065624 197.64375 33.753124ZM207.97188 34.20625L209.78438 34.440624Q209.3625 36.01875 208.19063 36.909374Q207.03438 37.784374 205.22188 37.784374Q202.95625 37.784374 201.6125 36.39375Q200.28438 34.9875 200.28438 32.45625Q200.28438 29.83125 201.62813 28.39375Q202.97188 26.940624 205.12813 26.940624Q207.20625 26.940624 208.51875 28.3625Q209.84688 29.76875 209.84688 32.346874Q209.84688 32.503124 209.83125 32.815624L202.09688 32.815624Q202.19063 34.51875 203.06563 35.425Q203.94063 36.33125 205.2375 36.33125Q206.20625 36.33125 206.87813 35.83125Q207.56563 35.315624 207.97188 34.20625ZM202.19063 31.3625L207.9875 31.3625Q207.87813 30.065624 207.33125 29.409374Q206.4875 28.39375 205.14375 28.39375Q203.94063 28.39375 203.1125 29.20625Q202.28438 30.003124 202.19063 31.3625Z" fill-rule="nonzero"/></svg>