<svg version="1.1" viewBox="0.0 0.0 600.0 371.0" fill="none" stroke="none" stroke-linecap="square" stroke-miterlimit="10" width="600" height="371" xmlns:xlink="http://www.w3.org/1999/xlink" xmlns="http://www.w3.org/2000/svg"><path fill="#ffffff" d="M0 0L600.0 0L600.0 371.0L0 371.0L0 0Z" fill-rule="nonzero"/><path fill="#ea4335" d="M171.16429 129.3C197.73889 83.27143 246.85078 54.916668 300.0 54.916668L300.0 203.68333Z" fill-rule="nonzero"/><path fill="#fbbc04" d="M171.16429 278.06668C144.58968 232.0381 144.58968 175.32857 171.16429 129.3L300.0 203.68333Z" fill-rule="nonzero"/><path fill="#34a853" d="M300.0 54.916668C372.19553 54.916668 433.96994 106.751564 446.50656 177.85027C459.04318 248.94897 418.72278 318.78595 350.8812 343.47827C283.0396 368.1706 207.26204 340.5898 171.16429 278.06668L300.0 203.68333Z" fill-rule="nonzero"/><path fill="#1a1a1a" d="M25.1125 68.195656L26.253124 68.195656L26.253124 73.164406Q26.253124 74.46128 25.95625 75.226906Q25.659374 75.976906 24.89375 76.46128Q24.128124 76.93003 22.89375 76.93003Q21.690624 76.93003 20.909374 76.52378Q20.14375 76.101906 19.815624 75.320656Q19.4875 74.52378 19.4875 73.164406L19.4875 68.195656L20.628124 68.195656L20.628124 73.14878Q20.628124 74.27378 20.83125 74.80503Q21.05 75.33628 21.55 75.633156Q22.065624 75.914406 22.8 75.914406Q24.05 75.914406 24.58125 75.351906Q25.1125 74.77378 25.1125 73.14878L25.1125 68.195656ZM28.346874 76.789406L28.346874 70.570656L29.284374 70.570656L29.284374 71.445656Q29.971874 70.43003 31.26875 70.43003Q31.83125 70.43003 32.3 70.633156Q32.784374 70.83628 33.01875 71.164406Q33.253124 71.49253 33.346874 71.93003Q33.39375 72.226906 33.39375 72.96128L33.39375 76.789406L32.346874 76.789406L32.346874 73.008156Q32.346874 72.351906 32.221874 72.039406Q32.096874 71.726906 31.784374 71.539406Q31.471874 71.33628 31.05 71.33628Q30.378124 71.33628 29.878124 71.77378Q29.39375 72.195656 29.39375 73.383156L29.39375 76.789406L28.346874 76.789406ZM39.378124 76.789406L39.378124 76.008156Q38.784374 76.93003 37.64375 76.93003Q36.89375 76.93003 36.26875 76.52378Q35.64375 76.101906 35.3 75.36753Q34.95625 74.633156 34.95625 73.68003Q34.95625 72.758156 35.26875 71.99253Q35.58125 71.226906 36.20625 70.83628Q36.83125 70.43003 37.596874 70.43003Q38.159374 70.43003 38.596874 70.664406Q39.034374 70.89878 39.315624 71.27378L39.315624 68.195656L40.3625 68.195656L40.3625 76.789406L39.378124 76.789406ZM36.05 73.68003Q36.05 74.883156 36.55 75.476906Q37.05 76.05503 37.7375 76.05503Q38.425 76.05503 38.909374 75.49253Q39.39375 74.93003 39.39375 73.77378Q39.39375 72.49253 38.89375 71.89878Q38.409374 71.30503 37.690624 71.30503Q36.9875 71.30503 36.51875 71.883156Q36.05 72.445656 36.05 73.68003ZM46.596874 74.789406L47.690624 74.914406Q47.440624 75.86753 46.7375 76.39878Q46.034374 76.93003 44.95625 76.93003Q43.596874 76.93003 42.784374 76.08628Q41.9875 75.24253 41.9875 73.726906Q41.9875 72.164406 42.8 71.30503Q43.6125 70.43003 44.89375 70.43003Q46.14375 70.43003 46.925 71.27378Q47.721874 72.11753 47.721874 73.664406Q47.721874 73.758156 47.721874 73.945656L43.08125 73.945656Q43.14375 74.976906 43.659374 75.52378Q44.175 76.05503 44.95625 76.05503Q45.534374 76.05503 45.940624 75.758156Q46.3625 75.445656 46.596874 74.789406ZM43.14375 73.08628L46.6125 73.08628Q46.55 72.289406 46.221874 71.89878Q45.70625 71.289406 44.909374 71.289406Q44.175 71.289406 43.675 71.77378Q43.190624 72.258156 43.14375 73.08628ZM49.33125 76.789406L49.33125 70.570656L50.284374 70.570656L50.284374 71.508156Q50.64375 70.851906 50.940624 70.64878Q51.253124 70.43003 51.628124 70.43003Q52.159374 70.43003 52.70625 70.758156L52.346874 71.74253Q51.95625 71.508156 51.58125 71.508156Q51.221874 71.508156 50.940624 71.726906Q50.675 71.93003 50.565624 72.30503Q50.378124 72.86753 50.378124 73.52378L50.378124 76.789406L49.33125 76.789406ZM53.346874 79.18003L53.346874 70.570656L54.3 70.570656L54.3 71.36753Q54.64375 70.89878 55.065624 70.664406Q55.503124 70.43003 56.1125 70.43003Q56.909374 70.43003 57.51875 70.83628Q58.128124 71.24253 58.425 71.99253Q58.7375 72.74253 58.7375 73.633156Q58.7375 74.58628 58.39375 75.351906Q58.065624 76.11753 57.409374 76.52378Q56.753124 76.93003 56.034374 76.93003Q55.503124 76.93003 55.08125 76.71128Q54.659374 76.476906 54.39375 76.14878L54.39375 79.18003L53.346874 79.18003ZM54.3 73.71128Q54.3 74.914406 54.784374 75.49253Q55.26875 76.05503 55.95625 76.05503Q56.659374 76.05503 57.159374 75.46128Q57.659374 74.86753 57.659374 73.61753Q57.659374 72.43003 57.175 71.851906Q56.690624 71.258156 56.003124 71.258156Q55.33125 71.258156 54.815624 71.883156Q54.3 72.508156 54.3 73.71128ZM64.59688 74.789406L65.69063 74.914406Q65.44063 75.86753 64.7375 76.39878Q64.03438 76.93003 62.95625 76.93003Q61.596874 76.93003 60.784374 76.08628Q59.9875 75.24253 59.9875 73.726906Q59.9875 72.164406 60.8 71.30503Q61.6125 70.43003 62.89375 70.43003Q64.14375 70.43003 64.925 71.27378Q65.72188 72.11753 65.72188 73.664406Q65.72188 73.758156 65.72188 73.945656L61.08125 73.945656Q61.14375 74.976906 61.659374 75.52378Q62.175 76.05503 62.95625 76.05503Q63.534374 76.05503 63.940624 75.758156Q64.3625 75.445656 64.59688 74.789406ZM61.14375 73.08628L64.6125 73.08628Q64.55 72.289406 64.22188 71.89878Q63.70625 71.289406 62.909374 71.289406Q62.175 71.289406 61.675 71.77378Q61.190624 72.258156 61.14375 73.08628ZM67.33125 76.789406L67.33125 70.570656L68.28438 70.570656L68.28438 71.508156Q68.64375 70.851906 68.94063 70.64878Q69.25313 70.43003 69.62813 70.43003Q70.15938 70.43003 70.70625 70.758156L70.34688 71.74253Q69.95625 71.508156 69.58125 71.508156Q69.22188 71.508156 68.94063 71.726906Q68.675 71.93003 68.56563 72.30503Q68.37813 72.86753 68.37813 73.52378L68.37813 76.789406L67.33125 76.789406ZM71.59688 76.789406L71.59688 71.383156L70.65938 71.383156L70.65938 70.570656L71.59688 70.570656L71.59688 69.89878Q71.59688 69.27378 71.70625 68.976906Q71.8625 68.55503 72.2375 68.30503Q72.62813 68.05503 73.31563 68.05503Q73.76875 68.05503 74.3 68.164406L74.14375 69.070656Q73.81563 69.02378 73.51875 69.02378Q73.03438 69.02378 72.83125 69.226906Q72.64375 69.43003 72.64375 69.99253L72.64375 70.570656L73.8625 70.570656L73.8625 71.383156L72.64375 71.383156L72.64375 76.789406L71.59688 76.789406ZM73.95625 73.68003Q73.95625 71.945656 74.90938 71.11753Q75.70625 70.43003 76.8625 70.43003Q78.14375 70.43003 78.95625 71.27378Q79.78438 72.101906 79.78438 73.58628Q79.78438 74.789406 79.425 75.476906Q79.06563 76.164406 78.3625 76.55503Q77.675 76.93003 76.8625 76.93003Q75.56563 76.93003 74.75313 76.101906Q73.95625 75.258156 73.95625 73.68003ZM75.03438 73.68003Q75.03438 74.86753 75.55 75.46128Q76.08125 76.05503 76.8625 76.05503Q77.65938 76.05503 78.175 75.46128Q78.69063 74.86753 78.69063 73.64878Q78.69063 72.49253 78.15938 71.89878Q77.64375 71.30503 76.8625 71.30503Q76.08125 71.30503 75.55 71.89878Q75.03438 72.476906 75.03438 73.68003ZM81.33125 76.789406L81.33125 70.570656L82.28438 70.570656L82.28438 71.508156Q82.64375 70.851906 82.94063 70.64878Q83.25313 70.43003 83.62813 70.43003Q84.15938 70.43003 84.70625 70.758156L84.34688 71.74253Q83.95625 71.508156 83.58125 71.508156Q83.22188 71.508156 82.94063 71.726906Q82.675 71.93003 82.56563 72.30503Q82.37813 72.86753 82.37813 73.52378L82.37813 76.789406L81.33125 76.789406ZM85.34688 76.789406L85.34688 70.570656L86.28438 70.570656L86.28438 71.445656Q86.58125 70.976906 87.06563 70.71128Q87.55 70.43003 88.175 70.43003Q88.8625 70.43003 89.3 70.71128Q89.75313 70.99253 89.925 71.508156Q90.675 70.43003 91.84688 70.43003Q92.78438 70.43003 93.26875 70.945656Q93.76875 71.445656 93.76875 72.52378L93.76875 76.789406L92.72188 76.789406L92.72188 72.86753Q92.72188 72.24253 92.6125 71.96128Q92.51875 71.68003 92.25313 71.508156Q91.9875 71.33628 91.6125 71.33628Q90.95625 71.33628 90.51875 71.77378Q90.09688 72.21128 90.09688 73.18003L90.09688 76.789406L89.03438 76.789406L89.03438 72.74253Q89.03438 72.039406 88.76875 71.695656Q88.51875 71.33628 87.94063 71.33628Q87.4875 71.33628 87.1125 71.570656Q86.7375 71.80503 86.56563 72.258156Q86.39375 72.71128 86.39375 73.55503L86.39375 76.789406L85.34688 76.789406ZM100.59688 74.789406L101.69063 74.914406Q101.44063 75.86753 100.7375 76.39878Q100.03438 76.93003 98.95625 76.93003Q97.59688 76.93003 96.78438 76.08628Q95.9875 75.24253 95.9875 73.726906Q95.9875 72.164406 96.8 71.30503Q97.6125 70.43003 98.89375 70.43003Q100.14375 70.43003 100.925 71.27378Q101.72188 72.11753 101.72188 73.664406Q101.72188 73.758156 101.72188 73.945656L97.08125 73.945656Q97.14375 74.976906 97.65938 75.52378Q98.175 76.05503 98.95625 76.05503Q99.53438 76.05503 99.94063 75.758156Q100.3625 75.445656 100.59688 74.789406ZM97.14375 73.08628L100.6125 73.08628Q100.55 72.289406 100.22188 71.89878Q99.70625 71.289406 98.90938 71.289406Q98.175 71.289406 97.675 71.77378Q97.19063 72.258156 97.14375 73.08628ZM107.37813 76.789406L107.37813 76.008156Q106.78438 76.93003 105.64375 76.93003Q104.89375 76.93003 104.26875 76.52378Q103.64375 76.101906 103.3 75.36753Q102.95625 74.633156 102.95625 73.68003Q102.95625 72.758156 103.26875 71.99253Q103.58125 71.226906 104.20625 70.83628Q104.83125 70.43003 105.59688 70.43003Q106.15938 70.43003 106.59688 70.664406Q107.03438 70.89878 107.31563 71.27378L107.31563 68.195656L108.3625 68.195656L108.3625 76.789406L107.37813 76.789406ZM104.05 73.68003Q104.05 74.883156 104.55 75.476906Q105.05 76.05503 105.7375 76.05503Q106.425 76.05503 106.90938 75.49253Q107.39375 74.93003 107.39375 73.77378Q107.39375 72.49253 106.89375 71.89878Q106.40938 71.30503 105.69063 71.30503Q104.9875 71.30503 104.51875 71.883156Q104.05 72.445656 104.05 73.68003Z" fill-rule="nonzero"/><path fill="#9e9e9e" d="M23.01875 93.789406L21.971874 93.789406L21.971874 87.070656Q21.58125 87.43003 20.95625 87.80503Q20.346874 88.164406 19.8625 88.33628L19.8625 87.320656Q20.7375 86.89878 21.39375 86.320656Q22.065624 85.726906 22.346874 85.164406L23.01875 85.164406L23.01875 93.789406ZM31.51875 87.30503L30.471874 87.383156Q30.33125 86.758156 30.08125 86.476906Q29.64375 86.02378 29.01875 86.02378Q28.51875 86.02378 28.128124 86.30503Q27.64375 86.68003 27.346874 87.383156Q27.065624 88.070656 27.05 89.351906Q27.425 88.77378 27.971874 88.49253Q28.534374 88.21128 29.14375 88.21128Q30.190624 88.21128 30.925 88.99253Q31.675 89.77378 31.675 90.99253Q31.675 91.80503 31.315624 92.508156Q30.971874 93.195656 30.3625 93.570656Q29.753124 93.93003 28.9875 93.93003Q27.659374 93.93003 26.83125 92.96128Q26.003124 91.99253 26.003124 89.77378Q26.003124 87.27378 26.925 86.14878Q27.721874 85.164406 29.08125 85.164406Q30.096874 85.164406 30.7375 85.74253Q31.39375 86.30503 31.51875 87.30503ZM27.221874 91.008156Q27.221874 91.55503 27.440624 92.05503Q27.675 92.539406 28.08125 92.80503Q28.503124 93.070656 28.971874 93.070656Q29.628124 93.070656 30.1125 92.539406Q30.596874 91.99253 30.596874 91.070656Q30.596874 90.18003 30.1125 89.664406Q29.64375 89.14878 28.925 89.14878Q28.20625 89.14878 27.70625 89.664406Q27.221874 90.18003 27.221874 91.008156ZM33.64375 93.789406L33.64375 92.58628L34.846874 92.58628L34.846874 93.789406L33.64375 93.789406ZM36.1125 86.320656L36.1125 85.30503L41.675 85.30503L41.675 86.133156Q40.8625 87.008156 40.05 88.46128Q39.253124 89.89878 38.815624 91.43003Q38.4875 92.508156 38.409374 93.789406L37.315624 93.789406Q37.33125 92.77378 37.70625 91.33628Q38.096874 89.89878 38.8 88.570656Q39.51875 87.24253 40.33125 86.320656L36.1125 86.320656ZM43.253124 87.258156Q43.253124 86.33628 43.70625 85.695656Q44.175 85.05503 45.05 85.05503Q45.8625 85.05503 46.39375 85.633156Q46.925 86.21128 46.925 87.320656Q46.925 88.414406 46.378124 89.008156Q45.846874 89.58628 45.065624 89.58628Q44.284374 89.58628 43.76875 89.008156Q43.253124 88.43003 43.253124 87.258156ZM45.08125 85.77378Q44.690624 85.77378 44.425 86.11753Q44.175 86.46128 44.175 87.36753Q44.175 88.195656 44.425 88.539406Q44.690624 88.86753 45.08125 88.86753Q45.4875 88.86753 45.7375 88.52378Q46.003124 88.18003 46.003124 87.289406Q46.003124 86.445656 45.7375 86.11753Q45.471874 85.77378 45.08125 85.77378ZM45.08125 94.101906L49.784374 85.05503L50.64375 85.05503L45.95625 94.101906L45.08125 94.101906ZM48.8 91.77378Q48.8 90.851906 49.253124 90.21128Q49.721874 89.570656 50.6125 89.570656Q51.425 89.570656 51.95625 90.14878Q52.4875 90.71128 52.4875 91.83628Q52.4875 92.93003 51.940624 93.52378Q51.409374 94.101906 50.6125 94.101906Q49.846874 94.101906 49.315624 93.52378Q48.8 92.945656 48.8 91.77378ZM50.64375 90.289406Q50.2375 90.289406 49.971874 90.633156Q49.721874 90.976906 49.721874 91.883156Q49.721874 92.695656 49.9875 93.039406Q50.253124 93.383156 50.64375 93.383156Q51.034374 93.383156 51.3 93.039406Q51.565624 92.695656 51.565624 91.789406Q51.565624 90.96128 51.3 90.633156Q51.034374 90.289406 50.64375 90.289406Z" fill-rule="nonzero"/><path stroke="#757575" stroke-width="1.0" stroke-linecap="butt" d="M18.55 81.289406L145.23334 81.289406L229.33583 81.289406" fill-rule="nonzero"/><path fill="#9e9e9e" d="M231.33583 81.289406C231.33583 80.18484 230.4404 79.289406 229.33583 79.289406C228.23126 79.289406 227.33583 80.18484 227.33583 81.289406C227.33583 82.393974 228.23126 83.289406 229.33583 83.289406C230.4404 83.289406 231.33583 82.393974 231.33583 81.289406" fill-rule="nonzero"/><path fill="#1a1a1a" d="M19.096874 196.41771L20.159374 196.32396Q20.2375 196.98021 20.51875 197.38646Q20.8 197.79271 21.378124 198.05833Q21.971874 198.30833 22.70625 198.30833Q23.346874 198.30833 23.846874 198.12083Q24.346874 197.91771 24.58125 197.58958Q24.83125 197.24583 24.83125 196.85521Q24.83125 196.44896 24.596874 196.15208Q24.3625 195.83958 23.83125 195.63646Q23.471874 195.49583 22.284374 195.21458Q21.1125 194.93333 20.64375 194.68333Q20.01875 194.35521 19.721874 193.88646Q19.425 193.40208 19.425 192.80833Q19.425 192.16771 19.784374 191.60521Q20.159374 191.02708 20.8625 190.74583Q21.58125 190.44896 22.440624 190.44896Q23.39375 190.44896 24.128124 190.76146Q24.8625 191.05833 25.253124 191.66771Q25.64375 192.26146 25.675 193.01146L24.58125 193.08958Q24.4875 192.27708 23.971874 191.87083Q23.471874 191.44896 22.4875 191.44896Q21.45625 191.44896 20.9875 191.82396Q20.51875 192.19896 20.51875 192.73021Q20.51875 193.19896 20.846874 193.49583Q21.175 193.79271 22.55 194.10521Q23.940624 194.41771 24.45625 194.65208Q25.20625 195.01146 25.565624 195.54271Q25.925 196.05833 25.925 196.76146Q25.925 197.44896 25.534374 198.05833Q25.14375 198.65208 24.409374 198.99583Q23.675 199.32396 22.753124 199.32396Q21.58125 199.32396 20.784374 198.99583Q20.003124 198.65208 19.55 197.96458Q19.1125 197.27708 19.096874 196.41771ZM31.409374 198.41771Q30.815624 198.91771 30.26875 199.12083Q29.7375 199.32396 29.1125 199.32396Q28.08125 199.32396 27.534374 198.82396Q26.9875 198.32396 26.9875 197.54271Q26.9875 197.08958 27.190624 196.71458Q27.39375 196.32396 27.7375 196.10521Q28.08125 195.87083 28.503124 195.76146Q28.8 195.66771 29.440624 195.58958Q30.70625 195.44896 31.315624 195.23021Q31.315624 195.01146 31.315624 194.96458Q31.315624 194.30833 31.01875 194.04271Q30.6125 193.69896 29.815624 193.69896Q29.08125 193.69896 28.721874 193.96458Q28.3625 194.21458 28.190624 194.87083L27.159374 194.73021Q27.3 194.07396 27.628124 193.66771Q27.95625 193.26146 28.565624 193.04271Q29.175 192.82396 29.971874 192.82396Q30.76875 192.82396 31.26875 193.01146Q31.76875 193.19896 32.003124 193.48021Q32.2375 193.76146 32.33125 194.19896Q32.378124 194.46458 32.378124 195.16771L32.378124 196.57396Q32.378124 198.04271 32.440624 198.43333Q32.51875 198.82396 32.721874 199.18333L31.6125 199.18333Q31.45625 198.85521 31.409374 198.41771ZM31.315624 196.05833Q30.7375 196.29271 29.596874 196.46458Q28.940624 196.55833 28.675 196.68333Q28.409374 196.79271 28.253124 197.01146Q28.1125 197.23021 28.1125 197.51146Q28.1125 197.93333 28.425 198.21458Q28.753124 198.49583 29.3625 198.49583Q29.971874 198.49583 30.440624 198.23021Q30.925 197.96458 31.14375 197.49583Q31.315624 197.13646 31.315624 196.44896L31.315624 196.05833ZM36.64375 198.24583L36.8 199.16771Q36.346874 199.26146 36.003124 199.26146Q35.425 199.26146 35.1125 199.08958Q34.8 198.90208 34.659374 198.60521Q34.534374 198.30833 34.534374 197.35521L34.534374 193.77708L33.76875 193.77708L33.76875 192.96458L34.534374 192.96458L34.534374 191.41771L35.58125 190.79271L35.58125 192.96458L36.64375 192.96458L36.64375 193.77708L35.58125 193.77708L35.58125 197.41771Q35.58125 197.87083 35.628124 197.99583Q35.690624 198.12083 35.815624 198.19896Q35.940624 198.27708 36.175 198.27708Q36.3625 198.27708 36.64375 198.24583ZM37.346874 191.80833L37.346874 190.58958L38.409374 190.58958L38.409374 191.80833L37.346874 191.80833ZM37.346874 199.18333L37.346874 192.96458L38.409374 192.96458L38.409374 199.18333L37.346874 199.18333ZM39.925 197.32396L40.95625 197.16771Q41.05 197.79271 41.440624 198.12083Q41.846874 198.44896 42.58125 198.44896Q43.3 198.44896 43.64375 198.16771Q44.003124 197.87083 44.003124 197.46458Q44.003124 197.10521 43.690624 196.90208Q43.471874 196.76146 42.6125 196.54271Q41.45625 196.24583 41.003124 196.04271Q40.565624 195.82396 40.33125 195.44896Q40.096874 195.07396 40.096874 194.60521Q40.096874 194.19896 40.284374 193.83958Q40.471874 193.48021 40.8 193.24583Q41.05 193.07396 41.471874 192.94896Q41.89375 192.82396 42.39375 192.82396Q43.1125 192.82396 43.659374 193.04271Q44.221874 193.24583 44.4875 193.60521Q44.753124 193.96458 44.846874 194.55833L43.815624 194.69896Q43.753124 194.23021 43.409374 193.96458Q43.08125 193.68333 42.45625 193.68333Q41.7375 193.68333 41.425 193.93333Q41.1125 194.16771 41.1125 194.49583Q41.1125 194.69896 41.2375 194.85521Q41.378124 195.02708 41.64375 195.13646Q41.8 195.19896 42.58125 195.40208Q43.70625 195.71458 44.14375 195.90208Q44.58125 196.08958 44.83125 196.44896Q45.08125 196.80833 45.08125 197.35521Q45.08125 197.88646 44.76875 198.35521Q44.471874 198.80833 43.89375 199.07396Q43.315624 199.32396 42.58125 199.32396Q41.3625 199.32396 40.721874 198.82396Q40.096874 198.30833 39.925 197.32396ZM47.596874 199.18333L47.596874 193.77708L46.659374 193.77708L46.659374 192.96458L47.596874 192.96458L47.596874 192.29271Q47.596874 191.66771 47.70625 191.37083Q47.8625 190.94896 48.2375 190.69896Q48.628124 190.44896 49.315624 190.44896Q49.76875 190.44896 50.3 190.55833L50.14375 191.46458Q49.815624 191.41771 49.51875 191.41771Q49.034374 191.41771 48.83125 191.62083Q48.64375 191.82396 48.64375 192.38646L48.64375 192.96458L49.8625 192.96458L49.8625 193.77708L48.64375 193.77708L48.64375 199.18333L47.596874 199.18333ZM54.409374 198.41771Q53.815624 198.91771 53.26875 199.12083Q52.7375 199.32396 52.1125 199.32396Q51.08125 199.32396 50.534374 198.82396Q49.9875 198.32396 49.9875 197.54271Q49.9875 197.08958 50.190624 196.71458Q50.39375 196.32396 50.7375 196.10521Q51.08125 195.87083 51.503124 195.76146Q51.8 195.66771 52.440624 195.58958Q53.70625 195.44896 54.315624 195.23021Q54.315624 195.01146 54.315624 194.96458Q54.315624 194.30833 54.01875 194.04271Q53.6125 193.69896 52.815624 193.69896Q52.08125 193.69896 51.721874 193.96458Q51.3625 194.21458 51.190624 194.87083L50.159374 194.73021Q50.3 194.07396 50.628124 193.66771Q50.95625 193.26146 51.565624 193.04271Q52.175 192.82396 52.971874 192.82396Q53.76875 192.82396 54.26875 193.01146Q54.76875 193.19896 55.003124 193.48021Q55.2375 193.76146 55.33125 194.19896Q55.378124 194.46458 55.378124 195.16771L55.378124 196.57396Q55.378124 198.04271 55.440624 198.43333Q55.51875 198.82396 55.721874 199.18333L54.6125 199.18333Q54.45625 198.85521 54.409374 198.41771ZM54.315624 196.05833Q53.7375 196.29271 52.596874 196.46458Q51.940624 196.55833 51.675 196.68333Q51.409374 196.79271 51.253124 197.01146Q51.1125 197.23021 51.1125 197.51146Q51.1125 197.93333 51.425 198.21458Q51.753124 198.49583 52.3625 198.49583Q52.971874 198.49583 53.440624 198.23021Q53.925 197.96458 54.14375 197.49583Q54.315624 197.13646 54.315624 196.44896L54.315624 196.05833ZM61.409374 196.90208L62.440624 197.04271Q62.26875 198.10521 61.565624 198.71458Q60.8625 199.32396 59.846874 199.32396Q58.565624 199.32396 57.784374 198.49583Q57.01875 197.65208 57.01875 196.08958Q57.01875 195.08958 57.346874 194.33958Q57.690624 193.57396 58.3625 193.19896Q59.05 192.82396 59.8625 192.82396Q60.8625 192.82396 61.503124 193.33958Q62.159374 193.83958 62.346874 194.79271L61.315624 194.94896Q61.175 194.32396 60.8 194.01146Q60.425 193.68333 59.89375 193.68333Q59.096874 193.68333 58.596874 194.26146Q58.096874 194.82396 58.096874 196.05833Q58.096874 197.32396 58.58125 197.88646Q59.065624 198.44896 59.83125 198.44896Q60.45625 198.44896 60.8625 198.07396Q61.284374 197.69896 61.409374 196.90208ZM65.64375 198.24583L65.8 199.16771Q65.34688 199.26146 65.00313 199.26146Q64.425 199.26146 64.1125 199.08958Q63.8 198.90208 63.659374 198.60521Q63.534374 198.30833 63.534374 197.35521L63.534374 193.77708L62.76875 193.77708L62.76875 192.96458L63.534374 192.96458L63.534374 191.41771L64.58125 190.79271L64.58125 192.96458L65.64375 192.96458L65.64375 193.77708L64.58125 193.77708L64.58125 197.41771Q64.58125 197.87083 64.62813 197.99583Q64.69063 198.12083 64.81563 198.19896Q64.94063 198.27708 65.175 198.27708Q65.3625 198.27708 65.64375 198.24583ZM65.95625 196.07396Q65.95625 194.33958 66.90938 193.51146Q67.70625 192.82396 68.8625 192.82396Q70.14375 192.82396 70.95625 193.66771Q71.78438 194.49583 71.78438 195.98021Q71.78438 197.18333 71.425 197.87083Q71.06563 198.55833 70.3625 198.94896Q69.675 199.32396 68.8625 199.32396Q67.56563 199.32396 66.75313 198.49583Q65.95625 197.65208 65.95625 196.07396ZM67.03438 196.07396Q67.03438 197.26146 67.55 197.85521Q68.08125 198.44896 68.8625 198.44896Q69.65938 198.44896 70.175 197.85521Q70.69063 197.26146 70.69063 196.04271Q70.69063 194.88646 70.15938 194.29271Q69.64375 193.69896 68.8625 193.69896Q68.08125 193.69896 67.55 194.29271Q67.03438 194.87083 67.03438 196.07396ZM73.33125 199.18333L73.33125 192.96458L74.28438 192.96458L74.28438 193.90208Q74.64375 193.24583 74.94063 193.04271Q75.25313 192.82396 75.62813 192.82396Q76.15938 192.82396 76.70625 193.15208L76.34688 194.13646Q75.95625 193.90208 75.58125 193.90208Q75.22188 193.90208 74.94063 194.12083Q74.675 194.32396 74.56563 194.69896Q74.37813 195.26146 74.37813 195.91771L74.37813 199.18333L73.33125 199.18333ZM77.3 201.57396L77.175 200.58958Q77.51875 200.68333 77.78438 200.68333Q78.12813 200.68333 78.33125 200.55833Q78.55 200.44896 78.69063 200.24583Q78.78438 200.07396 79.01875 199.44896Q79.03438 199.37083 79.1125 199.19896L76.7375 192.96458L77.87813 192.96458L79.175 196.55833Q79.425 197.24583 79.62813 198.01146Q79.81563 197.27708 80.06563 196.58958L81.39375 192.96458L82.44063 192.96458L80.08125 199.29271Q79.69063 200.30833 79.4875 200.69896Q79.20625 201.23021 78.83125 201.46458Q78.47188 201.71458 77.97188 201.71458Q77.675 201.71458 77.3 201.57396Z" fill-rule="nonzero"/><path fill="#9e9e9e" d="M23.01875 216.18333L21.971874 216.18333L21.971874 209.46458Q21.58125 209.82396 20.95625 210.19896Q20.346874 210.55833 19.8625 210.73021L19.8625 209.71458Q20.7375 209.29271 21.39375 208.71458Q22.065624 208.12083 22.346874 207.55833L23.01875 207.55833L23.01875 216.18333ZM31.51875 209.69896L30.471874 209.77708Q30.33125 209.15208 30.08125 208.87083Q29.64375 208.41771 29.01875 208.41771Q28.51875 208.41771 28.128124 208.69896Q27.64375 209.07396 27.346874 209.77708Q27.065624 210.46458 27.05 211.74583Q27.425 211.16771 27.971874 210.88646Q28.534374 210.60521 29.14375 210.60521Q30.190624 210.60521 30.925 211.38646Q31.675 212.16771 31.675 213.38646Q31.675 214.19896 31.315624 214.90208Q30.971874 215.58958 30.3625 215.96458Q29.753124 216.32396 28.9875 216.32396Q27.659374 216.32396 26.83125 215.35521Q26.003124 214.38646 26.003124 212.16771Q26.003124 209.66771 26.925 208.54271Q27.721874 207.55833 29.08125 207.55833Q30.096874 207.55833 30.7375 208.13646Q31.39375 208.69896 31.51875 209.69896ZM27.221874 213.40208Q27.221874 213.94896 27.440624 214.44896Q27.675 214.93333 28.08125 215.19896Q28.503124 215.46458 28.971874 215.46458Q29.628124 215.46458 30.1125 214.93333Q30.596874 214.38646 30.596874 213.46458Q30.596874 212.57396 30.1125 212.05833Q29.64375 211.54271 28.925 211.54271Q28.20625 211.54271 27.70625 212.05833Q27.221874 212.57396 27.221874 213.40208ZM33.64375 216.18333L33.64375 214.98021L34.846874 214.98021L34.846874 216.18333L33.64375 216.18333ZM36.1125 208.71458L36.1125 207.69896L41.675 207.69896L41.675 208.52708Q40.8625 209.40208 40.05 210.85521Q39.253124 212.29271 38.815624 213.82396Q38.4875 214.90208 38.409374 216.18333L37.315624 216.18333Q37.33125 215.16771 37.70625 213.73021Q38.096874 212.29271 38.8 210.96458Q39.51875 209.63646 40.33125 208.71458L36.1125 208.71458ZM43.253124 209.65208Q43.253124 208.73021 43.70625 208.08958Q44.175 207.44896 45.05 207.44896Q45.8625 207.44896 46.39375 208.02708Q46.925 208.60521 46.925 209.71458Q46.925 210.80833 46.378124 211.40208Q45.846874 211.98021 45.065624 211.98021Q44.284374 211.98021 43.76875 211.40208Q43.253124 210.82396 43.253124 209.65208ZM45.08125 208.16771Q44.690624 208.16771 44.425 208.51146Q44.175 208.85521 44.175 209.76146Q44.175 210.58958 44.425 210.93333Q44.690624 211.26146 45.08125 211.26146Q45.4875 211.26146 45.7375 210.91771Q46.003124 210.57396 46.003124 209.68333Q46.003124 208.83958 45.7375 208.51146Q45.471874 208.16771 45.08125 208.16771ZM45.08125 216.49583L49.784374 207.44896L50.64375 207.44896L45.95625 216.49583L45.08125 216.49583ZM48.8 214.16771Q48.8 213.24583 49.253124 212.60521Q49.721874 211.96458 50.6125 211.96458Q51.425 211.96458 51.95625 212.54271Q52.4875 213.10521 52.4875 214.23021Q52.4875 215.32396 51.940624 215.91771Q51.409374 216.49583 50.6125 216.49583Q49.846874 216.49583 49.315624 215.91771Q48.8 215.33958 48.8 214.16771ZM50.64375 212.68333Q50.2375 212.68333 49.971874 213.02708Q49.721874 213.37083 49.721874 214.27708Q49.721874 215.08958 49.9875 215.43333Q50.253124 215.77708 50.64375 215.77708Q51.034374 215.77708 51.3 215.43333Q51.565624 215.08958 51.565624 214.18333Q51.565624 213.35521 51.3 213.02708Q51.034374 212.68333 50.64375 212.68333Z" fill-rule="nonzero"/><path stroke="#757575" stroke-width="1.0" stroke-linecap="butt" d="M18.55 203.68333L145.23334 203.68333L158.67166 203.68333" fill-rule="nonzero"/><path fill="#9e9e9e" d="M160.67166 203.68333C160.67166 202.57877 159.77623 201.68333 158.67166 201.68333C157.5671 201.68333 156.67166 202.57877 156.67166 203.68333C156.67166 204.7879 157.5671 205.68333 158.67166 205.68333C159.77623 205.68333 160.67166 204.7879 160.67166 203.68333" fill-rule="nonzero"/><path fill="#1a1a1a" d="M500.02814 265.66Q500.02814 263.51938 501.16876 262.31625Q502.325 261.0975 504.1375 261.0975Q505.34064 261.0975 506.29376 261.67563Q507.2469 262.23813 507.7469 263.25375Q508.2469 264.26938 508.2469 265.56625Q508.2469 266.86313 507.71564 267.89438Q507.1844 268.92563 506.21564 269.45688Q505.2625 269.98813 504.1375 269.98813Q502.91876 269.98813 501.96564 269.41Q501.0125 268.81625 500.5125 267.81625Q500.02814 266.80063 500.02814 265.66ZM501.2 265.67563Q501.2 267.23813 502.02814 268.12875Q502.8719 269.01938 504.1375 269.01938Q505.41876 269.01938 506.2469 268.12875Q507.075 267.2225 507.075 265.55063Q507.075 264.50375 506.71564 263.7225Q506.3719 262.94125 505.6844 262.51938Q504.9969 262.08188 504.15314 262.08188Q502.95 262.08188 502.075 262.91Q501.2 263.73813 501.2 265.67563ZM510.96564 269.8475L508.60626 263.62875L509.71564 263.62875L511.0594 267.3475Q511.2625 267.95688 511.45 268.5975Q511.59064 268.11313 511.84064 267.42563L513.23126 263.62875L514.3094 263.62875L511.95 269.8475L510.96564 269.8475ZM518.4969 267.8475L519.59064 267.9725Q519.34064 268.92563 518.6375 269.45688Q517.9344 269.98813 516.85626 269.98813Q515.4969 269.98813 514.6844 269.14438Q513.8875 268.30063 513.8875 266.785Q513.8875 265.2225 514.7 264.36313Q515.5125 263.48813 516.79376 263.48813Q518.04376 263.48813 518.825 264.33188Q519.6219 265.17563 519.6219 266.7225Q519.6219 266.81625 519.6219 267.00375L514.98126 267.00375Q515.04376 268.035 515.5594 268.58188Q516.075 269.11313 516.85626 269.11313Q517.4344 269.11313 517.84064 268.81625Q518.2625 268.50375 518.4969 267.8475ZM515.04376 266.14438L518.5125 266.14438Q518.45 265.3475 518.1219 264.95688Q517.60626 264.3475 516.8094 264.3475Q516.075 264.3475 515.575 264.83188Q515.09064 265.31625 515.04376 266.14438ZM521.23126 269.8475L521.23126 263.62875L522.1844 263.62875L522.1844 264.56625Q522.54376 263.91 522.84064 263.70688Q523.15314 263.48813 523.52814 263.48813Q524.0594 263.48813 524.60626 263.81625L524.2469 264.80063Q523.85626 264.56625 523.48126 264.56625Q523.1219 264.56625 522.84064 264.785Q522.575 264.98813 522.46564 265.36313Q522.27814 265.92563 522.27814 266.58188L522.27814 269.8475L521.23126 269.8475ZM525.2469 272.23813L525.2469 263.62875L526.2 263.62875L526.2 264.42563Q526.54376 263.95688 526.96564 263.7225Q527.40314 263.48813 528.0125 263.48813Q528.8094 263.48813 529.41876 263.89438Q530.02814 264.30063 530.325 265.05063Q530.6375 265.80063 530.6375 266.69125Q530.6375 267.64438 530.29376 268.41Q529.96564 269.17563 529.3094 269.58188Q528.65314 269.98813 527.9344 269.98813Q527.40314 269.98813 526.98126 269.76938Q526.5594 269.535 526.29376 269.20688L526.29376 272.23813L525.2469 272.23813ZM526.2 266.76938Q526.2 267.9725 526.6844 268.55063Q527.16876 269.11313 527.85626 269.11313Q528.5594 269.11313 529.0594 268.51938Q529.5594 267.92563 529.5594 266.67563Q529.5594 265.48813 529.075 264.91Q528.59064 264.31625 527.90314 264.31625Q527.23126 264.31625 526.71564 264.94125Q526.2 265.56625 526.2 266.76938ZM536.4969 267.8475L537.59064 267.9725Q537.34064 268.92563 536.6375 269.45688Q535.9344 269.98813 534.85626 269.98813Q533.4969 269.98813 532.6844 269.14438Q531.8875 268.30063 531.8875 266.785Q531.8875 265.2225 532.7 264.36313Q533.5125 263.48813 534.79376 263.48813Q536.04376 263.48813 536.825 264.33188Q537.6219 265.17563 537.6219 266.7225Q537.6219 266.81625 537.6219 267.00375L532.98126 267.00375Q533.04376 268.035 533.5594 268.58188Q534.075 269.11313 534.85626 269.11313Q535.4344 269.11313 535.84064 268.81625Q536.2625 268.50375 536.4969 267.8475ZM533.04376 266.14438L536.5125 266.14438Q536.45 265.3475 536.1219 264.95688Q535.60626 264.3475 534.8094 264.3475Q534.075 264.3475 533.575 264.83188Q533.09064 265.31625 533.04376 266.14438ZM539.23126 269.8475L539.23126 263.62875L540.1844 263.62875L540.1844 264.56625Q540.54376 263.91 540.84064 263.70688Q541.15314 263.48813 541.52814 263.48813Q542.0594 263.48813 542.60626 263.81625L542.2469 264.80063Q541.85626 264.56625 541.48126 264.56625Q541.1219 264.56625 540.84064 264.785Q540.575 264.98813 540.46564 265.36313Q540.27814 265.92563 540.27814 266.58188L540.27814 269.8475L539.23126 269.8475ZM543.4969 269.8475L543.4969 264.44125L542.5594 264.44125L542.5594 263.62875L543.4969 263.62875L543.4969 262.95688Q543.4969 262.33188 543.60626 262.035Q543.7625 261.61313 544.1375 261.36313Q544.52814 261.11313 545.21564 261.11313Q545.66876 261.11313 546.2 261.2225L546.04376 262.12875Q545.71564 262.08188 545.41876 262.08188Q544.9344 262.08188 544.73126 262.285Q544.54376 262.48813 544.54376 263.05063L544.54376 263.62875L545.7625 263.62875L545.7625 264.44125L544.54376 264.44125L544.54376 269.8475L543.4969 269.8475ZM545.85626 266.73813Q545.85626 265.00375 546.8094 264.17563Q547.60626 263.48813 548.7625 263.48813Q550.04376 263.48813 550.85626 264.33188Q551.6844 265.16 551.6844 266.64438Q551.6844 267.8475 551.325 268.535Q550.96564 269.2225 550.2625 269.61313Q549.575 269.98813 548.7625 269.98813Q547.46564 269.98813 546.65314 269.16Q545.85626 268.31625 545.85626 266.73813ZM546.9344 266.73813Q546.9344 267.92563 547.45 268.51938Q547.98126 269.11313 548.7625 269.11313Q549.5594 269.11313 550.075 268.51938Q550.59064 267.92563 550.59064 266.70688Q550.59064 265.55063 550.0594 264.95688Q549.54376 264.36313 548.7625 264.36313Q547.98126 264.36313 547.45 264.95688Q546.9344 265.535 546.9344 266.73813ZM553.23126 269.8475L553.23126 263.62875L554.1844 263.62875L554.1844 264.56625Q554.54376 263.91 554.84064 263.70688Q555.15314 263.48813 555.52814 263.48813Q556.0594 263.48813 556.60626 263.81625L556.2469 264.80063Q555.85626 264.56625 555.48126 264.56625Q555.1219 264.56625 554.84064 264.785Q554.575 264.98813 554.46564 265.36313Q554.27814 265.92563 554.27814 266.58188L554.27814 269.8475L553.23126 269.8475ZM557.2469 269.8475L557.2469 263.62875L558.1844 263.62875L558.1844 264.50375Q558.48126 264.035 558.96564 263.76938Q559.45 263.48813 560.075 263.48813Q560.7625 263.48813 561.2 263.76938Q561.65314 264.05063 561.825 264.56625Q562.575 263.48813 563.7469 263.48813Q564.6844 263.48813 565.16876 264.00375Q565.66876 264.50375 565.66876 265.58188L565.66876 269.8475L564.6219 269.8475L564.6219 265.92563Q564.6219 265.30063 564.5125 265.01938Q564.41876 264.73813 564.15314 264.56625Q563.8875 264.39438 563.5125 264.39438Q562.85626 264.39438 562.41876 264.83188Q561.9969 265.26938 561.9969 266.23813L561.9969 269.8475L560.9344 269.8475L560.9344 265.80063Q560.9344 265.0975 560.66876 264.75375Q560.41876 264.39438 559.84064 264.39438Q559.3875 264.39438 559.0125 264.62875Q558.6375 264.86313 558.46564 265.31625Q558.29376 265.76938 558.29376 266.61313L558.29376 269.8475L557.2469 269.8475ZM572.4969 267.8475L573.59064 267.9725Q573.34064 268.92563 572.6375 269.45688Q571.9344 269.98813 570.85626 269.98813Q569.4969 269.98813 568.6844 269.14438Q567.8875 268.30063 567.8875 266.785Q567.8875 265.2225 568.7 264.36313Q569.5125 263.48813 570.79376 263.48813Q572.04376 263.48813 572.825 264.33188Q573.6219 265.17563 573.6219 266.7225Q573.6219 266.81625 573.6219 267.00375L568.98126 267.00375Q569.04376 268.035 569.5594 268.58188Q570.075 269.11313 570.85626 269.11313Q571.4344 269.11313 571.84064 268.81625Q572.2625 268.50375 572.4969 267.8475ZM569.04376 266.14438L572.5125 266.14438Q572.45 265.3475 572.1219 264.95688Q571.60626 264.3475 570.8094 264.3475Q570.075 264.3475 569.575 264.83188Q569.09064 265.31625 569.04376 266.14438ZM579.27814 269.8475L579.27814 269.06625Q578.6844 269.98813 577.54376 269.98813Q576.79376 269.98813 576.16876 269.58188Q575.54376 269.16 575.2 268.42563Q574.85626 267.69125 574.85626 266.73813Q574.85626 265.81625 575.16876 265.05063Q575.48126 264.285 576.10626 263.89438Q576.73126 263.48813 577.4969 263.48813Q578.0594 263.48813 578.4969 263.7225Q578.9344 263.95688 579.21564 264.33188L579.21564 261.25375L580.2625 261.25375L580.2625 269.8475L579.27814 269.8475ZM575.95 266.73813Q575.95 267.94125 576.45 268.535Q576.95 269.11313 577.6375 269.11313Q578.325 269.11313 578.8094 268.55063Q579.29376 267.98813 579.29376 266.83188Q579.29376 265.55063 578.79376 264.95688Q578.3094 264.36313 577.59064 264.36313Q576.8875 264.36313 576.41876 264.94125Q575.95 265.50375 575.95 266.73813Z" fill-rule="nonzero"/><path fill="#9e9e9e" d="M552.41876 280.36313L551.3719 280.44125Q551.23126 279.81625 550.98126 279.535Q550.54376 279.08188 549.91876 279.08188Q549.41876 279.08188 549.02814 279.36313Q548.54376 279.73813 548.2469 280.44125Q547.96564 281.12875 547.95 282.41Q548.325 281.83188 548.8719 281.55063Q549.4344 281.26938 550.04376 281.26938Q551.09064 281.26938 551.825 282.05063Q552.575 282.83188 552.575 284.05063Q552.575 284.86313 552.21564 285.56625Q551.8719 286.25375 551.2625 286.62875Q550.65314 286.98813 549.8875 286.98813Q548.5594 286.98813 547.73126 286.01938Q546.90314 285.05063 546.90314 282.83188Q546.90314 280.33188 547.825 279.20688Q548.6219 278.2225 549.98126 278.2225Q550.9969 278.2225 551.6375 278.80063Q552.29376 279.36313 552.41876 280.36313ZM548.1219 284.06625Q548.1219 284.61313 548.34064 285.11313Q548.575 285.5975 548.98126 285.86313Q549.40314 286.12875 549.8719 286.12875Q550.52814 286.12875 551.0125 285.5975Q551.4969 285.05063 551.4969 284.12875Q551.4969 283.23813 551.0125 282.7225Q550.54376 282.20688 549.825 282.20688Q549.10626 282.20688 548.60626 282.7225Q548.1219 283.23813 548.1219 284.06625ZM559.41876 280.36313L558.3719 280.44125Q558.23126 279.81625 557.98126 279.535Q557.54376 279.08188 556.91876 279.08188Q556.41876 279.08188 556.02814 279.36313Q555.54376 279.73813 555.2469 280.44125Q554.96564 281.12875 554.95 282.41Q555.325 281.83188 555.8719 281.55063Q556.4344 281.26938 557.04376 281.26938Q558.09064 281.26938 558.825 282.05063Q559.575 282.83188 559.575 284.05063Q559.575 284.86313 559.21564 285.56625Q558.8719 286.25375 558.2625 286.62875Q557.65314 286.98813 556.8875 286.98813Q555.5594 286.98813 554.73126 286.01938Q553.90314 285.05063 553.90314 282.83188Q553.90314 280.33188 554.825 279.20688Q555.6219 278.2225 556.98126 278.2225Q557.9969 278.2225 558.6375 278.80063Q559.29376 279.36313 559.41876 280.36313ZM555.1219 284.06625Q555.1219 284.61313 555.34064 285.11313Q555.575 285.5975 555.98126 285.86313Q556.40314 286.12875 556.8719 286.12875Q557.52814 286.12875 558.0125 285.5975Q558.4969 285.05063 558.4969 284.12875Q558.4969 283.23813 558.0125 282.7225Q557.54376 282.20688 556.825 282.20688Q556.10626 282.20688 555.60626 282.7225Q555.1219 283.23813 555.1219 284.06625ZM561.54376 286.8475L561.54376 285.64438L562.7469 285.64438L562.7469 286.8475L561.54376 286.8475ZM564.0125 279.37875L564.0125 278.36313L569.575 278.36313L569.575 279.19125Q568.7625 280.06625 567.95 281.51938Q567.15314 282.95688 566.71564 284.48813Q566.3875 285.56625 566.3094 286.8475L565.21564 286.8475Q565.23126 285.83188 565.60626 284.39438Q565.9969 282.95688 566.7 281.62875Q567.41876 280.30063 568.23126 279.37875L564.0125 279.37875ZM571.15314 280.31625Q571.15314 279.39438 571.60626 278.75375Q572.075 278.11313 572.95 278.11313Q573.7625 278.11313 574.29376 278.69125Q574.825 279.26938 574.825 280.37875Q574.825 281.4725 574.27814 282.06625Q573.7469 282.64438 572.96564 282.64438Q572.1844 282.64438 571.66876 282.06625Q571.15314 281.48813 571.15314 280.31625ZM572.98126 278.83188Q572.59064 278.83188 572.325 279.17563Q572.075 279.51938 572.075 280.42563Q572.075 281.25375 572.325 281.5975Q572.59064 281.92563 572.98126 281.92563Q573.3875 281.92563 573.6375 281.58188Q573.90314 281.23813 573.90314 280.3475Q573.90314 279.50375 573.6375 279.17563Q573.3719 278.83188 572.98126 278.83188ZM572.98126 287.16L577.6844 278.11313L578.54376 278.11313L573.85626 287.16L572.98126 287.16ZM576.7 284.83188Q576.7 283.91 577.15314 283.26938Q577.6219 282.62875 578.5125 282.62875Q579.325 282.62875 579.85626 283.20688Q580.3875 283.76938 580.3875 284.89438Q580.3875 285.98813 579.84064 286.58188Q579.3094 287.16 578.5125 287.16Q577.7469 287.16 577.21564 286.58188Q576.7 286.00375 576.7 284.83188ZM578.54376 283.3475Q578.1375 283.3475 577.8719 283.69125Q577.6219 284.035 577.6219 284.94125Q577.6219 285.75375 577.8875 286.0975Q578.15314 286.44125 578.54376 286.44125Q578.9344 286.44125 579.2 286.0975Q579.46564 285.75375 579.46564 284.8475Q579.46564 284.01938 579.2 283.69125Q578.9344 283.3475 578.54376 283.3475Z" fill-rule="nonzero"/><path stroke="#757575" stroke-width="1.0" stroke-linecap="butt" d="M581.45 274.3475L454.76666 274.3475L422.39392 274.3475" fill-rule="nonzero"/><path fill="#9e9e9e" d="M424.39392 274.3475C424.39392 273.24292 423.4985 272.3475 422.39392 272.3475C421.28937 272.3475 420.39392 273.24292 420.39392 274.3475C420.39392 275.45206 421.28937 276.3475 422.39392 276.3475C423.4985 276.3475 424.39392 275.45206 424.39392 274.3475" fill-rule="nonzero"/><path fill="#000000" d="M20.096874 37.55L20.096874 23.2375L25.01875 23.2375Q26.690624 23.2375 27.58125 23.440624Q28.8 23.721874 29.675 24.45625Q30.8 25.425 31.3625 26.909374Q31.925 28.39375 31.925 30.315624Q31.925 31.940624 31.55 33.20625Q31.175 34.45625 30.565624 35.284374Q29.971874 36.1125 29.26875 36.596874Q28.565624 37.065624 27.565624 37.315624Q26.565624 37.55 25.253124 37.55L20.096874 37.55ZM21.9875 35.8625L25.05 35.8625Q26.45625 35.8625 27.253124 35.596874Q28.065624 35.33125 28.55 34.846874Q29.221874 34.175 29.596874 33.05Q29.971874 31.909374 29.971874 30.284374Q29.971874 28.034374 29.2375 26.83125Q28.503124 25.628124 27.440624 25.221874Q26.690624 24.925 25.003124 24.925L21.9875 24.925L21.9875 35.8625ZM33.846874 37.55L33.846874 27.175L35.425 27.175L35.425 28.753124Q36.034374 27.64375 36.55 27.3Q37.065624 26.940624 37.675 26.940624Q38.565624 26.940624 39.4875 27.503124L38.878124 29.14375Q38.2375 28.753124 37.596874 28.753124Q37.01875 28.753124 36.55 29.1125Q36.096874 29.45625 35.89375 30.065624Q35.6125 31.003124 35.6125 32.1125L35.6125 37.55L33.846874 37.55ZM40.878124 25.253124L40.878124 23.2375L42.64375 23.2375L42.64375 25.253124L40.878124 25.253124ZM40.878124 37.55L40.878124 27.175L42.64375 27.175L42.64375 37.55L40.878124 37.55ZM47.753124 37.55L43.8 27.175L45.659374 27.175L47.89375 33.39375Q48.253124 34.39375 48.55 35.471874Q48.784374 34.659374 49.20625 33.503124L51.503124 27.175L53.315624 27.175L49.39375 37.55L47.753124 37.55ZM60.971874 34.20625L62.784374 34.440624Q62.3625 36.01875 61.190624 36.909374Q60.034374 37.784374 58.221874 37.784374Q55.95625 37.784374 54.6125 36.39375Q53.284374 34.9875 53.284374 32.45625Q53.284374 29.83125 54.628124 28.39375Q55.971874 26.940624 58.128124 26.940624Q60.20625 26.940624 61.51875 28.3625Q62.846874 29.76875 62.846874 32.346874Q62.846874 32.503124 62.83125 32.815624L55.096874 32.815624Q55.190624 34.51875 56.065624 35.425Q56.940624 36.33125 58.2375 36.33125Q59.20625 36.33125 59.878124 35.83125Q60.565624 35.315624 60.971874 34.20625ZM55.190624 31.3625L60.9875 31.3625Q60.878124 30.065624 60.33125 29.409374Q59.4875 28.39375 58.14375 28.39375Q56.940624 28.39375 56.1125 29.20625Q55.284374 30.003124 55.190624 31.3625ZM68.70625 35.971874L68.95625 37.534374Q68.22188 37.690624 67.62813 37.690624Q66.675 37.690624 66.14375 37.39375Q65.62813 37.08125 65.40938 36.596874Q65.19063 36.096874 65.19063 34.51875L65.19063 28.55L63.909374 28.55L63.909374 27.175L65.19063 27.175L65.19063 24.6125L66.94063 23.55L66.94063 27.175L68.70625 27.175L68.70625 28.55L66.94063 28.55L66.94063 34.6125Q66.94063 35.3625 67.03438 35.58125Q67.12813 35.784374 67.33125 35.925Q67.55 36.05 67.94063 36.05Q68.22188 36.05 68.70625 35.971874ZM70.84688 37.55L70.84688 27.175L72.425 27.175L72.425 28.753124Q73.03438 27.64375 73.55 27.3Q74.06563 26.940624 74.675 26.940624Q75.56563 26.940624 76.4875 27.503124L75.87813 29.14375Q75.2375 28.753124 74.59688 28.753124Q74.01875 28.753124 73.55 29.1125Q73.09688 29.45625 72.89375 30.065624Q72.6125 31.003124 72.6125 32.1125L72.6125 37.55L70.84688 37.55ZM84.64375 36.26875Q83.65938 37.096874 82.75313 37.440624Q81.84688 37.784374 80.81563 37.784374Q79.1125 37.784374 78.19063 36.95625Q77.26875 36.1125 77.26875 34.815624Q77.26875 34.05 77.6125 33.425Q77.97188 32.8 78.53438 32.425Q79.09688 32.034374 79.8 31.83125Q80.31563 31.70625 81.3625 31.565624Q83.4875 31.315624 84.4875 30.971874Q84.50313 30.6125 84.50313 30.503124Q84.50313 29.440624 84.00313 28.9875Q83.33125 28.39375 82.00313 28.39375Q80.75313 28.39375 80.15938 28.83125Q79.58125 29.26875 79.3 30.378124L77.58125 30.14375Q77.81563 29.034374 78.34688 28.3625Q78.87813 27.675 79.89375 27.315624Q80.90938 26.940624 82.25313 26.940624Q83.58125 26.940624 84.40938 27.253124Q85.2375 27.565624 85.62813 28.05Q86.01875 28.51875 86.175 29.2375Q86.26875 29.690624 86.26875 30.8625L86.26875 33.20625Q86.26875 35.659374 86.37813 36.315624Q86.4875 36.95625 86.83125 37.55L84.9875 37.55Q84.72188 37.003124 84.64375 36.26875ZM84.4875 32.346874Q83.53438 32.7375 81.6125 33.003124Q80.53438 33.159374 80.08125 33.3625Q79.64375 33.55 79.39375 33.925Q79.14375 34.3 79.14375 34.76875Q79.14375 35.471874 79.675 35.940624Q80.20625 36.409374 81.2375 36.409374Q82.25313 36.409374 83.03438 35.971874Q83.83125 35.51875 84.20625 34.753124Q84.4875 34.14375 84.4875 32.9875L84.4875 32.346874ZM88.87813 25.253124L88.87813 23.2375L90.64375 23.2375L90.64375 25.253124L88.87813 25.253124ZM88.87813 37.55L88.87813 27.175L90.64375 27.175L90.64375 37.55L88.87813 37.55ZM92.8625 37.55L92.8625 27.175L94.45625 27.175L94.45625 28.659374Q95.59688 26.940624 97.75313 26.940624Q98.69063 26.940624 99.47188 27.284374Q100.26875 27.6125 100.65938 28.159374Q101.05 28.70625 101.20625 29.45625Q101.3 29.95625 101.3 31.175L101.3 37.55L99.53438 37.55L99.53438 31.2375Q99.53438 30.159374 99.33125 29.628124Q99.12813 29.096874 98.59688 28.784374Q98.08125 28.471874 97.37813 28.471874Q96.25313 28.471874 95.44063 29.190624Q94.62813 29.89375 94.62813 31.878124L94.62813 37.55L92.8625 37.55ZM109.09688 37.55L109.09688 23.2375L114.4875 23.2375Q115.925 23.2375 116.675 23.3625Q117.72188 23.55 118.44063 24.05Q119.15938 24.534374 119.58125 25.425Q120.01875 26.315624 120.01875 27.378124Q120.01875 29.20625 118.84688 30.471874Q117.69063 31.721874 114.65938 31.721874L110.9875 31.721874L110.9875 37.55L109.09688 37.55ZM110.9875 30.034374L114.69063 30.034374Q116.51875 30.034374 117.28438 29.3625Q118.06563 28.675 118.06563 27.425Q118.06563 26.534374 117.6125 25.89375Q117.15938 25.253124 116.425 25.05Q115.94063 24.925 114.64375 24.925L110.9875 24.925L110.9875 30.034374ZM128.97188 34.20625L130.78438 34.440624Q130.3625 36.01875 129.19063 36.909374Q128.03438 37.784374 126.22188 37.784374Q123.95625 37.784374 122.6125 36.39375Q121.28438 34.9875 121.28438 32.45625Q121.28438 29.83125 122.62813 28.39375Q123.97188 26.940624 126.12813 26.940624Q128.20625 26.940624 129.51875 28.3625Q130.84688 29.76875 130.84688 32.346874Q130.84688 32.503124 130.83125 32.815624L123.09688 32.815624Q123.19063 34.51875 124.06563 35.425Q124.94063 36.33125 126.2375 36.33125Q127.20625 36.33125 127.87813 35.83125Q128.56563 35.315624 128.97188 34.20625ZM123.19063 31.3625L128.9875 31.3625Q128.87813 30.065624 128.33125 29.409374Q127.4875 28.39375 126.14375 28.39375Q124.94063 28.39375 124.1125 29.20625Q123.28438 30.003124 123.19063 31.3625ZM132.84688 37.55L132.84688 27.175L134.425 27.175L134.425 28.753124Q135.03438 27.64375 135.55 27.3Q136.06563 26.940624 136.675 26.940624Q137.56563 26.940624 138.4875 27.503124L137.87813 29.14375Q137.2375 28.753124 136.59688 28.753124Q136.01875 28.753124 135.55 29.1125Q135.09688 29.45625 134.89375 30.065624Q134.6125 31.003124 134.6125 32.1125L134.6125 37.55L132.84688 37.55ZM140.28438 37.55L140.28438 28.55L138.7375 28.55L138.7375 27.175L140.28438 27.175L140.28438 26.08125Q140.28438 25.034374 140.47188 24.51875Q140.72188 23.83125 141.3625 23.409374Q142.00313 22.9875 143.15938 22.9875Q143.90938 22.9875 144.8 23.159374L144.53438 24.690624Q143.9875 24.596874 143.50313 24.596874Q142.70625 24.596874 142.3625 24.940624Q142.03438 25.284374 142.03438 26.221874L142.03438 27.175L144.06563 27.175L144.06563 28.55L142.03438 28.55L142.03438 37.55L140.28438 37.55ZM145.22188 32.3625Q145.22188 29.4875 146.81563 28.096874Q148.15938 26.940624 150.08125 26.940624Q152.22188 26.940624 153.56563 28.346874Q154.925 29.753124 154.925 32.221874Q154.925 34.221874 154.33125 35.378124Q153.7375 36.51875 152.58125 37.159374Q151.44063 37.784374 150.08125 37.784374Q147.89375 37.784374 146.55 36.39375Q145.22188 34.9875 145.22188 32.3625ZM147.01875 32.3625Q147.01875 34.3625 147.87813 35.346874Q148.75313 36.33125 150.08125 36.33125Q151.39375 36.33125 152.25313 35.346874Q153.12813 34.346874 153.12813 32.3Q153.12813 30.378124 152.25313 29.39375Q151.37813 28.39375 150.08125 28.39375Q148.75313 28.39375 147.87813 29.39375Q147.01875 30.378124 147.01875 32.3625ZM156.84688 37.55L156.84688 27.175L158.425 27.175L158.425 28.753124Q159.03438 27.64375 159.55 27.3Q160.06563 26.940624 160.675 26.940624Q161.56563 26.940624 162.4875 27.503124L161.87813 29.14375Q161.2375 28.753124 160.59688 28.753124Q160.01875 28.753124 159.55 29.1125Q159.09688 29.45625 158.89375 30.065624Q158.6125 31.003124 158.6125 32.1125L158.6125 37.55L156.84688 37.55ZM163.8625 37.55L163.8625 27.175L165.44063 27.175L165.44063 28.628124Q165.925 27.878124 166.7375 27.409374Q167.55 26.940624 168.58125 26.940624Q169.7375 26.940624 170.47188 27.425Q171.20625 27.89375 171.51875 28.753124Q172.75313 26.940624 174.72188 26.940624Q176.26875 26.940624 177.09688 27.8Q177.925 28.659374 177.925 30.425L177.925 37.55L176.175 37.55L176.175 31.01875Q176.175 29.95625 176.00313 29.503124Q175.83125 29.034374 175.37813 28.753124Q174.94063 28.471874 174.33125 28.471874Q173.2375 28.471874 172.50313 29.20625Q171.78438 29.925 171.78438 31.51875L171.78438 37.55L170.03438 37.55L170.03438 30.815624Q170.03438 29.64375 169.59688 29.065624Q169.175 28.471874 168.19063 28.471874Q167.45625 28.471874 166.81563 28.8625Q166.19063 29.253124 165.90938 30.003124Q165.62813 30.753124 165.62813 32.175L165.62813 37.55L163.8625 37.55ZM186.64375 36.26875Q185.65938 37.096874 184.75313 37.440624Q183.84688 37.784374 182.81563 37.784374Q181.1125 37.784374 180.19063 36.95625Q179.26875 36.1125 179.26875 34.815624Q179.26875 34.05 179.6125 33.425Q179.97188 32.8 180.53438 32.425Q181.09688 32.034374 181.8 31.83125Q182.31563 31.70625 183.3625 31.565624Q185.4875 31.315624 186.4875 30.971874Q186.50313 30.6125 186.50313 30.503124Q186.50313 29.440624 186.00313 28.9875Q185.33125 28.39375 184.00313 28.39375Q182.75313 28.39375 182.15938 28.83125Q181.58125 29.26875 181.3 30.378124L179.58125 30.14375Q179.81563 29.034374 180.34688 28.3625Q180.87813 27.675 181.89375 27.315624Q182.90938 26.940624 184.25313 26.940624Q185.58125 26.940624 186.40938 27.253124Q187.2375 27.565624 187.62813 28.05Q188.01875 28.51875 188.175 29.2375Q188.26875 29.690624 188.26875 30.8625L188.26875 33.20625Q188.26875 35.659374 188.37813 36.315624Q188.4875 36.95625 188.83125 37.55L186.9875 37.55Q186.72188 37.003124 186.64375 36.26875ZM186.4875 32.346874Q185.53438 32.7375 183.6125 33.003124Q182.53438 33.159374 182.08125 33.3625Q181.64375 33.55 181.39375 33.925Q181.14375 34.3 181.14375 34.76875Q181.14375 35.471874 181.675 35.940624Q182.20625 36.409374 183.2375 36.409374Q184.25313 36.409374 185.03438 35.971874Q185.83125 35.51875 186.20625 34.753124Q186.4875 34.14375 186.4875 32.9875L186.4875 32.346874ZM190.8625 37.55L190.8625 27.175L192.45625 27.175L192.45625 28.659374Q193.59688 26.940624 195.75313 26.940624Q196.69063 26.940624 197.47188 27.284374Q198.26875 27.6125 198.65938 28.159374Q199.05 28.70625 199.20625 29.45625Q199.3 29.95625 199.3 31.175L199.3 37.55L197.53438 37.55L197.53438 31.2375Q197.53438 30.159374 197.33125 29.628124Q197.12813 29.096874 196.59688 28.784374Q196.08125 28.471874 195.37813 28.471874Q194.25313 28.471874 193.44063 29.190624Q192.62813 29.89375 192.62813 31.878124L192.62813 37.55L190.8625 37.55ZM207.64375 33.753124L209.3625 33.971874Q209.08125 35.76875 207.90938 36.784374Q206.75313 37.784374 205.05 37.784374Q202.925 37.784374 201.62813 36.39375Q200.33125 35.003124 200.33125 32.409374Q200.33125 30.721874 200.87813 29.471874Q201.44063 28.20625 202.58125 27.58125Q203.72188 26.940624 205.06563 26.940624Q206.75313 26.940624 207.81563 27.8Q208.89375 28.659374 209.20625 30.221874L207.4875 30.4875Q207.25313 29.440624 206.62813 28.925Q206.00313 28.39375 205.12813 28.39375Q203.8 28.39375 202.97188 29.346874Q202.14375 30.3 202.14375 32.346874Q202.14375 34.440624 202.94063 35.39375Q203.7375 36.33125 205.03438 36.33125Q206.06563 36.33125 206.75313 35.70625Q207.45625 35.065624 207.64375 33.753124ZM217.97188 34.20625L219.78438 34.440624Q219.3625 36.01875 218.19063 36.909374Q217.03438 37.784374 215.22188 37.784374Q212.95625 37.784374 211.6125 36.39375Q210.28438 34.9875 210.28438 32.45625Q210.28438 29.83125 211.62813 28.39375Q212.97188 26.940624 215.12813 26.940624Q217.20625 26.940624 218.51875 28.3625Q219.84688 29.76875 219.84688 32.346874Q219.84688 32.503124 219.83125 32.815624L212.09688 32.815624Q212.19063 34.51875 213.06563 35.425Q213.94063 36.33125 215.2375 36.33125Q216.20625 36.33125 216.87813 35.83125Q217.56563 35.315624 217.97188 34.20625ZM212.19063 31.3625L217.9875 31.3625Q217.87813 30.065624 217.33125 29.409374Q216.4875 28.39375 215.14375 28.39375Q213.94063 28.39375 213.1125 29.20625Q212.28438 30.003124 212.19063 31.3625Z" fill-rule="nonzero"/></svg>