<svg version="1.1" viewBox="0.0 0.0 600.0 371.0" fill="none" stroke="none" stroke-linecap="square" stroke-miterlimit="10" width="600" height="371" xmlns:xlink="http://www.w3.org/1999/xlink" xmlns="http://www.w3.org/2000/svg"><path fill="#ffffff" d="M0 0L600.0 0L600.0 371.0L0 371.0L0 0Z" fill-rule="nonzero"/><path fill="#34a853" d="M300.0 54.916668C382.16156 54.916668 448.76666 121.521774 448.76666 203.68333C448.76666 285.8449 382.16156 352.45 300.0 352.45C217.83844 352.45 151.23334 285.8449 151.23334 203.68333C151.23334 121.521774 217.83844 54.916668 300.0 54.916668L300.0 203.68333Z" fill-rule="nonzero"/><path fill="#000000" d="M252.67188 203.80833Q252.67188 201.30833 254.01562 199.90208Q255.35938 198.48021 257.46875 198.48021Q258.85938 198.48021 259.96875 199.15208Q261.09375 199.80833 261.67188 200.99583Q262.26562 202.18333 262.26562 203.68333Q262.26562 205.21458 261.64062 206.41771Q261.03125 207.62083 259.90625 208.24583Q258.78125 208.85521 257.46875 208.85521Q256.04688 208.85521 254.9375 208.16771Q253.82812 207.48021 253.25 206.30833Q252.67188 205.12083 252.67188 203.80833ZM254.04688 203.82396Q254.04688 205.63646 255.01562 206.68333Q256.0 207.71458 257.46875 207.71458Q258.95312 207.71458 259.92188 206.66771Q260.89062 205.62083 260.89062 203.68333Q260.89062 202.44896 260.46875 201.54271Q260.0625 200.63646 259.26562 200.13646Q258.46875 199.62083 257.48438 199.62083Q256.07812 199.62083 255.0625 200.58958Q254.04688 201.55833 254.04688 203.82396ZM265.9375 208.68333L263.17188 201.41771L264.48438 201.41771L266.03125 205.77708Q266.28125 206.48021 266.5 207.23021Q266.67188 206.65208 266.95312 205.85521L268.57812 201.41771L269.84375 201.41771L267.09375 208.68333L265.9375 208.68333ZM275.89062 206.33958L277.17188 206.49583Q276.85938 207.62083 276.04688 208.24583Q275.23438 208.85521 273.96875 208.85521Q272.375 208.85521 271.4375 207.87083Q270.51562 206.88646 270.51562 205.12083Q270.51562 203.27708 271.45312 202.27708Q272.40625 201.26146 273.90625 201.26146Q275.35938 201.26146 276.28125 202.26146Q277.20312 203.24583 277.20312 205.04271Q277.20312 205.15208 277.20312 205.37083L271.78125 205.37083Q271.85938 206.55833 272.45312 207.19896Q273.0625 207.83958 273.98438 207.83958Q274.65625 207.83958 275.125 207.48021Q275.60938 207.12083 275.89062 206.33958ZM271.85938 204.35521L275.90625 204.35521Q275.82812 203.43333 275.4375 202.98021Q274.85938 202.27708 273.92188 202.27708Q273.0625 202.27708 272.48438 202.83958Q271.92188 203.40208 271.85938 204.35521ZM278.90625 208.68333L278.90625 201.41771L280.01562 201.41771L280.01562 202.52708Q280.4375 201.74583 280.79688 201.51146Q281.15625 201.26146 281.59375 201.26146Q282.21875 201.26146 282.85938 201.65208L282.4375 202.79271Q281.98438 202.52708 281.53125 202.52708Q281.125 202.52708 280.79688 202.77708Q280.48438 203.01146 280.34375 203.44896Q280.14062 204.10521 280.14062 204.88646L280.14062 208.68333L278.90625 208.68333ZM283.92188 211.46458L283.92188 201.41771L285.04688 201.41771L285.04688 202.37083Q285.4375 201.80833 285.9375 201.54271Q286.4375 201.26146 287.15625 201.26146Q288.07812 201.26146 288.78125 201.74583Q289.5 202.21458 289.85938 203.08958Q290.21875 203.96458 290.21875 204.99583Q290.21875 206.10521 289.8125 207.01146Q289.42188 207.90208 288.65625 208.38646Q287.90625 208.85521 287.0625 208.85521Q286.45312 208.85521 285.95312 208.58958Q285.46875 208.32396 285.15625 207.93333L285.15625 211.46458L283.92188 211.46458ZM285.03125 205.08958Q285.03125 206.49583 285.59375 207.16771Q286.17188 207.83958 286.98438 207.83958Q287.79688 207.83958 288.375 207.15208Q288.96875 206.44896 288.96875 204.99583Q288.96875 203.60521 288.39062 202.91771Q287.82812 202.23021 287.03125 202.23021Q286.25 202.23021 285.64062 202.96458Q285.03125 203.69896 285.03125 205.08958ZM296.89062 206.33958L298.17188 206.49583Q297.85938 207.62083 297.04688 208.24583Q296.23438 208.85521 294.96875 208.85521Q293.375 208.85521 292.4375 207.87083Q291.51562 206.88646 291.51562 205.12083Q291.51562 203.27708 292.45312 202.27708Q293.40625 201.26146 294.90625 201.26146Q296.35938 201.26146 297.28125 202.26146Q298.20312 203.24583 298.20312 205.04271Q298.20312 205.15208 298.20312 205.37083L292.78125 205.37083Q292.85938 206.55833 293.45312 207.19896Q294.0625 207.83958 294.98438 207.83958Q295.65625 207.83958 296.125 207.48021Q296.60938 207.12083 296.89062 206.33958ZM292.85938 204.35521L296.90625 204.35521Q296.82812 203.43333 296.4375 202.98021Q295.85938 202.27708 294.92188 202.27708Q294.0625 202.27708 293.48438 202.83958Q292.92188 203.40208 292.85938 204.35521ZM299.90625 208.68333L299.90625 201.41771L301.01562 201.41771L301.01562 202.52708Q301.4375 201.74583 301.79688 201.51146Q302.15625 201.26146 302.59375 201.26146Q303.21875 201.26146 303.85938 201.65208L303.4375 202.79271Q302.98438 202.52708 302.53125 202.52708Q302.125 202.52708 301.79688 202.77708Q301.48438 203.01146 301.34375 203.44896Q301.14062 204.10521 301.14062 204.88646L301.14062 208.68333L299.90625 208.68333ZM305.21875 208.68333L305.21875 202.38646L304.125 202.38646L304.125 201.41771L305.21875 201.41771L305.21875 200.65208Q305.21875 199.91771 305.34375 199.55833Q305.53125 199.08958 305.96875 198.79271Q306.42188 198.49583 307.23438 198.49583Q307.75 198.49583 308.375 198.62083L308.1875 199.68333Q307.8125 199.62083 307.46875 199.62083Q306.90625 199.62083 306.67188 199.85521Q306.4375 200.08958 306.4375 200.74583L306.4375 201.41771L307.85938 201.41771L307.85938 202.38646L306.4375 202.38646L306.4375 208.68333L305.21875 208.68333ZM308.46875 205.05833Q308.46875 203.04271 309.59375 202.05833Q310.51562 201.26146 311.875 201.26146Q313.35938 201.26146 314.3125 202.24583Q315.26562 203.21458 315.26562 204.94896Q315.26562 206.35521 314.84375 207.16771Q314.42188 207.96458 313.60938 208.41771Q312.8125 208.85521 311.875 208.85521Q310.34375 208.85521 309.40625 207.87083Q308.46875 206.88646 308.46875 205.05833ZM309.73438 205.05833Q309.73438 206.44896 310.34375 207.15208Q310.95312 207.83958 311.875 207.83958Q312.78125 207.83958 313.39062 207.13646Q314.0 206.43333 314.0 205.01146Q314.0 203.66771 313.39062 202.98021Q312.78125 202.27708 311.875 202.27708Q310.95312 202.27708 310.34375 202.96458Q309.73438 203.65208 309.73438 205.05833ZM316.90625 208.68333L316.90625 201.41771L318.01562 201.41771L318.01562 202.52708Q318.4375 201.74583 318.79688 201.51146Q319.15625 201.26146 319.59375 201.26146Q320.21875 201.26146 320.85938 201.65208L320.4375 202.79271Q319.98438 202.52708 319.53125 202.52708Q319.125 202.52708 318.79688 202.77708Q318.48438 203.01146 318.34375 203.44896Q318.14062 204.10521 318.14062 204.88646L318.14062 208.68333L316.90625 208.68333ZM321.92188 208.68333L321.92188 201.41771L323.03125 201.41771L323.03125 202.44896Q323.35938 201.90208 323.92188 201.58958Q324.5 201.26146 325.21875 201.26146Q326.03125 201.26146 326.54688 201.60521Q327.0625 201.93333 327.28125 202.52708Q328.14062 201.26146 329.51562 201.26146Q330.59375 201.26146 331.17188 201.85521Q331.76562 202.44896 331.76562 203.69896L331.76562 208.68333L330.53125 208.68333L330.53125 204.10521Q330.53125 203.37083 330.40625 203.04271Q330.29688 202.71458 329.98438 202.52708Q329.67188 202.32396 329.25 202.32396Q328.48438 202.32396 327.96875 202.83958Q327.46875 203.33958 327.46875 204.46458L327.46875 208.68333L326.23438 208.68333L326.23438 203.96458Q326.23438 203.15208 325.9375 202.74583Q325.64062 202.32396 324.95312 202.32396Q324.4375 202.32396 323.98438 202.60521Q323.54688 202.87083 323.34375 203.40208Q323.15625 203.91771 323.15625 204.91771L323.15625 208.68333L321.92188 208.68333ZM337.89062 206.33958L339.17188 206.49583Q338.85938 207.62083 338.04688 208.24583Q337.23438 208.85521 335.96875 208.85521Q334.375 208.85521 333.4375 207.87083Q332.51562 206.88646 332.51562 205.12083Q332.51562 203.27708 333.45312 202.27708Q334.40625 201.26146 335.90625 201.26146Q337.35938 201.26146 338.28125 202.26146Q339.20312 203.24583 339.20312 205.04271Q339.20312 205.15208 339.20312 205.37083L333.78125 205.37083Q333.85938 206.55833 334.45312 207.19896Q335.0625 207.83958 335.98438 207.83958Q336.65625 207.83958 337.125 207.48021Q337.60938 207.12083 337.89062 206.33958ZM333.85938 204.35521L337.90625 204.35521Q337.82812 203.43333 337.4375 202.98021Q336.85938 202.27708 335.92188 202.27708Q335.0625 202.27708 334.48438 202.83958Q333.92188 203.40208 333.85938 204.35521ZM345.64062 208.68333L345.64062 207.76146Q344.9375 208.85521 343.60938 208.85521Q342.73438 208.85521 342.0 208.37083Q341.28125 207.88646 340.875 207.02708Q340.48438 206.16771 340.48438 205.05833Q340.48438 203.98021 340.84375 203.08958Q341.20312 202.19896 341.92188 201.73021Q342.65625 201.26146 343.54688 201.26146Q344.20312 201.26146 344.71875 201.54271Q345.23438 201.80833 345.54688 202.26146L345.54688 198.66771L346.78125 198.66771L346.78125 208.68333L345.64062 208.68333ZM341.75 205.05833Q341.75 206.44896 342.32812 207.15208Q342.92188 207.83958 343.71875 207.83958Q344.53125 207.83958 345.09375 207.18333Q345.65625 206.51146 345.65625 205.16771Q345.65625 203.66771 345.07812 202.98021Q344.5 202.27708 343.67188 202.27708Q342.84375 202.27708 342.29688 202.94896Q341.75 203.62083 341.75 205.05833Z" fill-rule="nonzero"/><path fill="#000000" d="M20.409374 37.55L20.409374 23.2375L22.315624 23.2375L22.315624 37.55L20.409374 37.55ZM25.8625 37.55L25.8625 27.175L27.45625 27.175L27.45625 28.659374Q28.596874 26.940624 30.753124 26.940624Q31.690624 26.940624 32.471874 27.284374Q33.26875 27.6125 33.659374 28.159374Q34.05 28.70625 34.20625 29.45625Q34.3 29.95625 34.3 31.175L34.3 37.55L32.534374 37.55L32.534374 31.2375Q32.534374 30.159374 32.33125 29.628124Q32.128124 29.096874 31.596874 28.784374Q31.08125 28.471874 30.378124 28.471874Q29.253124 28.471874 28.440624 29.190624Q27.628124 29.89375 27.628124 31.878124L27.628124 37.55L25.8625 37.55ZM39.70625 35.971874L39.95625 37.534374Q39.221874 37.690624 38.628124 37.690624Q37.675 37.690624 37.14375 37.39375Q36.628124 37.08125 36.409374 36.596874Q36.190624 36.096874 36.190624 34.51875L36.190624 28.55L34.909374 28.55L34.909374 27.175L36.190624 27.175L36.190624 24.6125L37.940624 23.55L37.940624 27.175L39.70625 27.175L39.70625 28.55L37.940624 28.55L37.940624 34.6125Q37.940624 35.3625 38.034374 35.58125Q38.128124 35.784374 38.33125 35.925Q38.55 36.05 38.940624 36.05Q39.221874 36.05 39.70625 35.971874ZM48.64375 36.26875Q47.659374 37.096874 46.753124 37.440624Q45.846874 37.784374 44.815624 37.784374Q43.1125 37.784374 42.190624 36.95625Q41.26875 36.1125 41.26875 34.815624Q41.26875 34.05 41.6125 33.425Q41.971874 32.8 42.534374 32.425Q43.096874 32.034374 43.8 31.83125Q44.315624 31.70625 45.3625 31.565624Q47.4875 31.315624 48.4875 30.971874Q48.503124 30.6125 48.503124 30.503124Q48.503124 29.440624 48.003124 28.9875Q47.33125 28.39375 46.003124 28.39375Q44.753124 28.39375 44.159374 28.83125Q43.58125 29.26875 43.3 30.378124L41.58125 30.14375Q41.815624 29.034374 42.346874 28.3625Q42.878124 27.675 43.89375 27.315624Q44.909374 26.940624 46.253124 26.940624Q47.58125 26.940624 48.409374 27.253124Q49.2375 27.565624 49.628124 28.05Q50.01875 28.51875 50.175 29.2375Q50.26875 29.690624 50.26875 30.8625L50.26875 33.20625Q50.26875 35.659374 50.378124 36.315624Q50.4875 36.95625 50.83125 37.55L48.9875 37.55Q48.721874 37.003124 48.64375 36.26875ZM48.4875 32.346874Q47.534374 32.7375 45.6125 33.003124Q44.534374 33.159374 44.08125 33.3625Q43.64375 33.55 43.39375 33.925Q43.14375 34.3 43.14375 34.76875Q43.14375 35.471874 43.675 35.940624Q44.20625 36.409374 45.2375 36.409374Q46.253124 36.409374 47.034374 35.971874Q47.83125 35.51875 48.20625 34.753124Q48.4875 34.14375 48.4875 32.9875L48.4875 32.346874ZM52.878124 37.55L52.878124 23.2375L54.64375 23.2375L54.64375 31.39375L58.8 27.175L61.065624 27.175L57.1125 31.01875L61.471874 37.55L59.3 37.55L55.878124 32.253124L54.64375 33.440624L54.64375 37.55L52.878124 37.55ZM69.97188 34.20625L71.78438 34.440624Q71.3625 36.01875 70.19063 36.909374Q69.03438 37.784374 67.22188 37.784374Q64.95625 37.784374 63.6125 36.39375Q62.284374 34.9875 62.284374 32.45625Q62.284374 29.83125 63.628124 28.39375Q64.97188 26.940624 67.12813 26.940624Q69.20625 26.940624 70.51875 28.3625Q71.84688 29.76875 71.84688 32.346874Q71.84688 32.503124 71.83125 32.815624L64.09688 32.815624Q64.19063 34.51875 65.06563 35.425Q65.94063 36.33125 67.2375 36.33125Q68.20625 36.33125 68.87813 35.83125Q69.56563 35.315624 69.97188 34.20625ZM64.19063 31.3625L69.9875 31.3625Q69.87813 30.065624 69.33125 29.409374Q68.4875 28.39375 67.14375 28.39375Q65.94063 28.39375 65.1125 29.20625Q64.28438 30.003124 64.19063 31.3625ZM80.09688 37.55L80.09688 23.2375L85.4875 23.2375Q86.925 23.2375 87.675 23.3625Q88.72188 23.55 89.44063 24.05Q90.15938 24.534374 90.58125 25.425Q91.01875 26.315624 91.01875 27.378124Q91.01875 29.20625 89.84688 30.471874Q88.69063 31.721874 85.65938 31.721874L81.9875 31.721874L81.9875 37.55L80.09688 37.55ZM81.9875 30.034374L85.69063 30.034374Q87.51875 30.034374 88.28438 29.3625Q89.06563 28.675 89.06563 27.425Q89.06563 26.534374 88.6125 25.89375Q88.15938 25.253124 87.425 25.05Q86.94063 24.925 85.64375 24.925L81.9875 24.925L81.9875 30.034374ZM99.97188 34.20625L101.78438 34.440624Q101.3625 36.01875 100.19063 36.909374Q99.03438 37.784374 97.22188 37.784374Q94.95625 37.784374 93.6125 36.39375Q92.28438 34.9875 92.28438 32.45625Q92.28438 29.83125 93.62813 28.39375Q94.97188 26.940624 97.12813 26.940624Q99.20625 26.940624 100.51875 28.3625Q101.84688 29.76875 101.84688 32.346874Q101.84688 32.503124 101.83125 32.815624L94.09688 32.815624Q94.19063 34.51875 95.06563 35.425Q95.94063 36.33125 97.2375 36.33125Q98.20625 36.33125 98.87813 35.83125Q99.56563 35.315624 99.97188 34.20625ZM94.19063 31.3625L99.9875 31.3625Q99.87813 30.065624 99.33125 29.409374Q98.4875 28.39375 97.14375 28.39375Q95.94063 28.39375 95.1125 29.20625Q94.28438 30.003124 94.19063 31.3625ZM103.84688 37.55L103.84688 27.175L105.425 27.175L105.425 28.753124Q106.03438 27.64375 106.55 27.3Q107.06563 26.940624 107.675 26.940624Q108.56563 26.940624 109.4875 27.503124L108.87813 29.14375Q108.2375 28.753124 107.59688 28.753124Q107.01875 28.753124 106.55 29.1125Q106.09688 29.45625 105.89375 30.065624Q105.6125 31.003124 105.6125 32.1125L105.6125 37.55L103.84688 37.55ZM111.28438 37.55L111.28438 28.55L109.7375 28.55L109.7375 27.175L111.28438 27.175L111.28438 26.08125Q111.28438 25.034374 111.47188 24.51875Q111.72188 23.83125 112.3625 23.409374Q113.00313 22.9875 114.15938 22.9875Q114.90938 22.9875 115.8 23.159374L115.53438 24.690624Q114.9875 24.596874 114.50313 24.596874Q113.70625 24.596874 113.3625 24.940624Q113.03438 25.284374 113.03438 26.221874L113.03438 27.175L115.06563 27.175L115.06563 28.55L113.03438 28.55L113.03438 37.55L111.28438 37.55ZM116.22188 32.3625Q116.22188 29.4875 117.81563 28.096874Q119.15938 26.940624 121.08125 26.940624Q123.22188 26.940624 124.56563 28.346874Q125.925 29.753124 125.925 32.221874Q125.925 34.221874 125.33125 35.378124Q124.7375 36.51875 123.58125 37.159374Q122.44063 37.784374 121.08125 37.784374Q118.89375 37.784374 117.55 36.39375Q116.22188 34.9875 116.22188 32.3625ZM118.01875 32.3625Q118.01875 34.3625 118.87813 35.346874Q119.75313 36.33125 121.08125 36.33125Q122.39375 36.33125 123.25313 35.346874Q124.12813 34.346874 124.12813 32.3Q124.12813 30.378124 123.25313 29.39375Q122.37813 28.39375 121.08125 28.39375Q119.75313 28.39375 118.87813 29.39375Q118.01875 30.378124 118.01875 32.3625ZM127.84688 37.55L127.84688 27.175L129.425 27.175L129.425 28.753124Q130.03438 27.64375 130.55 27.3Q131.06563 26.940624 131.675 26.940624Q132.56563 26.940624 133.4875 27.503124L132.87813 29.14375Q132.2375 28.753124 131.59688 28.753124Q131.01875 28.753124 130.55 29.1125Q130.09688 29.45625 129.89375 30.065624Q129.6125 31.003124 129.6125 32.1125L129.6125 37.55L127.84688 37.55ZM134.8625 37.55L134.8625 27.175L136.44063 27.175L136.44063 28.628124Q136.925 27.878124 137.7375 27.409374Q138.55 26.940624 139.58125 26.940624Q140.7375 26.940624 141.47188 27.425Q142.20625 27.89375 142.51875 28.753124Q143.75313 26.940624 145.72188 26.940624Q147.26875 26.940624 148.09688 27.8Q148.925 28.659374 148.925 30.425L148.925 37.55L147.175 37.55L147.175 31.01875Q147.175 29.95625 147.00313 29.503124Q146.83125 29.034374 146.37813 28.753124Q145.94063 28.471874 145.33125 28.471874Q144.2375 28.471874 143.50313 29.20625Q142.78438 29.925 142.78438 31.51875L142.78438 37.55L141.03438 37.55L141.03438 30.815624Q141.03438 29.64375 140.59688 29.065624Q140.175 28.471874 139.19063 28.471874Q138.45625 28.471874 137.81563 28.8625Q137.19063 29.253124 136.90938 30.003124Q136.62813 30.753124 136.62813 32.175L136.62813 37.55L134.8625 37.55ZM157.64375 36.26875Q156.65938 37.096874 155.75313 37.440624Q154.84688 37.784374 153.81563 37.784374Q152.1125 37.784374 151.19063 36.95625Q150.26875 36.1125 150.26875 34.815624Q150.26875 34.05 150.6125 33.425Q150.97188 32.8 151.53438 32.425Q152.09688 32.034374 152.8 31.83125Q153.31563 31.70625 154.3625 31.565624Q156.4875 31.315624 157.4875 30.971874Q157.50313 30.6125 157.50313 30.503124Q157.50313 29.440624 157.00313 28.9875Q156.33125 28.39375 155.00313 28.39375Q153.75313 28.39375 153.15938 28.83125Q152.58125 29.26875 152.3 30.378124L150.58125 30.14375Q150.81563 29.034374 151.34688 28.3625Q151.87813 27.675 152.89375 27.315624Q153.90938 26.940624 155.25313 26.940624Q156.58125 26.940624 157.40938 27.253124Q158.2375 27.565624 158.62813 28.05Q159.01875 28.51875 159.175 29.2375Q159.26875 29.690624 159.26875 30.8625L159.26875 33.20625Q159.26875 35.659374 159.37813 36.315624Q159.4875 36.95625 159.83125 37.55L157.9875 37.55Q157.72188 37.003124 157.64375 36.26875ZM157.4875 32.346874Q156.53438 32.7375 154.6125 33.003124Q153.53438 33.159374 153.08125 33.3625Q152.64375 33.55 152.39375 33.925Q152.14375 34.3 152.14375 34.76875Q152.14375 35.471874 152.675 35.940624Q153.20625 36.409374 154.2375 36.409374Q155.25313 36.409374 156.03438 35.971874Q156.83125 35.51875 157.20625 34.753124Q157.4875 34.14375 157.4875 32.9875L157.4875 32.346874ZM161.8625 37.55L161.8625 27.175L163.45625 27.175L163.45625 28.659374Q164.59688 26.940624 166.75313 26.940624Q167.69063 26.940624 168.47188 27.284374Q169.26875 27.6125 169.65938 28.159374Q170.05 28.70625 170.20625 29.45625Q170.3 29.95625 170.3 31.175L170.3 37.55L168.53438 37.55L168.53438 31.2375Q168.53438 30.159374 168.33125 29.628124Q168.12813 29.096874 167.59688 28.784374Q167.08125 28.471874 166.37813 28.471874Q165.25313 28.471874 164.44063 29.190624Q163.62813 29.89375 163.62813 31.878124L163.62813 37.55L161.8625 37.55ZM178.64375 33.753124L180.3625 33.971874Q180.08125 35.76875 178.90938 36.784374Q177.75313 37.784374 176.05 37.784374Q173.925 37.784374 172.62813 36.39375Q171.33125 35.003124 171.33125 32.409374Q171.33125 30.721874 171.87813 29.471874Q172.44063 28.20625 173.58125 27.58125Q174.72188 26.940624 176.06563 26.940624Q177.75313 26.940624 178.81563 27.8Q179.89375 28.659374 180.20625 30.221874L178.4875 30.4875Q178.25313 29.440624 177.62813 28.925Q177.00313 28.39375 176.12813 28.39375Q174.8 28.39375 173.97188 29.346874Q173.14375 30.3 173.14375 32.346874Q173.14375 34.440624 173.94063 35.39375Q174.7375 36.33125 176.03438 36.33125Q177.06563 36.33125 177.75313 35.70625Q178.45625 35.065624 178.64375 33.753124ZM188.97188 34.20625L190.78438 34.440624Q190.3625 36.01875 189.19063 36.909374Q188.03438 37.784374 186.22188 37.784374Q183.95625 37.784374 182.6125 36.39375Q181.28438 34.9875 181.28438 32.45625Q181.28438 29.83125 182.62813 28.39375Q183.97188 26.940624 186.12813 26.940624Q188.20625 26.940624 189.51875 28.3625Q190.84688 29.76875 190.84688 32.346874Q190.84688 32.503124 190.83125 32.815624L183.09688 32.815624Q183.19063 34.51875 184.06563 35.425Q184.94063 36.33125 186.2375 36.33125Q187.20625 36.33125 187.87813 35.83125Q188.56563 35.315624 188.97188 34.20625ZM183.19063 31.3625L188.9875 31.3625Q188.87813 30.065624 188.33125 29.409374Q187.4875 28.39375 186.14375 28.39375Q184.94063 28.39375 184.1125 29.20625Q183.28438 30.003124 183.19063 31.3625Z" fill-rule="nonzero"/></svg>