<svg version="1.1" viewBox="0.0 0.0 600.0 371.0" fill="none" stroke="none" stroke-linecap="square" stroke-miterlimit="10" width="600" height="371" xmlns:xlink="http://www.w3.org/1999/xlink" xmlns="http://www.w3.org/2000/svg"><path fill="#ffffff" d="M0 0L600.0 0L600.0 371.0L0 371.0L0 0Z" fill-rule="nonzero"/><path fill="#ea4335" d="M300.0 54.916668C382.16156 54.916668 448.76666 121.521774 448.76666 203.68333C448.76666 285.8449 382.16156 352.45 300.0 352.45C217.83844 352.45 151.23334 285.8449 151.23334 203.68333C151.23334 121.521774 217.83844 54.916668 300.0 54.916668L300.0 203.68333Z" fill-rule="nonzero"/><path fill="#000000" d="M256.15625 198.66771L257.48438 198.66771L257.48438 204.44896Q257.48438 205.96458 257.14062 206.85521Q256.79688 207.74583 255.90625 208.30833Q255.01562 208.85521 253.5625 208.85521Q252.15625 208.85521 251.25 208.37083Q250.35938 207.88646 249.96875 206.96458Q249.59375 206.04271 249.59375 204.44896L249.59375 198.66771L250.92188 198.66771L250.92188 204.44896Q250.92188 205.74583 251.15625 206.37083Q251.40625 206.98021 252.0 207.32396Q252.59375 207.65208 253.45312 207.65208Q254.90625 207.65208 255.53125 206.99583Q256.15625 206.32396 256.15625 204.44896L256.15625 198.66771ZM258.42188 208.68333L258.42188 201.41771L259.53125 201.41771L259.53125 202.44896Q260.32812 201.26146 261.84375 201.26146Q262.5 201.26146 263.04688 201.49583Q263.59375 201.73021 263.85938 202.12083Q264.14062 202.49583 264.25 203.02708Q264.32812 203.37083 264.32812 204.21458L264.32812 208.68333L263.09375 208.68333L263.09375 204.26146Q263.09375 203.51146 262.95312 203.15208Q262.8125 202.77708 262.4375 202.55833Q262.07812 202.32396 261.57812 202.32396Q260.79688 202.32396 260.21875 202.82396Q259.65625 203.32396 259.65625 204.71458L259.65625 208.68333L258.42188 208.68333ZM271.14062 208.68333L271.14062 207.76146Q270.4375 208.85521 269.10938 208.85521Q268.23438 208.85521 267.5 208.37083Q266.78125 207.88646 266.375 207.02708Q265.98438 206.16771 265.98438 205.05833Q265.98438 203.98021 266.34375 203.08958Q266.70312 202.19896 267.42188 201.73021Q268.15625 201.26146 269.04688 201.26146Q269.70312 201.26146 270.21875 201.54271Q270.73438 201.80833 271.04688 202.26146L271.04688 198.66771L272.28125 198.66771L272.28125 208.68333L271.14062 208.68333ZM267.25 205.05833Q267.25 206.44896 267.82812 207.15208Q268.42188 207.83958 269.21875 207.83958Q270.03125 207.83958 270.59375 207.18333Q271.15625 206.51146 271.15625 205.16771Q271.15625 203.66771 270.57812 202.98021Q270.0 202.27708 269.17188 202.27708Q268.34375 202.27708 267.79688 202.94896Q267.25 203.62083 267.25 205.05833ZM279.39062 206.33958L280.67188 206.49583Q280.35938 207.62083 279.54688 208.24583Q278.73438 208.85521 277.46875 208.85521Q275.875 208.85521 274.9375 207.87083Q274.01562 206.88646 274.01562 205.12083Q274.01562 203.27708 274.95312 202.27708Q275.90625 201.26146 277.40625 201.26146Q278.85938 201.26146 279.78125 202.26146Q280.70312 203.24583 280.70312 205.04271Q280.70312 205.15208 280.70312 205.37083L275.28125 205.37083Q275.35938 206.55833 275.95312 207.19896Q276.5625 207.83958 277.48438 207.83958Q278.15625 207.83958 278.625 207.48021Q279.10938 207.12083 279.39062 206.33958ZM275.35938 204.35521L279.40625 204.35521Q279.32812 203.43333 278.9375 202.98021Q278.35938 202.27708 277.42188 202.27708Q276.5625 202.27708 275.98438 202.83958Q275.42188 203.40208 275.35938 204.35521ZM282.40625 208.68333L282.40625 201.41771L283.51562 201.41771L283.51562 202.52708Q283.9375 201.74583 284.29688 201.51146Q284.65625 201.26146 285.09375 201.26146Q285.71875 201.26146 286.35938 201.65208L285.9375 202.79271Q285.48438 202.52708 285.03125 202.52708Q284.625 202.52708 284.29688 202.77708Q283.98438 203.01146 283.84375 203.44896Q283.64062 204.10521 283.64062 204.88646L283.64062 208.68333L282.40625 208.68333ZM287.42188 211.46458L287.42188 201.41771L288.54688 201.41771L288.54688 202.37083Q288.9375 201.80833 289.4375 201.54271Q289.9375 201.26146 290.65625 201.26146Q291.57812 201.26146 292.28125 201.74583Q293.0 202.21458 293.35938 203.08958Q293.71875 203.96458 293.71875 204.99583Q293.71875 206.10521 293.3125 207.01146Q292.92188 207.90208 292.15625 208.38646Q291.40625 208.85521 290.5625 208.85521Q289.95312 208.85521 289.45312 208.58958Q288.96875 208.32396 288.65625 207.93333L288.65625 211.46458L287.42188 211.46458ZM288.53125 205.08958Q288.53125 206.49583 289.09375 207.16771Q289.67188 207.83958 290.48438 207.83958Q291.29688 207.83958 291.875 207.15208Q292.46875 206.44896 292.46875 204.99583Q292.46875 203.60521 291.89062 202.91771Q291.32812 202.23021 290.53125 202.23021Q289.75 202.23021 289.14062 202.96458Q288.53125 203.69896 288.53125 205.08958ZM300.39062 206.33958L301.67188 206.49583Q301.35938 207.62083 300.54688 208.24583Q299.73438 208.85521 298.46875 208.85521Q296.875 208.85521 295.9375 207.87083Q295.01562 206.88646 295.01562 205.12083Q295.01562 203.27708 295.95312 202.27708Q296.90625 201.26146 298.40625 201.26146Q299.85938 201.26146 300.78125 202.26146Q301.70312 203.24583 301.70312 205.04271Q301.70312 205.15208 301.70312 205.37083L296.28125 205.37083Q296.35938 206.55833 296.95312 207.19896Q297.5625 207.83958 298.48438 207.83958Q299.15625 207.83958 299.625 207.48021Q300.10938 207.12083 300.39062 206.33958ZM296.35938 204.35521L300.40625 204.35521Q300.32812 203.43333 299.9375 202.98021Q299.35938 202.27708 298.42188 202.27708Q297.5625 202.27708 296.98438 202.83958Q296.42188 203.40208 296.35938 204.35521ZM303.40625 208.68333L303.40625 201.41771L304.51562 201.41771L304.51562 202.52708Q304.9375 201.74583 305.29688 201.51146Q305.65625 201.26146 306.09375 201.26146Q306.71875 201.26146 307.35938 201.65208L306.9375 202.79271Q306.48438 202.52708 306.03125 202.52708Q305.625 202.52708 305.29688 202.77708Q304.98438 203.01146 304.84375 203.44896Q304.64062 204.10521 304.64062 204.88646L304.64062 208.68333L303.40625 208.68333ZM308.71875 208.68333L308.71875 202.38646L307.625 202.38646L307.625 201.41771L308.71875 201.41771L308.71875 200.65208Q308.71875 199.91771 308.84375 199.55833Q309.03125 199.08958 309.46875 198.79271Q309.92188 198.49583 310.73438 198.49583Q311.25 198.49583 311.875 198.62083L311.6875 199.68333Q311.3125 199.62083 310.96875 199.62083Q310.40625 199.62083 310.17188 199.85521Q309.9375 200.08958 309.9375 200.74583L309.9375 201.41771L311.35938 201.41771L311.35938 202.38646L309.9375 202.38646L309.9375 208.68333L308.71875 208.68333ZM311.96875 205.05833Q311.96875 203.04271 313.09375 202.05833Q314.01562 201.26146 315.375 201.26146Q316.85938 201.26146 317.8125 202.24583Q318.76562 203.21458 318.76562 204.94896Q318.76562 206.35521 318.34375 207.16771Q317.92188 207.96458 317.10938 208.41771Q316.3125 208.85521 315.375 208.85521Q313.84375 208.85521 312.90625 207.87083Q311.96875 206.88646 311.96875 205.05833ZM313.23438 205.05833Q313.23438 206.44896 313.84375 207.15208Q314.45312 207.83958 315.375 207.83958Q316.28125 207.83958 316.89062 207.13646Q317.5 206.43333 317.5 205.01146Q317.5 203.66771 316.89062 202.98021Q316.28125 202.27708 315.375 202.27708Q314.45312 202.27708 313.84375 202.96458Q313.23438 203.65208 313.23438 205.05833ZM320.40625 208.68333L320.40625 201.41771L321.51562 201.41771L321.51562 202.52708Q321.9375 201.74583 322.29688 201.51146Q322.65625 201.26146 323.09375 201.26146Q323.71875 201.26146 324.35938 201.65208L323.9375 202.79271Q323.48438 202.52708 323.03125 202.52708Q322.625 202.52708 322.29688 202.77708Q321.98438 203.01146 321.84375 203.44896Q321.64062 204.10521 321.64062 204.88646L321.64062 208.68333L320.40625 208.68333ZM325.42188 208.68333L325.42188 201.41771L326.53125 201.41771L326.53125 202.44896Q326.85938 201.90208 327.42188 201.58958Q328.0 201.26146 328.71875 201.26146Q329.53125 201.26146 330.04688 201.60521Q330.5625 201.93333 330.78125 202.52708Q331.64062 201.26146 333.01562 201.26146Q334.09375 201.26146 334.67188 201.85521Q335.26562 202.44896 335.26562 203.69896L335.26562 208.68333L334.03125 208.68333L334.03125 204.10521Q334.03125 203.37083 333.90625 203.04271Q333.79688 202.71458 333.48438 202.52708Q333.17188 202.32396 332.75 202.32396Q331.98438 202.32396 331.46875 202.83958Q330.96875 203.33958 330.96875 204.46458L330.96875 208.68333L329.73438 208.68333L329.73438 203.96458Q329.73438 203.15208 329.4375 202.74583Q329.14062 202.32396 328.45312 202.32396Q327.9375 202.32396 327.48438 202.60521Q327.04688 202.87083 326.84375 203.40208Q326.65625 203.91771 326.65625 204.91771L326.65625 208.68333L325.42188 208.68333ZM341.39062 206.33958L342.67188 206.49583Q342.35938 207.62083 341.54688 208.24583Q340.73438 208.85521 339.46875 208.85521Q337.875 208.85521 336.9375 207.87083Q336.01562 206.88646 336.01562 205.12083Q336.01562 203.27708 336.95312 202.27708Q337.90625 201.26146 339.40625 201.26146Q340.85938 201.26146 341.78125 202.26146Q342.70312 203.24583 342.70312 205.04271Q342.70312 205.15208 342.70312 205.37083L337.28125 205.37083Q337.35938 206.55833 337.95312 207.19896Q338.5625 207.83958 339.48438 207.83958Q340.15625 207.83958 340.625 207.48021Q341.10938 207.12083 341.39062 206.33958ZM337.35938 204.35521L341.40625 204.35521Q341.32812 203.43333 340.9375 202.98021Q340.35938 202.27708 339.42188 202.27708Q338.5625 202.27708 337.98438 202.83958Q337.42188 203.40208 337.35938 204.35521ZM349.14062 208.68333L349.14062 207.76146Q348.4375 208.85521 347.10938 208.85521Q346.23438 208.85521 345.5 208.37083Q344.78125 207.88646 344.375 207.02708Q343.98438 206.16771 343.98438 205.05833Q343.98438 203.98021 344.34375 203.08958Q344.70312 202.19896 345.42188 201.73021Q346.15625 201.26146 347.04688 201.26146Q347.70312 201.26146 348.21875 201.54271Q348.73438 201.80833 349.04688 202.26146L349.04688 198.66771L350.28125 198.66771L350.28125 208.68333L349.14062 208.68333ZM345.25 205.05833Q345.25 206.44896 345.82812 207.15208Q346.42188 207.83958 347.21875 207.83958Q348.03125 207.83958 348.59375 207.18333Q349.15625 206.51146 349.15625 205.16771Q349.15625 203.66771 348.57812 202.98021Q348.0 202.27708 347.17188 202.27708Q346.34375 202.27708 345.79688 202.94896Q345.25 203.62083 345.25 205.05833Z" fill-rule="nonzero"/><path fill="#000000" d="M22.596874 37.55L18.8 23.2375L20.7375 23.2375L22.909374 32.6125Q23.26875 34.096874 23.51875 35.55Q24.065624 33.253124 24.159374 32.89375L26.89375 23.2375L29.175 23.2375L31.221874 30.471874Q32.003124 33.175 32.346874 35.55Q32.6125 34.190624 33.05 32.425L35.3 23.2375L37.20625 23.2375L33.284374 37.55L31.45625 37.55L28.440624 26.64375Q28.05 25.26875 27.9875 24.95625Q27.753124 25.940624 27.565624 26.64375L24.534374 37.55L22.596874 37.55ZM38.878124 25.253124L38.878124 23.2375L40.64375 23.2375L40.64375 25.253124L38.878124 25.253124ZM38.878124 37.55L38.878124 27.175L40.64375 27.175L40.64375 37.55L38.878124 37.55ZM42.8625 37.55L42.8625 27.175L44.45625 27.175L44.45625 28.659374Q45.596874 26.940624 47.753124 26.940624Q48.690624 26.940624 49.471874 27.284374Q50.26875 27.6125 50.659374 28.159374Q51.05 28.70625 51.20625 29.45625Q51.3 29.95625 51.3 31.175L51.3 37.55L49.534374 37.55L49.534374 31.2375Q49.534374 30.159374 49.33125 29.628124Q49.128124 29.096874 48.596874 28.784374Q48.08125 28.471874 47.378124 28.471874Q46.253124 28.471874 45.440624 29.190624Q44.628124 29.89375 44.628124 31.878124L44.628124 37.55L42.8625 37.55ZM52.55 38.409374L54.253124 38.659374Q54.3625 39.45625 54.846874 39.815624Q55.503124 40.3 56.64375 40.3Q57.8625 40.3 58.51875 39.815624Q59.190624 39.33125 59.425 38.45625Q59.565624 37.909374 59.55 36.190624Q58.39375 37.55 56.675 37.55Q54.534374 37.55 53.3625 36.003124Q52.190624 34.45625 52.190624 32.3Q52.190624 30.815624 52.721874 29.565624Q53.26875 28.315624 54.284374 27.628124Q55.315624 26.940624 56.690624 26.940624Q58.51875 26.940624 59.721874 28.425L59.721874 27.175L61.33125 27.175L61.33125 36.14375Q61.33125 38.565624 60.83125 39.565624Q60.346874 40.58125 59.26875 41.159374Q58.20625 41.753124 56.64375 41.753124Q54.8 41.753124 53.64375 40.925Q52.503124 40.096874 52.55 38.409374ZM54.003124 32.175Q54.003124 34.221874 54.815624 35.159374Q55.628124 36.096874 56.846874 36.096874Q58.05 36.096874 58.8625 35.159374Q59.690624 34.221874 59.690624 32.2375Q59.690624 30.33125 58.846874 29.3625Q58.003124 28.39375 56.815624 28.39375Q55.64375 28.39375 54.815624 29.346874Q54.003124 30.3 54.003124 32.175ZM63.159374 34.45625L64.90938 34.175Q65.05 35.221874 65.72188 35.784374Q66.39375 36.33125 67.59688 36.33125Q68.8 36.33125 69.37813 35.846874Q69.97188 35.346874 69.97188 34.690624Q69.97188 34.096874 69.45625 33.753124Q69.09688 33.51875 67.65938 33.159374Q65.72188 32.659374 64.97188 32.315624Q64.2375 31.95625 63.846874 31.33125Q63.45625 30.690624 63.45625 29.925Q63.45625 29.2375 63.76875 28.64375Q64.09688 28.05 64.64375 27.659374Q65.05 27.3625 65.75313 27.159374Q66.47188 26.940624 67.28438 26.940624Q68.50313 26.940624 69.425 27.3Q70.34688 27.64375 70.78438 28.253124Q71.22188 28.846874 71.39375 29.846874L69.675 30.08125Q69.55 29.284374 68.9875 28.846874Q68.425 28.39375 67.40938 28.39375Q66.19063 28.39375 65.675 28.8Q65.15938 29.190624 65.15938 29.721874Q65.15938 30.065624 65.37813 30.346874Q65.58125 30.628124 66.05 30.815624Q66.31563 30.909374 67.59688 31.253124Q69.47188 31.753124 70.20625 32.08125Q70.94063 32.39375 71.3625 33.003124Q71.78438 33.596874 71.78438 34.503124Q71.78438 35.378124 71.26875 36.159374Q70.75313 36.940624 69.78438 37.3625Q68.81563 37.784374 67.59688 37.784374Q65.58125 37.784374 64.51875 36.940624Q63.45625 36.096874 63.159374 34.45625ZM80.09688 37.55L80.09688 23.2375L85.4875 23.2375Q86.925 23.2375 87.675 23.3625Q88.72188 23.55 89.44063 24.05Q90.15938 24.534374 90.58125 25.425Q91.01875 26.315624 91.01875 27.378124Q91.01875 29.20625 89.84688 30.471874Q88.69063 31.721874 85.65938 31.721874L81.9875 31.721874L81.9875 37.55L80.09688 37.55ZM81.9875 30.034374L85.69063 30.034374Q87.51875 30.034374 88.28438 29.3625Q89.06563 28.675 89.06563 27.425Q89.06563 26.534374 88.6125 25.89375Q88.15938 25.253124 87.425 25.05Q86.94063 24.925 85.64375 24.925L81.9875 24.925L81.9875 30.034374ZM99.97188 34.20625L101.78438 34.440624Q101.3625 36.01875 100.19063 36.909374Q99.03438 37.784374 97.22188 37.784374Q94.95625 37.784374 93.6125 36.39375Q92.28438 34.9875 92.28438 32.45625Q92.28438 29.83125 93.62813 28.39375Q94.97188 26.940624 97.12813 26.940624Q99.20625 26.940624 100.51875 28.3625Q101.84688 29.76875 101.84688 32.346874Q101.84688 32.503124 101.83125 32.815624L94.09688 32.815624Q94.19063 34.51875 95.06563 35.425Q95.94063 36.33125 97.2375 36.33125Q98.20625 36.33125 98.87813 35.83125Q99.56563 35.315624 99.97188 34.20625ZM94.19063 31.3625L99.9875 31.3625Q99.87813 30.065624 99.33125 29.409374Q98.4875 28.39375 97.14375 28.39375Q95.94063 28.39375 95.1125 29.20625Q94.28438 30.003124 94.19063 31.3625ZM103.84688 37.55L103.84688 27.175L105.425 27.175L105.425 28.753124Q106.03438 27.64375 106.55 27.3Q107.06563 26.940624 107.675 26.940624Q108.56563 26.940624 109.4875 27.503124L108.87813 29.14375Q108.2375 28.753124 107.59688 28.753124Q107.01875 28.753124 106.55 29.1125Q106.09688 29.45625 105.89375 30.065624Q105.6125 31.003124 105.6125 32.1125L105.6125 37.55L103.84688 37.55ZM111.28438 37.55L111.28438 28.55L109.7375 28.55L109.7375 27.175L111.28438 27.175L111.28438 26.08125Q111.28438 25.034374 111.47188 24.51875Q111.72188 23.83125 112.3625 23.409374Q113.00313 22.9875 114.15938 22.9875Q114.90938 22.9875 115.8 23.159374L115.53438 24.690624Q114.9875 24.596874 114.50313 24.596874Q113.70625 24.596874 113.3625 24.940624Q113.03438 25.284374 113.03438 26.221874L113.03438 27.175L115.06563 27.175L115.06563 28.55L113.03438 28.55L113.03438 37.55L111.28438 37.55ZM116.22188 32.3625Q116.22188 29.4875 117.81563 28.096874Q119.15938 26.940624 121.08125 26.940624Q123.22188 26.940624 124.56563 28.346874Q125.925 29.753124 125.925 32.221874Q125.925 34.221874 125.33125 35.378124Q124.7375 36.51875 123.58125 37.159374Q122.44063 37.784374 121.08125 37.784374Q118.89375 37.784374 117.55 36.39375Q116.22188 34.9875 116.22188 32.3625ZM118.01875 32.3625Q118.01875 34.3625 118.87813 35.346874Q119.75313 36.33125 121.08125 36.33125Q122.39375 36.33125 123.25313 35.346874Q124.12813 34.346874 124.12813 32.3Q124.12813 30.378124 123.25313 29.39375Q122.37813 28.39375 121.08125 28.39375Q119.75313 28.39375 118.87813 29.39375Q118.01875 30.378124 118.01875 32.3625ZM127.84688 37.55L127.84688 27.175L129.425 27.175L129.425 28.753124Q130.03438 27.64375 130.55 27.3Q131.06563 26.940624 131.675 26.940624Q132.56563 26.940624 133.4875 27.503124L132.87813 29.14375Q132.2375 28.753124 131.59688 28.753124Q131.01875 28.753124 130.55 29.1125Q130.09688 29.45625 129.89375 30.065624Q129.6125 31.003124 129.6125 32.1125L129.6125 37.55L127.84688 37.55ZM134.8625 37.55L134.8625 27.175L136.44063 27.175L136.44063 28.628124Q136.925 27.878124 137.7375 27.409374Q138.55 26.940624 139.58125 26.940624Q140.7375 26.940624 141.47188 27.425Q142.20625 27.89375 142.51875 28.753124Q143.75313 26.940624 145.72188 26.940624Q147.26875 26.940624 148.09688 27.8Q148.925 28.659374 148.925 30.425L148.925 37.55L147.175 37.55L147.175 31.01875Q147.175 29.95625 147.00313 29.503124Q146.83125 29.034374 146.37813 28.753124Q145.94063 28.471874 145.33125 28.471874Q144.2375 28.471874 143.50313 29.20625Q142.78438 29.925 142.78438 31.51875L142.78438 37.55L141.03438 37.55L141.03438 30.815624Q141.03438 29.64375 140.59688 29.065624Q140.175 28.471874 139.19063 28.471874Q138.45625 28.471874 137.81563 28.8625Q137.19063 29.253124 136.90938 30.003124Q136.62813 30.753124 136.62813 32.175L136.62813 37.55L134.8625 37.55ZM157.64375 36.26875Q156.65938 37.096874 155.75313 37.440624Q154.84688 37.784374 153.81563 37.784374Q152.1125 37.784374 151.19063 36.95625Q150.26875 36.1125 150.26875 34.815624Q150.26875 34.05 150.6125 33.425Q150.97188 32.8 151.53438 32.425Q152.09688 32.034374 152.8 31.83125Q153.31563 31.70625 154.3625 31.565624Q156.4875 31.315624 157.4875 30.971874Q157.50313 30.6125 157.50313 30.503124Q157.50313 29.440624 157.00313 28.9875Q156.33125 28.39375 155.00313 28.39375Q153.75313 28.39375 153.15938 28.83125Q152.58125 29.26875 152.3 30.378124L150.58125 30.14375Q150.81563 29.034374 151.34688 28.3625Q151.87813 27.675 152.89375 27.315624Q153.90938 26.940624 155.25313 26.940624Q156.58125 26.940624 157.40938 27.253124Q158.2375 27.565624 158.62813 28.05Q159.01875 28.51875 159.175 29.2375Q159.26875 29.690624 159.26875 30.8625L159.26875 33.20625Q159.26875 35.659374 159.37813 36.315624Q159.4875 36.95625 159.83125 37.55L157.9875 37.55Q157.72188 37.003124 157.64375 36.26875ZM157.4875 32.346874Q156.53438 32.7375 154.6125 33.003124Q153.53438 33.159374 153.08125 33.3625Q152.64375 33.55 152.39375 33.925Q152.14375 34.3 152.14375 34.76875Q152.14375 35.471874 152.675 35.940624Q153.20625 36.409374 154.2375 36.409374Q155.25313 36.409374 156.03438 35.971874Q156.83125 35.51875 157.20625 34.753124Q157.4875 34.14375 157.4875 32.9875L157.4875 32.346874ZM161.8625 37.55L161.8625 27.175L163.45625 27.175L163.45625 28.659374Q164.59688 26.940624 166.75313 26.940624Q167.69063 26.940624 168.47188 27.284374Q169.26875 27.6125 169.65938 28.159374Q170.05 28.70625 170.20625 29.45625Q170.3 29.95625 170.3 31.175L170.3 37.55L168.53438 37.55L168.53438 31.2375Q168.53438 30.159374 168.33125 29.628124Q168.12813 29.096874 167.59688 28.784374Q167.08125 28.471874 166.37813 28.471874Q165.25313 28.471874 164.44063 29.190624Q163.62813 29.89375 163.62813 31.878124L163.62813 37.55L161.8625 37.55ZM178.64375 33.753124L180.3625 33.971874Q180.08125 35.76875 178.90938 36.784374Q177.75313 37.784374 176.05 37.784374Q173.925 37.784374 172.62813 36.39375Q171.33125 35.003124 171.33125 32.409374Q171.33125 30.721874 171.87813 29.471874Q172.44063 28.20625 173.58125 27.58125Q174.72188 26.940624 176.06563 26.940624Q177.75313 26.940624 178.81563 27.8Q179.89375 28.659374 180.20625 30.221874L178.4875 30.4875Q178.25313 29.440624 177.62813 28.925Q177.00313 28.39375 176.12813 28.39375Q174.8 28.39375 173.97188 29.346874Q173.14375 30.3 173.14375 32.346874Q173.14375 34.440624 173.94063 35.39375Q174.7375 36.33125 176.03438 36.33125Q177.06563 36.33125 177.75313 35.70625Q178.45625 35.065624 178.64375 33.753124ZM188.97188 34.20625L190.78438 34.440624Q190.3625 36.01875 189.19063 36.909374Q188.03438 37.784374 186.22188 37.784374Q183.95625 37.784374 182.6125 36.39375Q181.28438 34.9875 181.28438 32.45625Q181.28438 29.83125 182.62813 28.39375Q183.97188 26.940624 186.12813 26.940624Q188.20625 26.940624 189.51875 28.3625Q190.84688 29.76875 190.84688 32.346874Q190.84688 32.503124 190.83125 32.815624L183.09688 32.815624Q183.19063 34.51875 184.06563 35.425Q184.94063 36.33125 186.2375 36.33125Q187.20625 36.33125 187.87813 35.83125Q188.56563 35.315624 188.97188 34.20625ZM183.19063 31.3625L188.9875 31.3625Q188.87813 30.065624 188.33125 29.409374Q187.4875 28.39375 186.14375 28.39375Q184.94063 28.39375 184.1125 29.20625Q183.28438 30.003124 183.19063 31.3625Z" fill-rule="nonzero"/></svg>