<svg version="1.1" viewBox="0.0 0.0 600.0 371.0" fill="none" stroke="none" stroke-linecap="square" stroke-miterlimit="10" width="600" height="371" xmlns:xlink="http://www.w3.org/1999/xlink" xmlns="http://www.w3.org/2000/svg"><path fill="#ffffff" d="M0 0L600.0 0L600.0 371.0L0 371.0L0 0Z" fill-rule="nonzero"/><path fill="#ea4335" d="M194.80608 98.48942C222.70525 70.590256 260.54462 54.916668 300.0 54.916668L300.0 203.68333Z" fill-rule="nonzero"/><path fill="#fbbc04" d="M300.0 54.916668C370.97275 54.916668 432.06207 105.05137 445.90814 174.6604C459.75424 244.26942 422.50082 313.96573 356.93054 341.12582C291.36026 368.28592 215.73538 345.34534 176.30504 286.33368C136.8747 227.32198 144.62077 148.67473 194.80608 98.48942L300.0 203.68333Z" fill-rule="nonzero"/><path fill="#000000" d="M310.30646 298.1185L310.30646 296.931L316.80646 296.931L316.80646 297.88412Q315.8377 298.89975 314.9002 300.58725Q313.9627 302.27475 313.44708 304.07162Q313.0877 305.32162 312.97833 306.82162L311.7127 306.82162Q311.72833 305.63412 312.16583 303.96225Q312.61896 302.29037 313.44708 300.7435Q314.29083 299.181 315.22833 298.1185L310.30646 298.1185ZM324.93146 309.77475Q323.9002 308.47787 323.19708 306.75912Q322.49396 305.04037 322.49396 303.19662Q322.49396 301.57162 323.0252 300.07162Q323.63458 298.33725 324.93146 296.63412L325.80646 296.63412Q324.97833 298.056 324.7127 298.66537Q324.29083 299.60287 324.05646 300.63412Q323.75958 301.89975 323.75958 303.19662Q323.75958 306.4935 325.80646 309.77475L324.93146 309.77475ZM329.11896 301.38412Q328.35333 301.10287 327.97833 300.58725Q327.61896 300.07162 327.61896 299.33725Q327.61896 298.2435 328.4002 297.50912Q329.19708 296.75912 330.49396 296.75912Q331.80646 296.75912 332.60333 297.52475Q333.41583 298.29037 333.41583 299.38412Q333.41583 300.07162 333.04083 300.58725Q332.68146 301.10287 331.93146 301.38412Q332.85333 301.681 333.3377 302.35287Q333.82208 303.02475 333.82208 303.96225Q333.82208 305.2435 332.91583 306.1185Q332.00958 306.9935 330.5252 306.9935Q329.04083 306.9935 328.11896 306.1185Q327.2127 305.22787 327.2127 303.91537Q327.2127 302.94662 327.7127 302.29037Q328.2127 301.6185 329.11896 301.38412ZM328.88458 299.306Q328.88458 300.00912 329.3377 300.46225Q329.79083 300.91537 330.5252 300.91537Q331.24396 300.91537 331.69708 300.47787Q332.1502 300.02475 332.1502 299.3685Q332.1502 298.69662 331.68146 298.2435Q331.2127 297.77475 330.50958 297.77475Q329.80646 297.77475 329.3377 298.22787Q328.88458 298.66537 328.88458 299.306ZM328.47833 303.931Q328.47833 304.46225 328.72833 304.96225Q328.97833 305.44662 329.4627 305.71225Q329.9627 305.97787 330.54083 305.97787Q331.41583 305.97787 331.97833 305.41537Q332.55646 304.85287 332.55646 303.97787Q332.55646 303.08725 331.9627 302.50912Q331.38458 301.91537 330.49396 301.91537Q329.61896 301.91537 329.04083 302.4935Q328.47833 303.07162 328.47833 303.931ZM335.30646 298.1185L335.30646 296.931L341.80646 296.931L341.80646 297.88412Q340.8377 298.89975 339.9002 300.58725Q338.9627 302.27475 338.44708 304.07162Q338.0877 305.32162 337.97833 306.82162L336.7127 306.82162Q336.72833 305.63412 337.16583 303.96225Q337.61896 302.29037 338.44708 300.7435Q339.29083 299.181 340.22833 298.1185L335.30646 298.1185ZM343.91583 306.82162L343.91583 305.41537L345.32208 305.41537L345.32208 306.82162L343.91583 306.82162ZM347.22833 304.19662L348.5252 304.08725Q348.66583 305.02475 349.18146 305.50912Q349.7127 305.97787 350.44708 305.97787Q351.3377 305.97787 351.94708 305.306Q352.57208 304.63412 352.57208 303.54037Q352.57208 302.47787 351.97833 301.8685Q351.38458 301.25912 350.43146 301.25912Q349.8377 301.25912 349.35333 301.54037Q348.88458 301.806 348.60333 302.22787L347.44708 302.08725L348.41583 296.931L353.4002 296.931L353.4002 298.1185L349.4002 298.1185L348.86896 300.806Q349.7752 300.181 350.75958 300.181Q352.07208 300.181 352.9627 301.08725Q353.86896 301.9935 353.86896 303.431Q353.86896 304.79037 353.0877 305.77475Q352.11896 306.9935 350.44708 306.9935Q349.0877 306.9935 348.2127 306.22787Q347.35333 305.46225 347.22833 304.19662ZM355.4627 299.21225Q355.4627 298.13412 355.99396 297.38412Q356.54083 296.63412 357.57208 296.63412Q358.50958 296.63412 359.11896 297.306Q359.74396 297.97787 359.74396 299.27475Q359.74396 300.556 359.11896 301.2435Q358.49396 301.931 357.5877 301.931Q356.68146 301.931 356.07208 301.25912Q355.4627 300.57162 355.4627 299.21225ZM357.60333 297.47787Q357.1502 297.47787 356.8377 297.88412Q356.54083 298.27475 356.54083 299.32162Q356.54083 300.29037 356.8377 300.681Q357.1502 301.07162 357.60333 301.07162Q358.07208 301.07162 358.36896 300.681Q358.68146 300.29037 358.68146 299.22787Q358.68146 298.25912 358.36896 297.8685Q358.05646 297.47787 357.60333 297.47787ZM357.60333 307.19662L363.0877 296.63412L364.0877 296.63412L358.63458 307.19662L357.60333 307.19662ZM361.94708 304.46225Q361.94708 303.38412 362.47833 302.64975Q363.0252 301.89975 364.05646 301.89975Q364.99396 301.89975 365.61896 302.57162Q366.24396 303.2435 366.24396 304.54037Q366.24396 305.82162 365.61896 306.50912Q364.99396 307.19662 364.05646 307.19662Q363.1502 307.19662 362.54083 306.52475Q361.94708 305.83725 361.94708 304.46225ZM364.0877 302.7435Q363.61896 302.7435 363.32208 303.14975Q363.0252 303.54037 363.0252 304.58725Q363.0252 305.556 363.32208 305.94662Q363.63458 306.33725 364.0877 306.33725Q364.55646 306.33725 364.85333 305.94662Q365.16583 305.556 365.16583 304.4935Q365.16583 303.52475 364.85333 303.13412Q364.55646 302.7435 364.0877 302.7435ZM368.38458 309.77475L367.49396 309.77475Q369.54083 306.4935 369.54083 303.19662Q369.54083 301.91537 369.24396 300.64975Q369.00958 299.6185 368.60333 298.681Q368.3377 298.07162 367.49396 296.63412L368.38458 296.63412Q369.66583 298.33725 370.2752 300.07162Q370.80646 301.57162 370.80646 303.19662Q370.80646 305.04037 370.0877 306.75912Q369.38458 308.47787 368.38458 309.77475Z" fill-rule="nonzero"/><path fill="#000000" d="M233.56854 110.545044L232.33417 110.545044L232.33417 102.701294Q231.89667 103.12317 231.1623 103.56067Q230.44354 103.982544 229.88104 104.18567L229.88104 102.99817Q230.9123 102.513794 231.67792 101.826294Q232.45917 101.138794 232.77167 100.482544L233.56854 100.482544L233.56854 110.545044ZM243.63104 113.49817Q242.5998 112.201294 241.89667 110.482544Q241.19354 108.763794 241.19354 106.920044Q241.19354 105.295044 241.7248 103.795044Q242.33417 102.06067 243.63104 100.357544L244.50604 100.357544Q243.67792 101.77942 243.4123 102.388794Q242.99042 103.326294 242.75604 104.357544Q242.45917 105.62317 242.45917 106.920044Q242.45917 110.21692 244.50604 113.49817L243.63104 113.49817ZM250.56854 110.545044L249.33417 110.545044L249.33417 102.701294Q248.89667 103.12317 248.1623 103.56067Q247.44354 103.982544 246.88104 104.18567L246.88104 102.99817Q247.9123 102.513794 248.67792 101.826294Q249.45917 101.138794 249.77167 100.482544L250.56854 100.482544L250.56854 110.545044ZM260.39667 109.357544L260.39667 110.545044L253.77167 110.545044Q253.75604 110.107544 253.9123 109.68567Q254.17792 109.013794 254.7248 108.357544Q255.2873 107.701294 256.33417 106.84192Q257.9748 105.49817 258.5373 104.71692Q259.11542 103.93567 259.11542 103.232544Q259.11542 102.49817 258.58417 101.99817Q258.06854 101.49817 257.24042 101.49817Q256.3498 101.49817 255.80292 102.02942Q255.27167 102.56067 255.27167 103.513794L254.00604 103.37317Q254.13104 101.96692 254.9748 101.232544Q255.83417 100.482544 257.25604 100.482544Q258.70917 100.482544 259.5373 101.27942Q260.38104 102.076294 260.38104 103.263794Q260.38104 103.87317 260.13104 104.451294Q259.89667 105.02942 259.31854 105.670044Q258.75604 106.31067 257.42792 107.43567Q256.31854 108.357544 256.00604 108.701294Q255.69354 109.02942 255.49042 109.357544L260.39667 109.357544ZM262.61542 110.545044L262.61542 109.138794L264.02167 109.138794L264.02167 110.545044L262.61542 110.545044ZM265.92792 107.920044L267.2248 107.81067Q267.36542 108.74817 267.88104 109.232544Q268.4123 109.701294 269.14667 109.701294Q270.0373 109.701294 270.64667 109.02942Q271.27167 108.357544 271.27167 107.263794Q271.27167 106.201294 270.67792 105.59192Q270.08417 104.982544 269.13104 104.982544Q268.5373 104.982544 268.05292 105.263794Q267.58417 105.52942 267.30292 105.951294L266.14667 105.81067L267.11542 100.65442L272.0998 100.65442L272.0998 101.84192L268.0998 101.84192L267.56854 104.52942Q268.4748 103.90442 269.45917 103.90442Q270.77167 103.90442 271.6623 104.81067Q272.56854 105.71692 272.56854 107.15442Q272.56854 108.513794 271.7873 109.49817Q270.81854 110.71692 269.14667 110.71692Q267.7873 110.71692 266.9123 109.951294Q266.05292 109.18567 265.92792 107.920044ZM274.1623 102.93567Q274.1623 101.857544 274.69354 101.107544Q275.24042 100.357544 276.27167 100.357544Q277.20917 100.357544 277.81854 101.02942Q278.44354 101.701294 278.44354 102.99817Q278.44354 104.27942 277.81854 104.96692Q277.19354 105.65442 276.2873 105.65442Q275.38104 105.65442 274.77167 104.982544Q274.1623 104.295044 274.1623 102.93567ZM276.30292 101.201294Q275.8498 101.201294 275.5373 101.607544Q275.24042 101.99817 275.24042 103.045044Q275.24042 104.013794 275.5373 104.40442Q275.8498 104.795044 276.30292 104.795044Q276.77167 104.795044 277.06854 104.40442Q277.38104 104.013794 277.38104 102.951294Q277.38104 101.982544 277.06854 101.59192Q276.75604 101.201294 276.30292 101.201294ZM276.30292 110.920044L281.7873 100.357544L282.7873 100.357544L277.33417 110.920044L276.30292 110.920044ZM280.64667 108.18567Q280.64667 107.107544 281.17792 106.37317Q281.7248 105.62317 282.75604 105.62317Q283.69354 105.62317 284.31854 106.295044Q284.94354 106.96692 284.94354 108.263794Q284.94354 109.545044 284.31854 110.232544Q283.69354 110.920044 282.75604 110.920044Q281.8498 110.920044 281.24042 110.24817Q280.64667 109.56067 280.64667 108.18567ZM282.7873 106.46692Q282.31854 106.46692 282.02167 106.87317Q281.7248 107.263794 281.7248 108.31067Q281.7248 109.27942 282.02167 109.670044Q282.33417 110.06067 282.7873 110.06067Q283.25604 110.06067 283.55292 109.670044Q283.86542 109.27942 283.86542 108.21692Q283.86542 107.24817 283.55292 106.857544Q283.25604 106.46692 282.7873 106.46692ZM287.08417 113.49817L286.19354 113.49817Q288.24042 110.21692 288.24042 106.920044Q288.24042 105.638794 287.94354 104.37317Q287.70917 103.34192 287.30292 102.40442Q287.0373 101.795044 286.19354 100.357544L287.08417 100.357544Q288.36542 102.06067 288.9748 103.795044Q289.50604 105.295044 289.50604 106.920044Q289.50604 108.763794 288.7873 110.482544Q288.08417 112.201294 287.08417 113.49817Z" fill-rule="nonzero"/><path fill="#1a1a1a" d="M27.3 58.46354L28.815624 58.46354L28.815624 65.072914Q28.815624 66.80729 28.425 67.822914Q28.034374 68.83854 27.01875 69.479164Q26.003124 70.11979 24.346874 70.11979Q22.7375 70.11979 21.70625 69.55729Q20.690624 68.99479 20.253124 67.947914Q19.815624 66.90104 19.815624 65.072914L19.815624 58.46354L21.33125 58.46354L21.33125 65.072914Q21.33125 66.55729 21.596874 67.27604Q21.878124 67.979164 22.55 68.36979Q23.2375 68.74479 24.20625 68.74479Q25.878124 68.74479 26.58125 67.99479Q27.3 67.229164 27.3 65.072914L27.3 58.46354ZM30.6125 69.916664L30.6125 61.61979L31.878124 61.61979L31.878124 62.791664Q32.784374 61.43229 34.51875 61.43229Q35.26875 61.43229 35.89375 61.697914Q36.51875 61.96354 36.83125 62.40104Q37.14375 62.83854 37.26875 63.447914Q37.346874 63.83854 37.346874 64.80729L37.346874 69.916664L35.940624 69.916664L35.940624 64.86979Q35.940624 64.010414 35.76875 63.58854Q35.6125 63.15104 35.190624 62.90104Q34.784374 62.65104 34.221874 62.65104Q33.315624 62.65104 32.659374 63.229164Q32.01875 63.791664 32.01875 65.385414L32.01875 69.916664L30.6125 69.916664ZM43.9875 69.916664L43.9875 68.86979Q43.20625 70.104164 41.675 70.104164Q40.675 70.104164 39.846874 69.55729Q39.01875 69.010414 38.55 68.02604Q38.096874 67.041664 38.096874 65.77604Q38.096874 64.52604 38.503124 63.52604Q38.925 62.510414 39.753124 61.979164Q40.58125 61.43229 41.6125 61.43229Q42.3625 61.43229 42.940624 61.74479Q43.534374 62.05729 43.89375 62.572914L43.89375 58.46354L45.3 58.46354L45.3 69.916664L43.9875 69.916664ZM39.55 65.77604Q39.55 67.36979 40.221874 68.166664Q40.89375 68.947914 41.8 68.947914Q42.721874 68.947914 43.3625 68.197914Q44.01875 67.43229 44.01875 65.885414Q44.01875 64.18229 43.3625 63.385414Q42.70625 62.58854 41.7375 62.58854Q40.8 62.58854 40.175 63.354164Q39.55 64.11979 39.55 65.77604ZM53.284374 67.24479L54.7375 67.416664Q54.39375 68.697914 53.45625 69.40104Q52.534374 70.104164 51.096874 70.104164Q49.26875 70.104164 48.20625 68.979164Q47.14375 67.854164 47.14375 65.83854Q47.14375 63.74479 48.221874 62.58854Q49.3 61.43229 51.01875 61.43229Q52.675 61.43229 53.721874 62.572914Q54.784374 63.697914 54.784374 65.74479Q54.784374 65.86979 54.784374 66.11979L48.596874 66.11979Q48.675 67.49479 49.3625 68.229164Q50.065624 68.947914 51.096874 68.947914Q51.878124 68.947914 52.425 68.541664Q52.971874 68.135414 53.284374 67.24479ZM48.675 64.96354L53.3 64.96354Q53.20625 63.916664 52.76875 63.40104Q52.096874 62.58854 51.034374 62.58854Q50.065624 62.58854 49.39375 63.24479Q48.7375 63.885414 48.675 64.96354ZM56.596874 69.916664L56.596874 61.61979L57.8625 61.61979L57.8625 62.86979Q58.346874 61.99479 58.753124 61.71354Q59.159374 61.43229 59.659374 61.43229Q60.3625 61.43229 61.096874 61.885414L60.6125 63.18229Q60.096874 62.885414 59.58125 62.885414Q59.128124 62.885414 58.753124 63.166664Q58.39375 63.43229 58.2375 63.93229Q58.003124 64.68229 58.003124 65.572914L58.003124 69.916664L56.596874 69.916664ZM61.6125 73.104164L61.6125 61.61979L62.89375 61.61979L62.89375 62.697914Q63.346874 62.05729 63.909374 61.74479Q64.4875 61.43229 65.3 61.43229Q66.3625 61.43229 67.175 61.979164Q67.9875 62.52604 68.39375 63.52604Q68.81563 64.510414 68.81563 65.697914Q68.81563 66.979164 68.34688 67.99479Q67.89375 69.010414 67.01875 69.55729Q66.15938 70.104164 65.19063 70.104164Q64.4875 70.104164 63.925 69.80729Q63.378124 69.510414 63.01875 69.05729L63.01875 73.104164L61.6125 73.104164ZM62.878124 65.80729Q62.878124 67.416664 63.51875 68.18229Q64.175 68.947914 65.09688 68.947914Q66.03438 68.947914 66.70625 68.15104Q67.37813 67.354164 67.37813 65.697914Q67.37813 64.104164 66.72188 63.322914Q66.06563 62.52604 65.15938 62.52604Q64.26875 62.52604 63.565624 63.36979Q62.878124 64.21354 62.878124 65.80729ZM76.28438 67.24479L77.7375 67.416664Q77.39375 68.697914 76.45625 69.40104Q75.53438 70.104164 74.09688 70.104164Q72.26875 70.104164 71.20625 68.979164Q70.14375 67.854164 70.14375 65.83854Q70.14375 63.74479 71.22188 62.58854Q72.3 61.43229 74.01875 61.43229Q75.675 61.43229 76.72188 62.572914Q77.78438 63.697914 77.78438 65.74479Q77.78438 65.86979 77.78438 66.11979L71.59688 66.11979Q71.675 67.49479 72.3625 68.229164Q73.06563 68.947914 74.09688 68.947914Q74.87813 68.947914 75.425 68.541664Q75.97188 68.135414 76.28438 67.24479ZM71.675 64.96354L76.3 64.96354Q76.20625 63.916664 75.76875 63.40104Q75.09688 62.58854 74.03438 62.58854Q73.06563 62.58854 72.39375 63.24479Q71.7375 63.885414 71.675 64.96354ZM79.59688 69.916664L79.59688 61.61979L80.8625 61.61979L80.8625 62.86979Q81.34688 61.99479 81.75313 61.71354Q82.15938 61.43229 82.65938 61.43229Q83.3625 61.43229 84.09688 61.885414L83.6125 63.18229Q83.09688 62.885414 82.58125 62.885414Q82.12813 62.885414 81.75313 63.166664Q81.39375 63.43229 81.2375 63.93229Q81.00313 64.68229 81.00313 65.572914L81.00313 69.916664L79.59688 69.916664ZM84.94063 69.916664L84.94063 62.71354L83.70625 62.71354L83.70625 61.61979L84.94063 61.61979L84.94063 60.729164Q84.94063 59.90104 85.09688 59.49479Q85.3 58.947914 85.8 58.604164Q86.31563 58.260414 87.2375 58.260414Q87.83125 58.260414 88.55 58.40104L88.34688 59.635414Q87.90938 59.55729 87.51875 59.55729Q86.87813 59.55729 86.6125 59.83854Q86.34688 60.104164 86.34688 60.854164L86.34688 61.61979L87.95625 61.61979L87.95625 62.71354L86.34688 62.71354L86.34688 69.916664L84.94063 69.916664ZM88.08125 65.760414Q88.08125 63.46354 89.3625 62.354164Q90.44063 61.43229 91.97188 61.43229Q93.69063 61.43229 94.76875 62.55729Q95.8625 63.666664 95.8625 65.65104Q95.8625 67.24479 95.37813 68.166664Q94.89375 69.08854 93.97188 69.604164Q93.06563 70.104164 91.97188 70.104164Q90.2375 70.104164 89.15938 68.99479Q88.08125 67.86979 88.08125 65.760414ZM89.53438 65.760414Q89.53438 67.354164 90.22188 68.15104Q90.925 68.947914 91.97188 68.947914Q93.01875 68.947914 93.70625 68.15104Q94.40938 67.354164 94.40938 65.71354Q94.40938 64.18229 93.70625 63.385414Q93.01875 62.58854 91.97188 62.58854Q90.925 62.58854 90.22188 63.385414Q89.53438 64.166664 89.53438 65.760414ZM97.59688 69.916664L97.59688 61.61979L98.8625 61.61979L98.8625 62.86979Q99.34688 61.99479 99.75313 61.71354Q100.15938 61.43229 100.65938 61.43229Q101.3625 61.43229 102.09688 61.885414L101.6125 63.18229Q101.09688 62.885414 100.58125 62.885414Q100.12813 62.885414 99.75313 63.166664Q99.39375 63.43229 99.2375 63.93229Q99.00313 64.68229 99.00313 65.572914L99.00313 69.916664L97.59688 69.916664ZM102.6125 69.916664L102.6125 61.61979L103.8625 61.61979L103.8625 62.77604Q104.25313 62.166664 104.89375 61.80729Q105.55 61.43229 106.37813 61.43229Q107.3 61.43229 107.89375 61.822914Q108.4875 62.197914 108.72188 62.885414Q109.70625 61.43229 111.28438 61.43229Q112.51875 61.43229 113.175 62.11979Q113.84688 62.791664 113.84688 64.21354L113.84688 69.916664L112.45625 69.916664L112.45625 64.68229Q112.45625 63.83854 112.31563 63.479164Q112.175 63.104164 111.81563 62.885414Q111.45625 62.65104 110.97188 62.65104Q110.09688 62.65104 109.51875 63.229164Q108.94063 63.80729 108.94063 65.08854L108.94063 69.916664L107.53438 69.916664L107.53438 64.52604Q107.53438 63.58854 107.19063 63.11979Q106.84688 62.65104 106.06563 62.65104Q105.47188 62.65104 104.97188 62.96354Q104.47188 63.27604 104.2375 63.885414Q104.01875 64.479164 104.01875 65.604164L104.01875 69.916664L102.6125 69.916664ZM121.28438 67.24479L122.7375 67.416664Q122.39375 68.697914 121.45625 69.40104Q120.53438 70.104164 119.09688 70.104164Q117.26875 70.104164 116.20625 68.979164Q115.14375 67.854164 115.14375 65.83854Q115.14375 63.74479 116.22188 62.58854Q117.3 61.43229 119.01875 61.43229Q120.675 61.43229 121.72188 62.572914Q122.78438 63.697914 122.78438 65.74479Q122.78438 65.86979 122.78438 66.11979L116.59688 66.11979Q116.675 67.49479 117.3625 68.229164Q118.06563 68.947914 119.09688 68.947914Q119.87813 68.947914 120.425 68.541664Q120.97188 68.135414 121.28438 67.24479ZM116.675 64.96354L121.3 64.96354Q121.20625 63.916664 120.76875 63.40104Q120.09688 62.58854 119.03438 62.58854Q118.06563 62.58854 117.39375 63.24479Q116.7375 63.885414 116.675 64.96354ZM129.9875 69.916664L129.9875 68.86979Q129.20625 70.104164 127.675 70.104164Q126.675 70.104164 125.84688 69.55729Q125.01875 69.010414 124.55 68.02604Q124.09688 67.041664 124.09688 65.77604Q124.09688 64.52604 124.50313 63.52604Q124.925 62.510414 125.75313 61.979164Q126.58125 61.43229 127.6125 61.43229Q128.3625 61.43229 128.94063 61.74479Q129.53438 62.05729 129.89375 62.572914L129.89375 58.46354L131.3 58.46354L131.3 69.916664L129.9875 69.916664ZM125.55 65.77604Q125.55 67.36979 126.22188 68.166664Q126.89375 68.947914 127.8 68.947914Q128.72188 68.947914 129.3625 68.197914Q130.01875 67.43229 130.01875 65.885414Q130.01875 64.18229 129.3625 63.385414Q128.70625 62.58854 127.7375 62.58854Q126.8 62.58854 126.175 63.354164Q125.55 64.11979 125.55 65.77604Z" fill-rule="nonzero"/><path fill="#9e9e9e" d="M24.51875 91.916664L23.1125 91.916664L23.1125 82.947914Q22.596874 83.43229 21.76875 83.916664Q20.95625 84.40104 20.3 84.65104L20.3 83.291664Q21.471874 82.729164 22.346874 81.947914Q23.2375 81.15104 23.6125 80.416664L24.51875 80.416664L24.51875 91.916664ZM35.6125 90.55729L35.6125 91.916664L28.034374 91.916664Q28.01875 91.40104 28.20625 90.93229Q28.4875 90.166664 29.128124 89.416664Q29.76875 88.666664 30.971874 87.68229Q32.83125 86.15104 33.4875 85.260414Q34.14375 84.354164 34.14375 83.55729Q34.14375 82.729164 33.55 82.15104Q32.95625 81.572914 31.9875 81.572914Q30.971874 81.572914 30.3625 82.18229Q29.753124 82.791664 29.753124 83.86979L28.3 83.729164Q28.45625 82.104164 29.425 81.260414Q30.39375 80.416664 32.01875 80.416664Q33.675 80.416664 34.628124 81.33854Q35.596874 82.24479 35.596874 83.58854Q35.596874 84.27604 35.315624 84.947914Q35.034374 85.604164 34.378124 86.33854Q33.721874 87.072914 32.20625 88.354164Q30.940624 89.416664 30.58125 89.80729Q30.221874 90.18229 29.9875 90.55729L35.6125 90.55729ZM38.003124 91.916664L38.003124 90.30729L39.6125 90.30729L39.6125 91.916664L38.003124 91.916664ZM41.221874 88.916664L42.690624 88.791664Q42.8625 89.86979 43.45625 90.416664Q44.05 90.947914 44.89375 90.947914Q45.909374 90.947914 46.6125 90.18229Q47.315624 89.416664 47.315624 88.15104Q47.315624 86.947914 46.64375 86.260414Q45.971874 85.55729 44.878124 85.55729Q44.190624 85.55729 43.64375 85.86979Q43.096874 86.18229 42.784374 86.666664L41.471874 86.49479L42.58125 80.61979L48.26875 80.61979L48.26875 81.96354L43.70625 81.96354L43.08125 85.041664Q44.1125 84.322914 45.253124 84.322914Q46.753124 84.322914 47.784374 85.36979Q48.815624 86.40104 48.815624 88.02604Q48.815624 89.58854 47.909374 90.71354Q46.8 92.11979 44.89375 92.11979Q43.33125 92.11979 42.346874 91.24479Q41.3625 90.354164 41.221874 88.916664ZM50.4875 83.21354Q50.4875 81.979164 51.096874 81.11979Q51.721874 80.260414 52.89375 80.260414Q53.971874 80.260414 54.675 81.041664Q55.378124 81.80729 55.378124 83.291664Q55.378124 84.74479 54.659374 85.541664Q53.95625 86.322914 52.909374 86.322914Q51.8625 86.322914 51.175 85.55729Q50.4875 84.77604 50.4875 83.21354ZM52.925 81.229164Q52.409374 81.229164 52.05 81.68229Q51.70625 82.135414 51.70625 83.354164Q51.70625 84.447914 52.05 84.90104Q52.409374 85.354164 52.925 85.354164Q53.45625 85.354164 53.8 84.90104Q54.159374 84.447914 54.159374 83.24479Q54.159374 82.135414 53.8 81.68229Q53.45625 81.229164 52.925 81.229164ZM52.940624 92.33854L59.20625 80.260414L60.346874 80.260414L54.096874 92.33854L52.940624 92.33854ZM57.89375 89.229164Q57.89375 87.99479 58.503124 87.135414Q59.128124 86.27604 60.3 86.27604Q61.378124 86.27604 62.08125 87.05729Q62.8 87.822914 62.8 89.30729Q62.8 90.760414 62.08125 91.55729Q61.3625 92.33854 60.315624 92.33854Q59.26875 92.33854 58.58125 91.55729Q57.89375 90.77604 57.89375 89.229164ZM60.346874 87.24479Q59.815624 87.24479 59.45625 87.697914Q59.1125 88.15104 59.1125 89.36979Q59.1125 90.46354 59.45625 90.916664Q59.815624 91.36979 60.33125 91.36979Q60.878124 91.36979 61.221874 90.916664Q61.565624 90.46354 61.565624 89.260414Q61.565624 88.15104 61.20625 87.697914Q60.8625 87.24479 60.346874 87.24479Z" fill-rule="nonzero"/><path stroke="#757575" stroke-width="1.0" stroke-linecap="butt" d="M18.55 75.416664L145.23334 75.416664L245.91599 73.112976" fill-rule="nonzero"/><path fill="#9e9e9e" d="M247.91599 73.112976C247.91599 72.00841 247.02055 71.112976 245.91599 71.112976C244.81142 71.112976 243.91599 72.00841 243.91599 73.112976C243.91599 74.217545 244.81142 75.112976 245.91599 75.112976C247.02055 75.112976 247.91599 74.217545 247.91599 73.112976" fill-rule="nonzero"/><path fill="#1a1a1a" d="M500.16876 322.7625L501.60626 322.6375Q501.7 323.4969 502.075 324.0594Q502.45 324.60626 503.23126 324.95Q504.0125 325.27814 504.98126 325.27814Q505.85626 325.27814 506.5125 325.02814Q507.1844 324.7625 507.4969 324.325Q507.825 323.8719 507.825 323.34064Q507.825 322.79376 507.5125 322.40314Q507.2 321.9969 506.48126 321.71564Q506.02814 321.54376 504.45 321.16876Q502.8719 320.77814 502.23126 320.45Q501.41876 320.0125 501.0125 319.3875Q500.60626 318.7469 500.60626 317.95Q500.60626 317.09064 501.09064 316.34064Q501.59064 315.575 502.52814 315.1844Q503.48126 314.79376 504.6375 314.79376Q505.91876 314.79376 506.8875 315.21564Q507.85626 315.6219 508.3719 316.41876Q508.90314 317.21564 508.95 318.21564L507.4969 318.325Q507.3719 317.2469 506.7 316.7Q506.02814 316.1375 504.7 316.1375Q503.325 316.1375 502.7 316.6375Q502.075 317.1375 502.075 317.85626Q502.075 318.46564 502.5125 318.8719Q502.95 319.2625 504.79376 319.6844Q506.65314 320.10626 507.34064 320.41876Q508.34064 320.8719 508.8094 321.59064Q509.29376 322.29376 509.29376 323.21564Q509.29376 324.1219 508.7625 324.9344Q508.2469 325.7469 507.2625 326.2Q506.27814 326.65314 505.0594 326.65314Q503.4969 326.65314 502.45 326.2Q501.40314 325.73126 500.79376 324.825Q500.2 323.91876 500.16876 322.7625ZM516.91876 325.41876Q516.1375 326.09064 515.41876 326.3719Q514.7 326.6375 513.8719 326.6375Q512.4969 326.6375 511.7625 325.96564Q511.02814 325.29376 511.02814 324.2625Q511.02814 323.65314 511.3094 323.15314Q511.59064 322.6375 512.02814 322.34064Q512.48126 322.02814 513.04376 321.8719Q513.46564 321.7625 514.29376 321.66876Q515.9969 321.46564 516.8094 321.1844Q516.8094 320.8875 516.8094 320.8094Q516.8094 319.95 516.41876 319.60626Q515.8719 319.1219 514.8094 319.1219Q513.825 319.1219 513.34064 319.48126Q512.8719 319.825 512.65314 320.7L511.27814 320.5125Q511.46564 319.6375 511.8875 319.09064Q512.325 318.54376 513.1375 318.2625Q513.95 317.96564 515.0125 317.96564Q516.075 317.96564 516.73126 318.21564Q517.40314 318.46564 517.71564 318.84064Q518.02814 319.21564 518.15314 319.79376Q518.23126 320.15314 518.23126 321.09064L518.23126 322.96564Q518.23126 324.9344 518.3094 325.45Q518.40314 325.96564 518.66876 326.45L517.2 326.45Q516.98126 326.0125 516.91876 325.41876ZM516.8094 322.27814Q516.04376 322.59064 514.5125 322.8094Q513.6375 322.9344 513.27814 323.09064Q512.91876 323.2469 512.71564 323.5594Q512.52814 323.85626 512.52814 324.21564Q512.52814 324.77814 512.95 325.15314Q513.3875 325.52814 514.2 325.52814Q515.0125 325.52814 515.6375 325.1844Q516.27814 324.825 516.575 324.2Q516.8094 323.73126 516.8094 322.79376L516.8094 322.27814ZM523.575 325.1844L523.77814 326.4344Q523.1844 326.5594 522.71564 326.5594Q521.95 326.5594 521.52814 326.325Q521.10626 326.075 520.9344 325.6844Q520.7625 325.27814 520.7625 324.0125L520.7625 319.2469L519.73126 319.2469L519.73126 318.15314L520.7625 318.15314L520.7625 316.09064L522.16876 315.2469L522.16876 318.15314L523.575 318.15314L523.575 319.2469L522.16876 319.2469L522.16876 324.09064Q522.16876 324.7 522.23126 324.8719Q522.3094 325.04376 522.48126 325.15314Q522.65314 325.2469 522.96564 325.2469Q523.2 325.2469 523.575 325.1844ZM524.5125 316.60626L524.5125 314.9969L525.91876 314.9969L525.91876 316.60626L524.5125 316.60626ZM524.5125 326.45L524.5125 318.15314L525.91876 318.15314L525.91876 326.45L524.5125 326.45ZM527.95 323.96564L529.34064 323.7469Q529.45 324.59064 529.98126 325.04376Q530.52814 325.48126 531.48126 325.48126Q532.45 325.48126 532.91876 325.09064Q533.3875 324.6844 533.3875 324.15314Q533.3875 323.6844 532.98126 323.40314Q532.6844 323.21564 531.54376 322.9344Q529.9969 322.54376 529.3875 322.2625Q528.79376 321.96564 528.48126 321.46564Q528.1844 320.96564 528.1844 320.35626Q528.1844 319.79376 528.4344 319.325Q528.6844 318.85626 529.1219 318.54376Q529.45 318.29376 530.0125 318.1375Q530.59064 317.96564 531.23126 317.96564Q532.21564 317.96564 532.95 318.2469Q533.6844 318.52814 534.02814 319.0125Q534.3875 319.48126 534.52814 320.29376L533.15314 320.48126Q533.0594 319.84064 532.60626 319.48126Q532.15314 319.1219 531.34064 319.1219Q530.3719 319.1219 529.95 319.45Q529.54376 319.7625 529.54376 320.1844Q529.54376 320.46564 529.71564 320.6844Q529.8875 320.90314 530.2469 321.0594Q530.46564 321.1375 531.4969 321.41876Q532.98126 321.8094 533.575 322.075Q534.16876 322.325 534.4969 322.8094Q534.84064 323.29376 534.84064 324.0125Q534.84064 324.71564 534.41876 325.34064Q534.0125 325.95 533.23126 326.29376Q532.46564 326.6375 531.4969 326.6375Q529.8719 326.6375 529.02814 325.96564Q528.1844 325.29376 527.95 323.96564ZM536.84064 326.45L536.84064 319.2469L535.60626 319.2469L535.60626 318.15314L536.84064 318.15314L536.84064 317.2625Q536.84064 316.4344 536.9969 316.02814Q537.2 315.48126 537.7 315.1375Q538.21564 314.79376 539.1375 314.79376Q539.73126 314.79376 540.45 314.9344L540.2469 316.16876Q539.8094 316.09064 539.41876 316.09064Q538.77814 316.09064 538.5125 316.3719Q538.2469 316.6375 538.2469 317.3875L538.2469 318.15314L539.85626 318.15314L539.85626 319.2469L538.2469 319.2469L538.2469 326.45L536.84064 326.45ZM545.91876 325.41876Q545.1375 326.09064 544.41876 326.3719Q543.7 326.6375 542.8719 326.6375Q541.4969 326.6375 540.7625 325.96564Q540.02814 325.29376 540.02814 324.2625Q540.02814 323.65314 540.3094 323.15314Q540.59064 322.6375 541.02814 322.34064Q541.48126 322.02814 542.04376 321.8719Q542.46564 321.7625 543.29376 321.66876Q544.9969 321.46564 545.8094 321.1844Q545.8094 320.8875 545.8094 320.8094Q545.8094 319.95 545.41876 319.60626Q544.8719 319.1219 543.8094 319.1219Q542.825 319.1219 542.34064 319.48126Q541.8719 319.825 541.65314 320.7L540.27814 320.5125Q540.46564 319.6375 540.8875 319.09064Q541.325 318.54376 542.1375 318.2625Q542.95 317.96564 544.0125 317.96564Q545.075 317.96564 545.73126 318.21564Q546.40314 318.46564 546.71564 318.84064Q547.02814 319.21564 547.15314 319.79376Q547.23126 320.15314 547.23126 321.09064L547.23126 322.96564Q547.23126 324.9344 547.3094 325.45Q547.40314 325.96564 547.66876 326.45L546.2 326.45Q545.98126 326.0125 545.91876 325.41876ZM545.8094 322.27814Q545.04376 322.59064 543.5125 322.8094Q542.6375 322.9344 542.27814 323.09064Q541.91876 323.2469 541.71564 323.5594Q541.52814 323.85626 541.52814 324.21564Q541.52814 324.77814 541.95 325.15314Q542.3875 325.52814 543.2 325.52814Q544.0125 325.52814 544.6375 325.1844Q545.27814 324.825 545.575 324.2Q545.8094 323.73126 545.8094 322.79376L545.8094 322.27814ZM554.91876 323.40314L556.3094 323.59064Q556.075 325.0125 555.1375 325.825Q554.21564 326.6375 552.85626 326.6375Q551.15314 326.6375 550.10626 325.52814Q549.075 324.40314 549.075 322.325Q549.075 320.98126 549.5125 319.98126Q549.96564 318.96564 550.8719 318.46564Q551.79376 317.96564 552.85626 317.96564Q554.21564 317.96564 555.075 318.65314Q555.9344 319.325 556.16876 320.59064L554.8094 320.79376Q554.60626 319.96564 554.10626 319.54376Q553.6219 319.1219 552.91876 319.1219Q551.85626 319.1219 551.1844 319.8875Q550.52814 320.6375 550.52814 322.29376Q550.52814 323.96564 551.16876 324.73126Q551.8094 325.48126 552.84064 325.48126Q553.66876 325.48126 554.21564 324.98126Q554.77814 324.46564 554.91876 323.40314ZM560.575 325.1844L560.77814 326.4344Q560.1844 326.5594 559.71564 326.5594Q558.95 326.5594 558.52814 326.325Q558.10626 326.075 557.9344 325.6844Q557.7625 325.27814 557.7625 324.0125L557.7625 319.2469L556.73126 319.2469L556.73126 318.15314L557.7625 318.15314L557.7625 316.09064L559.16876 315.2469L559.16876 318.15314L560.575 318.15314L560.575 319.2469L559.16876 319.2469L559.16876 324.09064Q559.16876 324.7 559.23126 324.8719Q559.3094 325.04376 559.48126 325.15314Q559.65314 325.2469 559.96564 325.2469Q560.2 325.2469 560.575 325.1844ZM560.98126 322.29376Q560.98126 319.9969 562.2625 318.8875Q563.34064 317.96564 564.8719 317.96564Q566.59064 317.96564 567.66876 319.09064Q568.7625 320.2 568.7625 322.1844Q568.7625 323.77814 568.27814 324.7Q567.79376 325.6219 566.8719 326.1375Q565.96564 326.6375 564.8719 326.6375Q563.1375 326.6375 562.0594 325.52814Q560.98126 324.40314 560.98126 322.29376ZM562.4344 322.29376Q562.4344 323.8875 563.1219 324.6844Q563.825 325.48126 564.8719 325.48126Q565.91876 325.48126 566.60626 324.6844Q567.3094 323.8875 567.3094 322.2469Q567.3094 320.71564 566.60626 319.91876Q565.91876 319.1219 564.8719 319.1219Q563.825 319.1219 563.1219 319.91876Q562.4344 320.7 562.4344 322.29376ZM570.4969 326.45L570.4969 318.15314L571.7625 318.15314L571.7625 319.40314Q572.2469 318.52814 572.65314 318.2469Q573.0594 317.96564 573.5594 317.96564Q574.2625 317.96564 574.9969 318.41876L574.5125 319.71564Q573.9969 319.41876 573.48126 319.41876Q573.02814 319.41876 572.65314 319.7Q572.29376 319.96564 572.1375 320.46564Q571.90314 321.21564 571.90314 322.10626L571.90314 326.45L570.4969 326.45ZM575.45 329.65314L575.29376 328.325Q575.7469 328.45 576.09064 328.45Q576.5594 328.45 576.84064 328.29376Q577.1219 328.1375 577.3094 327.85626Q577.4344 327.65314 577.73126 326.8094Q577.77814 326.7 577.85626 326.46564L574.71564 318.15314L576.23126 318.15314L577.95 322.95Q578.29376 323.8719 578.5594 324.8719Q578.79376 323.90314 579.1375 322.98126L580.90314 318.15314L582.3094 318.15314L579.15314 326.59064Q578.65314 327.96564 578.3719 328.48126Q577.9969 329.16876 577.5125 329.4969Q577.02814 329.825 576.35626 329.825Q575.95 329.825 575.45 329.65314Z" fill-rule="nonzero"/><path fill="#9e9e9e" d="M539.27814 342.23126Q538.40314 341.91876 537.98126 341.325Q537.5594 340.73126 537.5594 339.90314Q537.5594 338.65314 538.45 337.8094Q539.35626 336.95 540.85626 336.95Q542.35626 336.95 543.2625 337.825Q544.1844 338.6844 544.1844 339.9344Q544.1844 340.73126 543.7625 341.325Q543.34064 341.91876 542.4969 342.23126Q543.54376 342.575 544.09064 343.34064Q544.65314 344.10626 544.65314 345.16876Q544.65314 346.6375 543.60626 347.65314Q542.575 348.65314 540.8719 348.65314Q539.1844 348.65314 538.1375 347.65314Q537.10626 346.6375 537.10626 345.1375Q537.10626 344.0125 537.66876 343.2625Q538.23126 342.5125 539.27814 342.23126ZM538.9969 339.85626Q538.9969 340.66876 539.5125 341.1844Q540.04376 341.7 540.8875 341.7Q541.7 341.7 542.21564 341.1844Q542.73126 340.66876 542.73126 339.9344Q542.73126 339.15314 542.2 338.6375Q541.66876 338.10626 540.8719 338.10626Q540.0594 338.10626 539.52814 338.6219Q538.9969 339.1375 538.9969 339.85626ZM538.54376 345.1375Q538.54376 345.7469 538.825 346.3094Q539.1219 346.8719 539.6844 347.1844Q540.2469 347.48126 540.8875 347.48126Q541.90314 347.48126 542.5594 346.84064Q543.21564 346.1844 543.21564 345.1844Q543.21564 344.16876 542.52814 343.5125Q541.85626 342.84064 540.84064 342.84064Q539.85626 342.84064 539.2 343.4969Q538.54376 344.15314 538.54376 345.1375ZM546.21564 338.4969L546.21564 337.1375L553.6219 337.1375L553.6219 338.23126Q552.52814 339.40314 551.45 341.34064Q550.3875 343.2625 549.79376 345.29376Q549.3719 346.73126 549.2625 348.45L547.8094 348.45Q547.84064 347.09064 548.34064 345.1844Q548.85626 343.2625 549.79376 341.4969Q550.7469 339.71564 551.825 338.4969L546.21564 338.4969ZM555.90314 348.45L555.90314 346.84064L557.5125 346.84064L557.5125 348.45L555.90314 348.45ZM559.1219 345.45L560.59064 345.325Q560.7625 346.40314 561.35626 346.95Q561.95 347.48126 562.79376 347.48126Q563.8094 347.48126 564.5125 346.71564Q565.21564 345.95 565.21564 344.6844Q565.21564 343.48126 564.54376 342.79376Q563.8719 342.09064 562.77814 342.09064Q562.09064 342.09064 561.54376 342.40314Q560.9969 342.71564 560.6844 343.2L559.3719 343.02814L560.48126 337.15314L566.16876 337.15314L566.16876 338.4969L561.60626 338.4969L560.98126 341.575Q562.0125 340.85626 563.15314 340.85626Q564.65314 340.85626 565.6844 341.90314Q566.71564 342.9344 566.71564 344.5594Q566.71564 346.1219 565.8094 347.2469Q564.7 348.65314 562.79376 348.65314Q561.23126 348.65314 560.2469 347.77814Q559.2625 346.8875 559.1219 345.45ZM568.3875 339.7469Q568.3875 338.5125 568.9969 337.65314Q569.6219 336.79376 570.79376 336.79376Q571.8719 336.79376 572.575 337.575Q573.27814 338.34064 573.27814 339.825Q573.27814 341.27814 572.5594 342.075Q571.85626 342.85626 570.8094 342.85626Q569.7625 342.85626 569.075 342.09064Q568.3875 341.3094 568.3875 339.7469ZM570.825 337.7625Q570.3094 337.7625 569.95 338.21564Q569.60626 338.66876 569.60626 339.8875Q569.60626 340.98126 569.95 341.4344Q570.3094 341.8875 570.825 341.8875Q571.35626 341.8875 571.7 341.4344Q572.0594 340.98126 572.0594 339.77814Q572.0594 338.66876 571.7 338.21564Q571.35626 337.7625 570.825 337.7625ZM570.84064 348.8719L577.10626 336.79376L578.2469 336.79376L571.9969 348.8719L570.84064 348.8719ZM575.79376 345.7625Q575.79376 344.52814 576.40314 343.66876Q577.02814 342.8094 578.2 342.8094Q579.27814 342.8094 579.98126 343.59064Q580.7 344.35626 580.7 345.84064Q580.7 347.29376 579.98126 348.09064Q579.2625 348.8719 578.21564 348.8719Q577.16876 348.8719 576.48126 348.09064Q575.79376 347.3094 575.79376 345.7625ZM578.2469 343.77814Q577.71564 343.77814 577.35626 344.23126Q577.0125 344.6844 577.0125 345.90314Q577.0125 346.9969 577.35626 347.45Q577.71564 347.90314 578.23126 347.90314Q578.77814 347.90314 579.1219 347.45Q579.46564 346.9969 579.46564 345.79376Q579.46564 344.6844 579.10626 344.23126Q578.7625 343.77814 578.2469 343.77814Z" fill-rule="nonzero"/><path stroke="#757575" stroke-width="1.0" stroke-linecap="butt" d="M581.45 331.95L454.76666 331.95L354.084 334.2537" fill-rule="nonzero"/><path fill="#9e9e9e" d="M356.084 334.2537C356.084 333.1491 355.18857 332.2537 354.084 332.2537C352.97943 332.2537 352.084 333.1491 352.084 334.2537C352.084 335.35825 352.97943 336.2537 354.084 336.2537C355.18857 336.2537 356.084 335.35825 356.084 334.2537" fill-rule="nonzero"/><path fill="#000000" d="M20.096874 37.55L20.096874 23.2375L25.01875 23.2375Q26.690624 23.2375 27.58125 23.440624Q28.8 23.721874 29.675 24.45625Q30.8 25.425 31.3625 26.909374Q31.925 28.39375 31.925 30.315624Q31.925 31.940624 31.55 33.20625Q31.175 34.45625 30.565624 35.284374Q29.971874 36.1125 29.26875 36.596874Q28.565624 37.065624 27.565624 37.315624Q26.565624 37.55 25.253124 37.55L20.096874 37.55ZM21.9875 35.8625L25.05 35.8625Q26.45625 35.8625 27.253124 35.596874Q28.065624 35.33125 28.55 34.846874Q29.221874 34.175 29.596874 33.05Q29.971874 31.909374 29.971874 30.284374Q29.971874 28.034374 29.2375 26.83125Q28.503124 25.628124 27.440624 25.221874Q26.690624 24.925 25.003124 24.925L21.9875 24.925L21.9875 35.8625ZM33.846874 37.55L33.846874 27.175L35.425 27.175L35.425 28.753124Q36.034374 27.64375 36.55 27.3Q37.065624 26.940624 37.675 26.940624Q38.565624 26.940624 39.4875 27.503124L38.878124 29.14375Q38.2375 28.753124 37.596874 28.753124Q37.01875 28.753124 36.55 29.1125Q36.096874 29.45625 35.89375 30.065624Q35.6125 31.003124 35.6125 32.1125L35.6125 37.55L33.846874 37.55ZM40.878124 25.253124L40.878124 23.2375L42.64375 23.2375L42.64375 25.253124L40.878124 25.253124ZM40.878124 37.55L40.878124 27.175L42.64375 27.175L42.64375 37.55L40.878124 37.55ZM47.753124 37.55L43.8 27.175L45.659374 27.175L47.89375 33.39375Q48.253124 34.39375 48.55 35.471874Q48.784374 34.659374 49.20625 33.503124L51.503124 27.175L53.315624 27.175L49.39375 37.55L47.753124 37.55ZM60.971874 34.20625L62.784374 34.440624Q62.3625 36.01875 61.190624 36.909374Q60.034374 37.784374 58.221874 37.784374Q55.95625 37.784374 54.6125 36.39375Q53.284374 34.9875 53.284374 32.45625Q53.284374 29.83125 54.628124 28.39375Q55.971874 26.940624 58.128124 26.940624Q60.20625 26.940624 61.51875 28.3625Q62.846874 29.76875 62.846874 32.346874Q62.846874 32.503124 62.83125 32.815624L55.096874 32.815624Q55.190624 34.51875 56.065624 35.425Q56.940624 36.33125 58.2375 36.33125Q59.20625 36.33125 59.878124 35.83125Q60.565624 35.315624 60.971874 34.20625ZM55.190624 31.3625L60.9875 31.3625Q60.878124 30.065624 60.33125 29.409374Q59.4875 28.39375 58.14375 28.39375Q56.940624 28.39375 56.1125 29.20625Q55.284374 30.003124 55.190624 31.3625ZM68.70625 35.971874L68.95625 37.534374Q68.22188 37.690624 67.62813 37.690624Q66.675 37.690624 66.14375 37.39375Q65.62813 37.08125 65.40938 36.596874Q65.19063 36.096874 65.19063 34.51875L65.19063 28.55L63.909374 28.55L63.909374 27.175L65.19063 27.175L65.19063 24.6125L66.94063 23.55L66.94063 27.175L68.70625 27.175L68.70625 28.55L66.94063 28.55L66.94063 34.6125Q66.94063 35.3625 67.03438 35.58125Q67.12813 35.784374 67.33125 35.925Q67.55 36.05 67.94063 36.05Q68.22188 36.05 68.70625 35.971874ZM70.84688 37.55L70.84688 27.175L72.425 27.175L72.425 28.753124Q73.03438 27.64375 73.55 27.3Q74.06563 26.940624 74.675 26.940624Q75.56563 26.940624 76.4875 27.503124L75.87813 29.14375Q75.2375 28.753124 74.59688 28.753124Q74.01875 28.753124 73.55 29.1125Q73.09688 29.45625 72.89375 30.065624Q72.6125 31.003124 72.6125 32.1125L72.6125 37.55L70.84688 37.55ZM84.64375 36.26875Q83.65938 37.096874 82.75313 37.440624Q81.84688 37.784374 80.81563 37.784374Q79.1125 37.784374 78.19063 36.95625Q77.26875 36.1125 77.26875 34.815624Q77.26875 34.05 77.6125 33.425Q77.97188 32.8 78.53438 32.425Q79.09688 32.034374 79.8 31.83125Q80.31563 31.70625 81.3625 31.565624Q83.4875 31.315624 84.4875 30.971874Q84.50313 30.6125 84.50313 30.503124Q84.50313 29.440624 84.00313 28.9875Q83.33125 28.39375 82.00313 28.39375Q80.75313 28.39375 80.15938 28.83125Q79.58125 29.26875 79.3 30.378124L77.58125 30.14375Q77.81563 29.034374 78.34688 28.3625Q78.87813 27.675 79.89375 27.315624Q80.90938 26.940624 82.25313 26.940624Q83.58125 26.940624 84.40938 27.253124Q85.2375 27.565624 85.62813 28.05Q86.01875 28.51875 86.175 29.2375Q86.26875 29.690624 86.26875 30.8625L86.26875 33.20625Q86.26875 35.659374 86.37813 36.315624Q86.4875 36.95625 86.83125 37.55L84.9875 37.55Q84.72188 37.003124 84.64375 36.26875ZM84.4875 32.346874Q83.53438 32.7375 81.6125 33.003124Q80.53438 33.159374 80.08125 33.3625Q79.64375 33.55 79.39375 33.925Q79.14375 34.3 79.14375 34.76875Q79.14375 35.471874 79.675 35.940624Q80.20625 36.409374 81.2375 36.409374Q82.25313 36.409374 83.03438 35.971874Q83.83125 35.51875 84.20625 34.753124Q84.4875 34.14375 84.4875 32.9875L84.4875 32.346874ZM88.87813 25.253124L88.87813 23.2375L90.64375 23.2375L90.64375 25.253124L88.87813 25.253124ZM88.87813 37.55L88.87813 27.175L90.64375 27.175L90.64375 37.55L88.87813 37.55ZM92.8625 37.55L92.8625 27.175L94.45625 27.175L94.45625 28.659374Q95.59688 26.940624 97.75313 26.940624Q98.69063 26.940624 99.47188 27.284374Q100.26875 27.6125 100.65938 28.159374Q101.05 28.70625 101.20625 29.45625Q101.3 29.95625 101.3 31.175L101.3 37.55L99.53438 37.55L99.53438 31.2375Q99.53438 30.159374 99.33125 29.628124Q99.12813 29.096874 98.59688 28.784374Q98.08125 28.471874 97.37813 28.471874Q96.25313 28.471874 95.44063 29.190624Q94.62813 29.89375 94.62813 31.878124L94.62813 37.55L92.8625 37.55ZM109.09688 37.55L109.09688 23.2375L114.4875 23.2375Q115.925 23.2375 116.675 23.3625Q117.72188 23.55 118.44063 24.05Q119.15938 24.534374 119.58125 25.425Q120.01875 26.315624 120.01875 27.378124Q120.01875 29.20625 118.84688 30.471874Q117.69063 31.721874 114.65938 31.721874L110.9875 31.721874L110.9875 37.55L109.09688 37.55ZM110.9875 30.034374L114.69063 30.034374Q116.51875 30.034374 117.28438 29.3625Q118.06563 28.675 118.06563 27.425Q118.06563 26.534374 117.6125 25.89375Q117.15938 25.253124 116.425 25.05Q115.94063 24.925 114.64375 24.925L110.9875 24.925L110.9875 30.034374ZM128.97188 34.20625L130.78438 34.440624Q130.3625 36.01875 129.19063 36.909374Q128.03438 37.784374 126.22188 37.784374Q123.95625 37.784374 122.6125 36.39375Q121.28438 34.9875 121.28438 32.45625Q121.28438 29.83125 122.62813 28.39375Q123.97188 26.940624 126.12813 26.940624Q128.20625 26.940624 129.51875 28.3625Q130.84688 29.76875 130.84688 32.346874Q130.84688 32.503124 130.83125 32.815624L123.09688 32.815624Q123.19063 34.51875 124.06563 35.425Q124.94063 36.33125 126.2375 36.33125Q127.20625 36.33125 127.87813 35.83125Q128.56563 35.315624 128.97188 34.20625ZM123.19063 31.3625L128.9875 31.3625Q128.87813 30.065624 128.33125 29.409374Q127.4875 28.39375 126.14375 28.39375Q124.94063 28.39375 124.1125 29.20625Q123.28438 30.003124 123.19063 31.3625ZM132.84688 37.55L132.84688 27.175L134.425 27.175L134.425 28.753124Q135.03438 27.64375 135.55 27.3Q136.06563 26.940624 136.675 26.940624Q137.56563 26.940624 138.4875 27.503124L137.87813 29.14375Q137.2375 28.753124 136.59688 28.753124Q136.01875 28.753124 135.55 29.1125Q135.09688 29.45625 134.89375 30.065624Q134.6125 31.003124 134.6125 32.1125L134.6125 37.55L132.84688 37.55ZM140.28438 37.55L140.28438 28.55L138.7375 28.55L138.7375 27.175L140.28438 27.175L140.28438 26.08125Q140.28438 25.034374 140.47188 24.51875Q140.72188 23.83125 141.3625 23.409374Q142.00313 22.9875 143.15938 22.9875Q143.90938 22.9875 144.8 23.159374L144.53438 24.690624Q143.9875 24.596874 143.50313 24.596874Q142.70625 24.596874 142.3625 24.940624Q142.03438 25.284374 142.03438 26.221874L142.03438 27.175L144.06563 27.175L144.06563 28.55L142.03438 28.55L142.03438 37.55L140.28438 37.55ZM145.22188 32.3625Q145.22188 29.4875 146.81563 28.096874Q148.15938 26.940624 150.08125 26.940624Q152.22188 26.940624 153.56563 28.346874Q154.925 29.753124 154.925 32.221874Q154.925 34.221874 154.33125 35.378124Q153.7375 36.51875 152.58125 37.159374Q151.44063 37.784374 150.08125 37.784374Q147.89375 37.784374 146.55 36.39375Q145.22188 34.9875 145.22188 32.3625ZM147.01875 32.3625Q147.01875 34.3625 147.87813 35.346874Q148.75313 36.33125 150.08125 36.33125Q151.39375 36.33125 152.25313 35.346874Q153.12813 34.346874 153.12813 32.3Q153.12813 30.378124 152.25313 29.39375Q151.37813 28.39375 150.08125 28.39375Q148.75313 28.39375 147.87813 29.39375Q147.01875 30.378124 147.01875 32.3625ZM156.84688 37.55L156.84688 27.175L158.425 27.175L158.425 28.753124Q159.03438 27.64375 159.55 27.3Q160.06563 26.940624 160.675 26.940624Q161.56563 26.940624 162.4875 27.503124L161.87813 29.14375Q161.2375 28.753124 160.59688 28.753124Q160.01875 28.753124 159.55 29.1125Q159.09688 29.45625 158.89375 30.065624Q158.6125 31.003124 158.6125 32.1125L158.6125 37.55L156.84688 37.55ZM163.8625 37.55L163.8625 27.175L165.44063 27.175L165.44063 28.628124Q165.925 27.878124 166.7375 27.409374Q167.55 26.940624 168.58125 26.940624Q169.7375 26.940624 170.47188 27.425Q171.20625 27.89375 171.51875 28.753124Q172.75313 26.940624 174.72188 26.940624Q176.26875 26.940624 177.09688 27.8Q177.925 28.659374 177.925 30.425L177.925 37.55L176.175 37.55L176.175 31.01875Q176.175 29.95625 176.00313 29.503124Q175.83125 29.034374 175.37813 28.753124Q174.94063 28.471874 174.33125 28.471874Q173.2375 28.471874 172.50313 29.20625Q171.78438 29.925 171.78438 31.51875L171.78438 37.55L170.03438 37.55L170.03438 30.815624Q170.03438 29.64375 169.59688 29.065624Q169.175 28.471874 168.19063 28.471874Q167.45625 28.471874 166.81563 28.8625Q166.19063 29.253124 165.90938 30.003124Q165.62813 30.753124 165.62813 32.175L165.62813 37.55L163.8625 37.55ZM186.64375 36.26875Q185.65938 37.096874 184.75313 37.440624Q183.84688 37.784374 182.81563 37.784374Q181.1125 37.784374 180.19063 36.95625Q179.26875 36.1125 179.26875 34.815624Q179.26875 34.05 179.6125 33.425Q179.97188 32.8 180.53438 32.425Q181.09688 32.034374 181.8 31.83125Q182.31563 31.70625 183.3625 31.565624Q185.4875 31.315624 186.4875 30.971874Q186.50313 30.6125 186.50313 30.503124Q186.50313 29.440624 186.00313 28.9875Q185.33125 28.39375 184.00313 28.39375Q182.75313 28.39375 182.15938 28.83125Q181.58125 29.26875 181.3 30.378124L179.58125 30.14375Q179.81563 29.034374 180.34688 28.3625Q180.87813 27.675 181.89375 27.315624Q182.90938 26.940624 184.25313 26.940624Q185.58125 26.940624 186.40938 27.253124Q187.2375 27.565624 187.62813 28.05Q188.01875 28.51875 188.175 29.2375Q188.26875 29.690624 188.26875 30.8625L188.26875 33.20625Q188.26875 35.659374 188.37813 36.315624Q188.4875 36.95625 188.83125 37.55L186.9875 37.55Q186.72188 37.003124 186.64375 36.26875ZM186.4875 32.346874Q185.53438 32.7375 183.6125 33.003124Q182.53438 33.159374 182.08125 33.3625Q181.64375 33.55 181.39375 33.925Q181.14375 34.3 181.14375 34.76875Q181.14375 35.471874 181.675 35.940624Q182.20625 36.409374 183.2375 36.409374Q184.25313 36.409374 185.03438 35.971874Q185.83125 35.51875 186.20625 34.753124Q186.4875 34.14375 186.4875 32.9875L186.4875 32.346874ZM190.8625 37.55L190.8625 27.175L192.45625 27.175L192.45625 28.659374Q193.59688 26.940624 195.75313 26.940624Q196.69063 26.940624 197.47188 27.284374Q198.26875 27.6125 198.65938 28.159374Q199.05 28.70625 199.20625 29.45625Q199.3 29.95625 199.3 31.175L199.3 37.55L197.53438 37.55L197.53438 31.2375Q197.53438 30.159374 197.33125 29.628124Q197.12813 29.096874 196.59688 28.784374Q196.08125 28.471874 195.37813 28.471874Q194.25313 28.471874 193.44063 29.190624Q192.62813 29.89375 192.62813 31.878124L192.62813 37.55L190.8625 37.55ZM207.64375 33.753124L209.3625 33.971874Q209.08125 35.76875 207.90938 36.784374Q206.75313 37.784374 205.05 37.784374Q202.925 37.784374 201.62813 36.39375Q200.33125 35.003124 200.33125 32.409374Q200.33125 30.721874 200.87813 29.471874Q201.44063 28.20625 202.58125 27.58125Q203.72188 26.940624 205.06563 26.940624Q206.75313 26.940624 207.81563 27.8Q208.89375 28.659374 209.20625 30.221874L207.4875 30.4875Q207.25313 29.440624 206.62813 28.925Q206.00313 28.39375 205.12813 28.39375Q203.8 28.39375 202.97188 29.346874Q202.14375 30.3 202.14375 32.346874Q202.14375 34.440624 202.94063 35.39375Q203.7375 36.33125 205.03438 36.33125Q206.06563 36.33125 206.75313 35.70625Q207.45625 35.065624 207.64375 33.753124ZM217.97188 34.20625L219.78438 34.440624Q219.3625 36.01875 218.19063 36.909374Q217.03438 37.784374 215.22188 37.784374Q212.95625 37.784374 211.6125 36.39375Q210.28438 34.9875 210.28438 32.45625Q210.28438 29.83125 211.62813 28.39375Q212.97188 26.940624 215.12813 26.940624Q217.20625 26.940624 218.51875 28.3625Q219.84688 29.76875 219.84688 32.346874Q219.84688 32.503124 219.83125 32.815624L212.09688 32.815624Q212.19063 34.51875 213.06563 35.425Q213.94063 36.33125 215.2375 36.33125Q216.20625 36.33125 216.87813 35.83125Q217.56563 35.315624 217.97188 34.20625ZM212.19063 31.3625L217.9875 31.3625Q217.87813 30.065624 217.33125 29.409374Q216.4875 28.39375 215.14375 28.39375Q213.94063 28.39375 213.1125 29.20625Q212.28438 30.003124 212.19063 31.3625Z" fill-rule="nonzero"/></svg>