<svg version="1.1" viewBox="0.0 0.0 600.0 371.0" fill="none" stroke="none" stroke-linecap="square" stroke-miterlimit="10" width="600" height="371" xmlns:xlink="http://www.w3.org/1999/xlink" xmlns="http://www.w3.org/2000/svg"><path fill="#ffffff" d="M0 0L600.0 0L600.0 371.0L0 371.0L0 0Z" fill-rule="nonzero"/><path fill="#34a853" d="M300.0 54.916668C360.1705 54.916668 414.41623 91.1625 437.44247 146.75279C460.46872 202.3431 447.74088 266.3303 405.1939 308.87726L300.0 203.68333Z" fill-rule="nonzero"/><path fill="#ea4335" d="M194.80608 98.48942C222.70525 70.590256 260.54462 54.916668 300.0 54.916668L300.0 203.68333Z" fill-rule="nonzero"/><path fill="#fbbc04" d="M405.1939 308.87726C347.09692 366.97424 252.90308 366.97424 194.80608 308.87726C136.70909 250.78026 136.70909 156.58641 194.80608 98.48942L300.0 203.68333Z" fill-rule="nonzero"/><path fill="#000000" d="M359.75015 168.69872L360.9689 168.52684Q361.18765 169.57372 361.68765 170.04247Q362.20328 170.49559 362.93765 170.49559Q363.81265 170.49559 364.4064 169.90184Q365.00015 169.29247 365.00015 168.40184Q365.00015 167.55809 364.43765 167.01122Q363.89078 166.46434 363.04703 166.46434Q362.68765 166.46434 362.17203 166.58934L362.31265 165.51122Q362.43765 165.52684 362.50015 165.52684Q363.29703 165.52684 363.92203 165.12059Q364.54703 164.71434 364.54703 163.85497Q364.54703 163.18309 364.0939 162.74559Q363.64078 162.29247 362.9064 162.29247Q362.18765 162.29247 361.70328 162.74559Q361.23453 163.18309 361.0939 164.08934L359.87515 163.87059Q360.0939 162.63622 360.89078 161.96434Q361.68765 161.27684 362.87515 161.27684Q363.70328 161.27684 364.39078 161.63622Q365.07828 161.97997 365.43765 162.58934Q365.81265 163.19872 365.81265 163.88622Q365.81265 164.52684 365.4689 165.05809Q365.12515 165.58934 364.43765 165.91747Q365.32828 166.12059 365.81265 166.76122Q366.31265 167.40184 366.31265 168.38622Q366.31265 169.69872 365.3439 170.60497Q364.39078 171.51122 362.93765 171.51122Q361.60953 171.51122 360.73453 170.72997Q359.87515 169.94872 359.75015 168.69872ZM374.43765 174.29247Q373.4064 172.99559 372.70328 171.27684Q372.00015 169.55809 372.00015 167.71434Q372.00015 166.08934 372.5314 164.58934Q373.14078 162.85497 374.43765 161.15184L375.31265 161.15184Q374.48453 162.57372 374.2189 163.18309Q373.79703 164.12059 373.56265 165.15184Q373.26578 166.41747 373.26578 167.71434Q373.26578 171.01122 375.31265 174.29247L374.43765 174.29247ZM376.75015 168.69872L377.9689 168.52684Q378.18765 169.57372 378.68765 170.04247Q379.20328 170.49559 379.93765 170.49559Q380.81265 170.49559 381.4064 169.90184Q382.00015 169.29247 382.00015 168.40184Q382.00015 167.55809 381.43765 167.01122Q380.89078 166.46434 380.04703 166.46434Q379.68765 166.46434 379.17203 166.58934L379.31265 165.51122Q379.43765 165.52684 379.50015 165.52684Q380.29703 165.52684 380.92203 165.12059Q381.54703 164.71434 381.54703 163.85497Q381.54703 163.18309 381.0939 162.74559Q380.64078 162.29247 379.9064 162.29247Q379.18765 162.29247 378.70328 162.74559Q378.23453 163.18309 378.0939 164.08934L376.87515 163.87059Q377.0939 162.63622 377.89078 161.96434Q378.68765 161.27684 379.87515 161.27684Q380.70328 161.27684 381.39078 161.63622Q382.07828 161.97997 382.43765 162.58934Q382.81265 163.19872 382.81265 163.88622Q382.81265 164.52684 382.4689 165.05809Q382.12515 165.58934 381.43765 165.91747Q382.32828 166.12059 382.81265 166.76122Q383.31265 167.40184 383.31265 168.38622Q383.31265 169.69872 382.3439 170.60497Q381.39078 171.51122 379.93765 171.51122Q378.60953 171.51122 377.73453 170.72997Q376.87515 169.94872 376.75015 168.69872ZM384.81265 162.63622L384.81265 161.44872L391.31265 161.44872L391.31265 162.40184Q390.3439 163.41747 389.4064 165.10497Q388.4689 166.79247 387.95328 168.58934Q387.5939 169.83934 387.48453 171.33934L386.2189 171.33934Q386.23453 170.15184 386.67203 168.47997Q387.12515 166.80809 387.95328 165.26122Q388.79703 163.69872 389.73453 162.63622L384.81265 162.63622ZM393.42203 171.33934L393.42203 169.93309L394.82828 169.93309L394.82828 171.33934L393.42203 171.33934ZM396.73453 168.71434L398.0314 168.60497Q398.17203 169.54247 398.68765 170.02684Q399.2189 170.49559 399.95328 170.49559Q400.8439 170.49559 401.45328 169.82372Q402.07828 169.15184 402.07828 168.05809Q402.07828 166.99559 401.48453 166.38622Q400.89078 165.77684 399.93765 165.77684Q399.3439 165.77684 398.85953 166.05809Q398.39078 166.32372 398.10953 166.74559L396.95328 166.60497L397.92203 161.44872L402.9064 161.44872L402.9064 162.63622L398.9064 162.63622L398.37515 165.32372Q399.2814 164.69872 400.26578 164.69872Q401.57828 164.69872 402.4689 165.60497Q403.37515 166.51122 403.37515 167.94872Q403.37515 169.30809 402.5939 170.29247Q401.62515 171.51122 399.95328 171.51122Q398.5939 171.51122 397.7189 170.74559Q396.85953 169.97997 396.73453 168.71434ZM404.9689 163.72997Q404.9689 162.65184 405.50015 161.90184Q406.04703 161.15184 407.07828 161.15184Q408.01578 161.15184 408.62515 161.82372Q409.25015 162.49559 409.25015 163.79247Q409.25015 165.07372 408.62515 165.76122Q408.00015 166.44872 407.0939 166.44872Q406.18765 166.44872 405.57828 165.77684Q404.9689 165.08934 404.9689 163.72997ZM407.10953 161.99559Q406.6564 161.99559 406.3439 162.40184Q406.04703 162.79247 406.04703 163.83934Q406.04703 164.80809 406.3439 165.19872Q406.6564 165.58934 407.10953 165.58934Q407.57828 165.58934 407.87515 165.19872Q408.18765 164.80809 408.18765 163.74559Q408.18765 162.77684 407.87515 162.38622Q407.56265 161.99559 407.10953 161.99559ZM407.10953 171.71434L412.5939 161.15184L413.5939 161.15184L408.14078 171.71434L407.10953 171.71434ZM411.45328 168.97997Q411.45328 167.90184 411.98453 167.16747Q412.5314 166.41747 413.56265 166.41747Q414.50015 166.41747 415.12515 167.08934Q415.75015 167.76122 415.75015 169.05809Q415.75015 170.33934 415.12515 171.02684Q414.50015 171.71434 413.56265 171.71434Q412.6564 171.71434 412.04703 171.04247Q411.45328 170.35497 411.45328 168.97997ZM413.5939 167.26122Q413.12515 167.26122 412.82828 167.66747Q412.5314 168.05809 412.5314 169.10497Q412.5314 170.07372 412.82828 170.46434Q413.14078 170.85497 413.5939 170.85497Q414.06265 170.85497 414.35953 170.46434Q414.67203 170.07372 414.67203 169.01122Q414.67203 168.04247 414.35953 167.65184Q414.06265 167.26122 413.5939 167.26122ZM417.89078 174.29247L417.00015 174.29247Q419.04703 171.01122 419.04703 167.71434Q419.04703 166.43309 418.75015 165.16747Q418.51578 164.13622 418.10953 163.19872Q417.8439 162.58934 417.00015 161.15184L417.89078 161.15184Q419.17203 162.85497 419.7814 164.58934Q420.31265 166.08934 420.31265 167.71434Q420.31265 169.55809 419.5939 171.27684Q418.89078 172.99559 417.89078 174.29247Z" fill-rule="nonzero"/><path fill="#000000" d="M203.34448 278.8701L203.34448 276.46384L198.9851 276.46384L198.9851 275.33884L203.56323 268.85446L204.56323 268.85446L204.56323 275.33884L205.9226 275.33884L205.9226 276.46384L204.56323 276.46384L204.56323 278.8701L203.34448 278.8701ZM203.34448 275.33884L203.34448 270.8232L200.20386 275.33884L203.34448 275.33884ZM214.09448 281.8232Q213.06323 280.52634 212.3601 278.8076Q211.65698 277.08884 211.65698 275.2451Q211.65698 273.6201 212.18823 272.1201Q212.7976 270.3857 214.09448 268.6826L214.96948 268.6826Q214.14136 270.10446 213.87573 270.71384Q213.45386 271.65134 213.21948 272.6826Q212.9226 273.9482 212.9226 275.2451Q212.9226 278.54196 214.96948 281.8232L214.09448 281.8232ZM216.39136 276.2451L217.68823 276.1357Q217.82886 277.0732 218.34448 277.5576Q218.87573 278.02634 219.6101 278.02634Q220.50073 278.02634 221.1101 277.35446Q221.7351 276.6826 221.7351 275.58884Q221.7351 274.52634 221.14136 273.91696Q220.5476 273.3076 219.59448 273.3076Q219.00073 273.3076 218.51636 273.58884Q218.0476 273.85446 217.76636 274.27634L216.6101 274.1357L217.57886 268.97946L222.56323 268.97946L222.56323 270.16696L218.56323 270.16696L218.03198 272.85446Q218.93823 272.22946 219.9226 272.22946Q221.2351 272.22946 222.12573 273.1357Q223.03198 274.04196 223.03198 275.47946Q223.03198 276.83884 222.25073 277.8232Q221.28198 279.04196 219.6101 279.04196Q218.25073 279.04196 217.37573 278.27634Q216.51636 277.5107 216.39136 276.2451ZM224.39136 273.9326Q224.39136 272.15134 224.75073 271.0732Q225.12573 269.97946 225.84448 269.40134Q226.56323 268.8076 227.65698 268.8076Q228.46948 268.8076 229.07886 269.1357Q229.68823 269.46384 230.07886 270.0732Q230.4851 270.6826 230.70386 271.5576Q230.9226 272.4326 230.9226 273.9326Q230.9226 275.6982 230.56323 276.77634Q230.20386 277.85446 229.4851 278.4482Q228.76636 279.04196 227.65698 279.04196Q226.21948 279.04196 225.39136 277.9951Q224.39136 276.7451 224.39136 273.9326ZM225.65698 273.9326Q225.65698 276.40134 226.2351 277.21384Q226.81323 278.02634 227.65698 278.02634Q228.51636 278.02634 229.09448 277.21384Q229.6726 276.3857 229.6726 273.9326Q229.6726 271.4482 229.09448 270.6357Q228.51636 269.8232 227.64136 269.8232Q226.7976 269.8232 226.2976 270.54196Q225.65698 271.46384 225.65698 273.9326ZM233.07886 278.8701L233.07886 277.46384L234.4851 277.46384L234.4851 278.8701L233.07886 278.8701ZM236.39136 273.9326Q236.39136 272.15134 236.75073 271.0732Q237.12573 269.97946 237.84448 269.40134Q238.56323 268.8076 239.65698 268.8076Q240.46948 268.8076 241.07886 269.1357Q241.68823 269.46384 242.07886 270.0732Q242.4851 270.6826 242.70386 271.5576Q242.9226 272.4326 242.9226 273.9326Q242.9226 275.6982 242.56323 276.77634Q242.20386 277.85446 241.4851 278.4482Q240.76636 279.04196 239.65698 279.04196Q238.21948 279.04196 237.39136 277.9951Q236.39136 276.7451 236.39136 273.9326ZM237.65698 273.9326Q237.65698 276.40134 238.2351 277.21384Q238.81323 278.02634 239.65698 278.02634Q240.51636 278.02634 241.09448 277.21384Q241.6726 276.3857 241.6726 273.9326Q241.6726 271.4482 241.09448 270.6357Q240.51636 269.8232 239.64136 269.8232Q238.7976 269.8232 238.2976 270.54196Q237.65698 271.46384 237.65698 273.9326ZM244.62573 271.2607Q244.62573 270.1826 245.15698 269.4326Q245.70386 268.6826 246.7351 268.6826Q247.6726 268.6826 248.28198 269.35446Q248.90698 270.02634 248.90698 271.3232Q248.90698 272.60446 248.28198 273.29196Q247.65698 273.97946 246.75073 273.97946Q245.84448 273.97946 245.2351 273.3076Q244.62573 272.6201 244.62573 271.2607ZM246.76636 269.52634Q246.31323 269.52634 246.00073 269.9326Q245.70386 270.3232 245.70386 271.3701Q245.70386 272.33884 246.00073 272.72946Q246.31323 273.1201 246.76636 273.1201Q247.2351 273.1201 247.53198 272.72946Q247.84448 272.33884 247.84448 271.27634Q247.84448 270.3076 247.53198 269.91696Q247.21948 269.52634 246.76636 269.52634ZM246.76636 279.2451L252.25073 268.6826L253.25073 268.6826L247.7976 279.2451L246.76636 279.2451ZM251.1101 276.5107Q251.1101 275.4326 251.64136 274.6982Q252.18823 273.9482 253.21948 273.9482Q254.15698 273.9482 254.78198 274.6201Q255.40698 275.29196 255.40698 276.58884Q255.40698 277.8701 254.78198 278.5576Q254.15698 279.2451 253.21948 279.2451Q252.31323 279.2451 251.70386 278.5732Q251.1101 277.8857 251.1101 276.5107ZM253.25073 274.79196Q252.78198 274.79196 252.4851 275.1982Q252.18823 275.58884 252.18823 276.6357Q252.18823 277.60446 252.4851 277.9951Q252.7976 278.3857 253.25073 278.3857Q253.71948 278.3857 254.01636 277.9951Q254.32886 277.60446 254.32886 276.54196Q254.32886 275.5732 254.01636 275.1826Q253.71948 274.79196 253.25073 274.79196ZM257.5476 281.8232L256.65698 281.8232Q258.70386 278.54196 258.70386 275.2451Q258.70386 273.96384 258.40698 272.6982Q258.1726 271.66696 257.76636 270.72946Q257.50073 270.1201 256.65698 268.6826L257.5476 268.6826Q258.82886 270.3857 259.43823 272.1201Q259.96948 273.6201 259.96948 275.2451Q259.96948 277.08884 259.25073 278.8076Q258.5476 280.52634 257.5476 281.8232Z" fill-rule="nonzero"/><path fill="#000000" d="M233.56854 110.545044L232.33417 110.545044L232.33417 102.701294Q231.89667 103.12317 231.1623 103.56067Q230.44354 103.982544 229.88104 104.18567L229.88104 102.99817Q230.9123 102.513794 231.67792 101.826294Q232.45917 101.138794 232.77167 100.482544L233.56854 100.482544L233.56854 110.545044ZM243.63104 113.49817Q242.5998 112.201294 241.89667 110.482544Q241.19354 108.763794 241.19354 106.920044Q241.19354 105.295044 241.7248 103.795044Q242.33417 102.06067 243.63104 100.357544L244.50604 100.357544Q243.67792 101.77942 243.4123 102.388794Q242.99042 103.326294 242.75604 104.357544Q242.45917 105.62317 242.45917 106.920044Q242.45917 110.21692 244.50604 113.49817L243.63104 113.49817ZM250.56854 110.545044L249.33417 110.545044L249.33417 102.701294Q248.89667 103.12317 248.1623 103.56067Q247.44354 103.982544 246.88104 104.18567L246.88104 102.99817Q247.9123 102.513794 248.67792 101.826294Q249.45917 101.138794 249.77167 100.482544L250.56854 100.482544L250.56854 110.545044ZM260.39667 109.357544L260.39667 110.545044L253.77167 110.545044Q253.75604 110.107544 253.9123 109.68567Q254.17792 109.013794 254.7248 108.357544Q255.2873 107.701294 256.33417 106.84192Q257.9748 105.49817 258.5373 104.71692Q259.11542 103.93567 259.11542 103.232544Q259.11542 102.49817 258.58417 101.99817Q258.06854 101.49817 257.24042 101.49817Q256.3498 101.49817 255.80292 102.02942Q255.27167 102.56067 255.27167 103.513794L254.00604 103.37317Q254.13104 101.96692 254.9748 101.232544Q255.83417 100.482544 257.25604 100.482544Q258.70917 100.482544 259.5373 101.27942Q260.38104 102.076294 260.38104 103.263794Q260.38104 103.87317 260.13104 104.451294Q259.89667 105.02942 259.31854 105.670044Q258.75604 106.31067 257.42792 107.43567Q256.31854 108.357544 256.00604 108.701294Q255.69354 109.02942 255.49042 109.357544L260.39667 109.357544ZM262.61542 110.545044L262.61542 109.138794L264.02167 109.138794L264.02167 110.545044L262.61542 110.545044ZM265.92792 107.920044L267.2248 107.81067Q267.36542 108.74817 267.88104 109.232544Q268.4123 109.701294 269.14667 109.701294Q270.0373 109.701294 270.64667 109.02942Q271.27167 108.357544 271.27167 107.263794Q271.27167 106.201294 270.67792 105.59192Q270.08417 104.982544 269.13104 104.982544Q268.5373 104.982544 268.05292 105.263794Q267.58417 105.52942 267.30292 105.951294L266.14667 105.81067L267.11542 100.65442L272.0998 100.65442L272.0998 101.84192L268.0998 101.84192L267.56854 104.52942Q268.4748 103.90442 269.45917 103.90442Q270.77167 103.90442 271.6623 104.81067Q272.56854 105.71692 272.56854 107.15442Q272.56854 108.513794 271.7873 109.49817Q270.81854 110.71692 269.14667 110.71692Q267.7873 110.71692 266.9123 109.951294Q266.05292 109.18567 265.92792 107.920044ZM274.1623 102.93567Q274.1623 101.857544 274.69354 101.107544Q275.24042 100.357544 276.27167 100.357544Q277.20917 100.357544 277.81854 101.02942Q278.44354 101.701294 278.44354 102.99817Q278.44354 104.27942 277.81854 104.96692Q277.19354 105.65442 276.2873 105.65442Q275.38104 105.65442 274.77167 104.982544Q274.1623 104.295044 274.1623 102.93567ZM276.30292 101.201294Q275.8498 101.201294 275.5373 101.607544Q275.24042 101.99817 275.24042 103.045044Q275.24042 104.013794 275.5373 104.40442Q275.8498 104.795044 276.30292 104.795044Q276.77167 104.795044 277.06854 104.40442Q277.38104 104.013794 277.38104 102.951294Q277.38104 101.982544 277.06854 101.59192Q276.75604 101.201294 276.30292 101.201294ZM276.30292 110.920044L281.7873 100.357544L282.7873 100.357544L277.33417 110.920044L276.30292 110.920044ZM280.64667 108.18567Q280.64667 107.107544 281.17792 106.37317Q281.7248 105.62317 282.75604 105.62317Q283.69354 105.62317 284.31854 106.295044Q284.94354 106.96692 284.94354 108.263794Q284.94354 109.545044 284.31854 110.232544Q283.69354 110.920044 282.75604 110.920044Q281.8498 110.920044 281.24042 110.24817Q280.64667 109.56067 280.64667 108.18567ZM282.7873 106.46692Q282.31854 106.46692 282.02167 106.87317Q281.7248 107.263794 281.7248 108.31067Q281.7248 109.27942 282.02167 109.670044Q282.33417 110.06067 282.7873 110.06067Q283.25604 110.06067 283.55292 109.670044Q283.86542 109.27942 283.86542 108.21692Q283.86542 107.24817 283.55292 106.857544Q283.25604 106.46692 282.7873 106.46692ZM287.08417 113.49817L286.19354 113.49817Q288.24042 110.21692 288.24042 106.920044Q288.24042 105.638794 287.94354 104.37317Q287.70917 103.34192 287.30292 102.40442Q287.0373 101.795044 286.19354 100.357544L287.08417 100.357544Q288.36542 102.06067 288.9748 103.795044Q289.50604 105.295044 289.50604 106.920044Q289.50604 108.763794 288.7873 110.482544Q288.08417 112.201294 287.08417 113.49817Z" fill-rule="nonzero"/><path fill="#1a1a1a" d="M27.3 58.46354L28.815624 58.46354L28.815624 65.072914Q28.815624 66.80729 28.425 67.822914Q28.034374 68.83854 27.01875 69.479164Q26.003124 70.11979 24.346874 70.11979Q22.7375 70.11979 21.70625 69.55729Q20.690624 68.99479 20.253124 67.947914Q19.815624 66.90104 19.815624 65.072914L19.815624 58.46354L21.33125 58.46354L21.33125 65.072914Q21.33125 66.55729 21.596874 67.27604Q21.878124 67.979164 22.55 68.36979Q23.2375 68.74479 24.20625 68.74479Q25.878124 68.74479 26.58125 67.99479Q27.3 67.229164 27.3 65.072914L27.3 58.46354ZM30.6125 69.916664L30.6125 61.61979L31.878124 61.61979L31.878124 62.791664Q32.784374 61.43229 34.51875 61.43229Q35.26875 61.43229 35.89375 61.697914Q36.51875 61.96354 36.83125 62.40104Q37.14375 62.83854 37.26875 63.447914Q37.346874 63.83854 37.346874 64.80729L37.346874 69.916664L35.940624 69.916664L35.940624 64.86979Q35.940624 64.010414 35.76875 63.58854Q35.6125 63.15104 35.190624 62.90104Q34.784374 62.65104 34.221874 62.65104Q33.315624 62.65104 32.659374 63.229164Q32.01875 63.791664 32.01875 65.385414L32.01875 69.916664L30.6125 69.916664ZM43.9875 69.916664L43.9875 68.86979Q43.20625 70.104164 41.675 70.104164Q40.675 70.104164 39.846874 69.55729Q39.01875 69.010414 38.55 68.02604Q38.096874 67.041664 38.096874 65.77604Q38.096874 64.52604 38.503124 63.52604Q38.925 62.510414 39.753124 61.979164Q40.58125 61.43229 41.6125 61.43229Q42.3625 61.43229 42.940624 61.74479Q43.534374 62.05729 43.89375 62.572914L43.89375 58.46354L45.3 58.46354L45.3 69.916664L43.9875 69.916664ZM39.55 65.77604Q39.55 67.36979 40.221874 68.166664Q40.89375 68.947914 41.8 68.947914Q42.721874 68.947914 43.3625 68.197914Q44.01875 67.43229 44.01875 65.885414Q44.01875 64.18229 43.3625 63.385414Q42.70625 62.58854 41.7375 62.58854Q40.8 62.58854 40.175 63.354164Q39.55 64.11979 39.55 65.77604ZM53.284374 67.24479L54.7375 67.416664Q54.39375 68.697914 53.45625 69.40104Q52.534374 70.104164 51.096874 70.104164Q49.26875 70.104164 48.20625 68.979164Q47.14375 67.854164 47.14375 65.83854Q47.14375 63.74479 48.221874 62.58854Q49.3 61.43229 51.01875 61.43229Q52.675 61.43229 53.721874 62.572914Q54.784374 63.697914 54.784374 65.74479Q54.784374 65.86979 54.784374 66.11979L48.596874 66.11979Q48.675 67.49479 49.3625 68.229164Q50.065624 68.947914 51.096874 68.947914Q51.878124 68.947914 52.425 68.541664Q52.971874 68.135414 53.284374 67.24479ZM48.675 64.96354L53.3 64.96354Q53.20625 63.916664 52.76875 63.40104Q52.096874 62.58854 51.034374 62.58854Q50.065624 62.58854 49.39375 63.24479Q48.7375 63.885414 48.675 64.96354ZM56.596874 69.916664L56.596874 61.61979L57.8625 61.61979L57.8625 62.86979Q58.346874 61.99479 58.753124 61.71354Q59.159374 61.43229 59.659374 61.43229Q60.3625 61.43229 61.096874 61.885414L60.6125 63.18229Q60.096874 62.885414 59.58125 62.885414Q59.128124 62.885414 58.753124 63.166664Q58.39375 63.43229 58.2375 63.93229Q58.003124 64.68229 58.003124 65.572914L58.003124 69.916664L56.596874 69.916664ZM61.6125 73.104164L61.6125 61.61979L62.89375 61.61979L62.89375 62.697914Q63.346874 62.05729 63.909374 61.74479Q64.4875 61.43229 65.3 61.43229Q66.3625 61.43229 67.175 61.979164Q67.9875 62.52604 68.39375 63.52604Q68.81563 64.510414 68.81563 65.697914Q68.81563 66.979164 68.34688 67.99479Q67.89375 69.010414 67.01875 69.55729Q66.15938 70.104164 65.19063 70.104164Q64.4875 70.104164 63.925 69.80729Q63.378124 69.510414 63.01875 69.05729L63.01875 73.104164L61.6125 73.104164ZM62.878124 65.80729Q62.878124 67.416664 63.51875 68.18229Q64.175 68.947914 65.09688 68.947914Q66.03438 68.947914 66.70625 68.15104Q67.37813 67.354164 67.37813 65.697914Q67.37813 64.104164 66.72188 63.322914Q66.06563 62.52604 65.15938 62.52604Q64.26875 62.52604 63.565624 63.36979Q62.878124 64.21354 62.878124 65.80729ZM76.28438 67.24479L77.7375 67.416664Q77.39375 68.697914 76.45625 69.40104Q75.53438 70.104164 74.09688 70.104164Q72.26875 70.104164 71.20625 68.979164Q70.14375 67.854164 70.14375 65.83854Q70.14375 63.74479 71.22188 62.58854Q72.3 61.43229 74.01875 61.43229Q75.675 61.43229 76.72188 62.572914Q77.78438 63.697914 77.78438 65.74479Q77.78438 65.86979 77.78438 66.11979L71.59688 66.11979Q71.675 67.49479 72.3625 68.229164Q73.06563 68.947914 74.09688 68.947914Q74.87813 68.947914 75.425 68.541664Q75.97188 68.135414 76.28438 67.24479ZM71.675 64.96354L76.3 64.96354Q76.20625 63.916664 75.76875 63.40104Q75.09688 62.58854 74.03438 62.58854Q73.06563 62.58854 72.39375 63.24479Q71.7375 63.885414 71.675 64.96354ZM79.59688 69.916664L79.59688 61.61979L80.8625 61.61979L80.8625 62.86979Q81.34688 61.99479 81.75313 61.71354Q82.15938 61.43229 82.65938 61.43229Q83.3625 61.43229 84.09688 61.885414L83.6125 63.18229Q83.09688 62.885414 82.58125 62.885414Q82.12813 62.885414 81.75313 63.166664Q81.39375 63.43229 81.2375 63.93229Q81.00313 64.68229 81.00313 65.572914L81.00313 69.916664L79.59688 69.916664ZM84.94063 69.916664L84.94063 62.71354L83.70625 62.71354L83.70625 61.61979L84.94063 61.61979L84.94063 60.729164Q84.94063 59.90104 85.09688 59.49479Q85.3 58.947914 85.8 58.604164Q86.31563 58.260414 87.2375 58.260414Q87.83125 58.260414 88.55 58.40104L88.34688 59.635414Q87.90938 59.55729 87.51875 59.55729Q86.87813 59.55729 86.6125 59.83854Q86.34688 60.104164 86.34688 60.854164L86.34688 61.61979L87.95625 61.61979L87.95625 62.71354L86.34688 62.71354L86.34688 69.916664L84.94063 69.916664ZM88.08125 65.760414Q88.08125 63.46354 89.3625 62.354164Q90.44063 61.43229 91.97188 61.43229Q93.69063 61.43229 94.76875 62.55729Q95.8625 63.666664 95.8625 65.65104Q95.8625 67.24479 95.37813 68.166664Q94.89375 69.08854 93.97188 69.604164Q93.06563 70.104164 91.97188 70.104164Q90.2375 70.104164 89.15938 68.99479Q88.08125 67.86979 88.08125 65.760414ZM89.53438 65.760414Q89.53438 67.354164 90.22188 68.15104Q90.925 68.947914 91.97188 68.947914Q93.01875 68.947914 93.70625 68.15104Q94.40938 67.354164 94.40938 65.71354Q94.40938 64.18229 93.70625 63.385414Q93.01875 62.58854 91.97188 62.58854Q90.925 62.58854 90.22188 63.385414Q89.53438 64.166664 89.53438 65.760414ZM97.59688 69.916664L97.59688 61.61979L98.8625 61.61979L98.8625 62.86979Q99.34688 61.99479 99.75313 61.71354Q100.15938 61.43229 100.65938 61.43229Q101.3625 61.43229 102.09688 61.885414L101.6125 63.18229Q101.09688 62.885414 100.58125 62.885414Q100.12813 62.885414 99.75313 63.166664Q99.39375 63.43229 99.2375 63.93229Q99.00313 64.68229 99.00313 65.572914L99.00313 69.916664L97.59688 69.916664ZM102.6125 69.916664L102.6125 61.61979L103.8625 61.61979L103.8625 62.77604Q104.25313 62.166664 104.89375 61.80729Q105.55 61.43229 106.37813 61.43229Q107.3 61.43229 107.89375 61.822914Q108.4875 62.197914 108.72188 62.885414Q109.70625 61.43229 111.28438 61.43229Q112.51875 61.43229 113.175 62.11979Q113.84688 62.791664 113.84688 64.21354L113.84688 69.916664L112.45625 69.916664L112.45625 64.68229Q112.45625 63.83854 112.31563 63.479164Q112.175 63.104164 111.81563 62.885414Q111.45625 62.65104 110.97188 62.65104Q110.09688 62.65104 109.51875 63.229164Q108.94063 63.80729 108.94063 65.08854L108.94063 69.916664L107.53438 69.916664L107.53438 64.52604Q107.53438 63.58854 107.19063 63.11979Q106.84688 62.65104 106.06563 62.65104Q105.47188 62.65104 104.97188 62.96354Q104.47188 63.27604 104.2375 63.885414Q104.01875 64.479164 104.01875 65.604164L104.01875 69.916664L102.6125 69.916664ZM121.28438 67.24479L122.7375 67.416664Q122.39375 68.697914 121.45625 69.40104Q120.53438 70.104164 119.09688 70.104164Q117.26875 70.104164 116.20625 68.979164Q115.14375 67.854164 115.14375 65.83854Q115.14375 63.74479 116.22188 62.58854Q117.3 61.43229 119.01875 61.43229Q120.675 61.43229 121.72188 62.572914Q122.78438 63.697914 122.78438 65.74479Q122.78438 65.86979 122.78438 66.11979L116.59688 66.11979Q116.675 67.49479 117.3625 68.229164Q118.06563 68.947914 119.09688 68.947914Q119.87813 68.947914 120.425 68.541664Q120.97188 68.135414 121.28438 67.24479ZM116.675 64.96354L121.3 64.96354Q121.20625 63.916664 120.76875 63.40104Q120.09688 62.58854 119.03438 62.58854Q118.06563 62.58854 117.39375 63.24479Q116.7375 63.885414 116.675 64.96354ZM129.9875 69.916664L129.9875 68.86979Q129.20625 70.104164 127.675 70.104164Q126.675 70.104164 125.84688 69.55729Q125.01875 69.010414 124.55 68.02604Q124.09688 67.041664 124.09688 65.77604Q124.09688 64.52604 124.50313 63.52604Q124.925 62.510414 125.75313 61.979164Q126.58125 61.43229 127.6125 61.43229Q128.3625 61.43229 128.94063 61.74479Q129.53438 62.05729 129.89375 62.572914L129.89375 58.46354L131.3 58.46354L131.3 69.916664L129.9875 69.916664ZM125.55 65.77604Q125.55 67.36979 126.22188 68.166664Q126.89375 68.947914 127.8 68.947914Q128.72188 68.947914 129.3625 68.197914Q130.01875 67.43229 130.01875 65.885414Q130.01875 64.18229 129.3625 63.385414Q128.70625 62.58854 127.7375 62.58854Q126.8 62.58854 126.175 63.354164Q125.55 64.11979 125.55 65.77604Z" fill-rule="nonzero"/><path fill="#9e9e9e" d="M24.51875 91.916664L23.1125 91.916664L23.1125 82.947914Q22.596874 83.43229 21.76875 83.916664Q20.95625 84.40104 20.3 84.65104L20.3 83.291664Q21.471874 82.729164 22.346874 81.947914Q23.2375 81.15104 23.6125 80.416664L24.51875 80.416664L24.51875 91.916664ZM35.6125 90.55729L35.6125 91.916664L28.034374 91.916664Q28.01875 91.40104 28.20625 90.93229Q28.4875 90.166664 29.128124 89.416664Q29.76875 88.666664 30.971874 87.68229Q32.83125 86.15104 33.4875 85.260414Q34.14375 84.354164 34.14375 83.55729Q34.14375 82.729164 33.55 82.15104Q32.95625 81.572914 31.9875 81.572914Q30.971874 81.572914 30.3625 82.18229Q29.753124 82.791664 29.753124 83.86979L28.3 83.729164Q28.45625 82.104164 29.425 81.260414Q30.39375 80.416664 32.01875 80.416664Q33.675 80.416664 34.628124 81.33854Q35.596874 82.24479 35.596874 83.58854Q35.596874 84.27604 35.315624 84.947914Q35.034374 85.604164 34.378124 86.33854Q33.721874 87.072914 32.20625 88.354164Q30.940624 89.416664 30.58125 89.80729Q30.221874 90.18229 29.9875 90.55729L35.6125 90.55729ZM38.003124 91.916664L38.003124 90.30729L39.6125 90.30729L39.6125 91.916664L38.003124 91.916664ZM41.221874 88.916664L42.690624 88.791664Q42.8625 89.86979 43.45625 90.416664Q44.05 90.947914 44.89375 90.947914Q45.909374 90.947914 46.6125 90.18229Q47.315624 89.416664 47.315624 88.15104Q47.315624 86.947914 46.64375 86.260414Q45.971874 85.55729 44.878124 85.55729Q44.190624 85.55729 43.64375 85.86979Q43.096874 86.18229 42.784374 86.666664L41.471874 86.49479L42.58125 80.61979L48.26875 80.61979L48.26875 81.96354L43.70625 81.96354L43.08125 85.041664Q44.1125 84.322914 45.253124 84.322914Q46.753124 84.322914 47.784374 85.36979Q48.815624 86.40104 48.815624 88.02604Q48.815624 89.58854 47.909374 90.71354Q46.8 92.11979 44.89375 92.11979Q43.33125 92.11979 42.346874 91.24479Q41.3625 90.354164 41.221874 88.916664ZM50.4875 83.21354Q50.4875 81.979164 51.096874 81.11979Q51.721874 80.260414 52.89375 80.260414Q53.971874 80.260414 54.675 81.041664Q55.378124 81.80729 55.378124 83.291664Q55.378124 84.74479 54.659374 85.541664Q53.95625 86.322914 52.909374 86.322914Q51.8625 86.322914 51.175 85.55729Q50.4875 84.77604 50.4875 83.21354ZM52.925 81.229164Q52.409374 81.229164 52.05 81.68229Q51.70625 82.135414 51.70625 83.354164Q51.70625 84.447914 52.05 84.90104Q52.409374 85.354164 52.925 85.354164Q53.45625 85.354164 53.8 84.90104Q54.159374 84.447914 54.159374 83.24479Q54.159374 82.135414 53.8 81.68229Q53.45625 81.229164 52.925 81.229164ZM52.940624 92.33854L59.20625 80.260414L60.346874 80.260414L54.096874 92.33854L52.940624 92.33854ZM57.89375 89.229164Q57.89375 87.99479 58.503124 87.135414Q59.128124 86.27604 60.3 86.27604Q61.378124 86.27604 62.08125 87.05729Q62.8 87.822914 62.8 89.30729Q62.8 90.760414 62.08125 91.55729Q61.3625 92.33854 60.315624 92.33854Q59.26875 92.33854 58.58125 91.55729Q57.89375 90.77604 57.89375 89.229164ZM60.346874 87.24479Q59.815624 87.24479 59.45625 87.697914Q59.1125 88.15104 59.1125 89.36979Q59.1125 90.46354 59.45625 90.916664Q59.815624 91.36979 60.33125 91.36979Q60.878124 91.36979 61.221874 90.916664Q61.565624 90.46354 61.565624 89.260414Q61.565624 88.15104 61.20625 87.697914Q60.8625 87.24479 60.346874 87.24479Z" fill-rule="nonzero"/><path stroke="#757575" stroke-width="1.0" stroke-linecap="butt" d="M18.55 75.416664L145.23334 75.416664L245.91599 73.112976" fill-rule="nonzero"/><path fill="#9e9e9e" d="M247.91599 73.112976C247.91599 72.00841 247.02055 71.112976 245.91599 71.112976C244.81142 71.112976 243.91599 72.00841 243.91599 73.112976C243.91599 74.217545 244.81142 75.112976 245.91599 75.112976C247.02055 75.112976 247.91599 74.217545 247.91599 73.112976" fill-rule="nonzero"/><path fill="#1a1a1a" d="M19.26875 294.43005L20.70625 294.30505Q20.8 295.16443 21.175 295.72693Q21.55 296.2738 22.33125 296.61755Q23.1125 296.94568 24.08125 296.94568Q24.95625 296.94568 25.6125 296.69568Q26.284374 296.43005 26.596874 295.99255Q26.925 295.53943 26.925 295.00818Q26.925 294.4613 26.6125 294.07068Q26.3 293.66443 25.58125 293.38318Q25.128124 293.2113 23.55 292.8363Q21.971874 292.44568 21.33125 292.11755Q20.51875 291.68005 20.1125 291.05505Q19.70625 290.41443 19.70625 289.61755Q19.70625 288.75818 20.190624 288.00818Q20.690624 287.24255 21.628124 286.85193Q22.58125 286.4613 23.7375 286.4613Q25.01875 286.4613 25.9875 286.88318Q26.95625 287.28943 27.471874 288.0863Q28.003124 288.88318 28.05 289.88318L26.596874 289.99255Q26.471874 288.91443 25.8 288.36755Q25.128124 287.80505 23.8 287.80505Q22.425 287.80505 21.8 288.30505Q21.175 288.80505 21.175 289.5238Q21.175 290.13318 21.6125 290.53943Q22.05 290.93005 23.89375 291.35193Q25.753124 291.7738 26.440624 292.0863Q27.440624 292.53943 27.909374 293.25818Q28.39375 293.9613 28.39375 294.88318Q28.39375 295.78943 27.8625 296.60193Q27.346874 297.41443 26.3625 297.86755Q25.378124 298.32068 24.159374 298.32068Q22.596874 298.32068 21.55 297.86755Q20.503124 297.3988 19.89375 296.49255Q19.3 295.5863 19.26875 294.43005ZM36.01875 297.0863Q35.2375 297.75818 34.51875 298.03943Q33.8 298.30505 32.971874 298.30505Q31.596874 298.30505 30.8625 297.63318Q30.128124 296.9613 30.128124 295.93005Q30.128124 295.32068 30.409374 294.82068Q30.690624 294.30505 31.128124 294.00818Q31.58125 293.69568 32.14375 293.53943Q32.565624 293.43005 33.39375 293.3363Q35.096874 293.13318 35.909374 292.85193Q35.909374 292.55505 35.909374 292.47693Q35.909374 291.61755 35.51875 291.2738Q34.971874 290.78943 33.909374 290.78943Q32.925 290.78943 32.440624 291.1488Q31.971874 291.49255 31.753124 292.36755L30.378124 292.18005Q30.565624 291.30505 30.9875 290.75818Q31.425 290.2113 32.2375 289.93005Q33.05 289.63318 34.1125 289.63318Q35.175 289.63318 35.83125 289.88318Q36.503124 290.13318 36.815624 290.50818Q37.128124 290.88318 37.253124 291.4613Q37.33125 291.82068 37.33125 292.75818L37.33125 294.63318Q37.33125 296.60193 37.409374 297.11755Q37.503124 297.63318 37.76875 298.11755L36.3 298.11755Q36.08125 297.68005 36.01875 297.0863ZM35.909374 293.94568Q35.14375 294.25818 33.6125 294.47693Q32.7375 294.60193 32.378124 294.75818Q32.01875 294.91443 31.815624 295.22693Q31.628124 295.5238 31.628124 295.88318Q31.628124 296.44568 32.05 296.82068Q32.4875 297.19568 33.3 297.19568Q34.1125 297.19568 34.7375 296.85193Q35.378124 296.49255 35.675 295.86755Q35.909374 295.3988 35.909374 294.4613L35.909374 293.94568ZM42.675 296.85193L42.878124 298.10193Q42.284374 298.22693 41.815624 298.22693Q41.05 298.22693 40.628124 297.99255Q40.20625 297.74255 40.034374 297.35193Q39.8625 296.94568 39.8625 295.68005L39.8625 290.91443L38.83125 290.91443L38.83125 289.82068L39.8625 289.82068L39.8625 287.75818L41.26875 286.91443L41.26875 289.82068L42.675 289.82068L42.675 290.91443L41.26875 290.91443L41.26875 295.75818Q41.26875 296.36755 41.33125 296.53943Q41.409374 296.7113 41.58125 296.82068Q41.753124 296.91443 42.065624 296.91443Q42.3 296.91443 42.675 296.85193ZM43.6125 288.2738L43.6125 286.66443L45.01875 286.66443L45.01875 288.2738L43.6125 288.2738ZM43.6125 298.11755L43.6125 289.82068L45.01875 289.82068L45.01875 298.11755L43.6125 298.11755ZM47.05 295.63318L48.440624 295.41443Q48.55 296.25818 49.08125 296.7113Q49.628124 297.1488 50.58125 297.1488Q51.55 297.1488 52.01875 296.75818Q52.4875 296.35193 52.4875 295.82068Q52.4875 295.35193 52.08125 295.07068Q51.784374 294.88318 50.64375 294.60193Q49.096874 294.2113 48.4875 293.93005Q47.89375 293.63318 47.58125 293.13318Q47.284374 292.63318 47.284374 292.0238Q47.284374 291.4613 47.534374 290.99255Q47.784374 290.5238 48.221874 290.2113Q48.55 289.9613 49.1125 289.80505Q49.690624 289.63318 50.33125 289.63318Q51.315624 289.63318 52.05 289.91443Q52.784374 290.19568 53.128124 290.68005Q53.4875 291.1488 53.628124 291.9613L52.253124 292.1488Q52.159374 291.50818 51.70625 291.1488Q51.253124 290.78943 50.440624 290.78943Q49.471874 290.78943 49.05 291.11755Q48.64375 291.43005 48.64375 291.85193Q48.64375 292.13318 48.815624 292.35193Q48.9875 292.57068 49.346874 292.72693Q49.565624 292.80505 50.596874 293.0863Q52.08125 293.47693 52.675 293.74255Q53.26875 293.99255 53.596874 294.47693Q53.940624 294.9613 53.940624 295.68005Q53.940624 296.38318 53.51875 297.00818Q53.1125 297.61755 52.33125 297.9613Q51.565624 298.30505 50.596874 298.30505Q48.971874 298.30505 48.128124 297.63318Q47.284374 296.9613 47.05 295.63318ZM55.940624 298.11755L55.940624 290.91443L54.70625 290.91443L54.70625 289.82068L55.940624 289.82068L55.940624 288.93005Q55.940624 288.10193 56.096874 287.69568Q56.3 287.1488 56.8 286.80505Q57.315624 286.4613 58.2375 286.4613Q58.83125 286.4613 59.55 286.60193L59.346874 287.8363Q58.909374 287.75818 58.51875 287.75818Q57.878124 287.75818 57.6125 288.03943Q57.346874 288.30505 57.346874 289.05505L57.346874 289.82068L58.95625 289.82068L58.95625 290.91443L57.346874 290.91443L57.346874 298.11755L55.940624 298.11755ZM65.01875 297.0863Q64.2375 297.75818 63.51875 298.03943Q62.8 298.30505 61.971874 298.30505Q60.596874 298.30505 59.8625 297.63318Q59.128124 296.9613 59.128124 295.93005Q59.128124 295.32068 59.409374 294.82068Q59.690624 294.30505 60.128124 294.00818Q60.58125 293.69568 61.14375 293.53943Q61.565624 293.43005 62.39375 293.3363Q64.09688 293.13318 64.90938 292.85193Q64.90938 292.55505 64.90938 292.47693Q64.90938 291.61755 64.51875 291.2738Q63.971874 290.78943 62.909374 290.78943Q61.925 290.78943 61.440624 291.1488Q60.971874 291.49255 60.753124 292.36755L59.378124 292.18005Q59.565624 291.30505 59.9875 290.75818Q60.425 290.2113 61.2375 289.93005Q62.05 289.63318 63.1125 289.63318Q64.175 289.63318 64.83125 289.88318Q65.50313 290.13318 65.81563 290.50818Q66.12813 290.88318 66.25313 291.4613Q66.33125 291.82068 66.33125 292.75818L66.33125 294.63318Q66.33125 296.60193 66.40938 297.11755Q66.50313 297.63318 66.76875 298.11755L65.3 298.11755Q65.08125 297.68005 65.01875 297.0863ZM64.90938 293.94568Q64.14375 294.25818 62.6125 294.47693Q61.7375 294.60193 61.378124 294.75818Q61.01875 294.91443 60.815624 295.22693Q60.628124 295.5238 60.628124 295.88318Q60.628124 296.44568 61.05 296.82068Q61.4875 297.19568 62.3 297.19568Q63.1125 297.19568 63.7375 296.85193Q64.37813 296.49255 64.675 295.86755Q64.90938 295.3988 64.90938 294.4613L64.90938 293.94568ZM74.01875 295.07068L75.40938 295.25818Q75.175 296.68005 74.2375 297.49255Q73.31563 298.30505 71.95625 298.30505Q70.25313 298.30505 69.20625 297.19568Q68.175 296.07068 68.175 293.99255Q68.175 292.6488 68.6125 291.6488Q69.06563 290.63318 69.97188 290.13318Q70.89375 289.63318 71.95625 289.63318Q73.31563 289.63318 74.175 290.32068Q75.03438 290.99255 75.26875 292.25818L73.90938 292.4613Q73.70625 291.63318 73.20625 291.2113Q72.72188 290.78943 72.01875 290.78943Q70.95625 290.78943 70.28438 291.55505Q69.62813 292.30505 69.62813 293.9613Q69.62813 295.63318 70.26875 296.3988Q70.90938 297.1488 71.94063 297.1488Q72.76875 297.1488 73.31563 296.6488Q73.87813 296.13318 74.01875 295.07068ZM79.675 296.85193L79.87813 298.10193Q79.28438 298.22693 78.81563 298.22693Q78.05 298.22693 77.62813 297.99255Q77.20625 297.74255 77.03438 297.35193Q76.8625 296.94568 76.8625 295.68005L76.8625 290.91443L75.83125 290.91443L75.83125 289.82068L76.8625 289.82068L76.8625 287.75818L78.26875 286.91443L78.26875 289.82068L79.675 289.82068L79.675 290.91443L78.26875 290.91443L78.26875 295.75818Q78.26875 296.36755 78.33125 296.53943Q78.40938 296.7113 78.58125 296.82068Q78.75313 296.91443 79.06563 296.91443Q79.3 296.91443 79.675 296.85193ZM80.08125 293.9613Q80.08125 291.66443 81.3625 290.55505Q82.44063 289.63318 83.97188 289.63318Q85.69063 289.63318 86.76875 290.75818Q87.8625 291.86755 87.8625 293.85193Q87.8625 295.44568 87.37813 296.36755Q86.89375 297.28943 85.97188 297.80505Q85.06563 298.30505 83.97188 298.30505Q82.2375 298.30505 81.15938 297.19568Q80.08125 296.07068 80.08125 293.9613ZM81.53438 293.9613Q81.53438 295.55505 82.22188 296.35193Q82.925 297.1488 83.97188 297.1488Q85.01875 297.1488 85.70625 296.35193Q86.40938 295.55505 86.40938 293.91443Q86.40938 292.38318 85.70625 291.5863Q85.01875 290.78943 83.97188 290.78943Q82.925 290.78943 82.22188 291.5863Q81.53438 292.36755 81.53438 293.9613ZM89.59688 298.11755L89.59688 289.82068L90.8625 289.82068L90.8625 291.07068Q91.34688 290.19568 91.75313 289.91443Q92.15938 289.63318 92.65938 289.63318Q93.3625 289.63318 94.09688 290.0863L93.6125 291.38318Q93.09688 291.0863 92.58125 291.0863Q92.12813 291.0863 91.75313 291.36755Q91.39375 291.63318 91.2375 292.13318Q91.00313 292.88318 91.00313 293.7738L91.00313 298.11755L89.59688 298.11755ZM94.55 301.32068L94.39375 299.99255Q94.84688 300.11755 95.19063 300.11755Q95.65938 300.11755 95.94063 299.9613Q96.22188 299.80505 96.40938 299.5238Q96.53438 299.32068 96.83125 298.47693Q96.87813 298.36755 96.95625 298.13318L93.81563 289.82068L95.33125 289.82068L97.05 294.61755Q97.39375 295.53943 97.65938 296.53943Q97.89375 295.57068 98.2375 294.6488L100.00313 289.82068L101.40938 289.82068L98.25313 298.25818Q97.75313 299.63318 97.47188 300.1488Q97.09688 300.8363 96.6125 301.16443Q96.12813 301.49255 95.45625 301.49255Q95.05 301.49255 94.55 301.32068Z" fill-rule="nonzero"/><path fill="#9e9e9e" d="M19.221874 317.11755L20.690624 316.99255Q20.8625 318.07068 21.45625 318.61755Q22.05 319.1488 22.89375 319.1488Q23.909374 319.1488 24.6125 318.38318Q25.315624 317.61755 25.315624 316.35193Q25.315624 315.1488 24.64375 314.4613Q23.971874 313.75818 22.878124 313.75818Q22.190624 313.75818 21.64375 314.07068Q21.096874 314.38318 20.784374 314.86755L19.471874 314.69568L20.58125 308.82068L26.26875 308.82068L26.26875 310.16443L21.70625 310.16443L21.08125 313.24255Q22.1125 312.5238 23.253124 312.5238Q24.753124 312.5238 25.784374 313.57068Q26.815624 314.60193 26.815624 316.22693Q26.815624 317.78943 25.909374 318.91443Q24.8 320.32068 22.89375 320.32068Q21.33125 320.32068 20.346874 319.44568Q19.3625 318.55505 19.221874 317.11755ZM28.221874 314.4613Q28.221874 312.43005 28.628124 311.19568Q29.05 309.9613 29.878124 309.28943Q30.70625 308.61755 31.95625 308.61755Q32.878124 308.61755 33.565624 308.99255Q34.26875 309.35193 34.721874 310.05505Q35.175 310.75818 35.425 311.75818Q35.690624 312.75818 35.690624 314.4613Q35.690624 316.47693 35.26875 317.72693Q34.8625 318.9613 34.034374 319.6488Q33.20625 320.32068 31.95625 320.32068Q30.3 320.32068 29.346874 319.11755Q28.221874 317.69568 28.221874 314.4613ZM29.659374 314.4613Q29.659374 317.28943 30.315624 318.22693Q30.9875 319.1488 31.95625 319.1488Q32.925 319.1488 33.58125 318.2113Q34.2375 317.2738 34.2375 314.4613Q34.2375 311.63318 33.58125 310.7113Q32.925 309.7738 31.940624 309.7738Q30.971874 309.7738 30.39375 310.60193Q29.659374 311.6488 29.659374 314.4613ZM38.003124 320.11755L38.003124 318.50818L39.6125 318.50818L39.6125 320.11755L38.003124 320.11755ZM41.221874 314.4613Q41.221874 312.43005 41.628124 311.19568Q42.05 309.9613 42.878124 309.28943Q43.70625 308.61755 44.95625 308.61755Q45.878124 308.61755 46.565624 308.99255Q47.26875 309.35193 47.721874 310.05505Q48.175 310.75818 48.425 311.75818Q48.690624 312.75818 48.690624 314.4613Q48.690624 316.47693 48.26875 317.72693Q47.8625 318.9613 47.034374 319.6488Q46.20625 320.32068 44.95625 320.32068Q43.3 320.32068 42.346874 319.11755Q41.221874 317.69568 41.221874 314.4613ZM42.659374 314.4613Q42.659374 317.28943 43.315624 318.22693Q43.9875 319.1488 44.95625 319.1488Q45.925 319.1488 46.58125 318.2113Q47.2375 317.2738 47.2375 314.4613Q47.2375 311.63318 46.58125 310.7113Q45.925 309.7738 44.940624 309.7738Q43.971874 309.7738 43.39375 310.60193Q42.659374 311.6488 42.659374 314.4613ZM50.4875 311.41443Q50.4875 310.18005 51.096874 309.32068Q51.721874 308.4613 52.89375 308.4613Q53.971874 308.4613 54.675 309.24255Q55.378124 310.00818 55.378124 311.49255Q55.378124 312.94568 54.659374 313.74255Q53.95625 314.5238 52.909374 314.5238Q51.8625 314.5238 51.175 313.75818Q50.4875 312.97693 50.4875 311.41443ZM52.925 309.43005Q52.409374 309.43005 52.05 309.88318Q51.70625 310.3363 51.70625 311.55505Q51.70625 312.6488 52.05 313.10193Q52.409374 313.55505 52.925 313.55505Q53.45625 313.55505 53.8 313.10193Q54.159374 312.6488 54.159374 311.44568Q54.159374 310.3363 53.8 309.88318Q53.45625 309.43005 52.925 309.43005ZM52.940624 320.53943L59.20625 308.4613L60.346874 308.4613L54.096874 320.53943L52.940624 320.53943ZM57.89375 317.43005Q57.89375 316.19568 58.503124 315.3363Q59.128124 314.47693 60.3 314.47693Q61.378124 314.47693 62.08125 315.25818Q62.8 316.0238 62.8 317.50818Q62.8 318.9613 62.08125 319.75818Q61.3625 320.53943 60.315624 320.53943Q59.26875 320.53943 58.58125 319.75818Q57.89375 318.97693 57.89375 317.43005ZM60.346874 315.44568Q59.815624 315.44568 59.45625 315.8988Q59.1125 316.35193 59.1125 317.57068Q59.1125 318.66443 59.45625 319.11755Q59.815624 319.57068 60.33125 319.57068Q60.878124 319.57068 61.221874 319.11755Q61.565624 318.66443 61.565624 317.4613Q61.565624 316.35193 61.20625 315.8988Q60.8625 315.44568 60.346874 315.44568Z" fill-rule="nonzero"/><path stroke="#757575" stroke-width="1.0" stroke-linecap="butt" d="M18.55 303.61755L145.23334 303.61755L200.06578 303.61755" fill-rule="nonzero"/><path fill="#9e9e9e" d="M202.06578 303.61755C202.06578 302.513 201.17035 301.61755 200.06578 301.61755C198.96121 301.61755 198.06578 302.513 198.06578 303.61755C198.06578 304.72214 198.96121 305.61755 200.06578 305.61755C201.17035 305.61755 202.06578 304.72214 202.06578 303.61755" fill-rule="nonzero"/><path fill="#1a1a1a" d="M477.23126 138.5212Q477.23126 135.66182 478.7625 134.05244Q480.29376 132.44307 482.71564 132.44307Q484.29376 132.44307 485.5594 133.2087Q486.84064 133.9587 487.5125 135.31807Q488.1844 136.66182 488.1844 138.38057Q488.1844 140.13057 487.48126 141.50557Q486.77814 142.88057 485.48126 143.59932Q484.2 144.30244 482.7 144.30244Q481.09064 144.30244 479.8094 143.5212Q478.54376 142.72432 477.8875 141.38057Q477.23126 140.0212 477.23126 138.5212ZM478.79376 138.53682Q478.79376 140.61494 479.90314 141.80244Q481.0125 142.98994 482.7 142.98994Q484.40314 142.98994 485.5125 141.78682Q486.6219 140.5837 486.6219 138.38057Q486.6219 136.97432 486.1375 135.94307Q485.66876 134.8962 484.7625 134.31807Q483.85626 133.73994 482.71564 133.73994Q481.10626 133.73994 479.95 134.84932Q478.79376 135.9587 478.79376 138.53682ZM491.8094 144.09932L488.65314 135.80244L490.1375 135.80244L491.91876 140.7712Q492.21564 141.56807 492.45 142.44307Q492.6375 141.78682 492.98126 140.86494L494.825 135.80244L496.2625 135.80244L493.1219 144.09932L491.8094 144.09932ZM502.1844 141.42744L503.6375 141.59932Q503.29376 142.88057 502.35626 143.5837Q501.4344 144.28682 499.9969 144.28682Q498.16876 144.28682 497.10626 143.16182Q496.04376 142.03682 496.04376 140.0212Q496.04376 137.92744 497.1219 136.7712Q498.2 135.61494 499.91876 135.61494Q501.575 135.61494 502.6219 136.75557Q503.6844 137.88057 503.6844 139.92744Q503.6844 140.05244 503.6844 140.30244L497.4969 140.30244Q497.575 141.67744 498.2625 142.41182Q498.96564 143.13057 499.9969 143.13057Q500.77814 143.13057 501.325 142.72432Q501.8719 142.31807 502.1844 141.42744ZM497.575 139.1462L502.2 139.1462Q502.10626 138.09932 501.66876 137.5837Q500.9969 136.7712 499.9344 136.7712Q498.96564 136.7712 498.29376 137.42744Q497.6375 138.06807 497.575 139.1462ZM505.4969 144.09932L505.4969 135.80244L506.7625 135.80244L506.7625 137.05244Q507.2469 136.17744 507.65314 135.8962Q508.0594 135.61494 508.5594 135.61494Q509.2625 135.61494 509.9969 136.06807L509.5125 137.36494Q508.9969 137.06807 508.48126 137.06807Q508.02814 137.06807 507.65314 137.34932Q507.29376 137.61494 507.1375 138.11494Q506.90314 138.86494 506.90314 139.75557L506.90314 144.09932L505.4969 144.09932ZM510.5125 147.28682L510.5125 135.80244L511.79376 135.80244L511.79376 136.88057Q512.2469 136.23994 512.8094 135.92744Q513.3875 135.61494 514.2 135.61494Q515.2625 135.61494 516.075 136.16182Q516.8875 136.7087 517.29376 137.7087Q517.71564 138.69307 517.71564 139.88057Q517.71564 141.16182 517.2469 142.17744Q516.79376 143.19307 515.91876 143.73994Q515.0594 144.28682 514.09064 144.28682Q513.3875 144.28682 512.825 143.98994Q512.27814 143.69307 511.91876 143.23994L511.91876 147.28682L510.5125 147.28682ZM511.77814 139.98994Q511.77814 141.59932 512.41876 142.36494Q513.075 143.13057 513.9969 143.13057Q514.9344 143.13057 515.60626 142.3337Q516.27814 141.53682 516.27814 139.88057Q516.27814 138.28682 515.6219 137.50557Q514.96564 136.7087 514.0594 136.7087Q513.16876 136.7087 512.46564 137.55244Q511.77814 138.3962 511.77814 139.98994ZM525.1844 141.42744L526.6375 141.59932Q526.29376 142.88057 525.35626 143.5837Q524.4344 144.28682 522.9969 144.28682Q521.16876 144.28682 520.10626 143.16182Q519.04376 142.03682 519.04376 140.0212Q519.04376 137.92744 520.1219 136.7712Q521.2 135.61494 522.91876 135.61494Q524.575 135.61494 525.6219 136.75557Q526.6844 137.88057 526.6844 139.92744Q526.6844 140.05244 526.6844 140.30244L520.4969 140.30244Q520.575 141.67744 521.2625 142.41182Q521.96564 143.13057 522.9969 143.13057Q523.77814 143.13057 524.325 142.72432Q524.8719 142.31807 525.1844 141.42744ZM520.575 139.1462L525.2 139.1462Q525.10626 138.09932 524.66876 137.5837Q523.9969 136.7712 522.9344 136.7712Q521.96564 136.7712 521.29376 137.42744Q520.6375 138.06807 520.575 139.1462ZM528.4969 144.09932L528.4969 135.80244L529.7625 135.80244L529.7625 137.05244Q530.2469 136.17744 530.65314 135.8962Q531.0594 135.61494 531.5594 135.61494Q532.2625 135.61494 532.9969 136.06807L532.5125 137.36494Q531.9969 137.06807 531.48126 137.06807Q531.02814 137.06807 530.65314 137.34932Q530.29376 137.61494 530.1375 138.11494Q529.90314 138.86494 529.90314 139.75557L529.90314 144.09932L528.4969 144.09932ZM533.84064 144.09932L533.84064 136.8962L532.60626 136.8962L532.60626 135.80244L533.84064 135.80244L533.84064 134.91182Q533.84064 134.0837 533.9969 133.67744Q534.2 133.13057 534.7 132.78682Q535.21564 132.44307 536.1375 132.44307Q536.73126 132.44307 537.45 132.5837L537.2469 133.81807Q536.8094 133.73994 536.41876 133.73994Q535.77814 133.73994 535.5125 134.0212Q535.2469 134.28682 535.2469 135.03682L535.2469 135.80244L536.85626 135.80244L536.85626 136.8962L535.2469 136.8962L535.2469 144.09932L533.84064 144.09932ZM536.98126 139.94307Q536.98126 137.6462 538.2625 136.53682Q539.34064 135.61494 540.8719 135.61494Q542.59064 135.61494 543.66876 136.73994Q544.7625 137.84932 544.7625 139.8337Q544.7625 141.42744 544.27814 142.34932Q543.79376 143.2712 542.8719 143.78682Q541.96564 144.28682 540.8719 144.28682Q539.1375 144.28682 538.0594 143.17744Q536.98126 142.05244 536.98126 139.94307ZM538.4344 139.94307Q538.4344 141.53682 539.1219 142.3337Q539.825 143.13057 540.8719 143.13057Q541.91876 143.13057 542.60626 142.3337Q543.3094 141.53682 543.3094 139.8962Q543.3094 138.36494 542.60626 137.56807Q541.91876 136.7712 540.8719 136.7712Q539.825 136.7712 539.1219 137.56807Q538.4344 138.34932 538.4344 139.94307ZM546.4969 144.09932L546.4969 135.80244L547.7625 135.80244L547.7625 137.05244Q548.2469 136.17744 548.65314 135.8962Q549.0594 135.61494 549.5594 135.61494Q550.2625 135.61494 550.9969 136.06807L550.5125 137.36494Q549.9969 137.06807 549.48126 137.06807Q549.02814 137.06807 548.65314 137.34932Q548.29376 137.61494 548.1375 138.11494Q547.90314 138.86494 547.90314 139.75557L547.90314 144.09932L546.4969 144.09932ZM551.5125 144.09932L551.5125 135.80244L552.7625 135.80244L552.7625 136.9587Q553.15314 136.34932 553.79376 135.98994Q554.45 135.61494 555.27814 135.61494Q556.2 135.61494 556.79376 136.00557Q557.3875 136.38057 557.6219 137.06807Q558.60626 135.61494 560.1844 135.61494Q561.41876 135.61494 562.075 136.30244Q562.7469 136.97432 562.7469 138.3962L562.7469 144.09932L561.35626 144.09932L561.35626 138.86494Q561.35626 138.0212 561.21564 137.66182Q561.075 137.28682 560.71564 137.06807Q560.35626 136.8337 559.8719 136.8337Q558.9969 136.8337 558.41876 137.41182Q557.84064 137.98994 557.84064 139.2712L557.84064 144.09932L556.4344 144.09932L556.4344 138.7087Q556.4344 137.7712 556.09064 137.30244Q555.7469 136.8337 554.96564 136.8337Q554.3719 136.8337 553.8719 137.1462Q553.3719 137.4587 553.1375 138.06807Q552.91876 138.66182 552.91876 139.78682L552.91876 144.09932L551.5125 144.09932ZM570.1844 141.42744L571.6375 141.59932Q571.29376 142.88057 570.35626 143.5837Q569.4344 144.28682 567.9969 144.28682Q566.16876 144.28682 565.10626 143.16182Q564.04376 142.03682 564.04376 140.0212Q564.04376 137.92744 565.1219 136.7712Q566.2 135.61494 567.91876 135.61494Q569.575 135.61494 570.6219 136.75557Q571.6844 137.88057 571.6844 139.92744Q571.6844 140.05244 571.6844 140.30244L565.4969 140.30244Q565.575 141.67744 566.2625 142.41182Q566.96564 143.13057 567.9969 143.13057Q568.77814 143.13057 569.325 142.72432Q569.8719 142.31807 570.1844 141.42744ZM565.575 139.1462L570.2 139.1462Q570.10626 138.09932 569.66876 137.5837Q568.9969 136.7712 567.9344 136.7712Q566.96564 136.7712 566.29376 137.42744Q565.6375 138.06807 565.575 139.1462ZM578.8875 144.09932L578.8875 143.05244Q578.10626 144.28682 576.575 144.28682Q575.575 144.28682 574.7469 143.73994Q573.91876 143.19307 573.45 142.2087Q572.9969 141.22432 572.9969 139.9587Q572.9969 138.7087 573.40314 137.7087Q573.825 136.69307 574.65314 136.16182Q575.48126 135.61494 576.5125 135.61494Q577.2625 135.61494 577.84064 135.92744Q578.4344 136.23994 578.79376 136.75557L578.79376 132.6462L580.2 132.6462L580.2 144.09932L578.8875 144.09932ZM574.45 139.9587Q574.45 141.55244 575.1219 142.34932Q575.79376 143.13057 576.7 143.13057Q577.6219 143.13057 578.2625 142.38057Q578.91876 141.61494 578.91876 140.06807Q578.91876 138.36494 578.2625 137.56807Q577.60626 136.7712 576.6375 136.7712Q575.7 136.7712 575.075 137.53682Q574.45 138.30244 574.45 139.9587Z" fill-rule="nonzero"/><path fill="#9e9e9e" d="M537.1219 163.06807L538.52814 162.88057Q538.77814 164.0837 539.35626 164.61494Q539.9344 165.13057 540.77814 165.13057Q541.7625 165.13057 542.45 164.44307Q543.1375 163.75557 543.1375 162.73994Q543.1375 161.7712 542.4969 161.1462Q541.8719 160.5212 540.8875 160.5212Q540.4969 160.5212 539.90314 160.67744L540.0594 159.44307Q540.2 159.4587 540.27814 159.4587Q541.1844 159.4587 541.90314 158.98994Q542.6219 158.5212 542.6219 157.53682Q542.6219 156.7712 542.09064 156.2712Q541.575 155.75557 540.7469 155.75557Q539.91876 155.75557 539.3719 156.2712Q538.825 156.78682 538.66876 157.81807L537.2625 157.56807Q537.52814 156.1462 538.4344 155.38057Q539.35626 154.59932 540.71564 154.59932Q541.65314 154.59932 542.4344 155.00557Q543.23126 155.3962 543.6375 156.09932Q544.0594 156.78682 544.0594 157.56807Q544.0594 158.31807 543.65314 158.92744Q543.2625 159.53682 542.48126 159.8962Q543.4969 160.13057 544.0594 160.86494Q544.6219 161.59932 544.6219 162.7087Q544.6219 164.2087 543.52814 165.25557Q542.4344 166.30244 540.7625 166.30244Q539.2625 166.30244 538.2625 165.41182Q537.2625 164.50557 537.1219 163.06807ZM546.21564 156.1462L546.21564 154.78682L553.6219 154.78682L553.6219 155.88057Q552.52814 157.05244 551.45 158.98994Q550.3875 160.91182 549.79376 162.94307Q549.3719 164.38057 549.2625 166.09932L547.8094 166.09932Q547.84064 164.73994 548.34064 162.8337Q548.85626 160.91182 549.79376 159.1462Q550.7469 157.36494 551.825 156.1462L546.21564 156.1462ZM555.90314 166.09932L555.90314 164.48994L557.5125 164.48994L557.5125 166.09932L555.90314 166.09932ZM559.1219 163.09932L560.59064 162.97432Q560.7625 164.05244 561.35626 164.59932Q561.95 165.13057 562.79376 165.13057Q563.8094 165.13057 564.5125 164.36494Q565.21564 163.59932 565.21564 162.3337Q565.21564 161.13057 564.54376 160.44307Q563.8719 159.73994 562.77814 159.73994Q562.09064 159.73994 561.54376 160.05244Q560.9969 160.36494 560.6844 160.84932L559.3719 160.67744L560.48126 154.80244L566.16876 154.80244L566.16876 156.1462L561.60626 156.1462L560.98126 159.22432Q562.0125 158.50557 563.15314 158.50557Q564.65314 158.50557 565.6844 159.55244Q566.71564 160.5837 566.71564 162.2087Q566.71564 163.7712 565.8094 164.8962Q564.7 166.30244 562.79376 166.30244Q561.23126 166.30244 560.2469 165.42744Q559.2625 164.53682 559.1219 163.09932ZM568.3875 157.3962Q568.3875 156.16182 568.9969 155.30244Q569.6219 154.44307 570.79376 154.44307Q571.8719 154.44307 572.575 155.22432Q573.27814 155.98994 573.27814 157.47432Q573.27814 158.92744 572.5594 159.72432Q571.85626 160.50557 570.8094 160.50557Q569.7625 160.50557 569.075 159.73994Q568.3875 158.9587 568.3875 157.3962ZM570.825 155.41182Q570.3094 155.41182 569.95 155.86494Q569.60626 156.31807 569.60626 157.53682Q569.60626 158.63057 569.95 159.0837Q570.3094 159.53682 570.825 159.53682Q571.35626 159.53682 571.7 159.0837Q572.0594 158.63057 572.0594 157.42744Q572.0594 156.31807 571.7 155.86494Q571.35626 155.41182 570.825 155.41182ZM570.84064 166.5212L577.10626 154.44307L578.2469 154.44307L571.9969 166.5212L570.84064 166.5212ZM575.79376 163.41182Q575.79376 162.17744 576.40314 161.31807Q577.02814 160.4587 578.2 160.4587Q579.27814 160.4587 579.98126 161.23994Q580.7 162.00557 580.7 163.48994Q580.7 164.94307 579.98126 165.73994Q579.2625 166.5212 578.21564 166.5212Q577.16876 166.5212 576.48126 165.73994Q575.79376 164.9587 575.79376 163.41182ZM578.2469 161.42744Q577.71564 161.42744 577.35626 161.88057Q577.0125 162.3337 577.0125 163.55244Q577.0125 164.6462 577.35626 165.09932Q577.71564 165.55244 578.23126 165.55244Q578.77814 165.55244 579.1219 165.09932Q579.46564 164.6462 579.46564 163.44307Q579.46564 162.3337 579.10626 161.88057Q578.7625 161.42744 578.2469 161.42744Z" fill-rule="nonzero"/><path stroke="#757575" stroke-width="1.0" stroke-linecap="butt" d="M581.45 149.59932L454.76666 149.59932L430.57034 149.59932" fill-rule="nonzero"/><path fill="#9e9e9e" d="M432.57034 149.59932C432.57034 148.49475 431.67493 147.59932 430.57034 147.59932C429.4658 147.59932 428.57034 148.49475 428.57034 149.59932C428.57034 150.70389 429.4658 151.59932 430.57034 151.59932C431.67493 151.59932 432.57034 150.70389 432.57034 149.59932" fill-rule="nonzero"/><path fill="#000000" d="M20.190624 37.55L20.190624 23.2375L29.846874 23.2375L29.846874 24.925L22.08125 24.925L22.08125 29.3625L28.8 29.3625L28.8 31.05L22.08125 31.05L22.08125 37.55L20.190624 37.55ZM31.83125 37.55L31.83125 23.2375L33.58125 23.2375L33.58125 37.55L31.83125 37.55ZM35.784374 41.55L35.596874 39.89375Q36.175 40.05 36.596874 40.05Q37.190624 40.05 37.534374 39.846874Q37.89375 39.659374 38.1125 39.315624Q38.284374 39.05 38.659374 38.003124Q38.70625 37.846874 38.815624 37.565624L34.878124 27.175L36.76875 27.175L38.925 33.190624Q39.346874 34.33125 39.675 35.58125Q39.9875 34.378124 40.39375 33.221874L42.6125 27.175L44.378124 27.175L40.425 37.721874Q39.8 39.440624 39.440624 40.08125Q38.971874 40.95625 38.3625 41.346874Q37.76875 41.753124 36.925 41.753124Q36.409374 41.753124 35.784374 41.55ZM47.784374 37.55L44.6125 27.175L46.425 27.175L48.08125 33.159374L48.690624 35.39375Q48.7375 35.221874 49.221874 33.253124L50.878124 27.175L52.690624 27.175L54.2375 33.190624L54.753124 35.175L55.346874 33.175L57.128124 27.175L58.83125 27.175L55.596874 37.55L53.76875 37.55L52.1125 31.33125L51.721874 29.565624L49.6125 37.55L47.784374 37.55ZM60.8625 37.55L60.8625 23.2375L62.628124 23.2375L62.628124 28.3625Q63.8625 26.940624 65.7375 26.940624Q66.87813 26.940624 67.72188 27.39375Q68.58125 27.846874 68.94063 28.659374Q69.31563 29.45625 69.31563 30.971874L69.31563 37.55L67.56563 37.55L67.56563 30.971874Q67.56563 29.659374 66.9875 29.065624Q66.40938 28.45625 65.37813 28.45625Q64.59688 28.45625 63.89375 28.8625Q63.20625 29.26875 62.909374 29.971874Q62.628124 30.659374 62.628124 31.878124L62.628124 37.55L60.8625 37.55ZM77.97188 34.20625L79.78438 34.440624Q79.3625 36.01875 78.19063 36.909374Q77.03438 37.784374 75.22188 37.784374Q72.95625 37.784374 71.6125 36.39375Q70.28438 34.9875 70.28438 32.45625Q70.28438 29.83125 71.62813 28.39375Q72.97188 26.940624 75.12813 26.940624Q77.20625 26.940624 78.51875 28.3625Q79.84688 29.76875 79.84688 32.346874Q79.84688 32.503124 79.83125 32.815624L72.09688 32.815624Q72.19063 34.51875 73.06563 35.425Q73.94063 36.33125 75.2375 36.33125Q76.20625 36.33125 76.87813 35.83125Q77.56563 35.315624 77.97188 34.20625ZM72.19063 31.3625L77.9875 31.3625Q77.87813 30.065624 77.33125 29.409374Q76.4875 28.39375 75.14375 28.39375Q73.94063 28.39375 73.1125 29.20625Q72.28438 30.003124 72.19063 31.3625ZM88.97188 34.20625L90.78438 34.440624Q90.3625 36.01875 89.19063 36.909374Q88.03438 37.784374 86.22188 37.784374Q83.95625 37.784374 82.6125 36.39375Q81.28438 34.9875 81.28438 32.45625Q81.28438 29.83125 82.62813 28.39375Q83.97188 26.940624 86.12813 26.940624Q88.20625 26.940624 89.51875 28.3625Q90.84688 29.76875 90.84688 32.346874Q90.84688 32.503124 90.83125 32.815624L83.09688 32.815624Q83.19063 34.51875 84.06563 35.425Q84.94063 36.33125 86.2375 36.33125Q87.20625 36.33125 87.87813 35.83125Q88.56563 35.315624 88.97188 34.20625ZM83.19063 31.3625L88.9875 31.3625Q88.87813 30.065624 88.33125 29.409374Q87.4875 28.39375 86.14375 28.39375Q84.94063 28.39375 84.1125 29.20625Q83.28438 30.003124 83.19063 31.3625ZM92.83125 37.55L92.83125 23.2375L94.58125 23.2375L94.58125 37.55L92.83125 37.55ZM103.09688 37.55L103.09688 23.2375L108.4875 23.2375Q109.925 23.2375 110.675 23.3625Q111.72188 23.55 112.44063 24.05Q113.15938 24.534374 113.58125 25.425Q114.01875 26.315624 114.01875 27.378124Q114.01875 29.20625 112.84688 30.471874Q111.69063 31.721874 108.65938 31.721874L104.9875 31.721874L104.9875 37.55L103.09688 37.55ZM104.9875 30.034374L108.69063 30.034374Q110.51875 30.034374 111.28438 29.3625Q112.06563 28.675 112.06563 27.425Q112.06563 26.534374 111.6125 25.89375Q111.15938 25.253124 110.425 25.05Q109.94063 24.925 108.64375 24.925L104.9875 24.925L104.9875 30.034374ZM122.97188 34.20625L124.78438 34.440624Q124.3625 36.01875 123.19063 36.909374Q122.03438 37.784374 120.22188 37.784374Q117.95625 37.784374 116.6125 36.39375Q115.28438 34.9875 115.28438 32.45625Q115.28438 29.83125 116.62813 28.39375Q117.97188 26.940624 120.12813 26.940624Q122.20625 26.940624 123.51875 28.3625Q124.84688 29.76875 124.84688 32.346874Q124.84688 32.503124 124.83125 32.815624L117.09688 32.815624Q117.19063 34.51875 118.06563 35.425Q118.94063 36.33125 120.2375 36.33125Q121.20625 36.33125 121.87813 35.83125Q122.56563 35.315624 122.97188 34.20625ZM117.19063 31.3625L122.9875 31.3625Q122.87813 30.065624 122.33125 29.409374Q121.4875 28.39375 120.14375 28.39375Q118.94063 28.39375 118.1125 29.20625Q117.28438 30.003124 117.19063 31.3625ZM126.84688 37.55L126.84688 27.175L128.425 27.175L128.425 28.753124Q129.03438 27.64375 129.55 27.3Q130.06563 26.940624 130.675 26.940624Q131.56563 26.940624 132.4875 27.503124L131.87813 29.14375Q131.2375 28.753124 130.59688 28.753124Q130.01875 28.753124 129.55 29.1125Q129.09688 29.45625 128.89375 30.065624Q128.6125 31.003124 128.6125 32.1125L128.6125 37.55L126.84688 37.55ZM134.28438 37.55L134.28438 28.55L132.7375 28.55L132.7375 27.175L134.28438 27.175L134.28438 26.08125Q134.28438 25.034374 134.47188 24.51875Q134.72188 23.83125 135.3625 23.409374Q136.00313 22.9875 137.15938 22.9875Q137.90938 22.9875 138.8 23.159374L138.53438 24.690624Q137.9875 24.596874 137.50313 24.596874Q136.70625 24.596874 136.3625 24.940624Q136.03438 25.284374 136.03438 26.221874L136.03438 27.175L138.06563 27.175L138.06563 28.55L136.03438 28.55L136.03438 37.55L134.28438 37.55ZM139.22188 32.3625Q139.22188 29.4875 140.81563 28.096874Q142.15938 26.940624 144.08125 26.940624Q146.22188 26.940624 147.56563 28.346874Q148.925 29.753124 148.925 32.221874Q148.925 34.221874 148.33125 35.378124Q147.7375 36.51875 146.58125 37.159374Q145.44063 37.784374 144.08125 37.784374Q141.89375 37.784374 140.55 36.39375Q139.22188 34.9875 139.22188 32.3625ZM141.01875 32.3625Q141.01875 34.3625 141.87813 35.346874Q142.75313 36.33125 144.08125 36.33125Q145.39375 36.33125 146.25313 35.346874Q147.12813 34.346874 147.12813 32.3Q147.12813 30.378124 146.25313 29.39375Q145.37813 28.39375 144.08125 28.39375Q142.75313 28.39375 141.87813 29.39375Q141.01875 30.378124 141.01875 32.3625ZM150.84688 37.55L150.84688 27.175L152.425 27.175L152.425 28.753124Q153.03438 27.64375 153.55 27.3Q154.06563 26.940624 154.675 26.940624Q155.56563 26.940624 156.4875 27.503124L155.87813 29.14375Q155.2375 28.753124 154.59688 28.753124Q154.01875 28.753124 153.55 29.1125Q153.09688 29.45625 152.89375 30.065624Q152.6125 31.003124 152.6125 32.1125L152.6125 37.55L150.84688 37.55ZM157.8625 37.55L157.8625 27.175L159.44063 27.175L159.44063 28.628124Q159.925 27.878124 160.7375 27.409374Q161.55 26.940624 162.58125 26.940624Q163.7375 26.940624 164.47188 27.425Q165.20625 27.89375 165.51875 28.753124Q166.75313 26.940624 168.72188 26.940624Q170.26875 26.940624 171.09688 27.8Q171.925 28.659374 171.925 30.425L171.925 37.55L170.175 37.55L170.175 31.01875Q170.175 29.95625 170.00313 29.503124Q169.83125 29.034374 169.37813 28.753124Q168.94063 28.471874 168.33125 28.471874Q167.2375 28.471874 166.50313 29.20625Q165.78438 29.925 165.78438 31.51875L165.78438 37.55L164.03438 37.55L164.03438 30.815624Q164.03438 29.64375 163.59688 29.065624Q163.175 28.471874 162.19063 28.471874Q161.45625 28.471874 160.81563 28.8625Q160.19063 29.253124 159.90938 30.003124Q159.62813 30.753124 159.62813 32.175L159.62813 37.55L157.8625 37.55ZM180.64375 36.26875Q179.65938 37.096874 178.75313 37.440624Q177.84688 37.784374 176.81563 37.784374Q175.1125 37.784374 174.19063 36.95625Q173.26875 36.1125 173.26875 34.815624Q173.26875 34.05 173.6125 33.425Q173.97188 32.8 174.53438 32.425Q175.09688 32.034374 175.8 31.83125Q176.31563 31.70625 177.3625 31.565624Q179.4875 31.315624 180.4875 30.971874Q180.50313 30.6125 180.50313 30.503124Q180.50313 29.440624 180.00313 28.9875Q179.33125 28.39375 178.00313 28.39375Q176.75313 28.39375 176.15938 28.83125Q175.58125 29.26875 175.3 30.378124L173.58125 30.14375Q173.81563 29.034374 174.34688 28.3625Q174.87813 27.675 175.89375 27.315624Q176.90938 26.940624 178.25313 26.940624Q179.58125 26.940624 180.40938 27.253124Q181.2375 27.565624 181.62813 28.05Q182.01875 28.51875 182.175 29.2375Q182.26875 29.690624 182.26875 30.8625L182.26875 33.20625Q182.26875 35.659374 182.37813 36.315624Q182.4875 36.95625 182.83125 37.55L180.9875 37.55Q180.72188 37.003124 180.64375 36.26875ZM180.4875 32.346874Q179.53438 32.7375 177.6125 33.003124Q176.53438 33.159374 176.08125 33.3625Q175.64375 33.55 175.39375 33.925Q175.14375 34.3 175.14375 34.76875Q175.14375 35.471874 175.675 35.940624Q176.20625 36.409374 177.2375 36.409374Q178.25313 36.409374 179.03438 35.971874Q179.83125 35.51875 180.20625 34.753124Q180.4875 34.14375 180.4875 32.9875L180.4875 32.346874ZM184.8625 37.55L184.8625 27.175L186.45625 27.175L186.45625 28.659374Q187.59688 26.940624 189.75313 26.940624Q190.69063 26.940624 191.47188 27.284374Q192.26875 27.6125 192.65938 28.159374Q193.05 28.70625 193.20625 29.45625Q193.3 29.95625 193.3 31.175L193.3 37.55L191.53438 37.55L191.53438 31.2375Q191.53438 30.159374 191.33125 29.628124Q191.12813 29.096874 190.59688 28.784374Q190.08125 28.471874 189.37813 28.471874Q188.25313 28.471874 187.44063 29.190624Q186.62813 29.89375 186.62813 31.878124L186.62813 37.55L184.8625 37.55ZM201.64375 33.753124L203.3625 33.971874Q203.08125 35.76875 201.90938 36.784374Q200.75313 37.784374 199.05 37.784374Q196.925 37.784374 195.62813 36.39375Q194.33125 35.003124 194.33125 32.409374Q194.33125 30.721874 194.87813 29.471874Q195.44063 28.20625 196.58125 27.58125Q197.72188 26.940624 199.06563 26.940624Q200.75313 26.940624 201.81563 27.8Q202.89375 28.659374 203.20625 30.221874L201.4875 30.4875Q201.25313 29.440624 200.62813 28.925Q200.00313 28.39375 199.12813 28.39375Q197.8 28.39375 196.97188 29.346874Q196.14375 30.3 196.14375 32.346874Q196.14375 34.440624 196.94063 35.39375Q197.7375 36.33125 199.03438 36.33125Q200.06563 36.33125 200.75313 35.70625Q201.45625 35.065624 201.64375 33.753124ZM211.97188 34.20625L213.78438 34.440624Q213.3625 36.01875 212.19063 36.909374Q211.03438 37.784374 209.22188 37.784374Q206.95625 37.784374 205.6125 36.39375Q204.28438 34.9875 204.28438 32.45625Q204.28438 29.83125 205.62813 28.39375Q206.97188 26.940624 209.12813 26.940624Q211.20625 26.940624 212.51875 28.3625Q213.84688 29.76875 213.84688 32.346874Q213.84688 32.503124 213.83125 32.815624L206.09688 32.815624Q206.19063 34.51875 207.06563 35.425Q207.94063 36.33125 209.2375 36.33125Q210.20625 36.33125 210.87813 35.83125Q211.56563 35.315624 211.97188 34.20625ZM206.19063 31.3625L211.9875 31.3625Q211.87813 30.065624 211.33125 29.409374Q210.4875 28.39375 209.14375 28.39375Q207.94063 28.39375 207.1125 29.20625Q206.28438 30.003124 206.19063 31.3625Z" fill-rule="nonzero"/></svg>