<svg version="1.1" viewBox="0.0 0.0 600.0 371.0" fill="none" stroke="none" stroke-linecap="square" stroke-miterlimit="10" width="600" height="371" xmlns:xlink="http://www.w3.org/1999/xlink" xmlns="http://www.w3.org/2000/svg"><path fill="#ffffff" d="M0 0L600.0 0L600.0 371.0L0 371.0L0 0Z" fill-rule="nonzero"/><path fill="#34a853" d="M300.0 54.916668C339.45538 54.916668 377.29477 70.590256 405.1939 98.48942L300.0 203.68333Z" fill-rule="nonzero"/><path fill="#fbbc04" d="M405.1939 98.48942C455.37924 148.67473 463.1253 227.32198 423.69498 286.33368C384.26462 345.34534 308.63974 368.28592 243.06946 341.12582C177.49919 313.96573 140.24574 244.26942 154.09184 174.6604C167.93794 105.05137 229.02725 54.916668 300.0 54.916668L300.0 203.68333Z" fill-rule="nonzero"/><path fill="#000000" d="M314.86896 110.545044L313.63458 110.545044L313.63458 102.701294Q313.19708 103.12317 312.4627 103.56067Q311.74396 103.982544 311.18146 104.18567L311.18146 102.99817Q312.2127 102.513794 312.97833 101.826294Q313.75958 101.138794 314.07208 100.482544L314.86896 100.482544L314.86896 110.545044ZM324.93146 113.49817Q323.9002 112.201294 323.19708 110.482544Q322.49396 108.763794 322.49396 106.920044Q322.49396 105.295044 323.0252 103.795044Q323.63458 102.06067 324.93146 100.357544L325.80646 100.357544Q324.97833 101.77942 324.7127 102.388794Q324.29083 103.326294 324.05646 104.357544Q323.75958 105.62317 323.75958 106.920044Q323.75958 110.21692 325.80646 113.49817L324.93146 113.49817ZM331.86896 110.545044L330.63458 110.545044L330.63458 102.701294Q330.19708 103.12317 329.4627 103.56067Q328.74396 103.982544 328.18146 104.18567L328.18146 102.99817Q329.2127 102.513794 329.97833 101.826294Q330.75958 101.138794 331.07208 100.482544L331.86896 100.482544L331.86896 110.545044ZM341.69708 109.357544L341.69708 110.545044L335.07208 110.545044Q335.05646 110.107544 335.2127 109.68567Q335.47833 109.013794 336.0252 108.357544Q336.5877 107.701294 337.63458 106.84192Q339.2752 105.49817 339.8377 104.71692Q340.41583 103.93567 340.41583 103.232544Q340.41583 102.49817 339.88458 101.99817Q339.36896 101.49817 338.54083 101.49817Q337.6502 101.49817 337.10333 102.02942Q336.57208 102.56067 336.57208 103.513794L335.30646 103.37317Q335.43146 101.96692 336.2752 101.232544Q337.13458 100.482544 338.55646 100.482544Q340.00958 100.482544 340.8377 101.27942Q341.68146 102.076294 341.68146 103.263794Q341.68146 103.87317 341.43146 104.451294Q341.19708 105.02942 340.61896 105.670044Q340.05646 106.31067 338.72833 107.43567Q337.61896 108.357544 337.30646 108.701294Q336.99396 109.02942 336.79083 109.357544L341.69708 109.357544ZM343.91583 110.545044L343.91583 109.138794L345.32208 109.138794L345.32208 110.545044L343.91583 110.545044ZM347.22833 107.920044L348.5252 107.81067Q348.66583 108.74817 349.18146 109.232544Q349.7127 109.701294 350.44708 109.701294Q351.3377 109.701294 351.94708 109.02942Q352.57208 108.357544 352.57208 107.263794Q352.57208 106.201294 351.97833 105.59192Q351.38458 104.982544 350.43146 104.982544Q349.8377 104.982544 349.35333 105.263794Q348.88458 105.52942 348.60333 105.951294L347.44708 105.81067L348.41583 100.65442L353.4002 100.65442L353.4002 101.84192L349.4002 101.84192L348.86896 104.52942Q349.7752 103.90442 350.75958 103.90442Q352.07208 103.90442 352.9627 104.81067Q353.86896 105.71692 353.86896 107.15442Q353.86896 108.513794 353.0877 109.49817Q352.11896 110.71692 350.44708 110.71692Q349.0877 110.71692 348.2127 109.951294Q347.35333 109.18567 347.22833 107.920044ZM355.4627 102.93567Q355.4627 101.857544 355.99396 101.107544Q356.54083 100.357544 357.57208 100.357544Q358.50958 100.357544 359.11896 101.02942Q359.74396 101.701294 359.74396 102.99817Q359.74396 104.27942 359.11896 104.96692Q358.49396 105.65442 357.5877 105.65442Q356.68146 105.65442 356.07208 104.982544Q355.4627 104.295044 355.4627 102.93567ZM357.60333 101.201294Q357.1502 101.201294 356.8377 101.607544Q356.54083 101.99817 356.54083 103.045044Q356.54083 104.013794 356.8377 104.40442Q357.1502 104.795044 357.60333 104.795044Q358.07208 104.795044 358.36896 104.40442Q358.68146 104.013794 358.68146 102.951294Q358.68146 101.982544 358.36896 101.59192Q358.05646 101.201294 357.60333 101.201294ZM357.60333 110.920044L363.0877 100.357544L364.0877 100.357544L358.63458 110.920044L357.60333 110.920044ZM361.94708 108.18567Q361.94708 107.107544 362.47833 106.37317Q363.0252 105.62317 364.05646 105.62317Q364.99396 105.62317 365.61896 106.295044Q366.24396 106.96692 366.24396 108.263794Q366.24396 109.545044 365.61896 110.232544Q364.99396 110.920044 364.05646 110.920044Q363.1502 110.920044 362.54083 110.24817Q361.94708 109.56067 361.94708 108.18567ZM364.0877 106.46692Q363.61896 106.46692 363.32208 106.87317Q363.0252 107.263794 363.0252 108.31067Q363.0252 109.27942 363.32208 109.670044Q363.63458 110.06067 364.0877 110.06067Q364.55646 110.06067 364.85333 109.670044Q365.16583 109.27942 365.16583 108.21692Q365.16583 107.24817 364.85333 106.857544Q364.55646 106.46692 364.0877 106.46692ZM368.38458 113.49817L367.49396 113.49817Q369.54083 110.21692 369.54083 106.920044Q369.54083 105.638794 369.24396 104.37317Q369.00958 103.34192 368.60333 102.40442Q368.3377 101.795044 367.49396 100.357544L368.38458 100.357544Q369.66583 102.06067 370.2752 103.795044Q370.80646 105.295044 370.80646 106.920044Q370.80646 108.763794 370.0877 110.482544Q369.38458 112.201294 368.38458 113.49817Z" fill-rule="nonzero"/><path fill="#000000" d="M229.00604 298.1185L229.00604 296.931L235.50604 296.931L235.50604 297.88412Q234.5373 298.89975 233.5998 300.58725Q232.6623 302.27475 232.14667 304.07162Q231.7873 305.32162 231.67792 306.82162L230.4123 306.82162Q230.42792 305.63412 230.86542 303.96225Q231.31854 302.29037 232.14667 300.7435Q232.99042 299.181 233.92792 298.1185L229.00604 298.1185ZM243.63104 309.77475Q242.5998 308.47787 241.89667 306.75912Q241.19354 305.04037 241.19354 303.19662Q241.19354 301.57162 241.7248 300.07162Q242.33417 298.33725 243.63104 296.63412L244.50604 296.63412Q243.67792 298.056 243.4123 298.66537Q242.99042 299.60287 242.75604 300.63412Q242.45917 301.89975 242.45917 303.19662Q242.45917 306.4935 244.50604 309.77475L243.63104 309.77475ZM247.81854 301.38412Q247.05292 301.10287 246.67792 300.58725Q246.31854 300.07162 246.31854 299.33725Q246.31854 298.2435 247.0998 297.50912Q247.89667 296.75912 249.19354 296.75912Q250.50604 296.75912 251.30292 297.52475Q252.11542 298.29037 252.11542 299.38412Q252.11542 300.07162 251.74042 300.58725Q251.38104 301.10287 250.63104 301.38412Q251.55292 301.681 252.0373 302.35287Q252.52167 303.02475 252.52167 303.96225Q252.52167 305.2435 251.61542 306.1185Q250.70917 306.9935 249.2248 306.9935Q247.74042 306.9935 246.81854 306.1185Q245.9123 305.22787 245.9123 303.91537Q245.9123 302.94662 246.4123 302.29037Q246.9123 301.6185 247.81854 301.38412ZM247.58417 299.306Q247.58417 300.00912 248.0373 300.46225Q248.49042 300.91537 249.2248 300.91537Q249.94354 300.91537 250.39667 300.47787Q250.8498 300.02475 250.8498 299.3685Q250.8498 298.69662 250.38104 298.2435Q249.9123 297.77475 249.20917 297.77475Q248.50604 297.77475 248.0373 298.22787Q247.58417 298.66537 247.58417 299.306ZM247.17792 303.931Q247.17792 304.46225 247.42792 304.96225Q247.67792 305.44662 248.1623 305.71225Q248.6623 305.97787 249.24042 305.97787Q250.11542 305.97787 250.67792 305.41537Q251.25604 304.85287 251.25604 303.97787Q251.25604 303.08725 250.6623 302.50912Q250.08417 301.91537 249.19354 301.91537Q248.31854 301.91537 247.74042 302.4935Q247.17792 303.07162 247.17792 303.931ZM254.00604 298.1185L254.00604 296.931L260.50604 296.931L260.50604 297.88412Q259.5373 298.89975 258.5998 300.58725Q257.6623 302.27475 257.14667 304.07162Q256.7873 305.32162 256.67792 306.82162L255.4123 306.82162Q255.42792 305.63412 255.86542 303.96225Q256.31854 302.29037 257.14667 300.7435Q257.99042 299.181 258.92792 298.1185L254.00604 298.1185ZM262.61542 306.82162L262.61542 305.41537L264.02167 305.41537L264.02167 306.82162L262.61542 306.82162ZM265.92792 304.19662L267.2248 304.08725Q267.36542 305.02475 267.88104 305.50912Q268.4123 305.97787 269.14667 305.97787Q270.0373 305.97787 270.64667 305.306Q271.27167 304.63412 271.27167 303.54037Q271.27167 302.47787 270.67792 301.8685Q270.08417 301.25912 269.13104 301.25912Q268.5373 301.25912 268.05292 301.54037Q267.58417 301.806 267.30292 302.22787L266.14667 302.08725L267.11542 296.931L272.0998 296.931L272.0998 298.1185L268.0998 298.1185L267.56854 300.806Q268.4748 300.181 269.45917 300.181Q270.77167 300.181 271.6623 301.08725Q272.56854 301.9935 272.56854 303.431Q272.56854 304.79037 271.7873 305.77475Q270.81854 306.9935 269.14667 306.9935Q267.7873 306.9935 266.9123 306.22787Q266.05292 305.46225 265.92792 304.19662ZM274.1623 299.21225Q274.1623 298.13412 274.69354 297.38412Q275.24042 296.63412 276.27167 296.63412Q277.20917 296.63412 277.81854 297.306Q278.44354 297.97787 278.44354 299.27475Q278.44354 300.556 277.81854 301.2435Q277.19354 301.931 276.2873 301.931Q275.38104 301.931 274.77167 301.25912Q274.1623 300.57162 274.1623 299.21225ZM276.30292 297.47787Q275.8498 297.47787 275.5373 297.88412Q275.24042 298.27475 275.24042 299.32162Q275.24042 300.29037 275.5373 300.681Q275.8498 301.07162 276.30292 301.07162Q276.77167 301.07162 277.06854 300.681Q277.38104 300.29037 277.38104 299.22787Q277.38104 298.25912 277.06854 297.8685Q276.75604 297.47787 276.30292 297.47787ZM276.30292 307.19662L281.7873 296.63412L282.7873 296.63412L277.33417 307.19662L276.30292 307.19662ZM280.64667 304.46225Q280.64667 303.38412 281.17792 302.64975Q281.7248 301.89975 282.75604 301.89975Q283.69354 301.89975 284.31854 302.57162Q284.94354 303.2435 284.94354 304.54037Q284.94354 305.82162 284.31854 306.50912Q283.69354 307.19662 282.75604 307.19662Q281.8498 307.19662 281.24042 306.52475Q280.64667 305.83725 280.64667 304.46225ZM282.7873 302.7435Q282.31854 302.7435 282.02167 303.14975Q281.7248 303.54037 281.7248 304.58725Q281.7248 305.556 282.02167 305.94662Q282.33417 306.33725 282.7873 306.33725Q283.25604 306.33725 283.55292 305.94662Q283.86542 305.556 283.86542 304.4935Q283.86542 303.52475 283.55292 303.13412Q283.25604 302.7435 282.7873 302.7435ZM287.08417 309.77475L286.19354 309.77475Q288.24042 306.4935 288.24042 303.19662Q288.24042 301.91537 287.94354 300.64975Q287.70917 299.6185 287.30292 298.681Q287.0373 298.07162 286.19354 296.63412L287.08417 296.63412Q288.36542 298.33725 288.9748 300.07162Q289.50604 301.57162 289.50604 303.19662Q289.50604 305.04037 288.7873 306.75912Q288.08417 308.47787 287.08417 309.77475Z" fill-rule="nonzero"/><path fill="#1a1a1a" d="M19.26875 322.7625L20.70625 322.6375Q20.8 323.4969 21.175 324.0594Q21.55 324.60626 22.33125 324.95Q23.1125 325.27814 24.08125 325.27814Q24.95625 325.27814 25.6125 325.02814Q26.284374 324.7625 26.596874 324.325Q26.925 323.8719 26.925 323.34064Q26.925 322.79376 26.6125 322.40314Q26.3 321.9969 25.58125 321.71564Q25.128124 321.54376 23.55 321.16876Q21.971874 320.77814 21.33125 320.45Q20.51875 320.0125 20.1125 319.3875Q19.70625 318.7469 19.70625 317.95Q19.70625 317.09064 20.190624 316.34064Q20.690624 315.575 21.628124 315.1844Q22.58125 314.79376 23.7375 314.79376Q25.01875 314.79376 25.9875 315.21564Q26.95625 315.6219 27.471874 316.41876Q28.003124 317.21564 28.05 318.21564L26.596874 318.325Q26.471874 317.2469 25.8 316.7Q25.128124 316.1375 23.8 316.1375Q22.425 316.1375 21.8 316.6375Q21.175 317.1375 21.175 317.85626Q21.175 318.46564 21.6125 318.8719Q22.05 319.2625 23.89375 319.6844Q25.753124 320.10626 26.440624 320.41876Q27.440624 320.8719 27.909374 321.59064Q28.39375 322.29376 28.39375 323.21564Q28.39375 324.1219 27.8625 324.9344Q27.346874 325.7469 26.3625 326.2Q25.378124 326.65314 24.159374 326.65314Q22.596874 326.65314 21.55 326.2Q20.503124 325.73126 19.89375 324.825Q19.3 323.91876 19.26875 322.7625ZM36.01875 325.41876Q35.2375 326.09064 34.51875 326.3719Q33.8 326.6375 32.971874 326.6375Q31.596874 326.6375 30.8625 325.96564Q30.128124 325.29376 30.128124 324.2625Q30.128124 323.65314 30.409374 323.15314Q30.690624 322.6375 31.128124 322.34064Q31.58125 322.02814 32.14375 321.8719Q32.565624 321.7625 33.39375 321.66876Q35.096874 321.46564 35.909374 321.1844Q35.909374 320.8875 35.909374 320.8094Q35.909374 319.95 35.51875 319.60626Q34.971874 319.1219 33.909374 319.1219Q32.925 319.1219 32.440624 319.48126Q31.971874 319.825 31.753124 320.7L30.378124 320.5125Q30.565624 319.6375 30.9875 319.09064Q31.425 318.54376 32.2375 318.2625Q33.05 317.96564 34.1125 317.96564Q35.175 317.96564 35.83125 318.21564Q36.503124 318.46564 36.815624 318.84064Q37.128124 319.21564 37.253124 319.79376Q37.33125 320.15314 37.33125 321.09064L37.33125 322.96564Q37.33125 324.9344 37.409374 325.45Q37.503124 325.96564 37.76875 326.45L36.3 326.45Q36.08125 326.0125 36.01875 325.41876ZM35.909374 322.27814Q35.14375 322.59064 33.6125 322.8094Q32.7375 322.9344 32.378124 323.09064Q32.01875 323.2469 31.815624 323.5594Q31.628124 323.85626 31.628124 324.21564Q31.628124 324.77814 32.05 325.15314Q32.4875 325.52814 33.3 325.52814Q34.1125 325.52814 34.7375 325.1844Q35.378124 324.825 35.675 324.2Q35.909374 323.73126 35.909374 322.79376L35.909374 322.27814ZM42.675 325.1844L42.878124 326.4344Q42.284374 326.5594 41.815624 326.5594Q41.05 326.5594 40.628124 326.325Q40.20625 326.075 40.034374 325.6844Q39.8625 325.27814 39.8625 324.0125L39.8625 319.2469L38.83125 319.2469L38.83125 318.15314L39.8625 318.15314L39.8625 316.09064L41.26875 315.2469L41.26875 318.15314L42.675 318.15314L42.675 319.2469L41.26875 319.2469L41.26875 324.09064Q41.26875 324.7 41.33125 324.8719Q41.409374 325.04376 41.58125 325.15314Q41.753124 325.2469 42.065624 325.2469Q42.3 325.2469 42.675 325.1844ZM43.6125 316.60626L43.6125 314.9969L45.01875 314.9969L45.01875 316.60626L43.6125 316.60626ZM43.6125 326.45L43.6125 318.15314L45.01875 318.15314L45.01875 326.45L43.6125 326.45ZM47.05 323.96564L48.440624 323.7469Q48.55 324.59064 49.08125 325.04376Q49.628124 325.48126 50.58125 325.48126Q51.55 325.48126 52.01875 325.09064Q52.4875 324.6844 52.4875 324.15314Q52.4875 323.6844 52.08125 323.40314Q51.784374 323.21564 50.64375 322.9344Q49.096874 322.54376 48.4875 322.2625Q47.89375 321.96564 47.58125 321.46564Q47.284374 320.96564 47.284374 320.35626Q47.284374 319.79376 47.534374 319.325Q47.784374 318.85626 48.221874 318.54376Q48.55 318.29376 49.1125 318.1375Q49.690624 317.96564 50.33125 317.96564Q51.315624 317.96564 52.05 318.2469Q52.784374 318.52814 53.128124 319.0125Q53.4875 319.48126 53.628124 320.29376L52.253124 320.48126Q52.159374 319.84064 51.70625 319.48126Q51.253124 319.1219 50.440624 319.1219Q49.471874 319.1219 49.05 319.45Q48.64375 319.7625 48.64375 320.1844Q48.64375 320.46564 48.815624 320.6844Q48.9875 320.90314 49.346874 321.0594Q49.565624 321.1375 50.596874 321.41876Q52.08125 321.8094 52.675 322.075Q53.26875 322.325 53.596874 322.8094Q53.940624 323.29376 53.940624 324.0125Q53.940624 324.71564 53.51875 325.34064Q53.1125 325.95 52.33125 326.29376Q51.565624 326.6375 50.596874 326.6375Q48.971874 326.6375 48.128124 325.96564Q47.284374 325.29376 47.05 323.96564ZM55.940624 326.45L55.940624 319.2469L54.70625 319.2469L54.70625 318.15314L55.940624 318.15314L55.940624 317.2625Q55.940624 316.4344 56.096874 316.02814Q56.3 315.48126 56.8 315.1375Q57.315624 314.79376 58.2375 314.79376Q58.83125 314.79376 59.55 314.9344L59.346874 316.16876Q58.909374 316.09064 58.51875 316.09064Q57.878124 316.09064 57.6125 316.3719Q57.346874 316.6375 57.346874 317.3875L57.346874 318.15314L58.95625 318.15314L58.95625 319.2469L57.346874 319.2469L57.346874 326.45L55.940624 326.45ZM65.01875 325.41876Q64.2375 326.09064 63.51875 326.3719Q62.8 326.6375 61.971874 326.6375Q60.596874 326.6375 59.8625 325.96564Q59.128124 325.29376 59.128124 324.2625Q59.128124 323.65314 59.409374 323.15314Q59.690624 322.6375 60.128124 322.34064Q60.58125 322.02814 61.14375 321.8719Q61.565624 321.7625 62.39375 321.66876Q64.09688 321.46564 64.90938 321.1844Q64.90938 320.8875 64.90938 320.8094Q64.90938 319.95 64.51875 319.60626Q63.971874 319.1219 62.909374 319.1219Q61.925 319.1219 61.440624 319.48126Q60.971874 319.825 60.753124 320.7L59.378124 320.5125Q59.565624 319.6375 59.9875 319.09064Q60.425 318.54376 61.2375 318.2625Q62.05 317.96564 63.1125 317.96564Q64.175 317.96564 64.83125 318.21564Q65.50313 318.46564 65.81563 318.84064Q66.12813 319.21564 66.25313 319.79376Q66.33125 320.15314 66.33125 321.09064L66.33125 322.96564Q66.33125 324.9344 66.40938 325.45Q66.50313 325.96564 66.76875 326.45L65.3 326.45Q65.08125 326.0125 65.01875 325.41876ZM64.90938 322.27814Q64.14375 322.59064 62.6125 322.8094Q61.7375 322.9344 61.378124 323.09064Q61.01875 323.2469 60.815624 323.5594Q60.628124 323.85626 60.628124 324.21564Q60.628124 324.77814 61.05 325.15314Q61.4875 325.52814 62.3 325.52814Q63.1125 325.52814 63.7375 325.1844Q64.37813 324.825 64.675 324.2Q64.90938 323.73126 64.90938 322.79376L64.90938 322.27814ZM74.01875 323.40314L75.40938 323.59064Q75.175 325.0125 74.2375 325.825Q73.31563 326.6375 71.95625 326.6375Q70.25313 326.6375 69.20625 325.52814Q68.175 324.40314 68.175 322.325Q68.175 320.98126 68.6125 319.98126Q69.06563 318.96564 69.97188 318.46564Q70.89375 317.96564 71.95625 317.96564Q73.31563 317.96564 74.175 318.65314Q75.03438 319.325 75.26875 320.59064L73.90938 320.79376Q73.70625 319.96564 73.20625 319.54376Q72.72188 319.1219 72.01875 319.1219Q70.95625 319.1219 70.28438 319.8875Q69.62813 320.6375 69.62813 322.29376Q69.62813 323.96564 70.26875 324.73126Q70.90938 325.48126 71.94063 325.48126Q72.76875 325.48126 73.31563 324.98126Q73.87813 324.46564 74.01875 323.40314ZM79.675 325.1844L79.87813 326.4344Q79.28438 326.5594 78.81563 326.5594Q78.05 326.5594 77.62813 326.325Q77.20625 326.075 77.03438 325.6844Q76.8625 325.27814 76.8625 324.0125L76.8625 319.2469L75.83125 319.2469L75.83125 318.15314L76.8625 318.15314L76.8625 316.09064L78.26875 315.2469L78.26875 318.15314L79.675 318.15314L79.675 319.2469L78.26875 319.2469L78.26875 324.09064Q78.26875 324.7 78.33125 324.8719Q78.40938 325.04376 78.58125 325.15314Q78.75313 325.2469 79.06563 325.2469Q79.3 325.2469 79.675 325.1844ZM80.08125 322.29376Q80.08125 319.9969 81.3625 318.8875Q82.44063 317.96564 83.97188 317.96564Q85.69063 317.96564 86.76875 319.09064Q87.8625 320.2 87.8625 322.1844Q87.8625 323.77814 87.37813 324.7Q86.89375 325.6219 85.97188 326.1375Q85.06563 326.6375 83.97188 326.6375Q82.2375 326.6375 81.15938 325.52814Q80.08125 324.40314 80.08125 322.29376ZM81.53438 322.29376Q81.53438 323.8875 82.22188 324.6844Q82.925 325.48126 83.97188 325.48126Q85.01875 325.48126 85.70625 324.6844Q86.40938 323.8875 86.40938 322.2469Q86.40938 320.71564 85.70625 319.91876Q85.01875 319.1219 83.97188 319.1219Q82.925 319.1219 82.22188 319.91876Q81.53438 320.7 81.53438 322.29376ZM89.59688 326.45L89.59688 318.15314L90.8625 318.15314L90.8625 319.40314Q91.34688 318.52814 91.75313 318.2469Q92.15938 317.96564 92.65938 317.96564Q93.3625 317.96564 94.09688 318.41876L93.6125 319.71564Q93.09688 319.41876 92.58125 319.41876Q92.12813 319.41876 91.75313 319.7Q91.39375 319.96564 91.2375 320.46564Q91.00313 321.21564 91.00313 322.10626L91.00313 326.45L89.59688 326.45ZM94.55 329.65314L94.39375 328.325Q94.84688 328.45 95.19063 328.45Q95.65938 328.45 95.94063 328.29376Q96.22188 328.1375 96.40938 327.85626Q96.53438 327.65314 96.83125 326.8094Q96.87813 326.7 96.95625 326.46564L93.81563 318.15314L95.33125 318.15314L97.05 322.95Q97.39375 323.8719 97.65938 324.8719Q97.89375 323.90314 98.2375 322.98126L100.00313 318.15314L101.40938 318.15314L98.25313 326.59064Q97.75313 327.96564 97.47188 328.48126Q97.09688 329.16876 96.6125 329.4969Q96.12813 329.825 95.45625 329.825Q95.05 329.825 94.55 329.65314Z" fill-rule="nonzero"/><path fill="#9e9e9e" d="M21.378124 342.23126Q20.503124 341.91876 20.08125 341.325Q19.659374 340.73126 19.659374 339.90314Q19.659374 338.65314 20.55 337.8094Q21.45625 336.95 22.95625 336.95Q24.45625 336.95 25.3625 337.825Q26.284374 338.6844 26.284374 339.9344Q26.284374 340.73126 25.8625 341.325Q25.440624 341.91876 24.596874 342.23126Q25.64375 342.575 26.190624 343.34064Q26.753124 344.10626 26.753124 345.16876Q26.753124 346.6375 25.70625 347.65314Q24.675 348.65314 22.971874 348.65314Q21.284374 348.65314 20.2375 347.65314Q19.20625 346.6375 19.20625 345.1375Q19.20625 344.0125 19.76875 343.2625Q20.33125 342.5125 21.378124 342.23126ZM21.096874 339.85626Q21.096874 340.66876 21.6125 341.1844Q22.14375 341.7 22.9875 341.7Q23.8 341.7 24.315624 341.1844Q24.83125 340.66876 24.83125 339.9344Q24.83125 339.15314 24.3 338.6375Q23.76875 338.10626 22.971874 338.10626Q22.159374 338.10626 21.628124 338.6219Q21.096874 339.1375 21.096874 339.85626ZM20.64375 345.1375Q20.64375 345.7469 20.925 346.3094Q21.221874 346.8719 21.784374 347.1844Q22.346874 347.48126 22.9875 347.48126Q24.003124 347.48126 24.659374 346.84064Q25.315624 346.1844 25.315624 345.1844Q25.315624 344.16876 24.628124 343.5125Q23.95625 342.84064 22.940624 342.84064Q21.95625 342.84064 21.3 343.4969Q20.64375 344.15314 20.64375 345.1375ZM28.315624 338.4969L28.315624 337.1375L35.721874 337.1375L35.721874 338.23126Q34.628124 339.40314 33.55 341.34064Q32.4875 343.2625 31.89375 345.29376Q31.471874 346.73126 31.3625 348.45L29.909374 348.45Q29.940624 347.09064 30.440624 345.1844Q30.95625 343.2625 31.89375 341.4969Q32.846874 339.71564 33.925 338.4969L28.315624 338.4969ZM38.003124 348.45L38.003124 346.84064L39.6125 346.84064L39.6125 348.45L38.003124 348.45ZM41.221874 345.45L42.690624 345.325Q42.8625 346.40314 43.45625 346.95Q44.05 347.48126 44.89375 347.48126Q45.909374 347.48126 46.6125 346.71564Q47.315624 345.95 47.315624 344.6844Q47.315624 343.48126 46.64375 342.79376Q45.971874 342.09064 44.878124 342.09064Q44.190624 342.09064 43.64375 342.40314Q43.096874 342.71564 42.784374 343.2L41.471874 343.02814L42.58125 337.15314L48.26875 337.15314L48.26875 338.4969L43.70625 338.4969L43.08125 341.575Q44.1125 340.85626 45.253124 340.85626Q46.753124 340.85626 47.784374 341.90314Q48.815624 342.9344 48.815624 344.5594Q48.815624 346.1219 47.909374 347.2469Q46.8 348.65314 44.89375 348.65314Q43.33125 348.65314 42.346874 347.77814Q41.3625 346.8875 41.221874 345.45ZM50.4875 339.7469Q50.4875 338.5125 51.096874 337.65314Q51.721874 336.79376 52.89375 336.79376Q53.971874 336.79376 54.675 337.575Q55.378124 338.34064 55.378124 339.825Q55.378124 341.27814 54.659374 342.075Q53.95625 342.85626 52.909374 342.85626Q51.8625 342.85626 51.175 342.09064Q50.4875 341.3094 50.4875 339.7469ZM52.925 337.7625Q52.409374 337.7625 52.05 338.21564Q51.70625 338.66876 51.70625 339.8875Q51.70625 340.98126 52.05 341.4344Q52.409374 341.8875 52.925 341.8875Q53.45625 341.8875 53.8 341.4344Q54.159374 340.98126 54.159374 339.77814Q54.159374 338.66876 53.8 338.21564Q53.45625 337.7625 52.925 337.7625ZM52.940624 348.8719L59.20625 336.79376L60.346874 336.79376L54.096874 348.8719L52.940624 348.8719ZM57.89375 345.7625Q57.89375 344.52814 58.503124 343.66876Q59.128124 342.8094 60.3 342.8094Q61.378124 342.8094 62.08125 343.59064Q62.8 344.35626 62.8 345.84064Q62.8 347.29376 62.08125 348.09064Q61.3625 348.8719 60.315624 348.8719Q59.26875 348.8719 58.58125 348.09064Q57.89375 347.3094 57.89375 345.7625ZM60.346874 343.77814Q59.815624 343.77814 59.45625 344.23126Q59.1125 344.6844 59.1125 345.90314Q59.1125 346.9969 59.45625 347.45Q59.815624 347.90314 60.33125 347.90314Q60.878124 347.90314 61.221874 347.45Q61.565624 346.9969 61.565624 345.79376Q61.565624 344.6844 61.20625 344.23126Q60.8625 343.77814 60.346874 343.77814Z" fill-rule="nonzero"/><path stroke="#757575" stroke-width="1.0" stroke-linecap="butt" d="M18.55 331.95L145.23334 331.95L245.91599 334.2537" fill-rule="nonzero"/><path fill="#9e9e9e" d="M247.91599 334.2537C247.91599 333.1491 247.02055 332.2537 245.91599 332.2537C244.81142 332.2537 243.91599 333.1491 243.91599 334.2537C243.91599 335.35825 244.81142 336.2537 245.91599 336.2537C247.02055 336.2537 247.91599 335.35825 247.91599 334.2537" fill-rule="nonzero"/><path fill="#1a1a1a" d="M477.23126 64.33854Q477.23126 61.479164 478.7625 59.86979Q480.29376 58.260414 482.71564 58.260414Q484.29376 58.260414 485.5594 59.02604Q486.84064 59.77604 487.5125 61.135414Q488.1844 62.479164 488.1844 64.197914Q488.1844 65.947914 487.48126 67.322914Q486.77814 68.697914 485.48126 69.416664Q484.2 70.11979 482.7 70.11979Q481.09064 70.11979 479.8094 69.33854Q478.54376 68.541664 477.8875 67.197914Q477.23126 65.83854 477.23126 64.33854ZM478.79376 64.354164Q478.79376 66.43229 479.90314 67.61979Q481.0125 68.80729 482.7 68.80729Q484.40314 68.80729 485.5125 67.604164Q486.6219 66.40104 486.6219 64.197914Q486.6219 62.791664 486.1375 61.760414Q485.66876 60.71354 484.7625 60.135414Q483.85626 59.55729 482.71564 59.55729Q481.10626 59.55729 479.95 60.666664Q478.79376 61.77604 478.79376 64.354164ZM491.8094 69.916664L488.65314 61.61979L490.1375 61.61979L491.91876 66.58854Q492.21564 67.385414 492.45 68.260414Q492.6375 67.604164 492.98126 66.68229L494.825 61.61979L496.2625 61.61979L493.1219 69.916664L491.8094 69.916664ZM502.1844 67.24479L503.6375 67.416664Q503.29376 68.697914 502.35626 69.40104Q501.4344 70.104164 499.9969 70.104164Q498.16876 70.104164 497.10626 68.979164Q496.04376 67.854164 496.04376 65.83854Q496.04376 63.74479 497.1219 62.58854Q498.2 61.43229 499.91876 61.43229Q501.575 61.43229 502.6219 62.572914Q503.6844 63.697914 503.6844 65.74479Q503.6844 65.86979 503.6844 66.11979L497.4969 66.11979Q497.575 67.49479 498.2625 68.229164Q498.96564 68.947914 499.9969 68.947914Q500.77814 68.947914 501.325 68.541664Q501.8719 68.135414 502.1844 67.24479ZM497.575 64.96354L502.2 64.96354Q502.10626 63.916664 501.66876 63.40104Q500.9969 62.58854 499.9344 62.58854Q498.96564 62.58854 498.29376 63.24479Q497.6375 63.885414 497.575 64.96354ZM505.4969 69.916664L505.4969 61.61979L506.7625 61.61979L506.7625 62.86979Q507.2469 61.99479 507.65314 61.71354Q508.0594 61.43229 508.5594 61.43229Q509.2625 61.43229 509.9969 61.885414L509.5125 63.18229Q508.9969 62.885414 508.48126 62.885414Q508.02814 62.885414 507.65314 63.166664Q507.29376 63.43229 507.1375 63.93229Q506.90314 64.68229 506.90314 65.572914L506.90314 69.916664L505.4969 69.916664ZM510.5125 73.104164L510.5125 61.61979L511.79376 61.61979L511.79376 62.697914Q512.2469 62.05729 512.8094 61.74479Q513.3875 61.43229 514.2 61.43229Q515.2625 61.43229 516.075 61.979164Q516.8875 62.52604 517.29376 63.52604Q517.71564 64.510414 517.71564 65.697914Q517.71564 66.979164 517.2469 67.99479Q516.79376 69.010414 515.91876 69.55729Q515.0594 70.104164 514.09064 70.104164Q513.3875 70.104164 512.825 69.80729Q512.27814 69.510414 511.91876 69.05729L511.91876 73.104164L510.5125 73.104164ZM511.77814 65.80729Q511.77814 67.416664 512.41876 68.18229Q513.075 68.947914 513.9969 68.947914Q514.9344 68.947914 515.60626 68.15104Q516.27814 67.354164 516.27814 65.697914Q516.27814 64.104164 515.6219 63.322914Q514.96564 62.52604 514.0594 62.52604Q513.16876 62.52604 512.46564 63.36979Q511.77814 64.21354 511.77814 65.80729ZM525.1844 67.24479L526.6375 67.416664Q526.29376 68.697914 525.35626 69.40104Q524.4344 70.104164 522.9969 70.104164Q521.16876 70.104164 520.10626 68.979164Q519.04376 67.854164 519.04376 65.83854Q519.04376 63.74479 520.1219 62.58854Q521.2 61.43229 522.91876 61.43229Q524.575 61.43229 525.6219 62.572914Q526.6844 63.697914 526.6844 65.74479Q526.6844 65.86979 526.6844 66.11979L520.4969 66.11979Q520.575 67.49479 521.2625 68.229164Q521.96564 68.947914 522.9969 68.947914Q523.77814 68.947914 524.325 68.541664Q524.8719 68.135414 525.1844 67.24479ZM520.575 64.96354L525.2 64.96354Q525.10626 63.916664 524.66876 63.40104Q523.9969 62.58854 522.9344 62.58854Q521.96564 62.58854 521.29376 63.24479Q520.6375 63.885414 520.575 64.96354ZM528.4969 69.916664L528.4969 61.61979L529.7625 61.61979L529.7625 62.86979Q530.2469 61.99479 530.65314 61.71354Q531.0594 61.43229 531.5594 61.43229Q532.2625 61.43229 532.9969 61.885414L532.5125 63.18229Q531.9969 62.885414 531.48126 62.885414Q531.02814 62.885414 530.65314 63.166664Q530.29376 63.43229 530.1375 63.93229Q529.90314 64.68229 529.90314 65.572914L529.90314 69.916664L528.4969 69.916664ZM533.84064 69.916664L533.84064 62.71354L532.60626 62.71354L532.60626 61.61979L533.84064 61.61979L533.84064 60.729164Q533.84064 59.90104 533.9969 59.49479Q534.2 58.947914 534.7 58.604164Q535.21564 58.260414 536.1375 58.260414Q536.73126 58.260414 537.45 58.40104L537.2469 59.635414Q536.8094 59.55729 536.41876 59.55729Q535.77814 59.55729 535.5125 59.83854Q535.2469 60.104164 535.2469 60.854164L535.2469 61.61979L536.85626 61.61979L536.85626 62.71354L535.2469 62.71354L535.2469 69.916664L533.84064 69.916664ZM536.98126 65.760414Q536.98126 63.46354 538.2625 62.354164Q539.34064 61.43229 540.8719 61.43229Q542.59064 61.43229 543.66876 62.55729Q544.7625 63.666664 544.7625 65.65104Q544.7625 67.24479 544.27814 68.166664Q543.79376 69.08854 542.8719 69.604164Q541.96564 70.104164 540.8719 70.104164Q539.1375 70.104164 538.0594 68.99479Q536.98126 67.86979 536.98126 65.760414ZM538.4344 65.760414Q538.4344 67.354164 539.1219 68.15104Q539.825 68.947914 540.8719 68.947914Q541.91876 68.947914 542.60626 68.15104Q543.3094 67.354164 543.3094 65.71354Q543.3094 64.18229 542.60626 63.385414Q541.91876 62.58854 540.8719 62.58854Q539.825 62.58854 539.1219 63.385414Q538.4344 64.166664 538.4344 65.760414ZM546.4969 69.916664L546.4969 61.61979L547.7625 61.61979L547.7625 62.86979Q548.2469 61.99479 548.65314 61.71354Q549.0594 61.43229 549.5594 61.43229Q550.2625 61.43229 550.9969 61.885414L550.5125 63.18229Q549.9969 62.885414 549.48126 62.885414Q549.02814 62.885414 548.65314 63.166664Q548.29376 63.43229 548.1375 63.93229Q547.90314 64.68229 547.90314 65.572914L547.90314 69.916664L546.4969 69.916664ZM551.5125 69.916664L551.5125 61.61979L552.7625 61.61979L552.7625 62.77604Q553.15314 62.166664 553.79376 61.80729Q554.45 61.43229 555.27814 61.43229Q556.2 61.43229 556.79376 61.822914Q557.3875 62.197914 557.6219 62.885414Q558.60626 61.43229 560.1844 61.43229Q561.41876 61.43229 562.075 62.11979Q562.7469 62.791664 562.7469 64.21354L562.7469 69.916664L561.35626 69.916664L561.35626 64.68229Q561.35626 63.83854 561.21564 63.479164Q561.075 63.104164 560.71564 62.885414Q560.35626 62.65104 559.8719 62.65104Q558.9969 62.65104 558.41876 63.229164Q557.84064 63.80729 557.84064 65.08854L557.84064 69.916664L556.4344 69.916664L556.4344 64.52604Q556.4344 63.58854 556.09064 63.11979Q555.7469 62.65104 554.96564 62.65104Q554.3719 62.65104 553.8719 62.96354Q553.3719 63.27604 553.1375 63.885414Q552.91876 64.479164 552.91876 65.604164L552.91876 69.916664L551.5125 69.916664ZM570.1844 67.24479L571.6375 67.416664Q571.29376 68.697914 570.35626 69.40104Q569.4344 70.104164 567.9969 70.104164Q566.16876 70.104164 565.10626 68.979164Q564.04376 67.854164 564.04376 65.83854Q564.04376 63.74479 565.1219 62.58854Q566.2 61.43229 567.91876 61.43229Q569.575 61.43229 570.6219 62.572914Q571.6844 63.697914 571.6844 65.74479Q571.6844 65.86979 571.6844 66.11979L565.4969 66.11979Q565.575 67.49479 566.2625 68.229164Q566.96564 68.947914 567.9969 68.947914Q568.77814 68.947914 569.325 68.541664Q569.8719 68.135414 570.1844 67.24479ZM565.575 64.96354L570.2 64.96354Q570.10626 63.916664 569.66876 63.40104Q568.9969 62.58854 567.9344 62.58854Q566.96564 62.58854 566.29376 63.24479Q565.6375 63.885414 565.575 64.96354ZM578.8875 69.916664L578.8875 68.86979Q578.10626 70.104164 576.575 70.104164Q575.575 70.104164 574.7469 69.55729Q573.91876 69.010414 573.45 68.02604Q572.9969 67.041664 572.9969 65.77604Q572.9969 64.52604 573.40314 63.52604Q573.825 62.510414 574.65314 61.979164Q575.48126 61.43229 576.5125 61.43229Q577.2625 61.43229 577.84064 61.74479Q578.4344 62.05729 578.79376 62.572914L578.79376 58.46354L580.2 58.46354L580.2 69.916664L578.8875 69.916664ZM574.45 65.77604Q574.45 67.36979 575.1219 68.166664Q575.79376 68.947914 576.7 68.947914Q577.6219 68.947914 578.2625 68.197914Q578.91876 67.43229 578.91876 65.885414Q578.91876 64.18229 578.2625 63.385414Q577.60626 62.58854 576.6375 62.58854Q575.7 62.58854 575.075 63.354164Q574.45 64.11979 574.45 65.77604Z" fill-rule="nonzero"/><path fill="#9e9e9e" d="M542.41876 91.916664L541.0125 91.916664L541.0125 82.947914Q540.4969 83.43229 539.66876 83.916664Q538.85626 84.40104 538.2 84.65104L538.2 83.291664Q539.3719 82.729164 540.2469 81.947914Q541.1375 81.15104 541.5125 80.416664L542.41876 80.416664L542.41876 91.916664ZM553.5125 90.55729L553.5125 91.916664L545.9344 91.916664Q545.91876 91.40104 546.10626 90.93229Q546.3875 90.166664 547.02814 89.416664Q547.66876 88.666664 548.8719 87.68229Q550.73126 86.15104 551.3875 85.260414Q552.04376 84.354164 552.04376 83.55729Q552.04376 82.729164 551.45 82.15104Q550.85626 81.572914 549.8875 81.572914Q548.8719 81.572914 548.2625 82.18229Q547.65314 82.791664 547.65314 83.86979L546.2 83.729164Q546.35626 82.104164 547.325 81.260414Q548.29376 80.416664 549.91876 80.416664Q551.575 80.416664 552.52814 81.33854Q553.4969 82.24479 553.4969 83.58854Q553.4969 84.27604 553.21564 84.947914Q552.9344 85.604164 552.27814 86.33854Q551.6219 87.072914 550.10626 88.354164Q548.84064 89.416664 548.48126 89.80729Q548.1219 90.18229 547.8875 90.55729L553.5125 90.55729ZM555.90314 91.916664L555.90314 90.30729L557.5125 90.30729L557.5125 91.916664L555.90314 91.916664ZM559.1219 88.916664L560.59064 88.791664Q560.7625 89.86979 561.35626 90.416664Q561.95 90.947914 562.79376 90.947914Q563.8094 90.947914 564.5125 90.18229Q565.21564 89.416664 565.21564 88.15104Q565.21564 86.947914 564.54376 86.260414Q563.8719 85.55729 562.77814 85.55729Q562.09064 85.55729 561.54376 85.86979Q560.9969 86.18229 560.6844 86.666664L559.3719 86.49479L560.48126 80.61979L566.16876 80.61979L566.16876 81.96354L561.60626 81.96354L560.98126 85.041664Q562.0125 84.322914 563.15314 84.322914Q564.65314 84.322914 565.6844 85.36979Q566.71564 86.40104 566.71564 88.02604Q566.71564 89.58854 565.8094 90.71354Q564.7 92.11979 562.79376 92.11979Q561.23126 92.11979 560.2469 91.24479Q559.2625 90.354164 559.1219 88.916664ZM568.3875 83.21354Q568.3875 81.979164 568.9969 81.11979Q569.6219 80.260414 570.79376 80.260414Q571.8719 80.260414 572.575 81.041664Q573.27814 81.80729 573.27814 83.291664Q573.27814 84.74479 572.5594 85.541664Q571.85626 86.322914 570.8094 86.322914Q569.7625 86.322914 569.075 85.55729Q568.3875 84.77604 568.3875 83.21354ZM570.825 81.229164Q570.3094 81.229164 569.95 81.68229Q569.60626 82.135414 569.60626 83.354164Q569.60626 84.447914 569.95 84.90104Q570.3094 85.354164 570.825 85.354164Q571.35626 85.354164 571.7 84.90104Q572.0594 84.447914 572.0594 83.24479Q572.0594 82.135414 571.7 81.68229Q571.35626 81.229164 570.825 81.229164ZM570.84064 92.33854L577.10626 80.260414L578.2469 80.260414L571.9969 92.33854L570.84064 92.33854ZM575.79376 89.229164Q575.79376 87.99479 576.40314 87.135414Q577.02814 86.27604 578.2 86.27604Q579.27814 86.27604 579.98126 87.05729Q580.7 87.822914 580.7 89.30729Q580.7 90.760414 579.98126 91.55729Q579.2625 92.33854 578.21564 92.33854Q577.16876 92.33854 576.48126 91.55729Q575.79376 90.77604 575.79376 89.229164ZM578.2469 87.24479Q577.71564 87.24479 577.35626 87.697914Q577.0125 88.15104 577.0125 89.36979Q577.0125 90.46354 577.35626 90.916664Q577.71564 91.36979 578.23126 91.36979Q578.77814 91.36979 579.1219 90.916664Q579.46564 90.46354 579.46564 89.260414Q579.46564 88.15104 579.10626 87.697914Q578.7625 87.24479 578.2469 87.24479Z" fill-rule="nonzero"/><path stroke="#757575" stroke-width="1.0" stroke-linecap="butt" d="M581.45 75.416664L454.76666 75.416664L354.084 73.112976" fill-rule="nonzero"/><path fill="#9e9e9e" d="M356.084 73.112976C356.084 72.00841 355.18857 71.112976 354.084 71.112976C352.97943 71.112976 352.084 72.00841 352.084 73.112976C352.084 74.217545 352.97943 75.112976 354.084 75.112976C355.18857 75.112976 356.084 74.217545 356.084 73.112976" fill-rule="nonzero"/><path fill="#000000" d="M20.409374 37.55L20.409374 23.2375L22.315624 23.2375L22.315624 37.55L20.409374 37.55ZM25.8625 37.55L25.8625 27.175L27.45625 27.175L27.45625 28.659374Q28.596874 26.940624 30.753124 26.940624Q31.690624 26.940624 32.471874 27.284374Q33.26875 27.6125 33.659374 28.159374Q34.05 28.70625 34.20625 29.45625Q34.3 29.95625 34.3 31.175L34.3 37.55L32.534374 37.55L32.534374 31.2375Q32.534374 30.159374 32.33125 29.628124Q32.128124 29.096874 31.596874 28.784374Q31.08125 28.471874 30.378124 28.471874Q29.253124 28.471874 28.440624 29.190624Q27.628124 29.89375 27.628124 31.878124L27.628124 37.55L25.8625 37.55ZM39.70625 35.971874L39.95625 37.534374Q39.221874 37.690624 38.628124 37.690624Q37.675 37.690624 37.14375 37.39375Q36.628124 37.08125 36.409374 36.596874Q36.190624 36.096874 36.190624 34.51875L36.190624 28.55L34.909374 28.55L34.909374 27.175L36.190624 27.175L36.190624 24.6125L37.940624 23.55L37.940624 27.175L39.70625 27.175L39.70625 28.55L37.940624 28.55L37.940624 34.6125Q37.940624 35.3625 38.034374 35.58125Q38.128124 35.784374 38.33125 35.925Q38.55 36.05 38.940624 36.05Q39.221874 36.05 39.70625 35.971874ZM48.64375 36.26875Q47.659374 37.096874 46.753124 37.440624Q45.846874 37.784374 44.815624 37.784374Q43.1125 37.784374 42.190624 36.95625Q41.26875 36.1125 41.26875 34.815624Q41.26875 34.05 41.6125 33.425Q41.971874 32.8 42.534374 32.425Q43.096874 32.034374 43.8 31.83125Q44.315624 31.70625 45.3625 31.565624Q47.4875 31.315624 48.4875 30.971874Q48.503124 30.6125 48.503124 30.503124Q48.503124 29.440624 48.003124 28.9875Q47.33125 28.39375 46.003124 28.39375Q44.753124 28.39375 44.159374 28.83125Q43.58125 29.26875 43.3 30.378124L41.58125 30.14375Q41.815624 29.034374 42.346874 28.3625Q42.878124 27.675 43.89375 27.315624Q44.909374 26.940624 46.253124 26.940624Q47.58125 26.940624 48.409374 27.253124Q49.2375 27.565624 49.628124 28.05Q50.01875 28.51875 50.175 29.2375Q50.26875 29.690624 50.26875 30.8625L50.26875 33.20625Q50.26875 35.659374 50.378124 36.315624Q50.4875 36.95625 50.83125 37.55L48.9875 37.55Q48.721874 37.003124 48.64375 36.26875ZM48.4875 32.346874Q47.534374 32.7375 45.6125 33.003124Q44.534374 33.159374 44.08125 33.3625Q43.64375 33.55 43.39375 33.925Q43.14375 34.3 43.14375 34.76875Q43.14375 35.471874 43.675 35.940624Q44.20625 36.409374 45.2375 36.409374Q46.253124 36.409374 47.034374 35.971874Q47.83125 35.51875 48.20625 34.753124Q48.4875 34.14375 48.4875 32.9875L48.4875 32.346874ZM52.878124 37.55L52.878124 23.2375L54.64375 23.2375L54.64375 31.39375L58.8 27.175L61.065624 27.175L57.1125 31.01875L61.471874 37.55L59.3 37.55L55.878124 32.253124L54.64375 33.440624L54.64375 37.55L52.878124 37.55ZM69.97188 34.20625L71.78438 34.440624Q71.3625 36.01875 70.19063 36.909374Q69.03438 37.784374 67.22188 37.784374Q64.95625 37.784374 63.6125 36.39375Q62.284374 34.9875 62.284374 32.45625Q62.284374 29.83125 63.628124 28.39375Q64.97188 26.940624 67.12813 26.940624Q69.20625 26.940624 70.51875 28.3625Q71.84688 29.76875 71.84688 32.346874Q71.84688 32.503124 71.83125 32.815624L64.09688 32.815624Q64.19063 34.51875 65.06563 35.425Q65.94063 36.33125 67.2375 36.33125Q68.20625 36.33125 68.87813 35.83125Q69.56563 35.315624 69.97188 34.20625ZM64.19063 31.3625L69.9875 31.3625Q69.87813 30.065624 69.33125 29.409374Q68.4875 28.39375 67.14375 28.39375Q65.94063 28.39375 65.1125 29.20625Q64.28438 30.003124 64.19063 31.3625ZM80.09688 37.55L80.09688 23.2375L85.4875 23.2375Q86.925 23.2375 87.675 23.3625Q88.72188 23.55 89.44063 24.05Q90.15938 24.534374 90.58125 25.425Q91.01875 26.315624 91.01875 27.378124Q91.01875 29.20625 89.84688 30.471874Q88.69063 31.721874 85.65938 31.721874L81.9875 31.721874L81.9875 37.55L80.09688 37.55ZM81.9875 30.034374L85.69063 30.034374Q87.51875 30.034374 88.28438 29.3625Q89.06563 28.675 89.06563 27.425Q89.06563 26.534374 88.6125 25.89375Q88.15938 25.253124 87.425 25.05Q86.94063 24.925 85.64375 24.925L81.9875 24.925L81.9875 30.034374ZM99.97188 34.20625L101.78438 34.440624Q101.3625 36.01875 100.19063 36.909374Q99.03438 37.784374 97.22188 37.784374Q94.95625 37.784374 93.6125 36.39375Q92.28438 34.9875 92.28438 32.45625Q92.28438 29.83125 93.62813 28.39375Q94.97188 26.940624 97.12813 26.940624Q99.20625 26.940624 100.51875 28.3625Q101.84688 29.76875 101.84688 32.346874Q101.84688 32.503124 101.83125 32.815624L94.09688 32.815624Q94.19063 34.51875 95.06563 35.425Q95.94063 36.33125 97.2375 36.33125Q98.20625 36.33125 98.87813 35.83125Q99.56563 35.315624 99.97188 34.20625ZM94.19063 31.3625L99.9875 31.3625Q99.87813 30.065624 99.33125 29.409374Q98.4875 28.39375 97.14375 28.39375Q95.94063 28.39375 95.1125 29.20625Q94.28438 30.003124 94.19063 31.3625ZM103.84688 37.55L103.84688 27.175L105.425 27.175L105.425 28.753124Q106.03438 27.64375 106.55 27.3Q107.06563 26.940624 107.675 26.940624Q108.56563 26.940624 109.4875 27.503124L108.87813 29.14375Q108.2375 28.753124 107.59688 28.753124Q107.01875 28.753124 106.55 29.1125Q106.09688 29.45625 105.89375 30.065624Q105.6125 31.003124 105.6125 32.1125L105.6125 37.55L103.84688 37.55ZM111.28438 37.55L111.28438 28.55L109.7375 28.55L109.7375 27.175L111.28438 27.175L111.28438 26.08125Q111.28438 25.034374 111.47188 24.51875Q111.72188 23.83125 112.3625 23.409374Q113.00313 22.9875 114.15938 22.9875Q114.90938 22.9875 115.8 23.159374L115.53438 24.690624Q114.9875 24.596874 114.50313 24.596874Q113.70625 24.596874 113.3625 24.940624Q113.03438 25.284374 113.03438 26.221874L113.03438 27.175L115.06563 27.175L115.06563 28.55L113.03438 28.55L113.03438 37.55L111.28438 37.55ZM116.22188 32.3625Q116.22188 29.4875 117.81563 28.096874Q119.15938 26.940624 121.08125 26.940624Q123.22188 26.940624 124.56563 28.346874Q125.925 29.753124 125.925 32.221874Q125.925 34.221874 125.33125 35.378124Q124.7375 36.51875 123.58125 37.159374Q122.44063 37.784374 121.08125 37.784374Q118.89375 37.784374 117.55 36.39375Q116.22188 34.9875 116.22188 32.3625ZM118.01875 32.3625Q118.01875 34.3625 118.87813 35.346874Q119.75313 36.33125 121.08125 36.33125Q122.39375 36.33125 123.25313 35.346874Q124.12813 34.346874 124.12813 32.3Q124.12813 30.378124 123.25313 29.39375Q122.37813 28.39375 121.08125 28.39375Q119.75313 28.39375 118.87813 29.39375Q118.01875 30.378124 118.01875 32.3625ZM127.84688 37.55L127.84688 27.175L129.425 27.175L129.425 28.753124Q130.03438 27.64375 130.55 27.3Q131.06563 26.940624 131.675 26.940624Q132.56563 26.940624 133.4875 27.503124L132.87813 29.14375Q132.2375 28.753124 131.59688 28.753124Q131.01875 28.753124 130.55 29.1125Q130.09688 29.45625 129.89375 30.065624Q129.6125 31.003124 129.6125 32.1125L129.6125 37.55L127.84688 37.55ZM134.8625 37.55L134.8625 27.175L136.44063 27.175L136.44063 28.628124Q136.925 27.878124 137.7375 27.409374Q138.55 26.940624 139.58125 26.940624Q140.7375 26.940624 141.47188 27.425Q142.20625 27.89375 142.51875 28.753124Q143.75313 26.940624 145.72188 26.940624Q147.26875 26.940624 148.09688 27.8Q148.925 28.659374 148.925 30.425L148.925 37.55L147.175 37.55L147.175 31.01875Q147.175 29.95625 147.00313 29.503124Q146.83125 29.034374 146.37813 28.753124Q145.94063 28.471874 145.33125 28.471874Q144.2375 28.471874 143.50313 29.20625Q142.78438 29.925 142.78438 31.51875L142.78438 37.55L141.03438 37.55L141.03438 30.815624Q141.03438 29.64375 140.59688 29.065624Q140.175 28.471874 139.19063 28.471874Q138.45625 28.471874 137.81563 28.8625Q137.19063 29.253124 136.90938 30.003124Q136.62813 30.753124 136.62813 32.175L136.62813 37.55L134.8625 37.55ZM157.64375 36.26875Q156.65938 37.096874 155.75313 37.440624Q154.84688 37.784374 153.81563 37.784374Q152.1125 37.784374 151.19063 36.95625Q150.26875 36.1125 150.26875 34.815624Q150.26875 34.05 150.6125 33.425Q150.97188 32.8 151.53438 32.425Q152.09688 32.034374 152.8 31.83125Q153.31563 31.70625 154.3625 31.565624Q156.4875 31.315624 157.4875 30.971874Q157.50313 30.6125 157.50313 30.503124Q157.50313 29.440624 157.00313 28.9875Q156.33125 28.39375 155.00313 28.39375Q153.75313 28.39375 153.15938 28.83125Q152.58125 29.26875 152.3 30.378124L150.58125 30.14375Q150.81563 29.034374 151.34688 28.3625Q151.87813 27.675 152.89375 27.315624Q153.90938 26.940624 155.25313 26.940624Q156.58125 26.940624 157.40938 27.253124Q158.2375 27.565624 158.62813 28.05Q159.01875 28.51875 159.175 29.2375Q159.26875 29.690624 159.26875 30.8625L159.26875 33.20625Q159.26875 35.659374 159.37813 36.315624Q159.4875 36.95625 159.83125 37.55L157.9875 37.55Q157.72188 37.003124 157.64375 36.26875ZM157.4875 32.346874Q156.53438 32.7375 154.6125 33.003124Q153.53438 33.159374 153.08125 33.3625Q152.64375 33.55 152.39375 33.925Q152.14375 34.3 152.14375 34.76875Q152.14375 35.471874 152.675 35.940624Q153.20625 36.409374 154.2375 36.409374Q155.25313 36.409374 156.03438 35.971874Q156.83125 35.51875 157.20625 34.753124Q157.4875 34.14375 157.4875 32.9875L157.4875 32.346874ZM161.8625 37.55L161.8625 27.175L163.45625 27.175L163.45625 28.659374Q164.59688 26.940624 166.75313 26.940624Q167.69063 26.940624 168.47188 27.284374Q169.26875 27.6125 169.65938 28.159374Q170.05 28.70625 170.20625 29.45625Q170.3 29.95625 170.3 31.175L170.3 37.55L168.53438 37.55L168.53438 31.2375Q168.53438 30.159374 168.33125 29.628124Q168.12813 29.096874 167.59688 28.784374Q167.08125 28.471874 166.37813 28.471874Q165.25313 28.471874 164.44063 29.190624Q163.62813 29.89375 163.62813 31.878124L163.62813 37.55L161.8625 37.55ZM178.64375 33.753124L180.3625 33.971874Q180.08125 35.76875 178.90938 36.784374Q177.75313 37.784374 176.05 37.784374Q173.925 37.784374 172.62813 36.39375Q171.33125 35.003124 171.33125 32.409374Q171.33125 30.721874 171.87813 29.471874Q172.44063 28.20625 173.58125 27.58125Q174.72188 26.940624 176.06563 26.940624Q177.75313 26.940624 178.81563 27.8Q179.89375 28.659374 180.20625 30.221874L178.4875 30.4875Q178.25313 29.440624 177.62813 28.925Q177.00313 28.39375 176.12813 28.39375Q174.8 28.39375 173.97188 29.346874Q173.14375 30.3 173.14375 32.346874Q173.14375 34.440624 173.94063 35.39375Q174.7375 36.33125 176.03438 36.33125Q177.06563 36.33125 177.75313 35.70625Q178.45625 35.065624 178.64375 33.753124ZM188.97188 34.20625L190.78438 34.440624Q190.3625 36.01875 189.19063 36.909374Q188.03438 37.784374 186.22188 37.784374Q183.95625 37.784374 182.6125 36.39375Q181.28438 34.9875 181.28438 32.45625Q181.28438 29.83125 182.62813 28.39375Q183.97188 26.940624 186.12813 26.940624Q188.20625 26.940624 189.51875 28.3625Q190.84688 29.76875 190.84688 32.346874Q190.84688 32.503124 190.83125 32.815624L183.09688 32.815624Q183.19063 34.51875 184.06563 35.425Q184.94063 36.33125 186.2375 36.33125Q187.20625 36.33125 187.87813 35.83125Q188.56563 35.315624 188.97188 34.20625ZM183.19063 31.3625L188.9875 31.3625Q188.87813 30.065624 188.33125 29.409374Q187.4875 28.39375 186.14375 28.39375Q184.94063 28.39375 184.1125 29.20625Q183.28438 30.003124 183.19063 31.3625Z" fill-rule="nonzero"/></svg>