<svg version="1.1" viewBox="0.0 0.0 600.0 371.0" fill="none" stroke="none" stroke-linecap="square" stroke-miterlimit="10" width="600" height="371" xmlns:xlink="http://www.w3.org/1999/xlink" xmlns="http://www.w3.org/2000/svg"><path fill="#ffffff" d="M0 0L600.0 0L600.0 371.0L0 371.0L0 0Z" fill-rule="nonzero"/><path fill="#6aa84f" d="M300.0 54.916668C339.45538 54.916668 377.29477 70.590256 405.1939 98.48942L300.0 203.68333Z" fill-rule="nonzero"/><path fill="#ea4335" d="M194.80608 98.48942C222.70525 70.590256 260.54462 54.916668 300.0 54.916668L300.0 203.68333Z" fill-rule="nonzero"/><path fill="#fbbc04" d="M405.1939 98.48942C463.29092 156.58641 463.29092 250.78026 405.1939 308.87726C347.09692 366.97424 252.90308 366.97424 194.80608 308.87726C136.70909 250.78026 136.70909 156.58641 194.80608 98.48942L300.0 203.68333Z" fill-rule="nonzero"/><path fill="#000000" d="M314.86896 110.545044L313.63458 110.545044L313.63458 102.701294Q313.19708 103.12317 312.4627 103.56067Q311.74396 103.982544 311.18146 104.18567L311.18146 102.99817Q312.2127 102.513794 312.97833 101.826294Q313.75958 101.138794 314.07208 100.482544L314.86896 100.482544L314.86896 110.545044ZM324.93146 113.49817Q323.9002 112.201294 323.19708 110.482544Q322.49396 108.763794 322.49396 106.920044Q322.49396 105.295044 323.0252 103.795044Q323.63458 102.06067 324.93146 100.357544L325.80646 100.357544Q324.97833 101.77942 324.7127 102.388794Q324.29083 103.326294 324.05646 104.357544Q323.75958 105.62317 323.75958 106.920044Q323.75958 110.21692 325.80646 113.49817L324.93146 113.49817ZM331.86896 110.545044L330.63458 110.545044L330.63458 102.701294Q330.19708 103.12317 329.4627 103.56067Q328.74396 103.982544 328.18146 104.18567L328.18146 102.99817Q329.2127 102.513794 329.97833 101.826294Q330.75958 101.138794 331.07208 100.482544L331.86896 100.482544L331.86896 110.545044ZM341.69708 109.357544L341.69708 110.545044L335.07208 110.545044Q335.05646 110.107544 335.2127 109.68567Q335.47833 109.013794 336.0252 108.357544Q336.5877 107.701294 337.63458 106.84192Q339.2752 105.49817 339.8377 104.71692Q340.41583 103.93567 340.41583 103.232544Q340.41583 102.49817 339.88458 101.99817Q339.36896 101.49817 338.54083 101.49817Q337.6502 101.49817 337.10333 102.02942Q336.57208 102.56067 336.57208 103.513794L335.30646 103.37317Q335.43146 101.96692 336.2752 101.232544Q337.13458 100.482544 338.55646 100.482544Q340.00958 100.482544 340.8377 101.27942Q341.68146 102.076294 341.68146 103.263794Q341.68146 103.87317 341.43146 104.451294Q341.19708 105.02942 340.61896 105.670044Q340.05646 106.31067 338.72833 107.43567Q337.61896 108.357544 337.30646 108.701294Q336.99396 109.02942 336.79083 109.357544L341.69708 109.357544ZM343.91583 110.545044L343.91583 109.138794L345.32208 109.138794L345.32208 110.545044L343.91583 110.545044ZM347.22833 107.920044L348.5252 107.81067Q348.66583 108.74817 349.18146 109.232544Q349.7127 109.701294 350.44708 109.701294Q351.3377 109.701294 351.94708 109.02942Q352.57208 108.357544 352.57208 107.263794Q352.57208 106.201294 351.97833 105.59192Q351.38458 104.982544 350.43146 104.982544Q349.8377 104.982544 349.35333 105.263794Q348.88458 105.52942 348.60333 105.951294L347.44708 105.81067L348.41583 100.65442L353.4002 100.65442L353.4002 101.84192L349.4002 101.84192L348.86896 104.52942Q349.7752 103.90442 350.75958 103.90442Q352.07208 103.90442 352.9627 104.81067Q353.86896 105.71692 353.86896 107.15442Q353.86896 108.513794 353.0877 109.49817Q352.11896 110.71692 350.44708 110.71692Q349.0877 110.71692 348.2127 109.951294Q347.35333 109.18567 347.22833 107.920044ZM355.4627 102.93567Q355.4627 101.857544 355.99396 101.107544Q356.54083 100.357544 357.57208 100.357544Q358.50958 100.357544 359.11896 101.02942Q359.74396 101.701294 359.74396 102.99817Q359.74396 104.27942 359.11896 104.96692Q358.49396 105.65442 357.5877 105.65442Q356.68146 105.65442 356.07208 104.982544Q355.4627 104.295044 355.4627 102.93567ZM357.60333 101.201294Q357.1502 101.201294 356.8377 101.607544Q356.54083 101.99817 356.54083 103.045044Q356.54083 104.013794 356.8377 104.40442Q357.1502 104.795044 357.60333 104.795044Q358.07208 104.795044 358.36896 104.40442Q358.68146 104.013794 358.68146 102.951294Q358.68146 101.982544 358.36896 101.59192Q358.05646 101.201294 357.60333 101.201294ZM357.60333 110.920044L363.0877 100.357544L364.0877 100.357544L358.63458 110.920044L357.60333 110.920044ZM361.94708 108.18567Q361.94708 107.107544 362.47833 106.37317Q363.0252 105.62317 364.05646 105.62317Q364.99396 105.62317 365.61896 106.295044Q366.24396 106.96692 366.24396 108.263794Q366.24396 109.545044 365.61896 110.232544Q364.99396 110.920044 364.05646 110.920044Q363.1502 110.920044 362.54083 110.24817Q361.94708 109.56067 361.94708 108.18567ZM364.0877 106.46692Q363.61896 106.46692 363.32208 106.87317Q363.0252 107.263794 363.0252 108.31067Q363.0252 109.27942 363.32208 109.670044Q363.63458 110.06067 364.0877 110.06067Q364.55646 110.06067 364.85333 109.670044Q365.16583 109.27942 365.16583 108.21692Q365.16583 107.24817 364.85333 106.857544Q364.55646 106.46692 364.0877 106.46692ZM368.38458 113.49817L367.49396 113.49817Q369.54083 110.21692 369.54083 106.920044Q369.54083 105.638794 369.24396 104.37317Q369.00958 103.34192 368.60333 102.40442Q368.3377 101.795044 367.49396 100.357544L368.38458 100.357544Q369.66583 102.06067 370.2752 103.795044Q370.80646 105.295044 370.80646 106.920044Q370.80646 108.763794 370.0877 110.482544Q369.38458 112.201294 368.38458 113.49817Z" fill-rule="nonzero"/><path fill="#000000" d="M275.96875 319.76044L274.75 319.8542Q274.57812 319.1198 274.28125 318.7917Q273.78125 318.27606 273.04688 318.27606Q272.45312 318.27606 272.01562 318.6042Q271.4375 319.02606 271.09375 319.83856Q270.76562 320.65106 270.75 322.15106Q271.1875 321.4792 271.82812 321.15106Q272.48438 320.82294 273.1875 320.82294Q274.42188 320.82294 275.28125 321.7292Q276.14062 322.63544 276.14062 324.07294Q276.14062 325.01044 275.73438 325.82294Q275.32812 326.63544 274.60938 327.07294Q273.90625 327.4948 273.0 327.4948Q271.46875 327.4948 270.5 326.3698Q269.53125 325.2292 269.53125 322.63544Q269.53125 319.7292 270.59375 318.40106Q271.53125 317.26044 273.125 317.26044Q274.3125 317.26044 275.0625 317.9323Q275.8125 318.58856 275.96875 319.76044ZM270.9375 324.07294Q270.9375 324.71356 271.20312 325.2917Q271.48438 325.8698 271.96875 326.1823Q272.45312 326.4792 272.98438 326.4792Q273.76562 326.4792 274.32812 325.8542Q274.89062 325.2292 274.89062 324.15106Q274.89062 323.1042 274.32812 322.51044Q273.78125 321.90106 272.9375 321.90106Q272.10938 321.90106 271.51562 322.51044Q270.9375 323.1042 270.9375 324.07294ZM284.28125 330.27606Q283.25 328.9792 282.54688 327.26044Q281.84375 325.5417 281.84375 323.69794Q281.84375 322.07294 282.375 320.57294Q282.98438 318.83856 284.28125 317.13544L285.15625 317.13544Q284.32812 318.5573 284.0625 319.1667Q283.64062 320.1042 283.40625 321.13544Q283.10938 322.40106 283.10938 323.69794Q283.10938 326.9948 285.15625 330.27606L284.28125 330.27606ZM286.65625 318.6198L286.65625 317.4323L293.15625 317.4323L293.15625 318.38544Q292.1875 319.40106 291.25 321.08856Q290.3125 322.77606 289.79688 324.57294Q289.4375 325.82294 289.32812 327.32294L288.0625 327.32294Q288.07812 326.13544 288.51562 324.46356Q288.96875 322.7917 289.79688 321.2448Q290.64062 319.6823 291.57812 318.6198L286.65625 318.6198ZM294.57812 324.69794L295.875 324.58856Q296.01562 325.52606 296.53125 326.01044Q297.0625 326.4792 297.79688 326.4792Q298.6875 326.4792 299.29688 325.8073Q299.92188 325.13544 299.92188 324.0417Q299.92188 322.9792 299.32812 322.3698Q298.73438 321.76044 297.78125 321.76044Q297.1875 321.76044 296.70312 322.0417Q296.23438 322.3073 295.95312 322.7292L294.79688 322.58856L295.76562 317.4323L300.75 317.4323L300.75 318.6198L296.75 318.6198L296.21875 321.3073Q297.125 320.6823 298.10938 320.6823Q299.42188 320.6823 300.3125 321.58856Q301.21875 322.4948 301.21875 323.9323Q301.21875 325.2917 300.4375 326.27606Q299.46875 327.4948 297.79688 327.4948Q296.4375 327.4948 295.5625 326.7292Q294.70312 325.96356 294.57812 324.69794ZM303.26562 327.32294L303.26562 325.9167L304.67188 325.9167L304.67188 327.32294L303.26562 327.32294ZM306.57812 322.38544Q306.57812 320.6042 306.9375 319.52606Q307.3125 318.4323 308.03125 317.8542Q308.75 317.26044 309.84375 317.26044Q310.65625 317.26044 311.26562 317.58856Q311.875 317.9167 312.26562 318.52606Q312.67188 319.13544 312.89062 320.01044Q313.10938 320.88544 313.10938 322.38544Q313.10938 324.15106 312.75 325.2292Q312.39062 326.3073 311.67188 326.90106Q310.95312 327.4948 309.84375 327.4948Q308.40625 327.4948 307.57812 326.44794Q306.57812 325.19794 306.57812 322.38544ZM307.84375 322.38544Q307.84375 324.8542 308.42188 325.6667Q309.0 326.4792 309.84375 326.4792Q310.70312 326.4792 311.28125 325.6667Q311.85938 324.83856 311.85938 322.38544Q311.85938 319.90106 311.28125 319.08856Q310.70312 318.27606 309.82812 318.27606Q308.98438 318.27606 308.48438 318.9948Q307.84375 319.9167 307.84375 322.38544ZM314.8125 319.71356Q314.8125 318.63544 315.34375 317.88544Q315.89062 317.13544 316.92188 317.13544Q317.85938 317.13544 318.46875 317.8073Q319.09375 318.4792 319.09375 319.77606Q319.09375 321.0573 318.46875 321.7448Q317.84375 322.4323 316.9375 322.4323Q316.03125 322.4323 315.42188 321.76044Q314.8125 321.07294 314.8125 319.71356ZM316.95312 317.9792Q316.5 317.9792 316.1875 318.38544Q315.89062 318.77606 315.89062 319.82294Q315.89062 320.7917 316.1875 321.1823Q316.5 321.57294 316.95312 321.57294Q317.42188 321.57294 317.71875 321.1823Q318.03125 320.7917 318.03125 319.7292Q318.03125 318.76044 317.71875 318.3698Q317.40625 317.9792 316.95312 317.9792ZM316.95312 327.69794L322.4375 317.13544L323.4375 317.13544L317.98438 327.69794L316.95312 327.69794ZM321.29688 324.96356Q321.29688 323.88544 321.82812 323.15106Q322.375 322.40106 323.40625 322.40106Q324.34375 322.40106 324.96875 323.07294Q325.59375 323.7448 325.59375 325.0417Q325.59375 326.32294 324.96875 327.01044Q324.34375 327.69794 323.40625 327.69794Q322.5 327.69794 321.89062 327.02606Q321.29688 326.33856 321.29688 324.96356ZM323.4375 323.2448Q322.96875 323.2448 322.67188 323.65106Q322.375 324.0417 322.375 325.08856Q322.375 326.0573 322.67188 326.44794Q322.98438 326.83856 323.4375 326.83856Q323.90625 326.83856 324.20312 326.44794Q324.51562 326.0573 324.51562 324.9948Q324.51562 324.02606 324.20312 323.63544Q323.90625 323.2448 323.4375 323.2448ZM327.73438 330.27606L326.84375 330.27606Q328.89062 326.9948 328.89062 323.69794Q328.89062 322.4167 328.59375 321.15106Q328.35938 320.1198 327.95312 319.1823Q327.6875 318.57294 326.84375 317.13544L327.73438 317.13544Q329.01562 318.83856 329.625 320.57294Q330.15625 322.07294 330.15625 323.69794Q330.15625 325.5417 329.4375 327.26044Q328.73438 328.9792 327.73438 330.27606Z" fill-rule="nonzero"/><path fill="#000000" d="M233.56854 110.545044L232.33417 110.545044L232.33417 102.701294Q231.89667 103.12317 231.1623 103.56067Q230.44354 103.982544 229.88104 104.18567L229.88104 102.99817Q230.9123 102.513794 231.67792 101.826294Q232.45917 101.138794 232.77167 100.482544L233.56854 100.482544L233.56854 110.545044ZM243.63104 113.49817Q242.5998 112.201294 241.89667 110.482544Q241.19354 108.763794 241.19354 106.920044Q241.19354 105.295044 241.7248 103.795044Q242.33417 102.06067 243.63104 100.357544L244.50604 100.357544Q243.67792 101.77942 243.4123 102.388794Q242.99042 103.326294 242.75604 104.357544Q242.45917 105.62317 242.45917 106.920044Q242.45917 110.21692 244.50604 113.49817L243.63104 113.49817ZM250.56854 110.545044L249.33417 110.545044L249.33417 102.701294Q248.89667 103.12317 248.1623 103.56067Q247.44354 103.982544 246.88104 104.18567L246.88104 102.99817Q247.9123 102.513794 248.67792 101.826294Q249.45917 101.138794 249.77167 100.482544L250.56854 100.482544L250.56854 110.545044ZM260.39667 109.357544L260.39667 110.545044L253.77167 110.545044Q253.75604 110.107544 253.9123 109.68567Q254.17792 109.013794 254.7248 108.357544Q255.2873 107.701294 256.33417 106.84192Q257.9748 105.49817 258.5373 104.71692Q259.11542 103.93567 259.11542 103.232544Q259.11542 102.49817 258.58417 101.99817Q258.06854 101.49817 257.24042 101.49817Q256.3498 101.49817 255.80292 102.02942Q255.27167 102.56067 255.27167 103.513794L254.00604 103.37317Q254.13104 101.96692 254.9748 101.232544Q255.83417 100.482544 257.25604 100.482544Q258.70917 100.482544 259.5373 101.27942Q260.38104 102.076294 260.38104 103.263794Q260.38104 103.87317 260.13104 104.451294Q259.89667 105.02942 259.31854 105.670044Q258.75604 106.31067 257.42792 107.43567Q256.31854 108.357544 256.00604 108.701294Q255.69354 109.02942 255.49042 109.357544L260.39667 109.357544ZM262.61542 110.545044L262.61542 109.138794L264.02167 109.138794L264.02167 110.545044L262.61542 110.545044ZM265.92792 107.920044L267.2248 107.81067Q267.36542 108.74817 267.88104 109.232544Q268.4123 109.701294 269.14667 109.701294Q270.0373 109.701294 270.64667 109.02942Q271.27167 108.357544 271.27167 107.263794Q271.27167 106.201294 270.67792 105.59192Q270.08417 104.982544 269.13104 104.982544Q268.5373 104.982544 268.05292 105.263794Q267.58417 105.52942 267.30292 105.951294L266.14667 105.81067L267.11542 100.65442L272.0998 100.65442L272.0998 101.84192L268.0998 101.84192L267.56854 104.52942Q268.4748 103.90442 269.45917 103.90442Q270.77167 103.90442 271.6623 104.81067Q272.56854 105.71692 272.56854 107.15442Q272.56854 108.513794 271.7873 109.49817Q270.81854 110.71692 269.14667 110.71692Q267.7873 110.71692 266.9123 109.951294Q266.05292 109.18567 265.92792 107.920044ZM274.1623 102.93567Q274.1623 101.857544 274.69354 101.107544Q275.24042 100.357544 276.27167 100.357544Q277.20917 100.357544 277.81854 101.02942Q278.44354 101.701294 278.44354 102.99817Q278.44354 104.27942 277.81854 104.96692Q277.19354 105.65442 276.2873 105.65442Q275.38104 105.65442 274.77167 104.982544Q274.1623 104.295044 274.1623 102.93567ZM276.30292 101.201294Q275.8498 101.201294 275.5373 101.607544Q275.24042 101.99817 275.24042 103.045044Q275.24042 104.013794 275.5373 104.40442Q275.8498 104.795044 276.30292 104.795044Q276.77167 104.795044 277.06854 104.40442Q277.38104 104.013794 277.38104 102.951294Q277.38104 101.982544 277.06854 101.59192Q276.75604 101.201294 276.30292 101.201294ZM276.30292 110.920044L281.7873 100.357544L282.7873 100.357544L277.33417 110.920044L276.30292 110.920044ZM280.64667 108.18567Q280.64667 107.107544 281.17792 106.37317Q281.7248 105.62317 282.75604 105.62317Q283.69354 105.62317 284.31854 106.295044Q284.94354 106.96692 284.94354 108.263794Q284.94354 109.545044 284.31854 110.232544Q283.69354 110.920044 282.75604 110.920044Q281.8498 110.920044 281.24042 110.24817Q280.64667 109.56067 280.64667 108.18567ZM282.7873 106.46692Q282.31854 106.46692 282.02167 106.87317Q281.7248 107.263794 281.7248 108.31067Q281.7248 109.27942 282.02167 109.670044Q282.33417 110.06067 282.7873 110.06067Q283.25604 110.06067 283.55292 109.670044Q283.86542 109.27942 283.86542 108.21692Q283.86542 107.24817 283.55292 106.857544Q283.25604 106.46692 282.7873 106.46692ZM287.08417 113.49817L286.19354 113.49817Q288.24042 110.21692 288.24042 106.920044Q288.24042 105.638794 287.94354 104.37317Q287.70917 103.34192 287.30292 102.40442Q287.0373 101.795044 286.19354 100.357544L287.08417 100.357544Q288.36542 102.06067 288.9748 103.795044Q289.50604 105.295044 289.50604 106.920044Q289.50604 108.763794 288.7873 110.482544Q288.08417 112.201294 287.08417 113.49817Z" fill-rule="nonzero"/><path fill="#1a1a1a" d="M27.3 58.46354L28.815624 58.46354L28.815624 65.072914Q28.815624 66.80729 28.425 67.822914Q28.034374 68.83854 27.01875 69.479164Q26.003124 70.11979 24.346874 70.11979Q22.7375 70.11979 21.70625 69.55729Q20.690624 68.99479 20.253124 67.947914Q19.815624 66.90104 19.815624 65.072914L19.815624 58.46354L21.33125 58.46354L21.33125 65.072914Q21.33125 66.55729 21.596874 67.27604Q21.878124 67.979164 22.55 68.36979Q23.2375 68.74479 24.20625 68.74479Q25.878124 68.74479 26.58125 67.99479Q27.3 67.229164 27.3 65.072914L27.3 58.46354ZM30.6125 69.916664L30.6125 61.61979L31.878124 61.61979L31.878124 62.791664Q32.784374 61.43229 34.51875 61.43229Q35.26875 61.43229 35.89375 61.697914Q36.51875 61.96354 36.83125 62.40104Q37.14375 62.83854 37.26875 63.447914Q37.346874 63.83854 37.346874 64.80729L37.346874 69.916664L35.940624 69.916664L35.940624 64.86979Q35.940624 64.010414 35.76875 63.58854Q35.6125 63.15104 35.190624 62.90104Q34.784374 62.65104 34.221874 62.65104Q33.315624 62.65104 32.659374 63.229164Q32.01875 63.791664 32.01875 65.385414L32.01875 69.916664L30.6125 69.916664ZM43.9875 69.916664L43.9875 68.86979Q43.20625 70.104164 41.675 70.104164Q40.675 70.104164 39.846874 69.55729Q39.01875 69.010414 38.55 68.02604Q38.096874 67.041664 38.096874 65.77604Q38.096874 64.52604 38.503124 63.52604Q38.925 62.510414 39.753124 61.979164Q40.58125 61.43229 41.6125 61.43229Q42.3625 61.43229 42.940624 61.74479Q43.534374 62.05729 43.89375 62.572914L43.89375 58.46354L45.3 58.46354L45.3 69.916664L43.9875 69.916664ZM39.55 65.77604Q39.55 67.36979 40.221874 68.166664Q40.89375 68.947914 41.8 68.947914Q42.721874 68.947914 43.3625 68.197914Q44.01875 67.43229 44.01875 65.885414Q44.01875 64.18229 43.3625 63.385414Q42.70625 62.58854 41.7375 62.58854Q40.8 62.58854 40.175 63.354164Q39.55 64.11979 39.55 65.77604ZM53.284374 67.24479L54.7375 67.416664Q54.39375 68.697914 53.45625 69.40104Q52.534374 70.104164 51.096874 70.104164Q49.26875 70.104164 48.20625 68.979164Q47.14375 67.854164 47.14375 65.83854Q47.14375 63.74479 48.221874 62.58854Q49.3 61.43229 51.01875 61.43229Q52.675 61.43229 53.721874 62.572914Q54.784374 63.697914 54.784374 65.74479Q54.784374 65.86979 54.784374 66.11979L48.596874 66.11979Q48.675 67.49479 49.3625 68.229164Q50.065624 68.947914 51.096874 68.947914Q51.878124 68.947914 52.425 68.541664Q52.971874 68.135414 53.284374 67.24479ZM48.675 64.96354L53.3 64.96354Q53.20625 63.916664 52.76875 63.40104Q52.096874 62.58854 51.034374 62.58854Q50.065624 62.58854 49.39375 63.24479Q48.7375 63.885414 48.675 64.96354ZM56.596874 69.916664L56.596874 61.61979L57.8625 61.61979L57.8625 62.86979Q58.346874 61.99479 58.753124 61.71354Q59.159374 61.43229 59.659374 61.43229Q60.3625 61.43229 61.096874 61.885414L60.6125 63.18229Q60.096874 62.885414 59.58125 62.885414Q59.128124 62.885414 58.753124 63.166664Q58.39375 63.43229 58.2375 63.93229Q58.003124 64.68229 58.003124 65.572914L58.003124 69.916664L56.596874 69.916664ZM61.6125 73.104164L61.6125 61.61979L62.89375 61.61979L62.89375 62.697914Q63.346874 62.05729 63.909374 61.74479Q64.4875 61.43229 65.3 61.43229Q66.3625 61.43229 67.175 61.979164Q67.9875 62.52604 68.39375 63.52604Q68.81563 64.510414 68.81563 65.697914Q68.81563 66.979164 68.34688 67.99479Q67.89375 69.010414 67.01875 69.55729Q66.15938 70.104164 65.19063 70.104164Q64.4875 70.104164 63.925 69.80729Q63.378124 69.510414 63.01875 69.05729L63.01875 73.104164L61.6125 73.104164ZM62.878124 65.80729Q62.878124 67.416664 63.51875 68.18229Q64.175 68.947914 65.09688 68.947914Q66.03438 68.947914 66.70625 68.15104Q67.37813 67.354164 67.37813 65.697914Q67.37813 64.104164 66.72188 63.322914Q66.06563 62.52604 65.15938 62.52604Q64.26875 62.52604 63.565624 63.36979Q62.878124 64.21354 62.878124 65.80729ZM76.28438 67.24479L77.7375 67.416664Q77.39375 68.697914 76.45625 69.40104Q75.53438 70.104164 74.09688 70.104164Q72.26875 70.104164 71.20625 68.979164Q70.14375 67.854164 70.14375 65.83854Q70.14375 63.74479 71.22188 62.58854Q72.3 61.43229 74.01875 61.43229Q75.675 61.43229 76.72188 62.572914Q77.78438 63.697914 77.78438 65.74479Q77.78438 65.86979 77.78438 66.11979L71.59688 66.11979Q71.675 67.49479 72.3625 68.229164Q73.06563 68.947914 74.09688 68.947914Q74.87813 68.947914 75.425 68.541664Q75.97188 68.135414 76.28438 67.24479ZM71.675 64.96354L76.3 64.96354Q76.20625 63.916664 75.76875 63.40104Q75.09688 62.58854 74.03438 62.58854Q73.06563 62.58854 72.39375 63.24479Q71.7375 63.885414 71.675 64.96354ZM79.59688 69.916664L79.59688 61.61979L80.8625 61.61979L80.8625 62.86979Q81.34688 61.99479 81.75313 61.71354Q82.15938 61.43229 82.65938 61.43229Q83.3625 61.43229 84.09688 61.885414L83.6125 63.18229Q83.09688 62.885414 82.58125 62.885414Q82.12813 62.885414 81.75313 63.166664Q81.39375 63.43229 81.2375 63.93229Q81.00313 64.68229 81.00313 65.572914L81.00313 69.916664L79.59688 69.916664ZM84.94063 69.916664L84.94063 62.71354L83.70625 62.71354L83.70625 61.61979L84.94063 61.61979L84.94063 60.729164Q84.94063 59.90104 85.09688 59.49479Q85.3 58.947914 85.8 58.604164Q86.31563 58.260414 87.2375 58.260414Q87.83125 58.260414 88.55 58.40104L88.34688 59.635414Q87.90938 59.55729 87.51875 59.55729Q86.87813 59.55729 86.6125 59.83854Q86.34688 60.104164 86.34688 60.854164L86.34688 61.61979L87.95625 61.61979L87.95625 62.71354L86.34688 62.71354L86.34688 69.916664L84.94063 69.916664ZM88.08125 65.760414Q88.08125 63.46354 89.3625 62.354164Q90.44063 61.43229 91.97188 61.43229Q93.69063 61.43229 94.76875 62.55729Q95.8625 63.666664 95.8625 65.65104Q95.8625 67.24479 95.37813 68.166664Q94.89375 69.08854 93.97188 69.604164Q93.06563 70.104164 91.97188 70.104164Q90.2375 70.104164 89.15938 68.99479Q88.08125 67.86979 88.08125 65.760414ZM89.53438 65.760414Q89.53438 67.354164 90.22188 68.15104Q90.925 68.947914 91.97188 68.947914Q93.01875 68.947914 93.70625 68.15104Q94.40938 67.354164 94.40938 65.71354Q94.40938 64.18229 93.70625 63.385414Q93.01875 62.58854 91.97188 62.58854Q90.925 62.58854 90.22188 63.385414Q89.53438 64.166664 89.53438 65.760414ZM97.59688 69.916664L97.59688 61.61979L98.8625 61.61979L98.8625 62.86979Q99.34688 61.99479 99.75313 61.71354Q100.15938 61.43229 100.65938 61.43229Q101.3625 61.43229 102.09688 61.885414L101.6125 63.18229Q101.09688 62.885414 100.58125 62.885414Q100.12813 62.885414 99.75313 63.166664Q99.39375 63.43229 99.2375 63.93229Q99.00313 64.68229 99.00313 65.572914L99.00313 69.916664L97.59688 69.916664ZM102.6125 69.916664L102.6125 61.61979L103.8625 61.61979L103.8625 62.77604Q104.25313 62.166664 104.89375 61.80729Q105.55 61.43229 106.37813 61.43229Q107.3 61.43229 107.89375 61.822914Q108.4875 62.197914 108.72188 62.885414Q109.70625 61.43229 111.28438 61.43229Q112.51875 61.43229 113.175 62.11979Q113.84688 62.791664 113.84688 64.21354L113.84688 69.916664L112.45625 69.916664L112.45625 64.68229Q112.45625 63.83854 112.31563 63.479164Q112.175 63.104164 111.81563 62.885414Q111.45625 62.65104 110.97188 62.65104Q110.09688 62.65104 109.51875 63.229164Q108.94063 63.80729 108.94063 65.08854L108.94063 69.916664L107.53438 69.916664L107.53438 64.52604Q107.53438 63.58854 107.19063 63.11979Q106.84688 62.65104 106.06563 62.65104Q105.47188 62.65104 104.97188 62.96354Q104.47188 63.27604 104.2375 63.885414Q104.01875 64.479164 104.01875 65.604164L104.01875 69.916664L102.6125 69.916664ZM121.28438 67.24479L122.7375 67.416664Q122.39375 68.697914 121.45625 69.40104Q120.53438 70.104164 119.09688 70.104164Q117.26875 70.104164 116.20625 68.979164Q115.14375 67.854164 115.14375 65.83854Q115.14375 63.74479 116.22188 62.58854Q117.3 61.43229 119.01875 61.43229Q120.675 61.43229 121.72188 62.572914Q122.78438 63.697914 122.78438 65.74479Q122.78438 65.86979 122.78438 66.11979L116.59688 66.11979Q116.675 67.49479 117.3625 68.229164Q118.06563 68.947914 119.09688 68.947914Q119.87813 68.947914 120.425 68.541664Q120.97188 68.135414 121.28438 67.24479ZM116.675 64.96354L121.3 64.96354Q121.20625 63.916664 120.76875 63.40104Q120.09688 62.58854 119.03438 62.58854Q118.06563 62.58854 117.39375 63.24479Q116.7375 63.885414 116.675 64.96354ZM129.9875 69.916664L129.9875 68.86979Q129.20625 70.104164 127.675 70.104164Q126.675 70.104164 125.84688 69.55729Q125.01875 69.010414 124.55 68.02604Q124.09688 67.041664 124.09688 65.77604Q124.09688 64.52604 124.50313 63.52604Q124.925 62.510414 125.75313 61.979164Q126.58125 61.43229 127.6125 61.43229Q128.3625 61.43229 128.94063 61.74479Q129.53438 62.05729 129.89375 62.572914L129.89375 58.46354L131.3 58.46354L131.3 69.916664L129.9875 69.916664ZM125.55 65.77604Q125.55 67.36979 126.22188 68.166664Q126.89375 68.947914 127.8 68.947914Q128.72188 68.947914 129.3625 68.197914Q130.01875 67.43229 130.01875 65.885414Q130.01875 64.18229 129.3625 63.385414Q128.70625 62.58854 127.7375 62.58854Q126.8 62.58854 126.175 63.354164Q125.55 64.11979 125.55 65.77604Z" fill-rule="nonzero"/><path fill="#9e9e9e" d="M24.51875 91.916664L23.1125 91.916664L23.1125 82.947914Q22.596874 83.43229 21.76875 83.916664Q20.95625 84.40104 20.3 84.65104L20.3 83.291664Q21.471874 82.729164 22.346874 81.947914Q23.2375 81.15104 23.6125 80.416664L24.51875 80.416664L24.51875 91.916664ZM35.6125 90.55729L35.6125 91.916664L28.034374 91.916664Q28.01875 91.40104 28.20625 90.93229Q28.4875 90.166664 29.128124 89.416664Q29.76875 88.666664 30.971874 87.68229Q32.83125 86.15104 33.4875 85.260414Q34.14375 84.354164 34.14375 83.55729Q34.14375 82.729164 33.55 82.15104Q32.95625 81.572914 31.9875 81.572914Q30.971874 81.572914 30.3625 82.18229Q29.753124 82.791664 29.753124 83.86979L28.3 83.729164Q28.45625 82.104164 29.425 81.260414Q30.39375 80.416664 32.01875 80.416664Q33.675 80.416664 34.628124 81.33854Q35.596874 82.24479 35.596874 83.58854Q35.596874 84.27604 35.315624 84.947914Q35.034374 85.604164 34.378124 86.33854Q33.721874 87.072914 32.20625 88.354164Q30.940624 89.416664 30.58125 89.80729Q30.221874 90.18229 29.9875 90.55729L35.6125 90.55729ZM38.003124 91.916664L38.003124 90.30729L39.6125 90.30729L39.6125 91.916664L38.003124 91.916664ZM41.221874 88.916664L42.690624 88.791664Q42.8625 89.86979 43.45625 90.416664Q44.05 90.947914 44.89375 90.947914Q45.909374 90.947914 46.6125 90.18229Q47.315624 89.416664 47.315624 88.15104Q47.315624 86.947914 46.64375 86.260414Q45.971874 85.55729 44.878124 85.55729Q44.190624 85.55729 43.64375 85.86979Q43.096874 86.18229 42.784374 86.666664L41.471874 86.49479L42.58125 80.61979L48.26875 80.61979L48.26875 81.96354L43.70625 81.96354L43.08125 85.041664Q44.1125 84.322914 45.253124 84.322914Q46.753124 84.322914 47.784374 85.36979Q48.815624 86.40104 48.815624 88.02604Q48.815624 89.58854 47.909374 90.71354Q46.8 92.11979 44.89375 92.11979Q43.33125 92.11979 42.346874 91.24479Q41.3625 90.354164 41.221874 88.916664ZM50.4875 83.21354Q50.4875 81.979164 51.096874 81.11979Q51.721874 80.260414 52.89375 80.260414Q53.971874 80.260414 54.675 81.041664Q55.378124 81.80729 55.378124 83.291664Q55.378124 84.74479 54.659374 85.541664Q53.95625 86.322914 52.909374 86.322914Q51.8625 86.322914 51.175 85.55729Q50.4875 84.77604 50.4875 83.21354ZM52.925 81.229164Q52.409374 81.229164 52.05 81.68229Q51.70625 82.135414 51.70625 83.354164Q51.70625 84.447914 52.05 84.90104Q52.409374 85.354164 52.925 85.354164Q53.45625 85.354164 53.8 84.90104Q54.159374 84.447914 54.159374 83.24479Q54.159374 82.135414 53.8 81.68229Q53.45625 81.229164 52.925 81.229164ZM52.940624 92.33854L59.20625 80.260414L60.346874 80.260414L54.096874 92.33854L52.940624 92.33854ZM57.89375 89.229164Q57.89375 87.99479 58.503124 87.135414Q59.128124 86.27604 60.3 86.27604Q61.378124 86.27604 62.08125 87.05729Q62.8 87.822914 62.8 89.30729Q62.8 90.760414 62.08125 91.55729Q61.3625 92.33854 60.315624 92.33854Q59.26875 92.33854 58.58125 91.55729Q57.89375 90.77604 57.89375 89.229164ZM60.346874 87.24479Q59.815624 87.24479 59.45625 87.697914Q59.1125 88.15104 59.1125 89.36979Q59.1125 90.46354 59.45625 90.916664Q59.815624 91.36979 60.33125 91.36979Q60.878124 91.36979 61.221874 90.916664Q61.565624 90.46354 61.565624 89.260414Q61.565624 88.15104 61.20625 87.697914Q60.8625 87.24479 60.346874 87.24479Z" fill-rule="nonzero"/><path stroke="#757575" stroke-width="1.0" stroke-linecap="butt" d="M18.55 75.416664L145.23334 75.416664L245.91599 73.112976" fill-rule="nonzero"/><path fill="#9e9e9e" d="M247.91599 73.112976C247.91599 72.00841 247.02055 71.112976 245.91599 71.112976C244.81142 71.112976 243.91599 72.00841 243.91599 73.112976C243.91599 74.217545 244.81142 75.112976 245.91599 75.112976C247.02055 75.112976 247.91599 74.217545 247.91599 73.112976" fill-rule="nonzero"/><path fill="#1a1a1a" d="M477.23126 64.33854Q477.23126 61.479164 478.7625 59.86979Q480.29376 58.260414 482.71564 58.260414Q484.29376 58.260414 485.5594 59.02604Q486.84064 59.77604 487.5125 61.135414Q488.1844 62.479164 488.1844 64.197914Q488.1844 65.947914 487.48126 67.322914Q486.77814 68.697914 485.48126 69.416664Q484.2 70.11979 482.7 70.11979Q481.09064 70.11979 479.8094 69.33854Q478.54376 68.541664 477.8875 67.197914Q477.23126 65.83854 477.23126 64.33854ZM478.79376 64.354164Q478.79376 66.43229 479.90314 67.61979Q481.0125 68.80729 482.7 68.80729Q484.40314 68.80729 485.5125 67.604164Q486.6219 66.40104 486.6219 64.197914Q486.6219 62.791664 486.1375 61.760414Q485.66876 60.71354 484.7625 60.135414Q483.85626 59.55729 482.71564 59.55729Q481.10626 59.55729 479.95 60.666664Q478.79376 61.77604 478.79376 64.354164ZM491.8094 69.916664L488.65314 61.61979L490.1375 61.61979L491.91876 66.58854Q492.21564 67.385414 492.45 68.260414Q492.6375 67.604164 492.98126 66.68229L494.825 61.61979L496.2625 61.61979L493.1219 69.916664L491.8094 69.916664ZM502.1844 67.24479L503.6375 67.416664Q503.29376 68.697914 502.35626 69.40104Q501.4344 70.104164 499.9969 70.104164Q498.16876 70.104164 497.10626 68.979164Q496.04376 67.854164 496.04376 65.83854Q496.04376 63.74479 497.1219 62.58854Q498.2 61.43229 499.91876 61.43229Q501.575 61.43229 502.6219 62.572914Q503.6844 63.697914 503.6844 65.74479Q503.6844 65.86979 503.6844 66.11979L497.4969 66.11979Q497.575 67.49479 498.2625 68.229164Q498.96564 68.947914 499.9969 68.947914Q500.77814 68.947914 501.325 68.541664Q501.8719 68.135414 502.1844 67.24479ZM497.575 64.96354L502.2 64.96354Q502.10626 63.916664 501.66876 63.40104Q500.9969 62.58854 499.9344 62.58854Q498.96564 62.58854 498.29376 63.24479Q497.6375 63.885414 497.575 64.96354ZM505.4969 69.916664L505.4969 61.61979L506.7625 61.61979L506.7625 62.86979Q507.2469 61.99479 507.65314 61.71354Q508.0594 61.43229 508.5594 61.43229Q509.2625 61.43229 509.9969 61.885414L509.5125 63.18229Q508.9969 62.885414 508.48126 62.885414Q508.02814 62.885414 507.65314 63.166664Q507.29376 63.43229 507.1375 63.93229Q506.90314 64.68229 506.90314 65.572914L506.90314 69.916664L505.4969 69.916664ZM510.5125 73.104164L510.5125 61.61979L511.79376 61.61979L511.79376 62.697914Q512.2469 62.05729 512.8094 61.74479Q513.3875 61.43229 514.2 61.43229Q515.2625 61.43229 516.075 61.979164Q516.8875 62.52604 517.29376 63.52604Q517.71564 64.510414 517.71564 65.697914Q517.71564 66.979164 517.2469 67.99479Q516.79376 69.010414 515.91876 69.55729Q515.0594 70.104164 514.09064 70.104164Q513.3875 70.104164 512.825 69.80729Q512.27814 69.510414 511.91876 69.05729L511.91876 73.104164L510.5125 73.104164ZM511.77814 65.80729Q511.77814 67.416664 512.41876 68.18229Q513.075 68.947914 513.9969 68.947914Q514.9344 68.947914 515.60626 68.15104Q516.27814 67.354164 516.27814 65.697914Q516.27814 64.104164 515.6219 63.322914Q514.96564 62.52604 514.0594 62.52604Q513.16876 62.52604 512.46564 63.36979Q511.77814 64.21354 511.77814 65.80729ZM525.1844 67.24479L526.6375 67.416664Q526.29376 68.697914 525.35626 69.40104Q524.4344 70.104164 522.9969 70.104164Q521.16876 70.104164 520.10626 68.979164Q519.04376 67.854164 519.04376 65.83854Q519.04376 63.74479 520.1219 62.58854Q521.2 61.43229 522.91876 61.43229Q524.575 61.43229 525.6219 62.572914Q526.6844 63.697914 526.6844 65.74479Q526.6844 65.86979 526.6844 66.11979L520.4969 66.11979Q520.575 67.49479 521.2625 68.229164Q521.96564 68.947914 522.9969 68.947914Q523.77814 68.947914 524.325 68.541664Q524.8719 68.135414 525.1844 67.24479ZM520.575 64.96354L525.2 64.96354Q525.10626 63.916664 524.66876 63.40104Q523.9969 62.58854 522.9344 62.58854Q521.96564 62.58854 521.29376 63.24479Q520.6375 63.885414 520.575 64.96354ZM528.4969 69.916664L528.4969 61.61979L529.7625 61.61979L529.7625 62.86979Q530.2469 61.99479 530.65314 61.71354Q531.0594 61.43229 531.5594 61.43229Q532.2625 61.43229 532.9969 61.885414L532.5125 63.18229Q531.9969 62.885414 531.48126 62.885414Q531.02814 62.885414 530.65314 63.166664Q530.29376 63.43229 530.1375 63.93229Q529.90314 64.68229 529.90314 65.572914L529.90314 69.916664L528.4969 69.916664ZM533.84064 69.916664L533.84064 62.71354L532.60626 62.71354L532.60626 61.61979L533.84064 61.61979L533.84064 60.729164Q533.84064 59.90104 533.9969 59.49479Q534.2 58.947914 534.7 58.604164Q535.21564 58.260414 536.1375 58.260414Q536.73126 58.260414 537.45 58.40104L537.2469 59.635414Q536.8094 59.55729 536.41876 59.55729Q535.77814 59.55729 535.5125 59.83854Q535.2469 60.104164 535.2469 60.854164L535.2469 61.61979L536.85626 61.61979L536.85626 62.71354L535.2469 62.71354L535.2469 69.916664L533.84064 69.916664ZM536.98126 65.760414Q536.98126 63.46354 538.2625 62.354164Q539.34064 61.43229 540.8719 61.43229Q542.59064 61.43229 543.66876 62.55729Q544.7625 63.666664 544.7625 65.65104Q544.7625 67.24479 544.27814 68.166664Q543.79376 69.08854 542.8719 69.604164Q541.96564 70.104164 540.8719 70.104164Q539.1375 70.104164 538.0594 68.99479Q536.98126 67.86979 536.98126 65.760414ZM538.4344 65.760414Q538.4344 67.354164 539.1219 68.15104Q539.825 68.947914 540.8719 68.947914Q541.91876 68.947914 542.60626 68.15104Q543.3094 67.354164 543.3094 65.71354Q543.3094 64.18229 542.60626 63.385414Q541.91876 62.58854 540.8719 62.58854Q539.825 62.58854 539.1219 63.385414Q538.4344 64.166664 538.4344 65.760414ZM546.4969 69.916664L546.4969 61.61979L547.7625 61.61979L547.7625 62.86979Q548.2469 61.99479 548.65314 61.71354Q549.0594 61.43229 549.5594 61.43229Q550.2625 61.43229 550.9969 61.885414L550.5125 63.18229Q549.9969 62.885414 549.48126 62.885414Q549.02814 62.885414 548.65314 63.166664Q548.29376 63.43229 548.1375 63.93229Q547.90314 64.68229 547.90314 65.572914L547.90314 69.916664L546.4969 69.916664ZM551.5125 69.916664L551.5125 61.61979L552.7625 61.61979L552.7625 62.77604Q553.15314 62.166664 553.79376 61.80729Q554.45 61.43229 555.27814 61.43229Q556.2 61.43229 556.79376 61.822914Q557.3875 62.197914 557.6219 62.885414Q558.60626 61.43229 560.1844 61.43229Q561.41876 61.43229 562.075 62.11979Q562.7469 62.791664 562.7469 64.21354L562.7469 69.916664L561.35626 69.916664L561.35626 64.68229Q561.35626 63.83854 561.21564 63.479164Q561.075 63.104164 560.71564 62.885414Q560.35626 62.65104 559.8719 62.65104Q558.9969 62.65104 558.41876 63.229164Q557.84064 63.80729 557.84064 65.08854L557.84064 69.916664L556.4344 69.916664L556.4344 64.52604Q556.4344 63.58854 556.09064 63.11979Q555.7469 62.65104 554.96564 62.65104Q554.3719 62.65104 553.8719 62.96354Q553.3719 63.27604 553.1375 63.885414Q552.91876 64.479164 552.91876 65.604164L552.91876 69.916664L551.5125 69.916664ZM570.1844 67.24479L571.6375 67.416664Q571.29376 68.697914 570.35626 69.40104Q569.4344 70.104164 567.9969 70.104164Q566.16876 70.104164 565.10626 68.979164Q564.04376 67.854164 564.04376 65.83854Q564.04376 63.74479 565.1219 62.58854Q566.2 61.43229 567.91876 61.43229Q569.575 61.43229 570.6219 62.572914Q571.6844 63.697914 571.6844 65.74479Q571.6844 65.86979 571.6844 66.11979L565.4969 66.11979Q565.575 67.49479 566.2625 68.229164Q566.96564 68.947914 567.9969 68.947914Q568.77814 68.947914 569.325 68.541664Q569.8719 68.135414 570.1844 67.24479ZM565.575 64.96354L570.2 64.96354Q570.10626 63.916664 569.66876 63.40104Q568.9969 62.58854 567.9344 62.58854Q566.96564 62.58854 566.29376 63.24479Q565.6375 63.885414 565.575 64.96354ZM578.8875 69.916664L578.8875 68.86979Q578.10626 70.104164 576.575 70.104164Q575.575 70.104164 574.7469 69.55729Q573.91876 69.010414 573.45 68.02604Q572.9969 67.041664 572.9969 65.77604Q572.9969 64.52604 573.40314 63.52604Q573.825 62.510414 574.65314 61.979164Q575.48126 61.43229 576.5125 61.43229Q577.2625 61.43229 577.84064 61.74479Q578.4344 62.05729 578.79376 62.572914L578.79376 58.46354L580.2 58.46354L580.2 69.916664L578.8875 69.916664ZM574.45 65.77604Q574.45 67.36979 575.1219 68.166664Q575.79376 68.947914 576.7 68.947914Q577.6219 68.947914 578.2625 68.197914Q578.91876 67.43229 578.91876 65.885414Q578.91876 64.18229 578.2625 63.385414Q577.60626 62.58854 576.6375 62.58854Q575.7 62.58854 575.075 63.354164Q574.45 64.11979 574.45 65.77604Z" fill-rule="nonzero"/><path fill="#9e9e9e" d="M542.41876 91.916664L541.0125 91.916664L541.0125 82.947914Q540.4969 83.43229 539.66876 83.916664Q538.85626 84.40104 538.2 84.65104L538.2 83.291664Q539.3719 82.729164 540.2469 81.947914Q541.1375 81.15104 541.5125 80.416664L542.41876 80.416664L542.41876 91.916664ZM553.5125 90.55729L553.5125 91.916664L545.9344 91.916664Q545.91876 91.40104 546.10626 90.93229Q546.3875 90.166664 547.02814 89.416664Q547.66876 88.666664 548.8719 87.68229Q550.73126 86.15104 551.3875 85.260414Q552.04376 84.354164 552.04376 83.55729Q552.04376 82.729164 551.45 82.15104Q550.85626 81.572914 549.8875 81.572914Q548.8719 81.572914 548.2625 82.18229Q547.65314 82.791664 547.65314 83.86979L546.2 83.729164Q546.35626 82.104164 547.325 81.260414Q548.29376 80.416664 549.91876 80.416664Q551.575 80.416664 552.52814 81.33854Q553.4969 82.24479 553.4969 83.58854Q553.4969 84.27604 553.21564 84.947914Q552.9344 85.604164 552.27814 86.33854Q551.6219 87.072914 550.10626 88.354164Q548.84064 89.416664 548.48126 89.80729Q548.1219 90.18229 547.8875 90.55729L553.5125 90.55729ZM555.90314 91.916664L555.90314 90.30729L557.5125 90.30729L557.5125 91.916664L555.90314 91.916664ZM559.1219 88.916664L560.59064 88.791664Q560.7625 89.86979 561.35626 90.416664Q561.95 90.947914 562.79376 90.947914Q563.8094 90.947914 564.5125 90.18229Q565.21564 89.416664 565.21564 88.15104Q565.21564 86.947914 564.54376 86.260414Q563.8719 85.55729 562.77814 85.55729Q562.09064 85.55729 561.54376 85.86979Q560.9969 86.18229 560.6844 86.666664L559.3719 86.49479L560.48126 80.61979L566.16876 80.61979L566.16876 81.96354L561.60626 81.96354L560.98126 85.041664Q562.0125 84.322914 563.15314 84.322914Q564.65314 84.322914 565.6844 85.36979Q566.71564 86.40104 566.71564 88.02604Q566.71564 89.58854 565.8094 90.71354Q564.7 92.11979 562.79376 92.11979Q561.23126 92.11979 560.2469 91.24479Q559.2625 90.354164 559.1219 88.916664ZM568.3875 83.21354Q568.3875 81.979164 568.9969 81.11979Q569.6219 80.260414 570.79376 80.260414Q571.8719 80.260414 572.575 81.041664Q573.27814 81.80729 573.27814 83.291664Q573.27814 84.74479 572.5594 85.541664Q571.85626 86.322914 570.8094 86.322914Q569.7625 86.322914 569.075 85.55729Q568.3875 84.77604 568.3875 83.21354ZM570.825 81.229164Q570.3094 81.229164 569.95 81.68229Q569.60626 82.135414 569.60626 83.354164Q569.60626 84.447914 569.95 84.90104Q570.3094 85.354164 570.825 85.354164Q571.35626 85.354164 571.7 84.90104Q572.0594 84.447914 572.0594 83.24479Q572.0594 82.135414 571.7 81.68229Q571.35626 81.229164 570.825 81.229164ZM570.84064 92.33854L577.10626 80.260414L578.2469 80.260414L571.9969 92.33854L570.84064 92.33854ZM575.79376 89.229164Q575.79376 87.99479 576.40314 87.135414Q577.02814 86.27604 578.2 86.27604Q579.27814 86.27604 579.98126 87.05729Q580.7 87.822914 580.7 89.30729Q580.7 90.760414 579.98126 91.55729Q579.2625 92.33854 578.21564 92.33854Q577.16876 92.33854 576.48126 91.55729Q575.79376 90.77604 575.79376 89.229164ZM578.2469 87.24479Q577.71564 87.24479 577.35626 87.697914Q577.0125 88.15104 577.0125 89.36979Q577.0125 90.46354 577.35626 90.916664Q577.71564 91.36979 578.23126 91.36979Q578.77814 91.36979 579.1219 90.916664Q579.46564 90.46354 579.46564 89.260414Q579.46564 88.15104 579.10626 87.697914Q578.7625 87.24479 578.2469 87.24479Z" fill-rule="nonzero"/><path stroke="#757575" stroke-width="1.0" stroke-linecap="butt" d="M581.45 75.416664L454.76666 75.416664L354.084 73.112976" fill-rule="nonzero"/><path fill="#9e9e9e" d="M356.084 73.112976C356.084 72.00841 355.18857 71.112976 354.084 71.112976C352.97943 71.112976 352.084 72.00841 352.084 73.112976C352.084 74.217545 352.97943 75.112976 354.084 75.112976C355.18857 75.112976 356.084 74.217545 356.084 73.112976" fill-rule="nonzero"/><path fill="#1a1a1a" d="M500.16876 322.7625L501.60626 322.6375Q501.7 323.4969 502.075 324.0594Q502.45 324.60626 503.23126 324.95Q504.0125 325.27814 504.98126 325.27814Q505.85626 325.27814 506.5125 325.02814Q507.1844 324.7625 507.4969 324.325Q507.825 323.8719 507.825 323.34064Q507.825 322.79376 507.5125 322.40314Q507.2 321.9969 506.48126 321.71564Q506.02814 321.54376 504.45 321.16876Q502.8719 320.77814 502.23126 320.45Q501.41876 320.0125 501.0125 319.3875Q500.60626 318.7469 500.60626 317.95Q500.60626 317.09064 501.09064 316.34064Q501.59064 315.575 502.52814 315.1844Q503.48126 314.79376 504.6375 314.79376Q505.91876 314.79376 506.8875 315.21564Q507.85626 315.6219 508.3719 316.41876Q508.90314 317.21564 508.95 318.21564L507.4969 318.325Q507.3719 317.2469 506.7 316.7Q506.02814 316.1375 504.7 316.1375Q503.325 316.1375 502.7 316.6375Q502.075 317.1375 502.075 317.85626Q502.075 318.46564 502.5125 318.8719Q502.95 319.2625 504.79376 319.6844Q506.65314 320.10626 507.34064 320.41876Q508.34064 320.8719 508.8094 321.59064Q509.29376 322.29376 509.29376 323.21564Q509.29376 324.1219 508.7625 324.9344Q508.2469 325.7469 507.2625 326.2Q506.27814 326.65314 505.0594 326.65314Q503.4969 326.65314 502.45 326.2Q501.40314 325.73126 500.79376 324.825Q500.2 323.91876 500.16876 322.7625ZM516.91876 325.41876Q516.1375 326.09064 515.41876 326.3719Q514.7 326.6375 513.8719 326.6375Q512.4969 326.6375 511.7625 325.96564Q511.02814 325.29376 511.02814 324.2625Q511.02814 323.65314 511.3094 323.15314Q511.59064 322.6375 512.02814 322.34064Q512.48126 322.02814 513.04376 321.8719Q513.46564 321.7625 514.29376 321.66876Q515.9969 321.46564 516.8094 321.1844Q516.8094 320.8875 516.8094 320.8094Q516.8094 319.95 516.41876 319.60626Q515.8719 319.1219 514.8094 319.1219Q513.825 319.1219 513.34064 319.48126Q512.8719 319.825 512.65314 320.7L511.27814 320.5125Q511.46564 319.6375 511.8875 319.09064Q512.325 318.54376 513.1375 318.2625Q513.95 317.96564 515.0125 317.96564Q516.075 317.96564 516.73126 318.21564Q517.40314 318.46564 517.71564 318.84064Q518.02814 319.21564 518.15314 319.79376Q518.23126 320.15314 518.23126 321.09064L518.23126 322.96564Q518.23126 324.9344 518.3094 325.45Q518.40314 325.96564 518.66876 326.45L517.2 326.45Q516.98126 326.0125 516.91876 325.41876ZM516.8094 322.27814Q516.04376 322.59064 514.5125 322.8094Q513.6375 322.9344 513.27814 323.09064Q512.91876 323.2469 512.71564 323.5594Q512.52814 323.85626 512.52814 324.21564Q512.52814 324.77814 512.95 325.15314Q513.3875 325.52814 514.2 325.52814Q515.0125 325.52814 515.6375 325.1844Q516.27814 324.825 516.575 324.2Q516.8094 323.73126 516.8094 322.79376L516.8094 322.27814ZM523.575 325.1844L523.77814 326.4344Q523.1844 326.5594 522.71564 326.5594Q521.95 326.5594 521.52814 326.325Q521.10626 326.075 520.9344 325.6844Q520.7625 325.27814 520.7625 324.0125L520.7625 319.2469L519.73126 319.2469L519.73126 318.15314L520.7625 318.15314L520.7625 316.09064L522.16876 315.2469L522.16876 318.15314L523.575 318.15314L523.575 319.2469L522.16876 319.2469L522.16876 324.09064Q522.16876 324.7 522.23126 324.8719Q522.3094 325.04376 522.48126 325.15314Q522.65314 325.2469 522.96564 325.2469Q523.2 325.2469 523.575 325.1844ZM524.5125 316.60626L524.5125 314.9969L525.91876 314.9969L525.91876 316.60626L524.5125 316.60626ZM524.5125 326.45L524.5125 318.15314L525.91876 318.15314L525.91876 326.45L524.5125 326.45ZM527.95 323.96564L529.34064 323.7469Q529.45 324.59064 529.98126 325.04376Q530.52814 325.48126 531.48126 325.48126Q532.45 325.48126 532.91876 325.09064Q533.3875 324.6844 533.3875 324.15314Q533.3875 323.6844 532.98126 323.40314Q532.6844 323.21564 531.54376 322.9344Q529.9969 322.54376 529.3875 322.2625Q528.79376 321.96564 528.48126 321.46564Q528.1844 320.96564 528.1844 320.35626Q528.1844 319.79376 528.4344 319.325Q528.6844 318.85626 529.1219 318.54376Q529.45 318.29376 530.0125 318.1375Q530.59064 317.96564 531.23126 317.96564Q532.21564 317.96564 532.95 318.2469Q533.6844 318.52814 534.02814 319.0125Q534.3875 319.48126 534.52814 320.29376L533.15314 320.48126Q533.0594 319.84064 532.60626 319.48126Q532.15314 319.1219 531.34064 319.1219Q530.3719 319.1219 529.95 319.45Q529.54376 319.7625 529.54376 320.1844Q529.54376 320.46564 529.71564 320.6844Q529.8875 320.90314 530.2469 321.0594Q530.46564 321.1375 531.4969 321.41876Q532.98126 321.8094 533.575 322.075Q534.16876 322.325 534.4969 322.8094Q534.84064 323.29376 534.84064 324.0125Q534.84064 324.71564 534.41876 325.34064Q534.0125 325.95 533.23126 326.29376Q532.46564 326.6375 531.4969 326.6375Q529.8719 326.6375 529.02814 325.96564Q528.1844 325.29376 527.95 323.96564ZM536.84064 326.45L536.84064 319.2469L535.60626 319.2469L535.60626 318.15314L536.84064 318.15314L536.84064 317.2625Q536.84064 316.4344 536.9969 316.02814Q537.2 315.48126 537.7 315.1375Q538.21564 314.79376 539.1375 314.79376Q539.73126 314.79376 540.45 314.9344L540.2469 316.16876Q539.8094 316.09064 539.41876 316.09064Q538.77814 316.09064 538.5125 316.3719Q538.2469 316.6375 538.2469 317.3875L538.2469 318.15314L539.85626 318.15314L539.85626 319.2469L538.2469 319.2469L538.2469 326.45L536.84064 326.45ZM545.91876 325.41876Q545.1375 326.09064 544.41876 326.3719Q543.7 326.6375 542.8719 326.6375Q541.4969 326.6375 540.7625 325.96564Q540.02814 325.29376 540.02814 324.2625Q540.02814 323.65314 540.3094 323.15314Q540.59064 322.6375 541.02814 322.34064Q541.48126 322.02814 542.04376 321.8719Q542.46564 321.7625 543.29376 321.66876Q544.9969 321.46564 545.8094 321.1844Q545.8094 320.8875 545.8094 320.8094Q545.8094 319.95 545.41876 319.60626Q544.8719 319.1219 543.8094 319.1219Q542.825 319.1219 542.34064 319.48126Q541.8719 319.825 541.65314 320.7L540.27814 320.5125Q540.46564 319.6375 540.8875 319.09064Q541.325 318.54376 542.1375 318.2625Q542.95 317.96564 544.0125 317.96564Q545.075 317.96564 545.73126 318.21564Q546.40314 318.46564 546.71564 318.84064Q547.02814 319.21564 547.15314 319.79376Q547.23126 320.15314 547.23126 321.09064L547.23126 322.96564Q547.23126 324.9344 547.3094 325.45Q547.40314 325.96564 547.66876 326.45L546.2 326.45Q545.98126 326.0125 545.91876 325.41876ZM545.8094 322.27814Q545.04376 322.59064 543.5125 322.8094Q542.6375 322.9344 542.27814 323.09064Q541.91876 323.2469 541.71564 323.5594Q541.52814 323.85626 541.52814 324.21564Q541.52814 324.77814 541.95 325.15314Q542.3875 325.52814 543.2 325.52814Q544.0125 325.52814 544.6375 325.1844Q545.27814 324.825 545.575 324.2Q545.8094 323.73126 545.8094 322.79376L545.8094 322.27814ZM554.91876 323.40314L556.3094 323.59064Q556.075 325.0125 555.1375 325.825Q554.21564 326.6375 552.85626 326.6375Q551.15314 326.6375 550.10626 325.52814Q549.075 324.40314 549.075 322.325Q549.075 320.98126 549.5125 319.98126Q549.96564 318.96564 550.8719 318.46564Q551.79376 317.96564 552.85626 317.96564Q554.21564 317.96564 555.075 318.65314Q555.9344 319.325 556.16876 320.59064L554.8094 320.79376Q554.60626 319.96564 554.10626 319.54376Q553.6219 319.1219 552.91876 319.1219Q551.85626 319.1219 551.1844 319.8875Q550.52814 320.6375 550.52814 322.29376Q550.52814 323.96564 551.16876 324.73126Q551.8094 325.48126 552.84064 325.48126Q553.66876 325.48126 554.21564 324.98126Q554.77814 324.46564 554.91876 323.40314ZM560.575 325.1844L560.77814 326.4344Q560.1844 326.5594 559.71564 326.5594Q558.95 326.5594 558.52814 326.325Q558.10626 326.075 557.9344 325.6844Q557.7625 325.27814 557.7625 324.0125L557.7625 319.2469L556.73126 319.2469L556.73126 318.15314L557.7625 318.15314L557.7625 316.09064L559.16876 315.2469L559.16876 318.15314L560.575 318.15314L560.575 319.2469L559.16876 319.2469L559.16876 324.09064Q559.16876 324.7 559.23126 324.8719Q559.3094 325.04376 559.48126 325.15314Q559.65314 325.2469 559.96564 325.2469Q560.2 325.2469 560.575 325.1844ZM560.98126 322.29376Q560.98126 319.9969 562.2625 318.8875Q563.34064 317.96564 564.8719 317.96564Q566.59064 317.96564 567.66876 319.09064Q568.7625 320.2 568.7625 322.1844Q568.7625 323.77814 568.27814 324.7Q567.79376 325.6219 566.8719 326.1375Q565.96564 326.6375 564.8719 326.6375Q563.1375 326.6375 562.0594 325.52814Q560.98126 324.40314 560.98126 322.29376ZM562.4344 322.29376Q562.4344 323.8875 563.1219 324.6844Q563.825 325.48126 564.8719 325.48126Q565.91876 325.48126 566.60626 324.6844Q567.3094 323.8875 567.3094 322.2469Q567.3094 320.71564 566.60626 319.91876Q565.91876 319.1219 564.8719 319.1219Q563.825 319.1219 563.1219 319.91876Q562.4344 320.7 562.4344 322.29376ZM570.4969 326.45L570.4969 318.15314L571.7625 318.15314L571.7625 319.40314Q572.2469 318.52814 572.65314 318.2469Q573.0594 317.96564 573.5594 317.96564Q574.2625 317.96564 574.9969 318.41876L574.5125 319.71564Q573.9969 319.41876 573.48126 319.41876Q573.02814 319.41876 572.65314 319.7Q572.29376 319.96564 572.1375 320.46564Q571.90314 321.21564 571.90314 322.10626L571.90314 326.45L570.4969 326.45ZM575.45 329.65314L575.29376 328.325Q575.7469 328.45 576.09064 328.45Q576.5594 328.45 576.84064 328.29376Q577.1219 328.1375 577.3094 327.85626Q577.4344 327.65314 577.73126 326.8094Q577.77814 326.7 577.85626 326.46564L574.71564 318.15314L576.23126 318.15314L577.95 322.95Q578.29376 323.8719 578.5594 324.8719Q578.79376 323.90314 579.1375 322.98126L580.90314 318.15314L582.3094 318.15314L579.15314 326.59064Q578.65314 327.96564 578.3719 328.48126Q577.9969 329.16876 577.5125 329.4969Q577.02814 329.825 576.35626 329.825Q575.95 329.825 575.45 329.65314Z" fill-rule="nonzero"/><path fill="#9e9e9e" d="M537.21564 338.4969L537.21564 337.1375L544.6219 337.1375L544.6219 338.23126Q543.52814 339.40314 542.45 341.34064Q541.3875 343.2625 540.79376 345.29376Q540.3719 346.73126 540.2625 348.45L538.8094 348.45Q538.84064 347.09064 539.34064 345.1844Q539.85626 343.2625 540.79376 341.4969Q541.7469 339.71564 542.825 338.4969L537.21564 338.4969ZM546.1219 345.45L547.59064 345.325Q547.7625 346.40314 548.35626 346.95Q548.95 347.48126 549.79376 347.48126Q550.8094 347.48126 551.5125 346.71564Q552.21564 345.95 552.21564 344.6844Q552.21564 343.48126 551.54376 342.79376Q550.8719 342.09064 549.77814 342.09064Q549.09064 342.09064 548.54376 342.40314Q547.9969 342.71564 547.6844 343.2L546.3719 343.02814L547.48126 337.15314L553.16876 337.15314L553.16876 338.4969L548.60626 338.4969L547.98126 341.575Q549.0125 340.85626 550.15314 340.85626Q551.65314 340.85626 552.6844 341.90314Q553.71564 342.9344 553.71564 344.5594Q553.71564 346.1219 552.8094 347.2469Q551.7 348.65314 549.79376 348.65314Q548.23126 348.65314 547.2469 347.77814Q546.2625 346.8875 546.1219 345.45ZM555.90314 348.45L555.90314 346.84064L557.5125 346.84064L557.5125 348.45L555.90314 348.45ZM559.1219 342.79376Q559.1219 340.7625 559.52814 339.52814Q559.95 338.29376 560.77814 337.6219Q561.60626 336.95 562.85626 336.95Q563.77814 336.95 564.46564 337.325Q565.16876 337.6844 565.6219 338.3875Q566.075 339.09064 566.325 340.09064Q566.59064 341.09064 566.59064 342.79376Q566.59064 344.8094 566.16876 346.0594Q565.7625 347.29376 564.9344 347.98126Q564.10626 348.65314 562.85626 348.65314Q561.2 348.65314 560.2469 347.45Q559.1219 346.02814 559.1219 342.79376ZM560.5594 342.79376Q560.5594 345.6219 561.21564 346.5594Q561.8875 347.48126 562.85626 347.48126Q563.825 347.48126 564.48126 346.54376Q565.1375 345.60626 565.1375 342.79376Q565.1375 339.96564 564.48126 339.04376Q563.825 338.10626 562.84064 338.10626Q561.8719 338.10626 561.29376 338.9344Q560.5594 339.98126 560.5594 342.79376ZM568.3875 339.7469Q568.3875 338.5125 568.9969 337.65314Q569.6219 336.79376 570.79376 336.79376Q571.8719 336.79376 572.575 337.575Q573.27814 338.34064 573.27814 339.825Q573.27814 341.27814 572.5594 342.075Q571.85626 342.85626 570.8094 342.85626Q569.7625 342.85626 569.075 342.09064Q568.3875 341.3094 568.3875 339.7469ZM570.825 337.7625Q570.3094 337.7625 569.95 338.21564Q569.60626 338.66876 569.60626 339.8875Q569.60626 340.98126 569.95 341.4344Q570.3094 341.8875 570.825 341.8875Q571.35626 341.8875 571.7 341.4344Q572.0594 340.98126 572.0594 339.77814Q572.0594 338.66876 571.7 338.21564Q571.35626 337.7625 570.825 337.7625ZM570.84064 348.8719L577.10626 336.79376L578.2469 336.79376L571.9969 348.8719L570.84064 348.8719ZM575.79376 345.7625Q575.79376 344.52814 576.40314 343.66876Q577.02814 342.8094 578.2 342.8094Q579.27814 342.8094 579.98126 343.59064Q580.7 344.35626 580.7 345.84064Q580.7 347.29376 579.98126 348.09064Q579.2625 348.8719 578.21564 348.8719Q577.16876 348.8719 576.48126 348.09064Q575.79376 347.3094 575.79376 345.7625ZM578.2469 343.77814Q577.71564 343.77814 577.35626 344.23126Q577.0125 344.6844 577.0125 345.90314Q577.0125 346.9969 577.35626 347.45Q577.71564 347.90314 578.23126 347.90314Q578.77814 347.90314 579.1219 347.45Q579.46564 346.9969 579.46564 345.79376Q579.46564 344.6844 579.10626 344.23126Q578.7625 343.77814 578.2469 343.77814Z" fill-rule="nonzero"/><path stroke="#757575" stroke-width="1.0" stroke-linecap="butt" d="M581.45 331.95L454.76666 331.95L300.0 345.01166" fill-rule="nonzero"/><path fill="#9e9e9e" d="M302.0 345.01166C302.0 343.9071 301.10458 343.01166 300.0 343.01166C298.89542 343.01166 298.0 343.9071 298.0 345.01166C298.0 346.11624 298.89542 347.01166 300.0 347.01166C301.10458 347.01166 302.0 346.11624 302.0 345.01166" fill-rule="nonzero"/><path fill="#000000" d="M22.596874 37.55L18.8 23.2375L20.7375 23.2375L22.909374 32.6125Q23.26875 34.096874 23.51875 35.55Q24.065624 33.253124 24.159374 32.89375L26.89375 23.2375L29.175 23.2375L31.221874 30.471874Q32.003124 33.175 32.346874 35.55Q32.6125 34.190624 33.05 32.425L35.3 23.2375L37.20625 23.2375L33.284374 37.55L31.45625 37.55L28.440624 26.64375Q28.05 25.26875 27.9875 24.95625Q27.753124 25.940624 27.565624 26.64375L24.534374 37.55L22.596874 37.55ZM38.878124 25.253124L38.878124 23.2375L40.64375 23.2375L40.64375 25.253124L38.878124 25.253124ZM38.878124 37.55L38.878124 27.175L40.64375 27.175L40.64375 37.55L38.878124 37.55ZM42.8625 37.55L42.8625 27.175L44.45625 27.175L44.45625 28.659374Q45.596874 26.940624 47.753124 26.940624Q48.690624 26.940624 49.471874 27.284374Q50.26875 27.6125 50.659374 28.159374Q51.05 28.70625 51.20625 29.45625Q51.3 29.95625 51.3 31.175L51.3 37.55L49.534374 37.55L49.534374 31.2375Q49.534374 30.159374 49.33125 29.628124Q49.128124 29.096874 48.596874 28.784374Q48.08125 28.471874 47.378124 28.471874Q46.253124 28.471874 45.440624 29.190624Q44.628124 29.89375 44.628124 31.878124L44.628124 37.55L42.8625 37.55ZM52.55 38.409374L54.253124 38.659374Q54.3625 39.45625 54.846874 39.815624Q55.503124 40.3 56.64375 40.3Q57.8625 40.3 58.51875 39.815624Q59.190624 39.33125 59.425 38.45625Q59.565624 37.909374 59.55 36.190624Q58.39375 37.55 56.675 37.55Q54.534374 37.55 53.3625 36.003124Q52.190624 34.45625 52.190624 32.3Q52.190624 30.815624 52.721874 29.565624Q53.26875 28.315624 54.284374 27.628124Q55.315624 26.940624 56.690624 26.940624Q58.51875 26.940624 59.721874 28.425L59.721874 27.175L61.33125 27.175L61.33125 36.14375Q61.33125 38.565624 60.83125 39.565624Q60.346874 40.58125 59.26875 41.159374Q58.20625 41.753124 56.64375 41.753124Q54.8 41.753124 53.64375 40.925Q52.503124 40.096874 52.55 38.409374ZM54.003124 32.175Q54.003124 34.221874 54.815624 35.159374Q55.628124 36.096874 56.846874 36.096874Q58.05 36.096874 58.8625 35.159374Q59.690624 34.221874 59.690624 32.2375Q59.690624 30.33125 58.846874 29.3625Q58.003124 28.39375 56.815624 28.39375Q55.64375 28.39375 54.815624 29.346874Q54.003124 30.3 54.003124 32.175ZM63.159374 34.45625L64.90938 34.175Q65.05 35.221874 65.72188 35.784374Q66.39375 36.33125 67.59688 36.33125Q68.8 36.33125 69.37813 35.846874Q69.97188 35.346874 69.97188 34.690624Q69.97188 34.096874 69.45625 33.753124Q69.09688 33.51875 67.65938 33.159374Q65.72188 32.659374 64.97188 32.315624Q64.2375 31.95625 63.846874 31.33125Q63.45625 30.690624 63.45625 29.925Q63.45625 29.2375 63.76875 28.64375Q64.09688 28.05 64.64375 27.659374Q65.05 27.3625 65.75313 27.159374Q66.47188 26.940624 67.28438 26.940624Q68.50313 26.940624 69.425 27.3Q70.34688 27.64375 70.78438 28.253124Q71.22188 28.846874 71.39375 29.846874L69.675 30.08125Q69.55 29.284374 68.9875 28.846874Q68.425 28.39375 67.40938 28.39375Q66.19063 28.39375 65.675 28.8Q65.15938 29.190624 65.15938 29.721874Q65.15938 30.065624 65.37813 30.346874Q65.58125 30.628124 66.05 30.815624Q66.31563 30.909374 67.59688 31.253124Q69.47188 31.753124 70.20625 32.08125Q70.94063 32.39375 71.3625 33.003124Q71.78438 33.596874 71.78438 34.503124Q71.78438 35.378124 71.26875 36.159374Q70.75313 36.940624 69.78438 37.3625Q68.81563 37.784374 67.59688 37.784374Q65.58125 37.784374 64.51875 36.940624Q63.45625 36.096874 63.159374 34.45625ZM80.09688 37.55L80.09688 23.2375L85.4875 23.2375Q86.925 23.2375 87.675 23.3625Q88.72188 23.55 89.44063 24.05Q90.15938 24.534374 90.58125 25.425Q91.01875 26.315624 91.01875 27.378124Q91.01875 29.20625 89.84688 30.471874Q88.69063 31.721874 85.65938 31.721874L81.9875 31.721874L81.9875 37.55L80.09688 37.55ZM81.9875 30.034374L85.69063 30.034374Q87.51875 30.034374 88.28438 29.3625Q89.06563 28.675 89.06563 27.425Q89.06563 26.534374 88.6125 25.89375Q88.15938 25.253124 87.425 25.05Q86.94063 24.925 85.64375 24.925L81.9875 24.925L81.9875 30.034374ZM99.97188 34.20625L101.78438 34.440624Q101.3625 36.01875 100.19063 36.909374Q99.03438 37.784374 97.22188 37.784374Q94.95625 37.784374 93.6125 36.39375Q92.28438 34.9875 92.28438 32.45625Q92.28438 29.83125 93.62813 28.39375Q94.97188 26.940624 97.12813 26.940624Q99.20625 26.940624 100.51875 28.3625Q101.84688 29.76875 101.84688 32.346874Q101.84688 32.503124 101.83125 32.815624L94.09688 32.815624Q94.19063 34.51875 95.06563 35.425Q95.94063 36.33125 97.2375 36.33125Q98.20625 36.33125 98.87813 35.83125Q99.56563 35.315624 99.97188 34.20625ZM94.19063 31.3625L99.9875 31.3625Q99.87813 30.065624 99.33125 29.409374Q98.4875 28.39375 97.14375 28.39375Q95.94063 28.39375 95.1125 29.20625Q94.28438 30.003124 94.19063 31.3625ZM103.84688 37.55L103.84688 27.175L105.425 27.175L105.425 28.753124Q106.03438 27.64375 106.55 27.3Q107.06563 26.940624 107.675 26.940624Q108.56563 26.940624 109.4875 27.503124L108.87813 29.14375Q108.2375 28.753124 107.59688 28.753124Q107.01875 28.753124 106.55 29.1125Q106.09688 29.45625 105.89375 30.065624Q105.6125 31.003124 105.6125 32.1125L105.6125 37.55L103.84688 37.55ZM111.28438 37.55L111.28438 28.55L109.7375 28.55L109.7375 27.175L111.28438 27.175L111.28438 26.08125Q111.28438 25.034374 111.47188 24.51875Q111.72188 23.83125 112.3625 23.409374Q113.00313 22.9875 114.15938 22.9875Q114.90938 22.9875 115.8 23.159374L115.53438 24.690624Q114.9875 24.596874 114.50313 24.596874Q113.70625 24.596874 113.3625 24.940624Q113.03438 25.284374 113.03438 26.221874L113.03438 27.175L115.06563 27.175L115.06563 28.55L113.03438 28.55L113.03438 37.55L111.28438 37.55ZM116.22188 32.3625Q116.22188 29.4875 117.81563 28.096874Q119.15938 26.940624 121.08125 26.940624Q123.22188 26.940624 124.56563 28.346874Q125.925 29.753124 125.925 32.221874Q125.925 34.221874 125.33125 35.378124Q124.7375 36.51875 123.58125 37.159374Q122.44063 37.784374 121.08125 37.784374Q118.89375 37.784374 117.55 36.39375Q116.22188 34.9875 116.22188 32.3625ZM118.01875 32.3625Q118.01875 34.3625 118.87813 35.346874Q119.75313 36.33125 121.08125 36.33125Q122.39375 36.33125 123.25313 35.346874Q124.12813 34.346874 124.12813 32.3Q124.12813 30.378124 123.25313 29.39375Q122.37813 28.39375 121.08125 28.39375Q119.75313 28.39375 118.87813 29.39375Q118.01875 30.378124 118.01875 32.3625ZM127.84688 37.55L127.84688 27.175L129.425 27.175L129.425 28.753124Q130.03438 27.64375 130.55 27.3Q131.06563 26.940624 131.675 26.940624Q132.56563 26.940624 133.4875 27.503124L132.87813 29.14375Q132.2375 28.753124 131.59688 28.753124Q131.01875 28.753124 130.55 29.1125Q130.09688 29.45625 129.89375 30.065624Q129.6125 31.003124 129.6125 32.1125L129.6125 37.55L127.84688 37.55ZM134.8625 37.55L134.8625 27.175L136.44063 27.175L136.44063 28.628124Q136.925 27.878124 137.7375 27.409374Q138.55 26.940624 139.58125 26.940624Q140.7375 26.940624 141.47188 27.425Q142.20625 27.89375 142.51875 28.753124Q143.75313 26.940624 145.72188 26.940624Q147.26875 26.940624 148.09688 27.8Q148.925 28.659374 148.925 30.425L148.925 37.55L147.175 37.55L147.175 31.01875Q147.175 29.95625 147.00313 29.503124Q146.83125 29.034374 146.37813 28.753124Q145.94063 28.471874 145.33125 28.471874Q144.2375 28.471874 143.50313 29.20625Q142.78438 29.925 142.78438 31.51875L142.78438 37.55L141.03438 37.55L141.03438 30.815624Q141.03438 29.64375 140.59688 29.065624Q140.175 28.471874 139.19063 28.471874Q138.45625 28.471874 137.81563 28.8625Q137.19063 29.253124 136.90938 30.003124Q136.62813 30.753124 136.62813 32.175L136.62813 37.55L134.8625 37.55ZM157.64375 36.26875Q156.65938 37.096874 155.75313 37.440624Q154.84688 37.784374 153.81563 37.784374Q152.1125 37.784374 151.19063 36.95625Q150.26875 36.1125 150.26875 34.815624Q150.26875 34.05 150.6125 33.425Q150.97188 32.8 151.53438 32.425Q152.09688 32.034374 152.8 31.83125Q153.31563 31.70625 154.3625 31.565624Q156.4875 31.315624 157.4875 30.971874Q157.50313 30.6125 157.50313 30.503124Q157.50313 29.440624 157.00313 28.9875Q156.33125 28.39375 155.00313 28.39375Q153.75313 28.39375 153.15938 28.83125Q152.58125 29.26875 152.3 30.378124L150.58125 30.14375Q150.81563 29.034374 151.34688 28.3625Q151.87813 27.675 152.89375 27.315624Q153.90938 26.940624 155.25313 26.940624Q156.58125 26.940624 157.40938 27.253124Q158.2375 27.565624 158.62813 28.05Q159.01875 28.51875 159.175 29.2375Q159.26875 29.690624 159.26875 30.8625L159.26875 33.20625Q159.26875 35.659374 159.37813 36.315624Q159.4875 36.95625 159.83125 37.55L157.9875 37.55Q157.72188 37.003124 157.64375 36.26875ZM157.4875 32.346874Q156.53438 32.7375 154.6125 33.003124Q153.53438 33.159374 153.08125 33.3625Q152.64375 33.55 152.39375 33.925Q152.14375 34.3 152.14375 34.76875Q152.14375 35.471874 152.675 35.940624Q153.20625 36.409374 154.2375 36.409374Q155.25313 36.409374 156.03438 35.971874Q156.83125 35.51875 157.20625 34.753124Q157.4875 34.14375 157.4875 32.9875L157.4875 32.346874ZM161.8625 37.55L161.8625 27.175L163.45625 27.175L163.45625 28.659374Q164.59688 26.940624 166.75313 26.940624Q167.69063 26.940624 168.47188 27.284374Q169.26875 27.6125 169.65938 28.159374Q170.05 28.70625 170.20625 29.45625Q170.3 29.95625 170.3 31.175L170.3 37.55L168.53438 37.55L168.53438 31.2375Q168.53438 30.159374 168.33125 29.628124Q168.12813 29.096874 167.59688 28.784374Q167.08125 28.471874 166.37813 28.471874Q165.25313 28.471874 164.44063 29.190624Q163.62813 29.89375 163.62813 31.878124L163.62813 37.55L161.8625 37.55ZM178.64375 33.753124L180.3625 33.971874Q180.08125 35.76875 178.90938 36.784374Q177.75313 37.784374 176.05 37.784374Q173.925 37.784374 172.62813 36.39375Q171.33125 35.003124 171.33125 32.409374Q171.33125 30.721874 171.87813 29.471874Q172.44063 28.20625 173.58125 27.58125Q174.72188 26.940624 176.06563 26.940624Q177.75313 26.940624 178.81563 27.8Q179.89375 28.659374 180.20625 30.221874L178.4875 30.4875Q178.25313 29.440624 177.62813 28.925Q177.00313 28.39375 176.12813 28.39375Q174.8 28.39375 173.97188 29.346874Q173.14375 30.3 173.14375 32.346874Q173.14375 34.440624 173.94063 35.39375Q174.7375 36.33125 176.03438 36.33125Q177.06563 36.33125 177.75313 35.70625Q178.45625 35.065624 178.64375 33.753124ZM188.97188 34.20625L190.78438 34.440624Q190.3625 36.01875 189.19063 36.909374Q188.03438 37.784374 186.22188 37.784374Q183.95625 37.784374 182.6125 36.39375Q181.28438 34.9875 181.28438 32.45625Q181.28438 29.83125 182.62813 28.39375Q183.97188 26.940624 186.12813 26.940624Q188.20625 26.940624 189.51875 28.3625Q190.84688 29.76875 190.84688 32.346874Q190.84688 32.503124 190.83125 32.815624L183.09688 32.815624Q183.19063 34.51875 184.06563 35.425Q184.94063 36.33125 186.2375 36.33125Q187.20625 36.33125 187.87813 35.83125Q188.56563 35.315624 188.97188 34.20625ZM183.19063 31.3625L188.9875 31.3625Q188.87813 30.065624 188.33125 29.409374Q187.4875 28.39375 186.14375 28.39375Q184.94063 28.39375 184.1125 29.20625Q183.28438 30.003124 183.19063 31.3625Z" fill-rule="nonzero"/></svg>