<svg version="1.1" viewBox="0.0 0.0 600.0 371.0" fill="none" stroke="none" stroke-linecap="square" stroke-miterlimit="10" width="600" height="371" xmlns:xlink="http://www.w3.org/1999/xlink" xmlns="http://www.w3.org/2000/svg"><path fill="#ffffff" d="M0 0L600.0 0L600.0 371.0L0 371.0L0 0Z" fill-rule="nonzero"/><path fill="#ea4335" d="M300.0 54.916668C382.16156 54.916668 448.76666 121.521774 448.76666 203.68333C448.76666 285.8449 382.16156 352.45 300.0 352.45C217.83844 352.45 151.23334 285.8449 151.23334 203.68333C151.23334 121.521774 217.83844 54.916668 300.0 54.916668L300.0 203.68333Z" fill-rule="nonzero"/><path fill="#000000" d="M256.15625 198.66771L257.48438 198.66771L257.48438 204.44896Q257.48438 205.96458 257.14062 206.85521Q256.79688 207.74583 255.90625 208.30833Q255.01562 208.85521 253.5625 208.85521Q252.15625 208.85521 251.25 208.37083Q250.35938 207.88646 249.96875 206.96458Q249.59375 206.04271 249.59375 204.44896L249.59375 198.66771L250.92188 198.66771L250.92188 204.44896Q250.92188 205.74583 251.15625 206.37083Q251.40625 206.98021 252.0 207.32396Q252.59375 207.65208 253.45312 207.65208Q254.90625 207.65208 255.53125 206.99583Q256.15625 206.32396 256.15625 204.44896L256.15625 198.66771ZM258.42188 208.68333L258.42188 201.41771L259.53125 201.41771L259.53125 202.44896Q260.32812 201.26146 261.84375 201.26146Q262.5 201.26146 263.04688 201.49583Q263.59375 201.73021 263.85938 202.12083Q264.14062 202.49583 264.25 203.02708Q264.32812 203.37083 264.32812 204.21458L264.32812 208.68333L263.09375 208.68333L263.09375 204.26146Q263.09375 203.51146 262.95312 203.15208Q262.8125 202.77708 262.4375 202.55833Q262.07812 202.32396 261.57812 202.32396Q260.79688 202.32396 260.21875 202.82396Q259.65625 203.32396 259.65625 204.71458L259.65625 208.68333L258.42188 208.68333ZM271.14062 208.68333L271.14062 207.76146Q270.4375 208.85521 269.10938 208.85521Q268.23438 208.85521 267.5 208.37083Q266.78125 207.88646 266.375 207.02708Q265.98438 206.16771 265.98438 205.05833Q265.98438 203.98021 266.34375 203.08958Q266.70312 202.19896 267.42188 201.73021Q268.15625 201.26146 269.04688 201.26146Q269.70312 201.26146 270.21875 201.54271Q270.73438 201.80833 271.04688 202.26146L271.04688 198.66771L272.28125 198.66771L272.28125 208.68333L271.14062 208.68333ZM267.25 205.05833Q267.25 206.44896 267.82812 207.15208Q268.42188 207.83958 269.21875 207.83958Q270.03125 207.83958 270.59375 207.18333Q271.15625 206.51146 271.15625 205.16771Q271.15625 203.66771 270.57812 202.98021Q270.0 202.27708 269.17188 202.27708Q268.34375 202.27708 267.79688 202.94896Q267.25 203.62083 267.25 205.05833ZM279.39062 206.33958L280.67188 206.49583Q280.35938 207.62083 279.54688 208.24583Q278.73438 208.85521 277.46875 208.85521Q275.875 208.85521 274.9375 207.87083Q274.01562 206.88646 274.01562 205.12083Q274.01562 203.27708 274.95312 202.27708Q275.90625 201.26146 277.40625 201.26146Q278.85938 201.26146 279.78125 202.26146Q280.70312 203.24583 280.70312 205.04271Q280.70312 205.15208 280.70312 205.37083L275.28125 205.37083Q275.35938 206.55833 275.95312 207.19896Q276.5625 207.83958 277.48438 207.83958Q278.15625 207.83958 278.625 207.48021Q279.10938 207.12083 279.39062 206.33958ZM275.35938 204.35521L279.40625 204.35521Q279.32812 203.43333 278.9375 202.98021Q278.35938 202.27708 277.42188 202.27708Q276.5625 202.27708 275.98438 202.83958Q275.42188 203.40208 275.35938 204.35521ZM282.40625 208.68333L282.40625 201.41771L283.51562 201.41771L283.51562 202.52708Q283.9375 201.74583 284.29688 201.51146Q284.65625 201.26146 285.09375 201.26146Q285.71875 201.26146 286.35938 201.65208L285.9375 202.79271Q285.48438 202.52708 285.03125 202.52708Q284.625 202.52708 284.29688 202.77708Q283.98438 203.01146 283.84375 203.44896Q283.64062 204.10521 283.64062 204.88646L283.64062 208.68333L282.40625 208.68333ZM287.42188 211.46458L287.42188 201.41771L288.54688 201.41771L288.54688 202.37083Q288.9375 201.80833 289.4375 201.54271Q289.9375 201.26146 290.65625 201.26146Q291.57812 201.26146 292.28125 201.74583Q293.0 202.21458 293.35938 203.08958Q293.71875 203.96458 293.71875 204.99583Q293.71875 206.10521 293.3125 207.01146Q292.92188 207.90208 292.15625 208.38646Q291.40625 208.85521 290.5625 208.85521Q289.95312 208.85521 289.45312 208.58958Q288.96875 208.32396 288.65625 207.93333L288.65625 211.46458L287.42188 211.46458ZM288.53125 205.08958Q288.53125 206.49583 289.09375 207.16771Q289.67188 207.83958 290.48438 207.83958Q291.29688 207.83958 291.875 207.15208Q292.46875 206.44896 292.46875 204.99583Q292.46875 203.60521 291.89062 202.91771Q291.32812 202.23021 290.53125 202.23021Q289.75 202.23021 289.14062 202.96458Q288.53125 203.69896 288.53125 205.08958ZM300.39062 206.33958L301.67188 206.49583Q301.35938 207.62083 300.54688 208.24583Q299.73438 208.85521 298.46875 208.85521Q296.875 208.85521 295.9375 207.87083Q295.01562 206.88646 295.01562 205.12083Q295.01562 203.27708 295.95312 202.27708Q296.90625 201.26146 298.40625 201.26146Q299.85938 201.26146 300.78125 202.26146Q301.70312 203.24583 301.70312 205.04271Q301.70312 205.15208 301.70312 205.37083L296.28125 205.37083Q296.35938 206.55833 296.95312 207.19896Q297.5625 207.83958 298.48438 207.83958Q299.15625 207.83958 299.625 207.48021Q300.10938 207.12083 300.39062 206.33958ZM296.35938 204.35521L300.40625 204.35521Q300.32812 203.43333 299.9375 202.98021Q299.35938 202.27708 298.42188 202.27708Q297.5625 202.27708 296.98438 202.83958Q296.42188 203.40208 296.35938 204.35521ZM303.40625 208.68333L303.40625 201.41771L304.51562 201.41771L304.51562 202.52708Q304.9375 201.74583 305.29688 201.51146Q305.65625 201.26146 306.09375 201.26146Q306.71875 201.26146 307.35938 201.65208L306.9375 202.79271Q306.48438 202.52708 306.03125 202.52708Q305.625 202.52708 305.29688 202.77708Q304.98438 203.01146 304.84375 203.44896Q304.64062 204.10521 304.64062 204.88646L304.64062 208.68333L303.40625 208.68333ZM308.71875 208.68333L308.71875 202.38646L307.625 202.38646L307.625 201.41771L308.71875 201.41771L308.71875 200.65208Q308.71875 199.91771 308.84375 199.55833Q309.03125 199.08958 309.46875 198.79271Q309.92188 198.49583 310.73438 198.49583Q311.25 198.49583 311.875 198.62083L311.6875 199.68333Q311.3125 199.62083 310.96875 199.62083Q310.40625 199.62083 310.17188 199.85521Q309.9375 200.08958 309.9375 200.74583L309.9375 201.41771L311.35938 201.41771L311.35938 202.38646L309.9375 202.38646L309.9375 208.68333L308.71875 208.68333ZM311.96875 205.05833Q311.96875 203.04271 313.09375 202.05833Q314.01562 201.26146 315.375 201.26146Q316.85938 201.26146 317.8125 202.24583Q318.76562 203.21458 318.76562 204.94896Q318.76562 206.35521 318.34375 207.16771Q317.92188 207.96458 317.10938 208.41771Q316.3125 208.85521 315.375 208.85521Q313.84375 208.85521 312.90625 207.87083Q311.96875 206.88646 311.96875 205.05833ZM313.23438 205.05833Q313.23438 206.44896 313.84375 207.15208Q314.45312 207.83958 315.375 207.83958Q316.28125 207.83958 316.89062 207.13646Q317.5 206.43333 317.5 205.01146Q317.5 203.66771 316.89062 202.98021Q316.28125 202.27708 315.375 202.27708Q314.45312 202.27708 313.84375 202.96458Q313.23438 203.65208 313.23438 205.05833ZM320.40625 208.68333L320.40625 201.41771L321.51562 201.41771L321.51562 202.52708Q321.9375 201.74583 322.29688 201.51146Q322.65625 201.26146 323.09375 201.26146Q323.71875 201.26146 324.35938 201.65208L323.9375 202.79271Q323.48438 202.52708 323.03125 202.52708Q322.625 202.52708 322.29688 202.77708Q321.98438 203.01146 321.84375 203.44896Q321.64062 204.10521 321.64062 204.88646L321.64062 208.68333L320.40625 208.68333ZM325.42188 208.68333L325.42188 201.41771L326.53125 201.41771L326.53125 202.44896Q326.85938 201.90208 327.42188 201.58958Q328.0 201.26146 328.71875 201.26146Q329.53125 201.26146 330.04688 201.60521Q330.5625 201.93333 330.78125 202.52708Q331.64062 201.26146 333.01562 201.26146Q334.09375 201.26146 334.67188 201.85521Q335.26562 202.44896 335.26562 203.69896L335.26562 208.68333L334.03125 208.68333L334.03125 204.10521Q334.03125 203.37083 333.90625 203.04271Q333.79688 202.71458 333.48438 202.52708Q333.17188 202.32396 332.75 202.32396Q331.98438 202.32396 331.46875 202.83958Q330.96875 203.33958 330.96875 204.46458L330.96875 208.68333L329.73438 208.68333L329.73438 203.96458Q329.73438 203.15208 329.4375 202.74583Q329.14062 202.32396 328.45312 202.32396Q327.9375 202.32396 327.48438 202.60521Q327.04688 202.87083 326.84375 203.40208Q326.65625 203.91771 326.65625 204.91771L326.65625 208.68333L325.42188 208.68333ZM341.39062 206.33958L342.67188 206.49583Q342.35938 207.62083 341.54688 208.24583Q340.73438 208.85521 339.46875 208.85521Q337.875 208.85521 336.9375 207.87083Q336.01562 206.88646 336.01562 205.12083Q336.01562 203.27708 336.95312 202.27708Q337.90625 201.26146 339.40625 201.26146Q340.85938 201.26146 341.78125 202.26146Q342.70312 203.24583 342.70312 205.04271Q342.70312 205.15208 342.70312 205.37083L337.28125 205.37083Q337.35938 206.55833 337.95312 207.19896Q338.5625 207.83958 339.48438 207.83958Q340.15625 207.83958 340.625 207.48021Q341.10938 207.12083 341.39062 206.33958ZM337.35938 204.35521L341.40625 204.35521Q341.32812 203.43333 340.9375 202.98021Q340.35938 202.27708 339.42188 202.27708Q338.5625 202.27708 337.98438 202.83958Q337.42188 203.40208 337.35938 204.35521ZM349.14062 208.68333L349.14062 207.76146Q348.4375 208.85521 347.10938 208.85521Q346.23438 208.85521 345.5 208.37083Q344.78125 207.88646 344.375 207.02708Q343.98438 206.16771 343.98438 205.05833Q343.98438 203.98021 344.34375 203.08958Q344.70312 202.19896 345.42188 201.73021Q346.15625 201.26146 347.04688 201.26146Q347.70312 201.26146 348.21875 201.54271Q348.73438 201.80833 349.04688 202.26146L349.04688 198.66771L350.28125 198.66771L350.28125 208.68333L349.14062 208.68333ZM345.25 205.05833Q345.25 206.44896 345.82812 207.15208Q346.42188 207.83958 347.21875 207.83958Q348.03125 207.83958 348.59375 207.18333Q349.15625 206.51146 349.15625 205.16771Q349.15625 203.66771 348.57812 202.98021Q348.0 202.27708 347.17188 202.27708Q346.34375 202.27708 345.79688 202.94896Q345.25 203.62083 345.25 205.05833Z" fill-rule="nonzero"/><path fill="#000000" d="M30.315624 32.534374L32.20625 33.003124Q31.6125 35.346874 30.065624 36.58125Q28.51875 37.8 26.26875 37.8Q23.95625 37.8 22.503124 36.8625Q21.065624 35.909374 20.3 34.128124Q19.55 32.33125 19.55 30.284374Q19.55 28.05 20.39375 26.39375Q21.253124 24.721874 22.83125 23.8625Q24.409374 22.9875 26.3 22.9875Q28.45625 22.9875 29.909374 24.08125Q31.378124 25.175 31.95625 27.159374L30.096874 27.596874Q29.596874 26.034374 28.64375 25.33125Q27.70625 24.6125 26.26875 24.6125Q24.6125 24.6125 23.503124 25.409374Q22.39375 26.190624 21.940624 27.534374Q21.503124 28.8625 21.503124 30.26875Q21.503124 32.096874 22.034374 33.471874Q22.565624 34.83125 23.690624 35.503124Q24.815624 36.175 26.1125 36.175Q27.70625 36.175 28.815624 35.253124Q29.925 34.33125 30.315624 32.534374ZM40.64375 36.26875Q39.659374 37.096874 38.753124 37.440624Q37.846874 37.784374 36.815624 37.784374Q35.1125 37.784374 34.190624 36.95625Q33.26875 36.1125 33.26875 34.815624Q33.26875 34.05 33.6125 33.425Q33.971874 32.8 34.534374 32.425Q35.096874 32.034374 35.8 31.83125Q36.315624 31.70625 37.3625 31.565624Q39.4875 31.315624 40.4875 30.971874Q40.503124 30.6125 40.503124 30.503124Q40.503124 29.440624 40.003124 28.9875Q39.33125 28.39375 38.003124 28.39375Q36.753124 28.39375 36.159374 28.83125Q35.58125 29.26875 35.3 30.378124L33.58125 30.14375Q33.815624 29.034374 34.346874 28.3625Q34.878124 27.675 35.89375 27.315624Q36.909374 26.940624 38.253124 26.940624Q39.58125 26.940624 40.409374 27.253124Q41.2375 27.565624 41.628124 28.05Q42.01875 28.51875 42.175 29.2375Q42.26875 29.690624 42.26875 30.8625L42.26875 33.20625Q42.26875 35.659374 42.378124 36.315624Q42.4875 36.95625 42.83125 37.55L40.9875 37.55Q40.721874 37.003124 40.64375 36.26875ZM40.4875 32.346874Q39.534374 32.7375 37.6125 33.003124Q36.534374 33.159374 36.08125 33.3625Q35.64375 33.55 35.39375 33.925Q35.14375 34.3 35.14375 34.76875Q35.14375 35.471874 35.675 35.940624Q36.20625 36.409374 37.2375 36.409374Q38.253124 36.409374 39.034374 35.971874Q39.83125 35.51875 40.20625 34.753124Q40.4875 34.14375 40.4875 32.9875L40.4875 32.346874ZM48.70625 35.971874L48.95625 37.534374Q48.221874 37.690624 47.628124 37.690624Q46.675 37.690624 46.14375 37.39375Q45.628124 37.08125 45.409374 36.596874Q45.190624 36.096874 45.190624 34.51875L45.190624 28.55L43.909374 28.55L43.909374 27.175L45.190624 27.175L45.190624 24.6125L46.940624 23.55L46.940624 27.175L48.70625 27.175L48.70625 28.55L46.940624 28.55L46.940624 34.6125Q46.940624 35.3625 47.034374 35.58125Q47.128124 35.784374 47.33125 35.925Q47.55 36.05 47.940624 36.05Q48.221874 36.05 48.70625 35.971874ZM57.64375 36.26875Q56.659374 37.096874 55.753124 37.440624Q54.846874 37.784374 53.815624 37.784374Q52.1125 37.784374 51.190624 36.95625Q50.26875 36.1125 50.26875 34.815624Q50.26875 34.05 50.6125 33.425Q50.971874 32.8 51.534374 32.425Q52.096874 32.034374 52.8 31.83125Q53.315624 31.70625 54.3625 31.565624Q56.4875 31.315624 57.4875 30.971874Q57.503124 30.6125 57.503124 30.503124Q57.503124 29.440624 57.003124 28.9875Q56.33125 28.39375 55.003124 28.39375Q53.753124 28.39375 53.159374 28.83125Q52.58125 29.26875 52.3 30.378124L50.58125 30.14375Q50.815624 29.034374 51.346874 28.3625Q51.878124 27.675 52.89375 27.315624Q53.909374 26.940624 55.253124 26.940624Q56.58125 26.940624 57.409374 27.253124Q58.2375 27.565624 58.628124 28.05Q59.01875 28.51875 59.175 29.2375Q59.26875 29.690624 59.26875 30.8625L59.26875 33.20625Q59.26875 35.659374 59.378124 36.315624Q59.4875 36.95625 59.83125 37.55L57.9875 37.55Q57.721874 37.003124 57.64375 36.26875ZM57.4875 32.346874Q56.534374 32.7375 54.6125 33.003124Q53.534374 33.159374 53.08125 33.3625Q52.64375 33.55 52.39375 33.925Q52.14375 34.3 52.14375 34.76875Q52.14375 35.471874 52.675 35.940624Q53.20625 36.409374 54.2375 36.409374Q55.253124 36.409374 56.034374 35.971874Q56.83125 35.51875 57.20625 34.753124Q57.4875 34.14375 57.4875 32.9875L57.4875 32.346874ZM61.8625 41.51875L61.8625 27.175L63.471874 27.175L63.471874 28.51875Q64.03438 27.7375 64.7375 27.346874Q65.45625 26.940624 66.47188 26.940624Q67.8 26.940624 68.81563 27.628124Q69.83125 28.315624 70.34688 29.565624Q70.87813 30.8 70.87813 32.284374Q70.87813 33.878124 70.3 35.159374Q69.7375 36.425 68.64375 37.1125Q67.55 37.784374 66.34688 37.784374Q65.47188 37.784374 64.76875 37.409374Q64.08125 37.034374 63.628124 36.471874L63.628124 41.51875L61.8625 41.51875ZM63.45625 32.425Q63.45625 34.425 64.26875 35.378124Q65.08125 36.33125 66.2375 36.33125Q67.40938 36.33125 68.2375 35.346874Q69.08125 34.3625 69.08125 32.26875Q69.08125 30.3 68.25313 29.315624Q67.44063 28.315624 66.31563 28.315624Q65.19063 28.315624 64.31563 29.378124Q63.45625 30.425 63.45625 32.425ZM79.65938 37.55L79.65938 36.01875Q78.45625 37.784374 76.37813 37.784374Q75.45625 37.784374 74.65938 37.440624Q73.8625 37.08125 73.47188 36.55Q73.09688 36.01875 72.94063 35.2375Q72.83125 34.721874 72.83125 33.596874L72.83125 27.175L74.58125 27.175L74.58125 32.925Q74.58125 34.3 74.69063 34.784374Q74.8625 35.471874 75.39375 35.878124Q75.94063 36.26875 76.72188 36.26875Q77.51875 36.26875 78.20625 35.8625Q78.90938 35.45625 79.19063 34.76875Q79.4875 34.065624 79.4875 32.7375L79.4875 27.175L81.2375 27.175L81.2375 37.55L79.65938 37.55ZM82.83125 37.55L82.83125 23.2375L84.58125 23.2375L84.58125 37.55L82.83125 37.55ZM90.70625 35.971874L90.95625 37.534374Q90.22188 37.690624 89.62813 37.690624Q88.675 37.690624 88.14375 37.39375Q87.62813 37.08125 87.40938 36.596874Q87.19063 36.096874 87.19063 34.51875L87.19063 28.55L85.90938 28.55L85.90938 27.175L87.19063 27.175L87.19063 24.6125L88.94063 23.55L88.94063 27.175L90.70625 27.175L90.70625 28.55L88.94063 28.55L88.94063 34.6125Q88.94063 35.3625 89.03438 35.58125Q89.12813 35.784374 89.33125 35.925Q89.55 36.05 89.94063 36.05Q90.22188 36.05 90.70625 35.971874ZM99.09688 37.55L99.09688 23.2375L104.4875 23.2375Q105.925 23.2375 106.675 23.3625Q107.72188 23.55 108.44063 24.05Q109.15938 24.534374 109.58125 25.425Q110.01875 26.315624 110.01875 27.378124Q110.01875 29.20625 108.84688 30.471874Q107.69063 31.721874 104.65938 31.721874L100.9875 31.721874L100.9875 37.55L99.09688 37.55ZM100.9875 30.034374L104.69063 30.034374Q106.51875 30.034374 107.28438 29.3625Q108.06563 28.675 108.06563 27.425Q108.06563 26.534374 107.6125 25.89375Q107.15938 25.253124 106.425 25.05Q105.94063 24.925 104.64375 24.925L100.9875 24.925L100.9875 30.034374ZM118.97188 34.20625L120.78438 34.440624Q120.3625 36.01875 119.19063 36.909374Q118.03438 37.784374 116.22188 37.784374Q113.95625 37.784374 112.6125 36.39375Q111.28438 34.9875 111.28438 32.45625Q111.28438 29.83125 112.62813 28.39375Q113.97188 26.940624 116.12813 26.940624Q118.20625 26.940624 119.51875 28.3625Q120.84688 29.76875 120.84688 32.346874Q120.84688 32.503124 120.83125 32.815624L113.09688 32.815624Q113.19063 34.51875 114.06563 35.425Q114.94063 36.33125 116.2375 36.33125Q117.20625 36.33125 117.87813 35.83125Q118.56563 35.315624 118.97188 34.20625ZM113.19063 31.3625L118.9875 31.3625Q118.87813 30.065624 118.33125 29.409374Q117.4875 28.39375 116.14375 28.39375Q114.94063 28.39375 114.1125 29.20625Q113.28438 30.003124 113.19063 31.3625ZM122.84688 37.55L122.84688 27.175L124.425 27.175L124.425 28.753124Q125.03438 27.64375 125.55 27.3Q126.06563 26.940624 126.675 26.940624Q127.56563 26.940624 128.4875 27.503124L127.87813 29.14375Q127.2375 28.753124 126.59688 28.753124Q126.01875 28.753124 125.55 29.1125Q125.09688 29.45625 124.89375 30.065624Q124.6125 31.003124 124.6125 32.1125L124.6125 37.55L122.84688 37.55ZM130.28438 37.55L130.28438 28.55L128.7375 28.55L128.7375 27.175L130.28438 27.175L130.28438 26.08125Q130.28438 25.034374 130.47188 24.51875Q130.72188 23.83125 131.3625 23.409374Q132.00313 22.9875 133.15938 22.9875Q133.90938 22.9875 134.8 23.159374L134.53438 24.690624Q133.9875 24.596874 133.50313 24.596874Q132.70625 24.596874 132.3625 24.940624Q132.03438 25.284374 132.03438 26.221874L132.03438 27.175L134.06563 27.175L134.06563 28.55L132.03438 28.55L132.03438 37.55L130.28438 37.55ZM135.22188 32.3625Q135.22188 29.4875 136.81563 28.096874Q138.15938 26.940624 140.08125 26.940624Q142.22188 26.940624 143.56563 28.346874Q144.925 29.753124 144.925 32.221874Q144.925 34.221874 144.33125 35.378124Q143.7375 36.51875 142.58125 37.159374Q141.44063 37.784374 140.08125 37.784374Q137.89375 37.784374 136.55 36.39375Q135.22188 34.9875 135.22188 32.3625ZM137.01875 32.3625Q137.01875 34.3625 137.87813 35.346874Q138.75313 36.33125 140.08125 36.33125Q141.39375 36.33125 142.25313 35.346874Q143.12813 34.346874 143.12813 32.3Q143.12813 30.378124 142.25313 29.39375Q141.37813 28.39375 140.08125 28.39375Q138.75313 28.39375 137.87813 29.39375Q137.01875 30.378124 137.01875 32.3625ZM146.84688 37.55L146.84688 27.175L148.425 27.175L148.425 28.753124Q149.03438 27.64375 149.55 27.3Q150.06563 26.940624 150.675 26.940624Q151.56563 26.940624 152.4875 27.503124L151.87813 29.14375Q151.2375 28.753124 150.59688 28.753124Q150.01875 28.753124 149.55 29.1125Q149.09688 29.45625 148.89375 30.065624Q148.6125 31.003124 148.6125 32.1125L148.6125 37.55L146.84688 37.55ZM153.8625 37.55L153.8625 27.175L155.44063 27.175L155.44063 28.628124Q155.925 27.878124 156.7375 27.409374Q157.55 26.940624 158.58125 26.940624Q159.7375 26.940624 160.47188 27.425Q161.20625 27.89375 161.51875 28.753124Q162.75313 26.940624 164.72188 26.940624Q166.26875 26.940624 167.09688 27.8Q167.925 28.659374 167.925 30.425L167.925 37.55L166.175 37.55L166.175 31.01875Q166.175 29.95625 166.00313 29.503124Q165.83125 29.034374 165.37813 28.753124Q164.94063 28.471874 164.33125 28.471874Q163.2375 28.471874 162.50313 29.20625Q161.78438 29.925 161.78438 31.51875L161.78438 37.55L160.03438 37.55L160.03438 30.815624Q160.03438 29.64375 159.59688 29.065624Q159.175 28.471874 158.19063 28.471874Q157.45625 28.471874 156.81563 28.8625Q156.19063 29.253124 155.90938 30.003124Q155.62813 30.753124 155.62813 32.175L155.62813 37.55L153.8625 37.55ZM176.64375 36.26875Q175.65938 37.096874 174.75313 37.440624Q173.84688 37.784374 172.81563 37.784374Q171.1125 37.784374 170.19063 36.95625Q169.26875 36.1125 169.26875 34.815624Q169.26875 34.05 169.6125 33.425Q169.97188 32.8 170.53438 32.425Q171.09688 32.034374 171.8 31.83125Q172.31563 31.70625 173.3625 31.565624Q175.4875 31.315624 176.4875 30.971874Q176.50313 30.6125 176.50313 30.503124Q176.50313 29.440624 176.00313 28.9875Q175.33125 28.39375 174.00313 28.39375Q172.75313 28.39375 172.15938 28.83125Q171.58125 29.26875 171.3 30.378124L169.58125 30.14375Q169.81563 29.034374 170.34688 28.3625Q170.87813 27.675 171.89375 27.315624Q172.90938 26.940624 174.25313 26.940624Q175.58125 26.940624 176.40938 27.253124Q177.2375 27.565624 177.62813 28.05Q178.01875 28.51875 178.175 29.2375Q178.26875 29.690624 178.26875 30.8625L178.26875 33.20625Q178.26875 35.659374 178.37813 36.315624Q178.4875 36.95625 178.83125 37.55L176.9875 37.55Q176.72188 37.003124 176.64375 36.26875ZM176.4875 32.346874Q175.53438 32.7375 173.6125 33.003124Q172.53438 33.159374 172.08125 33.3625Q171.64375 33.55 171.39375 33.925Q171.14375 34.3 171.14375 34.76875Q171.14375 35.471874 171.675 35.940624Q172.20625 36.409374 173.2375 36.409374Q174.25313 36.409374 175.03438 35.971874Q175.83125 35.51875 176.20625 34.753124Q176.4875 34.14375 176.4875 32.9875L176.4875 32.346874ZM180.8625 37.55L180.8625 27.175L182.45625 27.175L182.45625 28.659374Q183.59688 26.940624 185.75313 26.940624Q186.69063 26.940624 187.47188 27.284374Q188.26875 27.6125 188.65938 28.159374Q189.05 28.70625 189.20625 29.45625Q189.3 29.95625 189.3 31.175L189.3 37.55L187.53438 37.55L187.53438 31.2375Q187.53438 30.159374 187.33125 29.628124Q187.12813 29.096874 186.59688 28.784374Q186.08125 28.471874 185.37813 28.471874Q184.25313 28.471874 183.44063 29.190624Q182.62813 29.89375 182.62813 31.878124L182.62813 37.55L180.8625 37.55ZM197.64375 33.753124L199.3625 33.971874Q199.08125 35.76875 197.90938 36.784374Q196.75313 37.784374 195.05 37.784374Q192.925 37.784374 191.62813 36.39375Q190.33125 35.003124 190.33125 32.409374Q190.33125 30.721874 190.87813 29.471874Q191.44063 28.20625 192.58125 27.58125Q193.72188 26.940624 195.06563 26.940624Q196.75313 26.940624 197.81563 27.8Q198.89375 28.659374 199.20625 30.221874L197.4875 30.4875Q197.25313 29.440624 196.62813 28.925Q196.00313 28.39375 195.12813 28.39375Q193.8 28.39375 192.97188 29.346874Q192.14375 30.3 192.14375 32.346874Q192.14375 34.440624 192.94063 35.39375Q193.7375 36.33125 195.03438 36.33125Q196.06563 36.33125 196.75313 35.70625Q197.45625 35.065624 197.64375 33.753124ZM207.97188 34.20625L209.78438 34.440624Q209.3625 36.01875 208.19063 36.909374Q207.03438 37.784374 205.22188 37.784374Q202.95625 37.784374 201.6125 36.39375Q200.28438 34.9875 200.28438 32.45625Q200.28438 29.83125 201.62813 28.39375Q202.97188 26.940624 205.12813 26.940624Q207.20625 26.940624 208.51875 28.3625Q209.84688 29.76875 209.84688 32.346874Q209.84688 32.503124 209.83125 32.815624L202.09688 32.815624Q202.19063 34.51875 203.06563 35.425Q203.94063 36.33125 205.2375 36.33125Q206.20625 36.33125 206.87813 35.83125Q207.56563 35.315624 207.97188 34.20625ZM202.19063 31.3625L207.9875 31.3625Q207.87813 30.065624 207.33125 29.409374Q206.4875 28.39375 205.14375 28.39375Q203.94063 28.39375 203.1125 29.20625Q202.28438 30.003124 202.19063 31.3625Z" fill-rule="nonzero"/></svg>