<svg version="1.1" viewBox="0.0 0.0 600.0 371.0" fill="none" stroke="none" stroke-linecap="square" stroke-miterlimit="10" width="600" height="371" xmlns:xlink="http://www.w3.org/1999/xlink" xmlns="http://www.w3.org/2000/svg"><path fill="#ffffff" d="M0 0L600.0 0L600.0 371.0L0 371.0L0 0Z" fill-rule="nonzero"/><path fill="#ea4335" d="M183.68953 110.92883C211.91702 75.53269 254.72664 54.916668 300.0 54.916668L300.0 203.68333Z" fill-rule="nonzero"/><path fill="#34a853" d="M300.0 54.916668C369.40762 54.916668 429.59213 102.91222 445.03677 170.57964C460.4814 238.24706 427.08154 307.60263 364.54742 337.71747C302.01334 367.8323 226.96448 350.70288 183.68953 296.43784C140.4146 242.17278 140.4146 165.1939 183.68953 110.92883L300.0 203.68333Z" fill-rule="nonzero"/><path fill="#1a1a1a" d="M27.3 59.39778L28.815624 59.39778L28.815624 66.00716Q28.815624 67.74153 28.425 68.75716Q28.034374 69.77278 27.01875 70.41341Q26.003124 71.05403 24.346874 71.05403Q22.7375 71.05403 21.70625 70.49153Q20.690624 69.92903 20.253124 68.88216Q19.815624 67.83528 19.815624 66.00716L19.815624 59.39778L21.33125 59.39778L21.33125 66.00716Q21.33125 67.49153 21.596874 68.21028Q21.878124 68.91341 22.55 69.30403Q23.2375 69.67903 24.20625 69.67903Q25.878124 69.67903 26.58125 68.92903Q27.3 68.16341 27.3 66.00716L27.3 59.39778ZM30.6125 70.85091L30.6125 62.55403L31.878124 62.55403L31.878124 63.725906Q32.784374 62.36653 34.51875 62.36653Q35.26875 62.36653 35.89375 62.632156Q36.51875 62.89778 36.83125 63.33528Q37.14375 63.77278 37.26875 64.38216Q37.346874 64.77278 37.346874 65.74153L37.346874 70.85091L35.940624 70.85091L35.940624 65.80403Q35.940624 64.94466 35.76875 64.52278Q35.6125 64.08528 35.190624 63.83528Q34.784374 63.58528 34.221874 63.58528Q33.315624 63.58528 32.659374 64.16341Q32.01875 64.72591 32.01875 66.31966L32.01875 70.85091L30.6125 70.85091ZM43.9875 70.85091L43.9875 69.80403Q43.20625 71.03841 41.675 71.03841Q40.675 71.03841 39.846874 70.49153Q39.01875 69.94466 38.55 68.96028Q38.096874 67.97591 38.096874 66.71028Q38.096874 65.46028 38.503124 64.46028Q38.925 63.444656 39.753124 62.913406Q40.58125 62.36653 41.6125 62.36653Q42.3625 62.36653 42.940624 62.67903Q43.534374 62.99153 43.89375 63.507156L43.89375 59.39778L45.3 59.39778L45.3 70.85091L43.9875 70.85091ZM39.55 66.71028Q39.55 68.30403 40.221874 69.10091Q40.89375 69.88216 41.8 69.88216Q42.721874 69.88216 43.3625 69.13216Q44.01875 68.36653 44.01875 66.81966Q44.01875 65.11653 43.3625 64.31966Q42.70625 63.52278 41.7375 63.52278Q40.8 63.52278 40.175 64.28841Q39.55 65.05403 39.55 66.71028ZM53.284374 68.17903L54.7375 68.35091Q54.39375 69.63216 53.45625 70.33528Q52.534374 71.03841 51.096874 71.03841Q49.26875 71.03841 48.20625 69.91341Q47.14375 68.78841 47.14375 66.77278Q47.14375 64.67903 48.221874 63.52278Q49.3 62.36653 51.01875 62.36653Q52.675 62.36653 53.721874 63.507156Q54.784374 64.63216 54.784374 66.67903Q54.784374 66.80403 54.784374 67.05403L48.596874 67.05403Q48.675 68.42903 49.3625 69.16341Q50.065624 69.88216 51.096874 69.88216Q51.878124 69.88216 52.425 69.47591Q52.971874 69.06966 53.284374 68.17903ZM48.675 65.89778L53.3 65.89778Q53.20625 64.85091 52.76875 64.33528Q52.096874 63.52278 51.034374 63.52278Q50.065624 63.52278 49.39375 64.17903Q48.7375 64.81966 48.675 65.89778ZM56.596874 70.85091L56.596874 62.55403L57.8625 62.55403L57.8625 63.80403Q58.346874 62.92903 58.753124 62.64778Q59.159374 62.36653 59.659374 62.36653Q60.3625 62.36653 61.096874 62.819656L60.6125 64.11653Q60.096874 63.819656 59.58125 63.819656Q59.128124 63.819656 58.753124 64.10091Q58.39375 64.36653 58.2375 64.86653Q58.003124 65.61653 58.003124 66.50716L58.003124 70.85091L56.596874 70.85091ZM61.6125 74.03841L61.6125 62.55403L62.89375 62.55403L62.89375 63.632156Q63.346874 62.99153 63.909374 62.67903Q64.4875 62.36653 65.3 62.36653Q66.3625 62.36653 67.175 62.913406Q67.9875 63.46028 68.39375 64.46028Q68.81563 65.44466 68.81563 66.63216Q68.81563 67.91341 68.34688 68.92903Q67.89375 69.94466 67.01875 70.49153Q66.15938 71.03841 65.19063 71.03841Q64.4875 71.03841 63.925 70.74153Q63.378124 70.44466 63.01875 69.99153L63.01875 74.03841L61.6125 74.03841ZM62.878124 66.74153Q62.878124 68.35091 63.51875 69.11653Q64.175 69.88216 65.09688 69.88216Q66.03438 69.88216 66.70625 69.08528Q67.37813 68.28841 67.37813 66.63216Q67.37813 65.03841 66.72188 64.25716Q66.06563 63.46028 65.15938 63.46028Q64.26875 63.46028 63.565624 64.30403Q62.878124 65.14778 62.878124 66.74153ZM76.28438 68.17903L77.7375 68.35091Q77.39375 69.63216 76.45625 70.33528Q75.53438 71.03841 74.09688 71.03841Q72.26875 71.03841 71.20625 69.91341Q70.14375 68.78841 70.14375 66.77278Q70.14375 64.67903 71.22188 63.52278Q72.3 62.36653 74.01875 62.36653Q75.675 62.36653 76.72188 63.507156Q77.78438 64.63216 77.78438 66.67903Q77.78438 66.80403 77.78438 67.05403L71.59688 67.05403Q71.675 68.42903 72.3625 69.16341Q73.06563 69.88216 74.09688 69.88216Q74.87813 69.88216 75.425 69.47591Q75.97188 69.06966 76.28438 68.17903ZM71.675 65.89778L76.3 65.89778Q76.20625 64.85091 75.76875 64.33528Q75.09688 63.52278 74.03438 63.52278Q73.06563 63.52278 72.39375 64.17903Q71.7375 64.81966 71.675 65.89778ZM79.59688 70.85091L79.59688 62.55403L80.8625 62.55403L80.8625 63.80403Q81.34688 62.92903 81.75313 62.64778Q82.15938 62.36653 82.65938 62.36653Q83.3625 62.36653 84.09688 62.819656L83.6125 64.11653Q83.09688 63.819656 82.58125 63.819656Q82.12813 63.819656 81.75313 64.10091Q81.39375 64.36653 81.2375 64.86653Q81.00313 65.61653 81.00313 66.50716L81.00313 70.85091L79.59688 70.85091ZM84.94063 70.85091L84.94063 63.64778L83.70625 63.64778L83.70625 62.55403L84.94063 62.55403L84.94063 61.663406Q84.94063 60.83528 85.09688 60.42903Q85.3 59.882156 85.8 59.538406Q86.31563 59.194656 87.2375 59.194656Q87.83125 59.194656 88.55 59.33528L88.34688 60.569656Q87.90938 60.49153 87.51875 60.49153Q86.87813 60.49153 86.6125 60.77278Q86.34688 61.038406 86.34688 61.788406L86.34688 62.55403L87.95625 62.55403L87.95625 63.64778L86.34688 63.64778L86.34688 70.85091L84.94063 70.85091ZM88.08125 66.69466Q88.08125 64.39778 89.3625 63.288406Q90.44063 62.36653 91.97188 62.36653Q93.69063 62.36653 94.76875 63.49153Q95.8625 64.60091 95.8625 66.58528Q95.8625 68.17903 95.37813 69.10091Q94.89375 70.02278 93.97188 70.53841Q93.06563 71.03841 91.97188 71.03841Q90.2375 71.03841 89.15938 69.92903Q88.08125 68.80403 88.08125 66.69466ZM89.53438 66.69466Q89.53438 68.28841 90.22188 69.08528Q90.925 69.88216 91.97188 69.88216Q93.01875 69.88216 93.70625 69.08528Q94.40938 68.28841 94.40938 66.64778Q94.40938 65.11653 93.70625 64.31966Q93.01875 63.52278 91.97188 63.52278Q90.925 63.52278 90.22188 64.31966Q89.53438 65.10091 89.53438 66.69466ZM97.59688 70.85091L97.59688 62.55403L98.8625 62.55403L98.8625 63.80403Q99.34688 62.92903 99.75313 62.64778Q100.15938 62.36653 100.65938 62.36653Q101.3625 62.36653 102.09688 62.819656L101.6125 64.11653Q101.09688 63.819656 100.58125 63.819656Q100.12813 63.819656 99.75313 64.10091Q99.39375 64.36653 99.2375 64.86653Q99.00313 65.61653 99.00313 66.50716L99.00313 70.85091L97.59688 70.85091ZM102.6125 70.85091L102.6125 62.55403L103.8625 62.55403L103.8625 63.71028Q104.25313 63.100906 104.89375 62.74153Q105.55 62.36653 106.37813 62.36653Q107.3 62.36653 107.89375 62.757156Q108.4875 63.132156 108.72188 63.819656Q109.70625 62.36653 111.28438 62.36653Q112.51875 62.36653 113.175 63.05403Q113.84688 63.725906 113.84688 65.14778L113.84688 70.85091L112.45625 70.85091L112.45625 65.61653Q112.45625 64.77278 112.31563 64.41341Q112.175 64.03841 111.81563 63.819656Q111.45625 63.58528 110.97188 63.58528Q110.09688 63.58528 109.51875 64.16341Q108.94063 64.74153 108.94063 66.02278L108.94063 70.85091L107.53438 70.85091L107.53438 65.46028Q107.53438 64.52278 107.19063 64.05403Q106.84688 63.58528 106.06563 63.58528Q105.47188 63.58528 104.97188 63.89778Q104.47188 64.21028 104.2375 64.81966Q104.01875 65.41341 104.01875 66.53841L104.01875 70.85091L102.6125 70.85091ZM121.28438 68.17903L122.7375 68.35091Q122.39375 69.63216 121.45625 70.33528Q120.53438 71.03841 119.09688 71.03841Q117.26875 71.03841 116.20625 69.91341Q115.14375 68.78841 115.14375 66.77278Q115.14375 64.67903 116.22188 63.52278Q117.3 62.36653 119.01875 62.36653Q120.675 62.36653 121.72188 63.507156Q122.78438 64.63216 122.78438 66.67903Q122.78438 66.80403 122.78438 67.05403L116.59688 67.05403Q116.675 68.42903 117.3625 69.16341Q118.06563 69.88216 119.09688 69.88216Q119.87813 69.88216 120.425 69.47591Q120.97188 69.06966 121.28438 68.17903ZM116.675 65.89778L121.3 65.89778Q121.20625 64.85091 120.76875 64.33528Q120.09688 63.52278 119.03438 63.52278Q118.06563 63.52278 117.39375 64.17903Q116.7375 64.81966 116.675 65.89778ZM129.9875 70.85091L129.9875 69.80403Q129.20625 71.03841 127.675 71.03841Q126.675 71.03841 125.84688 70.49153Q125.01875 69.94466 124.55 68.96028Q124.09688 67.97591 124.09688 66.71028Q124.09688 65.46028 124.50313 64.46028Q124.925 63.444656 125.75313 62.913406Q126.58125 62.36653 127.6125 62.36653Q128.3625 62.36653 128.94063 62.67903Q129.53438 62.99153 129.89375 63.507156L129.89375 59.39778L131.3 59.39778L131.3 70.85091L129.9875 70.85091ZM125.55 66.71028Q125.55 68.30403 126.22188 69.10091Q126.89375 69.88216 127.8 69.88216Q128.72188 69.88216 129.3625 69.13216Q130.01875 68.36653 130.01875 66.81966Q130.01875 65.11653 129.3625 64.31966Q128.70625 63.52278 127.7375 63.52278Q126.8 63.52278 126.175 64.28841Q125.55 65.05403 125.55 66.71028Z" fill-rule="nonzero"/><path fill="#9e9e9e" d="M24.51875 92.85091L23.1125 92.85091L23.1125 83.88216Q22.596874 84.36653 21.76875 84.85091Q20.95625 85.33528 20.3 85.58528L20.3 84.22591Q21.471874 83.66341 22.346874 82.88216Q23.2375 82.08528 23.6125 81.35091L24.51875 81.35091L24.51875 92.85091ZM32.721874 92.85091L32.721874 90.10091L27.753124 90.10091L27.753124 88.81966L32.9875 81.39778L34.128124 81.39778L34.128124 88.81966L35.675 88.81966L35.675 90.10091L34.128124 90.10091L34.128124 92.85091L32.721874 92.85091ZM32.721874 88.81966L32.721874 83.64778L29.14375 88.81966L32.721874 88.81966ZM38.003124 92.85091L38.003124 91.24153L39.6125 91.24153L39.6125 92.85091L38.003124 92.85091ZM41.221874 89.81966L42.628124 89.63216Q42.878124 90.83528 43.45625 91.36653Q44.034374 91.88216 44.878124 91.88216Q45.8625 91.88216 46.55 91.19466Q47.2375 90.50716 47.2375 89.49153Q47.2375 88.52278 46.596874 87.89778Q45.971874 87.27278 44.9875 87.27278Q44.596874 87.27278 44.003124 87.42903L44.159374 86.19466Q44.3 86.21028 44.378124 86.21028Q45.284374 86.21028 46.003124 85.74153Q46.721874 85.27278 46.721874 84.28841Q46.721874 83.52278 46.190624 83.02278Q45.675 82.50716 44.846874 82.50716Q44.01875 82.50716 43.471874 83.02278Q42.925 83.53841 42.76875 84.56966L41.3625 84.31966Q41.628124 82.89778 42.534374 82.13216Q43.45625 81.35091 44.815624 81.35091Q45.753124 81.35091 46.534374 81.75716Q47.33125 82.14778 47.7375 82.85091Q48.159374 83.53841 48.159374 84.31966Q48.159374 85.06966 47.753124 85.67903Q47.3625 86.28841 46.58125 86.64778Q47.596874 86.88216 48.159374 87.61653Q48.721874 88.35091 48.721874 89.46028Q48.721874 90.96028 47.628124 92.00716Q46.534374 93.05403 44.8625 93.05403Q43.3625 93.05403 42.3625 92.16341Q41.3625 91.25716 41.221874 89.81966ZM50.4875 84.14778Q50.4875 82.91341 51.096874 82.05403Q51.721874 81.19466 52.89375 81.19466Q53.971874 81.19466 54.675 81.97591Q55.378124 82.74153 55.378124 84.22591Q55.378124 85.67903 54.659374 86.47591Q53.95625 87.25716 52.909374 87.25716Q51.8625 87.25716 51.175 86.49153Q50.4875 85.71028 50.4875 84.14778ZM52.925 82.16341Q52.409374 82.16341 52.05 82.61653Q51.70625 83.06966 51.70625 84.28841Q51.70625 85.38216 52.05 85.83528Q52.409374 86.28841 52.925 86.28841Q53.45625 86.28841 53.8 85.83528Q54.159374 85.38216 54.159374 84.17903Q54.159374 83.06966 53.8 82.61653Q53.45625 82.16341 52.925 82.16341ZM52.940624 93.27278L59.20625 81.19466L60.346874 81.19466L54.096874 93.27278L52.940624 93.27278ZM57.89375 90.16341Q57.89375 88.92903 58.503124 88.06966Q59.128124 87.21028 60.3 87.21028Q61.378124 87.21028 62.08125 87.99153Q62.8 88.75716 62.8 90.24153Q62.8 91.69466 62.08125 92.49153Q61.3625 93.27278 60.315624 93.27278Q59.26875 93.27278 58.58125 92.49153Q57.89375 91.71028 57.89375 90.16341ZM60.346874 88.17903Q59.815624 88.17903 59.45625 88.63216Q59.1125 89.08528 59.1125 90.30403Q59.1125 91.39778 59.45625 91.85091Q59.815624 92.30403 60.33125 92.30403Q60.878124 92.30403 61.221874 91.85091Q61.565624 91.39778 61.565624 90.19466Q61.565624 89.08528 61.20625 88.63216Q60.8625 88.17903 60.346874 88.17903Z" fill-rule="nonzero"/><path stroke="#757575" stroke-width="1.0" stroke-linecap="butt" d="M18.55 76.35091L145.23334 76.35091L238.67993 76.35091" fill-rule="nonzero"/><path fill="#9e9e9e" d="M240.67993 76.35091C240.67993 75.24634 239.7845 74.35091 238.67993 74.35091C237.57536 74.35091 236.67993 75.24634 236.67993 76.35091C236.67993 77.455475 237.57536 78.35091 238.67993 78.35091C239.7845 78.35091 240.67993 77.455475 240.67993 76.35091" fill-rule="nonzero"/><path fill="#1a1a1a" d="M477.23126 319.93762Q477.23126 317.07825 478.7625 315.46887Q480.29376 313.8595 482.71564 313.8595Q484.29376 313.8595 485.5594 314.62512Q486.84064 315.37512 487.5125 316.7345Q488.1844 318.07825 488.1844 319.797Q488.1844 321.547 487.48126 322.922Q486.77814 324.297 485.48126 325.01575Q484.2 325.71887 482.7 325.71887Q481.09064 325.71887 479.8094 324.93762Q478.54376 324.14075 477.8875 322.797Q477.23126 321.43762 477.23126 319.93762ZM478.79376 319.95325Q478.79376 322.03137 479.90314 323.21887Q481.0125 324.40637 482.7 324.40637Q484.40314 324.40637 485.5125 323.20325Q486.6219 322.00012 486.6219 319.797Q486.6219 318.39075 486.1375 317.3595Q485.66876 316.31262 484.7625 315.7345Q483.85626 315.15637 482.71564 315.15637Q481.10626 315.15637 479.95 316.26575Q478.79376 317.37512 478.79376 319.95325ZM491.8094 325.51575L488.65314 317.21887L490.1375 317.21887L491.91876 322.18762Q492.21564 322.9845 492.45 323.8595Q492.6375 323.20325 492.98126 322.28137L494.825 317.21887L496.2625 317.21887L493.1219 325.51575L491.8094 325.51575ZM502.1844 322.84387L503.6375 323.01575Q503.29376 324.297 502.35626 325.00012Q501.4344 325.70325 499.9969 325.70325Q498.16876 325.70325 497.10626 324.57825Q496.04376 323.45325 496.04376 321.43762Q496.04376 319.34387 497.1219 318.18762Q498.2 317.03137 499.91876 317.03137Q501.575 317.03137 502.6219 318.172Q503.6844 319.297 503.6844 321.34387Q503.6844 321.46887 503.6844 321.71887L497.4969 321.71887Q497.575 323.09387 498.2625 323.82825Q498.96564 324.547 499.9969 324.547Q500.77814 324.547 501.325 324.14075Q501.8719 323.7345 502.1844 322.84387ZM497.575 320.56262L502.2 320.56262Q502.10626 319.51575 501.66876 319.00012Q500.9969 318.18762 499.9344 318.18762Q498.96564 318.18762 498.29376 318.84387Q497.6375 319.4845 497.575 320.56262ZM505.4969 325.51575L505.4969 317.21887L506.7625 317.21887L506.7625 318.46887Q507.2469 317.59387 507.65314 317.31262Q508.0594 317.03137 508.5594 317.03137Q509.2625 317.03137 509.9969 317.4845L509.5125 318.78137Q508.9969 318.4845 508.48126 318.4845Q508.02814 318.4845 507.65314 318.76575Q507.29376 319.03137 507.1375 319.53137Q506.90314 320.28137 506.90314 321.172L506.90314 325.51575L505.4969 325.51575ZM510.5125 328.70325L510.5125 317.21887L511.79376 317.21887L511.79376 318.297Q512.2469 317.65637 512.8094 317.34387Q513.3875 317.03137 514.2 317.03137Q515.2625 317.03137 516.075 317.57825Q516.8875 318.12512 517.29376 319.12512Q517.71564 320.1095 517.71564 321.297Q517.71564 322.57825 517.2469 323.59387Q516.79376 324.6095 515.91876 325.15637Q515.0594 325.70325 514.09064 325.70325Q513.3875 325.70325 512.825 325.40637Q512.27814 325.1095 511.91876 324.65637L511.91876 328.70325L510.5125 328.70325ZM511.77814 321.40637Q511.77814 323.01575 512.41876 323.78137Q513.075 324.547 513.9969 324.547Q514.9344 324.547 515.60626 323.75012Q516.27814 322.95325 516.27814 321.297Q516.27814 319.70325 515.6219 318.922Q514.96564 318.12512 514.0594 318.12512Q513.16876 318.12512 512.46564 318.96887Q511.77814 319.81262 511.77814 321.40637ZM525.1844 322.84387L526.6375 323.01575Q526.29376 324.297 525.35626 325.00012Q524.4344 325.70325 522.9969 325.70325Q521.16876 325.70325 520.10626 324.57825Q519.04376 323.45325 519.04376 321.43762Q519.04376 319.34387 520.1219 318.18762Q521.2 317.03137 522.91876 317.03137Q524.575 317.03137 525.6219 318.172Q526.6844 319.297 526.6844 321.34387Q526.6844 321.46887 526.6844 321.71887L520.4969 321.71887Q520.575 323.09387 521.2625 323.82825Q521.96564 324.547 522.9969 324.547Q523.77814 324.547 524.325 324.14075Q524.8719 323.7345 525.1844 322.84387ZM520.575 320.56262L525.2 320.56262Q525.10626 319.51575 524.66876 319.00012Q523.9969 318.18762 522.9344 318.18762Q521.96564 318.18762 521.29376 318.84387Q520.6375 319.4845 520.575 320.56262ZM528.4969 325.51575L528.4969 317.21887L529.7625 317.21887L529.7625 318.46887Q530.2469 317.59387 530.65314 317.31262Q531.0594 317.03137 531.5594 317.03137Q532.2625 317.03137 532.9969 317.4845L532.5125 318.78137Q531.9969 318.4845 531.48126 318.4845Q531.02814 318.4845 530.65314 318.76575Q530.29376 319.03137 530.1375 319.53137Q529.90314 320.28137 529.90314 321.172L529.90314 325.51575L528.4969 325.51575ZM533.84064 325.51575L533.84064 318.31262L532.60626 318.31262L532.60626 317.21887L533.84064 317.21887L533.84064 316.32825Q533.84064 315.50012 533.9969 315.09387Q534.2 314.547 534.7 314.20325Q535.21564 313.8595 536.1375 313.8595Q536.73126 313.8595 537.45 314.00012L537.2469 315.2345Q536.8094 315.15637 536.41876 315.15637Q535.77814 315.15637 535.5125 315.43762Q535.2469 315.70325 535.2469 316.45325L535.2469 317.21887L536.85626 317.21887L536.85626 318.31262L535.2469 318.31262L535.2469 325.51575L533.84064 325.51575ZM536.98126 321.3595Q536.98126 319.06262 538.2625 317.95325Q539.34064 317.03137 540.8719 317.03137Q542.59064 317.03137 543.66876 318.15637Q544.7625 319.26575 544.7625 321.25012Q544.7625 322.84387 544.27814 323.76575Q543.79376 324.68762 542.8719 325.20325Q541.96564 325.70325 540.8719 325.70325Q539.1375 325.70325 538.0594 324.59387Q536.98126 323.46887 536.98126 321.3595ZM538.4344 321.3595Q538.4344 322.95325 539.1219 323.75012Q539.825 324.547 540.8719 324.547Q541.91876 324.547 542.60626 323.75012Q543.3094 322.95325 543.3094 321.31262Q543.3094 319.78137 542.60626 318.9845Q541.91876 318.18762 540.8719 318.18762Q539.825 318.18762 539.1219 318.9845Q538.4344 319.76575 538.4344 321.3595ZM546.4969 325.51575L546.4969 317.21887L547.7625 317.21887L547.7625 318.46887Q548.2469 317.59387 548.65314 317.31262Q549.0594 317.03137 549.5594 317.03137Q550.2625 317.03137 550.9969 317.4845L550.5125 318.78137Q549.9969 318.4845 549.48126 318.4845Q549.02814 318.4845 548.65314 318.76575Q548.29376 319.03137 548.1375 319.53137Q547.90314 320.28137 547.90314 321.172L547.90314 325.51575L546.4969 325.51575ZM551.5125 325.51575L551.5125 317.21887L552.7625 317.21887L552.7625 318.37512Q553.15314 317.76575 553.79376 317.40637Q554.45 317.03137 555.27814 317.03137Q556.2 317.03137 556.79376 317.422Q557.3875 317.797 557.6219 318.4845Q558.60626 317.03137 560.1844 317.03137Q561.41876 317.03137 562.075 317.71887Q562.7469 318.39075 562.7469 319.81262L562.7469 325.51575L561.35626 325.51575L561.35626 320.28137Q561.35626 319.43762 561.21564 319.07825Q561.075 318.70325 560.71564 318.4845Q560.35626 318.25012 559.8719 318.25012Q558.9969 318.25012 558.41876 318.82825Q557.84064 319.40637 557.84064 320.68762L557.84064 325.51575L556.4344 325.51575L556.4344 320.12512Q556.4344 319.18762 556.09064 318.71887Q555.7469 318.25012 554.96564 318.25012Q554.3719 318.25012 553.8719 318.56262Q553.3719 318.87512 553.1375 319.4845Q552.91876 320.07825 552.91876 321.20325L552.91876 325.51575L551.5125 325.51575ZM570.1844 322.84387L571.6375 323.01575Q571.29376 324.297 570.35626 325.00012Q569.4344 325.70325 567.9969 325.70325Q566.16876 325.70325 565.10626 324.57825Q564.04376 323.45325 564.04376 321.43762Q564.04376 319.34387 565.1219 318.18762Q566.2 317.03137 567.91876 317.03137Q569.575 317.03137 570.6219 318.172Q571.6844 319.297 571.6844 321.34387Q571.6844 321.46887 571.6844 321.71887L565.4969 321.71887Q565.575 323.09387 566.2625 323.82825Q566.96564 324.547 567.9969 324.547Q568.77814 324.547 569.325 324.14075Q569.8719 323.7345 570.1844 322.84387ZM565.575 320.56262L570.2 320.56262Q570.10626 319.51575 569.66876 319.00012Q568.9969 318.18762 567.9344 318.18762Q566.96564 318.18762 566.29376 318.84387Q565.6375 319.4845 565.575 320.56262ZM578.8875 325.51575L578.8875 324.46887Q578.10626 325.70325 576.575 325.70325Q575.575 325.70325 574.7469 325.15637Q573.91876 324.6095 573.45 323.62512Q572.9969 322.64075 572.9969 321.37512Q572.9969 320.12512 573.40314 319.12512Q573.825 318.1095 574.65314 317.57825Q575.48126 317.03137 576.5125 317.03137Q577.2625 317.03137 577.84064 317.34387Q578.4344 317.65637 578.79376 318.172L578.79376 314.06262L580.2 314.06262L580.2 325.51575L578.8875 325.51575ZM574.45 321.37512Q574.45 322.96887 575.1219 323.76575Q575.79376 324.547 576.7 324.547Q577.6219 324.547 578.2625 323.797Q578.91876 323.03137 578.91876 321.4845Q578.91876 319.78137 578.2625 318.9845Q577.60626 318.18762 576.6375 318.18762Q575.7 318.18762 575.075 318.95325Q574.45 319.71887 574.45 321.37512Z" fill-rule="nonzero"/><path fill="#9e9e9e" d="M539.27814 341.297Q538.40314 340.9845 537.98126 340.39075Q537.5594 339.797 537.5594 338.96887Q537.5594 337.71887 538.45 336.87512Q539.35626 336.01575 540.85626 336.01575Q542.35626 336.01575 543.2625 336.89075Q544.1844 337.75012 544.1844 339.00012Q544.1844 339.797 543.7625 340.39075Q543.34064 340.9845 542.4969 341.297Q543.54376 341.64075 544.09064 342.40637Q544.65314 343.172 544.65314 344.2345Q544.65314 345.70325 543.60626 346.71887Q542.575 347.71887 540.8719 347.71887Q539.1844 347.71887 538.1375 346.71887Q537.10626 345.70325 537.10626 344.20325Q537.10626 343.07825 537.66876 342.32825Q538.23126 341.57825 539.27814 341.297ZM538.9969 338.922Q538.9969 339.7345 539.5125 340.25012Q540.04376 340.76575 540.8875 340.76575Q541.7 340.76575 542.21564 340.25012Q542.73126 339.7345 542.73126 339.00012Q542.73126 338.21887 542.2 337.70325Q541.66876 337.172 540.8719 337.172Q540.0594 337.172 539.52814 337.68762Q538.9969 338.20325 538.9969 338.922ZM538.54376 344.20325Q538.54376 344.81262 538.825 345.37512Q539.1219 345.93762 539.6844 346.25012Q540.2469 346.547 540.8875 346.547Q541.90314 346.547 542.5594 345.90637Q543.21564 345.25012 543.21564 344.25012Q543.21564 343.2345 542.52814 342.57825Q541.85626 341.90637 540.84064 341.90637Q539.85626 341.90637 539.2 342.56262Q538.54376 343.21887 538.54376 344.20325ZM546.1219 344.51575L547.59064 344.39075Q547.7625 345.46887 548.35626 346.01575Q548.95 346.547 549.79376 346.547Q550.8094 346.547 551.5125 345.78137Q552.21564 345.01575 552.21564 343.75012Q552.21564 342.547 551.54376 341.8595Q550.8719 341.15637 549.77814 341.15637Q549.09064 341.15637 548.54376 341.46887Q547.9969 341.78137 547.6844 342.26575L546.3719 342.09387L547.48126 336.21887L553.16876 336.21887L553.16876 337.56262L548.60626 337.56262L547.98126 340.64075Q549.0125 339.922 550.15314 339.922Q551.65314 339.922 552.6844 340.96887Q553.71564 342.00012 553.71564 343.62512Q553.71564 345.18762 552.8094 346.31262Q551.7 347.71887 549.79376 347.71887Q548.23126 347.71887 547.2469 346.84387Q546.2625 345.95325 546.1219 344.51575ZM555.90314 347.51575L555.90314 345.90637L557.5125 345.90637L557.5125 347.51575L555.90314 347.51575ZM559.21564 337.56262L559.21564 336.20325L566.6219 336.20325L566.6219 337.297Q565.52814 338.46887 564.45 340.40637Q563.3875 342.32825 562.79376 344.3595Q562.3719 345.797 562.2625 347.51575L560.8094 347.51575Q560.84064 346.15637 561.34064 344.25012Q561.85626 342.32825 562.79376 340.56262Q563.7469 338.78137 564.825 337.56262L559.21564 337.56262ZM568.3875 338.81262Q568.3875 337.57825 568.9969 336.71887Q569.6219 335.8595 570.79376 335.8595Q571.8719 335.8595 572.575 336.64075Q573.27814 337.40637 573.27814 338.89075Q573.27814 340.34387 572.5594 341.14075Q571.85626 341.922 570.8094 341.922Q569.7625 341.922 569.075 341.15637Q568.3875 340.37512 568.3875 338.81262ZM570.825 336.82825Q570.3094 336.82825 569.95 337.28137Q569.60626 337.7345 569.60626 338.95325Q569.60626 340.047 569.95 340.50012Q570.3094 340.95325 570.825 340.95325Q571.35626 340.95325 571.7 340.50012Q572.0594 340.047 572.0594 338.84387Q572.0594 337.7345 571.7 337.28137Q571.35626 336.82825 570.825 336.82825ZM570.84064 347.93762L577.10626 335.8595L578.2469 335.8595L571.9969 347.93762L570.84064 347.93762ZM575.79376 344.82825Q575.79376 343.59387 576.40314 342.7345Q577.02814 341.87512 578.2 341.87512Q579.27814 341.87512 579.98126 342.65637Q580.7 343.422 580.7 344.90637Q580.7 346.3595 579.98126 347.15637Q579.2625 347.93762 578.21564 347.93762Q577.16876 347.93762 576.48126 347.15637Q575.79376 346.37512 575.79376 344.82825ZM578.2469 342.84387Q577.71564 342.84387 577.35626 343.297Q577.0125 343.75012 577.0125 344.96887Q577.0125 346.06262 577.35626 346.51575Q577.71564 346.96887 578.23126 346.96887Q578.77814 346.96887 579.1219 346.51575Q579.46564 346.06262 579.46564 344.8595Q579.46564 343.75012 579.10626 343.297Q578.7625 342.84387 578.2469 342.84387Z" fill-rule="nonzero"/><path stroke="#757575" stroke-width="1.0" stroke-linecap="butt" d="M581.45 331.01575L454.76666 331.01575L361.32007 331.01575" fill-rule="nonzero"/><path fill="#9e9e9e" d="M363.32007 331.01575C363.32007 329.9112 362.42462 329.01575 361.32007 329.01575C360.21548 329.01575 359.32007 329.9112 359.32007 331.01575C359.32007 332.12033 360.21548 333.01575 361.32007 333.01575C362.42462 333.01575 363.32007 332.12033 363.32007 331.01575" fill-rule="nonzero"/><path fill="#000000" d="M20.096874 37.55L20.096874 23.2375L25.01875 23.2375Q26.690624 23.2375 27.58125 23.440624Q28.8 23.721874 29.675 24.45625Q30.8 25.425 31.3625 26.909374Q31.925 28.39375 31.925 30.315624Q31.925 31.940624 31.55 33.20625Q31.175 34.45625 30.565624 35.284374Q29.971874 36.1125 29.26875 36.596874Q28.565624 37.065624 27.565624 37.315624Q26.565624 37.55 25.253124 37.55L20.096874 37.55ZM21.9875 35.8625L25.05 35.8625Q26.45625 35.8625 27.253124 35.596874Q28.065624 35.33125 28.55 34.846874Q29.221874 34.175 29.596874 33.05Q29.971874 31.909374 29.971874 30.284374Q29.971874 28.034374 29.2375 26.83125Q28.503124 25.628124 27.440624 25.221874Q26.690624 24.925 25.003124 24.925L21.9875 24.925L21.9875 35.8625ZM33.846874 37.55L33.846874 27.175L35.425 27.175L35.425 28.753124Q36.034374 27.64375 36.55 27.3Q37.065624 26.940624 37.675 26.940624Q38.565624 26.940624 39.4875 27.503124L38.878124 29.14375Q38.2375 28.753124 37.596874 28.753124Q37.01875 28.753124 36.55 29.1125Q36.096874 29.45625 35.89375 30.065624Q35.6125 31.003124 35.6125 32.1125L35.6125 37.55L33.846874 37.55ZM40.878124 25.253124L40.878124 23.2375L42.64375 23.2375L42.64375 25.253124L40.878124 25.253124ZM40.878124 37.55L40.878124 27.175L42.64375 27.175L42.64375 37.55L40.878124 37.55ZM47.753124 37.55L43.8 27.175L45.659374 27.175L47.89375 33.39375Q48.253124 34.39375 48.55 35.471874Q48.784374 34.659374 49.20625 33.503124L51.503124 27.175L53.315624 27.175L49.39375 37.55L47.753124 37.55ZM60.971874 34.20625L62.784374 34.440624Q62.3625 36.01875 61.190624 36.909374Q60.034374 37.784374 58.221874 37.784374Q55.95625 37.784374 54.6125 36.39375Q53.284374 34.9875 53.284374 32.45625Q53.284374 29.83125 54.628124 28.39375Q55.971874 26.940624 58.128124 26.940624Q60.20625 26.940624 61.51875 28.3625Q62.846874 29.76875 62.846874 32.346874Q62.846874 32.503124 62.83125 32.815624L55.096874 32.815624Q55.190624 34.51875 56.065624 35.425Q56.940624 36.33125 58.2375 36.33125Q59.20625 36.33125 59.878124 35.83125Q60.565624 35.315624 60.971874 34.20625ZM55.190624 31.3625L60.9875 31.3625Q60.878124 30.065624 60.33125 29.409374Q59.4875 28.39375 58.14375 28.39375Q56.940624 28.39375 56.1125 29.20625Q55.284374 30.003124 55.190624 31.3625ZM68.70625 35.971874L68.95625 37.534374Q68.22188 37.690624 67.62813 37.690624Q66.675 37.690624 66.14375 37.39375Q65.62813 37.08125 65.40938 36.596874Q65.19063 36.096874 65.19063 34.51875L65.19063 28.55L63.909374 28.55L63.909374 27.175L65.19063 27.175L65.19063 24.6125L66.94063 23.55L66.94063 27.175L68.70625 27.175L68.70625 28.55L66.94063 28.55L66.94063 34.6125Q66.94063 35.3625 67.03438 35.58125Q67.12813 35.784374 67.33125 35.925Q67.55 36.05 67.94063 36.05Q68.22188 36.05 68.70625 35.971874ZM70.84688 37.55L70.84688 27.175L72.425 27.175L72.425 28.753124Q73.03438 27.64375 73.55 27.3Q74.06563 26.940624 74.675 26.940624Q75.56563 26.940624 76.4875 27.503124L75.87813 29.14375Q75.2375 28.753124 74.59688 28.753124Q74.01875 28.753124 73.55 29.1125Q73.09688 29.45625 72.89375 30.065624Q72.6125 31.003124 72.6125 32.1125L72.6125 37.55L70.84688 37.55ZM84.64375 36.26875Q83.65938 37.096874 82.75313 37.440624Q81.84688 37.784374 80.81563 37.784374Q79.1125 37.784374 78.19063 36.95625Q77.26875 36.1125 77.26875 34.815624Q77.26875 34.05 77.6125 33.425Q77.97188 32.8 78.53438 32.425Q79.09688 32.034374 79.8 31.83125Q80.31563 31.70625 81.3625 31.565624Q83.4875 31.315624 84.4875 30.971874Q84.50313 30.6125 84.50313 30.503124Q84.50313 29.440624 84.00313 28.9875Q83.33125 28.39375 82.00313 28.39375Q80.75313 28.39375 80.15938 28.83125Q79.58125 29.26875 79.3 30.378124L77.58125 30.14375Q77.81563 29.034374 78.34688 28.3625Q78.87813 27.675 79.89375 27.315624Q80.90938 26.940624 82.25313 26.940624Q83.58125 26.940624 84.40938 27.253124Q85.2375 27.565624 85.62813 28.05Q86.01875 28.51875 86.175 29.2375Q86.26875 29.690624 86.26875 30.8625L86.26875 33.20625Q86.26875 35.659374 86.37813 36.315624Q86.4875 36.95625 86.83125 37.55L84.9875 37.55Q84.72188 37.003124 84.64375 36.26875ZM84.4875 32.346874Q83.53438 32.7375 81.6125 33.003124Q80.53438 33.159374 80.08125 33.3625Q79.64375 33.55 79.39375 33.925Q79.14375 34.3 79.14375 34.76875Q79.14375 35.471874 79.675 35.940624Q80.20625 36.409374 81.2375 36.409374Q82.25313 36.409374 83.03438 35.971874Q83.83125 35.51875 84.20625 34.753124Q84.4875 34.14375 84.4875 32.9875L84.4875 32.346874ZM88.87813 25.253124L88.87813 23.2375L90.64375 23.2375L90.64375 25.253124L88.87813 25.253124ZM88.87813 37.55L88.87813 27.175L90.64375 27.175L90.64375 37.55L88.87813 37.55ZM92.8625 37.55L92.8625 27.175L94.45625 27.175L94.45625 28.659374Q95.59688 26.940624 97.75313 26.940624Q98.69063 26.940624 99.47188 27.284374Q100.26875 27.6125 100.65938 28.159374Q101.05 28.70625 101.20625 29.45625Q101.3 29.95625 101.3 31.175L101.3 37.55L99.53438 37.55L99.53438 31.2375Q99.53438 30.159374 99.33125 29.628124Q99.12813 29.096874 98.59688 28.784374Q98.08125 28.471874 97.37813 28.471874Q96.25313 28.471874 95.44063 29.190624Q94.62813 29.89375 94.62813 31.878124L94.62813 37.55L92.8625 37.55ZM109.09688 37.55L109.09688 23.2375L114.4875 23.2375Q115.925 23.2375 116.675 23.3625Q117.72188 23.55 118.44063 24.05Q119.15938 24.534374 119.58125 25.425Q120.01875 26.315624 120.01875 27.378124Q120.01875 29.20625 118.84688 30.471874Q117.69063 31.721874 114.65938 31.721874L110.9875 31.721874L110.9875 37.55L109.09688 37.55ZM110.9875 30.034374L114.69063 30.034374Q116.51875 30.034374 117.28438 29.3625Q118.06563 28.675 118.06563 27.425Q118.06563 26.534374 117.6125 25.89375Q117.15938 25.253124 116.425 25.05Q115.94063 24.925 114.64375 24.925L110.9875 24.925L110.9875 30.034374ZM128.97188 34.20625L130.78438 34.440624Q130.3625 36.01875 129.19063 36.909374Q128.03438 37.784374 126.22188 37.784374Q123.95625 37.784374 122.6125 36.39375Q121.28438 34.9875 121.28438 32.45625Q121.28438 29.83125 122.62813 28.39375Q123.97188 26.940624 126.12813 26.940624Q128.20625 26.940624 129.51875 28.3625Q130.84688 29.76875 130.84688 32.346874Q130.84688 32.503124 130.83125 32.815624L123.09688 32.815624Q123.19063 34.51875 124.06563 35.425Q124.94063 36.33125 126.2375 36.33125Q127.20625 36.33125 127.87813 35.83125Q128.56563 35.315624 128.97188 34.20625ZM123.19063 31.3625L128.9875 31.3625Q128.87813 30.065624 128.33125 29.409374Q127.4875 28.39375 126.14375 28.39375Q124.94063 28.39375 124.1125 29.20625Q123.28438 30.003124 123.19063 31.3625ZM132.84688 37.55L132.84688 27.175L134.425 27.175L134.425 28.753124Q135.03438 27.64375 135.55 27.3Q136.06563 26.940624 136.675 26.940624Q137.56563 26.940624 138.4875 27.503124L137.87813 29.14375Q137.2375 28.753124 136.59688 28.753124Q136.01875 28.753124 135.55 29.1125Q135.09688 29.45625 134.89375 30.065624Q134.6125 31.003124 134.6125 32.1125L134.6125 37.55L132.84688 37.55ZM140.28438 37.55L140.28438 28.55L138.7375 28.55L138.7375 27.175L140.28438 27.175L140.28438 26.08125Q140.28438 25.034374 140.47188 24.51875Q140.72188 23.83125 141.3625 23.409374Q142.00313 22.9875 143.15938 22.9875Q143.90938 22.9875 144.8 23.159374L144.53438 24.690624Q143.9875 24.596874 143.50313 24.596874Q142.70625 24.596874 142.3625 24.940624Q142.03438 25.284374 142.03438 26.221874L142.03438 27.175L144.06563 27.175L144.06563 28.55L142.03438 28.55L142.03438 37.55L140.28438 37.55ZM145.22188 32.3625Q145.22188 29.4875 146.81563 28.096874Q148.15938 26.940624 150.08125 26.940624Q152.22188 26.940624 153.56563 28.346874Q154.925 29.753124 154.925 32.221874Q154.925 34.221874 154.33125 35.378124Q153.7375 36.51875 152.58125 37.159374Q151.44063 37.784374 150.08125 37.784374Q147.89375 37.784374 146.55 36.39375Q145.22188 34.9875 145.22188 32.3625ZM147.01875 32.3625Q147.01875 34.3625 147.87813 35.346874Q148.75313 36.33125 150.08125 36.33125Q151.39375 36.33125 152.25313 35.346874Q153.12813 34.346874 153.12813 32.3Q153.12813 30.378124 152.25313 29.39375Q151.37813 28.39375 150.08125 28.39375Q148.75313 28.39375 147.87813 29.39375Q147.01875 30.378124 147.01875 32.3625ZM156.84688 37.55L156.84688 27.175L158.425 27.175L158.425 28.753124Q159.03438 27.64375 159.55 27.3Q160.06563 26.940624 160.675 26.940624Q161.56563 26.940624 162.4875 27.503124L161.87813 29.14375Q161.2375 28.753124 160.59688 28.753124Q160.01875 28.753124 159.55 29.1125Q159.09688 29.45625 158.89375 30.065624Q158.6125 31.003124 158.6125 32.1125L158.6125 37.55L156.84688 37.55ZM163.8625 37.55L163.8625 27.175L165.44063 27.175L165.44063 28.628124Q165.925 27.878124 166.7375 27.409374Q167.55 26.940624 168.58125 26.940624Q169.7375 26.940624 170.47188 27.425Q171.20625 27.89375 171.51875 28.753124Q172.75313 26.940624 174.72188 26.940624Q176.26875 26.940624 177.09688 27.8Q177.925 28.659374 177.925 30.425L177.925 37.55L176.175 37.55L176.175 31.01875Q176.175 29.95625 176.00313 29.503124Q175.83125 29.034374 175.37813 28.753124Q174.94063 28.471874 174.33125 28.471874Q173.2375 28.471874 172.50313 29.20625Q171.78438 29.925 171.78438 31.51875L171.78438 37.55L170.03438 37.55L170.03438 30.815624Q170.03438 29.64375 169.59688 29.065624Q169.175 28.471874 168.19063 28.471874Q167.45625 28.471874 166.81563 28.8625Q166.19063 29.253124 165.90938 30.003124Q165.62813 30.753124 165.62813 32.175L165.62813 37.55L163.8625 37.55ZM186.64375 36.26875Q185.65938 37.096874 184.75313 37.440624Q183.84688 37.784374 182.81563 37.784374Q181.1125 37.784374 180.19063 36.95625Q179.26875 36.1125 179.26875 34.815624Q179.26875 34.05 179.6125 33.425Q179.97188 32.8 180.53438 32.425Q181.09688 32.034374 181.8 31.83125Q182.31563 31.70625 183.3625 31.565624Q185.4875 31.315624 186.4875 30.971874Q186.50313 30.6125 186.50313 30.503124Q186.50313 29.440624 186.00313 28.9875Q185.33125 28.39375 184.00313 28.39375Q182.75313 28.39375 182.15938 28.83125Q181.58125 29.26875 181.3 30.378124L179.58125 30.14375Q179.81563 29.034374 180.34688 28.3625Q180.87813 27.675 181.89375 27.315624Q182.90938 26.940624 184.25313 26.940624Q185.58125 26.940624 186.40938 27.253124Q187.2375 27.565624 187.62813 28.05Q188.01875 28.51875 188.175 29.2375Q188.26875 29.690624 188.26875 30.8625L188.26875 33.20625Q188.26875 35.659374 188.37813 36.315624Q188.4875 36.95625 188.83125 37.55L186.9875 37.55Q186.72188 37.003124 186.64375 36.26875ZM186.4875 32.346874Q185.53438 32.7375 183.6125 33.003124Q182.53438 33.159374 182.08125 33.3625Q181.64375 33.55 181.39375 33.925Q181.14375 34.3 181.14375 34.76875Q181.14375 35.471874 181.675 35.940624Q182.20625 36.409374 183.2375 36.409374Q184.25313 36.409374 185.03438 35.971874Q185.83125 35.51875 186.20625 34.753124Q186.4875 34.14375 186.4875 32.9875L186.4875 32.346874ZM190.8625 37.55L190.8625 27.175L192.45625 27.175L192.45625 28.659374Q193.59688 26.940624 195.75313 26.940624Q196.69063 26.940624 197.47188 27.284374Q198.26875 27.6125 198.65938 28.159374Q199.05 28.70625 199.20625 29.45625Q199.3 29.95625 199.3 31.175L199.3 37.55L197.53438 37.55L197.53438 31.2375Q197.53438 30.159374 197.33125 29.628124Q197.12813 29.096874 196.59688 28.784374Q196.08125 28.471874 195.37813 28.471874Q194.25313 28.471874 193.44063 29.190624Q192.62813 29.89375 192.62813 31.878124L192.62813 37.55L190.8625 37.55ZM207.64375 33.753124L209.3625 33.971874Q209.08125 35.76875 207.90938 36.784374Q206.75313 37.784374 205.05 37.784374Q202.925 37.784374 201.62813 36.39375Q200.33125 35.003124 200.33125 32.409374Q200.33125 30.721874 200.87813 29.471874Q201.44063 28.20625 202.58125 27.58125Q203.72188 26.940624 205.06563 26.940624Q206.75313 26.940624 207.81563 27.8Q208.89375 28.659374 209.20625 30.221874L207.4875 30.4875Q207.25313 29.440624 206.62813 28.925Q206.00313 28.39375 205.12813 28.39375Q203.8 28.39375 202.97188 29.346874Q202.14375 30.3 202.14375 32.346874Q202.14375 34.440624 202.94063 35.39375Q203.7375 36.33125 205.03438 36.33125Q206.06563 36.33125 206.75313 35.70625Q207.45625 35.065624 207.64375 33.753124ZM217.97188 34.20625L219.78438 34.440624Q219.3625 36.01875 218.19063 36.909374Q217.03438 37.784374 215.22188 37.784374Q212.95625 37.784374 211.6125 36.39375Q210.28438 34.9875 210.28438 32.45625Q210.28438 29.83125 211.62813 28.39375Q212.97188 26.940624 215.12813 26.940624Q217.20625 26.940624 218.51875 28.3625Q219.84688 29.76875 219.84688 32.346874Q219.84688 32.503124 219.83125 32.815624L212.09688 32.815624Q212.19063 34.51875 213.06563 35.425Q213.94063 36.33125 215.2375 36.33125Q216.20625 36.33125 216.87813 35.83125Q217.56563 35.315624 217.97188 34.20625ZM212.19063 31.3625L217.9875 31.3625Q217.87813 30.065624 217.33125 29.409374Q216.4875 28.39375 215.14375 28.39375Q213.94063 28.39375 213.1125 29.20625Q212.28438 30.003124 212.19063 31.3625Z" fill-rule="nonzero"/></svg>