<svg version="1.1" viewBox="0.0 0.0 600.0 371.0" fill="none" stroke="none" stroke-linecap="square" stroke-miterlimit="10" width="600" height="371" xmlns:xlink="http://www.w3.org/1999/xlink" xmlns="http://www.w3.org/2000/svg"><path fill="#ffffff" d="M0 0L600.0 0L600.0 371.0L0 371.0L0 0Z" fill-rule="nonzero"/><path fill="#ea4335" d="M183.68953 110.92883C211.91702 75.53269 254.72664 54.916668 300.0 54.916668L300.0 203.68333Z" fill-rule="nonzero"/><path fill="#fbbc04" d="M235.45256 337.71747C194.66267 318.0741 165.03749 280.9253 154.96323 236.78703C144.88895 192.64877 155.46205 146.32497 183.68953 110.92883L300.0 203.68333Z" fill-rule="nonzero"/><path fill="#34a853" d="M300.0 54.916668C361.1846 54.916668 416.12973 92.37764 438.48297 149.33276C460.8362 206.28789 446.0385 271.12094 401.18704 312.73703C356.33554 354.35312 290.57797 364.26447 235.45256 337.71747L300.0 203.68333Z" fill-rule="nonzero"/><path fill="#000000" d="M332.7559 222.08699Q332.7559 219.58699 334.09964 218.18074Q335.4434 216.75887 337.55276 216.75887Q338.9434 216.75887 340.05276 217.43074Q341.17776 218.08699 341.7559 219.27449Q342.34964 220.46199 342.34964 221.96199Q342.34964 223.49324 341.72464 224.69637Q341.11526 225.89949 339.99026 226.52449Q338.86526 227.13387 337.55276 227.13387Q336.1309 227.13387 335.0215 226.44637Q333.91214 225.75887 333.334 224.58699Q332.7559 223.39949 332.7559 222.08699ZM334.1309 222.10262Q334.1309 223.91512 335.09964 224.96199Q336.084 225.99324 337.55276 225.99324Q339.03714 225.99324 340.0059 224.94637Q340.97464 223.89949 340.97464 221.96199Q340.97464 220.72762 340.55276 219.82137Q340.1465 218.91512 339.34964 218.41512Q338.55276 217.89949 337.5684 217.89949Q336.16214 217.89949 335.1465 218.86824Q334.1309 219.83699 334.1309 222.10262ZM346.0215 226.96199L343.2559 219.69637L344.5684 219.69637L346.11526 224.05574Q346.36526 224.75887 346.584 225.50887Q346.7559 224.93074 347.03714 224.13387L348.66214 219.69637L349.92776 219.69637L347.17776 226.96199L346.0215 226.96199ZM355.97464 224.61824L357.2559 224.77449Q356.9434 225.89949 356.1309 226.52449Q355.3184 227.13387 354.05276 227.13387Q352.459 227.13387 351.5215 226.14949Q350.59964 225.16512 350.59964 223.39949Q350.59964 221.55574 351.53714 220.55574Q352.49026 219.54012 353.99026 219.54012Q355.4434 219.54012 356.36526 220.54012Q357.28714 221.52449 357.28714 223.32137Q357.28714 223.43074 357.28714 223.64949L351.86526 223.64949Q351.9434 224.83699 352.53714 225.47762Q353.1465 226.11824 354.0684 226.11824Q354.74026 226.11824 355.209 225.75887Q355.6934 225.39949 355.97464 224.61824ZM351.9434 222.63387L355.99026 222.63387Q355.91214 221.71199 355.5215 221.25887Q354.9434 220.55574 354.0059 220.55574Q353.1465 220.55574 352.5684 221.11824Q352.0059 221.68074 351.9434 222.63387ZM358.99026 226.96199L358.99026 219.69637L360.09964 219.69637L360.09964 220.80574Q360.5215 220.02449 360.8809 219.79012Q361.24026 219.54012 361.67776 219.54012Q362.30276 219.54012 362.9434 219.93074L362.5215 221.07137Q362.0684 220.80574 361.61526 220.80574Q361.209 220.80574 360.8809 221.05574Q360.5684 221.29012 360.42776 221.72762Q360.22464 222.38387 360.22464 223.16512L360.22464 226.96199L358.99026 226.96199ZM364.0059 229.74324L364.0059 219.69637L365.1309 219.69637L365.1309 220.64949Q365.5215 220.08699 366.0215 219.82137Q366.5215 219.54012 367.24026 219.54012Q368.16214 219.54012 368.86526 220.02449Q369.584 220.49324 369.9434 221.36824Q370.30276 222.24324 370.30276 223.27449Q370.30276 224.38387 369.8965 225.29012Q369.5059 226.18074 368.74026 226.66512Q367.99026 227.13387 367.1465 227.13387Q366.53714 227.13387 366.03714 226.86824Q365.55276 226.60262 365.24026 226.21199L365.24026 229.74324L364.0059 229.74324ZM365.11526 223.36824Q365.11526 224.77449 365.67776 225.44637Q366.2559 226.11824 367.0684 226.11824Q367.8809 226.11824 368.459 225.43074Q369.05276 224.72762 369.05276 223.27449Q369.05276 221.88387 368.47464 221.19637Q367.91214 220.50887 367.11526 220.50887Q366.334 220.50887 365.72464 221.24324Q365.11526 221.97762 365.11526 223.36824ZM376.97464 224.61824L378.2559 224.77449Q377.9434 225.89949 377.1309 226.52449Q376.3184 227.13387 375.05276 227.13387Q373.459 227.13387 372.5215 226.14949Q371.59964 225.16512 371.59964 223.39949Q371.59964 221.55574 372.53714 220.55574Q373.49026 219.54012 374.99026 219.54012Q376.4434 219.54012 377.36526 220.54012Q378.28714 221.52449 378.28714 223.32137Q378.28714 223.43074 378.28714 223.64949L372.86526 223.64949Q372.9434 224.83699 373.53714 225.47762Q374.1465 226.11824 375.0684 226.11824Q375.74026 226.11824 376.209 225.75887Q376.6934 225.39949 376.97464 224.61824ZM372.9434 222.63387L376.99026 222.63387Q376.91214 221.71199 376.5215 221.25887Q375.9434 220.55574 375.0059 220.55574Q374.1465 220.55574 373.5684 221.11824Q373.0059 221.68074 372.9434 222.63387ZM379.99026 226.96199L379.99026 219.69637L381.09964 219.69637L381.09964 220.80574Q381.5215 220.02449 381.8809 219.79012Q382.24026 219.54012 382.67776 219.54012Q383.30276 219.54012 383.9434 219.93074L383.5215 221.07137Q383.0684 220.80574 382.61526 220.80574Q382.209 220.80574 381.8809 221.05574Q381.5684 221.29012 381.42776 221.72762Q381.22464 222.38387 381.22464 223.16512L381.22464 226.96199L379.99026 226.96199ZM385.30276 226.96199L385.30276 220.66512L384.209 220.66512L384.209 219.69637L385.30276 219.69637L385.30276 218.93074Q385.30276 218.19637 385.42776 217.83699Q385.61526 217.36824 386.05276 217.07137Q386.5059 216.77449 387.3184 216.77449Q387.834 216.77449 388.459 216.89949L388.2715 217.96199Q387.8965 217.89949 387.55276 217.89949Q386.99026 217.89949 386.7559 218.13387Q386.5215 218.36824 386.5215 219.02449L386.5215 219.69637L387.9434 219.69637L387.9434 220.66512L386.5215 220.66512L386.5215 226.96199L385.30276 226.96199ZM388.55276 223.33699Q388.55276 221.32137 389.67776 220.33699Q390.59964 219.54012 391.959 219.54012Q393.4434 219.54012 394.3965 220.52449Q395.34964 221.49324 395.34964 223.22762Q395.34964 224.63387 394.92776 225.44637Q394.5059 226.24324 393.6934 226.69637Q392.8965 227.13387 391.959 227.13387Q390.42776 227.13387 389.49026 226.14949Q388.55276 225.16512 388.55276 223.33699ZM389.8184 223.33699Q389.8184 224.72762 390.42776 225.43074Q391.03714 226.11824 391.959 226.11824Q392.86526 226.11824 393.47464 225.41512Q394.084 224.71199 394.084 223.29012Q394.084 221.94637 393.47464 221.25887Q392.86526 220.55574 391.959 220.55574Q391.03714 220.55574 390.42776 221.24324Q389.8184 221.93074 389.8184 223.33699ZM396.99026 226.96199L396.99026 219.69637L398.09964 219.69637L398.09964 220.80574Q398.5215 220.02449 398.8809 219.79012Q399.24026 219.54012 399.67776 219.54012Q400.30276 219.54012 400.9434 219.93074L400.5215 221.07137Q400.0684 220.80574 399.61526 220.80574Q399.209 220.80574 398.8809 221.05574Q398.5684 221.29012 398.42776 221.72762Q398.22464 222.38387 398.22464 223.16512L398.22464 226.96199L396.99026 226.96199ZM402.0059 226.96199L402.0059 219.69637L403.11526 219.69637L403.11526 220.72762Q403.4434 220.18074 404.0059 219.86824Q404.584 219.54012 405.30276 219.54012Q406.11526 219.54012 406.6309 219.88387Q407.1465 220.21199 407.36526 220.80574Q408.22464 219.54012 409.59964 219.54012Q410.67776 219.54012 411.2559 220.13387Q411.84964 220.72762 411.84964 221.97762L411.84964 226.96199L410.61526 226.96199L410.61526 222.38387Q410.61526 221.64949 410.49026 221.32137Q410.3809 220.99324 410.0684 220.80574Q409.7559 220.60262 409.334 220.60262Q408.5684 220.60262 408.05276 221.11824Q407.55276 221.61824 407.55276 222.74324L407.55276 226.96199L406.3184 226.96199L406.3184 222.24324Q406.3184 221.43074 406.0215 221.02449Q405.72464 220.60262 405.03714 220.60262Q404.5215 220.60262 404.0684 220.88387Q403.6309 221.14949 403.42776 221.68074Q403.24026 222.19637 403.24026 223.19637L403.24026 226.96199L402.0059 226.96199ZM417.97464 224.61824L419.2559 224.77449Q418.9434 225.89949 418.1309 226.52449Q417.3184 227.13387 416.05276 227.13387Q414.459 227.13387 413.5215 226.14949Q412.59964 225.16512 412.59964 223.39949Q412.59964 221.55574 413.53714 220.55574Q414.49026 219.54012 415.99026 219.54012Q417.4434 219.54012 418.36526 220.54012Q419.28714 221.52449 419.28714 223.32137Q419.28714 223.43074 419.28714 223.64949L413.86526 223.64949Q413.9434 224.83699 414.53714 225.47762Q415.1465 226.11824 416.0684 226.11824Q416.74026 226.11824 417.209 225.75887Q417.6934 225.39949 417.97464 224.61824ZM413.9434 222.63387L417.99026 222.63387Q417.91214 221.71199 417.5215 221.25887Q416.9434 220.55574 416.0059 220.55574Q415.1465 220.55574 414.5684 221.11824Q414.0059 221.68074 413.9434 222.63387ZM425.72464 226.96199L425.72464 226.04012Q425.0215 227.13387 423.6934 227.13387Q422.8184 227.13387 422.084 226.64949Q421.36526 226.16512 420.959 225.30574Q420.5684 224.44637 420.5684 223.33699Q420.5684 222.25887 420.92776 221.36824Q421.28714 220.47762 422.0059 220.00887Q422.74026 219.54012 423.6309 219.54012Q424.28714 219.54012 424.80276 219.82137Q425.3184 220.08699 425.6309 220.54012L425.6309 216.94637L426.86526 216.94637L426.86526 226.96199L425.72464 226.96199ZM421.834 223.33699Q421.834 224.72762 422.41214 225.43074Q423.0059 226.11824 423.80276 226.11824Q424.61526 226.11824 425.17776 225.46199Q425.74026 224.79012 425.74026 223.44637Q425.74026 221.94637 425.16214 221.25887Q424.584 220.55574 423.7559 220.55574Q422.92776 220.55574 422.3809 221.22762Q421.834 221.89949 421.834 223.33699Z" fill-rule="nonzero"/><path fill="#000000" d="M173.23892 226.09462L174.48892 225.98524Q174.58267 226.73524 174.9108 227.21962Q175.23892 227.704 175.9108 228.00087Q176.5983 228.29774 177.45767 228.29774Q178.20767 228.29774 178.7858 228.079Q179.37955 227.84462 179.6608 227.454Q179.94205 227.06337 179.94205 226.59462Q179.94205 226.12587 179.6608 225.78212Q179.39517 225.42274 178.77017 225.17274Q178.36392 225.0165 176.9733 224.68837Q175.5983 224.36024 175.05142 224.06337Q174.33267 223.68837 173.9733 223.1415Q173.62955 222.579 173.62955 221.87587Q173.62955 221.12587 174.05142 220.46962Q174.48892 219.79774 175.31705 219.46962Q176.14517 219.12587 177.1608 219.12587Q178.27017 219.12587 179.11392 219.48524Q179.9733 219.84462 180.42642 220.54774Q180.87955 221.23524 180.92642 222.11024L179.64517 222.204Q179.55142 221.2665 178.95767 220.78212Q178.36392 220.28212 177.20767 220.28212Q176.00455 220.28212 175.45767 220.73524Q174.9108 221.17274 174.9108 221.79774Q174.9108 222.329 175.30142 222.68837Q175.67642 223.03212 177.2858 223.40712Q178.9108 223.7665 179.50455 224.03212Q180.37955 224.43837 180.80142 225.06337Q181.2233 225.67274 181.2233 226.48524Q181.2233 227.28212 180.75455 228.00087Q180.30142 228.704 179.44205 229.09462Q178.58267 229.48524 177.52017 229.48524Q176.1608 229.48524 175.23892 229.09462Q174.31705 228.68837 173.7858 227.8915Q173.27017 227.09462 173.23892 226.09462ZM187.27017 228.42274Q186.5983 229.00087 185.95767 229.25087Q185.33267 229.48524 184.5983 229.48524Q183.4108 229.48524 182.75455 228.90712Q182.11392 228.31337 182.11392 227.3915Q182.11392 226.86024 182.3483 226.42274Q182.5983 225.98524 182.98892 225.71962Q183.39517 225.454 183.87955 225.31337Q184.23892 225.21962 184.9733 225.12587Q186.4733 224.954 187.17642 224.704Q187.17642 224.454 187.17642 224.3915Q187.17642 223.62587 186.83267 223.329Q186.36392 222.90712 185.42642 222.90712Q184.56705 222.90712 184.14517 223.21962Q183.73892 223.5165 183.5358 224.28212L182.33267 224.12587Q182.48892 223.34462 182.86392 222.87587Q183.25455 222.40712 183.95767 222.15712Q184.67642 221.8915 185.61392 221.8915Q186.5358 221.8915 187.11392 222.11024Q187.69205 222.329 187.95767 222.65712Q188.23892 222.98524 188.3483 223.50087Q188.4108 223.81337 188.4108 224.62587L188.4108 226.2665Q188.4108 227.98524 188.48892 228.43837Q188.56705 228.8915 188.80142 229.31337L187.52017 229.31337Q187.33267 228.92274 187.27017 228.42274ZM187.17642 225.67274Q186.50455 225.93837 185.1608 226.1415Q184.4108 226.25087 184.08267 226.3915Q183.77017 226.5165 183.5983 226.78212Q183.42642 227.04774 183.42642 227.36024Q183.42642 227.86024 183.80142 228.18837Q184.17642 228.5165 184.89517 228.5165Q185.61392 228.5165 186.1608 228.204Q186.70767 227.8915 186.9733 227.34462Q187.17642 226.93837 187.17642 226.12587L187.17642 225.67274ZM193.2233 228.21962L193.39517 229.29774Q192.87955 229.40712 192.4733 229.40712Q191.80142 229.40712 191.42642 229.204Q191.06705 228.98524 190.9108 228.6415Q190.77017 228.29774 190.77017 227.18837L190.77017 223.0165L189.86392 223.0165L189.86392 222.04774L190.77017 222.04774L190.77017 220.25087L191.98892 219.5165L191.98892 222.04774L193.2233 222.04774L193.2233 223.0165L191.98892 223.0165L191.98892 227.25087Q191.98892 227.78212 192.05142 227.93837Q192.11392 228.079 192.25455 228.17274Q192.4108 228.2665 192.67642 228.2665Q192.89517 228.2665 193.2233 228.21962ZM194.55142 220.704L194.55142 219.29774L195.77017 219.29774L195.77017 220.704L194.55142 220.704ZM194.55142 229.31337L194.55142 222.04774L195.77017 222.04774L195.77017 229.31337L194.55142 229.31337ZM197.05142 227.1415L198.25455 226.954Q198.36392 227.68837 198.83267 228.079Q199.30142 228.46962 200.14517 228.46962Q200.98892 228.46962 201.39517 228.12587Q201.81705 227.78212 201.81705 227.31337Q201.81705 226.8915 201.44205 226.65712Q201.19205 226.48524 200.19205 226.23524Q198.83267 225.8915 198.30142 225.6415Q197.7858 225.3915 197.52017 224.954Q197.25455 224.5165 197.25455 223.98524Q197.25455 223.50087 197.4733 223.09462Q197.69205 222.67274 198.08267 222.3915Q198.36392 222.18837 198.8483 222.04774Q199.3483 221.8915 199.92642 221.8915Q200.77017 221.8915 201.4108 222.1415Q202.06705 222.37587 202.37955 222.79774Q202.69205 223.21962 202.80142 223.92274L201.5983 224.09462Q201.52017 223.53212 201.11392 223.21962Q200.7233 222.90712 200.00455 222.90712Q199.1608 222.90712 198.80142 223.18837Q198.44205 223.454 198.44205 223.84462Q198.44205 224.079 198.58267 224.2665Q198.73892 224.46962 199.06705 224.59462Q199.23892 224.65712 200.14517 224.90712Q201.45767 225.2665 201.9733 225.48524Q202.48892 225.704 202.77017 226.12587Q203.06705 226.54774 203.06705 227.17274Q203.06705 227.79774 202.70767 228.34462Q202.36392 228.87587 201.67642 229.18837Q201.00455 229.48524 200.14517 229.48524Q198.73892 229.48524 197.98892 228.8915Q197.25455 228.29774 197.05142 227.1415ZM204.83267 229.31337L204.83267 223.0165L203.73892 223.0165L203.73892 222.04774L204.83267 222.04774L204.83267 221.28212Q204.83267 220.54774 204.95767 220.18837Q205.14517 219.71962 205.58267 219.42274Q206.0358 219.12587 206.8483 219.12587Q207.36392 219.12587 207.98892 219.25087L207.80142 220.31337Q207.42642 220.25087 207.08267 220.25087Q206.52017 220.25087 206.2858 220.48524Q206.05142 220.71962 206.05142 221.37587L206.05142 222.04774L207.4733 222.04774L207.4733 223.0165L206.05142 223.0165L206.05142 229.31337L204.83267 229.31337ZM213.27017 228.42274Q212.5983 229.00087 211.95767 229.25087Q211.33267 229.48524 210.5983 229.48524Q209.4108 229.48524 208.75455 228.90712Q208.11392 228.31337 208.11392 227.3915Q208.11392 226.86024 208.3483 226.42274Q208.5983 225.98524 208.98892 225.71962Q209.39517 225.454 209.87955 225.31337Q210.23892 225.21962 210.9733 225.12587Q212.4733 224.954 213.17642 224.704Q213.17642 224.454 213.17642 224.3915Q213.17642 223.62587 212.83267 223.329Q212.36392 222.90712 211.42642 222.90712Q210.56705 222.90712 210.14517 223.21962Q209.73892 223.5165 209.5358 224.28212L208.33267 224.12587Q208.48892 223.34462 208.86392 222.87587Q209.25455 222.40712 209.95767 222.15712Q210.67642 221.8915 211.61392 221.8915Q212.5358 221.8915 213.11392 222.11024Q213.69205 222.329 213.95767 222.65712Q214.23892 222.98524 214.3483 223.50087Q214.4108 223.81337 214.4108 224.62587L214.4108 226.2665Q214.4108 227.98524 214.48892 228.43837Q214.56705 228.8915 214.80142 229.31337L213.52017 229.31337Q213.33267 228.92274 213.27017 228.42274ZM213.17642 225.67274Q212.50455 225.93837 211.1608 226.1415Q210.4108 226.25087 210.08267 226.3915Q209.77017 226.5165 209.5983 226.78212Q209.42642 227.04774 209.42642 227.36024Q209.42642 227.86024 209.80142 228.18837Q210.17642 228.5165 210.89517 228.5165Q211.61392 228.5165 212.1608 228.204Q212.70767 227.8915 212.9733 227.34462Q213.17642 226.93837 213.17642 226.12587L213.17642 225.67274ZM221.27017 226.65712L222.48892 226.81337Q222.2858 228.06337 221.45767 228.78212Q220.64517 229.48524 219.45767 229.48524Q217.9733 229.48524 217.06705 228.5165Q216.1608 227.53212 216.1608 225.704Q216.1608 224.53212 216.55142 223.65712Q216.94205 222.7665 217.73892 222.329Q218.5358 221.8915 219.4733 221.8915Q220.64517 221.8915 221.39517 222.48524Q222.1608 223.079 222.36392 224.18837L221.17642 224.37587Q221.00455 223.6415 220.56705 223.28212Q220.12955 222.90712 219.52017 222.90712Q218.58267 222.90712 218.00455 223.579Q217.42642 224.23524 217.42642 225.67274Q217.42642 227.1415 217.98892 227.81337Q218.55142 228.46962 219.44205 228.46962Q220.17642 228.46962 220.6608 228.03212Q221.14517 227.579 221.27017 226.65712ZM226.2233 228.21962L226.39517 229.29774Q225.87955 229.40712 225.4733 229.40712Q224.80142 229.40712 224.42642 229.204Q224.06705 228.98524 223.9108 228.6415Q223.77017 228.29774 223.77017 227.18837L223.77017 223.0165L222.86392 223.0165L222.86392 222.04774L223.77017 222.04774L223.77017 220.25087L224.98892 219.5165L224.98892 222.04774L226.2233 222.04774L226.2233 223.0165L224.98892 223.0165L224.98892 227.25087Q224.98892 227.78212 225.05142 227.93837Q225.11392 228.079 225.25455 228.17274Q225.4108 228.2665 225.67642 228.2665Q225.89517 228.2665 226.2233 228.21962ZM227.08267 225.68837Q227.08267 223.67274 228.20767 222.68837Q229.12955 221.8915 230.48892 221.8915Q231.9733 221.8915 232.92642 222.87587Q233.87955 223.84462 233.87955 225.579Q233.87955 226.98524 233.45767 227.79774Q233.0358 228.59462 232.2233 229.04774Q231.42642 229.48524 230.48892 229.48524Q228.95767 229.48524 228.02017 228.50087Q227.08267 227.5165 227.08267 225.68837ZM228.3483 225.68837Q228.3483 227.079 228.95767 227.78212Q229.56705 228.46962 230.48892 228.46962Q231.39517 228.46962 232.00455 227.7665Q232.61392 227.06337 232.61392 225.6415Q232.61392 224.29774 232.00455 223.61024Q231.39517 222.90712 230.48892 222.90712Q229.56705 222.90712 228.95767 223.59462Q228.3483 224.28212 228.3483 225.68837ZM235.52017 229.31337L235.52017 222.04774L236.62955 222.04774L236.62955 223.15712Q237.05142 222.37587 237.4108 222.1415Q237.77017 221.8915 238.20767 221.8915Q238.83267 221.8915 239.4733 222.28212L239.05142 223.42274Q238.5983 223.15712 238.14517 223.15712Q237.73892 223.15712 237.4108 223.40712Q237.0983 223.6415 236.95767 224.079Q236.75455 224.73524 236.75455 225.5165L236.75455 229.31337L235.52017 229.31337ZM240.48892 232.11024L240.3483 230.954Q240.75455 231.06337 241.05142 231.06337Q241.45767 231.06337 241.70767 230.92274Q241.95767 230.79774 242.11392 230.54774Q242.2233 230.36024 242.48892 229.62587Q242.52017 229.53212 242.5983 229.329L239.83267 222.04774L241.1608 222.04774L242.67642 226.25087Q242.9733 227.06337 243.20767 227.93837Q243.4108 227.09462 243.70767 226.28212L245.25455 222.04774L246.48892 222.04774L243.7233 229.43837Q243.2858 230.62587 243.0358 231.079Q242.70767 231.68837 242.2858 231.96962Q241.86392 232.2665 241.27017 232.2665Q240.92642 232.2665 240.48892 232.11024Z" fill-rule="nonzero"/><path fill="#1a1a1a" d="M27.3 59.39778L28.815624 59.39778L28.815624 66.00716Q28.815624 67.74153 28.425 68.75716Q28.034374 69.77278 27.01875 70.41341Q26.003124 71.05403 24.346874 71.05403Q22.7375 71.05403 21.70625 70.49153Q20.690624 69.92903 20.253124 68.88216Q19.815624 67.83528 19.815624 66.00716L19.815624 59.39778L21.33125 59.39778L21.33125 66.00716Q21.33125 67.49153 21.596874 68.21028Q21.878124 68.91341 22.55 69.30403Q23.2375 69.67903 24.20625 69.67903Q25.878124 69.67903 26.58125 68.92903Q27.3 68.16341 27.3 66.00716L27.3 59.39778ZM30.6125 70.85091L30.6125 62.55403L31.878124 62.55403L31.878124 63.725906Q32.784374 62.36653 34.51875 62.36653Q35.26875 62.36653 35.89375 62.632156Q36.51875 62.89778 36.83125 63.33528Q37.14375 63.77278 37.26875 64.38216Q37.346874 64.77278 37.346874 65.74153L37.346874 70.85091L35.940624 70.85091L35.940624 65.80403Q35.940624 64.94466 35.76875 64.52278Q35.6125 64.08528 35.190624 63.83528Q34.784374 63.58528 34.221874 63.58528Q33.315624 63.58528 32.659374 64.16341Q32.01875 64.72591 32.01875 66.31966L32.01875 70.85091L30.6125 70.85091ZM43.9875 70.85091L43.9875 69.80403Q43.20625 71.03841 41.675 71.03841Q40.675 71.03841 39.846874 70.49153Q39.01875 69.94466 38.55 68.96028Q38.096874 67.97591 38.096874 66.71028Q38.096874 65.46028 38.503124 64.46028Q38.925 63.444656 39.753124 62.913406Q40.58125 62.36653 41.6125 62.36653Q42.3625 62.36653 42.940624 62.67903Q43.534374 62.99153 43.89375 63.507156L43.89375 59.39778L45.3 59.39778L45.3 70.85091L43.9875 70.85091ZM39.55 66.71028Q39.55 68.30403 40.221874 69.10091Q40.89375 69.88216 41.8 69.88216Q42.721874 69.88216 43.3625 69.13216Q44.01875 68.36653 44.01875 66.81966Q44.01875 65.11653 43.3625 64.31966Q42.70625 63.52278 41.7375 63.52278Q40.8 63.52278 40.175 64.28841Q39.55 65.05403 39.55 66.71028ZM53.284374 68.17903L54.7375 68.35091Q54.39375 69.63216 53.45625 70.33528Q52.534374 71.03841 51.096874 71.03841Q49.26875 71.03841 48.20625 69.91341Q47.14375 68.78841 47.14375 66.77278Q47.14375 64.67903 48.221874 63.52278Q49.3 62.36653 51.01875 62.36653Q52.675 62.36653 53.721874 63.507156Q54.784374 64.63216 54.784374 66.67903Q54.784374 66.80403 54.784374 67.05403L48.596874 67.05403Q48.675 68.42903 49.3625 69.16341Q50.065624 69.88216 51.096874 69.88216Q51.878124 69.88216 52.425 69.47591Q52.971874 69.06966 53.284374 68.17903ZM48.675 65.89778L53.3 65.89778Q53.20625 64.85091 52.76875 64.33528Q52.096874 63.52278 51.034374 63.52278Q50.065624 63.52278 49.39375 64.17903Q48.7375 64.81966 48.675 65.89778ZM56.596874 70.85091L56.596874 62.55403L57.8625 62.55403L57.8625 63.80403Q58.346874 62.92903 58.753124 62.64778Q59.159374 62.36653 59.659374 62.36653Q60.3625 62.36653 61.096874 62.819656L60.6125 64.11653Q60.096874 63.819656 59.58125 63.819656Q59.128124 63.819656 58.753124 64.10091Q58.39375 64.36653 58.2375 64.86653Q58.003124 65.61653 58.003124 66.50716L58.003124 70.85091L56.596874 70.85091ZM61.6125 74.03841L61.6125 62.55403L62.89375 62.55403L62.89375 63.632156Q63.346874 62.99153 63.909374 62.67903Q64.4875 62.36653 65.3 62.36653Q66.3625 62.36653 67.175 62.913406Q67.9875 63.46028 68.39375 64.46028Q68.81563 65.44466 68.81563 66.63216Q68.81563 67.91341 68.34688 68.92903Q67.89375 69.94466 67.01875 70.49153Q66.15938 71.03841 65.19063 71.03841Q64.4875 71.03841 63.925 70.74153Q63.378124 70.44466 63.01875 69.99153L63.01875 74.03841L61.6125 74.03841ZM62.878124 66.74153Q62.878124 68.35091 63.51875 69.11653Q64.175 69.88216 65.09688 69.88216Q66.03438 69.88216 66.70625 69.08528Q67.37813 68.28841 67.37813 66.63216Q67.37813 65.03841 66.72188 64.25716Q66.06563 63.46028 65.15938 63.46028Q64.26875 63.46028 63.565624 64.30403Q62.878124 65.14778 62.878124 66.74153ZM76.28438 68.17903L77.7375 68.35091Q77.39375 69.63216 76.45625 70.33528Q75.53438 71.03841 74.09688 71.03841Q72.26875 71.03841 71.20625 69.91341Q70.14375 68.78841 70.14375 66.77278Q70.14375 64.67903 71.22188 63.52278Q72.3 62.36653 74.01875 62.36653Q75.675 62.36653 76.72188 63.507156Q77.78438 64.63216 77.78438 66.67903Q77.78438 66.80403 77.78438 67.05403L71.59688 67.05403Q71.675 68.42903 72.3625 69.16341Q73.06563 69.88216 74.09688 69.88216Q74.87813 69.88216 75.425 69.47591Q75.97188 69.06966 76.28438 68.17903ZM71.675 65.89778L76.3 65.89778Q76.20625 64.85091 75.76875 64.33528Q75.09688 63.52278 74.03438 63.52278Q73.06563 63.52278 72.39375 64.17903Q71.7375 64.81966 71.675 65.89778ZM79.59688 70.85091L79.59688 62.55403L80.8625 62.55403L80.8625 63.80403Q81.34688 62.92903 81.75313 62.64778Q82.15938 62.36653 82.65938 62.36653Q83.3625 62.36653 84.09688 62.819656L83.6125 64.11653Q83.09688 63.819656 82.58125 63.819656Q82.12813 63.819656 81.75313 64.10091Q81.39375 64.36653 81.2375 64.86653Q81.00313 65.61653 81.00313 66.50716L81.00313 70.85091L79.59688 70.85091ZM84.94063 70.85091L84.94063 63.64778L83.70625 63.64778L83.70625 62.55403L84.94063 62.55403L84.94063 61.663406Q84.94063 60.83528 85.09688 60.42903Q85.3 59.882156 85.8 59.538406Q86.31563 59.194656 87.2375 59.194656Q87.83125 59.194656 88.55 59.33528L88.34688 60.569656Q87.90938 60.49153 87.51875 60.49153Q86.87813 60.49153 86.6125 60.77278Q86.34688 61.038406 86.34688 61.788406L86.34688 62.55403L87.95625 62.55403L87.95625 63.64778L86.34688 63.64778L86.34688 70.85091L84.94063 70.85091ZM88.08125 66.69466Q88.08125 64.39778 89.3625 63.288406Q90.44063 62.36653 91.97188 62.36653Q93.69063 62.36653 94.76875 63.49153Q95.8625 64.60091 95.8625 66.58528Q95.8625 68.17903 95.37813 69.10091Q94.89375 70.02278 93.97188 70.53841Q93.06563 71.03841 91.97188 71.03841Q90.2375 71.03841 89.15938 69.92903Q88.08125 68.80403 88.08125 66.69466ZM89.53438 66.69466Q89.53438 68.28841 90.22188 69.08528Q90.925 69.88216 91.97188 69.88216Q93.01875 69.88216 93.70625 69.08528Q94.40938 68.28841 94.40938 66.64778Q94.40938 65.11653 93.70625 64.31966Q93.01875 63.52278 91.97188 63.52278Q90.925 63.52278 90.22188 64.31966Q89.53438 65.10091 89.53438 66.69466ZM97.59688 70.85091L97.59688 62.55403L98.8625 62.55403L98.8625 63.80403Q99.34688 62.92903 99.75313 62.64778Q100.15938 62.36653 100.65938 62.36653Q101.3625 62.36653 102.09688 62.819656L101.6125 64.11653Q101.09688 63.819656 100.58125 63.819656Q100.12813 63.819656 99.75313 64.10091Q99.39375 64.36653 99.2375 64.86653Q99.00313 65.61653 99.00313 66.50716L99.00313 70.85091L97.59688 70.85091ZM102.6125 70.85091L102.6125 62.55403L103.8625 62.55403L103.8625 63.71028Q104.25313 63.100906 104.89375 62.74153Q105.55 62.36653 106.37813 62.36653Q107.3 62.36653 107.89375 62.757156Q108.4875 63.132156 108.72188 63.819656Q109.70625 62.36653 111.28438 62.36653Q112.51875 62.36653 113.175 63.05403Q113.84688 63.725906 113.84688 65.14778L113.84688 70.85091L112.45625 70.85091L112.45625 65.61653Q112.45625 64.77278 112.31563 64.41341Q112.175 64.03841 111.81563 63.819656Q111.45625 63.58528 110.97188 63.58528Q110.09688 63.58528 109.51875 64.16341Q108.94063 64.74153 108.94063 66.02278L108.94063 70.85091L107.53438 70.85091L107.53438 65.46028Q107.53438 64.52278 107.19063 64.05403Q106.84688 63.58528 106.06563 63.58528Q105.47188 63.58528 104.97188 63.89778Q104.47188 64.21028 104.2375 64.81966Q104.01875 65.41341 104.01875 66.53841L104.01875 70.85091L102.6125 70.85091ZM121.28438 68.17903L122.7375 68.35091Q122.39375 69.63216 121.45625 70.33528Q120.53438 71.03841 119.09688 71.03841Q117.26875 71.03841 116.20625 69.91341Q115.14375 68.78841 115.14375 66.77278Q115.14375 64.67903 116.22188 63.52278Q117.3 62.36653 119.01875 62.36653Q120.675 62.36653 121.72188 63.507156Q122.78438 64.63216 122.78438 66.67903Q122.78438 66.80403 122.78438 67.05403L116.59688 67.05403Q116.675 68.42903 117.3625 69.16341Q118.06563 69.88216 119.09688 69.88216Q119.87813 69.88216 120.425 69.47591Q120.97188 69.06966 121.28438 68.17903ZM116.675 65.89778L121.3 65.89778Q121.20625 64.85091 120.76875 64.33528Q120.09688 63.52278 119.03438 63.52278Q118.06563 63.52278 117.39375 64.17903Q116.7375 64.81966 116.675 65.89778ZM129.9875 70.85091L129.9875 69.80403Q129.20625 71.03841 127.675 71.03841Q126.675 71.03841 125.84688 70.49153Q125.01875 69.94466 124.55 68.96028Q124.09688 67.97591 124.09688 66.71028Q124.09688 65.46028 124.50313 64.46028Q124.925 63.444656 125.75313 62.913406Q126.58125 62.36653 127.6125 62.36653Q128.3625 62.36653 128.94063 62.67903Q129.53438 62.99153 129.89375 63.507156L129.89375 59.39778L131.3 59.39778L131.3 70.85091L129.9875 70.85091ZM125.55 66.71028Q125.55 68.30403 126.22188 69.10091Q126.89375 69.88216 127.8 69.88216Q128.72188 69.88216 129.3625 69.13216Q130.01875 68.36653 130.01875 66.81966Q130.01875 65.11653 129.3625 64.31966Q128.70625 63.52278 127.7375 63.52278Q126.8 63.52278 126.175 64.28841Q125.55 65.05403 125.55 66.71028Z" fill-rule="nonzero"/><path fill="#9e9e9e" d="M24.51875 92.85091L23.1125 92.85091L23.1125 83.88216Q22.596874 84.36653 21.76875 84.85091Q20.95625 85.33528 20.3 85.58528L20.3 84.22591Q21.471874 83.66341 22.346874 82.88216Q23.2375 82.08528 23.6125 81.35091L24.51875 81.35091L24.51875 92.85091ZM32.721874 92.85091L32.721874 90.10091L27.753124 90.10091L27.753124 88.81966L32.9875 81.39778L34.128124 81.39778L34.128124 88.81966L35.675 88.81966L35.675 90.10091L34.128124 90.10091L34.128124 92.85091L32.721874 92.85091ZM32.721874 88.81966L32.721874 83.64778L29.14375 88.81966L32.721874 88.81966ZM38.003124 92.85091L38.003124 91.24153L39.6125 91.24153L39.6125 92.85091L38.003124 92.85091ZM41.221874 89.81966L42.628124 89.63216Q42.878124 90.83528 43.45625 91.36653Q44.034374 91.88216 44.878124 91.88216Q45.8625 91.88216 46.55 91.19466Q47.2375 90.50716 47.2375 89.49153Q47.2375 88.52278 46.596874 87.89778Q45.971874 87.27278 44.9875 87.27278Q44.596874 87.27278 44.003124 87.42903L44.159374 86.19466Q44.3 86.21028 44.378124 86.21028Q45.284374 86.21028 46.003124 85.74153Q46.721874 85.27278 46.721874 84.28841Q46.721874 83.52278 46.190624 83.02278Q45.675 82.50716 44.846874 82.50716Q44.01875 82.50716 43.471874 83.02278Q42.925 83.53841 42.76875 84.56966L41.3625 84.31966Q41.628124 82.89778 42.534374 82.13216Q43.45625 81.35091 44.815624 81.35091Q45.753124 81.35091 46.534374 81.75716Q47.33125 82.14778 47.7375 82.85091Q48.159374 83.53841 48.159374 84.31966Q48.159374 85.06966 47.753124 85.67903Q47.3625 86.28841 46.58125 86.64778Q47.596874 86.88216 48.159374 87.61653Q48.721874 88.35091 48.721874 89.46028Q48.721874 90.96028 47.628124 92.00716Q46.534374 93.05403 44.8625 93.05403Q43.3625 93.05403 42.3625 92.16341Q41.3625 91.25716 41.221874 89.81966ZM50.4875 84.14778Q50.4875 82.91341 51.096874 82.05403Q51.721874 81.19466 52.89375 81.19466Q53.971874 81.19466 54.675 81.97591Q55.378124 82.74153 55.378124 84.22591Q55.378124 85.67903 54.659374 86.47591Q53.95625 87.25716 52.909374 87.25716Q51.8625 87.25716 51.175 86.49153Q50.4875 85.71028 50.4875 84.14778ZM52.925 82.16341Q52.409374 82.16341 52.05 82.61653Q51.70625 83.06966 51.70625 84.28841Q51.70625 85.38216 52.05 85.83528Q52.409374 86.28841 52.925 86.28841Q53.45625 86.28841 53.8 85.83528Q54.159374 85.38216 54.159374 84.17903Q54.159374 83.06966 53.8 82.61653Q53.45625 82.16341 52.925 82.16341ZM52.940624 93.27278L59.20625 81.19466L60.346874 81.19466L54.096874 93.27278L52.940624 93.27278ZM57.89375 90.16341Q57.89375 88.92903 58.503124 88.06966Q59.128124 87.21028 60.3 87.21028Q61.378124 87.21028 62.08125 87.99153Q62.8 88.75716 62.8 90.24153Q62.8 91.69466 62.08125 92.49153Q61.3625 93.27278 60.315624 93.27278Q59.26875 93.27278 58.58125 92.49153Q57.89375 91.71028 57.89375 90.16341ZM60.346874 88.17903Q59.815624 88.17903 59.45625 88.63216Q59.1125 89.08528 59.1125 90.30403Q59.1125 91.39778 59.45625 91.85091Q59.815624 92.30403 60.33125 92.30403Q60.878124 92.30403 61.221874 91.85091Q61.565624 91.39778 61.565624 90.19466Q61.565624 89.08528 61.20625 88.63216Q60.8625 88.17903 60.346874 88.17903Z" fill-rule="nonzero"/><path stroke="#757575" stroke-width="1.0" stroke-linecap="butt" d="M18.55 76.35091L145.23334 76.35091L238.67993 76.35091" fill-rule="nonzero"/><path fill="#9e9e9e" d="M240.67993 76.35091C240.67993 75.24634 239.7845 74.35091 238.67993 74.35091C237.57536 74.35091 236.67993 75.24634 236.67993 76.35091C236.67993 77.455475 237.57536 78.35091 238.67993 78.35091C239.7845 78.35091 240.67993 77.455475 240.67993 76.35091" fill-rule="nonzero"/><path fill="#1a1a1a" d="M19.26875 225.94435L20.70625 225.81935Q20.8 226.67873 21.175 227.24123Q21.55 227.7881 22.33125 228.13185Q23.1125 228.45998 24.08125 228.45998Q24.95625 228.45998 25.6125 228.20998Q26.284374 227.94435 26.596874 227.50685Q26.925 227.05373 26.925 226.52248Q26.925 225.9756 26.6125 225.58498Q26.3 225.17873 25.58125 224.89748Q25.128124 224.7256 23.55 224.3506Q21.971874 223.95998 21.33125 223.63185Q20.51875 223.19435 20.1125 222.56935Q19.70625 221.92873 19.70625 221.13185Q19.70625 220.27248 20.190624 219.52248Q20.690624 218.75685 21.628124 218.36623Q22.58125 217.9756 23.7375 217.9756Q25.01875 217.9756 25.9875 218.39748Q26.95625 218.80373 27.471874 219.6006Q28.003124 220.39748 28.05 221.39748L26.596874 221.50685Q26.471874 220.42873 25.8 219.88185Q25.128124 219.31935 23.8 219.31935Q22.425 219.31935 21.8 219.81935Q21.175 220.31935 21.175 221.0381Q21.175 221.64748 21.6125 222.05373Q22.05 222.44435 23.89375 222.86623Q25.753124 223.2881 26.440624 223.6006Q27.440624 224.05373 27.909374 224.77248Q28.39375 225.4756 28.39375 226.39748Q28.39375 227.30373 27.8625 228.11623Q27.346874 228.92873 26.3625 229.38185Q25.378124 229.83498 24.159374 229.83498Q22.596874 229.83498 21.55 229.38185Q20.503124 228.9131 19.89375 228.00685Q19.3 227.1006 19.26875 225.94435ZM36.01875 228.6006Q35.2375 229.27248 34.51875 229.55373Q33.8 229.81935 32.971874 229.81935Q31.596874 229.81935 30.8625 229.14748Q30.128124 228.4756 30.128124 227.44435Q30.128124 226.83498 30.409374 226.33498Q30.690624 225.81935 31.128124 225.52248Q31.58125 225.20998 32.14375 225.05373Q32.565624 224.94435 33.39375 224.8506Q35.096874 224.64748 35.909374 224.36623Q35.909374 224.06935 35.909374 223.99123Q35.909374 223.13185 35.51875 222.7881Q34.971874 222.30373 33.909374 222.30373Q32.925 222.30373 32.440624 222.6631Q31.971874 223.00685 31.753124 223.88185L30.378124 223.69435Q30.565624 222.81935 30.9875 222.27248Q31.425 221.7256 32.2375 221.44435Q33.05 221.14748 34.1125 221.14748Q35.175 221.14748 35.83125 221.39748Q36.503124 221.64748 36.815624 222.02248Q37.128124 222.39748 37.253124 222.9756Q37.33125 223.33498 37.33125 224.27248L37.33125 226.14748Q37.33125 228.11623 37.409374 228.63185Q37.503124 229.14748 37.76875 229.63185L36.3 229.63185Q36.08125 229.19435 36.01875 228.6006ZM35.909374 225.45998Q35.14375 225.77248 33.6125 225.99123Q32.7375 226.11623 32.378124 226.27248Q32.01875 226.42873 31.815624 226.74123Q31.628124 227.0381 31.628124 227.39748Q31.628124 227.95998 32.05 228.33498Q32.4875 228.70998 33.3 228.70998Q34.1125 228.70998 34.7375 228.36623Q35.378124 228.00685 35.675 227.38185Q35.909374 226.9131 35.909374 225.9756L35.909374 225.45998ZM42.675 228.36623L42.878124 229.61623Q42.284374 229.74123 41.815624 229.74123Q41.05 229.74123 40.628124 229.50685Q40.20625 229.25685 40.034374 228.86623Q39.8625 228.45998 39.8625 227.19435L39.8625 222.42873L38.83125 222.42873L38.83125 221.33498L39.8625 221.33498L39.8625 219.27248L41.26875 218.42873L41.26875 221.33498L42.675 221.33498L42.675 222.42873L41.26875 222.42873L41.26875 227.27248Q41.26875 227.88185 41.33125 228.05373Q41.409374 228.2256 41.58125 228.33498Q41.753124 228.42873 42.065624 228.42873Q42.3 228.42873 42.675 228.36623ZM43.6125 219.7881L43.6125 218.17873L45.01875 218.17873L45.01875 219.7881L43.6125 219.7881ZM43.6125 229.63185L43.6125 221.33498L45.01875 221.33498L45.01875 229.63185L43.6125 229.63185ZM47.05 227.14748L48.440624 226.92873Q48.55 227.77248 49.08125 228.2256Q49.628124 228.6631 50.58125 228.6631Q51.55 228.6631 52.01875 228.27248Q52.4875 227.86623 52.4875 227.33498Q52.4875 226.86623 52.08125 226.58498Q51.784374 226.39748 50.64375 226.11623Q49.096874 225.7256 48.4875 225.44435Q47.89375 225.14748 47.58125 224.64748Q47.284374 224.14748 47.284374 223.5381Q47.284374 222.9756 47.534374 222.50685Q47.784374 222.0381 48.221874 221.7256Q48.55 221.4756 49.1125 221.31935Q49.690624 221.14748 50.33125 221.14748Q51.315624 221.14748 52.05 221.42873Q52.784374 221.70998 53.128124 222.19435Q53.4875 222.6631 53.628124 223.4756L52.253124 223.6631Q52.159374 223.02248 51.70625 222.6631Q51.253124 222.30373 50.440624 222.30373Q49.471874 222.30373 49.05 222.63185Q48.64375 222.94435 48.64375 223.36623Q48.64375 223.64748 48.815624 223.86623Q48.9875 224.08498 49.346874 224.24123Q49.565624 224.31935 50.596874 224.6006Q52.08125 224.99123 52.675 225.25685Q53.26875 225.50685 53.596874 225.99123Q53.940624 226.4756 53.940624 227.19435Q53.940624 227.89748 53.51875 228.52248Q53.1125 229.13185 52.33125 229.4756Q51.565624 229.81935 50.596874 229.81935Q48.971874 229.81935 48.128124 229.14748Q47.284374 228.4756 47.05 227.14748ZM55.940624 229.63185L55.940624 222.42873L54.70625 222.42873L54.70625 221.33498L55.940624 221.33498L55.940624 220.44435Q55.940624 219.61623 56.096874 219.20998Q56.3 218.6631 56.8 218.31935Q57.315624 217.9756 58.2375 217.9756Q58.83125 217.9756 59.55 218.11623L59.346874 219.3506Q58.909374 219.27248 58.51875 219.27248Q57.878124 219.27248 57.6125 219.55373Q57.346874 219.81935 57.346874 220.56935L57.346874 221.33498L58.95625 221.33498L58.95625 222.42873L57.346874 222.42873L57.346874 229.63185L55.940624 229.63185ZM65.01875 228.6006Q64.2375 229.27248 63.51875 229.55373Q62.8 229.81935 61.971874 229.81935Q60.596874 229.81935 59.8625 229.14748Q59.128124 228.4756 59.128124 227.44435Q59.128124 226.83498 59.409374 226.33498Q59.690624 225.81935 60.128124 225.52248Q60.58125 225.20998 61.14375 225.05373Q61.565624 224.94435 62.39375 224.8506Q64.09688 224.64748 64.90938 224.36623Q64.90938 224.06935 64.90938 223.99123Q64.90938 223.13185 64.51875 222.7881Q63.971874 222.30373 62.909374 222.30373Q61.925 222.30373 61.440624 222.6631Q60.971874 223.00685 60.753124 223.88185L59.378124 223.69435Q59.565624 222.81935 59.9875 222.27248Q60.425 221.7256 61.2375 221.44435Q62.05 221.14748 63.1125 221.14748Q64.175 221.14748 64.83125 221.39748Q65.50313 221.64748 65.81563 222.02248Q66.12813 222.39748 66.25313 222.9756Q66.33125 223.33498 66.33125 224.27248L66.33125 226.14748Q66.33125 228.11623 66.40938 228.63185Q66.50313 229.14748 66.76875 229.63185L65.3 229.63185Q65.08125 229.19435 65.01875 228.6006ZM64.90938 225.45998Q64.14375 225.77248 62.6125 225.99123Q61.7375 226.11623 61.378124 226.27248Q61.01875 226.42873 60.815624 226.74123Q60.628124 227.0381 60.628124 227.39748Q60.628124 227.95998 61.05 228.33498Q61.4875 228.70998 62.3 228.70998Q63.1125 228.70998 63.7375 228.36623Q64.37813 228.00685 64.675 227.38185Q64.90938 226.9131 64.90938 225.9756L64.90938 225.45998ZM74.01875 226.58498L75.40938 226.77248Q75.175 228.19435 74.2375 229.00685Q73.31563 229.81935 71.95625 229.81935Q70.25313 229.81935 69.20625 228.70998Q68.175 227.58498 68.175 225.50685Q68.175 224.1631 68.6125 223.1631Q69.06563 222.14748 69.97188 221.64748Q70.89375 221.14748 71.95625 221.14748Q73.31563 221.14748 74.175 221.83498Q75.03438 222.50685 75.26875 223.77248L73.90938 223.9756Q73.70625 223.14748 73.20625 222.7256Q72.72188 222.30373 72.01875 222.30373Q70.95625 222.30373 70.28438 223.06935Q69.62813 223.81935 69.62813 225.4756Q69.62813 227.14748 70.26875 227.9131Q70.90938 228.6631 71.94063 228.6631Q72.76875 228.6631 73.31563 228.1631Q73.87813 227.64748 74.01875 226.58498ZM79.675 228.36623L79.87813 229.61623Q79.28438 229.74123 78.81563 229.74123Q78.05 229.74123 77.62813 229.50685Q77.20625 229.25685 77.03438 228.86623Q76.8625 228.45998 76.8625 227.19435L76.8625 222.42873L75.83125 222.42873L75.83125 221.33498L76.8625 221.33498L76.8625 219.27248L78.26875 218.42873L78.26875 221.33498L79.675 221.33498L79.675 222.42873L78.26875 222.42873L78.26875 227.27248Q78.26875 227.88185 78.33125 228.05373Q78.40938 228.2256 78.58125 228.33498Q78.75313 228.42873 79.06563 228.42873Q79.3 228.42873 79.675 228.36623ZM80.08125 225.4756Q80.08125 223.17873 81.3625 222.06935Q82.44063 221.14748 83.97188 221.14748Q85.69063 221.14748 86.76875 222.27248Q87.8625 223.38185 87.8625 225.36623Q87.8625 226.95998 87.37813 227.88185Q86.89375 228.80373 85.97188 229.31935Q85.06563 229.81935 83.97188 229.81935Q82.2375 229.81935 81.15938 228.70998Q80.08125 227.58498 80.08125 225.4756ZM81.53438 225.4756Q81.53438 227.06935 82.22188 227.86623Q82.925 228.6631 83.97188 228.6631Q85.01875 228.6631 85.70625 227.86623Q86.40938 227.06935 86.40938 225.42873Q86.40938 223.89748 85.70625 223.1006Q85.01875 222.30373 83.97188 222.30373Q82.925 222.30373 82.22188 223.1006Q81.53438 223.88185 81.53438 225.4756ZM89.59688 229.63185L89.59688 221.33498L90.8625 221.33498L90.8625 222.58498Q91.34688 221.70998 91.75313 221.42873Q92.15938 221.14748 92.65938 221.14748Q93.3625 221.14748 94.09688 221.6006L93.6125 222.89748Q93.09688 222.6006 92.58125 222.6006Q92.12813 222.6006 91.75313 222.88185Q91.39375 223.14748 91.2375 223.64748Q91.00313 224.39748 91.00313 225.2881L91.00313 229.63185L89.59688 229.63185ZM94.55 232.83498L94.39375 231.50685Q94.84688 231.63185 95.19063 231.63185Q95.65938 231.63185 95.94063 231.4756Q96.22188 231.31935 96.40938 231.0381Q96.53438 230.83498 96.83125 229.99123Q96.87813 229.88185 96.95625 229.64748L93.81563 221.33498L95.33125 221.33498L97.05 226.13185Q97.39375 227.05373 97.65938 228.05373Q97.89375 227.08498 98.2375 226.1631L100.00313 221.33498L101.40938 221.33498L98.25313 229.77248Q97.75313 231.14748 97.47188 231.6631Q97.09688 232.3506 96.6125 232.67873Q96.12813 233.00685 95.45625 233.00685Q95.05 233.00685 94.55 232.83498Z" fill-rule="nonzero"/><path fill="#9e9e9e" d="M26.6125 250.27248L26.6125 251.63185L19.034374 251.63185Q19.01875 251.11623 19.20625 250.64748Q19.4875 249.88185 20.128124 249.13185Q20.76875 248.38185 21.971874 247.39748Q23.83125 245.86623 24.4875 244.9756Q25.14375 244.06935 25.14375 243.27248Q25.14375 242.44435 24.55 241.86623Q23.95625 241.2881 22.9875 241.2881Q21.971874 241.2881 21.3625 241.89748Q20.753124 242.50685 20.753124 243.58498L19.3 243.44435Q19.45625 241.81935 20.425 240.9756Q21.39375 240.13185 23.01875 240.13185Q24.675 240.13185 25.628124 241.05373Q26.596874 241.95998 26.596874 243.30373Q26.596874 243.99123 26.315624 244.6631Q26.034374 245.31935 25.378124 246.05373Q24.721874 246.7881 23.20625 248.06935Q21.940624 249.13185 21.58125 249.52248Q21.221874 249.89748 20.9875 250.27248L26.6125 250.27248ZM30.378124 245.4131Q29.503124 245.1006 29.08125 244.50685Q28.659374 243.9131 28.659374 243.08498Q28.659374 241.83498 29.55 240.99123Q30.45625 240.13185 31.95625 240.13185Q33.45625 240.13185 34.3625 241.00685Q35.284374 241.86623 35.284374 243.11623Q35.284374 243.9131 34.8625 244.50685Q34.440624 245.1006 33.596874 245.4131Q34.64375 245.75685 35.190624 246.52248Q35.753124 247.2881 35.753124 248.3506Q35.753124 249.81935 34.70625 250.83498Q33.675 251.83498 31.971874 251.83498Q30.284374 251.83498 29.2375 250.83498Q28.20625 249.81935 28.20625 248.31935Q28.20625 247.19435 28.76875 246.44435Q29.33125 245.69435 30.378124 245.4131ZM30.096874 243.0381Q30.096874 243.8506 30.6125 244.36623Q31.14375 244.88185 31.9875 244.88185Q32.8 244.88185 33.315624 244.36623Q33.83125 243.8506 33.83125 243.11623Q33.83125 242.33498 33.3 241.81935Q32.76875 241.2881 31.971874 241.2881Q31.159374 241.2881 30.628124 241.80373Q30.096874 242.31935 30.096874 243.0381ZM29.64375 248.31935Q29.64375 248.92873 29.925 249.49123Q30.221874 250.05373 30.784374 250.36623Q31.346874 250.6631 31.9875 250.6631Q33.003124 250.6631 33.659374 250.02248Q34.315624 249.36623 34.315624 248.36623Q34.315624 247.3506 33.628124 246.69435Q32.95625 246.02248 31.940624 246.02248Q30.95625 246.02248 30.3 246.67873Q29.64375 247.33498 29.64375 248.31935ZM38.003124 251.63185L38.003124 250.02248L39.6125 250.02248L39.6125 251.63185L38.003124 251.63185ZM48.51875 242.9756L47.1125 243.08498Q46.925 242.25685 46.58125 241.88185Q46.01875 241.2881 45.175 241.2881Q44.503124 241.2881 44.003124 241.6631Q43.33125 242.14748 42.940624 243.08498Q42.565624 244.00685 42.55 245.7256Q43.065624 244.94435 43.8 244.56935Q44.534374 244.19435 45.33125 244.19435Q46.7375 244.19435 47.721874 245.24123Q48.721874 246.27248 48.721874 247.9131Q48.721874 248.99123 48.253124 249.9131Q47.784374 250.83498 46.971874 251.33498Q46.159374 251.83498 45.128124 251.83498Q43.378124 251.83498 42.26875 250.5381Q41.159374 249.24123 41.159374 246.27248Q41.159374 242.94435 42.378124 241.44435Q43.45625 240.13185 45.26875 240.13185Q46.6125 240.13185 47.471874 240.89748Q48.346874 241.64748 48.51875 242.9756ZM42.76875 247.9131Q42.76875 248.64748 43.08125 249.31935Q43.39375 249.9756 43.940624 250.31935Q44.503124 250.6631 45.1125 250.6631Q46.003124 250.6631 46.64375 249.94435Q47.284374 249.2256 47.284374 247.99123Q47.284374 246.80373 46.64375 246.13185Q46.01875 245.44435 45.05 245.44435Q44.096874 245.44435 43.425 246.13185Q42.76875 246.80373 42.76875 247.9131ZM50.4875 242.92873Q50.4875 241.69435 51.096874 240.83498Q51.721874 239.9756 52.89375 239.9756Q53.971874 239.9756 54.675 240.75685Q55.378124 241.52248 55.378124 243.00685Q55.378124 244.45998 54.659374 245.25685Q53.95625 246.0381 52.909374 246.0381Q51.8625 246.0381 51.175 245.27248Q50.4875 244.49123 50.4875 242.92873ZM52.925 240.94435Q52.409374 240.94435 52.05 241.39748Q51.70625 241.8506 51.70625 243.06935Q51.70625 244.1631 52.05 244.61623Q52.409374 245.06935 52.925 245.06935Q53.45625 245.06935 53.8 244.61623Q54.159374 244.1631 54.159374 242.95998Q54.159374 241.8506 53.8 241.39748Q53.45625 240.94435 52.925 240.94435ZM52.940624 252.05373L59.20625 239.9756L60.346874 239.9756L54.096874 252.05373L52.940624 252.05373ZM57.89375 248.94435Q57.89375 247.70998 58.503124 246.8506Q59.128124 245.99123 60.3 245.99123Q61.378124 245.99123 62.08125 246.77248Q62.8 247.5381 62.8 249.02248Q62.8 250.4756 62.08125 251.27248Q61.3625 252.05373 60.315624 252.05373Q59.26875 252.05373 58.58125 251.27248Q57.89375 250.49123 57.89375 248.94435ZM60.346874 246.95998Q59.815624 246.95998 59.45625 247.4131Q59.1125 247.86623 59.1125 249.08498Q59.1125 250.17873 59.45625 250.63185Q59.815624 251.08498 60.33125 251.08498Q60.878124 251.08498 61.221874 250.63185Q61.565624 250.17873 61.565624 248.9756Q61.565624 247.86623 61.20625 247.4131Q60.8625 246.95998 60.346874 246.95998Z" fill-rule="nonzero"/><path stroke="#757575" stroke-width="1.0" stroke-linecap="butt" d="M18.55 235.13185L145.23334 235.13185L162.21506 235.13185" fill-rule="nonzero"/><path fill="#9e9e9e" d="M164.21506 235.13185C164.21506 234.02728 163.31963 233.13185 162.21506 233.13185C161.11049 233.13185 160.21506 234.02728 160.21506 235.13185C160.21506 236.23642 161.11049 237.13185 162.21506 237.13185C163.31963 237.13185 164.21506 236.23642 164.21506 235.13185" fill-rule="nonzero"/><path fill="#1a1a1a" d="M477.23126 224.05373Q477.23126 221.19435 478.7625 219.58498Q480.29376 217.9756 482.71564 217.9756Q484.29376 217.9756 485.5594 218.74123Q486.84064 219.49123 487.5125 220.8506Q488.1844 222.19435 488.1844 223.9131Q488.1844 225.6631 487.48126 227.0381Q486.77814 228.4131 485.48126 229.13185Q484.2 229.83498 482.7 229.83498Q481.09064 229.83498 479.8094 229.05373Q478.54376 228.25685 477.8875 226.9131Q477.23126 225.55373 477.23126 224.05373ZM478.79376 224.06935Q478.79376 226.14748 479.90314 227.33498Q481.0125 228.52248 482.7 228.52248Q484.40314 228.52248 485.5125 227.31935Q486.6219 226.11623 486.6219 223.9131Q486.6219 222.50685 486.1375 221.4756Q485.66876 220.42873 484.7625 219.8506Q483.85626 219.27248 482.71564 219.27248Q481.10626 219.27248 479.95 220.38185Q478.79376 221.49123 478.79376 224.06935ZM491.8094 229.63185L488.65314 221.33498L490.1375 221.33498L491.91876 226.30373Q492.21564 227.1006 492.45 227.9756Q492.6375 227.31935 492.98126 226.39748L494.825 221.33498L496.2625 221.33498L493.1219 229.63185L491.8094 229.63185ZM502.1844 226.95998L503.6375 227.13185Q503.29376 228.4131 502.35626 229.11623Q501.4344 229.81935 499.9969 229.81935Q498.16876 229.81935 497.10626 228.69435Q496.04376 227.56935 496.04376 225.55373Q496.04376 223.45998 497.1219 222.30373Q498.2 221.14748 499.91876 221.14748Q501.575 221.14748 502.6219 222.2881Q503.6844 223.4131 503.6844 225.45998Q503.6844 225.58498 503.6844 225.83498L497.4969 225.83498Q497.575 227.20998 498.2625 227.94435Q498.96564 228.6631 499.9969 228.6631Q500.77814 228.6631 501.325 228.25685Q501.8719 227.8506 502.1844 226.95998ZM497.575 224.67873L502.2 224.67873Q502.10626 223.63185 501.66876 223.11623Q500.9969 222.30373 499.9344 222.30373Q498.96564 222.30373 498.29376 222.95998Q497.6375 223.6006 497.575 224.67873ZM505.4969 229.63185L505.4969 221.33498L506.7625 221.33498L506.7625 222.58498Q507.2469 221.70998 507.65314 221.42873Q508.0594 221.14748 508.5594 221.14748Q509.2625 221.14748 509.9969 221.6006L509.5125 222.89748Q508.9969 222.6006 508.48126 222.6006Q508.02814 222.6006 507.65314 222.88185Q507.29376 223.14748 507.1375 223.64748Q506.90314 224.39748 506.90314 225.2881L506.90314 229.63185L505.4969 229.63185ZM510.5125 232.81935L510.5125 221.33498L511.79376 221.33498L511.79376 222.4131Q512.2469 221.77248 512.8094 221.45998Q513.3875 221.14748 514.2 221.14748Q515.2625 221.14748 516.075 221.69435Q516.8875 222.24123 517.29376 223.24123Q517.71564 224.2256 517.71564 225.4131Q517.71564 226.69435 517.2469 227.70998Q516.79376 228.7256 515.91876 229.27248Q515.0594 229.81935 514.09064 229.81935Q513.3875 229.81935 512.825 229.52248Q512.27814 229.2256 511.91876 228.77248L511.91876 232.81935L510.5125 232.81935ZM511.77814 225.52248Q511.77814 227.13185 512.41876 227.89748Q513.075 228.6631 513.9969 228.6631Q514.9344 228.6631 515.60626 227.86623Q516.27814 227.06935 516.27814 225.4131Q516.27814 223.81935 515.6219 223.0381Q514.96564 222.24123 514.0594 222.24123Q513.16876 222.24123 512.46564 223.08498Q511.77814 223.92873 511.77814 225.52248ZM525.1844 226.95998L526.6375 227.13185Q526.29376 228.4131 525.35626 229.11623Q524.4344 229.81935 522.9969 229.81935Q521.16876 229.81935 520.10626 228.69435Q519.04376 227.56935 519.04376 225.55373Q519.04376 223.45998 520.1219 222.30373Q521.2 221.14748 522.91876 221.14748Q524.575 221.14748 525.6219 222.2881Q526.6844 223.4131 526.6844 225.45998Q526.6844 225.58498 526.6844 225.83498L520.4969 225.83498Q520.575 227.20998 521.2625 227.94435Q521.96564 228.6631 522.9969 228.6631Q523.77814 228.6631 524.325 228.25685Q524.8719 227.8506 525.1844 226.95998ZM520.575 224.67873L525.2 224.67873Q525.10626 223.63185 524.66876 223.11623Q523.9969 222.30373 522.9344 222.30373Q521.96564 222.30373 521.29376 222.95998Q520.6375 223.6006 520.575 224.67873ZM528.4969 229.63185L528.4969 221.33498L529.7625 221.33498L529.7625 222.58498Q530.2469 221.70998 530.65314 221.42873Q531.0594 221.14748 531.5594 221.14748Q532.2625 221.14748 532.9969 221.6006L532.5125 222.89748Q531.9969 222.6006 531.48126 222.6006Q531.02814 222.6006 530.65314 222.88185Q530.29376 223.14748 530.1375 223.64748Q529.90314 224.39748 529.90314 225.2881L529.90314 229.63185L528.4969 229.63185ZM533.84064 229.63185L533.84064 222.42873L532.60626 222.42873L532.60626 221.33498L533.84064 221.33498L533.84064 220.44435Q533.84064 219.61623 533.9969 219.20998Q534.2 218.6631 534.7 218.31935Q535.21564 217.9756 536.1375 217.9756Q536.73126 217.9756 537.45 218.11623L537.2469 219.3506Q536.8094 219.27248 536.41876 219.27248Q535.77814 219.27248 535.5125 219.55373Q535.2469 219.81935 535.2469 220.56935L535.2469 221.33498L536.85626 221.33498L536.85626 222.42873L535.2469 222.42873L535.2469 229.63185L533.84064 229.63185ZM536.98126 225.4756Q536.98126 223.17873 538.2625 222.06935Q539.34064 221.14748 540.8719 221.14748Q542.59064 221.14748 543.66876 222.27248Q544.7625 223.38185 544.7625 225.36623Q544.7625 226.95998 544.27814 227.88185Q543.79376 228.80373 542.8719 229.31935Q541.96564 229.81935 540.8719 229.81935Q539.1375 229.81935 538.0594 228.70998Q536.98126 227.58498 536.98126 225.4756ZM538.4344 225.4756Q538.4344 227.06935 539.1219 227.86623Q539.825 228.6631 540.8719 228.6631Q541.91876 228.6631 542.60626 227.86623Q543.3094 227.06935 543.3094 225.42873Q543.3094 223.89748 542.60626 223.1006Q541.91876 222.30373 540.8719 222.30373Q539.825 222.30373 539.1219 223.1006Q538.4344 223.88185 538.4344 225.4756ZM546.4969 229.63185L546.4969 221.33498L547.7625 221.33498L547.7625 222.58498Q548.2469 221.70998 548.65314 221.42873Q549.0594 221.14748 549.5594 221.14748Q550.2625 221.14748 550.9969 221.6006L550.5125 222.89748Q549.9969 222.6006 549.48126 222.6006Q549.02814 222.6006 548.65314 222.88185Q548.29376 223.14748 548.1375 223.64748Q547.90314 224.39748 547.90314 225.2881L547.90314 229.63185L546.4969 229.63185ZM551.5125 229.63185L551.5125 221.33498L552.7625 221.33498L552.7625 222.49123Q553.15314 221.88185 553.79376 221.52248Q554.45 221.14748 555.27814 221.14748Q556.2 221.14748 556.79376 221.5381Q557.3875 221.9131 557.6219 222.6006Q558.60626 221.14748 560.1844 221.14748Q561.41876 221.14748 562.075 221.83498Q562.7469 222.50685 562.7469 223.92873L562.7469 229.63185L561.35626 229.63185L561.35626 224.39748Q561.35626 223.55373 561.21564 223.19435Q561.075 222.81935 560.71564 222.6006Q560.35626 222.36623 559.8719 222.36623Q558.9969 222.36623 558.41876 222.94435Q557.84064 223.52248 557.84064 224.80373L557.84064 229.63185L556.4344 229.63185L556.4344 224.24123Q556.4344 223.30373 556.09064 222.83498Q555.7469 222.36623 554.96564 222.36623Q554.3719 222.36623 553.8719 222.67873Q553.3719 222.99123 553.1375 223.6006Q552.91876 224.19435 552.91876 225.31935L552.91876 229.63185L551.5125 229.63185ZM570.1844 226.95998L571.6375 227.13185Q571.29376 228.4131 570.35626 229.11623Q569.4344 229.81935 567.9969 229.81935Q566.16876 229.81935 565.10626 228.69435Q564.04376 227.56935 564.04376 225.55373Q564.04376 223.45998 565.1219 222.30373Q566.2 221.14748 567.91876 221.14748Q569.575 221.14748 570.6219 222.2881Q571.6844 223.4131 571.6844 225.45998Q571.6844 225.58498 571.6844 225.83498L565.4969 225.83498Q565.575 227.20998 566.2625 227.94435Q566.96564 228.6631 567.9969 228.6631Q568.77814 228.6631 569.325 228.25685Q569.8719 227.8506 570.1844 226.95998ZM565.575 224.67873L570.2 224.67873Q570.10626 223.63185 569.66876 223.11623Q568.9969 222.30373 567.9344 222.30373Q566.96564 222.30373 566.29376 222.95998Q565.6375 223.6006 565.575 224.67873ZM578.8875 229.63185L578.8875 228.58498Q578.10626 229.81935 576.575 229.81935Q575.575 229.81935 574.7469 229.27248Q573.91876 228.7256 573.45 227.74123Q572.9969 226.75685 572.9969 225.49123Q572.9969 224.24123 573.40314 223.24123Q573.825 222.2256 574.65314 221.69435Q575.48126 221.14748 576.5125 221.14748Q577.2625 221.14748 577.84064 221.45998Q578.4344 221.77248 578.79376 222.2881L578.79376 218.17873L580.2 218.17873L580.2 229.63185L578.8875 229.63185ZM574.45 225.49123Q574.45 227.08498 575.1219 227.88185Q575.79376 228.6631 576.7 228.6631Q577.6219 228.6631 578.2625 227.9131Q578.91876 227.14748 578.91876 225.6006Q578.91876 223.89748 578.2625 223.1006Q577.60626 222.30373 576.6375 222.30373Q575.7 222.30373 575.075 223.06935Q574.45 223.83498 574.45 225.49123Z" fill-rule="nonzero"/><path fill="#9e9e9e" d="M537.1219 248.63185L538.59064 248.50685Q538.7625 249.58498 539.35626 250.13185Q539.95 250.6631 540.79376 250.6631Q541.8094 250.6631 542.5125 249.89748Q543.21564 249.13185 543.21564 247.86623Q543.21564 246.6631 542.54376 245.9756Q541.8719 245.27248 540.77814 245.27248Q540.09064 245.27248 539.54376 245.58498Q538.9969 245.89748 538.6844 246.38185L537.3719 246.20998L538.48126 240.33498L544.16876 240.33498L544.16876 241.67873L539.60626 241.67873L538.98126 244.75685Q540.0125 244.0381 541.15314 244.0381Q542.65314 244.0381 543.6844 245.08498Q544.71564 246.11623 544.71564 247.74123Q544.71564 249.30373 543.8094 250.42873Q542.7 251.83498 540.79376 251.83498Q539.23126 251.83498 538.2469 250.95998Q537.2625 250.06935 537.1219 248.63185ZM546.21564 241.67873L546.21564 240.31935L553.6219 240.31935L553.6219 241.4131Q552.52814 242.58498 551.45 244.52248Q550.3875 246.44435 549.79376 248.4756Q549.3719 249.9131 549.2625 251.63185L547.8094 251.63185Q547.84064 250.27248 548.34064 248.36623Q548.85626 246.44435 549.79376 244.67873Q550.7469 242.89748 551.825 241.67873L546.21564 241.67873ZM555.90314 251.63185L555.90314 250.02248L557.5125 250.02248L557.5125 251.63185L555.90314 251.63185ZM564.41876 251.63185L563.0125 251.63185L563.0125 242.6631Q562.4969 243.14748 561.66876 243.63185Q560.85626 244.11623 560.2 244.36623L560.2 243.00685Q561.3719 242.44435 562.2469 241.6631Q563.1375 240.86623 563.5125 240.13185L564.41876 240.13185L564.41876 251.63185ZM568.3875 242.92873Q568.3875 241.69435 568.9969 240.83498Q569.6219 239.9756 570.79376 239.9756Q571.8719 239.9756 572.575 240.75685Q573.27814 241.52248 573.27814 243.00685Q573.27814 244.45998 572.5594 245.25685Q571.85626 246.0381 570.8094 246.0381Q569.7625 246.0381 569.075 245.27248Q568.3875 244.49123 568.3875 242.92873ZM570.825 240.94435Q570.3094 240.94435 569.95 241.39748Q569.60626 241.8506 569.60626 243.06935Q569.60626 244.1631 569.95 244.61623Q570.3094 245.06935 570.825 245.06935Q571.35626 245.06935 571.7 244.61623Q572.0594 244.1631 572.0594 242.95998Q572.0594 241.8506 571.7 241.39748Q571.35626 240.94435 570.825 240.94435ZM570.84064 252.05373L577.10626 239.9756L578.2469 239.9756L571.9969 252.05373L570.84064 252.05373ZM575.79376 248.94435Q575.79376 247.70998 576.40314 246.8506Q577.02814 245.99123 578.2 245.99123Q579.27814 245.99123 579.98126 246.77248Q580.7 247.5381 580.7 249.02248Q580.7 250.4756 579.98126 251.27248Q579.2625 252.05373 578.21564 252.05373Q577.16876 252.05373 576.48126 251.27248Q575.79376 250.49123 575.79376 248.94435ZM578.2469 246.95998Q577.71564 246.95998 577.35626 247.4131Q577.0125 247.86623 577.0125 249.08498Q577.0125 250.17873 577.35626 250.63185Q577.71564 251.08498 578.23126 251.08498Q578.77814 251.08498 579.1219 250.63185Q579.46564 250.17873 579.46564 248.9756Q579.46564 247.86623 579.10626 247.4131Q578.7625 246.95998 578.2469 246.95998Z" fill-rule="nonzero"/><path stroke="#757575" stroke-width="1.0" stroke-linecap="butt" d="M581.45 235.13185L454.76666 235.13185L437.78494 235.13185" fill-rule="nonzero"/><path fill="#9e9e9e" d="M439.78494 235.13185C439.78494 234.02728 438.8895 233.13185 437.78494 233.13185C436.68036 233.13185 435.78494 234.02728 435.78494 235.13185C435.78494 236.23642 436.68036 237.13185 437.78494 237.13185C438.8895 237.13185 439.78494 236.23642 439.78494 235.13185" fill-rule="nonzero"/><path fill="#000000" d="M20.409374 37.55L20.409374 23.2375L22.315624 23.2375L22.315624 37.55L20.409374 37.55ZM25.8625 37.55L25.8625 27.175L27.45625 27.175L27.45625 28.659374Q28.596874 26.940624 30.753124 26.940624Q31.690624 26.940624 32.471874 27.284374Q33.26875 27.6125 33.659374 28.159374Q34.05 28.70625 34.20625 29.45625Q34.3 29.95625 34.3 31.175L34.3 37.55L32.534374 37.55L32.534374 31.2375Q32.534374 30.159374 32.33125 29.628124Q32.128124 29.096874 31.596874 28.784374Q31.08125 28.471874 30.378124 28.471874Q29.253124 28.471874 28.440624 29.190624Q27.628124 29.89375 27.628124 31.878124L27.628124 37.55L25.8625 37.55ZM39.70625 35.971874L39.95625 37.534374Q39.221874 37.690624 38.628124 37.690624Q37.675 37.690624 37.14375 37.39375Q36.628124 37.08125 36.409374 36.596874Q36.190624 36.096874 36.190624 34.51875L36.190624 28.55L34.909374 28.55L34.909374 27.175L36.190624 27.175L36.190624 24.6125L37.940624 23.55L37.940624 27.175L39.70625 27.175L39.70625 28.55L37.940624 28.55L37.940624 34.6125Q37.940624 35.3625 38.034374 35.58125Q38.128124 35.784374 38.33125 35.925Q38.55 36.05 38.940624 36.05Q39.221874 36.05 39.70625 35.971874ZM48.64375 36.26875Q47.659374 37.096874 46.753124 37.440624Q45.846874 37.784374 44.815624 37.784374Q43.1125 37.784374 42.190624 36.95625Q41.26875 36.1125 41.26875 34.815624Q41.26875 34.05 41.6125 33.425Q41.971874 32.8 42.534374 32.425Q43.096874 32.034374 43.8 31.83125Q44.315624 31.70625 45.3625 31.565624Q47.4875 31.315624 48.4875 30.971874Q48.503124 30.6125 48.503124 30.503124Q48.503124 29.440624 48.003124 28.9875Q47.33125 28.39375 46.003124 28.39375Q44.753124 28.39375 44.159374 28.83125Q43.58125 29.26875 43.3 30.378124L41.58125 30.14375Q41.815624 29.034374 42.346874 28.3625Q42.878124 27.675 43.89375 27.315624Q44.909374 26.940624 46.253124 26.940624Q47.58125 26.940624 48.409374 27.253124Q49.2375 27.565624 49.628124 28.05Q50.01875 28.51875 50.175 29.2375Q50.26875 29.690624 50.26875 30.8625L50.26875 33.20625Q50.26875 35.659374 50.378124 36.315624Q50.4875 36.95625 50.83125 37.55L48.9875 37.55Q48.721874 37.003124 48.64375 36.26875ZM48.4875 32.346874Q47.534374 32.7375 45.6125 33.003124Q44.534374 33.159374 44.08125 33.3625Q43.64375 33.55 43.39375 33.925Q43.14375 34.3 43.14375 34.76875Q43.14375 35.471874 43.675 35.940624Q44.20625 36.409374 45.2375 36.409374Q46.253124 36.409374 47.034374 35.971874Q47.83125 35.51875 48.20625 34.753124Q48.4875 34.14375 48.4875 32.9875L48.4875 32.346874ZM52.878124 37.55L52.878124 23.2375L54.64375 23.2375L54.64375 31.39375L58.8 27.175L61.065624 27.175L57.1125 31.01875L61.471874 37.55L59.3 37.55L55.878124 32.253124L54.64375 33.440624L54.64375 37.55L52.878124 37.55ZM69.97188 34.20625L71.78438 34.440624Q71.3625 36.01875 70.19063 36.909374Q69.03438 37.784374 67.22188 37.784374Q64.95625 37.784374 63.6125 36.39375Q62.284374 34.9875 62.284374 32.45625Q62.284374 29.83125 63.628124 28.39375Q64.97188 26.940624 67.12813 26.940624Q69.20625 26.940624 70.51875 28.3625Q71.84688 29.76875 71.84688 32.346874Q71.84688 32.503124 71.83125 32.815624L64.09688 32.815624Q64.19063 34.51875 65.06563 35.425Q65.94063 36.33125 67.2375 36.33125Q68.20625 36.33125 68.87813 35.83125Q69.56563 35.315624 69.97188 34.20625ZM64.19063 31.3625L69.9875 31.3625Q69.87813 30.065624 69.33125 29.409374Q68.4875 28.39375 67.14375 28.39375Q65.94063 28.39375 65.1125 29.20625Q64.28438 30.003124 64.19063 31.3625ZM80.09688 37.55L80.09688 23.2375L85.4875 23.2375Q86.925 23.2375 87.675 23.3625Q88.72188 23.55 89.44063 24.05Q90.15938 24.534374 90.58125 25.425Q91.01875 26.315624 91.01875 27.378124Q91.01875 29.20625 89.84688 30.471874Q88.69063 31.721874 85.65938 31.721874L81.9875 31.721874L81.9875 37.55L80.09688 37.55ZM81.9875 30.034374L85.69063 30.034374Q87.51875 30.034374 88.28438 29.3625Q89.06563 28.675 89.06563 27.425Q89.06563 26.534374 88.6125 25.89375Q88.15938 25.253124 87.425 25.05Q86.94063 24.925 85.64375 24.925L81.9875 24.925L81.9875 30.034374ZM99.97188 34.20625L101.78438 34.440624Q101.3625 36.01875 100.19063 36.909374Q99.03438 37.784374 97.22188 37.784374Q94.95625 37.784374 93.6125 36.39375Q92.28438 34.9875 92.28438 32.45625Q92.28438 29.83125 93.62813 28.39375Q94.97188 26.940624 97.12813 26.940624Q99.20625 26.940624 100.51875 28.3625Q101.84688 29.76875 101.84688 32.346874Q101.84688 32.503124 101.83125 32.815624L94.09688 32.815624Q94.19063 34.51875 95.06563 35.425Q95.94063 36.33125 97.2375 36.33125Q98.20625 36.33125 98.87813 35.83125Q99.56563 35.315624 99.97188 34.20625ZM94.19063 31.3625L99.9875 31.3625Q99.87813 30.065624 99.33125 29.409374Q98.4875 28.39375 97.14375 28.39375Q95.94063 28.39375 95.1125 29.20625Q94.28438 30.003124 94.19063 31.3625ZM103.84688 37.55L103.84688 27.175L105.425 27.175L105.425 28.753124Q106.03438 27.64375 106.55 27.3Q107.06563 26.940624 107.675 26.940624Q108.56563 26.940624 109.4875 27.503124L108.87813 29.14375Q108.2375 28.753124 107.59688 28.753124Q107.01875 28.753124 106.55 29.1125Q106.09688 29.45625 105.89375 30.065624Q105.6125 31.003124 105.6125 32.1125L105.6125 37.55L103.84688 37.55ZM111.28438 37.55L111.28438 28.55L109.7375 28.55L109.7375 27.175L111.28438 27.175L111.28438 26.08125Q111.28438 25.034374 111.47188 24.51875Q111.72188 23.83125 112.3625 23.409374Q113.00313 22.9875 114.15938 22.9875Q114.90938 22.9875 115.8 23.159374L115.53438 24.690624Q114.9875 24.596874 114.50313 24.596874Q113.70625 24.596874 113.3625 24.940624Q113.03438 25.284374 113.03438 26.221874L113.03438 27.175L115.06563 27.175L115.06563 28.55L113.03438 28.55L113.03438 37.55L111.28438 37.55ZM116.22188 32.3625Q116.22188 29.4875 117.81563 28.096874Q119.15938 26.940624 121.08125 26.940624Q123.22188 26.940624 124.56563 28.346874Q125.925 29.753124 125.925 32.221874Q125.925 34.221874 125.33125 35.378124Q124.7375 36.51875 123.58125 37.159374Q122.44063 37.784374 121.08125 37.784374Q118.89375 37.784374 117.55 36.39375Q116.22188 34.9875 116.22188 32.3625ZM118.01875 32.3625Q118.01875 34.3625 118.87813 35.346874Q119.75313 36.33125 121.08125 36.33125Q122.39375 36.33125 123.25313 35.346874Q124.12813 34.346874 124.12813 32.3Q124.12813 30.378124 123.25313 29.39375Q122.37813 28.39375 121.08125 28.39375Q119.75313 28.39375 118.87813 29.39375Q118.01875 30.378124 118.01875 32.3625ZM127.84688 37.55L127.84688 27.175L129.425 27.175L129.425 28.753124Q130.03438 27.64375 130.55 27.3Q131.06563 26.940624 131.675 26.940624Q132.56563 26.940624 133.4875 27.503124L132.87813 29.14375Q132.2375 28.753124 131.59688 28.753124Q131.01875 28.753124 130.55 29.1125Q130.09688 29.45625 129.89375 30.065624Q129.6125 31.003124 129.6125 32.1125L129.6125 37.55L127.84688 37.55ZM134.8625 37.55L134.8625 27.175L136.44063 27.175L136.44063 28.628124Q136.925 27.878124 137.7375 27.409374Q138.55 26.940624 139.58125 26.940624Q140.7375 26.940624 141.47188 27.425Q142.20625 27.89375 142.51875 28.753124Q143.75313 26.940624 145.72188 26.940624Q147.26875 26.940624 148.09688 27.8Q148.925 28.659374 148.925 30.425L148.925 37.55L147.175 37.55L147.175 31.01875Q147.175 29.95625 147.00313 29.503124Q146.83125 29.034374 146.37813 28.753124Q145.94063 28.471874 145.33125 28.471874Q144.2375 28.471874 143.50313 29.20625Q142.78438 29.925 142.78438 31.51875L142.78438 37.55L141.03438 37.55L141.03438 30.815624Q141.03438 29.64375 140.59688 29.065624Q140.175 28.471874 139.19063 28.471874Q138.45625 28.471874 137.81563 28.8625Q137.19063 29.253124 136.90938 30.003124Q136.62813 30.753124 136.62813 32.175L136.62813 37.55L134.8625 37.55ZM157.64375 36.26875Q156.65938 37.096874 155.75313 37.440624Q154.84688 37.784374 153.81563 37.784374Q152.1125 37.784374 151.19063 36.95625Q150.26875 36.1125 150.26875 34.815624Q150.26875 34.05 150.6125 33.425Q150.97188 32.8 151.53438 32.425Q152.09688 32.034374 152.8 31.83125Q153.31563 31.70625 154.3625 31.565624Q156.4875 31.315624 157.4875 30.971874Q157.50313 30.6125 157.50313 30.503124Q157.50313 29.440624 157.00313 28.9875Q156.33125 28.39375 155.00313 28.39375Q153.75313 28.39375 153.15938 28.83125Q152.58125 29.26875 152.3 30.378124L150.58125 30.14375Q150.81563 29.034374 151.34688 28.3625Q151.87813 27.675 152.89375 27.315624Q153.90938 26.940624 155.25313 26.940624Q156.58125 26.940624 157.40938 27.253124Q158.2375 27.565624 158.62813 28.05Q159.01875 28.51875 159.175 29.2375Q159.26875 29.690624 159.26875 30.8625L159.26875 33.20625Q159.26875 35.659374 159.37813 36.315624Q159.4875 36.95625 159.83125 37.55L157.9875 37.55Q157.72188 37.003124 157.64375 36.26875ZM157.4875 32.346874Q156.53438 32.7375 154.6125 33.003124Q153.53438 33.159374 153.08125 33.3625Q152.64375 33.55 152.39375 33.925Q152.14375 34.3 152.14375 34.76875Q152.14375 35.471874 152.675 35.940624Q153.20625 36.409374 154.2375 36.409374Q155.25313 36.409374 156.03438 35.971874Q156.83125 35.51875 157.20625 34.753124Q157.4875 34.14375 157.4875 32.9875L157.4875 32.346874ZM161.8625 37.55L161.8625 27.175L163.45625 27.175L163.45625 28.659374Q164.59688 26.940624 166.75313 26.940624Q167.69063 26.940624 168.47188 27.284374Q169.26875 27.6125 169.65938 28.159374Q170.05 28.70625 170.20625 29.45625Q170.3 29.95625 170.3 31.175L170.3 37.55L168.53438 37.55L168.53438 31.2375Q168.53438 30.159374 168.33125 29.628124Q168.12813 29.096874 167.59688 28.784374Q167.08125 28.471874 166.37813 28.471874Q165.25313 28.471874 164.44063 29.190624Q163.62813 29.89375 163.62813 31.878124L163.62813 37.55L161.8625 37.55ZM178.64375 33.753124L180.3625 33.971874Q180.08125 35.76875 178.90938 36.784374Q177.75313 37.784374 176.05 37.784374Q173.925 37.784374 172.62813 36.39375Q171.33125 35.003124 171.33125 32.409374Q171.33125 30.721874 171.87813 29.471874Q172.44063 28.20625 173.58125 27.58125Q174.72188 26.940624 176.06563 26.940624Q177.75313 26.940624 178.81563 27.8Q179.89375 28.659374 180.20625 30.221874L178.4875 30.4875Q178.25313 29.440624 177.62813 28.925Q177.00313 28.39375 176.12813 28.39375Q174.8 28.39375 173.97188 29.346874Q173.14375 30.3 173.14375 32.346874Q173.14375 34.440624 173.94063 35.39375Q174.7375 36.33125 176.03438 36.33125Q177.06563 36.33125 177.75313 35.70625Q178.45625 35.065624 178.64375 33.753124ZM188.97188 34.20625L190.78438 34.440624Q190.3625 36.01875 189.19063 36.909374Q188.03438 37.784374 186.22188 37.784374Q183.95625 37.784374 182.6125 36.39375Q181.28438 34.9875 181.28438 32.45625Q181.28438 29.83125 182.62813 28.39375Q183.97188 26.940624 186.12813 26.940624Q188.20625 26.940624 189.51875 28.3625Q190.84688 29.76875 190.84688 32.346874Q190.84688 32.503124 190.83125 32.815624L183.09688 32.815624Q183.19063 34.51875 184.06563 35.425Q184.94063 36.33125 186.2375 36.33125Q187.20625 36.33125 187.87813 35.83125Q188.56563 35.315624 188.97188 34.20625ZM183.19063 31.3625L188.9875 31.3625Q188.87813 30.065624 188.33125 29.409374Q187.4875 28.39375 186.14375 28.39375Q184.94063 28.39375 184.1125 29.20625Q183.28438 30.003124 183.19063 31.3625Z" fill-rule="nonzero"/></svg>