<svg version="1.1" viewBox="0.0 0.0 600.0 371.0" fill="none" stroke="none" stroke-linecap="square" stroke-miterlimit="10" width="600" height="371" xmlns:xlink="http://www.w3.org/1999/xlink" xmlns="http://www.w3.org/2000/svg"><path fill="#ffffff" d="M0 0L600.0 0L600.0 371.0L0 371.0L0 0Z" fill-rule="nonzero"/><path fill="#fbbc04" d="M300.0 54.916668C369.40762 54.916668 429.59213 102.91222 445.03677 170.57964C460.4814 238.24706 427.08154 307.60263 364.54742 337.71747L300.0 203.68333Z" fill-rule="nonzero"/><path fill="#ea4335" d="M364.54742 337.71747C309.42203 364.26447 243.66444 354.35312 198.81297 312.73703C153.96149 271.12094 139.16377 206.28789 161.51701 149.33276C183.87025 92.37764 238.81541 54.916668 300.0 54.916668L300.0 203.68333Z" fill-rule="nonzero"/><path fill="#000000" d="M354.01108 184.83455L355.26108 184.72517Q355.35483 185.47517 355.68295 185.95955Q356.01108 186.44392 356.68295 186.7408Q357.37045 187.03767 358.22983 187.03767Q358.97983 187.03767 359.55795 186.81892Q360.1517 186.58455 360.43295 186.19392Q360.7142 185.8033 360.7142 185.33455Q360.7142 184.8658 360.43295 184.52205Q360.16733 184.16267 359.54233 183.91267Q359.13608 183.75642 357.74545 183.4283Q356.37045 183.10017 355.82358 182.8033Q355.10483 182.4283 354.74545 181.88142Q354.4017 181.31892 354.4017 180.6158Q354.4017 179.8658 354.82358 179.20955Q355.26108 178.53767 356.0892 178.20955Q356.91733 177.8658 357.93295 177.8658Q359.04233 177.8658 359.88608 178.22517Q360.74545 178.58455 361.19858 179.28767Q361.6517 179.97517 361.69858 180.85017L360.41733 180.94392Q360.32358 180.00642 359.72983 179.52205Q359.13608 179.02205 357.97983 179.02205Q356.7767 179.02205 356.22983 179.47517Q355.68295 179.91267 355.68295 180.53767Q355.68295 181.06892 356.07358 181.4283Q356.44858 181.77205 358.05795 182.14705Q359.68295 182.50642 360.2767 182.77205Q361.1517 183.1783 361.57358 183.8033Q361.99545 184.41267 361.99545 185.22517Q361.99545 186.02205 361.5267 186.7408Q361.07358 187.44392 360.2142 187.83455Q359.35483 188.22517 358.29233 188.22517Q356.93295 188.22517 356.01108 187.83455Q355.0892 187.4283 354.55795 186.63142Q354.04233 185.83455 354.01108 184.83455ZM368.04233 187.16267Q367.37045 187.7408 366.72983 187.9908Q366.10483 188.22517 365.37045 188.22517Q364.18295 188.22517 363.5267 187.64705Q362.88608 187.0533 362.88608 186.13142Q362.88608 185.60017 363.12045 185.16267Q363.37045 184.72517 363.76108 184.45955Q364.16733 184.19392 364.6517 184.0533Q365.01108 183.95955 365.74545 183.8658Q367.24545 183.69392 367.94858 183.44392Q367.94858 183.19392 367.94858 183.13142Q367.94858 182.3658 367.60483 182.06892Q367.13608 181.64705 366.19858 181.64705Q365.3392 181.64705 364.91733 181.95955Q364.51108 182.25642 364.30795 183.02205L363.10483 182.8658Q363.26108 182.08455 363.63608 181.6158Q364.0267 181.14705 364.72983 180.89705Q365.44858 180.63142 366.38608 180.63142Q367.30795 180.63142 367.88608 180.85017Q368.4642 181.06892 368.72983 181.39705Q369.01108 181.72517 369.12045 182.2408Q369.18295 182.5533 369.18295 183.3658L369.18295 185.00642Q369.18295 186.72517 369.26108 187.1783Q369.3392 187.63142 369.57358 188.0533L368.29233 188.0533Q368.10483 187.66267 368.04233 187.16267ZM367.94858 184.41267Q367.2767 184.6783 365.93295 184.88142Q365.18295 184.9908 364.85483 185.13142Q364.54233 185.25642 364.37045 185.52205Q364.19858 185.78767 364.19858 186.10017Q364.19858 186.60017 364.57358 186.9283Q364.94858 187.25642 365.66733 187.25642Q366.38608 187.25642 366.93295 186.94392Q367.47983 186.63142 367.74545 186.08455Q367.94858 185.6783 367.94858 184.8658L367.94858 184.41267ZM373.99545 186.95955L374.16733 188.03767Q373.6517 188.14705 373.24545 188.14705Q372.57358 188.14705 372.19858 187.94392Q371.8392 187.72517 371.68295 187.38142Q371.54233 187.03767 371.54233 185.9283L371.54233 181.75642L370.63608 181.75642L370.63608 180.78767L371.54233 180.78767L371.54233 178.9908L372.76108 178.25642L372.76108 180.78767L373.99545 180.78767L373.99545 181.75642L372.76108 181.75642L372.76108 185.9908Q372.76108 186.52205 372.82358 186.6783Q372.88608 186.81892 373.0267 186.91267Q373.18295 187.00642 373.44858 187.00642Q373.66733 187.00642 373.99545 186.95955ZM375.32358 179.44392L375.32358 178.03767L376.54233 178.03767L376.54233 179.44392L375.32358 179.44392ZM375.32358 188.0533L375.32358 180.78767L376.54233 180.78767L376.54233 188.0533L375.32358 188.0533ZM377.82358 185.88142L379.0267 185.69392Q379.13608 186.4283 379.60483 186.81892Q380.07358 187.20955 380.91733 187.20955Q381.76108 187.20955 382.16733 186.8658Q382.5892 186.52205 382.5892 186.0533Q382.5892 185.63142 382.2142 185.39705Q381.9642 185.22517 380.9642 184.97517Q379.60483 184.63142 379.07358 184.38142Q378.55795 184.13142 378.29233 183.69392Q378.0267 183.25642 378.0267 182.72517Q378.0267 182.2408 378.24545 181.83455Q378.4642 181.41267 378.85483 181.13142Q379.13608 180.9283 379.62045 180.78767Q380.12045 180.63142 380.69858 180.63142Q381.54233 180.63142 382.18295 180.88142Q382.8392 181.1158 383.1517 181.53767Q383.4642 181.95955 383.57358 182.66267L382.37045 182.83455Q382.29233 182.27205 381.88608 181.95955Q381.49545 181.64705 380.7767 181.64705Q379.93295 181.64705 379.57358 181.9283Q379.2142 182.19392 379.2142 182.58455Q379.2142 182.81892 379.35483 183.00642Q379.51108 183.20955 379.8392 183.33455Q380.01108 183.39705 380.91733 183.64705Q382.22983 184.00642 382.74545 184.22517Q383.26108 184.44392 383.54233 184.8658Q383.8392 185.28767 383.8392 185.91267Q383.8392 186.53767 383.47983 187.08455Q383.13608 187.6158 382.44858 187.9283Q381.7767 188.22517 380.91733 188.22517Q379.51108 188.22517 378.76108 187.63142Q378.0267 187.03767 377.82358 185.88142ZM385.60483 188.0533L385.60483 181.75642L384.51108 181.75642L384.51108 180.78767L385.60483 180.78767L385.60483 180.02205Q385.60483 179.28767 385.72983 178.9283Q385.91733 178.45955 386.35483 178.16267Q386.80795 177.8658 387.62045 177.8658Q388.13608 177.8658 388.76108 177.9908L388.57358 179.0533Q388.19858 178.9908 387.85483 178.9908Q387.29233 178.9908 387.05795 179.22517Q386.82358 179.45955 386.82358 180.1158L386.82358 180.78767L388.24545 180.78767L388.24545 181.75642L386.82358 181.75642L386.82358 188.0533L385.60483 188.0533ZM394.04233 187.16267Q393.37045 187.7408 392.72983 187.9908Q392.10483 188.22517 391.37045 188.22517Q390.18295 188.22517 389.5267 187.64705Q388.88608 187.0533 388.88608 186.13142Q388.88608 185.60017 389.12045 185.16267Q389.37045 184.72517 389.76108 184.45955Q390.16733 184.19392 390.6517 184.0533Q391.01108 183.95955 391.74545 183.8658Q393.24545 183.69392 393.94858 183.44392Q393.94858 183.19392 393.94858 183.13142Q393.94858 182.3658 393.60483 182.06892Q393.13608 181.64705 392.19858 181.64705Q391.3392 181.64705 390.91733 181.95955Q390.51108 182.25642 390.30795 183.02205L389.10483 182.8658Q389.26108 182.08455 389.63608 181.6158Q390.0267 181.14705 390.72983 180.89705Q391.44858 180.63142 392.38608 180.63142Q393.30795 180.63142 393.88608 180.85017Q394.4642 181.06892 394.72983 181.39705Q395.01108 181.72517 395.12045 182.2408Q395.18295 182.5533 395.18295 183.3658L395.18295 185.00642Q395.18295 186.72517 395.26108 187.1783Q395.3392 187.63142 395.57358 188.0533L394.29233 188.0533Q394.10483 187.66267 394.04233 187.16267ZM393.94858 184.41267Q393.2767 184.6783 391.93295 184.88142Q391.18295 184.9908 390.85483 185.13142Q390.54233 185.25642 390.37045 185.52205Q390.19858 185.78767 390.19858 186.10017Q390.19858 186.60017 390.57358 186.9283Q390.94858 187.25642 391.66733 187.25642Q392.38608 187.25642 392.93295 186.94392Q393.47983 186.63142 393.74545 186.08455Q393.94858 185.6783 393.94858 184.8658L393.94858 184.41267ZM402.04233 185.39705L403.26108 185.5533Q403.05795 186.8033 402.22983 187.52205Q401.41733 188.22517 400.22983 188.22517Q398.74545 188.22517 397.8392 187.25642Q396.93295 186.27205 396.93295 184.44392Q396.93295 183.27205 397.32358 182.39705Q397.7142 181.50642 398.51108 181.06892Q399.30795 180.63142 400.24545 180.63142Q401.41733 180.63142 402.16733 181.22517Q402.93295 181.81892 403.13608 182.9283L401.94858 183.1158Q401.7767 182.38142 401.3392 182.02205Q400.9017 181.64705 400.29233 181.64705Q399.35483 181.64705 398.7767 182.31892Q398.19858 182.97517 398.19858 184.41267Q398.19858 185.88142 398.76108 186.5533Q399.32358 187.20955 400.2142 187.20955Q400.94858 187.20955 401.43295 186.77205Q401.91733 186.31892 402.04233 185.39705ZM406.99545 186.95955L407.16733 188.03767Q406.6517 188.14705 406.24545 188.14705Q405.57358 188.14705 405.19858 187.94392Q404.8392 187.72517 404.68295 187.38142Q404.54233 187.03767 404.54233 185.9283L404.54233 181.75642L403.63608 181.75642L403.63608 180.78767L404.54233 180.78767L404.54233 178.9908L405.76108 178.25642L405.76108 180.78767L406.99545 180.78767L406.99545 181.75642L405.76108 181.75642L405.76108 185.9908Q405.76108 186.52205 405.82358 186.6783Q405.88608 186.81892 406.0267 186.91267Q406.18295 187.00642 406.44858 187.00642Q406.66733 187.00642 406.99545 186.95955ZM407.85483 184.4283Q407.85483 182.41267 408.97983 181.4283Q409.9017 180.63142 411.26108 180.63142Q412.74545 180.63142 413.69858 181.6158Q414.6517 182.58455 414.6517 184.31892Q414.6517 185.72517 414.22983 186.53767Q413.80795 187.33455 412.99545 187.78767Q412.19858 188.22517 411.26108 188.22517Q409.72983 188.22517 408.79233 187.2408Q407.85483 186.25642 407.85483 184.4283ZM409.12045 184.4283Q409.12045 185.81892 409.72983 186.52205Q410.3392 187.20955 411.26108 187.20955Q412.16733 187.20955 412.7767 186.50642Q413.38608 185.8033 413.38608 184.38142Q413.38608 183.03767 412.7767 182.35017Q412.16733 181.64705 411.26108 181.64705Q410.3392 181.64705 409.72983 182.33455Q409.12045 183.02205 409.12045 184.4283ZM416.29233 188.0533L416.29233 180.78767L417.4017 180.78767L417.4017 181.89705Q417.82358 181.1158 418.18295 180.88142Q418.54233 180.63142 418.97983 180.63142Q419.60483 180.63142 420.24545 181.02205L419.82358 182.16267Q419.37045 181.89705 418.91733 181.89705Q418.51108 181.89705 418.18295 182.14705Q417.87045 182.38142 417.72983 182.81892Q417.5267 183.47517 417.5267 184.25642L417.5267 188.0533L416.29233 188.0533ZM421.26108 190.85017L421.12045 189.69392Q421.5267 189.8033 421.82358 189.8033Q422.22983 189.8033 422.47983 189.66267Q422.72983 189.53767 422.88608 189.28767Q422.99545 189.10017 423.26108 188.3658Q423.29233 188.27205 423.37045 188.06892L420.60483 180.78767L421.93295 180.78767L423.44858 184.9908Q423.74545 185.8033 423.97983 186.6783Q424.18295 185.83455 424.47983 185.02205L426.0267 180.78767L427.26108 180.78767L424.49545 188.1783Q424.05795 189.3658 423.80795 189.81892Q423.47983 190.4283 423.05795 190.70955Q422.63608 191.00642 422.04233 191.00642Q421.69858 191.00642 421.26108 190.85017Z" fill-rule="nonzero"/><path fill="#000000" d="M179.35843 216.1963L180.68655 216.1963L180.68655 221.97755Q180.68655 223.49318 180.3428 224.3838Q179.99905 225.27443 179.10843 225.83693Q178.2178 226.3838 176.76468 226.3838Q175.35843 226.3838 174.45218 225.89943Q173.56155 225.41505 173.17093 224.49318Q172.79593 223.5713 172.79593 221.97755L172.79593 216.1963L174.12405 216.1963L174.12405 221.97755Q174.12405 223.27443 174.35843 223.89943Q174.60843 224.5088 175.20218 224.85255Q175.79593 225.18068 176.6553 225.18068Q178.10843 225.18068 178.73343 224.52443Q179.35843 223.85255 179.35843 221.97755L179.35843 216.1963ZM181.62405 226.21193L181.62405 218.9463L182.73343 218.9463L182.73343 219.97755Q183.5303 218.79005 185.04593 218.79005Q185.70218 218.79005 186.24905 219.02443Q186.79593 219.2588 187.06155 219.64943Q187.3428 220.02443 187.45218 220.55568Q187.5303 220.89943 187.5303 221.74318L187.5303 226.21193L186.29593 226.21193L186.29593 221.79005Q186.29593 221.04005 186.1553 220.68068Q186.01468 220.30568 185.63968 220.08693Q185.2803 219.85255 184.7803 219.85255Q183.99905 219.85255 183.42093 220.35255Q182.85843 220.85255 182.85843 222.24318L182.85843 226.21193L181.62405 226.21193ZM194.3428 226.21193L194.3428 225.29005Q193.63968 226.3838 192.31155 226.3838Q191.43655 226.3838 190.70218 225.89943Q189.98343 225.41505 189.57718 224.55568Q189.18655 223.6963 189.18655 222.58693Q189.18655 221.5088 189.54593 220.61818Q189.9053 219.72755 190.62405 219.2588Q191.35843 218.79005 192.24905 218.79005Q192.9053 218.79005 193.42093 219.0713Q193.93655 219.33693 194.24905 219.79005L194.24905 216.1963L195.48343 216.1963L195.48343 226.21193L194.3428 226.21193ZM190.45218 222.58693Q190.45218 223.97755 191.0303 224.68068Q191.62405 225.36818 192.42093 225.36818Q193.23343 225.36818 193.79593 224.71193Q194.35843 224.04005 194.35843 222.6963Q194.35843 221.1963 193.7803 220.5088Q193.20218 219.80568 192.37405 219.80568Q191.54593 219.80568 190.99905 220.47755Q190.45218 221.14943 190.45218 222.58693ZM202.5928 223.86818L203.87405 224.02443Q203.56155 225.14943 202.74905 225.77443Q201.93655 226.3838 200.67093 226.3838Q199.07718 226.3838 198.13968 225.39943Q197.2178 224.41505 197.2178 222.64943Q197.2178 220.80568 198.1553 219.80568Q199.10843 218.79005 200.60843 218.79005Q202.06155 218.79005 202.98343 219.79005Q203.9053 220.77443 203.9053 222.5713Q203.9053 222.68068 203.9053 222.89943L198.48343 222.89943Q198.56155 224.08693 199.1553 224.72755Q199.76468 225.36818 200.68655 225.36818Q201.35843 225.36818 201.82718 225.0088Q202.31155 224.64943 202.5928 223.86818ZM198.56155 221.8838L202.60843 221.8838Q202.5303 220.96193 202.13968 220.5088Q201.56155 219.80568 200.62405 219.80568Q199.76468 219.80568 199.18655 220.36818Q198.62405 220.93068 198.56155 221.8838ZM205.60843 226.21193L205.60843 218.9463L206.7178 218.9463L206.7178 220.05568Q207.13968 219.27443 207.49905 219.04005Q207.85843 218.79005 208.29593 218.79005Q208.92093 218.79005 209.56155 219.18068L209.13968 220.3213Q208.68655 220.05568 208.23343 220.05568Q207.82718 220.05568 207.49905 220.30568Q207.18655 220.54005 207.04593 220.97755Q206.8428 221.6338 206.8428 222.41505L206.8428 226.21193L205.60843 226.21193ZM210.62405 228.99318L210.62405 218.9463L211.74905 218.9463L211.74905 219.89943Q212.13968 219.33693 212.63968 219.0713Q213.13968 218.79005 213.85843 218.79005Q214.7803 218.79005 215.48343 219.27443Q216.20218 219.74318 216.56155 220.61818Q216.92093 221.49318 216.92093 222.52443Q216.92093 223.6338 216.51468 224.54005Q216.12405 225.43068 215.35843 225.91505Q214.60843 226.3838 213.76468 226.3838Q213.1553 226.3838 212.6553 226.11818Q212.17093 225.85255 211.85843 225.46193L211.85843 228.99318L210.62405 228.99318ZM211.73343 222.61818Q211.73343 224.02443 212.29593 224.6963Q212.87405 225.36818 213.68655 225.36818Q214.49905 225.36818 215.07718 224.68068Q215.67093 223.97755 215.67093 222.52443Q215.67093 221.1338 215.0928 220.4463Q214.5303 219.7588 213.73343 219.7588Q212.95218 219.7588 212.3428 220.49318Q211.73343 221.22755 211.73343 222.61818ZM223.5928 223.86818L224.87405 224.02443Q224.56155 225.14943 223.74905 225.77443Q222.93655 226.3838 221.67093 226.3838Q220.07718 226.3838 219.13968 225.39943Q218.2178 224.41505 218.2178 222.64943Q218.2178 220.80568 219.1553 219.80568Q220.10843 218.79005 221.60843 218.79005Q223.06155 218.79005 223.98343 219.79005Q224.9053 220.77443 224.9053 222.5713Q224.9053 222.68068 224.9053 222.89943L219.48343 222.89943Q219.56155 224.08693 220.1553 224.72755Q220.76468 225.36818 221.68655 225.36818Q222.35843 225.36818 222.82718 225.0088Q223.31155 224.64943 223.5928 223.86818ZM219.56155 221.8838L223.60843 221.8838Q223.5303 220.96193 223.13968 220.5088Q222.56155 219.80568 221.62405 219.80568Q220.76468 219.80568 220.18655 220.36818Q219.62405 220.93068 219.56155 221.8838ZM226.60843 226.21193L226.60843 218.9463L227.7178 218.9463L227.7178 220.05568Q228.13968 219.27443 228.49905 219.04005Q228.85843 218.79005 229.29593 218.79005Q229.92093 218.79005 230.56155 219.18068L230.13968 220.3213Q229.68655 220.05568 229.23343 220.05568Q228.82718 220.05568 228.49905 220.30568Q228.18655 220.54005 228.04593 220.97755Q227.8428 221.6338 227.8428 222.41505L227.8428 226.21193L226.60843 226.21193ZM231.92093 226.21193L231.92093 219.91505L230.82718 219.91505L230.82718 218.9463L231.92093 218.9463L231.92093 218.18068Q231.92093 217.4463 232.04593 217.08693Q232.23343 216.61818 232.67093 216.3213Q233.12405 216.02443 233.93655 216.02443Q234.45218 216.02443 235.07718 216.14943L234.88968 217.21193Q234.51468 217.14943 234.17093 217.14943Q233.60843 217.14943 233.37405 217.3838Q233.13968 217.61818 233.13968 218.27443L233.13968 218.9463L234.56155 218.9463L234.56155 219.91505L233.13968 219.91505L233.13968 226.21193L231.92093 226.21193ZM235.17093 222.58693Q235.17093 220.5713 236.29593 219.58693Q237.2178 218.79005 238.57718 218.79005Q240.06155 218.79005 241.01468 219.77443Q241.9678 220.74318 241.9678 222.47755Q241.9678 223.8838 241.54593 224.6963Q241.12405 225.49318 240.31155 225.9463Q239.51468 226.3838 238.57718 226.3838Q237.04593 226.3838 236.10843 225.39943Q235.17093 224.41505 235.17093 222.58693ZM236.43655 222.58693Q236.43655 223.97755 237.04593 224.68068Q237.6553 225.36818 238.57718 225.36818Q239.48343 225.36818 240.0928 224.66505Q240.70218 223.96193 240.70218 222.54005Q240.70218 221.1963 240.0928 220.5088Q239.48343 219.80568 238.57718 219.80568Q237.6553 219.80568 237.04593 220.49318Q236.43655 221.18068 236.43655 222.58693ZM243.60843 226.21193L243.60843 218.9463L244.7178 218.9463L244.7178 220.05568Q245.13968 219.27443 245.49905 219.04005Q245.85843 218.79005 246.29593 218.79005Q246.92093 218.79005 247.56155 219.18068L247.13968 220.3213Q246.68655 220.05568 246.23343 220.05568Q245.82718 220.05568 245.49905 220.30568Q245.18655 220.54005 245.04593 220.97755Q244.8428 221.6338 244.8428 222.41505L244.8428 226.21193L243.60843 226.21193ZM248.62405 226.21193L248.62405 218.9463L249.73343 218.9463L249.73343 219.97755Q250.06155 219.43068 250.62405 219.11818Q251.20218 218.79005 251.92093 218.79005Q252.73343 218.79005 253.24905 219.1338Q253.76468 219.46193 253.98343 220.05568Q254.8428 218.79005 256.2178 218.79005Q257.29593 218.79005 257.87405 219.3838Q258.4678 219.97755 258.4678 221.22755L258.4678 226.21193L257.23343 226.21193L257.23343 221.6338Q257.23343 220.89943 257.10843 220.5713Q256.99905 220.24318 256.68655 220.05568Q256.37405 219.85255 255.95218 219.85255Q255.18655 219.85255 254.67093 220.36818Q254.17093 220.86818 254.17093 221.99318L254.17093 226.21193L252.93655 226.21193L252.93655 221.49318Q252.93655 220.68068 252.63968 220.27443Q252.3428 219.85255 251.6553 219.85255Q251.13968 219.85255 250.68655 220.1338Q250.24905 220.39943 250.04593 220.93068Q249.85843 221.4463 249.85843 222.4463L249.85843 226.21193L248.62405 226.21193ZM264.5928 223.86818L265.87405 224.02443Q265.56155 225.14943 264.74905 225.77443Q263.93655 226.3838 262.67093 226.3838Q261.07718 226.3838 260.13968 225.39943Q259.2178 224.41505 259.2178 222.64943Q259.2178 220.80568 260.1553 219.80568Q261.10843 218.79005 262.60843 218.79005Q264.06155 218.79005 264.98343 219.79005Q265.9053 220.77443 265.9053 222.5713Q265.9053 222.68068 265.9053 222.89943L260.48343 222.89943Q260.56155 224.08693 261.1553 224.72755Q261.76468 225.36818 262.68655 225.36818Q263.35843 225.36818 263.82718 225.0088Q264.31155 224.64943 264.5928 223.86818ZM260.56155 221.8838L264.60843 221.8838Q264.5303 220.96193 264.13968 220.5088Q263.56155 219.80568 262.62405 219.80568Q261.76468 219.80568 261.18655 220.36818Q260.62405 220.93068 260.56155 221.8838ZM272.3428 226.21193L272.3428 225.29005Q271.63968 226.3838 270.31155 226.3838Q269.43655 226.3838 268.70218 225.89943Q267.98343 225.41505 267.57718 224.55568Q267.18655 223.6963 267.18655 222.58693Q267.18655 221.5088 267.54593 220.61818Q267.9053 219.72755 268.62405 219.2588Q269.35843 218.79005 270.24905 218.79005Q270.9053 218.79005 271.42093 219.0713Q271.93655 219.33693 272.24905 219.79005L272.24905 216.1963L273.48343 216.1963L273.48343 226.21193L272.3428 226.21193ZM268.45218 222.58693Q268.45218 223.97755 269.0303 224.68068Q269.62405 225.36818 270.42093 225.36818Q271.23343 225.36818 271.79593 224.71193Q272.35843 224.04005 272.35843 222.6963Q272.35843 221.1963 271.7803 220.5088Q271.20218 219.80568 270.37405 219.80568Q269.54593 219.80568 268.99905 220.47755Q268.45218 221.14943 268.45218 222.58693Z" fill-rule="nonzero"/><path fill="#1a1a1a" d="M27.3 218.17873L28.815624 218.17873L28.815624 224.7881Q28.815624 226.52248 28.425 227.5381Q28.034374 228.55373 27.01875 229.19435Q26.003124 229.83498 24.346874 229.83498Q22.7375 229.83498 21.70625 229.27248Q20.690624 228.70998 20.253124 227.6631Q19.815624 226.61623 19.815624 224.7881L19.815624 218.17873L21.33125 218.17873L21.33125 224.7881Q21.33125 226.27248 21.596874 226.99123Q21.878124 227.69435 22.55 228.08498Q23.2375 228.45998 24.20625 228.45998Q25.878124 228.45998 26.58125 227.70998Q27.3 226.94435 27.3 224.7881L27.3 218.17873ZM30.6125 229.63185L30.6125 221.33498L31.878124 221.33498L31.878124 222.50685Q32.784374 221.14748 34.51875 221.14748Q35.26875 221.14748 35.89375 221.4131Q36.51875 221.67873 36.83125 222.11623Q37.14375 222.55373 37.26875 223.1631Q37.346874 223.55373 37.346874 224.52248L37.346874 229.63185L35.940624 229.63185L35.940624 224.58498Q35.940624 223.7256 35.76875 223.30373Q35.6125 222.86623 35.190624 222.61623Q34.784374 222.36623 34.221874 222.36623Q33.315624 222.36623 32.659374 222.94435Q32.01875 223.50685 32.01875 225.1006L32.01875 229.63185L30.6125 229.63185ZM43.9875 229.63185L43.9875 228.58498Q43.20625 229.81935 41.675 229.81935Q40.675 229.81935 39.846874 229.27248Q39.01875 228.7256 38.55 227.74123Q38.096874 226.75685 38.096874 225.49123Q38.096874 224.24123 38.503124 223.24123Q38.925 222.2256 39.753124 221.69435Q40.58125 221.14748 41.6125 221.14748Q42.3625 221.14748 42.940624 221.45998Q43.534374 221.77248 43.89375 222.2881L43.89375 218.17873L45.3 218.17873L45.3 229.63185L43.9875 229.63185ZM39.55 225.49123Q39.55 227.08498 40.221874 227.88185Q40.89375 228.6631 41.8 228.6631Q42.721874 228.6631 43.3625 227.9131Q44.01875 227.14748 44.01875 225.6006Q44.01875 223.89748 43.3625 223.1006Q42.70625 222.30373 41.7375 222.30373Q40.8 222.30373 40.175 223.06935Q39.55 223.83498 39.55 225.49123ZM53.284374 226.95998L54.7375 227.13185Q54.39375 228.4131 53.45625 229.11623Q52.534374 229.81935 51.096874 229.81935Q49.26875 229.81935 48.20625 228.69435Q47.14375 227.56935 47.14375 225.55373Q47.14375 223.45998 48.221874 222.30373Q49.3 221.14748 51.01875 221.14748Q52.675 221.14748 53.721874 222.2881Q54.784374 223.4131 54.784374 225.45998Q54.784374 225.58498 54.784374 225.83498L48.596874 225.83498Q48.675 227.20998 49.3625 227.94435Q50.065624 228.6631 51.096874 228.6631Q51.878124 228.6631 52.425 228.25685Q52.971874 227.8506 53.284374 226.95998ZM48.675 224.67873L53.3 224.67873Q53.20625 223.63185 52.76875 223.11623Q52.096874 222.30373 51.034374 222.30373Q50.065624 222.30373 49.39375 222.95998Q48.7375 223.6006 48.675 224.67873ZM56.596874 229.63185L56.596874 221.33498L57.8625 221.33498L57.8625 222.58498Q58.346874 221.70998 58.753124 221.42873Q59.159374 221.14748 59.659374 221.14748Q60.3625 221.14748 61.096874 221.6006L60.6125 222.89748Q60.096874 222.6006 59.58125 222.6006Q59.128124 222.6006 58.753124 222.88185Q58.39375 223.14748 58.2375 223.64748Q58.003124 224.39748 58.003124 225.2881L58.003124 229.63185L56.596874 229.63185ZM61.6125 232.81935L61.6125 221.33498L62.89375 221.33498L62.89375 222.4131Q63.346874 221.77248 63.909374 221.45998Q64.4875 221.14748 65.3 221.14748Q66.3625 221.14748 67.175 221.69435Q67.9875 222.24123 68.39375 223.24123Q68.81563 224.2256 68.81563 225.4131Q68.81563 226.69435 68.34688 227.70998Q67.89375 228.7256 67.01875 229.27248Q66.15938 229.81935 65.19063 229.81935Q64.4875 229.81935 63.925 229.52248Q63.378124 229.2256 63.01875 228.77248L63.01875 232.81935L61.6125 232.81935ZM62.878124 225.52248Q62.878124 227.13185 63.51875 227.89748Q64.175 228.6631 65.09688 228.6631Q66.03438 228.6631 66.70625 227.86623Q67.37813 227.06935 67.37813 225.4131Q67.37813 223.81935 66.72188 223.0381Q66.06563 222.24123 65.15938 222.24123Q64.26875 222.24123 63.565624 223.08498Q62.878124 223.92873 62.878124 225.52248ZM76.28438 226.95998L77.7375 227.13185Q77.39375 228.4131 76.45625 229.11623Q75.53438 229.81935 74.09688 229.81935Q72.26875 229.81935 71.20625 228.69435Q70.14375 227.56935 70.14375 225.55373Q70.14375 223.45998 71.22188 222.30373Q72.3 221.14748 74.01875 221.14748Q75.675 221.14748 76.72188 222.2881Q77.78438 223.4131 77.78438 225.45998Q77.78438 225.58498 77.78438 225.83498L71.59688 225.83498Q71.675 227.20998 72.3625 227.94435Q73.06563 228.6631 74.09688 228.6631Q74.87813 228.6631 75.425 228.25685Q75.97188 227.8506 76.28438 226.95998ZM71.675 224.67873L76.3 224.67873Q76.20625 223.63185 75.76875 223.11623Q75.09688 222.30373 74.03438 222.30373Q73.06563 222.30373 72.39375 222.95998Q71.7375 223.6006 71.675 224.67873ZM79.59688 229.63185L79.59688 221.33498L80.8625 221.33498L80.8625 222.58498Q81.34688 221.70998 81.75313 221.42873Q82.15938 221.14748 82.65938 221.14748Q83.3625 221.14748 84.09688 221.6006L83.6125 222.89748Q83.09688 222.6006 82.58125 222.6006Q82.12813 222.6006 81.75313 222.88185Q81.39375 223.14748 81.2375 223.64748Q81.00313 224.39748 81.00313 225.2881L81.00313 229.63185L79.59688 229.63185ZM84.94063 229.63185L84.94063 222.42873L83.70625 222.42873L83.70625 221.33498L84.94063 221.33498L84.94063 220.44435Q84.94063 219.61623 85.09688 219.20998Q85.3 218.6631 85.8 218.31935Q86.31563 217.9756 87.2375 217.9756Q87.83125 217.9756 88.55 218.11623L88.34688 219.3506Q87.90938 219.27248 87.51875 219.27248Q86.87813 219.27248 86.6125 219.55373Q86.34688 219.81935 86.34688 220.56935L86.34688 221.33498L87.95625 221.33498L87.95625 222.42873L86.34688 222.42873L86.34688 229.63185L84.94063 229.63185ZM88.08125 225.4756Q88.08125 223.17873 89.3625 222.06935Q90.44063 221.14748 91.97188 221.14748Q93.69063 221.14748 94.76875 222.27248Q95.8625 223.38185 95.8625 225.36623Q95.8625 226.95998 95.37813 227.88185Q94.89375 228.80373 93.97188 229.31935Q93.06563 229.81935 91.97188 229.81935Q90.2375 229.81935 89.15938 228.70998Q88.08125 227.58498 88.08125 225.4756ZM89.53438 225.4756Q89.53438 227.06935 90.22188 227.86623Q90.925 228.6631 91.97188 228.6631Q93.01875 228.6631 93.70625 227.86623Q94.40938 227.06935 94.40938 225.42873Q94.40938 223.89748 93.70625 223.1006Q93.01875 222.30373 91.97188 222.30373Q90.925 222.30373 90.22188 223.1006Q89.53438 223.88185 89.53438 225.4756ZM97.59688 229.63185L97.59688 221.33498L98.8625 221.33498L98.8625 222.58498Q99.34688 221.70998 99.75313 221.42873Q100.15938 221.14748 100.65938 221.14748Q101.3625 221.14748 102.09688 221.6006L101.6125 222.89748Q101.09688 222.6006 100.58125 222.6006Q100.12813 222.6006 99.75313 222.88185Q99.39375 223.14748 99.2375 223.64748Q99.00313 224.39748 99.00313 225.2881L99.00313 229.63185L97.59688 229.63185ZM102.6125 229.63185L102.6125 221.33498L103.8625 221.33498L103.8625 222.49123Q104.25313 221.88185 104.89375 221.52248Q105.55 221.14748 106.37813 221.14748Q107.3 221.14748 107.89375 221.5381Q108.4875 221.9131 108.72188 222.6006Q109.70625 221.14748 111.28438 221.14748Q112.51875 221.14748 113.175 221.83498Q113.84688 222.50685 113.84688 223.92873L113.84688 229.63185L112.45625 229.63185L112.45625 224.39748Q112.45625 223.55373 112.31563 223.19435Q112.175 222.81935 111.81563 222.6006Q111.45625 222.36623 110.97188 222.36623Q110.09688 222.36623 109.51875 222.94435Q108.94063 223.52248 108.94063 224.80373L108.94063 229.63185L107.53438 229.63185L107.53438 224.24123Q107.53438 223.30373 107.19063 222.83498Q106.84688 222.36623 106.06563 222.36623Q105.47188 222.36623 104.97188 222.67873Q104.47188 222.99123 104.2375 223.6006Q104.01875 224.19435 104.01875 225.31935L104.01875 229.63185L102.6125 229.63185ZM121.28438 226.95998L122.7375 227.13185Q122.39375 228.4131 121.45625 229.11623Q120.53438 229.81935 119.09688 229.81935Q117.26875 229.81935 116.20625 228.69435Q115.14375 227.56935 115.14375 225.55373Q115.14375 223.45998 116.22188 222.30373Q117.3 221.14748 119.01875 221.14748Q120.675 221.14748 121.72188 222.2881Q122.78438 223.4131 122.78438 225.45998Q122.78438 225.58498 122.78438 225.83498L116.59688 225.83498Q116.675 227.20998 117.3625 227.94435Q118.06563 228.6631 119.09688 228.6631Q119.87813 228.6631 120.425 228.25685Q120.97188 227.8506 121.28438 226.95998ZM116.675 224.67873L121.3 224.67873Q121.20625 223.63185 120.76875 223.11623Q120.09688 222.30373 119.03438 222.30373Q118.06563 222.30373 117.39375 222.95998Q116.7375 223.6006 116.675 224.67873ZM129.9875 229.63185L129.9875 228.58498Q129.20625 229.81935 127.675 229.81935Q126.675 229.81935 125.84688 229.27248Q125.01875 228.7256 124.55 227.74123Q124.09688 226.75685 124.09688 225.49123Q124.09688 224.24123 124.50313 223.24123Q124.925 222.2256 125.75313 221.69435Q126.58125 221.14748 127.6125 221.14748Q128.3625 221.14748 128.94063 221.45998Q129.53438 221.77248 129.89375 222.2881L129.89375 218.17873L131.3 218.17873L131.3 229.63185L129.9875 229.63185ZM125.55 225.49123Q125.55 227.08498 126.22188 227.88185Q126.89375 228.6631 127.8 228.6631Q128.72188 228.6631 129.3625 227.9131Q130.01875 227.14748 130.01875 225.6006Q130.01875 223.89748 129.3625 223.1006Q128.70625 222.30373 127.7375 222.30373Q126.8 222.30373 126.175 223.06935Q125.55 223.83498 125.55 225.49123Z" fill-rule="nonzero"/><path fill="#9e9e9e" d="M19.221874 248.63185L20.690624 248.50685Q20.8625 249.58498 21.45625 250.13185Q22.05 250.6631 22.89375 250.6631Q23.909374 250.6631 24.6125 249.89748Q25.315624 249.13185 25.315624 247.86623Q25.315624 246.6631 24.64375 245.9756Q23.971874 245.27248 22.878124 245.27248Q22.190624 245.27248 21.64375 245.58498Q21.096874 245.89748 20.784374 246.38185L19.471874 246.20998L20.58125 240.33498L26.26875 240.33498L26.26875 241.67873L21.70625 241.67873L21.08125 244.75685Q22.1125 244.0381 23.253124 244.0381Q24.753124 244.0381 25.784374 245.08498Q26.815624 246.11623 26.815624 247.74123Q26.815624 249.30373 25.909374 250.42873Q24.8 251.83498 22.89375 251.83498Q21.33125 251.83498 20.346874 250.95998Q19.3625 250.06935 19.221874 248.63185ZM28.315624 241.67873L28.315624 240.31935L35.721874 240.31935L35.721874 241.4131Q34.628124 242.58498 33.55 244.52248Q32.4875 246.44435 31.89375 248.4756Q31.471874 249.9131 31.3625 251.63185L29.909374 251.63185Q29.940624 250.27248 30.440624 248.36623Q30.95625 246.44435 31.89375 244.67873Q32.846874 242.89748 33.925 241.67873L28.315624 241.67873ZM38.003124 251.63185L38.003124 250.02248L39.6125 250.02248L39.6125 251.63185L38.003124 251.63185ZM46.51875 251.63185L45.1125 251.63185L45.1125 242.6631Q44.596874 243.14748 43.76875 243.63185Q42.95625 244.11623 42.3 244.36623L42.3 243.00685Q43.471874 242.44435 44.346874 241.6631Q45.2375 240.86623 45.6125 240.13185L46.51875 240.13185L46.51875 251.63185ZM50.4875 242.92873Q50.4875 241.69435 51.096874 240.83498Q51.721874 239.9756 52.89375 239.9756Q53.971874 239.9756 54.675 240.75685Q55.378124 241.52248 55.378124 243.00685Q55.378124 244.45998 54.659374 245.25685Q53.95625 246.0381 52.909374 246.0381Q51.8625 246.0381 51.175 245.27248Q50.4875 244.49123 50.4875 242.92873ZM52.925 240.94435Q52.409374 240.94435 52.05 241.39748Q51.70625 241.8506 51.70625 243.06935Q51.70625 244.1631 52.05 244.61623Q52.409374 245.06935 52.925 245.06935Q53.45625 245.06935 53.8 244.61623Q54.159374 244.1631 54.159374 242.95998Q54.159374 241.8506 53.8 241.39748Q53.45625 240.94435 52.925 240.94435ZM52.940624 252.05373L59.20625 239.9756L60.346874 239.9756L54.096874 252.05373L52.940624 252.05373ZM57.89375 248.94435Q57.89375 247.70998 58.503124 246.8506Q59.128124 245.99123 60.3 245.99123Q61.378124 245.99123 62.08125 246.77248Q62.8 247.5381 62.8 249.02248Q62.8 250.4756 62.08125 251.27248Q61.3625 252.05373 60.315624 252.05373Q59.26875 252.05373 58.58125 251.27248Q57.89375 250.49123 57.89375 248.94435ZM60.346874 246.95998Q59.815624 246.95998 59.45625 247.4131Q59.1125 247.86623 59.1125 249.08498Q59.1125 250.17873 59.45625 250.63185Q59.815624 251.08498 60.33125 251.08498Q60.878124 251.08498 61.221874 250.63185Q61.565624 250.17873 61.565624 248.9756Q61.565624 247.86623 61.20625 247.4131Q60.8625 246.95998 60.346874 246.95998Z" fill-rule="nonzero"/><path stroke="#757575" stroke-width="1.0" stroke-linecap="butt" d="M18.55 235.13185L145.23334 235.13185L162.21506 235.13185" fill-rule="nonzero"/><path fill="#9e9e9e" d="M164.21506 235.13185C164.21506 234.02728 163.31963 233.13185 162.21506 233.13185C161.11049 233.13185 160.21506 234.02728 160.21506 235.13185C160.21506 236.23642 161.11049 237.13185 162.21506 237.13185C163.31963 237.13185 164.21506 236.23642 164.21506 235.13185" fill-rule="nonzero"/><path fill="#1a1a1a" d="M500.16876 163.04732L501.60626 162.92232Q501.7 163.7817 502.075 164.3442Q502.45 164.89107 503.23126 165.23482Q504.0125 165.56294 504.98126 165.56294Q505.85626 165.56294 506.5125 165.31294Q507.1844 165.04732 507.4969 164.60982Q507.825 164.1567 507.825 163.62544Q507.825 163.07857 507.5125 162.68794Q507.2 162.2817 506.48126 162.00044Q506.02814 161.82857 504.45 161.45357Q502.8719 161.06294 502.23126 160.73482Q501.41876 160.29732 501.0125 159.67232Q500.60626 159.0317 500.60626 158.23482Q500.60626 157.37544 501.09064 156.62544Q501.59064 155.85982 502.52814 155.4692Q503.48126 155.07857 504.6375 155.07857Q505.91876 155.07857 506.8875 155.50044Q507.85626 155.9067 508.3719 156.70357Q508.90314 157.50044 508.95 158.50044L507.4969 158.60982Q507.3719 157.5317 506.7 156.98482Q506.02814 156.42232 504.7 156.42232Q503.325 156.42232 502.7 156.92232Q502.075 157.42232 502.075 158.14107Q502.075 158.75044 502.5125 159.1567Q502.95 159.54732 504.79376 159.9692Q506.65314 160.39107 507.34064 160.70357Q508.34064 161.1567 508.8094 161.87544Q509.29376 162.57857 509.29376 163.50044Q509.29376 164.4067 508.7625 165.2192Q508.2469 166.0317 507.2625 166.48482Q506.27814 166.93794 505.0594 166.93794Q503.4969 166.93794 502.45 166.48482Q501.40314 166.01607 500.79376 165.10982Q500.2 164.20357 500.16876 163.04732ZM516.91876 165.70357Q516.1375 166.37544 515.41876 166.6567Q514.7 166.92232 513.8719 166.92232Q512.4969 166.92232 511.7625 166.25044Q511.02814 165.57857 511.02814 164.54732Q511.02814 163.93794 511.3094 163.43794Q511.59064 162.92232 512.02814 162.62544Q512.48126 162.31294 513.04376 162.1567Q513.46564 162.04732 514.29376 161.95357Q515.9969 161.75044 516.8094 161.4692Q516.8094 161.17232 516.8094 161.0942Q516.8094 160.23482 516.41876 159.89107Q515.8719 159.4067 514.8094 159.4067Q513.825 159.4067 513.34064 159.76607Q512.8719 160.10982 512.65314 160.98482L511.27814 160.79732Q511.46564 159.92232 511.8875 159.37544Q512.325 158.82857 513.1375 158.54732Q513.95 158.25044 515.0125 158.25044Q516.075 158.25044 516.73126 158.50044Q517.40314 158.75044 517.71564 159.12544Q518.02814 159.50044 518.15314 160.07857Q518.23126 160.43794 518.23126 161.37544L518.23126 163.25044Q518.23126 165.2192 518.3094 165.73482Q518.40314 166.25044 518.66876 166.73482L517.2 166.73482Q516.98126 166.29732 516.91876 165.70357ZM516.8094 162.56294Q516.04376 162.87544 514.5125 163.0942Q513.6375 163.2192 513.27814 163.37544Q512.91876 163.5317 512.71564 163.8442Q512.52814 164.14107 512.52814 164.50044Q512.52814 165.06294 512.95 165.43794Q513.3875 165.81294 514.2 165.81294Q515.0125 165.81294 515.6375 165.4692Q516.27814 165.10982 516.575 164.48482Q516.8094 164.01607 516.8094 163.07857L516.8094 162.56294ZM523.575 165.4692L523.77814 166.7192Q523.1844 166.8442 522.71564 166.8442Q521.95 166.8442 521.52814 166.60982Q521.10626 166.35982 520.9344 165.9692Q520.7625 165.56294 520.7625 164.29732L520.7625 159.5317L519.73126 159.5317L519.73126 158.43794L520.7625 158.43794L520.7625 156.37544L522.16876 155.5317L522.16876 158.43794L523.575 158.43794L523.575 159.5317L522.16876 159.5317L522.16876 164.37544Q522.16876 164.98482 522.23126 165.1567Q522.3094 165.32857 522.48126 165.43794Q522.65314 165.5317 522.96564 165.5317Q523.2 165.5317 523.575 165.4692ZM524.5125 156.89107L524.5125 155.2817L525.91876 155.2817L525.91876 156.89107L524.5125 156.89107ZM524.5125 166.73482L524.5125 158.43794L525.91876 158.43794L525.91876 166.73482L524.5125 166.73482ZM527.95 164.25044L529.34064 164.0317Q529.45 164.87544 529.98126 165.32857Q530.52814 165.76607 531.48126 165.76607Q532.45 165.76607 532.91876 165.37544Q533.3875 164.9692 533.3875 164.43794Q533.3875 163.9692 532.98126 163.68794Q532.6844 163.50044 531.54376 163.2192Q529.9969 162.82857 529.3875 162.54732Q528.79376 162.25044 528.48126 161.75044Q528.1844 161.25044 528.1844 160.64107Q528.1844 160.07857 528.4344 159.60982Q528.6844 159.14107 529.1219 158.82857Q529.45 158.57857 530.0125 158.42232Q530.59064 158.25044 531.23126 158.25044Q532.21564 158.25044 532.95 158.5317Q533.6844 158.81294 534.02814 159.29732Q534.3875 159.76607 534.52814 160.57857L533.15314 160.76607Q533.0594 160.12544 532.60626 159.76607Q532.15314 159.4067 531.34064 159.4067Q530.3719 159.4067 529.95 159.73482Q529.54376 160.04732 529.54376 160.4692Q529.54376 160.75044 529.71564 160.9692Q529.8875 161.18794 530.2469 161.3442Q530.46564 161.42232 531.4969 161.70357Q532.98126 162.0942 533.575 162.35982Q534.16876 162.60982 534.4969 163.0942Q534.84064 163.57857 534.84064 164.29732Q534.84064 165.00044 534.41876 165.62544Q534.0125 166.23482 533.23126 166.57857Q532.46564 166.92232 531.4969 166.92232Q529.8719 166.92232 529.02814 166.25044Q528.1844 165.57857 527.95 164.25044ZM536.84064 166.73482L536.84064 159.5317L535.60626 159.5317L535.60626 158.43794L536.84064 158.43794L536.84064 157.54732Q536.84064 156.7192 536.9969 156.31294Q537.2 155.76607 537.7 155.42232Q538.21564 155.07857 539.1375 155.07857Q539.73126 155.07857 540.45 155.2192L540.2469 156.45357Q539.8094 156.37544 539.41876 156.37544Q538.77814 156.37544 538.5125 156.6567Q538.2469 156.92232 538.2469 157.67232L538.2469 158.43794L539.85626 158.43794L539.85626 159.5317L538.2469 159.5317L538.2469 166.73482L536.84064 166.73482ZM545.91876 165.70357Q545.1375 166.37544 544.41876 166.6567Q543.7 166.92232 542.8719 166.92232Q541.4969 166.92232 540.7625 166.25044Q540.02814 165.57857 540.02814 164.54732Q540.02814 163.93794 540.3094 163.43794Q540.59064 162.92232 541.02814 162.62544Q541.48126 162.31294 542.04376 162.1567Q542.46564 162.04732 543.29376 161.95357Q544.9969 161.75044 545.8094 161.4692Q545.8094 161.17232 545.8094 161.0942Q545.8094 160.23482 545.41876 159.89107Q544.8719 159.4067 543.8094 159.4067Q542.825 159.4067 542.34064 159.76607Q541.8719 160.10982 541.65314 160.98482L540.27814 160.79732Q540.46564 159.92232 540.8875 159.37544Q541.325 158.82857 542.1375 158.54732Q542.95 158.25044 544.0125 158.25044Q545.075 158.25044 545.73126 158.50044Q546.40314 158.75044 546.71564 159.12544Q547.02814 159.50044 547.15314 160.07857Q547.23126 160.43794 547.23126 161.37544L547.23126 163.25044Q547.23126 165.2192 547.3094 165.73482Q547.40314 166.25044 547.66876 166.73482L546.2 166.73482Q545.98126 166.29732 545.91876 165.70357ZM545.8094 162.56294Q545.04376 162.87544 543.5125 163.0942Q542.6375 163.2192 542.27814 163.37544Q541.91876 163.5317 541.71564 163.8442Q541.52814 164.14107 541.52814 164.50044Q541.52814 165.06294 541.95 165.43794Q542.3875 165.81294 543.2 165.81294Q544.0125 165.81294 544.6375 165.4692Q545.27814 165.10982 545.575 164.48482Q545.8094 164.01607 545.8094 163.07857L545.8094 162.56294ZM554.91876 163.68794L556.3094 163.87544Q556.075 165.29732 555.1375 166.10982Q554.21564 166.92232 552.85626 166.92232Q551.15314 166.92232 550.10626 165.81294Q549.075 164.68794 549.075 162.60982Q549.075 161.26607 549.5125 160.26607Q549.96564 159.25044 550.8719 158.75044Q551.79376 158.25044 552.85626 158.25044Q554.21564 158.25044 555.075 158.93794Q555.9344 159.60982 556.16876 160.87544L554.8094 161.07857Q554.60626 160.25044 554.10626 159.82857Q553.6219 159.4067 552.91876 159.4067Q551.85626 159.4067 551.1844 160.17232Q550.52814 160.92232 550.52814 162.57857Q550.52814 164.25044 551.16876 165.01607Q551.8094 165.76607 552.84064 165.76607Q553.66876 165.76607 554.21564 165.26607Q554.77814 164.75044 554.91876 163.68794ZM560.575 165.4692L560.77814 166.7192Q560.1844 166.8442 559.71564 166.8442Q558.95 166.8442 558.52814 166.60982Q558.10626 166.35982 557.9344 165.9692Q557.7625 165.56294 557.7625 164.29732L557.7625 159.5317L556.73126 159.5317L556.73126 158.43794L557.7625 158.43794L557.7625 156.37544L559.16876 155.5317L559.16876 158.43794L560.575 158.43794L560.575 159.5317L559.16876 159.5317L559.16876 164.37544Q559.16876 164.98482 559.23126 165.1567Q559.3094 165.32857 559.48126 165.43794Q559.65314 165.5317 559.96564 165.5317Q560.2 165.5317 560.575 165.4692ZM560.98126 162.57857Q560.98126 160.2817 562.2625 159.17232Q563.34064 158.25044 564.8719 158.25044Q566.59064 158.25044 567.66876 159.37544Q568.7625 160.48482 568.7625 162.4692Q568.7625 164.06294 568.27814 164.98482Q567.79376 165.9067 566.8719 166.42232Q565.96564 166.92232 564.8719 166.92232Q563.1375 166.92232 562.0594 165.81294Q560.98126 164.68794 560.98126 162.57857ZM562.4344 162.57857Q562.4344 164.17232 563.1219 164.9692Q563.825 165.76607 564.8719 165.76607Q565.91876 165.76607 566.60626 164.9692Q567.3094 164.17232 567.3094 162.5317Q567.3094 161.00044 566.60626 160.20357Q565.91876 159.4067 564.8719 159.4067Q563.825 159.4067 563.1219 160.20357Q562.4344 160.98482 562.4344 162.57857ZM570.4969 166.73482L570.4969 158.43794L571.7625 158.43794L571.7625 159.68794Q572.2469 158.81294 572.65314 158.5317Q573.0594 158.25044 573.5594 158.25044Q574.2625 158.25044 574.9969 158.70357L574.5125 160.00044Q573.9969 159.70357 573.48126 159.70357Q573.02814 159.70357 572.65314 159.98482Q572.29376 160.25044 572.1375 160.75044Q571.90314 161.50044 571.90314 162.39107L571.90314 166.73482L570.4969 166.73482ZM575.45 169.93794L575.29376 168.60982Q575.7469 168.73482 576.09064 168.73482Q576.5594 168.73482 576.84064 168.57857Q577.1219 168.42232 577.3094 168.14107Q577.4344 167.93794 577.73126 167.0942Q577.77814 166.98482 577.85626 166.75044L574.71564 158.43794L576.23126 158.43794L577.95 163.23482Q578.29376 164.1567 578.5594 165.1567Q578.79376 164.18794 579.1375 163.26607L580.90314 158.43794L582.3094 158.43794L579.15314 166.87544Q578.65314 168.25044 578.3719 168.76607Q577.9969 169.45357 577.5125 169.7817Q577.02814 170.10982 576.35626 170.10982Q575.95 170.10982 575.45 169.93794Z" fill-rule="nonzero"/><path fill="#9e9e9e" d="M541.6219 188.73482L541.6219 185.98482L536.65314 185.98482L536.65314 184.70357L541.8875 177.2817L543.02814 177.2817L543.02814 184.70357L544.575 184.70357L544.575 185.98482L543.02814 185.98482L543.02814 188.73482L541.6219 188.73482ZM541.6219 184.70357L541.6219 179.5317L538.04376 184.70357L541.6219 184.70357ZM553.5125 187.37544L553.5125 188.73482L545.9344 188.73482Q545.91876 188.2192 546.10626 187.75044Q546.3875 186.98482 547.02814 186.23482Q547.66876 185.48482 548.8719 184.50044Q550.73126 182.9692 551.3875 182.07857Q552.04376 181.17232 552.04376 180.37544Q552.04376 179.54732 551.45 178.9692Q550.85626 178.39107 549.8875 178.39107Q548.8719 178.39107 548.2625 179.00044Q547.65314 179.60982 547.65314 180.68794L546.2 180.54732Q546.35626 178.92232 547.325 178.07857Q548.29376 177.23482 549.91876 177.23482Q551.575 177.23482 552.52814 178.1567Q553.4969 179.06294 553.4969 180.4067Q553.4969 181.0942 553.21564 181.76607Q552.9344 182.42232 552.27814 183.1567Q551.6219 183.89107 550.10626 185.17232Q548.84064 186.23482 548.48126 186.62544Q548.1219 187.00044 547.8875 187.37544L553.5125 187.37544ZM555.90314 188.73482L555.90314 187.12544L557.5125 187.12544L557.5125 188.73482L555.90314 188.73482ZM559.325 186.07857L560.6844 185.95357Q560.85626 186.9067 561.34064 187.3442Q561.825 187.76607 562.575 187.76607Q563.23126 187.76607 563.71564 187.4692Q564.2 187.17232 564.5125 186.68794Q564.825 186.18794 565.02814 185.3442Q565.2469 184.50044 565.2469 183.62544Q565.2469 183.5317 565.2469 183.3442Q564.825 184.01607 564.09064 184.43794Q563.35626 184.8442 562.5125 184.8442Q561.09064 184.8442 560.10626 183.81294Q559.1219 182.7817 559.1219 181.0942Q559.1219 179.35982 560.1375 178.29732Q561.16876 177.23482 562.71564 177.23482Q563.84064 177.23482 564.7625 177.8442Q565.6844 178.43794 566.16876 179.54732Q566.65314 180.6567 566.65314 182.76607Q566.65314 184.9692 566.16876 186.26607Q565.7 187.56294 564.7469 188.25044Q563.8094 188.93794 562.54376 188.93794Q561.2 188.93794 560.34064 188.18794Q559.4969 187.43794 559.325 186.07857ZM565.09064 181.0317Q565.09064 179.81294 564.4344 179.10982Q563.79376 178.39107 562.8875 178.39107Q561.95 178.39107 561.2469 179.1567Q560.5594 179.92232 560.5594 181.14107Q560.5594 182.23482 561.21564 182.92232Q561.8875 183.60982 562.85626 183.60982Q563.825 183.60982 564.45 182.92232Q565.09064 182.23482 565.09064 181.0317ZM568.3875 180.0317Q568.3875 178.79732 568.9969 177.93794Q569.6219 177.07857 570.79376 177.07857Q571.8719 177.07857 572.575 177.85982Q573.27814 178.62544 573.27814 180.10982Q573.27814 181.56294 572.5594 182.35982Q571.85626 183.14107 570.8094 183.14107Q569.7625 183.14107 569.075 182.37544Q568.3875 181.5942 568.3875 180.0317ZM570.825 178.04732Q570.3094 178.04732 569.95 178.50044Q569.60626 178.95357 569.60626 180.17232Q569.60626 181.26607 569.95 181.7192Q570.3094 182.17232 570.825 182.17232Q571.35626 182.17232 571.7 181.7192Q572.0594 181.26607 572.0594 180.06294Q572.0594 178.95357 571.7 178.50044Q571.35626 178.04732 570.825 178.04732ZM570.84064 189.1567L577.10626 177.07857L578.2469 177.07857L571.9969 189.1567L570.84064 189.1567ZM575.79376 186.04732Q575.79376 184.81294 576.40314 183.95357Q577.02814 183.0942 578.2 183.0942Q579.27814 183.0942 579.98126 183.87544Q580.7 184.64107 580.7 186.12544Q580.7 187.57857 579.98126 188.37544Q579.2625 189.1567 578.21564 189.1567Q577.16876 189.1567 576.48126 188.37544Q575.79376 187.5942 575.79376 186.04732ZM578.2469 184.06294Q577.71564 184.06294 577.35626 184.51607Q577.0125 184.9692 577.0125 186.18794Q577.0125 187.2817 577.35626 187.73482Q577.71564 188.18794 578.23126 188.18794Q578.77814 188.18794 579.1219 187.73482Q579.46564 187.2817 579.46564 186.07857Q579.46564 184.9692 579.10626 184.51607Q578.7625 184.06294 578.2469 184.06294Z" fill-rule="nonzero"/><path stroke="#757575" stroke-width="1.0" stroke-linecap="butt" d="M581.45 172.23482L454.76666 172.23482L437.78494 172.23482" fill-rule="nonzero"/><path fill="#9e9e9e" d="M439.78494 172.23482C439.78494 171.13025 438.8895 170.23482 437.78494 170.23482C436.68036 170.23482 435.78494 171.13025 435.78494 172.23482C435.78494 173.33939 436.68036 174.23482 437.78494 174.23482C438.8895 174.23482 439.78494 173.33939 439.78494 172.23482" fill-rule="nonzero"/><path fill="#000000" d="M22.596874 37.55L18.8 23.2375L20.7375 23.2375L22.909374 32.6125Q23.26875 34.096874 23.51875 35.55Q24.065624 33.253124 24.159374 32.89375L26.89375 23.2375L29.175 23.2375L31.221874 30.471874Q32.003124 33.175 32.346874 35.55Q32.6125 34.190624 33.05 32.425L35.3 23.2375L37.20625 23.2375L33.284374 37.55L31.45625 37.55L28.440624 26.64375Q28.05 25.26875 27.9875 24.95625Q27.753124 25.940624 27.565624 26.64375L24.534374 37.55L22.596874 37.55ZM38.878124 25.253124L38.878124 23.2375L40.64375 23.2375L40.64375 25.253124L38.878124 25.253124ZM38.878124 37.55L38.878124 27.175L40.64375 27.175L40.64375 37.55L38.878124 37.55ZM42.8625 37.55L42.8625 27.175L44.45625 27.175L44.45625 28.659374Q45.596874 26.940624 47.753124 26.940624Q48.690624 26.940624 49.471874 27.284374Q50.26875 27.6125 50.659374 28.159374Q51.05 28.70625 51.20625 29.45625Q51.3 29.95625 51.3 31.175L51.3 37.55L49.534374 37.55L49.534374 31.2375Q49.534374 30.159374 49.33125 29.628124Q49.128124 29.096874 48.596874 28.784374Q48.08125 28.471874 47.378124 28.471874Q46.253124 28.471874 45.440624 29.190624Q44.628124 29.89375 44.628124 31.878124L44.628124 37.55L42.8625 37.55ZM52.55 38.409374L54.253124 38.659374Q54.3625 39.45625 54.846874 39.815624Q55.503124 40.3 56.64375 40.3Q57.8625 40.3 58.51875 39.815624Q59.190624 39.33125 59.425 38.45625Q59.565624 37.909374 59.55 36.190624Q58.39375 37.55 56.675 37.55Q54.534374 37.55 53.3625 36.003124Q52.190624 34.45625 52.190624 32.3Q52.190624 30.815624 52.721874 29.565624Q53.26875 28.315624 54.284374 27.628124Q55.315624 26.940624 56.690624 26.940624Q58.51875 26.940624 59.721874 28.425L59.721874 27.175L61.33125 27.175L61.33125 36.14375Q61.33125 38.565624 60.83125 39.565624Q60.346874 40.58125 59.26875 41.159374Q58.20625 41.753124 56.64375 41.753124Q54.8 41.753124 53.64375 40.925Q52.503124 40.096874 52.55 38.409374ZM54.003124 32.175Q54.003124 34.221874 54.815624 35.159374Q55.628124 36.096874 56.846874 36.096874Q58.05 36.096874 58.8625 35.159374Q59.690624 34.221874 59.690624 32.2375Q59.690624 30.33125 58.846874 29.3625Q58.003124 28.39375 56.815624 28.39375Q55.64375 28.39375 54.815624 29.346874Q54.003124 30.3 54.003124 32.175ZM63.159374 34.45625L64.90938 34.175Q65.05 35.221874 65.72188 35.784374Q66.39375 36.33125 67.59688 36.33125Q68.8 36.33125 69.37813 35.846874Q69.97188 35.346874 69.97188 34.690624Q69.97188 34.096874 69.45625 33.753124Q69.09688 33.51875 67.65938 33.159374Q65.72188 32.659374 64.97188 32.315624Q64.2375 31.95625 63.846874 31.33125Q63.45625 30.690624 63.45625 29.925Q63.45625 29.2375 63.76875 28.64375Q64.09688 28.05 64.64375 27.659374Q65.05 27.3625 65.75313 27.159374Q66.47188 26.940624 67.28438 26.940624Q68.50313 26.940624 69.425 27.3Q70.34688 27.64375 70.78438 28.253124Q71.22188 28.846874 71.39375 29.846874L69.675 30.08125Q69.55 29.284374 68.9875 28.846874Q68.425 28.39375 67.40938 28.39375Q66.19063 28.39375 65.675 28.8Q65.15938 29.190624 65.15938 29.721874Q65.15938 30.065624 65.37813 30.346874Q65.58125 30.628124 66.05 30.815624Q66.31563 30.909374 67.59688 31.253124Q69.47188 31.753124 70.20625 32.08125Q70.94063 32.39375 71.3625 33.003124Q71.78438 33.596874 71.78438 34.503124Q71.78438 35.378124 71.26875 36.159374Q70.75313 36.940624 69.78438 37.3625Q68.81563 37.784374 67.59688 37.784374Q65.58125 37.784374 64.51875 36.940624Q63.45625 36.096874 63.159374 34.45625ZM80.09688 37.55L80.09688 23.2375L85.4875 23.2375Q86.925 23.2375 87.675 23.3625Q88.72188 23.55 89.44063 24.05Q90.15938 24.534374 90.58125 25.425Q91.01875 26.315624 91.01875 27.378124Q91.01875 29.20625 89.84688 30.471874Q88.69063 31.721874 85.65938 31.721874L81.9875 31.721874L81.9875 37.55L80.09688 37.55ZM81.9875 30.034374L85.69063 30.034374Q87.51875 30.034374 88.28438 29.3625Q89.06563 28.675 89.06563 27.425Q89.06563 26.534374 88.6125 25.89375Q88.15938 25.253124 87.425 25.05Q86.94063 24.925 85.64375 24.925L81.9875 24.925L81.9875 30.034374ZM99.97188 34.20625L101.78438 34.440624Q101.3625 36.01875 100.19063 36.909374Q99.03438 37.784374 97.22188 37.784374Q94.95625 37.784374 93.6125 36.39375Q92.28438 34.9875 92.28438 32.45625Q92.28438 29.83125 93.62813 28.39375Q94.97188 26.940624 97.12813 26.940624Q99.20625 26.940624 100.51875 28.3625Q101.84688 29.76875 101.84688 32.346874Q101.84688 32.503124 101.83125 32.815624L94.09688 32.815624Q94.19063 34.51875 95.06563 35.425Q95.94063 36.33125 97.2375 36.33125Q98.20625 36.33125 98.87813 35.83125Q99.56563 35.315624 99.97188 34.20625ZM94.19063 31.3625L99.9875 31.3625Q99.87813 30.065624 99.33125 29.409374Q98.4875 28.39375 97.14375 28.39375Q95.94063 28.39375 95.1125 29.20625Q94.28438 30.003124 94.19063 31.3625ZM103.84688 37.55L103.84688 27.175L105.425 27.175L105.425 28.753124Q106.03438 27.64375 106.55 27.3Q107.06563 26.940624 107.675 26.940624Q108.56563 26.940624 109.4875 27.503124L108.87813 29.14375Q108.2375 28.753124 107.59688 28.753124Q107.01875 28.753124 106.55 29.1125Q106.09688 29.45625 105.89375 30.065624Q105.6125 31.003124 105.6125 32.1125L105.6125 37.55L103.84688 37.55ZM111.28438 37.55L111.28438 28.55L109.7375 28.55L109.7375 27.175L111.28438 27.175L111.28438 26.08125Q111.28438 25.034374 111.47188 24.51875Q111.72188 23.83125 112.3625 23.409374Q113.00313 22.9875 114.15938 22.9875Q114.90938 22.9875 115.8 23.159374L115.53438 24.690624Q114.9875 24.596874 114.50313 24.596874Q113.70625 24.596874 113.3625 24.940624Q113.03438 25.284374 113.03438 26.221874L113.03438 27.175L115.06563 27.175L115.06563 28.55L113.03438 28.55L113.03438 37.55L111.28438 37.55ZM116.22188 32.3625Q116.22188 29.4875 117.81563 28.096874Q119.15938 26.940624 121.08125 26.940624Q123.22188 26.940624 124.56563 28.346874Q125.925 29.753124 125.925 32.221874Q125.925 34.221874 125.33125 35.378124Q124.7375 36.51875 123.58125 37.159374Q122.44063 37.784374 121.08125 37.784374Q118.89375 37.784374 117.55 36.39375Q116.22188 34.9875 116.22188 32.3625ZM118.01875 32.3625Q118.01875 34.3625 118.87813 35.346874Q119.75313 36.33125 121.08125 36.33125Q122.39375 36.33125 123.25313 35.346874Q124.12813 34.346874 124.12813 32.3Q124.12813 30.378124 123.25313 29.39375Q122.37813 28.39375 121.08125 28.39375Q119.75313 28.39375 118.87813 29.39375Q118.01875 30.378124 118.01875 32.3625ZM127.84688 37.55L127.84688 27.175L129.425 27.175L129.425 28.753124Q130.03438 27.64375 130.55 27.3Q131.06563 26.940624 131.675 26.940624Q132.56563 26.940624 133.4875 27.503124L132.87813 29.14375Q132.2375 28.753124 131.59688 28.753124Q131.01875 28.753124 130.55 29.1125Q130.09688 29.45625 129.89375 30.065624Q129.6125 31.003124 129.6125 32.1125L129.6125 37.55L127.84688 37.55ZM134.8625 37.55L134.8625 27.175L136.44063 27.175L136.44063 28.628124Q136.925 27.878124 137.7375 27.409374Q138.55 26.940624 139.58125 26.940624Q140.7375 26.940624 141.47188 27.425Q142.20625 27.89375 142.51875 28.753124Q143.75313 26.940624 145.72188 26.940624Q147.26875 26.940624 148.09688 27.8Q148.925 28.659374 148.925 30.425L148.925 37.55L147.175 37.55L147.175 31.01875Q147.175 29.95625 147.00313 29.503124Q146.83125 29.034374 146.37813 28.753124Q145.94063 28.471874 145.33125 28.471874Q144.2375 28.471874 143.50313 29.20625Q142.78438 29.925 142.78438 31.51875L142.78438 37.55L141.03438 37.55L141.03438 30.815624Q141.03438 29.64375 140.59688 29.065624Q140.175 28.471874 139.19063 28.471874Q138.45625 28.471874 137.81563 28.8625Q137.19063 29.253124 136.90938 30.003124Q136.62813 30.753124 136.62813 32.175L136.62813 37.55L134.8625 37.55ZM157.64375 36.26875Q156.65938 37.096874 155.75313 37.440624Q154.84688 37.784374 153.81563 37.784374Q152.1125 37.784374 151.19063 36.95625Q150.26875 36.1125 150.26875 34.815624Q150.26875 34.05 150.6125 33.425Q150.97188 32.8 151.53438 32.425Q152.09688 32.034374 152.8 31.83125Q153.31563 31.70625 154.3625 31.565624Q156.4875 31.315624 157.4875 30.971874Q157.50313 30.6125 157.50313 30.503124Q157.50313 29.440624 157.00313 28.9875Q156.33125 28.39375 155.00313 28.39375Q153.75313 28.39375 153.15938 28.83125Q152.58125 29.26875 152.3 30.378124L150.58125 30.14375Q150.81563 29.034374 151.34688 28.3625Q151.87813 27.675 152.89375 27.315624Q153.90938 26.940624 155.25313 26.940624Q156.58125 26.940624 157.40938 27.253124Q158.2375 27.565624 158.62813 28.05Q159.01875 28.51875 159.175 29.2375Q159.26875 29.690624 159.26875 30.8625L159.26875 33.20625Q159.26875 35.659374 159.37813 36.315624Q159.4875 36.95625 159.83125 37.55L157.9875 37.55Q157.72188 37.003124 157.64375 36.26875ZM157.4875 32.346874Q156.53438 32.7375 154.6125 33.003124Q153.53438 33.159374 153.08125 33.3625Q152.64375 33.55 152.39375 33.925Q152.14375 34.3 152.14375 34.76875Q152.14375 35.471874 152.675 35.940624Q153.20625 36.409374 154.2375 36.409374Q155.25313 36.409374 156.03438 35.971874Q156.83125 35.51875 157.20625 34.753124Q157.4875 34.14375 157.4875 32.9875L157.4875 32.346874ZM161.8625 37.55L161.8625 27.175L163.45625 27.175L163.45625 28.659374Q164.59688 26.940624 166.75313 26.940624Q167.69063 26.940624 168.47188 27.284374Q169.26875 27.6125 169.65938 28.159374Q170.05 28.70625 170.20625 29.45625Q170.3 29.95625 170.3 31.175L170.3 37.55L168.53438 37.55L168.53438 31.2375Q168.53438 30.159374 168.33125 29.628124Q168.12813 29.096874 167.59688 28.784374Q167.08125 28.471874 166.37813 28.471874Q165.25313 28.471874 164.44063 29.190624Q163.62813 29.89375 163.62813 31.878124L163.62813 37.55L161.8625 37.55ZM178.64375 33.753124L180.3625 33.971874Q180.08125 35.76875 178.90938 36.784374Q177.75313 37.784374 176.05 37.784374Q173.925 37.784374 172.62813 36.39375Q171.33125 35.003124 171.33125 32.409374Q171.33125 30.721874 171.87813 29.471874Q172.44063 28.20625 173.58125 27.58125Q174.72188 26.940624 176.06563 26.940624Q177.75313 26.940624 178.81563 27.8Q179.89375 28.659374 180.20625 30.221874L178.4875 30.4875Q178.25313 29.440624 177.62813 28.925Q177.00313 28.39375 176.12813 28.39375Q174.8 28.39375 173.97188 29.346874Q173.14375 30.3 173.14375 32.346874Q173.14375 34.440624 173.94063 35.39375Q174.7375 36.33125 176.03438 36.33125Q177.06563 36.33125 177.75313 35.70625Q178.45625 35.065624 178.64375 33.753124ZM188.97188 34.20625L190.78438 34.440624Q190.3625 36.01875 189.19063 36.909374Q188.03438 37.784374 186.22188 37.784374Q183.95625 37.784374 182.6125 36.39375Q181.28438 34.9875 181.28438 32.45625Q181.28438 29.83125 182.62813 28.39375Q183.97188 26.940624 186.12813 26.940624Q188.20625 26.940624 189.51875 28.3625Q190.84688 29.76875 190.84688 32.346874Q190.84688 32.503124 190.83125 32.815624L183.09688 32.815624Q183.19063 34.51875 184.06563 35.425Q184.94063 36.33125 186.2375 36.33125Q187.20625 36.33125 187.87813 35.83125Q188.56563 35.315624 188.97188 34.20625ZM183.19063 31.3625L188.9875 31.3625Q188.87813 30.065624 188.33125 29.409374Q187.4875 28.39375 186.14375 28.39375Q184.94063 28.39375 184.1125 29.20625Q183.28438 30.003124 183.19063 31.3625Z" fill-rule="nonzero"/></svg>