<?xml version="1.0" encoding="utf-8"?><!-- Uploaded to: SVG Repo, www.svgrepo.com, Generator: SVG Repo Mixer Tools -->
<svg width="800px" height="800px" viewBox="0 0 24 24" fill="none" xmlns="http://www.w3.org/2000/svg">
<path d="M11.9995 12.8001C12.9995 11.8001 13.9995 11.4047 13.9995 10.3001C13.9995 9.19552 13.104 8.30009 11.9995 8.30009C11.0675 8.30009 10.2845 8.93748 10.0625 9.80009M12 15.8001H12.01M19.4686 14.5315L20.8686 13.1315C21.2646 12.7354 21.4626 12.5374 21.5368 12.3091C21.6021 12.1083 21.6021 11.8919 21.5368 11.6911C21.4626 11.4627 21.2646 11.2647 20.8686 10.8687L19.4686 9.46872C19.2956 9.29577 19.2092 9.20929 19.1473 9.10838C19.0925 9.01891 19.0521 8.92136 19.0276 8.81932C19 8.70424 19 8.58194 19 8.33735V6.60009C19 6.04004 19 5.76001 18.891 5.5461C18.7951 5.35794 18.6421 5.20496 18.454 5.10909C18.2401 5.00009 17.96 5.00009 17.4 5.00009H15.6627C15.4181 5.00009 15.2958 5.00009 15.1807 4.97246C15.0787 4.94797 14.9812 4.90756 14.8917 4.85273C14.7908 4.79089 14.7043 4.70442 14.5313 4.53146L13.1313 3.13146C12.7353 2.73545 12.5373 2.53744 12.309 2.46325C12.1081 2.39799 11.8918 2.39799 11.691 2.46325C11.4626 2.53744 11.2646 2.73545 10.8686 3.13146L9.4686 4.53146C9.29565 4.70442 9.20917 4.79089 9.10826 4.85273C9.01878 4.90756 8.92124 4.94797 8.8192 4.97246C8.70412 5.00009 8.58182 5.00009 8.33723 5.00009H6.59997C6.03992 5.00009 5.75989 5.00009 5.54598 5.10909C5.35782 5.20496 5.20484 5.35794 5.10896 5.5461C4.99997 5.76001 4.99997 6.04004 4.99997 6.60009V8.33735C4.99997 8.58194 4.99997 8.70424 4.97234 8.81932C4.94784 8.92136 4.90744 9.01891 4.85261 9.10838C4.79077 9.20929 4.70429 9.29577 4.53134 9.46872L3.13134 10.8687C2.73532 11.2647 2.53732 11.4627 2.46313 11.6911C2.39787 11.8919 2.39787 12.1083 2.46313 12.3091C2.53732 12.5374 2.73533 12.7354 3.13134 13.1315L4.53134 14.5315C4.70429 14.7044 4.79077 14.7909 4.85261 14.8918C4.90744 14.9813 4.94784 15.0788 4.97234 15.1809C4.99997 15.2959 4.99997 15.4182 4.99997 15.6628V17.4001C4.99997 17.9601 4.99997 18.2402 5.10896 18.4541C5.20484 18.6422 5.35782 18.7952 5.54598 18.8911C5.75989 19.0001 6.03992 19.0001 6.59997 19.0001H8.33723C8.58182 19.0001 8.70412 19.0001 8.8192 19.0277C8.92124 19.0522 9.01878 19.0926 9.10826 19.1475C9.20917 19.2093 9.29565 19.2958 9.4686 19.4687L10.8686 20.8687C11.2646 21.2647 11.4626 21.4627 11.691 21.5369C11.8918 21.6022 12.1081 21.6022 12.309 21.5369C12.5373 21.4627 12.7353 21.2647 13.1313 20.8687L14.5313 19.4687C14.7043 19.2958 14.7908 19.2093 14.8917 19.1475C14.9812 19.0926 15.0787 19.0522 15.1807 19.0277C15.2958 19.0001 15.4181 19.0001 15.6627 19.0001H17.4C17.96 19.0001 18.2401 19.0001 18.454 18.8911C18.6421 18.7952 18.7951 18.6422 18.891 18.4541C19 18.2402 19 17.9601 19 17.4001V15.6628C19 15.4182 19 15.2959 19.0276 15.1809C19.0521 15.0788 19.0925 14.9813 19.1473 14.8918C19.2092 14.7909 19.2956 14.7044 19.4686 14.5315Z" stroke="#000000" stroke-width="2" stroke-linecap="round"/>
</svg>