<svg version="1.1" viewBox="0.0 0.0 600.0 371.0" fill="none" stroke="none" stroke-linecap="square" stroke-miterlimit="10" width="600" height="371" xmlns:xlink="http://www.w3.org/1999/xlink" xmlns="http://www.w3.org/2000/svg"><path fill="#ffffff" d="M0 0L600.0 0L600.0 371.0L0 371.0L0 0Z" fill-rule="nonzero"/><path fill="#34a853" d="M300.0 54.916668C353.1492 54.916668 402.2611 83.27143 428.83572 129.3C455.4103 175.32857 455.4103 232.0381 428.83572 278.06668L300.0 203.68333Z" fill-rule="nonzero"/><path fill="#fbbc04" d="M428.83572 278.06668C392.73795 340.5898 316.9604 368.1706 249.1188 343.47827C181.2772 318.78595 140.95682 248.94897 153.49344 177.85027C166.03006 106.751564 227.80449 54.916668 300.0 54.916668L300.0 203.68333Z" fill-rule="nonzero"/><path fill="#000000" d="M324.05014 162.59807Q324.05014 160.09807 325.3939 158.69182Q326.73764 157.26994 328.84702 157.26994Q330.23764 157.26994 331.34702 157.94182Q332.47202 158.59807 333.05014 159.78557Q333.6439 160.97307 333.6439 162.47307Q333.6439 164.00432 333.0189 165.20744Q332.40952 166.41057 331.28452 167.03557Q330.15952 167.64494 328.84702 167.64494Q327.42514 167.64494 326.31577 166.95744Q325.2064 166.26994 324.62827 165.09807Q324.05014 163.91057 324.05014 162.59807ZM325.42514 162.6137Q325.42514 164.4262 326.3939 165.47307Q327.37827 166.50432 328.84702 166.50432Q330.3314 166.50432 331.30014 165.45744Q332.2689 164.41057 332.2689 162.47307Q332.2689 161.2387 331.84702 160.33244Q331.44077 159.4262 330.6439 158.9262Q329.84702 158.41057 328.86264 158.41057Q327.4564 158.41057 326.44077 159.37932Q325.42514 160.34807 325.42514 162.6137ZM337.31577 167.47307L334.55014 160.20744L335.86264 160.20744L337.40952 164.56682Q337.65952 165.26994 337.87827 166.01994Q338.05014 165.44182 338.3314 164.64494L339.9564 160.20744L341.22202 160.20744L338.47202 167.47307L337.31577 167.47307ZM347.2689 165.12932L348.55014 165.28557Q348.23764 166.41057 347.42514 167.03557Q346.61264 167.64494 345.34702 167.64494Q343.75327 167.64494 342.81577 166.66057Q341.8939 165.6762 341.8939 163.91057Q341.8939 162.06682 342.8314 161.06682Q343.78452 160.0512 345.28452 160.0512Q346.73764 160.0512 347.65952 161.0512Q348.5814 162.03557 348.5814 163.83244Q348.5814 163.94182 348.5814 164.16057L343.15952 164.16057Q343.23764 165.34807 343.8314 165.9887Q344.44077 166.62932 345.36264 166.62932Q346.03452 166.62932 346.50327 166.26994Q346.98764 165.91057 347.2689 165.12932ZM343.23764 163.14494L347.28452 163.14494Q347.2064 162.22307 346.81577 161.76994Q346.23764 161.06682 345.30014 161.06682Q344.44077 161.06682 343.86264 161.62932Q343.30014 162.19182 343.23764 163.14494ZM350.28452 167.47307L350.28452 160.20744L351.3939 160.20744L351.3939 161.31682Q351.81577 160.53557 352.17514 160.3012Q352.53452 160.0512 352.97202 160.0512Q353.59702 160.0512 354.23764 160.44182L353.81577 161.58244Q353.36264 161.31682 352.90952 161.31682Q352.50327 161.31682 352.17514 161.56682Q351.86264 161.8012 351.72202 162.2387Q351.5189 162.89494 351.5189 163.6762L351.5189 167.47307L350.28452 167.47307ZM355.30014 170.25432L355.30014 160.20744L356.42514 160.20744L356.42514 161.16057Q356.81577 160.59807 357.31577 160.33244Q357.81577 160.0512 358.53452 160.0512Q359.4564 160.0512 360.15952 160.53557Q360.87827 161.00432 361.23764 161.87932Q361.59702 162.75432 361.59702 163.78557Q361.59702 164.89494 361.19077 165.8012Q360.80014 166.69182 360.03452 167.1762Q359.28452 167.64494 358.44077 167.64494Q357.8314 167.64494 357.3314 167.37932Q356.84702 167.1137 356.53452 166.72307L356.53452 170.25432L355.30014 170.25432ZM356.40952 163.87932Q356.40952 165.28557 356.97202 165.95744Q357.55014 166.62932 358.36264 166.62932Q359.17514 166.62932 359.75327 165.94182Q360.34702 165.2387 360.34702 163.78557Q360.34702 162.39494 359.7689 161.70744Q359.2064 161.01994 358.40952 161.01994Q357.62827 161.01994 357.0189 161.75432Q356.40952 162.4887 356.40952 163.87932ZM368.2689 165.12932L369.55014 165.28557Q369.23764 166.41057 368.42514 167.03557Q367.61264 167.64494 366.34702 167.64494Q364.75327 167.64494 363.81577 166.66057Q362.8939 165.6762 362.8939 163.91057Q362.8939 162.06682 363.8314 161.06682Q364.78452 160.0512 366.28452 160.0512Q367.73764 160.0512 368.65952 161.0512Q369.5814 162.03557 369.5814 163.83244Q369.5814 163.94182 369.5814 164.16057L364.15952 164.16057Q364.23764 165.34807 364.8314 165.9887Q365.44077 166.62932 366.36264 166.62932Q367.03452 166.62932 367.50327 166.26994Q367.98764 165.91057 368.2689 165.12932ZM364.23764 163.14494L368.28452 163.14494Q368.2064 162.22307 367.81577 161.76994Q367.23764 161.06682 366.30014 161.06682Q365.44077 161.06682 364.86264 161.62932Q364.30014 162.19182 364.23764 163.14494ZM371.28452 167.47307L371.28452 160.20744L372.3939 160.20744L372.3939 161.31682Q372.81577 160.53557 373.17514 160.3012Q373.53452 160.0512 373.97202 160.0512Q374.59702 160.0512 375.23764 160.44182L374.81577 161.58244Q374.36264 161.31682 373.90952 161.31682Q373.50327 161.31682 373.17514 161.56682Q372.86264 161.8012 372.72202 162.2387Q372.5189 162.89494 372.5189 163.6762L372.5189 167.47307L371.28452 167.47307ZM376.59702 167.47307L376.59702 161.1762L375.50327 161.1762L375.50327 160.20744L376.59702 160.20744L376.59702 159.44182Q376.59702 158.70744 376.72202 158.34807Q376.90952 157.87932 377.34702 157.58244Q377.80014 157.28557 378.61264 157.28557Q379.12827 157.28557 379.75327 157.41057L379.56577 158.47307Q379.19077 158.41057 378.84702 158.41057Q378.28452 158.41057 378.05014 158.64494Q377.81577 158.87932 377.81577 159.53557L377.81577 160.20744L379.23764 160.20744L379.23764 161.1762L377.81577 161.1762L377.81577 167.47307L376.59702 167.47307ZM379.84702 163.84807Q379.84702 161.83244 380.97202 160.84807Q381.8939 160.0512 383.25327 160.0512Q384.73764 160.0512 385.69077 161.03557Q386.6439 162.00432 386.6439 163.7387Q386.6439 165.14494 386.22202 165.95744Q385.80014 166.75432 384.98764 167.20744Q384.19077 167.64494 383.25327 167.64494Q381.72202 167.64494 380.78452 166.66057Q379.84702 165.6762 379.84702 163.84807ZM381.11264 163.84807Q381.11264 165.2387 381.72202 165.94182Q382.3314 166.62932 383.25327 166.62932Q384.15952 166.62932 384.7689 165.9262Q385.37827 165.22307 385.37827 163.8012Q385.37827 162.45744 384.7689 161.76994Q384.15952 161.06682 383.25327 161.06682Q382.3314 161.06682 381.72202 161.75432Q381.11264 162.44182 381.11264 163.84807ZM388.28452 167.47307L388.28452 160.20744L389.3939 160.20744L389.3939 161.31682Q389.81577 160.53557 390.17514 160.3012Q390.53452 160.0512 390.97202 160.0512Q391.59702 160.0512 392.23764 160.44182L391.81577 161.58244Q391.36264 161.31682 390.90952 161.31682Q390.50327 161.31682 390.17514 161.56682Q389.86264 161.8012 389.72202 162.2387Q389.5189 162.89494 389.5189 163.6762L389.5189 167.47307L388.28452 167.47307ZM393.30014 167.47307L393.30014 160.20744L394.40952 160.20744L394.40952 161.2387Q394.73764 160.69182 395.30014 160.37932Q395.87827 160.0512 396.59702 160.0512Q397.40952 160.0512 397.92514 160.39494Q398.44077 160.72307 398.65952 161.31682Q399.5189 160.0512 400.8939 160.0512Q401.97202 160.0512 402.55014 160.64494Q403.1439 161.2387 403.1439 162.4887L403.1439 167.47307L401.90952 167.47307L401.90952 162.89494Q401.90952 162.16057 401.78452 161.83244Q401.67514 161.50432 401.36264 161.31682Q401.05014 161.1137 400.62827 161.1137Q399.86264 161.1137 399.34702 161.62932Q398.84702 162.12932 398.84702 163.25432L398.84702 167.47307L397.61264 167.47307L397.61264 162.75432Q397.61264 161.94182 397.31577 161.53557Q397.0189 161.1137 396.3314 161.1137Q395.81577 161.1137 395.36264 161.39494Q394.92514 161.66057 394.72202 162.19182Q394.53452 162.70744 394.53452 163.70744L394.53452 167.47307L393.30014 167.47307ZM409.2689 165.12932L410.55014 165.28557Q410.23764 166.41057 409.42514 167.03557Q408.61264 167.64494 407.34702 167.64494Q405.75327 167.64494 404.81577 166.66057Q403.8939 165.6762 403.8939 163.91057Q403.8939 162.06682 404.8314 161.06682Q405.78452 160.0512 407.28452 160.0512Q408.73764 160.0512 409.65952 161.0512Q410.5814 162.03557 410.5814 163.83244Q410.5814 163.94182 410.5814 164.16057L405.15952 164.16057Q405.23764 165.34807 405.8314 165.9887Q406.44077 166.62932 407.36264 166.62932Q408.03452 166.62932 408.50327 166.26994Q408.98764 165.91057 409.2689 165.12932ZM405.23764 163.14494L409.28452 163.14494Q409.2064 162.22307 408.81577 161.76994Q408.23764 161.06682 407.30014 161.06682Q406.44077 161.06682 405.86264 161.62932Q405.30014 162.19182 405.23764 163.14494ZM417.0189 167.47307L417.0189 166.5512Q416.31577 167.64494 414.98764 167.64494Q414.11264 167.64494 413.37827 167.16057Q412.65952 166.6762 412.25327 165.81682Q411.86264 164.95744 411.86264 163.84807Q411.86264 162.76994 412.22202 161.87932Q412.5814 160.9887 413.30014 160.51994Q414.03452 160.0512 414.92514 160.0512Q415.5814 160.0512 416.09702 160.33244Q416.61264 160.59807 416.92514 161.0512L416.92514 157.45744L418.15952 157.45744L418.15952 167.47307L417.0189 167.47307ZM413.12827 163.84807Q413.12827 165.2387 413.7064 165.94182Q414.30014 166.62932 415.09702 166.62932Q415.90952 166.62932 416.47202 165.97307Q417.03452 165.3012 417.03452 163.95744Q417.03452 162.45744 416.4564 161.76994Q415.87827 161.06682 415.05014 161.06682Q414.22202 161.06682 413.67514 161.7387Q413.12827 162.41057 413.12827 163.84807Z" fill-rule="nonzero"/><path fill="#000000" d="M183.71198 251.60239L184.96198 251.49301Q185.05573 252.24301 185.38385 252.72739Q185.71198 253.21176 186.38385 253.50864Q187.07135 253.80551 187.93073 253.80551Q188.68073 253.80551 189.25885 253.58676Q189.8526 253.35239 190.13385 252.96176Q190.4151 252.57114 190.4151 252.10239Q190.4151 251.63364 190.13385 251.28989Q189.86823 250.93051 189.24323 250.68051Q188.83698 250.52426 187.44635 250.19614Q186.07135 249.86801 185.52448 249.57114Q184.80573 249.19614 184.44635 248.64926Q184.1026 248.08676 184.1026 247.38364Q184.1026 246.63364 184.52448 245.97739Q184.96198 245.30551 185.7901 244.97739Q186.61823 244.63364 187.63385 244.63364Q188.74323 244.63364 189.58698 244.99301Q190.44635 245.35239 190.89948 246.05551Q191.3526 246.74301 191.39948 247.61801L190.11823 247.71176Q190.02448 246.77426 189.43073 246.28989Q188.83698 245.78989 187.68073 245.78989Q186.4776 245.78989 185.93073 246.24301Q185.38385 246.68051 185.38385 247.30551Q185.38385 247.83676 185.77448 248.19614Q186.14948 248.53989 187.75885 248.91489Q189.38385 249.27426 189.9776 249.53989Q190.8526 249.94614 191.27448 250.57114Q191.69635 251.18051 191.69635 251.99301Q191.69635 252.78989 191.2276 253.50864Q190.77448 254.21176 189.9151 254.60239Q189.05573 254.99301 187.99323 254.99301Q186.63385 254.99301 185.71198 254.60239Q184.7901 254.19614 184.25885 253.39926Q183.74323 252.60239 183.71198 251.60239ZM197.74323 253.93051Q197.07135 254.50864 196.43073 254.75864Q195.80573 254.99301 195.07135 254.99301Q193.88385 254.99301 193.2276 254.41489Q192.58698 253.82114 192.58698 252.89926Q192.58698 252.36801 192.82135 251.93051Q193.07135 251.49301 193.46198 251.22739Q193.86823 250.96176 194.3526 250.82114Q194.71198 250.72739 195.44635 250.63364Q196.94635 250.46176 197.64948 250.21176Q197.64948 249.96176 197.64948 249.89926Q197.64948 249.13364 197.30573 248.83676Q196.83698 248.41489 195.89948 248.41489Q195.0401 248.41489 194.61823 248.72739Q194.21198 249.02426 194.00885 249.78989L192.80573 249.63364Q192.96198 248.85239 193.33698 248.38364Q193.7276 247.91489 194.43073 247.66489Q195.14948 247.39926 196.08698 247.39926Q197.00885 247.39926 197.58698 247.61801Q198.1651 247.83676 198.43073 248.16489Q198.71198 248.49301 198.82135 249.00864Q198.88385 249.32114 198.88385 250.13364L198.88385 251.77426Q198.88385 253.49301 198.96198 253.94614Q199.0401 254.39926 199.27448 254.82114L197.99323 254.82114Q197.80573 254.43051 197.74323 253.93051ZM197.64948 251.18051Q196.9776 251.44614 195.63385 251.64926Q194.88385 251.75864 194.55573 251.89926Q194.24323 252.02426 194.07135 252.28989Q193.89948 252.55551 193.89948 252.86801Q193.89948 253.36801 194.27448 253.69614Q194.64948 254.02426 195.36823 254.02426Q196.08698 254.02426 196.63385 253.71176Q197.18073 253.39926 197.44635 252.85239Q197.64948 252.44614 197.64948 251.63364L197.64948 251.18051ZM203.69635 253.72739L203.86823 254.80551Q203.3526 254.91489 202.94635 254.91489Q202.27448 254.91489 201.89948 254.71176Q201.5401 254.49301 201.38385 254.14926Q201.24323 253.80551 201.24323 252.69614L201.24323 248.52426L200.33698 248.52426L200.33698 247.55551L201.24323 247.55551L201.24323 245.75864L202.46198 245.02426L202.46198 247.55551L203.69635 247.55551L203.69635 248.52426L202.46198 248.52426L202.46198 252.75864Q202.46198 253.28989 202.52448 253.44614Q202.58698 253.58676 202.7276 253.68051Q202.88385 253.77426 203.14948 253.77426Q203.36823 253.77426 203.69635 253.72739ZM205.02448 246.21176L205.02448 244.80551L206.24323 244.80551L206.24323 246.21176L205.02448 246.21176ZM205.02448 254.82114L205.02448 247.55551L206.24323 247.55551L206.24323 254.82114L205.02448 254.82114ZM207.52448 252.64926L208.7276 252.46176Q208.83698 253.19614 209.30573 253.58676Q209.77448 253.97739 210.61823 253.97739Q211.46198 253.97739 211.86823 253.63364Q212.2901 253.28989 212.2901 252.82114Q212.2901 252.39926 211.9151 252.16489Q211.6651 251.99301 210.6651 251.74301Q209.30573 251.39926 208.77448 251.14926Q208.25885 250.89926 207.99323 250.46176Q207.7276 250.02426 207.7276 249.49301Q207.7276 249.00864 207.94635 248.60239Q208.1651 248.18051 208.55573 247.89926Q208.83698 247.69614 209.32135 247.55551Q209.82135 247.39926 210.39948 247.39926Q211.24323 247.39926 211.88385 247.64926Q212.5401 247.88364 212.8526 248.30551Q213.1651 248.72739 213.27448 249.43051L212.07135 249.60239Q211.99323 249.03989 211.58698 248.72739Q211.19635 248.41489 210.4776 248.41489Q209.63385 248.41489 209.27448 248.69614Q208.9151 248.96176 208.9151 249.35239Q208.9151 249.58676 209.05573 249.77426Q209.21198 249.97739 209.5401 250.10239Q209.71198 250.16489 210.61823 250.41489Q211.93073 250.77426 212.44635 250.99301Q212.96198 251.21176 213.24323 251.63364Q213.5401 252.05551 213.5401 252.68051Q213.5401 253.30551 213.18073 253.85239Q212.83698 254.38364 212.14948 254.69614Q211.4776 254.99301 210.61823 254.99301Q209.21198 254.99301 208.46198 254.39926Q207.7276 253.80551 207.52448 252.64926ZM215.30573 254.82114L215.30573 248.52426L214.21198 248.52426L214.21198 247.55551L215.30573 247.55551L215.30573 246.78989Q215.30573 246.05551 215.43073 245.69614Q215.61823 245.22739 216.05573 244.93051Q216.50885 244.63364 217.32135 244.63364Q217.83698 244.63364 218.46198 244.75864L218.27448 245.82114Q217.89948 245.75864 217.55573 245.75864Q216.99323 245.75864 216.75885 245.99301Q216.52448 246.22739 216.52448 246.88364L216.52448 247.55551L217.94635 247.55551L217.94635 248.52426L216.52448 248.52426L216.52448 254.82114L215.30573 254.82114ZM223.74323 253.93051Q223.07135 254.50864 222.43073 254.75864Q221.80573 254.99301 221.07135 254.99301Q219.88385 254.99301 219.2276 254.41489Q218.58698 253.82114 218.58698 252.89926Q218.58698 252.36801 218.82135 251.93051Q219.07135 251.49301 219.46198 251.22739Q219.86823 250.96176 220.3526 250.82114Q220.71198 250.72739 221.44635 250.63364Q222.94635 250.46176 223.64948 250.21176Q223.64948 249.96176 223.64948 249.89926Q223.64948 249.13364 223.30573 248.83676Q222.83698 248.41489 221.89948 248.41489Q221.0401 248.41489 220.61823 248.72739Q220.21198 249.02426 220.00885 249.78989L218.80573 249.63364Q218.96198 248.85239 219.33698 248.38364Q219.7276 247.91489 220.43073 247.66489Q221.14948 247.39926 222.08698 247.39926Q223.00885 247.39926 223.58698 247.61801Q224.1651 247.83676 224.43073 248.16489Q224.71198 248.49301 224.82135 249.00864Q224.88385 249.32114 224.88385 250.13364L224.88385 251.77426Q224.88385 253.49301 224.96198 253.94614Q225.0401 254.39926 225.27448 254.82114L223.99323 254.82114Q223.80573 254.43051 223.74323 253.93051ZM223.64948 251.18051Q222.9776 251.44614 221.63385 251.64926Q220.88385 251.75864 220.55573 251.89926Q220.24323 252.02426 220.07135 252.28989Q219.89948 252.55551 219.89948 252.86801Q219.89948 253.36801 220.27448 253.69614Q220.64948 254.02426 221.36823 254.02426Q222.08698 254.02426 222.63385 253.71176Q223.18073 253.39926 223.44635 252.85239Q223.64948 252.44614 223.64948 251.63364L223.64948 251.18051ZM231.74323 252.16489L232.96198 252.32114Q232.75885 253.57114 231.93073 254.28989Q231.11823 254.99301 229.93073 254.99301Q228.44635 254.99301 227.5401 254.02426Q226.63385 253.03989 226.63385 251.21176Q226.63385 250.03989 227.02448 249.16489Q227.4151 248.27426 228.21198 247.83676Q229.00885 247.39926 229.94635 247.39926Q231.11823 247.39926 231.86823 247.99301Q232.63385 248.58676 232.83698 249.69614L231.64948 249.88364Q231.4776 249.14926 231.0401 248.78989Q230.6026 248.41489 229.99323 248.41489Q229.05573 248.41489 228.4776 249.08676Q227.89948 249.74301 227.89948 251.18051Q227.89948 252.64926 228.46198 253.32114Q229.02448 253.97739 229.9151 253.97739Q230.64948 253.97739 231.13385 253.53989Q231.61823 253.08676 231.74323 252.16489ZM236.69635 253.72739L236.86823 254.80551Q236.3526 254.91489 235.94635 254.91489Q235.27448 254.91489 234.89948 254.71176Q234.5401 254.49301 234.38385 254.14926Q234.24323 253.80551 234.24323 252.69614L234.24323 248.52426L233.33698 248.52426L233.33698 247.55551L234.24323 247.55551L234.24323 245.75864L235.46198 245.02426L235.46198 247.55551L236.69635 247.55551L236.69635 248.52426L235.46198 248.52426L235.46198 252.75864Q235.46198 253.28989 235.52448 253.44614Q235.58698 253.58676 235.7276 253.68051Q235.88385 253.77426 236.14948 253.77426Q236.36823 253.77426 236.69635 253.72739ZM237.55573 251.19614Q237.55573 249.18051 238.68073 248.19614Q239.6026 247.39926 240.96198 247.39926Q242.44635 247.39926 243.39948 248.38364Q244.3526 249.35239 244.3526 251.08676Q244.3526 252.49301 243.93073 253.30551Q243.50885 254.10239 242.69635 254.55551Q241.89948 254.99301 240.96198 254.99301Q239.43073 254.99301 238.49323 254.00864Q237.55573 253.02426 237.55573 251.19614ZM238.82135 251.19614Q238.82135 252.58676 239.43073 253.28989Q240.0401 253.97739 240.96198 253.97739Q241.86823 253.97739 242.4776 253.27426Q243.08698 252.57114 243.08698 251.14926Q243.08698 249.80551 242.4776 249.11801Q241.86823 248.41489 240.96198 248.41489Q240.0401 248.41489 239.43073 249.10239Q238.82135 249.78989 238.82135 251.19614ZM245.99323 254.82114L245.99323 247.55551L247.1026 247.55551L247.1026 248.66489Q247.52448 247.88364 247.88385 247.64926Q248.24323 247.39926 248.68073 247.39926Q249.30573 247.39926 249.94635 247.78989L249.52448 248.93051Q249.07135 248.66489 248.61823 248.66489Q248.21198 248.66489 247.88385 248.91489Q247.57135 249.14926 247.43073 249.58676Q247.2276 250.24301 247.2276 251.02426L247.2276 254.82114L245.99323 254.82114ZM250.96198 257.618L250.82135 256.46176Q251.2276 256.57114 251.52448 256.57114Q251.93073 256.57114 252.18073 256.4305Q252.43073 256.3055 252.58698 256.0555Q252.69635 255.86801 252.96198 255.13364Q252.99323 255.03989 253.07135 254.83676L250.30573 247.55551L251.63385 247.55551L253.14948 251.75864Q253.44635 252.57114 253.68073 253.44614Q253.88385 252.60239 254.18073 251.78989L255.7276 247.55551L256.96198 247.55551L254.19635 254.94614Q253.75885 256.13364 253.50885 256.58676Q253.18073 257.19614 252.75885 257.4774Q252.33698 257.77426 251.74323 257.77426Q251.39948 257.77426 250.96198 257.618Z" fill-rule="nonzero"/><path fill="#1a1a1a" d="M19.26875 265.16L20.70625 265.035Q20.8 265.89438 21.175 266.45688Q21.55 267.00375 22.33125 267.3475Q23.1125 267.67563 24.08125 267.67563Q24.95625 267.67563 25.6125 267.42563Q26.284374 267.16 26.596874 266.7225Q26.925 266.26938 26.925 265.73813Q26.925 265.19125 26.6125 264.80063Q26.3 264.39438 25.58125 264.11313Q25.128124 263.94125 23.55 263.56625Q21.971874 263.17563 21.33125 262.8475Q20.51875 262.41 20.1125 261.785Q19.70625 261.14438 19.70625 260.3475Q19.70625 259.48813 20.190624 258.73813Q20.690624 257.9725 21.628124 257.58188Q22.58125 257.19125 23.7375 257.19125Q25.01875 257.19125 25.9875 257.61313Q26.95625 258.01938 27.471874 258.81625Q28.003124 259.61313 28.05 260.61313L26.596874 260.7225Q26.471874 259.64438 25.8 259.0975Q25.128124 258.535 23.8 258.535Q22.425 258.535 21.8 259.035Q21.175 259.535 21.175 260.25375Q21.175 260.86313 21.6125 261.26938Q22.05 261.66 23.89375 262.08188Q25.753124 262.50375 26.440624 262.81625Q27.440624 263.26938 27.909374 263.98813Q28.39375 264.69125 28.39375 265.61313Q28.39375 266.51938 27.8625 267.33188Q27.346874 268.14438 26.3625 268.5975Q25.378124 269.05063 24.159374 269.05063Q22.596874 269.05063 21.55 268.5975Q20.503124 268.12875 19.89375 267.2225Q19.3 266.31625 19.26875 265.16ZM36.01875 267.81625Q35.2375 268.48813 34.51875 268.76938Q33.8 269.035 32.971874 269.035Q31.596874 269.035 30.8625 268.36313Q30.128124 267.69125 30.128124 266.66Q30.128124 266.05063 30.409374 265.55063Q30.690624 265.035 31.128124 264.73813Q31.58125 264.42563 32.14375 264.26938Q32.565624 264.16 33.39375 264.06625Q35.096874 263.86313 35.909374 263.58188Q35.909374 263.285 35.909374 263.20688Q35.909374 262.3475 35.51875 262.00375Q34.971874 261.51938 33.909374 261.51938Q32.925 261.51938 32.440624 261.87875Q31.971874 262.2225 31.753124 263.0975L30.378124 262.91Q30.565624 262.035 30.9875 261.48813Q31.425 260.94125 32.2375 260.66Q33.05 260.36313 34.1125 260.36313Q35.175 260.36313 35.83125 260.61313Q36.503124 260.86313 36.815624 261.23813Q37.128124 261.61313 37.253124 262.19125Q37.33125 262.55063 37.33125 263.48813L37.33125 265.36313Q37.33125 267.33188 37.409374 267.8475Q37.503124 268.36313 37.76875 268.8475L36.3 268.8475Q36.08125 268.41 36.01875 267.81625ZM35.909374 264.67563Q35.14375 264.98813 33.6125 265.20688Q32.7375 265.33188 32.378124 265.48813Q32.01875 265.64438 31.815624 265.95688Q31.628124 266.25375 31.628124 266.61313Q31.628124 267.17563 32.05 267.55063Q32.4875 267.92563 33.3 267.92563Q34.1125 267.92563 34.7375 267.58188Q35.378124 267.2225 35.675 266.5975Q35.909374 266.12875 35.909374 265.19125L35.909374 264.67563ZM42.675 267.58188L42.878124 268.83188Q42.284374 268.95688 41.815624 268.95688Q41.05 268.95688 40.628124 268.7225Q40.20625 268.4725 40.034374 268.08188Q39.8625 267.67563 39.8625 266.41L39.8625 261.64438L38.83125 261.64438L38.83125 260.55063L39.8625 260.55063L39.8625 258.48813L41.26875 257.64438L41.26875 260.55063L42.675 260.55063L42.675 261.64438L41.26875 261.64438L41.26875 266.48813Q41.26875 267.0975 41.33125 267.26938Q41.409374 267.44125 41.58125 267.55063Q41.753124 267.64438 42.065624 267.64438Q42.3 267.64438 42.675 267.58188ZM43.6125 259.00375L43.6125 257.39438L45.01875 257.39438L45.01875 259.00375L43.6125 259.00375ZM43.6125 268.8475L43.6125 260.55063L45.01875 260.55063L45.01875 268.8475L43.6125 268.8475ZM47.05 266.36313L48.440624 266.14438Q48.55 266.98813 49.08125 267.44125Q49.628124 267.87875 50.58125 267.87875Q51.55 267.87875 52.01875 267.48813Q52.4875 267.08188 52.4875 266.55063Q52.4875 266.08188 52.08125 265.80063Q51.784374 265.61313 50.64375 265.33188Q49.096874 264.94125 48.4875 264.66Q47.89375 264.36313 47.58125 263.86313Q47.284374 263.36313 47.284374 262.75375Q47.284374 262.19125 47.534374 261.7225Q47.784374 261.25375 48.221874 260.94125Q48.55 260.69125 49.1125 260.535Q49.690624 260.36313 50.33125 260.36313Q51.315624 260.36313 52.05 260.64438Q52.784374 260.92563 53.128124 261.41Q53.4875 261.87875 53.628124 262.69125L52.253124 262.87875Q52.159374 262.23813 51.70625 261.87875Q51.253124 261.51938 50.440624 261.51938Q49.471874 261.51938 49.05 261.8475Q48.64375 262.16 48.64375 262.58188Q48.64375 262.86313 48.815624 263.08188Q48.9875 263.30063 49.346874 263.45688Q49.565624 263.535 50.596874 263.81625Q52.08125 264.20688 52.675 264.4725Q53.26875 264.7225 53.596874 265.20688Q53.940624 265.69125 53.940624 266.41Q53.940624 267.11313 53.51875 267.73813Q53.1125 268.3475 52.33125 268.69125Q51.565624 269.035 50.596874 269.035Q48.971874 269.035 48.128124 268.36313Q47.284374 267.69125 47.05 266.36313ZM55.940624 268.8475L55.940624 261.64438L54.70625 261.64438L54.70625 260.55063L55.940624 260.55063L55.940624 259.66Q55.940624 258.83188 56.096874 258.42563Q56.3 257.87875 56.8 257.535Q57.315624 257.19125 58.2375 257.19125Q58.83125 257.19125 59.55 257.33188L59.346874 258.56625Q58.909374 258.48813 58.51875 258.48813Q57.878124 258.48813 57.6125 258.76938Q57.346874 259.035 57.346874 259.785L57.346874 260.55063L58.95625 260.55063L58.95625 261.64438L57.346874 261.64438L57.346874 268.8475L55.940624 268.8475ZM65.01875 267.81625Q64.2375 268.48813 63.51875 268.76938Q62.8 269.035 61.971874 269.035Q60.596874 269.035 59.8625 268.36313Q59.128124 267.69125 59.128124 266.66Q59.128124 266.05063 59.409374 265.55063Q59.690624 265.035 60.128124 264.73813Q60.58125 264.42563 61.14375 264.26938Q61.565624 264.16 62.39375 264.06625Q64.09688 263.86313 64.90938 263.58188Q64.90938 263.285 64.90938 263.20688Q64.90938 262.3475 64.51875 262.00375Q63.971874 261.51938 62.909374 261.51938Q61.925 261.51938 61.440624 261.87875Q60.971874 262.2225 60.753124 263.0975L59.378124 262.91Q59.565624 262.035 59.9875 261.48813Q60.425 260.94125 61.2375 260.66Q62.05 260.36313 63.1125 260.36313Q64.175 260.36313 64.83125 260.61313Q65.50313 260.86313 65.81563 261.23813Q66.12813 261.61313 66.25313 262.19125Q66.33125 262.55063 66.33125 263.48813L66.33125 265.36313Q66.33125 267.33188 66.40938 267.8475Q66.50313 268.36313 66.76875 268.8475L65.3 268.8475Q65.08125 268.41 65.01875 267.81625ZM64.90938 264.67563Q64.14375 264.98813 62.6125 265.20688Q61.7375 265.33188 61.378124 265.48813Q61.01875 265.64438 60.815624 265.95688Q60.628124 266.25375 60.628124 266.61313Q60.628124 267.17563 61.05 267.55063Q61.4875 267.92563 62.3 267.92563Q63.1125 267.92563 63.7375 267.58188Q64.37813 267.2225 64.675 266.5975Q64.90938 266.12875 64.90938 265.19125L64.90938 264.67563ZM74.01875 265.80063L75.40938 265.98813Q75.175 267.41 74.2375 268.2225Q73.31563 269.035 71.95625 269.035Q70.25313 269.035 69.20625 267.92563Q68.175 266.80063 68.175 264.7225Q68.175 263.37875 68.6125 262.37875Q69.06563 261.36313 69.97188 260.86313Q70.89375 260.36313 71.95625 260.36313Q73.31563 260.36313 74.175 261.05063Q75.03438 261.7225 75.26875 262.98813L73.90938 263.19125Q73.70625 262.36313 73.20625 261.94125Q72.72188 261.51938 72.01875 261.51938Q70.95625 261.51938 70.28438 262.285Q69.62813 263.035 69.62813 264.69125Q69.62813 266.36313 70.26875 267.12875Q70.90938 267.87875 71.94063 267.87875Q72.76875 267.87875 73.31563 267.37875Q73.87813 266.86313 74.01875 265.80063ZM79.675 267.58188L79.87813 268.83188Q79.28438 268.95688 78.81563 268.95688Q78.05 268.95688 77.62813 268.7225Q77.20625 268.4725 77.03438 268.08188Q76.8625 267.67563 76.8625 266.41L76.8625 261.64438L75.83125 261.64438L75.83125 260.55063L76.8625 260.55063L76.8625 258.48813L78.26875 257.64438L78.26875 260.55063L79.675 260.55063L79.675 261.64438L78.26875 261.64438L78.26875 266.48813Q78.26875 267.0975 78.33125 267.26938Q78.40938 267.44125 78.58125 267.55063Q78.75313 267.64438 79.06563 267.64438Q79.3 267.64438 79.675 267.58188ZM80.08125 264.69125Q80.08125 262.39438 81.3625 261.285Q82.44063 260.36313 83.97188 260.36313Q85.69063 260.36313 86.76875 261.48813Q87.8625 262.5975 87.8625 264.58188Q87.8625 266.17563 87.37813 267.0975Q86.89375 268.01938 85.97188 268.535Q85.06563 269.035 83.97188 269.035Q82.2375 269.035 81.15938 267.92563Q80.08125 266.80063 80.08125 264.69125ZM81.53438 264.69125Q81.53438 266.285 82.22188 267.08188Q82.925 267.87875 83.97188 267.87875Q85.01875 267.87875 85.70625 267.08188Q86.40938 266.285 86.40938 264.64438Q86.40938 263.11313 85.70625 262.31625Q85.01875 261.51938 83.97188 261.51938Q82.925 261.51938 82.22188 262.31625Q81.53438 263.0975 81.53438 264.69125ZM89.59688 268.8475L89.59688 260.55063L90.8625 260.55063L90.8625 261.80063Q91.34688 260.92563 91.75313 260.64438Q92.15938 260.36313 92.65938 260.36313Q93.3625 260.36313 94.09688 260.81625L93.6125 262.11313Q93.09688 261.81625 92.58125 261.81625Q92.12813 261.81625 91.75313 262.0975Q91.39375 262.36313 91.2375 262.86313Q91.00313 263.61313 91.00313 264.50375L91.00313 268.8475L89.59688 268.8475ZM94.55 272.05063L94.39375 270.7225Q94.84688 270.8475 95.19063 270.8475Q95.65938 270.8475 95.94063 270.69125Q96.22188 270.535 96.40938 270.25375Q96.53438 270.05063 96.83125 269.20688Q96.87813 269.0975 96.95625 268.86313L93.81563 260.55063L95.33125 260.55063L97.05 265.3475Q97.39375 266.26938 97.65938 267.26938Q97.89375 266.30063 98.2375 265.37875L100.00313 260.55063L101.40938 260.55063L98.25313 268.98813Q97.75313 270.36313 97.47188 270.87875Q97.09688 271.56625 96.6125 271.89438Q96.12813 272.2225 95.45625 272.2225Q95.05 272.2225 94.55 272.05063Z" fill-rule="nonzero"/><path fill="#9e9e9e" d="M26.51875 282.19125L25.1125 282.30063Q24.925 281.4725 24.58125 281.0975Q24.01875 280.50375 23.175 280.50375Q22.503124 280.50375 22.003124 280.87875Q21.33125 281.36313 20.940624 282.30063Q20.565624 283.2225 20.55 284.94125Q21.065624 284.16 21.8 283.785Q22.534374 283.41 23.33125 283.41Q24.7375 283.41 25.721874 284.45688Q26.721874 285.48813 26.721874 287.12875Q26.721874 288.20688 26.253124 289.12875Q25.784374 290.05063 24.971874 290.55063Q24.159374 291.05063 23.128124 291.05063Q21.378124 291.05063 20.26875 289.75375Q19.159374 288.45688 19.159374 285.48813Q19.159374 282.16 20.378124 280.66Q21.45625 279.3475 23.26875 279.3475Q24.6125 279.3475 25.471874 280.11313Q26.346874 280.86313 26.51875 282.19125ZM20.76875 287.12875Q20.76875 287.86313 21.08125 288.535Q21.39375 289.19125 21.940624 289.535Q22.503124 289.87875 23.1125 289.87875Q24.003124 289.87875 24.64375 289.16Q25.284374 288.44125 25.284374 287.20688Q25.284374 286.01938 24.64375 285.3475Q24.01875 284.66 23.05 284.66Q22.096874 284.66 21.425 285.3475Q20.76875 286.01938 20.76875 287.12875ZM35.51875 282.19125L34.1125 282.30063Q33.925 281.4725 33.58125 281.0975Q33.01875 280.50375 32.175 280.50375Q31.503124 280.50375 31.003124 280.87875Q30.33125 281.36313 29.940624 282.30063Q29.565624 283.2225 29.55 284.94125Q30.065624 284.16 30.8 283.785Q31.534374 283.41 32.33125 283.41Q33.7375 283.41 34.721874 284.45688Q35.721874 285.48813 35.721874 287.12875Q35.721874 288.20688 35.253124 289.12875Q34.784374 290.05063 33.971874 290.55063Q33.159374 291.05063 32.128124 291.05063Q30.378124 291.05063 29.26875 289.75375Q28.159374 288.45688 28.159374 285.48813Q28.159374 282.16 29.378124 280.66Q30.45625 279.3475 32.26875 279.3475Q33.6125 279.3475 34.471874 280.11313Q35.346874 280.86313 35.51875 282.19125ZM29.76875 287.12875Q29.76875 287.86313 30.08125 288.535Q30.39375 289.19125 30.940624 289.535Q31.503124 289.87875 32.1125 289.87875Q33.003124 289.87875 33.64375 289.16Q34.284374 288.44125 34.284374 287.20688Q34.284374 286.01938 33.64375 285.3475Q33.01875 284.66 32.05 284.66Q31.096874 284.66 30.425 285.3475Q29.76875 286.01938 29.76875 287.12875ZM38.003124 290.8475L38.003124 289.23813L39.6125 289.23813L39.6125 290.8475L38.003124 290.8475ZM41.315624 280.89438L41.315624 279.535L48.721874 279.535L48.721874 280.62875Q47.628124 281.80063 46.55 283.73813Q45.4875 285.66 44.89375 287.69125Q44.471874 289.12875 44.3625 290.8475L42.909374 290.8475Q42.940624 289.48813 43.440624 287.58188Q43.95625 285.66 44.89375 283.89438Q45.846874 282.11313 46.925 280.89438L41.315624 280.89438ZM50.4875 282.14438Q50.4875 280.91 51.096874 280.05063Q51.721874 279.19125 52.89375 279.19125Q53.971874 279.19125 54.675 279.9725Q55.378124 280.73813 55.378124 282.2225Q55.378124 283.67563 54.659374 284.4725Q53.95625 285.25375 52.909374 285.25375Q51.8625 285.25375 51.175 284.48813Q50.4875 283.70688 50.4875 282.14438ZM52.925 280.16Q52.409374 280.16 52.05 280.61313Q51.70625 281.06625 51.70625 282.285Q51.70625 283.37875 52.05 283.83188Q52.409374 284.285 52.925 284.285Q53.45625 284.285 53.8 283.83188Q54.159374 283.37875 54.159374 282.17563Q54.159374 281.06625 53.8 280.61313Q53.45625 280.16 52.925 280.16ZM52.940624 291.26938L59.20625 279.19125L60.346874 279.19125L54.096874 291.26938L52.940624 291.26938ZM57.89375 288.16Q57.89375 286.92563 58.503124 286.06625Q59.128124 285.20688 60.3 285.20688Q61.378124 285.20688 62.08125 285.98813Q62.8 286.75375 62.8 288.23813Q62.8 289.69125 62.08125 290.48813Q61.3625 291.26938 60.315624 291.26938Q59.26875 291.26938 58.58125 290.48813Q57.89375 289.70688 57.89375 288.16ZM60.346874 286.17563Q59.815624 286.17563 59.45625 286.62875Q59.1125 287.08188 59.1125 288.30063Q59.1125 289.39438 59.45625 289.8475Q59.815624 290.30063 60.33125 290.30063Q60.878124 290.30063 61.221874 289.8475Q61.565624 289.39438 61.565624 288.19125Q61.565624 287.08188 61.20625 286.62875Q60.8625 286.17563 60.346874 286.17563Z" fill-rule="nonzero"/><path stroke="#757575" stroke-width="1.0" stroke-linecap="butt" d="M18.55 274.3475L145.23334 274.3475L177.60608 274.3475" fill-rule="nonzero"/><path fill="#9e9e9e" d="M179.60608 274.3475C179.60608 273.24292 178.71065 272.3475 177.60608 272.3475C176.50151 272.3475 175.60608 273.24292 175.60608 274.3475C175.60608 275.45206 176.50151 276.3475 177.60608 276.3475C178.71065 276.3475 179.60608 275.45206 179.60608 274.3475" fill-rule="nonzero"/><path fill="#1a1a1a" d="M477.23126 121.94104Q477.23126 119.081665 478.7625 117.47229Q480.29376 115.862915 482.71564 115.862915Q484.29376 115.862915 485.5594 116.62854Q486.84064 117.37854 487.5125 118.737915Q488.1844 120.081665 488.1844 121.800415Q488.1844 123.550415 487.48126 124.925415Q486.77814 126.300415 485.48126 127.019165Q484.2 127.72229 482.7 127.72229Q481.09064 127.72229 479.8094 126.94104Q478.54376 126.144165 477.8875 124.800415Q477.23126 123.44104 477.23126 121.94104ZM478.79376 121.956665Q478.79376 124.03479 479.90314 125.22229Q481.0125 126.40979 482.7 126.40979Q484.40314 126.40979 485.5125 125.206665Q486.6219 124.00354 486.6219 121.800415Q486.6219 120.394165 486.1375 119.362915Q485.66876 118.31604 484.7625 117.737915Q483.85626 117.15979 482.71564 117.15979Q481.10626 117.15979 479.95 118.269165Q478.79376 119.37854 478.79376 121.956665ZM491.8094 127.519165L488.65314 119.22229L490.1375 119.22229L491.91876 124.19104Q492.21564 124.987915 492.45 125.862915Q492.6375 125.206665 492.98126 124.28479L494.825 119.22229L496.2625 119.22229L493.1219 127.519165L491.8094 127.519165ZM502.1844 124.84729L503.6375 125.019165Q503.29376 126.300415 502.35626 127.00354Q501.4344 127.706665 499.9969 127.706665Q498.16876 127.706665 497.10626 126.581665Q496.04376 125.456665 496.04376 123.44104Q496.04376 121.34729 497.1219 120.19104Q498.2 119.03479 499.91876 119.03479Q501.575 119.03479 502.6219 120.175415Q503.6844 121.300415 503.6844 123.34729Q503.6844 123.47229 503.6844 123.72229L497.4969 123.72229Q497.575 125.09729 498.2625 125.831665Q498.96564 126.550415 499.9969 126.550415Q500.77814 126.550415 501.325 126.144165Q501.8719 125.737915 502.1844 124.84729ZM497.575 122.56604L502.2 122.56604Q502.10626 121.519165 501.66876 121.00354Q500.9969 120.19104 499.9344 120.19104Q498.96564 120.19104 498.29376 120.84729Q497.6375 121.487915 497.575 122.56604ZM505.4969 127.519165L505.4969 119.22229L506.7625 119.22229L506.7625 120.47229Q507.2469 119.59729 507.65314 119.31604Q508.0594 119.03479 508.5594 119.03479Q509.2625 119.03479 509.9969 119.487915L509.5125 120.78479Q508.9969 120.487915 508.48126 120.487915Q508.02814 120.487915 507.65314 120.769165Q507.29376 121.03479 507.1375 121.53479Q506.90314 122.28479 506.90314 123.175415L506.90314 127.519165L505.4969 127.519165ZM510.5125 130.70667L510.5125 119.22229L511.79376 119.22229L511.79376 120.300415Q512.2469 119.65979 512.8094 119.34729Q513.3875 119.03479 514.2 119.03479Q515.2625 119.03479 516.075 119.581665Q516.8875 120.12854 517.29376 121.12854Q517.71564 122.112915 517.71564 123.300415Q517.71564 124.581665 517.2469 125.59729Q516.79376 126.612915 515.91876 127.15979Q515.0594 127.706665 514.09064 127.706665Q513.3875 127.706665 512.825 127.40979Q512.27814 127.112915 511.91876 126.65979L511.91876 130.70667L510.5125 130.70667ZM511.77814 123.40979Q511.77814 125.019165 512.41876 125.78479Q513.075 126.550415 513.9969 126.550415Q514.9344 126.550415 515.60626 125.75354Q516.27814 124.956665 516.27814 123.300415Q516.27814 121.706665 515.6219 120.925415Q514.96564 120.12854 514.0594 120.12854Q513.16876 120.12854 512.46564 120.97229Q511.77814 121.81604 511.77814 123.40979ZM525.1844 124.84729L526.6375 125.019165Q526.29376 126.300415 525.35626 127.00354Q524.4344 127.706665 522.9969 127.706665Q521.16876 127.706665 520.10626 126.581665Q519.04376 125.456665 519.04376 123.44104Q519.04376 121.34729 520.1219 120.19104Q521.2 119.03479 522.91876 119.03479Q524.575 119.03479 525.6219 120.175415Q526.6844 121.300415 526.6844 123.34729Q526.6844 123.47229 526.6844 123.72229L520.4969 123.72229Q520.575 125.09729 521.2625 125.831665Q521.96564 126.550415 522.9969 126.550415Q523.77814 126.550415 524.325 126.144165Q524.8719 125.737915 525.1844 124.84729ZM520.575 122.56604L525.2 122.56604Q525.10626 121.519165 524.66876 121.00354Q523.9969 120.19104 522.9344 120.19104Q521.96564 120.19104 521.29376 120.84729Q520.6375 121.487915 520.575 122.56604ZM528.4969 127.519165L528.4969 119.22229L529.7625 119.22229L529.7625 120.47229Q530.2469 119.59729 530.65314 119.31604Q531.0594 119.03479 531.5594 119.03479Q532.2625 119.03479 532.9969 119.487915L532.5125 120.78479Q531.9969 120.487915 531.48126 120.487915Q531.02814 120.487915 530.65314 120.769165Q530.29376 121.03479 530.1375 121.53479Q529.90314 122.28479 529.90314 123.175415L529.90314 127.519165L528.4969 127.519165ZM533.84064 127.519165L533.84064 120.31604L532.60626 120.31604L532.60626 119.22229L533.84064 119.22229L533.84064 118.331665Q533.84064 117.50354 533.9969 117.09729Q534.2 116.550415 534.7 116.206665Q535.21564 115.862915 536.1375 115.862915Q536.73126 115.862915 537.45 116.00354L537.2469 117.237915Q536.8094 117.15979 536.41876 117.15979Q535.77814 117.15979 535.5125 117.44104Q535.2469 117.706665 535.2469 118.456665L535.2469 119.22229L536.85626 119.22229L536.85626 120.31604L535.2469 120.31604L535.2469 127.519165L533.84064 127.519165ZM536.98126 123.362915Q536.98126 121.06604 538.2625 119.956665Q539.34064 119.03479 540.8719 119.03479Q542.59064 119.03479 543.66876 120.15979Q544.7625 121.269165 544.7625 123.25354Q544.7625 124.84729 544.27814 125.769165Q543.79376 126.69104 542.8719 127.206665Q541.96564 127.706665 540.8719 127.706665Q539.1375 127.706665 538.0594 126.59729Q536.98126 125.47229 536.98126 123.362915ZM538.4344 123.362915Q538.4344 124.956665 539.1219 125.75354Q539.825 126.550415 540.8719 126.550415Q541.91876 126.550415 542.60626 125.75354Q543.3094 124.956665 543.3094 123.31604Q543.3094 121.78479 542.60626 120.987915Q541.91876 120.19104 540.8719 120.19104Q539.825 120.19104 539.1219 120.987915Q538.4344 121.769165 538.4344 123.362915ZM546.4969 127.519165L546.4969 119.22229L547.7625 119.22229L547.7625 120.47229Q548.2469 119.59729 548.65314 119.31604Q549.0594 119.03479 549.5594 119.03479Q550.2625 119.03479 550.9969 119.487915L550.5125 120.78479Q549.9969 120.487915 549.48126 120.487915Q549.02814 120.487915 548.65314 120.769165Q548.29376 121.03479 548.1375 121.53479Q547.90314 122.28479 547.90314 123.175415L547.90314 127.519165L546.4969 127.519165ZM551.5125 127.519165L551.5125 119.22229L552.7625 119.22229L552.7625 120.37854Q553.15314 119.769165 553.79376 119.40979Q554.45 119.03479 555.27814 119.03479Q556.2 119.03479 556.79376 119.425415Q557.3875 119.800415 557.6219 120.487915Q558.60626 119.03479 560.1844 119.03479Q561.41876 119.03479 562.075 119.72229Q562.7469 120.394165 562.7469 121.81604L562.7469 127.519165L561.35626 127.519165L561.35626 122.28479Q561.35626 121.44104 561.21564 121.081665Q561.075 120.706665 560.71564 120.487915Q560.35626 120.25354 559.8719 120.25354Q558.9969 120.25354 558.41876 120.831665Q557.84064 121.40979 557.84064 122.69104L557.84064 127.519165L556.4344 127.519165L556.4344 122.12854Q556.4344 121.19104 556.09064 120.72229Q555.7469 120.25354 554.96564 120.25354Q554.3719 120.25354 553.8719 120.56604Q553.3719 120.87854 553.1375 121.487915Q552.91876 122.081665 552.91876 123.206665L552.91876 127.519165L551.5125 127.519165ZM570.1844 124.84729L571.6375 125.019165Q571.29376 126.300415 570.35626 127.00354Q569.4344 127.706665 567.9969 127.706665Q566.16876 127.706665 565.10626 126.581665Q564.04376 125.456665 564.04376 123.44104Q564.04376 121.34729 565.1219 120.19104Q566.2 119.03479 567.91876 119.03479Q569.575 119.03479 570.6219 120.175415Q571.6844 121.300415 571.6844 123.34729Q571.6844 123.47229 571.6844 123.72229L565.4969 123.72229Q565.575 125.09729 566.2625 125.831665Q566.96564 126.550415 567.9969 126.550415Q568.77814 126.550415 569.325 126.144165Q569.8719 125.737915 570.1844 124.84729ZM565.575 122.56604L570.2 122.56604Q570.10626 121.519165 569.66876 121.00354Q568.9969 120.19104 567.9344 120.19104Q566.96564 120.19104 566.29376 120.84729Q565.6375 121.487915 565.575 122.56604ZM578.8875 127.519165L578.8875 126.47229Q578.10626 127.706665 576.575 127.706665Q575.575 127.706665 574.7469 127.15979Q573.91876 126.612915 573.45 125.62854Q572.9969 124.644165 572.9969 123.37854Q572.9969 122.12854 573.40314 121.12854Q573.825 120.112915 574.65314 119.581665Q575.48126 119.03479 576.5125 119.03479Q577.2625 119.03479 577.84064 119.34729Q578.4344 119.65979 578.79376 120.175415L578.79376 116.06604L580.2 116.06604L580.2 127.519165L578.8875 127.519165ZM574.45 123.37854Q574.45 124.97229 575.1219 125.769165Q575.79376 126.550415 576.7 126.550415Q577.6219 126.550415 578.2625 125.800415Q578.91876 125.03479 578.91876 123.487915Q578.91876 121.78479 578.2625 120.987915Q577.60626 120.19104 576.6375 120.19104Q575.7 120.19104 575.075 120.956665Q574.45 121.72229 574.45 123.37854Z" fill-rule="nonzero"/><path fill="#9e9e9e" d="M537.1219 146.48792L538.52814 146.30042Q538.77814 147.50354 539.35626 148.03479Q539.9344 148.55042 540.77814 148.55042Q541.7625 148.55042 542.45 147.86292Q543.1375 147.17542 543.1375 146.15979Q543.1375 145.19104 542.4969 144.56604Q541.8719 143.94104 540.8875 143.94104Q540.4969 143.94104 539.90314 144.09729L540.0594 142.86292Q540.2 142.87854 540.27814 142.87854Q541.1844 142.87854 541.90314 142.40979Q542.6219 141.94104 542.6219 140.95667Q542.6219 140.19104 542.09064 139.69104Q541.575 139.17542 540.7469 139.17542Q539.91876 139.17542 539.3719 139.69104Q538.825 140.20667 538.66876 141.23792L537.2625 140.98792Q537.52814 139.56604 538.4344 138.80042Q539.35626 138.01917 540.71564 138.01917Q541.65314 138.01917 542.4344 138.42542Q543.23126 138.81604 543.6375 139.51917Q544.0594 140.20667 544.0594 140.98792Q544.0594 141.73792 543.65314 142.34729Q543.2625 142.95667 542.48126 143.31604Q543.4969 143.55042 544.0594 144.28479Q544.6219 145.01917 544.6219 146.12854Q544.6219 147.62854 543.52814 148.67542Q542.4344 149.72229 540.7625 149.72229Q539.2625 149.72229 538.2625 148.83167Q537.2625 147.92542 537.1219 146.48792ZM546.1219 146.48792L547.52814 146.30042Q547.77814 147.50354 548.35626 148.03479Q548.9344 148.55042 549.77814 148.55042Q550.7625 148.55042 551.45 147.86292Q552.1375 147.17542 552.1375 146.15979Q552.1375 145.19104 551.4969 144.56604Q550.8719 143.94104 549.8875 143.94104Q549.4969 143.94104 548.90314 144.09729L549.0594 142.86292Q549.2 142.87854 549.27814 142.87854Q550.1844 142.87854 550.90314 142.40979Q551.6219 141.94104 551.6219 140.95667Q551.6219 140.19104 551.09064 139.69104Q550.575 139.17542 549.7469 139.17542Q548.91876 139.17542 548.3719 139.69104Q547.825 140.20667 547.66876 141.23792L546.2625 140.98792Q546.52814 139.56604 547.4344 138.80042Q548.35626 138.01917 549.71564 138.01917Q550.65314 138.01917 551.4344 138.42542Q552.23126 138.81604 552.6375 139.51917Q553.0594 140.20667 553.0594 140.98792Q553.0594 141.73792 552.65314 142.34729Q552.2625 142.95667 551.48126 143.31604Q552.4969 143.55042 553.0594 144.28479Q553.6219 145.01917 553.6219 146.12854Q553.6219 147.62854 552.52814 148.67542Q551.4344 149.72229 549.7625 149.72229Q548.2625 149.72229 547.2625 148.83167Q546.2625 147.92542 546.1219 146.48792ZM555.90314 149.51917L555.90314 147.90979L557.5125 147.90979L557.5125 149.51917L555.90314 149.51917ZM559.1219 146.48792L560.52814 146.30042Q560.77814 147.50354 561.35626 148.03479Q561.9344 148.55042 562.77814 148.55042Q563.7625 148.55042 564.45 147.86292Q565.1375 147.17542 565.1375 146.15979Q565.1375 145.19104 564.4969 144.56604Q563.8719 143.94104 562.8875 143.94104Q562.4969 143.94104 561.90314 144.09729L562.0594 142.86292Q562.2 142.87854 562.27814 142.87854Q563.1844 142.87854 563.90314 142.40979Q564.6219 141.94104 564.6219 140.95667Q564.6219 140.19104 564.09064 139.69104Q563.575 139.17542 562.7469 139.17542Q561.91876 139.17542 561.3719 139.69104Q560.825 140.20667 560.66876 141.23792L559.2625 140.98792Q559.52814 139.56604 560.4344 138.80042Q561.35626 138.01917 562.71564 138.01917Q563.65314 138.01917 564.4344 138.42542Q565.23126 138.81604 565.6375 139.51917Q566.0594 140.20667 566.0594 140.98792Q566.0594 141.73792 565.65314 142.34729Q565.2625 142.95667 564.48126 143.31604Q565.4969 143.55042 566.0594 144.28479Q566.6219 145.01917 566.6219 146.12854Q566.6219 147.62854 565.52814 148.67542Q564.4344 149.72229 562.7625 149.72229Q561.2625 149.72229 560.2625 148.83167Q559.2625 147.92542 559.1219 146.48792ZM568.3875 140.81604Q568.3875 139.58167 568.9969 138.72229Q569.6219 137.86292 570.79376 137.86292Q571.8719 137.86292 572.575 138.64417Q573.27814 139.40979 573.27814 140.89417Q573.27814 142.34729 572.5594 143.14417Q571.85626 143.92542 570.8094 143.92542Q569.7625 143.92542 569.075 143.15979Q568.3875 142.37854 568.3875 140.81604ZM570.825 138.83167Q570.3094 138.83167 569.95 139.28479Q569.60626 139.73792 569.60626 140.95667Q569.60626 142.05042 569.95 142.50354Q570.3094 142.95667 570.825 142.95667Q571.35626 142.95667 571.7 142.50354Q572.0594 142.05042 572.0594 140.84729Q572.0594 139.73792 571.7 139.28479Q571.35626 138.83167 570.825 138.83167ZM570.84064 149.94104L577.10626 137.86292L578.2469 137.86292L571.9969 149.94104L570.84064 149.94104ZM575.79376 146.83167Q575.79376 145.59729 576.40314 144.73792Q577.02814 143.87854 578.2 143.87854Q579.27814 143.87854 579.98126 144.65979Q580.7 145.42542 580.7 146.90979Q580.7 148.36292 579.98126 149.15979Q579.2625 149.94104 578.21564 149.94104Q577.16876 149.94104 576.48126 149.15979Q575.79376 148.37854 575.79376 146.83167ZM578.2469 144.84729Q577.71564 144.84729 577.35626 145.30042Q577.0125 145.75354 577.0125 146.97229Q577.0125 148.06604 577.35626 148.51917Q577.71564 148.97229 578.23126 148.97229Q578.77814 148.97229 579.1219 148.51917Q579.46564 148.06604 579.46564 146.86292Q579.46564 145.75354 579.10626 145.30042Q578.7625 144.84729 578.2469 144.84729Z" fill-rule="nonzero"/><path stroke="#757575" stroke-width="1.0" stroke-linecap="butt" d="M581.45 133.01917L454.76666 133.01917L422.39392 133.01917" fill-rule="nonzero"/><path fill="#9e9e9e" d="M424.39392 133.01917C424.39392 131.9146 423.4985 131.01917 422.39392 131.01917C421.28937 131.01917 420.39392 131.9146 420.39392 133.01917C420.39392 134.12373 421.28937 135.01917 422.39392 135.01917C423.4985 135.01917 424.39392 134.12373 424.39392 133.01917" fill-rule="nonzero"/><path fill="#000000" d="M30.315624 32.534374L32.20625 33.003124Q31.6125 35.346874 30.065624 36.58125Q28.51875 37.8 26.26875 37.8Q23.95625 37.8 22.503124 36.8625Q21.065624 35.909374 20.3 34.128124Q19.55 32.33125 19.55 30.284374Q19.55 28.05 20.39375 26.39375Q21.253124 24.721874 22.83125 23.8625Q24.409374 22.9875 26.3 22.9875Q28.45625 22.9875 29.909374 24.08125Q31.378124 25.175 31.95625 27.159374L30.096874 27.596874Q29.596874 26.034374 28.64375 25.33125Q27.70625 24.6125 26.26875 24.6125Q24.6125 24.6125 23.503124 25.409374Q22.39375 26.190624 21.940624 27.534374Q21.503124 28.8625 21.503124 30.26875Q21.503124 32.096874 22.034374 33.471874Q22.565624 34.83125 23.690624 35.503124Q24.815624 36.175 26.1125 36.175Q27.70625 36.175 28.815624 35.253124Q29.925 34.33125 30.315624 32.534374ZM40.64375 36.26875Q39.659374 37.096874 38.753124 37.440624Q37.846874 37.784374 36.815624 37.784374Q35.1125 37.784374 34.190624 36.95625Q33.26875 36.1125 33.26875 34.815624Q33.26875 34.05 33.6125 33.425Q33.971874 32.8 34.534374 32.425Q35.096874 32.034374 35.8 31.83125Q36.315624 31.70625 37.3625 31.565624Q39.4875 31.315624 40.4875 30.971874Q40.503124 30.6125 40.503124 30.503124Q40.503124 29.440624 40.003124 28.9875Q39.33125 28.39375 38.003124 28.39375Q36.753124 28.39375 36.159374 28.83125Q35.58125 29.26875 35.3 30.378124L33.58125 30.14375Q33.815624 29.034374 34.346874 28.3625Q34.878124 27.675 35.89375 27.315624Q36.909374 26.940624 38.253124 26.940624Q39.58125 26.940624 40.409374 27.253124Q41.2375 27.565624 41.628124 28.05Q42.01875 28.51875 42.175 29.2375Q42.26875 29.690624 42.26875 30.8625L42.26875 33.20625Q42.26875 35.659374 42.378124 36.315624Q42.4875 36.95625 42.83125 37.55L40.9875 37.55Q40.721874 37.003124 40.64375 36.26875ZM40.4875 32.346874Q39.534374 32.7375 37.6125 33.003124Q36.534374 33.159374 36.08125 33.3625Q35.64375 33.55 35.39375 33.925Q35.14375 34.3 35.14375 34.76875Q35.14375 35.471874 35.675 35.940624Q36.20625 36.409374 37.2375 36.409374Q38.253124 36.409374 39.034374 35.971874Q39.83125 35.51875 40.20625 34.753124Q40.4875 34.14375 40.4875 32.9875L40.4875 32.346874ZM48.70625 35.971874L48.95625 37.534374Q48.221874 37.690624 47.628124 37.690624Q46.675 37.690624 46.14375 37.39375Q45.628124 37.08125 45.409374 36.596874Q45.190624 36.096874 45.190624 34.51875L45.190624 28.55L43.909374 28.55L43.909374 27.175L45.190624 27.175L45.190624 24.6125L46.940624 23.55L46.940624 27.175L48.70625 27.175L48.70625 28.55L46.940624 28.55L46.940624 34.6125Q46.940624 35.3625 47.034374 35.58125Q47.128124 35.784374 47.33125 35.925Q47.55 36.05 47.940624 36.05Q48.221874 36.05 48.70625 35.971874ZM57.64375 36.26875Q56.659374 37.096874 55.753124 37.440624Q54.846874 37.784374 53.815624 37.784374Q52.1125 37.784374 51.190624 36.95625Q50.26875 36.1125 50.26875 34.815624Q50.26875 34.05 50.6125 33.425Q50.971874 32.8 51.534374 32.425Q52.096874 32.034374 52.8 31.83125Q53.315624 31.70625 54.3625 31.565624Q56.4875 31.315624 57.4875 30.971874Q57.503124 30.6125 57.503124 30.503124Q57.503124 29.440624 57.003124 28.9875Q56.33125 28.39375 55.003124 28.39375Q53.753124 28.39375 53.159374 28.83125Q52.58125 29.26875 52.3 30.378124L50.58125 30.14375Q50.815624 29.034374 51.346874 28.3625Q51.878124 27.675 52.89375 27.315624Q53.909374 26.940624 55.253124 26.940624Q56.58125 26.940624 57.409374 27.253124Q58.2375 27.565624 58.628124 28.05Q59.01875 28.51875 59.175 29.2375Q59.26875 29.690624 59.26875 30.8625L59.26875 33.20625Q59.26875 35.659374 59.378124 36.315624Q59.4875 36.95625 59.83125 37.55L57.9875 37.55Q57.721874 37.003124 57.64375 36.26875ZM57.4875 32.346874Q56.534374 32.7375 54.6125 33.003124Q53.534374 33.159374 53.08125 33.3625Q52.64375 33.55 52.39375 33.925Q52.14375 34.3 52.14375 34.76875Q52.14375 35.471874 52.675 35.940624Q53.20625 36.409374 54.2375 36.409374Q55.253124 36.409374 56.034374 35.971874Q56.83125 35.51875 57.20625 34.753124Q57.4875 34.14375 57.4875 32.9875L57.4875 32.346874ZM61.8625 41.51875L61.8625 27.175L63.471874 27.175L63.471874 28.51875Q64.03438 27.7375 64.7375 27.346874Q65.45625 26.940624 66.47188 26.940624Q67.8 26.940624 68.81563 27.628124Q69.83125 28.315624 70.34688 29.565624Q70.87813 30.8 70.87813 32.284374Q70.87813 33.878124 70.3 35.159374Q69.7375 36.425 68.64375 37.1125Q67.55 37.784374 66.34688 37.784374Q65.47188 37.784374 64.76875 37.409374Q64.08125 37.034374 63.628124 36.471874L63.628124 41.51875L61.8625 41.51875ZM63.45625 32.425Q63.45625 34.425 64.26875 35.378124Q65.08125 36.33125 66.2375 36.33125Q67.40938 36.33125 68.2375 35.346874Q69.08125 34.3625 69.08125 32.26875Q69.08125 30.3 68.25313 29.315624Q67.44063 28.315624 66.31563 28.315624Q65.19063 28.315624 64.31563 29.378124Q63.45625 30.425 63.45625 32.425ZM79.65938 37.55L79.65938 36.01875Q78.45625 37.784374 76.37813 37.784374Q75.45625 37.784374 74.65938 37.440624Q73.8625 37.08125 73.47188 36.55Q73.09688 36.01875 72.94063 35.2375Q72.83125 34.721874 72.83125 33.596874L72.83125 27.175L74.58125 27.175L74.58125 32.925Q74.58125 34.3 74.69063 34.784374Q74.8625 35.471874 75.39375 35.878124Q75.94063 36.26875 76.72188 36.26875Q77.51875 36.26875 78.20625 35.8625Q78.90938 35.45625 79.19063 34.76875Q79.4875 34.065624 79.4875 32.7375L79.4875 27.175L81.2375 27.175L81.2375 37.55L79.65938 37.55ZM82.83125 37.55L82.83125 23.2375L84.58125 23.2375L84.58125 37.55L82.83125 37.55ZM90.70625 35.971874L90.95625 37.534374Q90.22188 37.690624 89.62813 37.690624Q88.675 37.690624 88.14375 37.39375Q87.62813 37.08125 87.40938 36.596874Q87.19063 36.096874 87.19063 34.51875L87.19063 28.55L85.90938 28.55L85.90938 27.175L87.19063 27.175L87.19063 24.6125L88.94063 23.55L88.94063 27.175L90.70625 27.175L90.70625 28.55L88.94063 28.55L88.94063 34.6125Q88.94063 35.3625 89.03438 35.58125Q89.12813 35.784374 89.33125 35.925Q89.55 36.05 89.94063 36.05Q90.22188 36.05 90.70625 35.971874ZM99.09688 37.55L99.09688 23.2375L104.4875 23.2375Q105.925 23.2375 106.675 23.3625Q107.72188 23.55 108.44063 24.05Q109.15938 24.534374 109.58125 25.425Q110.01875 26.315624 110.01875 27.378124Q110.01875 29.20625 108.84688 30.471874Q107.69063 31.721874 104.65938 31.721874L100.9875 31.721874L100.9875 37.55L99.09688 37.55ZM100.9875 30.034374L104.69063 30.034374Q106.51875 30.034374 107.28438 29.3625Q108.06563 28.675 108.06563 27.425Q108.06563 26.534374 107.6125 25.89375Q107.15938 25.253124 106.425 25.05Q105.94063 24.925 104.64375 24.925L100.9875 24.925L100.9875 30.034374ZM118.97188 34.20625L120.78438 34.440624Q120.3625 36.01875 119.19063 36.909374Q118.03438 37.784374 116.22188 37.784374Q113.95625 37.784374 112.6125 36.39375Q111.28438 34.9875 111.28438 32.45625Q111.28438 29.83125 112.62813 28.39375Q113.97188 26.940624 116.12813 26.940624Q118.20625 26.940624 119.51875 28.3625Q120.84688 29.76875 120.84688 32.346874Q120.84688 32.503124 120.83125 32.815624L113.09688 32.815624Q113.19063 34.51875 114.06563 35.425Q114.94063 36.33125 116.2375 36.33125Q117.20625 36.33125 117.87813 35.83125Q118.56563 35.315624 118.97188 34.20625ZM113.19063 31.3625L118.9875 31.3625Q118.87813 30.065624 118.33125 29.409374Q117.4875 28.39375 116.14375 28.39375Q114.94063 28.39375 114.1125 29.20625Q113.28438 30.003124 113.19063 31.3625ZM122.84688 37.55L122.84688 27.175L124.425 27.175L124.425 28.753124Q125.03438 27.64375 125.55 27.3Q126.06563 26.940624 126.675 26.940624Q127.56563 26.940624 128.4875 27.503124L127.87813 29.14375Q127.2375 28.753124 126.59688 28.753124Q126.01875 28.753124 125.55 29.1125Q125.09688 29.45625 124.89375 30.065624Q124.6125 31.003124 124.6125 32.1125L124.6125 37.55L122.84688 37.55ZM130.28438 37.55L130.28438 28.55L128.7375 28.55L128.7375 27.175L130.28438 27.175L130.28438 26.08125Q130.28438 25.034374 130.47188 24.51875Q130.72188 23.83125 131.3625 23.409374Q132.00313 22.9875 133.15938 22.9875Q133.90938 22.9875 134.8 23.159374L134.53438 24.690624Q133.9875 24.596874 133.50313 24.596874Q132.70625 24.596874 132.3625 24.940624Q132.03438 25.284374 132.03438 26.221874L132.03438 27.175L134.06563 27.175L134.06563 28.55L132.03438 28.55L132.03438 37.55L130.28438 37.55ZM135.22188 32.3625Q135.22188 29.4875 136.81563 28.096874Q138.15938 26.940624 140.08125 26.940624Q142.22188 26.940624 143.56563 28.346874Q144.925 29.753124 144.925 32.221874Q144.925 34.221874 144.33125 35.378124Q143.7375 36.51875 142.58125 37.159374Q141.44063 37.784374 140.08125 37.784374Q137.89375 37.784374 136.55 36.39375Q135.22188 34.9875 135.22188 32.3625ZM137.01875 32.3625Q137.01875 34.3625 137.87813 35.346874Q138.75313 36.33125 140.08125 36.33125Q141.39375 36.33125 142.25313 35.346874Q143.12813 34.346874 143.12813 32.3Q143.12813 30.378124 142.25313 29.39375Q141.37813 28.39375 140.08125 28.39375Q138.75313 28.39375 137.87813 29.39375Q137.01875 30.378124 137.01875 32.3625ZM146.84688 37.55L146.84688 27.175L148.425 27.175L148.425 28.753124Q149.03438 27.64375 149.55 27.3Q150.06563 26.940624 150.675 26.940624Q151.56563 26.940624 152.4875 27.503124L151.87813 29.14375Q151.2375 28.753124 150.59688 28.753124Q150.01875 28.753124 149.55 29.1125Q149.09688 29.45625 148.89375 30.065624Q148.6125 31.003124 148.6125 32.1125L148.6125 37.55L146.84688 37.55ZM153.8625 37.55L153.8625 27.175L155.44063 27.175L155.44063 28.628124Q155.925 27.878124 156.7375 27.409374Q157.55 26.940624 158.58125 26.940624Q159.7375 26.940624 160.47188 27.425Q161.20625 27.89375 161.51875 28.753124Q162.75313 26.940624 164.72188 26.940624Q166.26875 26.940624 167.09688 27.8Q167.925 28.659374 167.925 30.425L167.925 37.55L166.175 37.55L166.175 31.01875Q166.175 29.95625 166.00313 29.503124Q165.83125 29.034374 165.37813 28.753124Q164.94063 28.471874 164.33125 28.471874Q163.2375 28.471874 162.50313 29.20625Q161.78438 29.925 161.78438 31.51875L161.78438 37.55L160.03438 37.55L160.03438 30.815624Q160.03438 29.64375 159.59688 29.065624Q159.175 28.471874 158.19063 28.471874Q157.45625 28.471874 156.81563 28.8625Q156.19063 29.253124 155.90938 30.003124Q155.62813 30.753124 155.62813 32.175L155.62813 37.55L153.8625 37.55ZM176.64375 36.26875Q175.65938 37.096874 174.75313 37.440624Q173.84688 37.784374 172.81563 37.784374Q171.1125 37.784374 170.19063 36.95625Q169.26875 36.1125 169.26875 34.815624Q169.26875 34.05 169.6125 33.425Q169.97188 32.8 170.53438 32.425Q171.09688 32.034374 171.8 31.83125Q172.31563 31.70625 173.3625 31.565624Q175.4875 31.315624 176.4875 30.971874Q176.50313 30.6125 176.50313 30.503124Q176.50313 29.440624 176.00313 28.9875Q175.33125 28.39375 174.00313 28.39375Q172.75313 28.39375 172.15938 28.83125Q171.58125 29.26875 171.3 30.378124L169.58125 30.14375Q169.81563 29.034374 170.34688 28.3625Q170.87813 27.675 171.89375 27.315624Q172.90938 26.940624 174.25313 26.940624Q175.58125 26.940624 176.40938 27.253124Q177.2375 27.565624 177.62813 28.05Q178.01875 28.51875 178.175 29.2375Q178.26875 29.690624 178.26875 30.8625L178.26875 33.20625Q178.26875 35.659374 178.37813 36.315624Q178.4875 36.95625 178.83125 37.55L176.9875 37.55Q176.72188 37.003124 176.64375 36.26875ZM176.4875 32.346874Q175.53438 32.7375 173.6125 33.003124Q172.53438 33.159374 172.08125 33.3625Q171.64375 33.55 171.39375 33.925Q171.14375 34.3 171.14375 34.76875Q171.14375 35.471874 171.675 35.940624Q172.20625 36.409374 173.2375 36.409374Q174.25313 36.409374 175.03438 35.971874Q175.83125 35.51875 176.20625 34.753124Q176.4875 34.14375 176.4875 32.9875L176.4875 32.346874ZM180.8625 37.55L180.8625 27.175L182.45625 27.175L182.45625 28.659374Q183.59688 26.940624 185.75313 26.940624Q186.69063 26.940624 187.47188 27.284374Q188.26875 27.6125 188.65938 28.159374Q189.05 28.70625 189.20625 29.45625Q189.3 29.95625 189.3 31.175L189.3 37.55L187.53438 37.55L187.53438 31.2375Q187.53438 30.159374 187.33125 29.628124Q187.12813 29.096874 186.59688 28.784374Q186.08125 28.471874 185.37813 28.471874Q184.25313 28.471874 183.44063 29.190624Q182.62813 29.89375 182.62813 31.878124L182.62813 37.55L180.8625 37.55ZM197.64375 33.753124L199.3625 33.971874Q199.08125 35.76875 197.90938 36.784374Q196.75313 37.784374 195.05 37.784374Q192.925 37.784374 191.62813 36.39375Q190.33125 35.003124 190.33125 32.409374Q190.33125 30.721874 190.87813 29.471874Q191.44063 28.20625 192.58125 27.58125Q193.72188 26.940624 195.06563 26.940624Q196.75313 26.940624 197.81563 27.8Q198.89375 28.659374 199.20625 30.221874L197.4875 30.4875Q197.25313 29.440624 196.62813 28.925Q196.00313 28.39375 195.12813 28.39375Q193.8 28.39375 192.97188 29.346874Q192.14375 30.3 192.14375 32.346874Q192.14375 34.440624 192.94063 35.39375Q193.7375 36.33125 195.03438 36.33125Q196.06563 36.33125 196.75313 35.70625Q197.45625 35.065624 197.64375 33.753124ZM207.97188 34.20625L209.78438 34.440624Q209.3625 36.01875 208.19063 36.909374Q207.03438 37.784374 205.22188 37.784374Q202.95625 37.784374 201.6125 36.39375Q200.28438 34.9875 200.28438 32.45625Q200.28438 29.83125 201.62813 28.39375Q202.97188 26.940624 205.12813 26.940624Q207.20625 26.940624 208.51875 28.3625Q209.84688 29.76875 209.84688 32.346874Q209.84688 32.503124 209.83125 32.815624L202.09688 32.815624Q202.19063 34.51875 203.06563 35.425Q203.94063 36.33125 205.2375 36.33125Q206.20625 36.33125 206.87813 35.83125Q207.56563 35.315624 207.97188 34.20625ZM202.19063 31.3625L207.9875 31.3625Q207.87813 30.065624 207.33125 29.409374Q206.4875 28.39375 205.14375 28.39375Q203.94063 28.39375 203.1125 29.20625Q202.28438 30.003124 202.19063 31.3625Z" fill-rule="nonzero"/></svg>