<svg version="1.1" viewBox="0.0 0.0 600.0 371.0" fill="none" stroke="none" stroke-linecap="square" stroke-miterlimit="10" width="600" height="371" xmlns:xlink="http://www.w3.org/1999/xlink" xmlns="http://www.w3.org/2000/svg"><path fill="#ffffff" d="M0 0L600.0 0L600.0 371.0L0 371.0L0 0Z" fill-rule="nonzero"/><path fill="#34a853" d="M300.0 54.916668C353.1492 54.916668 402.2611 83.27143 428.83572 129.3L300.0 203.68333Z" fill-rule="nonzero"/><path fill="#fbbc04" d="M428.83572 129.3C455.4103 175.32857 455.4103 232.0381 428.83572 278.06668C402.2611 324.09525 353.1492 352.45 300.0 352.45L300.0 203.68333Z" fill-rule="nonzero"/><path fill="#ea4335" d="M300.0 352.45C217.83844 352.45 151.23334 285.8449 151.23334 203.68333C151.23334 121.521774 217.83844 54.916668 300.0 54.916668L300.0 203.68333Z" fill-rule="nonzero"/><path fill="#1a1a1a" d="M27.3 186.73021L28.815624 186.73021L28.815624 193.33958Q28.815624 195.07396 28.425 196.08958Q28.034374 197.10521 27.01875 197.74583Q26.003124 198.38646 24.346874 198.38646Q22.7375 198.38646 21.70625 197.82396Q20.690624 197.26146 20.253124 196.21458Q19.815624 195.16771 19.815624 193.33958L19.815624 186.73021L21.33125 186.73021L21.33125 193.33958Q21.33125 194.82396 21.596874 195.54271Q21.878124 196.24583 22.55 196.63646Q23.2375 197.01146 24.20625 197.01146Q25.878124 197.01146 26.58125 196.26146Q27.3 195.49583 27.3 193.33958L27.3 186.73021ZM30.6125 198.18333L30.6125 189.88646L31.878124 189.88646L31.878124 191.05833Q32.784374 189.69896 34.51875 189.69896Q35.26875 189.69896 35.89375 189.96458Q36.51875 190.23021 36.83125 190.66771Q37.14375 191.10521 37.26875 191.71458Q37.346874 192.10521 37.346874 193.07396L37.346874 198.18333L35.940624 198.18333L35.940624 193.13646Q35.940624 192.27708 35.76875 191.85521Q35.6125 191.41771 35.190624 191.16771Q34.784374 190.91771 34.221874 190.91771Q33.315624 190.91771 32.659374 191.49583Q32.01875 192.05833 32.01875 193.65208L32.01875 198.18333L30.6125 198.18333ZM43.9875 198.18333L43.9875 197.13646Q43.20625 198.37083 41.675 198.37083Q40.675 198.37083 39.846874 197.82396Q39.01875 197.27708 38.55 196.29271Q38.096874 195.30833 38.096874 194.04271Q38.096874 192.79271 38.503124 191.79271Q38.925 190.77708 39.753124 190.24583Q40.58125 189.69896 41.6125 189.69896Q42.3625 189.69896 42.940624 190.01146Q43.534374 190.32396 43.89375 190.83958L43.89375 186.73021L45.3 186.73021L45.3 198.18333L43.9875 198.18333ZM39.55 194.04271Q39.55 195.63646 40.221874 196.43333Q40.89375 197.21458 41.8 197.21458Q42.721874 197.21458 43.3625 196.46458Q44.01875 195.69896 44.01875 194.15208Q44.01875 192.44896 43.3625 191.65208Q42.70625 190.85521 41.7375 190.85521Q40.8 190.85521 40.175 191.62083Q39.55 192.38646 39.55 194.04271ZM53.284374 195.51146L54.7375 195.68333Q54.39375 196.96458 53.45625 197.66771Q52.534374 198.37083 51.096874 198.37083Q49.26875 198.37083 48.20625 197.24583Q47.14375 196.12083 47.14375 194.10521Q47.14375 192.01146 48.221874 190.85521Q49.3 189.69896 51.01875 189.69896Q52.675 189.69896 53.721874 190.83958Q54.784374 191.96458 54.784374 194.01146Q54.784374 194.13646 54.784374 194.38646L48.596874 194.38646Q48.675 195.76146 49.3625 196.49583Q50.065624 197.21458 51.096874 197.21458Q51.878124 197.21458 52.425 196.80833Q52.971874 196.40208 53.284374 195.51146ZM48.675 193.23021L53.3 193.23021Q53.20625 192.18333 52.76875 191.66771Q52.096874 190.85521 51.034374 190.85521Q50.065624 190.85521 49.39375 191.51146Q48.7375 192.15208 48.675 193.23021ZM56.596874 198.18333L56.596874 189.88646L57.8625 189.88646L57.8625 191.13646Q58.346874 190.26146 58.753124 189.98021Q59.159374 189.69896 59.659374 189.69896Q60.3625 189.69896 61.096874 190.15208L60.6125 191.44896Q60.096874 191.15208 59.58125 191.15208Q59.128124 191.15208 58.753124 191.43333Q58.39375 191.69896 58.2375 192.19896Q58.003124 192.94896 58.003124 193.83958L58.003124 198.18333L56.596874 198.18333ZM61.6125 201.37083L61.6125 189.88646L62.89375 189.88646L62.89375 190.96458Q63.346874 190.32396 63.909374 190.01146Q64.4875 189.69896 65.3 189.69896Q66.3625 189.69896 67.175 190.24583Q67.9875 190.79271 68.39375 191.79271Q68.81563 192.77708 68.81563 193.96458Q68.81563 195.24583 68.34688 196.26146Q67.89375 197.27708 67.01875 197.82396Q66.15938 198.37083 65.19063 198.37083Q64.4875 198.37083 63.925 198.07396Q63.378124 197.77708 63.01875 197.32396L63.01875 201.37083L61.6125 201.37083ZM62.878124 194.07396Q62.878124 195.68333 63.51875 196.44896Q64.175 197.21458 65.09688 197.21458Q66.03438 197.21458 66.70625 196.41771Q67.37813 195.62083 67.37813 193.96458Q67.37813 192.37083 66.72188 191.58958Q66.06563 190.79271 65.15938 190.79271Q64.26875 190.79271 63.565624 191.63646Q62.878124 192.48021 62.878124 194.07396ZM76.28438 195.51146L77.7375 195.68333Q77.39375 196.96458 76.45625 197.66771Q75.53438 198.37083 74.09688 198.37083Q72.26875 198.37083 71.20625 197.24583Q70.14375 196.12083 70.14375 194.10521Q70.14375 192.01146 71.22188 190.85521Q72.3 189.69896 74.01875 189.69896Q75.675 189.69896 76.72188 190.83958Q77.78438 191.96458 77.78438 194.01146Q77.78438 194.13646 77.78438 194.38646L71.59688 194.38646Q71.675 195.76146 72.3625 196.49583Q73.06563 197.21458 74.09688 197.21458Q74.87813 197.21458 75.425 196.80833Q75.97188 196.40208 76.28438 195.51146ZM71.675 193.23021L76.3 193.23021Q76.20625 192.18333 75.76875 191.66771Q75.09688 190.85521 74.03438 190.85521Q73.06563 190.85521 72.39375 191.51146Q71.7375 192.15208 71.675 193.23021ZM79.59688 198.18333L79.59688 189.88646L80.8625 189.88646L80.8625 191.13646Q81.34688 190.26146 81.75313 189.98021Q82.15938 189.69896 82.65938 189.69896Q83.3625 189.69896 84.09688 190.15208L83.6125 191.44896Q83.09688 191.15208 82.58125 191.15208Q82.12813 191.15208 81.75313 191.43333Q81.39375 191.69896 81.2375 192.19896Q81.00313 192.94896 81.00313 193.83958L81.00313 198.18333L79.59688 198.18333ZM84.94063 198.18333L84.94063 190.98021L83.70625 190.98021L83.70625 189.88646L84.94063 189.88646L84.94063 188.99583Q84.94063 188.16771 85.09688 187.76146Q85.3 187.21458 85.8 186.87083Q86.31563 186.52708 87.2375 186.52708Q87.83125 186.52708 88.55 186.66771L88.34688 187.90208Q87.90938 187.82396 87.51875 187.82396Q86.87813 187.82396 86.6125 188.10521Q86.34688 188.37083 86.34688 189.12083L86.34688 189.88646L87.95625 189.88646L87.95625 190.98021L86.34688 190.98021L86.34688 198.18333L84.94063 198.18333ZM88.08125 194.02708Q88.08125 191.73021 89.3625 190.62083Q90.44063 189.69896 91.97188 189.69896Q93.69063 189.69896 94.76875 190.82396Q95.8625 191.93333 95.8625 193.91771Q95.8625 195.51146 95.37813 196.43333Q94.89375 197.35521 93.97188 197.87083Q93.06563 198.37083 91.97188 198.37083Q90.2375 198.37083 89.15938 197.26146Q88.08125 196.13646 88.08125 194.02708ZM89.53438 194.02708Q89.53438 195.62083 90.22188 196.41771Q90.925 197.21458 91.97188 197.21458Q93.01875 197.21458 93.70625 196.41771Q94.40938 195.62083 94.40938 193.98021Q94.40938 192.44896 93.70625 191.65208Q93.01875 190.85521 91.97188 190.85521Q90.925 190.85521 90.22188 191.65208Q89.53438 192.43333 89.53438 194.02708ZM97.59688 198.18333L97.59688 189.88646L98.8625 189.88646L98.8625 191.13646Q99.34688 190.26146 99.75313 189.98021Q100.15938 189.69896 100.65938 189.69896Q101.3625 189.69896 102.09688 190.15208L101.6125 191.44896Q101.09688 191.15208 100.58125 191.15208Q100.12813 191.15208 99.75313 191.43333Q99.39375 191.69896 99.2375 192.19896Q99.00313 192.94896 99.00313 193.83958L99.00313 198.18333L97.59688 198.18333ZM102.6125 198.18333L102.6125 189.88646L103.8625 189.88646L103.8625 191.04271Q104.25313 190.43333 104.89375 190.07396Q105.55 189.69896 106.37813 189.69896Q107.3 189.69896 107.89375 190.08958Q108.4875 190.46458 108.72188 191.15208Q109.70625 189.69896 111.28438 189.69896Q112.51875 189.69896 113.175 190.38646Q113.84688 191.05833 113.84688 192.48021L113.84688 198.18333L112.45625 198.18333L112.45625 192.94896Q112.45625 192.10521 112.31563 191.74583Q112.175 191.37083 111.81563 191.15208Q111.45625 190.91771 110.97188 190.91771Q110.09688 190.91771 109.51875 191.49583Q108.94063 192.07396 108.94063 193.35521L108.94063 198.18333L107.53438 198.18333L107.53438 192.79271Q107.53438 191.85521 107.19063 191.38646Q106.84688 190.91771 106.06563 190.91771Q105.47188 190.91771 104.97188 191.23021Q104.47188 191.54271 104.2375 192.15208Q104.01875 192.74583 104.01875 193.87083L104.01875 198.18333L102.6125 198.18333ZM121.28438 195.51146L122.7375 195.68333Q122.39375 196.96458 121.45625 197.66771Q120.53438 198.37083 119.09688 198.37083Q117.26875 198.37083 116.20625 197.24583Q115.14375 196.12083 115.14375 194.10521Q115.14375 192.01146 116.22188 190.85521Q117.3 189.69896 119.01875 189.69896Q120.675 189.69896 121.72188 190.83958Q122.78438 191.96458 122.78438 194.01146Q122.78438 194.13646 122.78438 194.38646L116.59688 194.38646Q116.675 195.76146 117.3625 196.49583Q118.06563 197.21458 119.09688 197.21458Q119.87813 197.21458 120.425 196.80833Q120.97188 196.40208 121.28438 195.51146ZM116.675 193.23021L121.3 193.23021Q121.20625 192.18333 120.76875 191.66771Q120.09688 190.85521 119.03438 190.85521Q118.06563 190.85521 117.39375 191.51146Q116.7375 192.15208 116.675 193.23021ZM129.9875 198.18333L129.9875 197.13646Q129.20625 198.37083 127.675 198.37083Q126.675 198.37083 125.84688 197.82396Q125.01875 197.27708 124.55 196.29271Q124.09688 195.30833 124.09688 194.04271Q124.09688 192.79271 124.50313 191.79271Q124.925 190.77708 125.75313 190.24583Q126.58125 189.69896 127.6125 189.69896Q128.3625 189.69896 128.94063 190.01146Q129.53438 190.32396 129.89375 190.83958L129.89375 186.73021L131.3 186.73021L131.3 198.18333L129.9875 198.18333ZM125.55 194.04271Q125.55 195.63646 126.22188 196.43333Q126.89375 197.21458 127.8 197.21458Q128.72188 197.21458 129.3625 196.46458Q130.01875 195.69896 130.01875 194.15208Q130.01875 192.44896 129.3625 191.65208Q128.70625 190.85521 127.7375 190.85521Q126.8 190.85521 126.175 191.62083Q125.55 192.38646 125.55 194.04271Z" fill-rule="nonzero"/><path fill="#9e9e9e" d="M19.221874 217.18333L20.690624 217.05833Q20.8625 218.13646 21.45625 218.68333Q22.05 219.21458 22.89375 219.21458Q23.909374 219.21458 24.6125 218.44896Q25.315624 217.68333 25.315624 216.41771Q25.315624 215.21458 24.64375 214.52708Q23.971874 213.82396 22.878124 213.82396Q22.190624 213.82396 21.64375 214.13646Q21.096874 214.44896 20.784374 214.93333L19.471874 214.76146L20.58125 208.88646L26.26875 208.88646L26.26875 210.23021L21.70625 210.23021L21.08125 213.30833Q22.1125 212.58958 23.253124 212.58958Q24.753124 212.58958 25.784374 213.63646Q26.815624 214.66771 26.815624 216.29271Q26.815624 217.85521 25.909374 218.98021Q24.8 220.38646 22.89375 220.38646Q21.33125 220.38646 20.346874 219.51146Q19.3625 218.62083 19.221874 217.18333ZM28.221874 214.52708Q28.221874 212.49583 28.628124 211.26146Q29.05 210.02708 29.878124 209.35521Q30.70625 208.68333 31.95625 208.68333Q32.878124 208.68333 33.565624 209.05833Q34.26875 209.41771 34.721874 210.12083Q35.175 210.82396 35.425 211.82396Q35.690624 212.82396 35.690624 214.52708Q35.690624 216.54271 35.26875 217.79271Q34.8625 219.02708 34.034374 219.71458Q33.20625 220.38646 31.95625 220.38646Q30.3 220.38646 29.346874 219.18333Q28.221874 217.76146 28.221874 214.52708ZM29.659374 214.52708Q29.659374 217.35521 30.315624 218.29271Q30.9875 219.21458 31.95625 219.21458Q32.925 219.21458 33.58125 218.27708Q34.2375 217.33958 34.2375 214.52708Q34.2375 211.69896 33.58125 210.77708Q32.925 209.83958 31.940624 209.83958Q30.971874 209.83958 30.39375 210.66771Q29.659374 211.71458 29.659374 214.52708ZM38.003124 220.18333L38.003124 218.57396L39.6125 218.57396L39.6125 220.18333L38.003124 220.18333ZM41.221874 214.52708Q41.221874 212.49583 41.628124 211.26146Q42.05 210.02708 42.878124 209.35521Q43.70625 208.68333 44.95625 208.68333Q45.878124 208.68333 46.565624 209.05833Q47.26875 209.41771 47.721874 210.12083Q48.175 210.82396 48.425 211.82396Q48.690624 212.82396 48.690624 214.52708Q48.690624 216.54271 48.26875 217.79271Q47.8625 219.02708 47.034374 219.71458Q46.20625 220.38646 44.95625 220.38646Q43.3 220.38646 42.346874 219.18333Q41.221874 217.76146 41.221874 214.52708ZM42.659374 214.52708Q42.659374 217.35521 43.315624 218.29271Q43.9875 219.21458 44.95625 219.21458Q45.925 219.21458 46.58125 218.27708Q47.2375 217.33958 47.2375 214.52708Q47.2375 211.69896 46.58125 210.77708Q45.925 209.83958 44.940624 209.83958Q43.971874 209.83958 43.39375 210.66771Q42.659374 211.71458 42.659374 214.52708ZM50.4875 211.48021Q50.4875 210.24583 51.096874 209.38646Q51.721874 208.52708 52.89375 208.52708Q53.971874 208.52708 54.675 209.30833Q55.378124 210.07396 55.378124 211.55833Q55.378124 213.01146 54.659374 213.80833Q53.95625 214.58958 52.909374 214.58958Q51.8625 214.58958 51.175 213.82396Q50.4875 213.04271 50.4875 211.48021ZM52.925 209.49583Q52.409374 209.49583 52.05 209.94896Q51.70625 210.40208 51.70625 211.62083Q51.70625 212.71458 52.05 213.16771Q52.409374 213.62083 52.925 213.62083Q53.45625 213.62083 53.8 213.16771Q54.159374 212.71458 54.159374 211.51146Q54.159374 210.40208 53.8 209.94896Q53.45625 209.49583 52.925 209.49583ZM52.940624 220.60521L59.20625 208.52708L60.346874 208.52708L54.096874 220.60521L52.940624 220.60521ZM57.89375 217.49583Q57.89375 216.26146 58.503124 215.40208Q59.128124 214.54271 60.3 214.54271Q61.378124 214.54271 62.08125 215.32396Q62.8 216.08958 62.8 217.57396Q62.8 219.02708 62.08125 219.82396Q61.3625 220.60521 60.315624 220.60521Q59.26875 220.60521 58.58125 219.82396Q57.89375 219.04271 57.89375 217.49583ZM60.346874 215.51146Q59.815624 215.51146 59.45625 215.96458Q59.1125 216.41771 59.1125 217.63646Q59.1125 218.73021 59.45625 219.18333Q59.815624 219.63646 60.33125 219.63646Q60.878124 219.63646 61.221874 219.18333Q61.565624 218.73021 61.565624 217.52708Q61.565624 216.41771 61.20625 215.96458Q60.8625 215.51146 60.346874 215.51146Z" fill-rule="nonzero"/><path stroke="#757575" stroke-width="1.0" stroke-linecap="butt" d="M18.55 203.68333L145.23334 203.68333L158.67166 203.68333" fill-rule="nonzero"/><path fill="#9e9e9e" d="M160.67166 203.68333C160.67166 202.57877 159.77623 201.68333 158.67166 201.68333C157.5671 201.68333 156.67166 202.57877 156.67166 203.68333C156.67166 204.7879 157.5671 205.68333 158.67166 205.68333C159.77623 205.68333 160.67166 204.7879 160.67166 203.68333" fill-rule="nonzero"/><path fill="#1a1a1a" d="M477.23126 70.21128Q477.23126 67.351906 478.7625 65.74253Q480.29376 64.133156 482.71564 64.133156Q484.29376 64.133156 485.5594 64.89878Q486.84064 65.64878 487.5125 67.008156Q488.1844 68.351906 488.1844 70.070656Q488.1844 71.820656 487.48126 73.195656Q486.77814 74.570656 485.48126 75.289406Q484.2 75.99253 482.7 75.99253Q481.09064 75.99253 479.8094 75.21128Q478.54376 74.414406 477.8875 73.070656Q477.23126 71.71128 477.23126 70.21128ZM478.79376 70.226906Q478.79376 72.30503 479.90314 73.49253Q481.0125 74.68003 482.7 74.68003Q484.40314 74.68003 485.5125 73.476906Q486.6219 72.27378 486.6219 70.070656Q486.6219 68.664406 486.1375 67.633156Q485.66876 66.58628 484.7625 66.008156Q483.85626 65.43003 482.71564 65.43003Q481.10626 65.43003 479.95 66.539406Q478.79376 67.64878 478.79376 70.226906ZM491.8094 75.789406L488.65314 67.49253L490.1375 67.49253L491.91876 72.46128Q492.21564 73.258156 492.45 74.133156Q492.6375 73.476906 492.98126 72.55503L494.825 67.49253L496.2625 67.49253L493.1219 75.789406L491.8094 75.789406ZM502.1844 73.11753L503.6375 73.289406Q503.29376 74.570656 502.35626 75.27378Q501.4344 75.976906 499.9969 75.976906Q498.16876 75.976906 497.10626 74.851906Q496.04376 73.726906 496.04376 71.71128Q496.04376 69.61753 497.1219 68.46128Q498.2 67.30503 499.91876 67.30503Q501.575 67.30503 502.6219 68.445656Q503.6844 69.570656 503.6844 71.61753Q503.6844 71.74253 503.6844 71.99253L497.4969 71.99253Q497.575 73.36753 498.2625 74.101906Q498.96564 74.820656 499.9969 74.820656Q500.77814 74.820656 501.325 74.414406Q501.8719 74.008156 502.1844 73.11753ZM497.575 70.83628L502.2 70.83628Q502.10626 69.789406 501.66876 69.27378Q500.9969 68.46128 499.9344 68.46128Q498.96564 68.46128 498.29376 69.11753Q497.6375 69.758156 497.575 70.83628ZM505.4969 75.789406L505.4969 67.49253L506.7625 67.49253L506.7625 68.74253Q507.2469 67.86753 507.65314 67.58628Q508.0594 67.30503 508.5594 67.30503Q509.2625 67.30503 509.9969 67.758156L509.5125 69.05503Q508.9969 68.758156 508.48126 68.758156Q508.02814 68.758156 507.65314 69.039406Q507.29376 69.30503 507.1375 69.80503Q506.90314 70.55503 506.90314 71.445656L506.90314 75.789406L505.4969 75.789406ZM510.5125 78.976906L510.5125 67.49253L511.79376 67.49253L511.79376 68.570656Q512.2469 67.93003 512.8094 67.61753Q513.3875 67.30503 514.2 67.30503Q515.2625 67.30503 516.075 67.851906Q516.8875 68.39878 517.29376 69.39878Q517.71564 70.383156 517.71564 71.570656Q517.71564 72.851906 517.2469 73.86753Q516.79376 74.883156 515.91876 75.43003Q515.0594 75.976906 514.09064 75.976906Q513.3875 75.976906 512.825 75.68003Q512.27814 75.383156 511.91876 74.93003L511.91876 78.976906L510.5125 78.976906ZM511.77814 71.68003Q511.77814 73.289406 512.41876 74.05503Q513.075 74.820656 513.9969 74.820656Q514.9344 74.820656 515.60626 74.02378Q516.27814 73.226906 516.27814 71.570656Q516.27814 69.976906 515.6219 69.195656Q514.96564 68.39878 514.0594 68.39878Q513.16876 68.39878 512.46564 69.24253Q511.77814 70.08628 511.77814 71.68003ZM525.1844 73.11753L526.6375 73.289406Q526.29376 74.570656 525.35626 75.27378Q524.4344 75.976906 522.9969 75.976906Q521.16876 75.976906 520.10626 74.851906Q519.04376 73.726906 519.04376 71.71128Q519.04376 69.61753 520.1219 68.46128Q521.2 67.30503 522.91876 67.30503Q524.575 67.30503 525.6219 68.445656Q526.6844 69.570656 526.6844 71.61753Q526.6844 71.74253 526.6844 71.99253L520.4969 71.99253Q520.575 73.36753 521.2625 74.101906Q521.96564 74.820656 522.9969 74.820656Q523.77814 74.820656 524.325 74.414406Q524.8719 74.008156 525.1844 73.11753ZM520.575 70.83628L525.2 70.83628Q525.10626 69.789406 524.66876 69.27378Q523.9969 68.46128 522.9344 68.46128Q521.96564 68.46128 521.29376 69.11753Q520.6375 69.758156 520.575 70.83628ZM528.4969 75.789406L528.4969 67.49253L529.7625 67.49253L529.7625 68.74253Q530.2469 67.86753 530.65314 67.58628Q531.0594 67.30503 531.5594 67.30503Q532.2625 67.30503 532.9969 67.758156L532.5125 69.05503Q531.9969 68.758156 531.48126 68.758156Q531.02814 68.758156 530.65314 69.039406Q530.29376 69.30503 530.1375 69.80503Q529.90314 70.55503 529.90314 71.445656L529.90314 75.789406L528.4969 75.789406ZM533.84064 75.789406L533.84064 68.58628L532.60626 68.58628L532.60626 67.49253L533.84064 67.49253L533.84064 66.601906Q533.84064 65.77378 533.9969 65.36753Q534.2 64.820656 534.7 64.476906Q535.21564 64.133156 536.1375 64.133156Q536.73126 64.133156 537.45 64.27378L537.2469 65.508156Q536.8094 65.43003 536.41876 65.43003Q535.77814 65.43003 535.5125 65.71128Q535.2469 65.976906 535.2469 66.726906L535.2469 67.49253L536.85626 67.49253L536.85626 68.58628L535.2469 68.58628L535.2469 75.789406L533.84064 75.789406ZM536.98126 71.633156Q536.98126 69.33628 538.2625 68.226906Q539.34064 67.30503 540.8719 67.30503Q542.59064 67.30503 543.66876 68.43003Q544.7625 69.539406 544.7625 71.52378Q544.7625 73.11753 544.27814 74.039406Q543.79376 74.96128 542.8719 75.476906Q541.96564 75.976906 540.8719 75.976906Q539.1375 75.976906 538.0594 74.86753Q536.98126 73.74253 536.98126 71.633156ZM538.4344 71.633156Q538.4344 73.226906 539.1219 74.02378Q539.825 74.820656 540.8719 74.820656Q541.91876 74.820656 542.60626 74.02378Q543.3094 73.226906 543.3094 71.58628Q543.3094 70.05503 542.60626 69.258156Q541.91876 68.46128 540.8719 68.46128Q539.825 68.46128 539.1219 69.258156Q538.4344 70.039406 538.4344 71.633156ZM546.4969 75.789406L546.4969 67.49253L547.7625 67.49253L547.7625 68.74253Q548.2469 67.86753 548.65314 67.58628Q549.0594 67.30503 549.5594 67.30503Q550.2625 67.30503 550.9969 67.758156L550.5125 69.05503Q549.9969 68.758156 549.48126 68.758156Q549.02814 68.758156 548.65314 69.039406Q548.29376 69.30503 548.1375 69.80503Q547.90314 70.55503 547.90314 71.445656L547.90314 75.789406L546.4969 75.789406ZM551.5125 75.789406L551.5125 67.49253L552.7625 67.49253L552.7625 68.64878Q553.15314 68.039406 553.79376 67.68003Q554.45 67.30503 555.27814 67.30503Q556.2 67.30503 556.79376 67.695656Q557.3875 68.070656 557.6219 68.758156Q558.60626 67.30503 560.1844 67.30503Q561.41876 67.30503 562.075 67.99253Q562.7469 68.664406 562.7469 70.08628L562.7469 75.789406L561.35626 75.789406L561.35626 70.55503Q561.35626 69.71128 561.21564 69.351906Q561.075 68.976906 560.71564 68.758156Q560.35626 68.52378 559.8719 68.52378Q558.9969 68.52378 558.41876 69.101906Q557.84064 69.68003 557.84064 70.96128L557.84064 75.789406L556.4344 75.789406L556.4344 70.39878Q556.4344 69.46128 556.09064 68.99253Q555.7469 68.52378 554.96564 68.52378Q554.3719 68.52378 553.8719 68.83628Q553.3719 69.14878 553.1375 69.758156Q552.91876 70.351906 552.91876 71.476906L552.91876 75.789406L551.5125 75.789406ZM570.1844 73.11753L571.6375 73.289406Q571.29376 74.570656 570.35626 75.27378Q569.4344 75.976906 567.9969 75.976906Q566.16876 75.976906 565.10626 74.851906Q564.04376 73.726906 564.04376 71.71128Q564.04376 69.61753 565.1219 68.46128Q566.2 67.30503 567.91876 67.30503Q569.575 67.30503 570.6219 68.445656Q571.6844 69.570656 571.6844 71.61753Q571.6844 71.74253 571.6844 71.99253L565.4969 71.99253Q565.575 73.36753 566.2625 74.101906Q566.96564 74.820656 567.9969 74.820656Q568.77814 74.820656 569.325 74.414406Q569.8719 74.008156 570.1844 73.11753ZM565.575 70.83628L570.2 70.83628Q570.10626 69.789406 569.66876 69.27378Q568.9969 68.46128 567.9344 68.46128Q566.96564 68.46128 566.29376 69.11753Q565.6375 69.758156 565.575 70.83628ZM578.8875 75.789406L578.8875 74.74253Q578.10626 75.976906 576.575 75.976906Q575.575 75.976906 574.7469 75.43003Q573.91876 74.883156 573.45 73.89878Q572.9969 72.914406 572.9969 71.64878Q572.9969 70.39878 573.40314 69.39878Q573.825 68.383156 574.65314 67.851906Q575.48126 67.30503 576.5125 67.30503Q577.2625 67.30503 577.84064 67.61753Q578.4344 67.93003 578.79376 68.445656L578.79376 64.33628L580.2 64.33628L580.2 75.789406L578.8875 75.789406ZM574.45 71.64878Q574.45 73.24253 575.1219 74.039406Q575.79376 74.820656 576.7 74.820656Q577.6219 74.820656 578.2625 74.070656Q578.91876 73.30503 578.91876 71.758156Q578.91876 70.05503 578.2625 69.258156Q577.60626 68.46128 576.6375 68.46128Q575.7 68.46128 575.075 69.226906Q574.45 69.99253 574.45 71.64878Z" fill-rule="nonzero"/><path fill="#9e9e9e" d="M542.41876 97.789406L541.0125 97.789406L541.0125 88.820656Q540.4969 89.30503 539.66876 89.789406Q538.85626 90.27378 538.2 90.52378L538.2 89.164406Q539.3719 88.601906 540.2469 87.820656Q541.1375 87.02378 541.5125 86.289406L542.41876 86.289406L542.41876 97.789406ZM553.41876 89.133156L552.0125 89.24253Q551.825 88.414406 551.48126 88.039406Q550.91876 87.445656 550.075 87.445656Q549.40314 87.445656 548.90314 87.820656Q548.23126 88.30503 547.84064 89.24253Q547.46564 90.164406 547.45 91.883156Q547.96564 91.101906 548.7 90.726906Q549.4344 90.351906 550.23126 90.351906Q551.6375 90.351906 552.6219 91.39878Q553.6219 92.43003 553.6219 94.070656Q553.6219 95.14878 553.15314 96.070656Q552.6844 96.99253 551.8719 97.49253Q551.0594 97.99253 550.02814 97.99253Q548.27814 97.99253 547.16876 96.695656Q546.0594 95.39878 546.0594 92.43003Q546.0594 89.101906 547.27814 87.601906Q548.35626 86.289406 550.16876 86.289406Q551.5125 86.289406 552.3719 87.05503Q553.2469 87.80503 553.41876 89.133156ZM547.66876 94.070656Q547.66876 94.80503 547.98126 95.476906Q548.29376 96.133156 548.84064 96.476906Q549.40314 96.820656 550.0125 96.820656Q550.90314 96.820656 551.54376 96.101906Q552.1844 95.383156 552.1844 94.14878Q552.1844 92.96128 551.54376 92.289406Q550.91876 91.601906 549.95 91.601906Q548.9969 91.601906 548.325 92.289406Q547.66876 92.96128 547.66876 94.070656ZM555.90314 97.789406L555.90314 96.18003L557.5125 96.18003L557.5125 97.789406L555.90314 97.789406ZM559.21564 87.83628L559.21564 86.476906L566.6219 86.476906L566.6219 87.570656Q565.52814 88.74253 564.45 90.68003Q563.3875 92.601906 562.79376 94.633156Q562.3719 96.070656 562.2625 97.789406L560.8094 97.789406Q560.84064 96.43003 561.34064 94.52378Q561.85626 92.601906 562.79376 90.83628Q563.7469 89.05503 564.825 87.83628L559.21564 87.83628ZM568.3875 89.08628Q568.3875 87.851906 568.9969 86.99253Q569.6219 86.133156 570.79376 86.133156Q571.8719 86.133156 572.575 86.914406Q573.27814 87.68003 573.27814 89.164406Q573.27814 90.61753 572.5594 91.414406Q571.85626 92.195656 570.8094 92.195656Q569.7625 92.195656 569.075 91.43003Q568.3875 90.64878 568.3875 89.08628ZM570.825 87.101906Q570.3094 87.101906 569.95 87.55503Q569.60626 88.008156 569.60626 89.226906Q569.60626 90.320656 569.95 90.77378Q570.3094 91.226906 570.825 91.226906Q571.35626 91.226906 571.7 90.77378Q572.0594 90.320656 572.0594 89.11753Q572.0594 88.008156 571.7 87.55503Q571.35626 87.101906 570.825 87.101906ZM570.84064 98.21128L577.10626 86.133156L578.2469 86.133156L571.9969 98.21128L570.84064 98.21128ZM575.79376 95.101906Q575.79376 93.86753 576.40314 93.008156Q577.02814 92.14878 578.2 92.14878Q579.27814 92.14878 579.98126 92.93003Q580.7 93.695656 580.7 95.18003Q580.7 96.633156 579.98126 97.43003Q579.2625 98.21128 578.21564 98.21128Q577.16876 98.21128 576.48126 97.43003Q575.79376 96.64878 575.79376 95.101906ZM578.2469 93.11753Q577.71564 93.11753 577.35626 93.570656Q577.0125 94.02378 577.0125 95.24253Q577.0125 96.33628 577.35626 96.789406Q577.71564 97.24253 578.23126 97.24253Q578.77814 97.24253 579.1219 96.789406Q579.46564 96.33628 579.46564 95.133156Q579.46564 94.02378 579.10626 93.570656Q578.7625 93.11753 578.2469 93.11753Z" fill-rule="nonzero"/><path stroke="#757575" stroke-width="1.0" stroke-linecap="butt" d="M581.45 81.289406L454.76666 81.289406L370.66415 81.289406" fill-rule="nonzero"/><path fill="#9e9e9e" d="M372.66415 81.289406C372.66415 80.18484 371.76874 79.289406 370.66415 79.289406C369.5596 79.289406 368.66415 80.18484 368.66415 81.289406C368.66415 82.393974 369.5596 83.289406 370.66415 83.289406C371.76874 83.289406 372.66415 82.393974 372.66415 81.289406" fill-rule="nonzero"/><path fill="#1a1a1a" d="M500.16876 265.16L501.60626 265.035Q501.7 265.89438 502.075 266.45688Q502.45 267.00375 503.23126 267.3475Q504.0125 267.67563 504.98126 267.67563Q505.85626 267.67563 506.5125 267.42563Q507.1844 267.16 507.4969 266.7225Q507.825 266.26938 507.825 265.73813Q507.825 265.19125 507.5125 264.80063Q507.2 264.39438 506.48126 264.11313Q506.02814 263.94125 504.45 263.56625Q502.8719 263.17563 502.23126 262.8475Q501.41876 262.41 501.0125 261.785Q500.60626 261.14438 500.60626 260.3475Q500.60626 259.48813 501.09064 258.73813Q501.59064 257.9725 502.52814 257.58188Q503.48126 257.19125 504.6375 257.19125Q505.91876 257.19125 506.8875 257.61313Q507.85626 258.01938 508.3719 258.81625Q508.90314 259.61313 508.95 260.61313L507.4969 260.7225Q507.3719 259.64438 506.7 259.0975Q506.02814 258.535 504.7 258.535Q503.325 258.535 502.7 259.035Q502.075 259.535 502.075 260.25375Q502.075 260.86313 502.5125 261.26938Q502.95 261.66 504.79376 262.08188Q506.65314 262.50375 507.34064 262.81625Q508.34064 263.26938 508.8094 263.98813Q509.29376 264.69125 509.29376 265.61313Q509.29376 266.51938 508.7625 267.33188Q508.2469 268.14438 507.2625 268.5975Q506.27814 269.05063 505.0594 269.05063Q503.4969 269.05063 502.45 268.5975Q501.40314 268.12875 500.79376 267.2225Q500.2 266.31625 500.16876 265.16ZM516.91876 267.81625Q516.1375 268.48813 515.41876 268.76938Q514.7 269.035 513.8719 269.035Q512.4969 269.035 511.7625 268.36313Q511.02814 267.69125 511.02814 266.66Q511.02814 266.05063 511.3094 265.55063Q511.59064 265.035 512.02814 264.73813Q512.48126 264.42563 513.04376 264.26938Q513.46564 264.16 514.29376 264.06625Q515.9969 263.86313 516.8094 263.58188Q516.8094 263.285 516.8094 263.20688Q516.8094 262.3475 516.41876 262.00375Q515.8719 261.51938 514.8094 261.51938Q513.825 261.51938 513.34064 261.87875Q512.8719 262.2225 512.65314 263.0975L511.27814 262.91Q511.46564 262.035 511.8875 261.48813Q512.325 260.94125 513.1375 260.66Q513.95 260.36313 515.0125 260.36313Q516.075 260.36313 516.73126 260.61313Q517.40314 260.86313 517.71564 261.23813Q518.02814 261.61313 518.15314 262.19125Q518.23126 262.55063 518.23126 263.48813L518.23126 265.36313Q518.23126 267.33188 518.3094 267.8475Q518.40314 268.36313 518.66876 268.8475L517.2 268.8475Q516.98126 268.41 516.91876 267.81625ZM516.8094 264.67563Q516.04376 264.98813 514.5125 265.20688Q513.6375 265.33188 513.27814 265.48813Q512.91876 265.64438 512.71564 265.95688Q512.52814 266.25375 512.52814 266.61313Q512.52814 267.17563 512.95 267.55063Q513.3875 267.92563 514.2 267.92563Q515.0125 267.92563 515.6375 267.58188Q516.27814 267.2225 516.575 266.5975Q516.8094 266.12875 516.8094 265.19125L516.8094 264.67563ZM523.575 267.58188L523.77814 268.83188Q523.1844 268.95688 522.71564 268.95688Q521.95 268.95688 521.52814 268.7225Q521.10626 268.4725 520.9344 268.08188Q520.7625 267.67563 520.7625 266.41L520.7625 261.64438L519.73126 261.64438L519.73126 260.55063L520.7625 260.55063L520.7625 258.48813L522.16876 257.64438L522.16876 260.55063L523.575 260.55063L523.575 261.64438L522.16876 261.64438L522.16876 266.48813Q522.16876 267.0975 522.23126 267.26938Q522.3094 267.44125 522.48126 267.55063Q522.65314 267.64438 522.96564 267.64438Q523.2 267.64438 523.575 267.58188ZM524.5125 259.00375L524.5125 257.39438L525.91876 257.39438L525.91876 259.00375L524.5125 259.00375ZM524.5125 268.8475L524.5125 260.55063L525.91876 260.55063L525.91876 268.8475L524.5125 268.8475ZM527.95 266.36313L529.34064 266.14438Q529.45 266.98813 529.98126 267.44125Q530.52814 267.87875 531.48126 267.87875Q532.45 267.87875 532.91876 267.48813Q533.3875 267.08188 533.3875 266.55063Q533.3875 266.08188 532.98126 265.80063Q532.6844 265.61313 531.54376 265.33188Q529.9969 264.94125 529.3875 264.66Q528.79376 264.36313 528.48126 263.86313Q528.1844 263.36313 528.1844 262.75375Q528.1844 262.19125 528.4344 261.7225Q528.6844 261.25375 529.1219 260.94125Q529.45 260.69125 530.0125 260.535Q530.59064 260.36313 531.23126 260.36313Q532.21564 260.36313 532.95 260.64438Q533.6844 260.92563 534.02814 261.41Q534.3875 261.87875 534.52814 262.69125L533.15314 262.87875Q533.0594 262.23813 532.60626 261.87875Q532.15314 261.51938 531.34064 261.51938Q530.3719 261.51938 529.95 261.8475Q529.54376 262.16 529.54376 262.58188Q529.54376 262.86313 529.71564 263.08188Q529.8875 263.30063 530.2469 263.45688Q530.46564 263.535 531.4969 263.81625Q532.98126 264.20688 533.575 264.4725Q534.16876 264.7225 534.4969 265.20688Q534.84064 265.69125 534.84064 266.41Q534.84064 267.11313 534.41876 267.73813Q534.0125 268.3475 533.23126 268.69125Q532.46564 269.035 531.4969 269.035Q529.8719 269.035 529.02814 268.36313Q528.1844 267.69125 527.95 266.36313ZM536.84064 268.8475L536.84064 261.64438L535.60626 261.64438L535.60626 260.55063L536.84064 260.55063L536.84064 259.66Q536.84064 258.83188 536.9969 258.42563Q537.2 257.87875 537.7 257.535Q538.21564 257.19125 539.1375 257.19125Q539.73126 257.19125 540.45 257.33188L540.2469 258.56625Q539.8094 258.48813 539.41876 258.48813Q538.77814 258.48813 538.5125 258.76938Q538.2469 259.035 538.2469 259.785L538.2469 260.55063L539.85626 260.55063L539.85626 261.64438L538.2469 261.64438L538.2469 268.8475L536.84064 268.8475ZM545.91876 267.81625Q545.1375 268.48813 544.41876 268.76938Q543.7 269.035 542.8719 269.035Q541.4969 269.035 540.7625 268.36313Q540.02814 267.69125 540.02814 266.66Q540.02814 266.05063 540.3094 265.55063Q540.59064 265.035 541.02814 264.73813Q541.48126 264.42563 542.04376 264.26938Q542.46564 264.16 543.29376 264.06625Q544.9969 263.86313 545.8094 263.58188Q545.8094 263.285 545.8094 263.20688Q545.8094 262.3475 545.41876 262.00375Q544.8719 261.51938 543.8094 261.51938Q542.825 261.51938 542.34064 261.87875Q541.8719 262.2225 541.65314 263.0975L540.27814 262.91Q540.46564 262.035 540.8875 261.48813Q541.325 260.94125 542.1375 260.66Q542.95 260.36313 544.0125 260.36313Q545.075 260.36313 545.73126 260.61313Q546.40314 260.86313 546.71564 261.23813Q547.02814 261.61313 547.15314 262.19125Q547.23126 262.55063 547.23126 263.48813L547.23126 265.36313Q547.23126 267.33188 547.3094 267.8475Q547.40314 268.36313 547.66876 268.8475L546.2 268.8475Q545.98126 268.41 545.91876 267.81625ZM545.8094 264.67563Q545.04376 264.98813 543.5125 265.20688Q542.6375 265.33188 542.27814 265.48813Q541.91876 265.64438 541.71564 265.95688Q541.52814 266.25375 541.52814 266.61313Q541.52814 267.17563 541.95 267.55063Q542.3875 267.92563 543.2 267.92563Q544.0125 267.92563 544.6375 267.58188Q545.27814 267.2225 545.575 266.5975Q545.8094 266.12875 545.8094 265.19125L545.8094 264.67563ZM554.91876 265.80063L556.3094 265.98813Q556.075 267.41 555.1375 268.2225Q554.21564 269.035 552.85626 269.035Q551.15314 269.035 550.10626 267.92563Q549.075 266.80063 549.075 264.7225Q549.075 263.37875 549.5125 262.37875Q549.96564 261.36313 550.8719 260.86313Q551.79376 260.36313 552.85626 260.36313Q554.21564 260.36313 555.075 261.05063Q555.9344 261.7225 556.16876 262.98813L554.8094 263.19125Q554.60626 262.36313 554.10626 261.94125Q553.6219 261.51938 552.91876 261.51938Q551.85626 261.51938 551.1844 262.285Q550.52814 263.035 550.52814 264.69125Q550.52814 266.36313 551.16876 267.12875Q551.8094 267.87875 552.84064 267.87875Q553.66876 267.87875 554.21564 267.37875Q554.77814 266.86313 554.91876 265.80063ZM560.575 267.58188L560.77814 268.83188Q560.1844 268.95688 559.71564 268.95688Q558.95 268.95688 558.52814 268.7225Q558.10626 268.4725 557.9344 268.08188Q557.7625 267.67563 557.7625 266.41L557.7625 261.64438L556.73126 261.64438L556.73126 260.55063L557.7625 260.55063L557.7625 258.48813L559.16876 257.64438L559.16876 260.55063L560.575 260.55063L560.575 261.64438L559.16876 261.64438L559.16876 266.48813Q559.16876 267.0975 559.23126 267.26938Q559.3094 267.44125 559.48126 267.55063Q559.65314 267.64438 559.96564 267.64438Q560.2 267.64438 560.575 267.58188ZM560.98126 264.69125Q560.98126 262.39438 562.2625 261.285Q563.34064 260.36313 564.8719 260.36313Q566.59064 260.36313 567.66876 261.48813Q568.7625 262.5975 568.7625 264.58188Q568.7625 266.17563 568.27814 267.0975Q567.79376 268.01938 566.8719 268.535Q565.96564 269.035 564.8719 269.035Q563.1375 269.035 562.0594 267.92563Q560.98126 266.80063 560.98126 264.69125ZM562.4344 264.69125Q562.4344 266.285 563.1219 267.08188Q563.825 267.87875 564.8719 267.87875Q565.91876 267.87875 566.60626 267.08188Q567.3094 266.285 567.3094 264.64438Q567.3094 263.11313 566.60626 262.31625Q565.91876 261.51938 564.8719 261.51938Q563.825 261.51938 563.1219 262.31625Q562.4344 263.0975 562.4344 264.69125ZM570.4969 268.8475L570.4969 260.55063L571.7625 260.55063L571.7625 261.80063Q572.2469 260.92563 572.65314 260.64438Q573.0594 260.36313 573.5594 260.36313Q574.2625 260.36313 574.9969 260.81625L574.5125 262.11313Q573.9969 261.81625 573.48126 261.81625Q573.02814 261.81625 572.65314 262.0975Q572.29376 262.36313 572.1375 262.86313Q571.90314 263.61313 571.90314 264.50375L571.90314 268.8475L570.4969 268.8475ZM575.45 272.05063L575.29376 270.7225Q575.7469 270.8475 576.09064 270.8475Q576.5594 270.8475 576.84064 270.69125Q577.1219 270.535 577.3094 270.25375Q577.4344 270.05063 577.73126 269.20688Q577.77814 269.0975 577.85626 268.86313L574.71564 260.55063L576.23126 260.55063L577.95 265.3475Q578.29376 266.26938 578.5594 267.26938Q578.79376 266.30063 579.1375 265.37875L580.90314 260.55063L582.3094 260.55063L579.15314 268.98813Q578.65314 270.36313 578.3719 270.87875Q577.9969 271.56625 577.5125 271.89438Q577.02814 272.2225 576.35626 272.2225Q575.95 272.2225 575.45 272.05063Z" fill-rule="nonzero"/><path fill="#9e9e9e" d="M537.1219 287.81625L538.52814 287.62875Q538.77814 288.83188 539.35626 289.36313Q539.9344 289.87875 540.77814 289.87875Q541.7625 289.87875 542.45 289.19125Q543.1375 288.50375 543.1375 287.48813Q543.1375 286.51938 542.4969 285.89438Q541.8719 285.26938 540.8875 285.26938Q540.4969 285.26938 539.90314 285.42563L540.0594 284.19125Q540.2 284.20688 540.27814 284.20688Q541.1844 284.20688 541.90314 283.73813Q542.6219 283.26938 542.6219 282.285Q542.6219 281.51938 542.09064 281.01938Q541.575 280.50375 540.7469 280.50375Q539.91876 280.50375 539.3719 281.01938Q538.825 281.535 538.66876 282.56625L537.2625 282.31625Q537.52814 280.89438 538.4344 280.12875Q539.35626 279.3475 540.71564 279.3475Q541.65314 279.3475 542.4344 279.75375Q543.23126 280.14438 543.6375 280.8475Q544.0594 281.535 544.0594 282.31625Q544.0594 283.06625 543.65314 283.67563Q543.2625 284.285 542.48126 284.64438Q543.4969 284.87875 544.0594 285.61313Q544.6219 286.3475 544.6219 287.45688Q544.6219 288.95688 543.52814 290.00375Q542.4344 291.05063 540.7625 291.05063Q539.2625 291.05063 538.2625 290.16Q537.2625 289.25375 537.1219 287.81625ZM546.1219 287.81625L547.52814 287.62875Q547.77814 288.83188 548.35626 289.36313Q548.9344 289.87875 549.77814 289.87875Q550.7625 289.87875 551.45 289.19125Q552.1375 288.50375 552.1375 287.48813Q552.1375 286.51938 551.4969 285.89438Q550.8719 285.26938 549.8875 285.26938Q549.4969 285.26938 548.90314 285.42563L549.0594 284.19125Q549.2 284.20688 549.27814 284.20688Q550.1844 284.20688 550.90314 283.73813Q551.6219 283.26938 551.6219 282.285Q551.6219 281.51938 551.09064 281.01938Q550.575 280.50375 549.7469 280.50375Q548.91876 280.50375 548.3719 281.01938Q547.825 281.535 547.66876 282.56625L546.2625 282.31625Q546.52814 280.89438 547.4344 280.12875Q548.35626 279.3475 549.71564 279.3475Q550.65314 279.3475 551.4344 279.75375Q552.23126 280.14438 552.6375 280.8475Q553.0594 281.535 553.0594 282.31625Q553.0594 283.06625 552.65314 283.67563Q552.2625 284.285 551.48126 284.64438Q552.4969 284.87875 553.0594 285.61313Q553.6219 286.3475 553.6219 287.45688Q553.6219 288.95688 552.52814 290.00375Q551.4344 291.05063 549.7625 291.05063Q548.2625 291.05063 547.2625 290.16Q546.2625 289.25375 546.1219 287.81625ZM555.90314 290.8475L555.90314 289.23813L557.5125 289.23813L557.5125 290.8475L555.90314 290.8475ZM559.1219 287.81625L560.52814 287.62875Q560.77814 288.83188 561.35626 289.36313Q561.9344 289.87875 562.77814 289.87875Q563.7625 289.87875 564.45 289.19125Q565.1375 288.50375 565.1375 287.48813Q565.1375 286.51938 564.4969 285.89438Q563.8719 285.26938 562.8875 285.26938Q562.4969 285.26938 561.90314 285.42563L562.0594 284.19125Q562.2 284.20688 562.27814 284.20688Q563.1844 284.20688 563.90314 283.73813Q564.6219 283.26938 564.6219 282.285Q564.6219 281.51938 564.09064 281.01938Q563.575 280.50375 562.7469 280.50375Q561.91876 280.50375 561.3719 281.01938Q560.825 281.535 560.66876 282.56625L559.2625 282.31625Q559.52814 280.89438 560.4344 280.12875Q561.35626 279.3475 562.71564 279.3475Q563.65314 279.3475 564.4344 279.75375Q565.23126 280.14438 565.6375 280.8475Q566.0594 281.535 566.0594 282.31625Q566.0594 283.06625 565.65314 283.67563Q565.2625 284.285 564.48126 284.64438Q565.4969 284.87875 566.0594 285.61313Q566.6219 286.3475 566.6219 287.45688Q566.6219 288.95688 565.52814 290.00375Q564.4344 291.05063 562.7625 291.05063Q561.2625 291.05063 560.2625 290.16Q559.2625 289.25375 559.1219 287.81625ZM568.3875 282.14438Q568.3875 280.91 568.9969 280.05063Q569.6219 279.19125 570.79376 279.19125Q571.8719 279.19125 572.575 279.9725Q573.27814 280.73813 573.27814 282.2225Q573.27814 283.67563 572.5594 284.4725Q571.85626 285.25375 570.8094 285.25375Q569.7625 285.25375 569.075 284.48813Q568.3875 283.70688 568.3875 282.14438ZM570.825 280.16Q570.3094 280.16 569.95 280.61313Q569.60626 281.06625 569.60626 282.285Q569.60626 283.37875 569.95 283.83188Q570.3094 284.285 570.825 284.285Q571.35626 284.285 571.7 283.83188Q572.0594 283.37875 572.0594 282.17563Q572.0594 281.06625 571.7 280.61313Q571.35626 280.16 570.825 280.16ZM570.84064 291.26938L577.10626 279.19125L578.2469 279.19125L571.9969 291.26938L570.84064 291.26938ZM575.79376 288.16Q575.79376 286.92563 576.40314 286.06625Q577.02814 285.20688 578.2 285.20688Q579.27814 285.20688 579.98126 285.98813Q580.7 286.75375 580.7 288.23813Q580.7 289.69125 579.98126 290.48813Q579.2625 291.26938 578.21564 291.26938Q577.16876 291.26938 576.48126 290.48813Q575.79376 289.70688 575.79376 288.16ZM578.2469 286.17563Q577.71564 286.17563 577.35626 286.62875Q577.0125 287.08188 577.0125 288.30063Q577.0125 289.39438 577.35626 289.8475Q577.71564 290.30063 578.23126 290.30063Q578.77814 290.30063 579.1219 289.8475Q579.46564 289.39438 579.46564 288.19125Q579.46564 287.08188 579.10626 286.62875Q578.7625 286.17563 578.2469 286.17563Z" fill-rule="nonzero"/><path stroke="#757575" stroke-width="1.0" stroke-linecap="butt" d="M581.45 274.3475L454.76666 274.3475L422.39392 274.3475" fill-rule="nonzero"/><path fill="#9e9e9e" d="M424.39392 274.3475C424.39392 273.24292 423.4985 272.3475 422.39392 272.3475C421.28937 272.3475 420.39392 273.24292 420.39392 274.3475C420.39392 275.45206 421.28937 276.3475 422.39392 276.3475C423.4985 276.3475 424.39392 275.45206 424.39392 274.3475" fill-rule="nonzero"/><path fill="#000000" d="M20.096874 37.55L20.096874 23.2375L25.01875 23.2375Q26.690624 23.2375 27.58125 23.440624Q28.8 23.721874 29.675 24.45625Q30.8 25.425 31.3625 26.909374Q31.925 28.39375 31.925 30.315624Q31.925 31.940624 31.55 33.20625Q31.175 34.45625 30.565624 35.284374Q29.971874 36.1125 29.26875 36.596874Q28.565624 37.065624 27.565624 37.315624Q26.565624 37.55 25.253124 37.55L20.096874 37.55ZM21.9875 35.8625L25.05 35.8625Q26.45625 35.8625 27.253124 35.596874Q28.065624 35.33125 28.55 34.846874Q29.221874 34.175 29.596874 33.05Q29.971874 31.909374 29.971874 30.284374Q29.971874 28.034374 29.2375 26.83125Q28.503124 25.628124 27.440624 25.221874Q26.690624 24.925 25.003124 24.925L21.9875 24.925L21.9875 35.8625ZM33.846874 37.55L33.846874 27.175L35.425 27.175L35.425 28.753124Q36.034374 27.64375 36.55 27.3Q37.065624 26.940624 37.675 26.940624Q38.565624 26.940624 39.4875 27.503124L38.878124 29.14375Q38.2375 28.753124 37.596874 28.753124Q37.01875 28.753124 36.55 29.1125Q36.096874 29.45625 35.89375 30.065624Q35.6125 31.003124 35.6125 32.1125L35.6125 37.55L33.846874 37.55ZM40.878124 25.253124L40.878124 23.2375L42.64375 23.2375L42.64375 25.253124L40.878124 25.253124ZM40.878124 37.55L40.878124 27.175L42.64375 27.175L42.64375 37.55L40.878124 37.55ZM47.753124 37.55L43.8 27.175L45.659374 27.175L47.89375 33.39375Q48.253124 34.39375 48.55 35.471874Q48.784374 34.659374 49.20625 33.503124L51.503124 27.175L53.315624 27.175L49.39375 37.55L47.753124 37.55ZM60.971874 34.20625L62.784374 34.440624Q62.3625 36.01875 61.190624 36.909374Q60.034374 37.784374 58.221874 37.784374Q55.95625 37.784374 54.6125 36.39375Q53.284374 34.9875 53.284374 32.45625Q53.284374 29.83125 54.628124 28.39375Q55.971874 26.940624 58.128124 26.940624Q60.20625 26.940624 61.51875 28.3625Q62.846874 29.76875 62.846874 32.346874Q62.846874 32.503124 62.83125 32.815624L55.096874 32.815624Q55.190624 34.51875 56.065624 35.425Q56.940624 36.33125 58.2375 36.33125Q59.20625 36.33125 59.878124 35.83125Q60.565624 35.315624 60.971874 34.20625ZM55.190624 31.3625L60.9875 31.3625Q60.878124 30.065624 60.33125 29.409374Q59.4875 28.39375 58.14375 28.39375Q56.940624 28.39375 56.1125 29.20625Q55.284374 30.003124 55.190624 31.3625ZM68.70625 35.971874L68.95625 37.534374Q68.22188 37.690624 67.62813 37.690624Q66.675 37.690624 66.14375 37.39375Q65.62813 37.08125 65.40938 36.596874Q65.19063 36.096874 65.19063 34.51875L65.19063 28.55L63.909374 28.55L63.909374 27.175L65.19063 27.175L65.19063 24.6125L66.94063 23.55L66.94063 27.175L68.70625 27.175L68.70625 28.55L66.94063 28.55L66.94063 34.6125Q66.94063 35.3625 67.03438 35.58125Q67.12813 35.784374 67.33125 35.925Q67.55 36.05 67.94063 36.05Q68.22188 36.05 68.70625 35.971874ZM70.84688 37.55L70.84688 27.175L72.425 27.175L72.425 28.753124Q73.03438 27.64375 73.55 27.3Q74.06563 26.940624 74.675 26.940624Q75.56563 26.940624 76.4875 27.503124L75.87813 29.14375Q75.2375 28.753124 74.59688 28.753124Q74.01875 28.753124 73.55 29.1125Q73.09688 29.45625 72.89375 30.065624Q72.6125 31.003124 72.6125 32.1125L72.6125 37.55L70.84688 37.55ZM84.64375 36.26875Q83.65938 37.096874 82.75313 37.440624Q81.84688 37.784374 80.81563 37.784374Q79.1125 37.784374 78.19063 36.95625Q77.26875 36.1125 77.26875 34.815624Q77.26875 34.05 77.6125 33.425Q77.97188 32.8 78.53438 32.425Q79.09688 32.034374 79.8 31.83125Q80.31563 31.70625 81.3625 31.565624Q83.4875 31.315624 84.4875 30.971874Q84.50313 30.6125 84.50313 30.503124Q84.50313 29.440624 84.00313 28.9875Q83.33125 28.39375 82.00313 28.39375Q80.75313 28.39375 80.15938 28.83125Q79.58125 29.26875 79.3 30.378124L77.58125 30.14375Q77.81563 29.034374 78.34688 28.3625Q78.87813 27.675 79.89375 27.315624Q80.90938 26.940624 82.25313 26.940624Q83.58125 26.940624 84.40938 27.253124Q85.2375 27.565624 85.62813 28.05Q86.01875 28.51875 86.175 29.2375Q86.26875 29.690624 86.26875 30.8625L86.26875 33.20625Q86.26875 35.659374 86.37813 36.315624Q86.4875 36.95625 86.83125 37.55L84.9875 37.55Q84.72188 37.003124 84.64375 36.26875ZM84.4875 32.346874Q83.53438 32.7375 81.6125 33.003124Q80.53438 33.159374 80.08125 33.3625Q79.64375 33.55 79.39375 33.925Q79.14375 34.3 79.14375 34.76875Q79.14375 35.471874 79.675 35.940624Q80.20625 36.409374 81.2375 36.409374Q82.25313 36.409374 83.03438 35.971874Q83.83125 35.51875 84.20625 34.753124Q84.4875 34.14375 84.4875 32.9875L84.4875 32.346874ZM88.87813 25.253124L88.87813 23.2375L90.64375 23.2375L90.64375 25.253124L88.87813 25.253124ZM88.87813 37.55L88.87813 27.175L90.64375 27.175L90.64375 37.55L88.87813 37.55ZM92.8625 37.55L92.8625 27.175L94.45625 27.175L94.45625 28.659374Q95.59688 26.940624 97.75313 26.940624Q98.69063 26.940624 99.47188 27.284374Q100.26875 27.6125 100.65938 28.159374Q101.05 28.70625 101.20625 29.45625Q101.3 29.95625 101.3 31.175L101.3 37.55L99.53438 37.55L99.53438 31.2375Q99.53438 30.159374 99.33125 29.628124Q99.12813 29.096874 98.59688 28.784374Q98.08125 28.471874 97.37813 28.471874Q96.25313 28.471874 95.44063 29.190624Q94.62813 29.89375 94.62813 31.878124L94.62813 37.55L92.8625 37.55ZM109.09688 37.55L109.09688 23.2375L114.4875 23.2375Q115.925 23.2375 116.675 23.3625Q117.72188 23.55 118.44063 24.05Q119.15938 24.534374 119.58125 25.425Q120.01875 26.315624 120.01875 27.378124Q120.01875 29.20625 118.84688 30.471874Q117.69063 31.721874 114.65938 31.721874L110.9875 31.721874L110.9875 37.55L109.09688 37.55ZM110.9875 30.034374L114.69063 30.034374Q116.51875 30.034374 117.28438 29.3625Q118.06563 28.675 118.06563 27.425Q118.06563 26.534374 117.6125 25.89375Q117.15938 25.253124 116.425 25.05Q115.94063 24.925 114.64375 24.925L110.9875 24.925L110.9875 30.034374ZM128.97188 34.20625L130.78438 34.440624Q130.3625 36.01875 129.19063 36.909374Q128.03438 37.784374 126.22188 37.784374Q123.95625 37.784374 122.6125 36.39375Q121.28438 34.9875 121.28438 32.45625Q121.28438 29.83125 122.62813 28.39375Q123.97188 26.940624 126.12813 26.940624Q128.20625 26.940624 129.51875 28.3625Q130.84688 29.76875 130.84688 32.346874Q130.84688 32.503124 130.83125 32.815624L123.09688 32.815624Q123.19063 34.51875 124.06563 35.425Q124.94063 36.33125 126.2375 36.33125Q127.20625 36.33125 127.87813 35.83125Q128.56563 35.315624 128.97188 34.20625ZM123.19063 31.3625L128.9875 31.3625Q128.87813 30.065624 128.33125 29.409374Q127.4875 28.39375 126.14375 28.39375Q124.94063 28.39375 124.1125 29.20625Q123.28438 30.003124 123.19063 31.3625ZM132.84688 37.55L132.84688 27.175L134.425 27.175L134.425 28.753124Q135.03438 27.64375 135.55 27.3Q136.06563 26.940624 136.675 26.940624Q137.56563 26.940624 138.4875 27.503124L137.87813 29.14375Q137.2375 28.753124 136.59688 28.753124Q136.01875 28.753124 135.55 29.1125Q135.09688 29.45625 134.89375 30.065624Q134.6125 31.003124 134.6125 32.1125L134.6125 37.55L132.84688 37.55ZM140.28438 37.55L140.28438 28.55L138.7375 28.55L138.7375 27.175L140.28438 27.175L140.28438 26.08125Q140.28438 25.034374 140.47188 24.51875Q140.72188 23.83125 141.3625 23.409374Q142.00313 22.9875 143.15938 22.9875Q143.90938 22.9875 144.8 23.159374L144.53438 24.690624Q143.9875 24.596874 143.50313 24.596874Q142.70625 24.596874 142.3625 24.940624Q142.03438 25.284374 142.03438 26.221874L142.03438 27.175L144.06563 27.175L144.06563 28.55L142.03438 28.55L142.03438 37.55L140.28438 37.55ZM145.22188 32.3625Q145.22188 29.4875 146.81563 28.096874Q148.15938 26.940624 150.08125 26.940624Q152.22188 26.940624 153.56563 28.346874Q154.925 29.753124 154.925 32.221874Q154.925 34.221874 154.33125 35.378124Q153.7375 36.51875 152.58125 37.159374Q151.44063 37.784374 150.08125 37.784374Q147.89375 37.784374 146.55 36.39375Q145.22188 34.9875 145.22188 32.3625ZM147.01875 32.3625Q147.01875 34.3625 147.87813 35.346874Q148.75313 36.33125 150.08125 36.33125Q151.39375 36.33125 152.25313 35.346874Q153.12813 34.346874 153.12813 32.3Q153.12813 30.378124 152.25313 29.39375Q151.37813 28.39375 150.08125 28.39375Q148.75313 28.39375 147.87813 29.39375Q147.01875 30.378124 147.01875 32.3625ZM156.84688 37.55L156.84688 27.175L158.425 27.175L158.425 28.753124Q159.03438 27.64375 159.55 27.3Q160.06563 26.940624 160.675 26.940624Q161.56563 26.940624 162.4875 27.503124L161.87813 29.14375Q161.2375 28.753124 160.59688 28.753124Q160.01875 28.753124 159.55 29.1125Q159.09688 29.45625 158.89375 30.065624Q158.6125 31.003124 158.6125 32.1125L158.6125 37.55L156.84688 37.55ZM163.8625 37.55L163.8625 27.175L165.44063 27.175L165.44063 28.628124Q165.925 27.878124 166.7375 27.409374Q167.55 26.940624 168.58125 26.940624Q169.7375 26.940624 170.47188 27.425Q171.20625 27.89375 171.51875 28.753124Q172.75313 26.940624 174.72188 26.940624Q176.26875 26.940624 177.09688 27.8Q177.925 28.659374 177.925 30.425L177.925 37.55L176.175 37.55L176.175 31.01875Q176.175 29.95625 176.00313 29.503124Q175.83125 29.034374 175.37813 28.753124Q174.94063 28.471874 174.33125 28.471874Q173.2375 28.471874 172.50313 29.20625Q171.78438 29.925 171.78438 31.51875L171.78438 37.55L170.03438 37.55L170.03438 30.815624Q170.03438 29.64375 169.59688 29.065624Q169.175 28.471874 168.19063 28.471874Q167.45625 28.471874 166.81563 28.8625Q166.19063 29.253124 165.90938 30.003124Q165.62813 30.753124 165.62813 32.175L165.62813 37.55L163.8625 37.55ZM186.64375 36.26875Q185.65938 37.096874 184.75313 37.440624Q183.84688 37.784374 182.81563 37.784374Q181.1125 37.784374 180.19063 36.95625Q179.26875 36.1125 179.26875 34.815624Q179.26875 34.05 179.6125 33.425Q179.97188 32.8 180.53438 32.425Q181.09688 32.034374 181.8 31.83125Q182.31563 31.70625 183.3625 31.565624Q185.4875 31.315624 186.4875 30.971874Q186.50313 30.6125 186.50313 30.503124Q186.50313 29.440624 186.00313 28.9875Q185.33125 28.39375 184.00313 28.39375Q182.75313 28.39375 182.15938 28.83125Q181.58125 29.26875 181.3 30.378124L179.58125 30.14375Q179.81563 29.034374 180.34688 28.3625Q180.87813 27.675 181.89375 27.315624Q182.90938 26.940624 184.25313 26.940624Q185.58125 26.940624 186.40938 27.253124Q187.2375 27.565624 187.62813 28.05Q188.01875 28.51875 188.175 29.2375Q188.26875 29.690624 188.26875 30.8625L188.26875 33.20625Q188.26875 35.659374 188.37813 36.315624Q188.4875 36.95625 188.83125 37.55L186.9875 37.55Q186.72188 37.003124 186.64375 36.26875ZM186.4875 32.346874Q185.53438 32.7375 183.6125 33.003124Q182.53438 33.159374 182.08125 33.3625Q181.64375 33.55 181.39375 33.925Q181.14375 34.3 181.14375 34.76875Q181.14375 35.471874 181.675 35.940624Q182.20625 36.409374 183.2375 36.409374Q184.25313 36.409374 185.03438 35.971874Q185.83125 35.51875 186.20625 34.753124Q186.4875 34.14375 186.4875 32.9875L186.4875 32.346874ZM190.8625 37.55L190.8625 27.175L192.45625 27.175L192.45625 28.659374Q193.59688 26.940624 195.75313 26.940624Q196.69063 26.940624 197.47188 27.284374Q198.26875 27.6125 198.65938 28.159374Q199.05 28.70625 199.20625 29.45625Q199.3 29.95625 199.3 31.175L199.3 37.55L197.53438 37.55L197.53438 31.2375Q197.53438 30.159374 197.33125 29.628124Q197.12813 29.096874 196.59688 28.784374Q196.08125 28.471874 195.37813 28.471874Q194.25313 28.471874 193.44063 29.190624Q192.62813 29.89375 192.62813 31.878124L192.62813 37.55L190.8625 37.55ZM207.64375 33.753124L209.3625 33.971874Q209.08125 35.76875 207.90938 36.784374Q206.75313 37.784374 205.05 37.784374Q202.925 37.784374 201.62813 36.39375Q200.33125 35.003124 200.33125 32.409374Q200.33125 30.721874 200.87813 29.471874Q201.44063 28.20625 202.58125 27.58125Q203.72188 26.940624 205.06563 26.940624Q206.75313 26.940624 207.81563 27.8Q208.89375 28.659374 209.20625 30.221874L207.4875 30.4875Q207.25313 29.440624 206.62813 28.925Q206.00313 28.39375 205.12813 28.39375Q203.8 28.39375 202.97188 29.346874Q202.14375 30.3 202.14375 32.346874Q202.14375 34.440624 202.94063 35.39375Q203.7375 36.33125 205.03438 36.33125Q206.06563 36.33125 206.75313 35.70625Q207.45625 35.065624 207.64375 33.753124ZM217.97188 34.20625L219.78438 34.440624Q219.3625 36.01875 218.19063 36.909374Q217.03438 37.784374 215.22188 37.784374Q212.95625 37.784374 211.6125 36.39375Q210.28438 34.9875 210.28438 32.45625Q210.28438 29.83125 211.62813 28.39375Q212.97188 26.940624 215.12813 26.940624Q217.20625 26.940624 218.51875 28.3625Q219.84688 29.76875 219.84688 32.346874Q219.84688 32.503124 219.83125 32.815624L212.09688 32.815624Q212.19063 34.51875 213.06563 35.425Q213.94063 36.33125 215.2375 36.33125Q216.20625 36.33125 216.87813 35.83125Q217.56563 35.315624 217.97188 34.20625ZM212.19063 31.3625L217.9875 31.3625Q217.87813 30.065624 217.33125 29.409374Q216.4875 28.39375 215.14375 28.39375Q213.94063 28.39375 213.1125 29.20625Q212.28438 30.003124 212.19063 31.3625Z" fill-rule="nonzero"/></svg>