<svg version="1.1" viewBox="0.0 0.0 600.0 371.0" fill="none" stroke="none" stroke-linecap="square" stroke-miterlimit="10" width="600" height="371" xmlns:xlink="http://www.w3.org/1999/xlink" xmlns="http://www.w3.org/2000/svg"><path fill="#ffffff" d="M0 0L600.0 0L600.0 371.0L0 371.0L0 0Z" fill-rule="nonzero"/><path fill="#fbbc04" d="M171.16429 129.3C197.73889 83.27143 246.85078 54.916668 300.0 54.916668L300.0 203.68333Z" fill-rule="nonzero"/><path fill="#34a853" d="M300.0 54.916668C367.33264 54.916668 426.2706 100.14135 443.69757 165.17969C461.12454 230.21802 432.6951 298.85272 374.38333 332.51904C316.07156 366.18536 242.41745 356.48862 194.80608 308.87726C147.19472 261.2659 137.49797 187.61177 171.16429 129.3L300.0 203.68333Z" fill-rule="nonzero"/><path fill="#000000" d="M298.253 282.75714Q298.253 280.25714 299.59674 278.8509Q300.9405 277.42902 303.04987 277.42902Q304.4405 277.42902 305.54987 278.1009Q306.67487 278.75714 307.253 279.94464Q307.84674 281.13214 307.84674 282.63214Q307.84674 284.1634 307.22174 285.36652Q306.61237 286.56964 305.48737 287.19464Q304.36237 287.80402 303.04987 287.80402Q301.628 287.80402 300.51862 287.11652Q299.40924 286.42902 298.83112 285.25714Q298.253 284.06964 298.253 282.75714ZM299.628 282.77277Q299.628 284.58527 300.59674 285.63214Q301.58112 286.6634 303.04987 286.6634Q304.53424 286.6634 305.503 285.61652Q306.47174 284.56964 306.47174 282.63214Q306.47174 281.39777 306.04987 280.49152Q305.64362 279.58527 304.84674 279.08527Q304.04987 278.56964 303.0655 278.56964Q301.65924 278.56964 300.64362 279.5384Q299.628 280.50714 299.628 282.77277ZM311.51862 287.63214L308.753 280.36652L310.0655 280.36652L311.61237 284.7259Q311.86237 285.42902 312.08112 286.17902Q312.253 285.6009 312.53424 284.80402L314.15924 280.36652L315.42487 280.36652L312.67487 287.63214L311.51862 287.63214ZM321.47174 285.2884L322.753 285.44464Q322.4405 286.56964 321.628 287.19464Q320.8155 287.80402 319.54987 287.80402Q317.95612 287.80402 317.01862 286.81964Q316.09674 285.83527 316.09674 284.06964Q316.09674 282.2259 317.03424 281.2259Q317.98737 280.21027 319.48737 280.21027Q320.9405 280.21027 321.86237 281.21027Q322.78424 282.19464 322.78424 283.99152Q322.78424 284.1009 322.78424 284.31964L317.36237 284.31964Q317.4405 285.50714 318.03424 286.14777Q318.64362 286.7884 319.5655 286.7884Q320.23737 286.7884 320.70612 286.42902Q321.1905 286.06964 321.47174 285.2884ZM317.4405 283.30402L321.48737 283.30402Q321.40924 282.38214 321.01862 281.92902Q320.4405 281.2259 319.503 281.2259Q318.64362 281.2259 318.0655 281.7884Q317.503 282.3509 317.4405 283.30402ZM324.48737 287.63214L324.48737 280.36652L325.59674 280.36652L325.59674 281.4759Q326.01862 280.69464 326.378 280.46027Q326.73737 280.21027 327.17487 280.21027Q327.79987 280.21027 328.4405 280.6009L328.01862 281.74152Q327.5655 281.4759 327.11237 281.4759Q326.70612 281.4759 326.378 281.7259Q326.0655 281.96027 325.92487 282.39777Q325.72174 283.05402 325.72174 283.83527L325.72174 287.63214L324.48737 287.63214ZM329.503 290.4134L329.503 280.36652L330.628 280.36652L330.628 281.31964Q331.01862 280.75714 331.51862 280.49152Q332.01862 280.21027 332.73737 280.21027Q333.65924 280.21027 334.36237 280.69464Q335.08112 281.1634 335.4405 282.0384Q335.79987 282.9134 335.79987 283.94464Q335.79987 285.05402 335.39362 285.96027Q335.003 286.8509 334.23737 287.33527Q333.48737 287.80402 332.64362 287.80402Q332.03424 287.80402 331.53424 287.5384Q331.04987 287.27277 330.73737 286.88214L330.73737 290.4134L329.503 290.4134ZM330.61237 284.0384Q330.61237 285.44464 331.17487 286.11652Q331.753 286.7884 332.5655 286.7884Q333.378 286.7884 333.95612 286.1009Q334.54987 285.39777 334.54987 283.94464Q334.54987 282.55402 333.97174 281.86652Q333.40924 281.17902 332.61237 281.17902Q331.83112 281.17902 331.22174 281.9134Q330.61237 282.64777 330.61237 284.0384ZM342.47174 285.2884L343.753 285.44464Q343.4405 286.56964 342.628 287.19464Q341.8155 287.80402 340.54987 287.80402Q338.95612 287.80402 338.01862 286.81964Q337.09674 285.83527 337.09674 284.06964Q337.09674 282.2259 338.03424 281.2259Q338.98737 280.21027 340.48737 280.21027Q341.9405 280.21027 342.86237 281.21027Q343.78424 282.19464 343.78424 283.99152Q343.78424 284.1009 343.78424 284.31964L338.36237 284.31964Q338.4405 285.50714 339.03424 286.14777Q339.64362 286.7884 340.5655 286.7884Q341.23737 286.7884 341.70612 286.42902Q342.1905 286.06964 342.47174 285.2884ZM338.4405 283.30402L342.48737 283.30402Q342.40924 282.38214 342.01862 281.92902Q341.4405 281.2259 340.503 281.2259Q339.64362 281.2259 339.0655 281.7884Q338.503 282.3509 338.4405 283.30402ZM345.48737 287.63214L345.48737 280.36652L346.59674 280.36652L346.59674 281.4759Q347.01862 280.69464 347.378 280.46027Q347.73737 280.21027 348.17487 280.21027Q348.79987 280.21027 349.4405 280.6009L349.01862 281.74152Q348.5655 281.4759 348.11237 281.4759Q347.70612 281.4759 347.378 281.7259Q347.0655 281.96027 346.92487 282.39777Q346.72174 283.05402 346.72174 283.83527L346.72174 287.63214L345.48737 287.63214ZM350.79987 287.63214L350.79987 281.33527L349.70612 281.33527L349.70612 280.36652L350.79987 280.36652L350.79987 279.6009Q350.79987 278.86652 350.92487 278.50714Q351.11237 278.0384 351.54987 277.74152Q352.003 277.44464 352.8155 277.44464Q353.33112 277.44464 353.95612 277.56964L353.76862 278.63214Q353.39362 278.56964 353.04987 278.56964Q352.48737 278.56964 352.253 278.80402Q352.01862 279.0384 352.01862 279.69464L352.01862 280.36652L353.4405 280.36652L353.4405 281.33527L352.01862 281.33527L352.01862 287.63214L350.79987 287.63214ZM354.04987 284.00714Q354.04987 281.99152 355.17487 281.00714Q356.09674 280.21027 357.45612 280.21027Q358.9405 280.21027 359.89362 281.19464Q360.84674 282.1634 360.84674 283.89777Q360.84674 285.30402 360.42487 286.11652Q360.003 286.9134 359.1905 287.36652Q358.39362 287.80402 357.45612 287.80402Q355.92487 287.80402 354.98737 286.81964Q354.04987 285.83527 354.04987 284.00714ZM355.3155 284.00714Q355.3155 285.39777 355.92487 286.1009Q356.53424 286.7884 357.45612 286.7884Q358.36237 286.7884 358.97174 286.08527Q359.58112 285.38214 359.58112 283.96027Q359.58112 282.61652 358.97174 281.92902Q358.36237 281.2259 357.45612 281.2259Q356.53424 281.2259 355.92487 281.9134Q355.3155 282.6009 355.3155 284.00714ZM362.48737 287.63214L362.48737 280.36652L363.59674 280.36652L363.59674 281.4759Q364.01862 280.69464 364.378 280.46027Q364.73737 280.21027 365.17487 280.21027Q365.79987 280.21027 366.4405 280.6009L366.01862 281.74152Q365.5655 281.4759 365.11237 281.4759Q364.70612 281.4759 364.378 281.7259Q364.0655 281.96027 363.92487 282.39777Q363.72174 283.05402 363.72174 283.83527L363.72174 287.63214L362.48737 287.63214ZM367.503 287.63214L367.503 280.36652L368.61237 280.36652L368.61237 281.39777Q368.9405 280.8509 369.503 280.5384Q370.08112 280.21027 370.79987 280.21027Q371.61237 280.21027 372.128 280.55402Q372.64362 280.88214 372.86237 281.4759Q373.72174 280.21027 375.09674 280.21027Q376.17487 280.21027 376.753 280.80402Q377.34674 281.39777 377.34674 282.64777L377.34674 287.63214L376.11237 287.63214L376.11237 283.05402Q376.11237 282.31964 375.98737 281.99152Q375.878 281.6634 375.5655 281.4759Q375.253 281.27277 374.83112 281.27277Q374.0655 281.27277 373.54987 281.7884Q373.04987 282.2884 373.04987 283.4134L373.04987 287.63214L371.8155 287.63214L371.8155 282.9134Q371.8155 282.1009 371.51862 281.69464Q371.22174 281.27277 370.53424 281.27277Q370.01862 281.27277 369.5655 281.55402Q369.128 281.81964 368.92487 282.3509Q368.73737 282.86652 368.73737 283.86652L368.73737 287.63214L367.503 287.63214ZM383.47174 285.2884L384.753 285.44464Q384.4405 286.56964 383.628 287.19464Q382.8155 287.80402 381.54987 287.80402Q379.95612 287.80402 379.01862 286.81964Q378.09674 285.83527 378.09674 284.06964Q378.09674 282.2259 379.03424 281.2259Q379.98737 280.21027 381.48737 280.21027Q382.9405 280.21027 383.86237 281.21027Q384.78424 282.19464 384.78424 283.99152Q384.78424 284.1009 384.78424 284.31964L379.36237 284.31964Q379.4405 285.50714 380.03424 286.14777Q380.64362 286.7884 381.5655 286.7884Q382.23737 286.7884 382.70612 286.42902Q383.1905 286.06964 383.47174 285.2884ZM379.4405 283.30402L383.48737 283.30402Q383.40924 282.38214 383.01862 281.92902Q382.4405 281.2259 381.503 281.2259Q380.64362 281.2259 380.0655 281.7884Q379.503 282.3509 379.4405 283.30402ZM391.22174 287.63214L391.22174 286.71027Q390.51862 287.80402 389.1905 287.80402Q388.3155 287.80402 387.58112 287.31964Q386.86237 286.83527 386.45612 285.9759Q386.0655 285.11652 386.0655 284.00714Q386.0655 282.92902 386.42487 282.0384Q386.78424 281.14777 387.503 280.67902Q388.23737 280.21027 389.128 280.21027Q389.78424 280.21027 390.29987 280.49152Q390.8155 280.75714 391.128 281.21027L391.128 277.61652L392.36237 277.61652L392.36237 287.63214L391.22174 287.63214ZM387.33112 284.00714Q387.33112 285.39777 387.90924 286.1009Q388.503 286.7884 389.29987 286.7884Q390.11237 286.7884 390.67487 286.13214Q391.23737 285.46027 391.23737 284.11652Q391.23737 282.61652 390.65924 281.92902Q390.08112 281.2259 389.253 281.2259Q388.42487 281.2259 387.878 281.89777Q387.33112 282.56964 387.33112 284.00714Z" fill-rule="nonzero"/><path fill="#000000" d="M214.02582 119.55627L215.27582 119.44689Q215.36957 120.19689 215.6977 120.68127Q216.02582 121.16564 216.6977 121.46252Q217.3852 121.75939 218.24457 121.75939Q218.99457 121.75939 219.5727 121.54064Q220.16644 121.30627 220.4477 120.91564Q220.72894 120.52502 220.72894 120.05627Q220.72894 119.58752 220.4477 119.24377Q220.18207 118.88439 219.55707 118.63439Q219.15082 118.47814 217.7602 118.15002Q216.3852 117.82189 215.83832 117.52502Q215.11957 117.15002 214.7602 116.60314Q214.41644 116.04064 214.41644 115.33752Q214.41644 114.58752 214.83832 113.93127Q215.27582 113.25939 216.10394 112.93127Q216.93207 112.58752 217.9477 112.58752Q219.05707 112.58752 219.90082 112.94689Q220.7602 113.30627 221.21332 114.00939Q221.66644 114.69689 221.71332 115.57189L220.43207 115.66564Q220.33832 114.72814 219.74457 114.24377Q219.15082 113.74377 217.99457 113.74377Q216.79144 113.74377 216.24457 114.19689Q215.6977 114.63439 215.6977 115.25939Q215.6977 115.79064 216.08832 116.15002Q216.46332 116.49377 218.0727 116.86877Q219.6977 117.22814 220.29144 117.49377Q221.16644 117.90002 221.58832 118.52502Q222.0102 119.13439 222.0102 119.94689Q222.0102 120.74377 221.54144 121.46252Q221.08832 122.16564 220.22894 122.55627Q219.36957 122.94689 218.30707 122.94689Q216.9477 122.94689 216.02582 122.55627Q215.10394 122.15002 214.5727 121.35314Q214.05707 120.55627 214.02582 119.55627ZM228.05707 121.88439Q227.3852 122.46252 226.74457 122.71252Q226.11957 122.94689 225.3852 122.94689Q224.1977 122.94689 223.54144 122.36877Q222.90082 121.77502 222.90082 120.85314Q222.90082 120.32189 223.1352 119.88439Q223.3852 119.44689 223.77582 119.18127Q224.18207 118.91564 224.66644 118.77502Q225.02582 118.68127 225.7602 118.58752Q227.2602 118.41564 227.96332 118.16564Q227.96332 117.91564 227.96332 117.85314Q227.96332 117.08752 227.61957 116.79064Q227.15082 116.36877 226.21332 116.36877Q225.35394 116.36877 224.93207 116.68127Q224.52582 116.97814 224.3227 117.74377L223.11957 117.58752Q223.27582 116.80627 223.65082 116.33752Q224.04144 115.86877 224.74457 115.61877Q225.46332 115.35314 226.40082 115.35314Q227.3227 115.35314 227.90082 115.57189Q228.47894 115.79064 228.74457 116.11877Q229.02582 116.44689 229.1352 116.96252Q229.1977 117.27502 229.1977 118.08752L229.1977 119.72814Q229.1977 121.44689 229.27582 121.90002Q229.35394 122.35314 229.58832 122.77502L228.30707 122.77502Q228.11957 122.38439 228.05707 121.88439ZM227.96332 119.13439Q227.29144 119.40002 225.9477 119.60314Q225.1977 119.71252 224.86957 119.85314Q224.55707 119.97814 224.3852 120.24377Q224.21332 120.50939 224.21332 120.82189Q224.21332 121.32189 224.58832 121.65002Q224.96332 121.97814 225.68207 121.97814Q226.40082 121.97814 226.9477 121.66564Q227.49457 121.35314 227.7602 120.80627Q227.96332 120.40002 227.96332 119.58752L227.96332 119.13439ZM234.0102 121.68127L234.18207 122.75939Q233.66644 122.86877 233.2602 122.86877Q232.58832 122.86877 232.21332 122.66564Q231.85394 122.44689 231.6977 122.10314Q231.55707 121.75939 231.55707 120.65002L231.55707 116.47814L230.65082 116.47814L230.65082 115.50939L231.55707 115.50939L231.55707 113.71252L232.77582 112.97814L232.77582 115.50939L234.0102 115.50939L234.0102 116.47814L232.77582 116.47814L232.77582 120.71252Q232.77582 121.24377 232.83832 121.40002Q232.90082 121.54064 233.04144 121.63439Q233.1977 121.72814 233.46332 121.72814Q233.68207 121.72814 234.0102 121.68127ZM235.33832 114.16564L235.33832 112.75939L236.55707 112.75939L236.55707 114.16564L235.33832 114.16564ZM235.33832 122.77502L235.33832 115.50939L236.55707 115.50939L236.55707 122.77502L235.33832 122.77502ZM237.83832 120.60314L239.04144 120.41564Q239.15082 121.15002 239.61957 121.54064Q240.08832 121.93127 240.93207 121.93127Q241.77582 121.93127 242.18207 121.58752Q242.60394 121.24377 242.60394 120.77502Q242.60394 120.35314 242.22894 120.11877Q241.97894 119.94689 240.97894 119.69689Q239.61957 119.35314 239.08832 119.10314Q238.5727 118.85314 238.30707 118.41564Q238.04144 117.97814 238.04144 117.44689Q238.04144 116.96252 238.2602 116.55627Q238.47894 116.13439 238.86957 115.85314Q239.15082 115.65002 239.6352 115.50939Q240.1352 115.35314 240.71332 115.35314Q241.55707 115.35314 242.1977 115.60314Q242.85394 115.83752 243.16644 116.25939Q243.47894 116.68127 243.58832 117.38439L242.3852 117.55627Q242.30707 116.99377 241.90082 116.68127Q241.5102 116.36877 240.79144 116.36877Q239.9477 116.36877 239.58832 116.65002Q239.22894 116.91564 239.22894 117.30627Q239.22894 117.54064 239.36957 117.72814Q239.52582 117.93127 239.85394 118.05627Q240.02582 118.11877 240.93207 118.36877Q242.24457 118.72814 242.7602 118.94689Q243.27582 119.16564 243.55707 119.58752Q243.85394 120.00939 243.85394 120.63439Q243.85394 121.25939 243.49457 121.80627Q243.15082 122.33752 242.46332 122.65002Q241.79144 122.94689 240.93207 122.94689Q239.52582 122.94689 238.77582 122.35314Q238.04144 121.75939 237.83832 120.60314ZM245.61957 122.77502L245.61957 116.47814L244.52582 116.47814L244.52582 115.50939L245.61957 115.50939L245.61957 114.74377Q245.61957 114.00939 245.74457 113.65002Q245.93207 113.18127 246.36957 112.88439Q246.8227 112.58752 247.6352 112.58752Q248.15082 112.58752 248.77582 112.71252L248.58832 113.77502Q248.21332 113.71252 247.86957 113.71252Q247.30707 113.71252 247.0727 113.94689Q246.83832 114.18127 246.83832 114.83752L246.83832 115.50939L248.2602 115.50939L248.2602 116.47814L246.83832 116.47814L246.83832 122.77502L245.61957 122.77502ZM254.05707 121.88439Q253.3852 122.46252 252.74457 122.71252Q252.11957 122.94689 251.3852 122.94689Q250.1977 122.94689 249.54144 122.36877Q248.90082 121.77502 248.90082 120.85314Q248.90082 120.32189 249.1352 119.88439Q249.3852 119.44689 249.77582 119.18127Q250.18207 118.91564 250.66644 118.77502Q251.02582 118.68127 251.7602 118.58752Q253.2602 118.41564 253.96332 118.16564Q253.96332 117.91564 253.96332 117.85314Q253.96332 117.08752 253.61957 116.79064Q253.15082 116.36877 252.21332 116.36877Q251.35394 116.36877 250.93207 116.68127Q250.52582 116.97814 250.3227 117.74377L249.11957 117.58752Q249.27582 116.80627 249.65082 116.33752Q250.04144 115.86877 250.74457 115.61877Q251.46332 115.35314 252.40082 115.35314Q253.3227 115.35314 253.90082 115.57189Q254.47894 115.79064 254.74457 116.11877Q255.02582 116.44689 255.1352 116.96252Q255.1977 117.27502 255.1977 118.08752L255.1977 119.72814Q255.1977 121.44689 255.27582 121.90002Q255.35394 122.35314 255.58832 122.77502L254.30707 122.77502Q254.11957 122.38439 254.05707 121.88439ZM253.96332 119.13439Q253.29144 119.40002 251.9477 119.60314Q251.1977 119.71252 250.86957 119.85314Q250.55707 119.97814 250.3852 120.24377Q250.21332 120.50939 250.21332 120.82189Q250.21332 121.32189 250.58832 121.65002Q250.96332 121.97814 251.68207 121.97814Q252.40082 121.97814 252.9477 121.66564Q253.49457 121.35314 253.7602 120.80627Q253.96332 120.40002 253.96332 119.58752L253.96332 119.13439ZM262.05707 120.11877L263.27582 120.27502Q263.0727 121.52502 262.24457 122.24377Q261.43207 122.94689 260.24457 122.94689Q258.7602 122.94689 257.85394 121.97814Q256.9477 120.99377 256.9477 119.16564Q256.9477 117.99377 257.33832 117.11877Q257.72894 116.22814 258.52582 115.79064Q259.3227 115.35314 260.2602 115.35314Q261.43207 115.35314 262.18207 115.94689Q262.9477 116.54064 263.15082 117.65002L261.96332 117.83752Q261.79144 117.10314 261.35394 116.74377Q260.91644 116.36877 260.30707 116.36877Q259.36957 116.36877 258.79144 117.04064Q258.21332 117.69689 258.21332 119.13439Q258.21332 120.60314 258.77582 121.27502Q259.33832 121.93127 260.22894 121.93127Q260.96332 121.93127 261.4477 121.49377Q261.93207 121.04064 262.05707 120.11877ZM267.0102 121.68127L267.18207 122.75939Q266.66644 122.86877 266.2602 122.86877Q265.58832 122.86877 265.21332 122.66564Q264.85394 122.44689 264.6977 122.10314Q264.55707 121.75939 264.55707 120.65002L264.55707 116.47814L263.65082 116.47814L263.65082 115.50939L264.55707 115.50939L264.55707 113.71252L265.77582 112.97814L265.77582 115.50939L267.0102 115.50939L267.0102 116.47814L265.77582 116.47814L265.77582 120.71252Q265.77582 121.24377 265.83832 121.40002Q265.90082 121.54064 266.04144 121.63439Q266.1977 121.72814 266.46332 121.72814Q266.68207 121.72814 267.0102 121.68127ZM267.86957 119.15002Q267.86957 117.13439 268.99457 116.15002Q269.91644 115.35314 271.27582 115.35314Q272.7602 115.35314 273.71332 116.33752Q274.66644 117.30627 274.66644 119.04064Q274.66644 120.44689 274.24457 121.25939Q273.8227 122.05627 273.0102 122.50939Q272.21332 122.94689 271.27582 122.94689Q269.74457 122.94689 268.80707 121.96252Q267.86957 120.97814 267.86957 119.15002ZM269.1352 119.15002Q269.1352 120.54064 269.74457 121.24377Q270.35394 121.93127 271.27582 121.93127Q272.18207 121.93127 272.79144 121.22814Q273.40082 120.52502 273.40082 119.10314Q273.40082 117.75939 272.79144 117.07189Q272.18207 116.36877 271.27582 116.36877Q270.35394 116.36877 269.74457 117.05627Q269.1352 117.74377 269.1352 119.15002ZM276.30707 122.77502L276.30707 115.50939L277.41644 115.50939L277.41644 116.61877Q277.83832 115.83752 278.1977 115.60314Q278.55707 115.35314 278.99457 115.35314Q279.61957 115.35314 280.2602 115.74377L279.83832 116.88439Q279.3852 116.61877 278.93207 116.61877Q278.52582 116.61877 278.1977 116.86877Q277.8852 117.10314 277.74457 117.54064Q277.54144 118.19689 277.54144 118.97814L277.54144 122.77502L276.30707 122.77502ZM281.27582 125.57189L281.1352 124.41564Q281.54144 124.52502 281.83832 124.52502Q282.24457 124.52502 282.49457 124.38439Q282.74457 124.25939 282.90082 124.00939Q283.0102 123.82189 283.27582 123.08752Q283.30707 122.99377 283.3852 122.79064L280.61957 115.50939L281.9477 115.50939L283.46332 119.71252Q283.7602 120.52502 283.99457 121.40002Q284.1977 120.55627 284.49457 119.74377L286.04144 115.50939L287.27582 115.50939L284.5102 122.90002Q284.0727 124.08752 283.8227 124.54064Q283.49457 125.15002 283.0727 125.43127Q282.65082 125.72814 282.05707 125.72814Q281.71332 125.72814 281.27582 125.57189Z" fill-rule="nonzero"/><path fill="#1a1a1a" d="M19.26875 72.101906L20.70625 71.976906Q20.8 72.83628 21.175 73.39878Q21.55 73.945656 22.33125 74.289406Q23.1125 74.61753 24.08125 74.61753Q24.95625 74.61753 25.6125 74.36753Q26.284374 74.101906 26.596874 73.664406Q26.925 73.21128 26.925 72.68003Q26.925 72.133156 26.6125 71.74253Q26.3 71.33628 25.58125 71.05503Q25.128124 70.883156 23.55 70.508156Q21.971874 70.11753 21.33125 69.789406Q20.51875 69.351906 20.1125 68.726906Q19.70625 68.08628 19.70625 67.289406Q19.70625 66.43003 20.190624 65.68003Q20.690624 64.914406 21.628124 64.52378Q22.58125 64.133156 23.7375 64.133156Q25.01875 64.133156 25.9875 64.55503Q26.95625 64.96128 27.471874 65.758156Q28.003124 66.55503 28.05 67.55503L26.596874 67.664406Q26.471874 66.58628 25.8 66.039406Q25.128124 65.476906 23.8 65.476906Q22.425 65.476906 21.8 65.976906Q21.175 66.476906 21.175 67.195656Q21.175 67.80503 21.6125 68.21128Q22.05 68.601906 23.89375 69.02378Q25.753124 69.445656 26.440624 69.758156Q27.440624 70.21128 27.909374 70.93003Q28.39375 71.633156 28.39375 72.55503Q28.39375 73.46128 27.8625 74.27378Q27.346874 75.08628 26.3625 75.539406Q25.378124 75.99253 24.159374 75.99253Q22.596874 75.99253 21.55 75.539406Q20.503124 75.070656 19.89375 74.164406Q19.3 73.258156 19.26875 72.101906ZM36.01875 74.758156Q35.2375 75.43003 34.51875 75.71128Q33.8 75.976906 32.971874 75.976906Q31.596874 75.976906 30.8625 75.30503Q30.128124 74.633156 30.128124 73.601906Q30.128124 72.99253 30.409374 72.49253Q30.690624 71.976906 31.128124 71.68003Q31.58125 71.36753 32.14375 71.21128Q32.565624 71.101906 33.39375 71.008156Q35.096874 70.80503 35.909374 70.52378Q35.909374 70.226906 35.909374 70.14878Q35.909374 69.289406 35.51875 68.945656Q34.971874 68.46128 33.909374 68.46128Q32.925 68.46128 32.440624 68.820656Q31.971874 69.164406 31.753124 70.039406L30.378124 69.851906Q30.565624 68.976906 30.9875 68.43003Q31.425 67.883156 32.2375 67.601906Q33.05 67.30503 34.1125 67.30503Q35.175 67.30503 35.83125 67.55503Q36.503124 67.80503 36.815624 68.18003Q37.128124 68.55503 37.253124 69.133156Q37.33125 69.49253 37.33125 70.43003L37.33125 72.30503Q37.33125 74.27378 37.409374 74.789406Q37.503124 75.30503 37.76875 75.789406L36.3 75.789406Q36.08125 75.351906 36.01875 74.758156ZM35.909374 71.61753Q35.14375 71.93003 33.6125 72.14878Q32.7375 72.27378 32.378124 72.43003Q32.01875 72.58628 31.815624 72.89878Q31.628124 73.195656 31.628124 73.55503Q31.628124 74.11753 32.05 74.49253Q32.4875 74.86753 33.3 74.86753Q34.1125 74.86753 34.7375 74.52378Q35.378124 74.164406 35.675 73.539406Q35.909374 73.070656 35.909374 72.133156L35.909374 71.61753ZM42.675 74.52378L42.878124 75.77378Q42.284374 75.89878 41.815624 75.89878Q41.05 75.89878 40.628124 75.664406Q40.20625 75.414406 40.034374 75.02378Q39.8625 74.61753 39.8625 73.351906L39.8625 68.58628L38.83125 68.58628L38.83125 67.49253L39.8625 67.49253L39.8625 65.43003L41.26875 64.58628L41.26875 67.49253L42.675 67.49253L42.675 68.58628L41.26875 68.58628L41.26875 73.43003Q41.26875 74.039406 41.33125 74.21128Q41.409374 74.383156 41.58125 74.49253Q41.753124 74.58628 42.065624 74.58628Q42.3 74.58628 42.675 74.52378ZM43.6125 65.945656L43.6125 64.33628L45.01875 64.33628L45.01875 65.945656L43.6125 65.945656ZM43.6125 75.789406L43.6125 67.49253L45.01875 67.49253L45.01875 75.789406L43.6125 75.789406ZM47.05 73.30503L48.440624 73.08628Q48.55 73.93003 49.08125 74.383156Q49.628124 74.820656 50.58125 74.820656Q51.55 74.820656 52.01875 74.43003Q52.4875 74.02378 52.4875 73.49253Q52.4875 73.02378 52.08125 72.74253Q51.784374 72.55503 50.64375 72.27378Q49.096874 71.883156 48.4875 71.601906Q47.89375 71.30503 47.58125 70.80503Q47.284374 70.30503 47.284374 69.695656Q47.284374 69.133156 47.534374 68.664406Q47.784374 68.195656 48.221874 67.883156Q48.55 67.633156 49.1125 67.476906Q49.690624 67.30503 50.33125 67.30503Q51.315624 67.30503 52.05 67.58628Q52.784374 67.86753 53.128124 68.351906Q53.4875 68.820656 53.628124 69.633156L52.253124 69.820656Q52.159374 69.18003 51.70625 68.820656Q51.253124 68.46128 50.440624 68.46128Q49.471874 68.46128 49.05 68.789406Q48.64375 69.101906 48.64375 69.52378Q48.64375 69.80503 48.815624 70.02378Q48.9875 70.24253 49.346874 70.39878Q49.565624 70.476906 50.596874 70.758156Q52.08125 71.14878 52.675 71.414406Q53.26875 71.664406 53.596874 72.14878Q53.940624 72.633156 53.940624 73.351906Q53.940624 74.05503 53.51875 74.68003Q53.1125 75.289406 52.33125 75.633156Q51.565624 75.976906 50.596874 75.976906Q48.971874 75.976906 48.128124 75.30503Q47.284374 74.633156 47.05 73.30503ZM55.940624 75.789406L55.940624 68.58628L54.70625 68.58628L54.70625 67.49253L55.940624 67.49253L55.940624 66.601906Q55.940624 65.77378 56.096874 65.36753Q56.3 64.820656 56.8 64.476906Q57.315624 64.133156 58.2375 64.133156Q58.83125 64.133156 59.55 64.27378L59.346874 65.508156Q58.909374 65.43003 58.51875 65.43003Q57.878124 65.43003 57.6125 65.71128Q57.346874 65.976906 57.346874 66.726906L57.346874 67.49253L58.95625 67.49253L58.95625 68.58628L57.346874 68.58628L57.346874 75.789406L55.940624 75.789406ZM65.01875 74.758156Q64.2375 75.43003 63.51875 75.71128Q62.8 75.976906 61.971874 75.976906Q60.596874 75.976906 59.8625 75.30503Q59.128124 74.633156 59.128124 73.601906Q59.128124 72.99253 59.409374 72.49253Q59.690624 71.976906 60.128124 71.68003Q60.58125 71.36753 61.14375 71.21128Q61.565624 71.101906 62.39375 71.008156Q64.09688 70.80503 64.90938 70.52378Q64.90938 70.226906 64.90938 70.14878Q64.90938 69.289406 64.51875 68.945656Q63.971874 68.46128 62.909374 68.46128Q61.925 68.46128 61.440624 68.820656Q60.971874 69.164406 60.753124 70.039406L59.378124 69.851906Q59.565624 68.976906 59.9875 68.43003Q60.425 67.883156 61.2375 67.601906Q62.05 67.30503 63.1125 67.30503Q64.175 67.30503 64.83125 67.55503Q65.50313 67.80503 65.81563 68.18003Q66.12813 68.55503 66.25313 69.133156Q66.33125 69.49253 66.33125 70.43003L66.33125 72.30503Q66.33125 74.27378 66.40938 74.789406Q66.50313 75.30503 66.76875 75.789406L65.3 75.789406Q65.08125 75.351906 65.01875 74.758156ZM64.90938 71.61753Q64.14375 71.93003 62.6125 72.14878Q61.7375 72.27378 61.378124 72.43003Q61.01875 72.58628 60.815624 72.89878Q60.628124 73.195656 60.628124 73.55503Q60.628124 74.11753 61.05 74.49253Q61.4875 74.86753 62.3 74.86753Q63.1125 74.86753 63.7375 74.52378Q64.37813 74.164406 64.675 73.539406Q64.90938 73.070656 64.90938 72.133156L64.90938 71.61753ZM74.01875 72.74253L75.40938 72.93003Q75.175 74.351906 74.2375 75.164406Q73.31563 75.976906 71.95625 75.976906Q70.25313 75.976906 69.20625 74.86753Q68.175 73.74253 68.175 71.664406Q68.175 70.320656 68.6125 69.320656Q69.06563 68.30503 69.97188 67.80503Q70.89375 67.30503 71.95625 67.30503Q73.31563 67.30503 74.175 67.99253Q75.03438 68.664406 75.26875 69.93003L73.90938 70.133156Q73.70625 69.30503 73.20625 68.883156Q72.72188 68.46128 72.01875 68.46128Q70.95625 68.46128 70.28438 69.226906Q69.62813 69.976906 69.62813 71.633156Q69.62813 73.30503 70.26875 74.070656Q70.90938 74.820656 71.94063 74.820656Q72.76875 74.820656 73.31563 74.320656Q73.87813 73.80503 74.01875 72.74253ZM79.675 74.52378L79.87813 75.77378Q79.28438 75.89878 78.81563 75.89878Q78.05 75.89878 77.62813 75.664406Q77.20625 75.414406 77.03438 75.02378Q76.8625 74.61753 76.8625 73.351906L76.8625 68.58628L75.83125 68.58628L75.83125 67.49253L76.8625 67.49253L76.8625 65.43003L78.26875 64.58628L78.26875 67.49253L79.675 67.49253L79.675 68.58628L78.26875 68.58628L78.26875 73.43003Q78.26875 74.039406 78.33125 74.21128Q78.40938 74.383156 78.58125 74.49253Q78.75313 74.58628 79.06563 74.58628Q79.3 74.58628 79.675 74.52378ZM80.08125 71.633156Q80.08125 69.33628 81.3625 68.226906Q82.44063 67.30503 83.97188 67.30503Q85.69063 67.30503 86.76875 68.43003Q87.8625 69.539406 87.8625 71.52378Q87.8625 73.11753 87.37813 74.039406Q86.89375 74.96128 85.97188 75.476906Q85.06563 75.976906 83.97188 75.976906Q82.2375 75.976906 81.15938 74.86753Q80.08125 73.74253 80.08125 71.633156ZM81.53438 71.633156Q81.53438 73.226906 82.22188 74.02378Q82.925 74.820656 83.97188 74.820656Q85.01875 74.820656 85.70625 74.02378Q86.40938 73.226906 86.40938 71.58628Q86.40938 70.05503 85.70625 69.258156Q85.01875 68.46128 83.97188 68.46128Q82.925 68.46128 82.22188 69.258156Q81.53438 70.039406 81.53438 71.633156ZM89.59688 75.789406L89.59688 67.49253L90.8625 67.49253L90.8625 68.74253Q91.34688 67.86753 91.75313 67.58628Q92.15938 67.30503 92.65938 67.30503Q93.3625 67.30503 94.09688 67.758156L93.6125 69.05503Q93.09688 68.758156 92.58125 68.758156Q92.12813 68.758156 91.75313 69.039406Q91.39375 69.30503 91.2375 69.80503Q91.00313 70.55503 91.00313 71.445656L91.00313 75.789406L89.59688 75.789406ZM94.55 78.99253L94.39375 77.664406Q94.84688 77.789406 95.19063 77.789406Q95.65938 77.789406 95.94063 77.633156Q96.22188 77.476906 96.40938 77.195656Q96.53438 76.99253 96.83125 76.14878Q96.87813 76.039406 96.95625 75.80503L93.81563 67.49253L95.33125 67.49253L97.05 72.289406Q97.39375 73.21128 97.65938 74.21128Q97.89375 73.24253 98.2375 72.320656L100.00313 67.49253L101.40938 67.49253L98.25313 75.93003Q97.75313 77.30503 97.47188 77.820656Q97.09688 78.508156 96.6125 78.83628Q96.12813 79.164406 95.45625 79.164406Q95.05 79.164406 94.55 78.99253Z" fill-rule="nonzero"/><path fill="#9e9e9e" d="M24.51875 97.789406L23.1125 97.789406L23.1125 88.820656Q22.596874 89.30503 21.76875 89.789406Q20.95625 90.27378 20.3 90.52378L20.3 89.164406Q21.471874 88.601906 22.346874 87.820656Q23.2375 87.02378 23.6125 86.289406L24.51875 86.289406L24.51875 97.789406ZM35.51875 89.133156L34.1125 89.24253Q33.925 88.414406 33.58125 88.039406Q33.01875 87.445656 32.175 87.445656Q31.503124 87.445656 31.003124 87.820656Q30.33125 88.30503 29.940624 89.24253Q29.565624 90.164406 29.55 91.883156Q30.065624 91.101906 30.8 90.726906Q31.534374 90.351906 32.33125 90.351906Q33.7375 90.351906 34.721874 91.39878Q35.721874 92.43003 35.721874 94.070656Q35.721874 95.14878 35.253124 96.070656Q34.784374 96.99253 33.971874 97.49253Q33.159374 97.99253 32.128124 97.99253Q30.378124 97.99253 29.26875 96.695656Q28.159374 95.39878 28.159374 92.43003Q28.159374 89.101906 29.378124 87.601906Q30.45625 86.289406 32.26875 86.289406Q33.6125 86.289406 34.471874 87.05503Q35.346874 87.80503 35.51875 89.133156ZM29.76875 94.070656Q29.76875 94.80503 30.08125 95.476906Q30.39375 96.133156 30.940624 96.476906Q31.503124 96.820656 32.1125 96.820656Q33.003124 96.820656 33.64375 96.101906Q34.284374 95.383156 34.284374 94.14878Q34.284374 92.96128 33.64375 92.289406Q33.01875 91.601906 32.05 91.601906Q31.096874 91.601906 30.425 92.289406Q29.76875 92.96128 29.76875 94.070656ZM38.003124 97.789406L38.003124 96.18003L39.6125 96.18003L39.6125 97.789406L38.003124 97.789406ZM41.315624 87.83628L41.315624 86.476906L48.721874 86.476906L48.721874 87.570656Q47.628124 88.74253 46.55 90.68003Q45.4875 92.601906 44.89375 94.633156Q44.471874 96.070656 44.3625 97.789406L42.909374 97.789406Q42.940624 96.43003 43.440624 94.52378Q43.95625 92.601906 44.89375 90.83628Q45.846874 89.05503 46.925 87.83628L41.315624 87.83628ZM50.4875 89.08628Q50.4875 87.851906 51.096874 86.99253Q51.721874 86.133156 52.89375 86.133156Q53.971874 86.133156 54.675 86.914406Q55.378124 87.68003 55.378124 89.164406Q55.378124 90.61753 54.659374 91.414406Q53.95625 92.195656 52.909374 92.195656Q51.8625 92.195656 51.175 91.43003Q50.4875 90.64878 50.4875 89.08628ZM52.925 87.101906Q52.409374 87.101906 52.05 87.55503Q51.70625 88.008156 51.70625 89.226906Q51.70625 90.320656 52.05 90.77378Q52.409374 91.226906 52.925 91.226906Q53.45625 91.226906 53.8 90.77378Q54.159374 90.320656 54.159374 89.11753Q54.159374 88.008156 53.8 87.55503Q53.45625 87.101906 52.925 87.101906ZM52.940624 98.21128L59.20625 86.133156L60.346874 86.133156L54.096874 98.21128L52.940624 98.21128ZM57.89375 95.101906Q57.89375 93.86753 58.503124 93.008156Q59.128124 92.14878 60.3 92.14878Q61.378124 92.14878 62.08125 92.93003Q62.8 93.695656 62.8 95.18003Q62.8 96.633156 62.08125 97.43003Q61.3625 98.21128 60.315624 98.21128Q59.26875 98.21128 58.58125 97.43003Q57.89375 96.64878 57.89375 95.101906ZM60.346874 93.11753Q59.815624 93.11753 59.45625 93.570656Q59.1125 94.02378 59.1125 95.24253Q59.1125 96.33628 59.45625 96.789406Q59.815624 97.24253 60.33125 97.24253Q60.878124 97.24253 61.221874 96.789406Q61.565624 96.33628 61.565624 95.133156Q61.565624 94.02378 61.20625 93.570656Q60.8625 93.11753 60.346874 93.11753Z" fill-rule="nonzero"/><path stroke="#757575" stroke-width="1.0" stroke-linecap="butt" d="M18.55 81.289406L145.23334 81.289406L229.33583 81.289406" fill-rule="nonzero"/><path fill="#9e9e9e" d="M231.33583 81.289406C231.33583 80.18484 230.4404 79.289406 229.33583 79.289406C228.23126 79.289406 227.33583 80.18484 227.33583 81.289406C227.33583 82.393974 228.23126 83.289406 229.33583 83.289406C230.4404 83.289406 231.33583 82.393974 231.33583 81.289406" fill-rule="nonzero"/><path fill="#1a1a1a" d="M477.23126 314.99915Q477.23126 312.13977 478.7625 310.5304Q480.29376 308.92102 482.71564 308.92102Q484.29376 308.92102 485.5594 309.68665Q486.84064 310.43665 487.5125 311.79602Q488.1844 313.13977 488.1844 314.85852Q488.1844 316.60852 487.48126 317.98352Q486.77814 319.35852 485.48126 320.07727Q484.2 320.7804 482.7 320.7804Q481.09064 320.7804 479.8094 319.99915Q478.54376 319.20227 477.8875 317.85852Q477.23126 316.49915 477.23126 314.99915ZM478.79376 315.01477Q478.79376 317.0929 479.90314 318.2804Q481.0125 319.4679 482.7 319.4679Q484.40314 319.4679 485.5125 318.26477Q486.6219 317.06165 486.6219 314.85852Q486.6219 313.45227 486.1375 312.42102Q485.66876 311.37415 484.7625 310.79602Q483.85626 310.2179 482.71564 310.2179Q481.10626 310.2179 479.95 311.32727Q478.79376 312.43665 478.79376 315.01477ZM491.8094 320.57727L488.65314 312.2804L490.1375 312.2804L491.91876 317.24915Q492.21564 318.04602 492.45 318.92102Q492.6375 318.26477 492.98126 317.3429L494.825 312.2804L496.2625 312.2804L493.1219 320.57727L491.8094 320.57727ZM502.1844 317.9054L503.6375 318.07727Q503.29376 319.35852 502.35626 320.06165Q501.4344 320.76477 499.9969 320.76477Q498.16876 320.76477 497.10626 319.63977Q496.04376 318.51477 496.04376 316.49915Q496.04376 314.4054 497.1219 313.24915Q498.2 312.0929 499.91876 312.0929Q501.575 312.0929 502.6219 313.23352Q503.6844 314.35852 503.6844 316.4054Q503.6844 316.5304 503.6844 316.7804L497.4969 316.7804Q497.575 318.1554 498.2625 318.88977Q498.96564 319.60852 499.9969 319.60852Q500.77814 319.60852 501.325 319.20227Q501.8719 318.79602 502.1844 317.9054ZM497.575 315.62415L502.2 315.62415Q502.10626 314.57727 501.66876 314.06165Q500.9969 313.24915 499.9344 313.24915Q498.96564 313.24915 498.29376 313.9054Q497.6375 314.54602 497.575 315.62415ZM505.4969 320.57727L505.4969 312.2804L506.7625 312.2804L506.7625 313.5304Q507.2469 312.6554 507.65314 312.37415Q508.0594 312.0929 508.5594 312.0929Q509.2625 312.0929 509.9969 312.54602L509.5125 313.8429Q508.9969 313.54602 508.48126 313.54602Q508.02814 313.54602 507.65314 313.82727Q507.29376 314.0929 507.1375 314.5929Q506.90314 315.3429 506.90314 316.23352L506.90314 320.57727L505.4969 320.57727ZM510.5125 323.76477L510.5125 312.2804L511.79376 312.2804L511.79376 313.35852Q512.2469 312.7179 512.8094 312.4054Q513.3875 312.0929 514.2 312.0929Q515.2625 312.0929 516.075 312.63977Q516.8875 313.18665 517.29376 314.18665Q517.71564 315.17102 517.71564 316.35852Q517.71564 317.63977 517.2469 318.6554Q516.79376 319.67102 515.91876 320.2179Q515.0594 320.76477 514.09064 320.76477Q513.3875 320.76477 512.825 320.4679Q512.27814 320.17102 511.91876 319.7179L511.91876 323.76477L510.5125 323.76477ZM511.77814 316.4679Q511.77814 318.07727 512.41876 318.8429Q513.075 319.60852 513.9969 319.60852Q514.9344 319.60852 515.60626 318.81165Q516.27814 318.01477 516.27814 316.35852Q516.27814 314.76477 515.6219 313.98352Q514.96564 313.18665 514.0594 313.18665Q513.16876 313.18665 512.46564 314.0304Q511.77814 314.87415 511.77814 316.4679ZM525.1844 317.9054L526.6375 318.07727Q526.29376 319.35852 525.35626 320.06165Q524.4344 320.76477 522.9969 320.76477Q521.16876 320.76477 520.10626 319.63977Q519.04376 318.51477 519.04376 316.49915Q519.04376 314.4054 520.1219 313.24915Q521.2 312.0929 522.91876 312.0929Q524.575 312.0929 525.6219 313.23352Q526.6844 314.35852 526.6844 316.4054Q526.6844 316.5304 526.6844 316.7804L520.4969 316.7804Q520.575 318.1554 521.2625 318.88977Q521.96564 319.60852 522.9969 319.60852Q523.77814 319.60852 524.325 319.20227Q524.8719 318.79602 525.1844 317.9054ZM520.575 315.62415L525.2 315.62415Q525.10626 314.57727 524.66876 314.06165Q523.9969 313.24915 522.9344 313.24915Q521.96564 313.24915 521.29376 313.9054Q520.6375 314.54602 520.575 315.62415ZM528.4969 320.57727L528.4969 312.2804L529.7625 312.2804L529.7625 313.5304Q530.2469 312.6554 530.65314 312.37415Q531.0594 312.0929 531.5594 312.0929Q532.2625 312.0929 532.9969 312.54602L532.5125 313.8429Q531.9969 313.54602 531.48126 313.54602Q531.02814 313.54602 530.65314 313.82727Q530.29376 314.0929 530.1375 314.5929Q529.90314 315.3429 529.90314 316.23352L529.90314 320.57727L528.4969 320.57727ZM533.84064 320.57727L533.84064 313.37415L532.60626 313.37415L532.60626 312.2804L533.84064 312.2804L533.84064 311.38977Q533.84064 310.56165 533.9969 310.1554Q534.2 309.60852 534.7 309.26477Q535.21564 308.92102 536.1375 308.92102Q536.73126 308.92102 537.45 309.06165L537.2469 310.29602Q536.8094 310.2179 536.41876 310.2179Q535.77814 310.2179 535.5125 310.49915Q535.2469 310.76477 535.2469 311.51477L535.2469 312.2804L536.85626 312.2804L536.85626 313.37415L535.2469 313.37415L535.2469 320.57727L533.84064 320.57727ZM536.98126 316.42102Q536.98126 314.12415 538.2625 313.01477Q539.34064 312.0929 540.8719 312.0929Q542.59064 312.0929 543.66876 313.2179Q544.7625 314.32727 544.7625 316.31165Q544.7625 317.9054 544.27814 318.82727Q543.79376 319.74915 542.8719 320.26477Q541.96564 320.76477 540.8719 320.76477Q539.1375 320.76477 538.0594 319.6554Q536.98126 318.5304 536.98126 316.42102ZM538.4344 316.42102Q538.4344 318.01477 539.1219 318.81165Q539.825 319.60852 540.8719 319.60852Q541.91876 319.60852 542.60626 318.81165Q543.3094 318.01477 543.3094 316.37415Q543.3094 314.8429 542.60626 314.04602Q541.91876 313.24915 540.8719 313.24915Q539.825 313.24915 539.1219 314.04602Q538.4344 314.82727 538.4344 316.42102ZM546.4969 320.57727L546.4969 312.2804L547.7625 312.2804L547.7625 313.5304Q548.2469 312.6554 548.65314 312.37415Q549.0594 312.0929 549.5594 312.0929Q550.2625 312.0929 550.9969 312.54602L550.5125 313.8429Q549.9969 313.54602 549.48126 313.54602Q549.02814 313.54602 548.65314 313.82727Q548.29376 314.0929 548.1375 314.5929Q547.90314 315.3429 547.90314 316.23352L547.90314 320.57727L546.4969 320.57727ZM551.5125 320.57727L551.5125 312.2804L552.7625 312.2804L552.7625 313.43665Q553.15314 312.82727 553.79376 312.4679Q554.45 312.0929 555.27814 312.0929Q556.2 312.0929 556.79376 312.48352Q557.3875 312.85852 557.6219 313.54602Q558.60626 312.0929 560.1844 312.0929Q561.41876 312.0929 562.075 312.7804Q562.7469 313.45227 562.7469 314.87415L562.7469 320.57727L561.35626 320.57727L561.35626 315.3429Q561.35626 314.49915 561.21564 314.13977Q561.075 313.76477 560.71564 313.54602Q560.35626 313.31165 559.8719 313.31165Q558.9969 313.31165 558.41876 313.88977Q557.84064 314.4679 557.84064 315.74915L557.84064 320.57727L556.4344 320.57727L556.4344 315.18665Q556.4344 314.24915 556.09064 313.7804Q555.7469 313.31165 554.96564 313.31165Q554.3719 313.31165 553.8719 313.62415Q553.3719 313.93665 553.1375 314.54602Q552.91876 315.13977 552.91876 316.26477L552.91876 320.57727L551.5125 320.57727ZM570.1844 317.9054L571.6375 318.07727Q571.29376 319.35852 570.35626 320.06165Q569.4344 320.76477 567.9969 320.76477Q566.16876 320.76477 565.10626 319.63977Q564.04376 318.51477 564.04376 316.49915Q564.04376 314.4054 565.1219 313.24915Q566.2 312.0929 567.91876 312.0929Q569.575 312.0929 570.6219 313.23352Q571.6844 314.35852 571.6844 316.4054Q571.6844 316.5304 571.6844 316.7804L565.4969 316.7804Q565.575 318.1554 566.2625 318.88977Q566.96564 319.60852 567.9969 319.60852Q568.77814 319.60852 569.325 319.20227Q569.8719 318.79602 570.1844 317.9054ZM565.575 315.62415L570.2 315.62415Q570.10626 314.57727 569.66876 314.06165Q568.9969 313.24915 567.9344 313.24915Q566.96564 313.24915 566.29376 313.9054Q565.6375 314.54602 565.575 315.62415ZM578.8875 320.57727L578.8875 319.5304Q578.10626 320.76477 576.575 320.76477Q575.575 320.76477 574.7469 320.2179Q573.91876 319.67102 573.45 318.68665Q572.9969 317.70227 572.9969 316.43665Q572.9969 315.18665 573.40314 314.18665Q573.825 313.17102 574.65314 312.63977Q575.48126 312.0929 576.5125 312.0929Q577.2625 312.0929 577.84064 312.4054Q578.4344 312.7179 578.79376 313.23352L578.79376 309.12415L580.2 309.12415L580.2 320.57727L578.8875 320.57727ZM574.45 316.43665Q574.45 318.0304 575.1219 318.82727Q575.79376 319.60852 576.7 319.60852Q577.6219 319.60852 578.2625 318.85852Q578.91876 318.0929 578.91876 316.54602Q578.91876 314.8429 578.2625 314.04602Q577.60626 313.24915 576.6375 313.24915Q575.7 313.24915 575.075 314.01477Q574.45 314.7804 574.45 316.43665Z" fill-rule="nonzero"/><path fill="#9e9e9e" d="M539.27814 336.35852Q538.40314 336.04602 537.98126 335.45227Q537.5594 334.85852 537.5594 334.0304Q537.5594 332.7804 538.45 331.93665Q539.35626 331.07727 540.85626 331.07727Q542.35626 331.07727 543.2625 331.95227Q544.1844 332.81165 544.1844 334.06165Q544.1844 334.85852 543.7625 335.45227Q543.34064 336.04602 542.4969 336.35852Q543.54376 336.70227 544.09064 337.4679Q544.65314 338.23352 544.65314 339.29602Q544.65314 340.76477 543.60626 341.7804Q542.575 342.7804 540.8719 342.7804Q539.1844 342.7804 538.1375 341.7804Q537.10626 340.76477 537.10626 339.26477Q537.10626 338.13977 537.66876 337.38977Q538.23126 336.63977 539.27814 336.35852ZM538.9969 333.98352Q538.9969 334.79602 539.5125 335.31165Q540.04376 335.82727 540.8875 335.82727Q541.7 335.82727 542.21564 335.31165Q542.73126 334.79602 542.73126 334.06165Q542.73126 333.2804 542.2 332.76477Q541.66876 332.23352 540.8719 332.23352Q540.0594 332.23352 539.52814 332.74915Q538.9969 333.26477 538.9969 333.98352ZM538.54376 339.26477Q538.54376 339.87415 538.825 340.43665Q539.1219 340.99915 539.6844 341.31165Q540.2469 341.60852 540.8875 341.60852Q541.90314 341.60852 542.5594 340.9679Q543.21564 340.31165 543.21564 339.31165Q543.21564 338.29602 542.52814 337.63977Q541.85626 336.9679 540.84064 336.9679Q539.85626 336.9679 539.2 337.62415Q538.54376 338.2804 538.54376 339.26477ZM546.1219 339.54602L547.52814 339.35852Q547.77814 340.56165 548.35626 341.0929Q548.9344 341.60852 549.77814 341.60852Q550.7625 341.60852 551.45 340.92102Q552.1375 340.23352 552.1375 339.2179Q552.1375 338.24915 551.4969 337.62415Q550.8719 336.99915 549.8875 336.99915Q549.4969 336.99915 548.90314 337.1554L549.0594 335.92102Q549.2 335.93665 549.27814 335.93665Q550.1844 335.93665 550.90314 335.4679Q551.6219 334.99915 551.6219 334.01477Q551.6219 333.24915 551.09064 332.74915Q550.575 332.23352 549.7469 332.23352Q548.91876 332.23352 548.3719 332.74915Q547.825 333.26477 547.66876 334.29602L546.2625 334.04602Q546.52814 332.62415 547.4344 331.85852Q548.35626 331.07727 549.71564 331.07727Q550.65314 331.07727 551.4344 331.48352Q552.23126 331.87415 552.6375 332.57727Q553.0594 333.26477 553.0594 334.04602Q553.0594 334.79602 552.65314 335.4054Q552.2625 336.01477 551.48126 336.37415Q552.4969 336.60852 553.0594 337.3429Q553.6219 338.07727 553.6219 339.18665Q553.6219 340.68665 552.52814 341.73352Q551.4344 342.7804 549.7625 342.7804Q548.2625 342.7804 547.2625 341.88977Q546.2625 340.98352 546.1219 339.54602ZM555.90314 342.57727L555.90314 340.9679L557.5125 340.9679L557.5125 342.57727L555.90314 342.57727ZM559.1219 339.54602L560.52814 339.35852Q560.77814 340.56165 561.35626 341.0929Q561.9344 341.60852 562.77814 341.60852Q563.7625 341.60852 564.45 340.92102Q565.1375 340.23352 565.1375 339.2179Q565.1375 338.24915 564.4969 337.62415Q563.8719 336.99915 562.8875 336.99915Q562.4969 336.99915 561.90314 337.1554L562.0594 335.92102Q562.2 335.93665 562.27814 335.93665Q563.1844 335.93665 563.90314 335.4679Q564.6219 334.99915 564.6219 334.01477Q564.6219 333.24915 564.09064 332.74915Q563.575 332.23352 562.7469 332.23352Q561.91876 332.23352 561.3719 332.74915Q560.825 333.26477 560.66876 334.29602L559.2625 334.04602Q559.52814 332.62415 560.4344 331.85852Q561.35626 331.07727 562.71564 331.07727Q563.65314 331.07727 564.4344 331.48352Q565.23126 331.87415 565.6375 332.57727Q566.0594 333.26477 566.0594 334.04602Q566.0594 334.79602 565.65314 335.4054Q565.2625 336.01477 564.48126 336.37415Q565.4969 336.60852 566.0594 337.3429Q566.6219 338.07727 566.6219 339.18665Q566.6219 340.68665 565.52814 341.73352Q564.4344 342.7804 562.7625 342.7804Q561.2625 342.7804 560.2625 341.88977Q559.2625 340.98352 559.1219 339.54602ZM568.3875 333.87415Q568.3875 332.63977 568.9969 331.7804Q569.6219 330.92102 570.79376 330.92102Q571.8719 330.92102 572.575 331.70227Q573.27814 332.4679 573.27814 333.95227Q573.27814 335.4054 572.5594 336.20227Q571.85626 336.98352 570.8094 336.98352Q569.7625 336.98352 569.075 336.2179Q568.3875 335.43665 568.3875 333.87415ZM570.825 331.88977Q570.3094 331.88977 569.95 332.3429Q569.60626 332.79602 569.60626 334.01477Q569.60626 335.10852 569.95 335.56165Q570.3094 336.01477 570.825 336.01477Q571.35626 336.01477 571.7 335.56165Q572.0594 335.10852 572.0594 333.9054Q572.0594 332.79602 571.7 332.3429Q571.35626 331.88977 570.825 331.88977ZM570.84064 342.99915L577.10626 330.92102L578.2469 330.92102L571.9969 342.99915L570.84064 342.99915ZM575.79376 339.88977Q575.79376 338.6554 576.40314 337.79602Q577.02814 336.93665 578.2 336.93665Q579.27814 336.93665 579.98126 337.7179Q580.7 338.48352 580.7 339.9679Q580.7 341.42102 579.98126 342.2179Q579.2625 342.99915 578.21564 342.99915Q577.16876 342.99915 576.48126 342.2179Q575.79376 341.43665 575.79376 339.88977ZM578.2469 337.9054Q577.71564 337.9054 577.35626 338.35852Q577.0125 338.81165 577.0125 340.0304Q577.0125 341.12415 577.35626 341.57727Q577.71564 342.0304 578.23126 342.0304Q578.77814 342.0304 579.1219 341.57727Q579.46564 341.12415 579.46564 339.92102Q579.46564 338.81165 579.10626 338.35852Q578.7625 337.9054 578.2469 337.9054Z" fill-rule="nonzero"/><path stroke="#757575" stroke-width="1.0" stroke-linecap="butt" d="M581.45 326.07727L454.76666 326.07727L370.66415 326.07727" fill-rule="nonzero"/><path fill="#9e9e9e" d="M372.66415 326.07727C372.66415 324.9727 371.76874 324.07727 370.66415 324.07727C369.5596 324.07727 368.66415 324.9727 368.66415 326.07727C368.66415 327.18182 369.5596 328.07727 370.66415 328.07727C371.76874 328.07727 372.66415 327.18182 372.66415 326.07727" fill-rule="nonzero"/><path fill="#000000" d="M20.409374 37.55L20.409374 23.2375L22.315624 23.2375L22.315624 37.55L20.409374 37.55ZM25.8625 37.55L25.8625 27.175L27.45625 27.175L27.45625 28.659374Q28.596874 26.940624 30.753124 26.940624Q31.690624 26.940624 32.471874 27.284374Q33.26875 27.6125 33.659374 28.159374Q34.05 28.70625 34.20625 29.45625Q34.3 29.95625 34.3 31.175L34.3 37.55L32.534374 37.55L32.534374 31.2375Q32.534374 30.159374 32.33125 29.628124Q32.128124 29.096874 31.596874 28.784374Q31.08125 28.471874 30.378124 28.471874Q29.253124 28.471874 28.440624 29.190624Q27.628124 29.89375 27.628124 31.878124L27.628124 37.55L25.8625 37.55ZM39.70625 35.971874L39.95625 37.534374Q39.221874 37.690624 38.628124 37.690624Q37.675 37.690624 37.14375 37.39375Q36.628124 37.08125 36.409374 36.596874Q36.190624 36.096874 36.190624 34.51875L36.190624 28.55L34.909374 28.55L34.909374 27.175L36.190624 27.175L36.190624 24.6125L37.940624 23.55L37.940624 27.175L39.70625 27.175L39.70625 28.55L37.940624 28.55L37.940624 34.6125Q37.940624 35.3625 38.034374 35.58125Q38.128124 35.784374 38.33125 35.925Q38.55 36.05 38.940624 36.05Q39.221874 36.05 39.70625 35.971874ZM48.64375 36.26875Q47.659374 37.096874 46.753124 37.440624Q45.846874 37.784374 44.815624 37.784374Q43.1125 37.784374 42.190624 36.95625Q41.26875 36.1125 41.26875 34.815624Q41.26875 34.05 41.6125 33.425Q41.971874 32.8 42.534374 32.425Q43.096874 32.034374 43.8 31.83125Q44.315624 31.70625 45.3625 31.565624Q47.4875 31.315624 48.4875 30.971874Q48.503124 30.6125 48.503124 30.503124Q48.503124 29.440624 48.003124 28.9875Q47.33125 28.39375 46.003124 28.39375Q44.753124 28.39375 44.159374 28.83125Q43.58125 29.26875 43.3 30.378124L41.58125 30.14375Q41.815624 29.034374 42.346874 28.3625Q42.878124 27.675 43.89375 27.315624Q44.909374 26.940624 46.253124 26.940624Q47.58125 26.940624 48.409374 27.253124Q49.2375 27.565624 49.628124 28.05Q50.01875 28.51875 50.175 29.2375Q50.26875 29.690624 50.26875 30.8625L50.26875 33.20625Q50.26875 35.659374 50.378124 36.315624Q50.4875 36.95625 50.83125 37.55L48.9875 37.55Q48.721874 37.003124 48.64375 36.26875ZM48.4875 32.346874Q47.534374 32.7375 45.6125 33.003124Q44.534374 33.159374 44.08125 33.3625Q43.64375 33.55 43.39375 33.925Q43.14375 34.3 43.14375 34.76875Q43.14375 35.471874 43.675 35.940624Q44.20625 36.409374 45.2375 36.409374Q46.253124 36.409374 47.034374 35.971874Q47.83125 35.51875 48.20625 34.753124Q48.4875 34.14375 48.4875 32.9875L48.4875 32.346874ZM52.878124 37.55L52.878124 23.2375L54.64375 23.2375L54.64375 31.39375L58.8 27.175L61.065624 27.175L57.1125 31.01875L61.471874 37.55L59.3 37.55L55.878124 32.253124L54.64375 33.440624L54.64375 37.55L52.878124 37.55ZM69.97188 34.20625L71.78438 34.440624Q71.3625 36.01875 70.19063 36.909374Q69.03438 37.784374 67.22188 37.784374Q64.95625 37.784374 63.6125 36.39375Q62.284374 34.9875 62.284374 32.45625Q62.284374 29.83125 63.628124 28.39375Q64.97188 26.940624 67.12813 26.940624Q69.20625 26.940624 70.51875 28.3625Q71.84688 29.76875 71.84688 32.346874Q71.84688 32.503124 71.83125 32.815624L64.09688 32.815624Q64.19063 34.51875 65.06563 35.425Q65.94063 36.33125 67.2375 36.33125Q68.20625 36.33125 68.87813 35.83125Q69.56563 35.315624 69.97188 34.20625ZM64.19063 31.3625L69.9875 31.3625Q69.87813 30.065624 69.33125 29.409374Q68.4875 28.39375 67.14375 28.39375Q65.94063 28.39375 65.1125 29.20625Q64.28438 30.003124 64.19063 31.3625ZM80.09688 37.55L80.09688 23.2375L85.4875 23.2375Q86.925 23.2375 87.675 23.3625Q88.72188 23.55 89.44063 24.05Q90.15938 24.534374 90.58125 25.425Q91.01875 26.315624 91.01875 27.378124Q91.01875 29.20625 89.84688 30.471874Q88.69063 31.721874 85.65938 31.721874L81.9875 31.721874L81.9875 37.55L80.09688 37.55ZM81.9875 30.034374L85.69063 30.034374Q87.51875 30.034374 88.28438 29.3625Q89.06563 28.675 89.06563 27.425Q89.06563 26.534374 88.6125 25.89375Q88.15938 25.253124 87.425 25.05Q86.94063 24.925 85.64375 24.925L81.9875 24.925L81.9875 30.034374ZM99.97188 34.20625L101.78438 34.440624Q101.3625 36.01875 100.19063 36.909374Q99.03438 37.784374 97.22188 37.784374Q94.95625 37.784374 93.6125 36.39375Q92.28438 34.9875 92.28438 32.45625Q92.28438 29.83125 93.62813 28.39375Q94.97188 26.940624 97.12813 26.940624Q99.20625 26.940624 100.51875 28.3625Q101.84688 29.76875 101.84688 32.346874Q101.84688 32.503124 101.83125 32.815624L94.09688 32.815624Q94.19063 34.51875 95.06563 35.425Q95.94063 36.33125 97.2375 36.33125Q98.20625 36.33125 98.87813 35.83125Q99.56563 35.315624 99.97188 34.20625ZM94.19063 31.3625L99.9875 31.3625Q99.87813 30.065624 99.33125 29.409374Q98.4875 28.39375 97.14375 28.39375Q95.94063 28.39375 95.1125 29.20625Q94.28438 30.003124 94.19063 31.3625ZM103.84688 37.55L103.84688 27.175L105.425 27.175L105.425 28.753124Q106.03438 27.64375 106.55 27.3Q107.06563 26.940624 107.675 26.940624Q108.56563 26.940624 109.4875 27.503124L108.87813 29.14375Q108.2375 28.753124 107.59688 28.753124Q107.01875 28.753124 106.55 29.1125Q106.09688 29.45625 105.89375 30.065624Q105.6125 31.003124 105.6125 32.1125L105.6125 37.55L103.84688 37.55ZM111.28438 37.55L111.28438 28.55L109.7375 28.55L109.7375 27.175L111.28438 27.175L111.28438 26.08125Q111.28438 25.034374 111.47188 24.51875Q111.72188 23.83125 112.3625 23.409374Q113.00313 22.9875 114.15938 22.9875Q114.90938 22.9875 115.8 23.159374L115.53438 24.690624Q114.9875 24.596874 114.50313 24.596874Q113.70625 24.596874 113.3625 24.940624Q113.03438 25.284374 113.03438 26.221874L113.03438 27.175L115.06563 27.175L115.06563 28.55L113.03438 28.55L113.03438 37.55L111.28438 37.55ZM116.22188 32.3625Q116.22188 29.4875 117.81563 28.096874Q119.15938 26.940624 121.08125 26.940624Q123.22188 26.940624 124.56563 28.346874Q125.925 29.753124 125.925 32.221874Q125.925 34.221874 125.33125 35.378124Q124.7375 36.51875 123.58125 37.159374Q122.44063 37.784374 121.08125 37.784374Q118.89375 37.784374 117.55 36.39375Q116.22188 34.9875 116.22188 32.3625ZM118.01875 32.3625Q118.01875 34.3625 118.87813 35.346874Q119.75313 36.33125 121.08125 36.33125Q122.39375 36.33125 123.25313 35.346874Q124.12813 34.346874 124.12813 32.3Q124.12813 30.378124 123.25313 29.39375Q122.37813 28.39375 121.08125 28.39375Q119.75313 28.39375 118.87813 29.39375Q118.01875 30.378124 118.01875 32.3625ZM127.84688 37.55L127.84688 27.175L129.425 27.175L129.425 28.753124Q130.03438 27.64375 130.55 27.3Q131.06563 26.940624 131.675 26.940624Q132.56563 26.940624 133.4875 27.503124L132.87813 29.14375Q132.2375 28.753124 131.59688 28.753124Q131.01875 28.753124 130.55 29.1125Q130.09688 29.45625 129.89375 30.065624Q129.6125 31.003124 129.6125 32.1125L129.6125 37.55L127.84688 37.55ZM134.8625 37.55L134.8625 27.175L136.44063 27.175L136.44063 28.628124Q136.925 27.878124 137.7375 27.409374Q138.55 26.940624 139.58125 26.940624Q140.7375 26.940624 141.47188 27.425Q142.20625 27.89375 142.51875 28.753124Q143.75313 26.940624 145.72188 26.940624Q147.26875 26.940624 148.09688 27.8Q148.925 28.659374 148.925 30.425L148.925 37.55L147.175 37.55L147.175 31.01875Q147.175 29.95625 147.00313 29.503124Q146.83125 29.034374 146.37813 28.753124Q145.94063 28.471874 145.33125 28.471874Q144.2375 28.471874 143.50313 29.20625Q142.78438 29.925 142.78438 31.51875L142.78438 37.55L141.03438 37.55L141.03438 30.815624Q141.03438 29.64375 140.59688 29.065624Q140.175 28.471874 139.19063 28.471874Q138.45625 28.471874 137.81563 28.8625Q137.19063 29.253124 136.90938 30.003124Q136.62813 30.753124 136.62813 32.175L136.62813 37.55L134.8625 37.55ZM157.64375 36.26875Q156.65938 37.096874 155.75313 37.440624Q154.84688 37.784374 153.81563 37.784374Q152.1125 37.784374 151.19063 36.95625Q150.26875 36.1125 150.26875 34.815624Q150.26875 34.05 150.6125 33.425Q150.97188 32.8 151.53438 32.425Q152.09688 32.034374 152.8 31.83125Q153.31563 31.70625 154.3625 31.565624Q156.4875 31.315624 157.4875 30.971874Q157.50313 30.6125 157.50313 30.503124Q157.50313 29.440624 157.00313 28.9875Q156.33125 28.39375 155.00313 28.39375Q153.75313 28.39375 153.15938 28.83125Q152.58125 29.26875 152.3 30.378124L150.58125 30.14375Q150.81563 29.034374 151.34688 28.3625Q151.87813 27.675 152.89375 27.315624Q153.90938 26.940624 155.25313 26.940624Q156.58125 26.940624 157.40938 27.253124Q158.2375 27.565624 158.62813 28.05Q159.01875 28.51875 159.175 29.2375Q159.26875 29.690624 159.26875 30.8625L159.26875 33.20625Q159.26875 35.659374 159.37813 36.315624Q159.4875 36.95625 159.83125 37.55L157.9875 37.55Q157.72188 37.003124 157.64375 36.26875ZM157.4875 32.346874Q156.53438 32.7375 154.6125 33.003124Q153.53438 33.159374 153.08125 33.3625Q152.64375 33.55 152.39375 33.925Q152.14375 34.3 152.14375 34.76875Q152.14375 35.471874 152.675 35.940624Q153.20625 36.409374 154.2375 36.409374Q155.25313 36.409374 156.03438 35.971874Q156.83125 35.51875 157.20625 34.753124Q157.4875 34.14375 157.4875 32.9875L157.4875 32.346874ZM161.8625 37.55L161.8625 27.175L163.45625 27.175L163.45625 28.659374Q164.59688 26.940624 166.75313 26.940624Q167.69063 26.940624 168.47188 27.284374Q169.26875 27.6125 169.65938 28.159374Q170.05 28.70625 170.20625 29.45625Q170.3 29.95625 170.3 31.175L170.3 37.55L168.53438 37.55L168.53438 31.2375Q168.53438 30.159374 168.33125 29.628124Q168.12813 29.096874 167.59688 28.784374Q167.08125 28.471874 166.37813 28.471874Q165.25313 28.471874 164.44063 29.190624Q163.62813 29.89375 163.62813 31.878124L163.62813 37.55L161.8625 37.55ZM178.64375 33.753124L180.3625 33.971874Q180.08125 35.76875 178.90938 36.784374Q177.75313 37.784374 176.05 37.784374Q173.925 37.784374 172.62813 36.39375Q171.33125 35.003124 171.33125 32.409374Q171.33125 30.721874 171.87813 29.471874Q172.44063 28.20625 173.58125 27.58125Q174.72188 26.940624 176.06563 26.940624Q177.75313 26.940624 178.81563 27.8Q179.89375 28.659374 180.20625 30.221874L178.4875 30.4875Q178.25313 29.440624 177.62813 28.925Q177.00313 28.39375 176.12813 28.39375Q174.8 28.39375 173.97188 29.346874Q173.14375 30.3 173.14375 32.346874Q173.14375 34.440624 173.94063 35.39375Q174.7375 36.33125 176.03438 36.33125Q177.06563 36.33125 177.75313 35.70625Q178.45625 35.065624 178.64375 33.753124ZM188.97188 34.20625L190.78438 34.440624Q190.3625 36.01875 189.19063 36.909374Q188.03438 37.784374 186.22188 37.784374Q183.95625 37.784374 182.6125 36.39375Q181.28438 34.9875 181.28438 32.45625Q181.28438 29.83125 182.62813 28.39375Q183.97188 26.940624 186.12813 26.940624Q188.20625 26.940624 189.51875 28.3625Q190.84688 29.76875 190.84688 32.346874Q190.84688 32.503124 190.83125 32.815624L183.09688 32.815624Q183.19063 34.51875 184.06563 35.425Q184.94063 36.33125 186.2375 36.33125Q187.20625 36.33125 187.87813 35.83125Q188.56563 35.315624 188.97188 34.20625ZM183.19063 31.3625L188.9875 31.3625Q188.87813 30.065624 188.33125 29.409374Q187.4875 28.39375 186.14375 28.39375Q184.94063 28.39375 184.1125 29.20625Q183.28438 30.003124 183.19063 31.3625Z" fill-rule="nonzero"/></svg>