<svg version="1.1" viewBox="0.0 0.0 600.0 371.0" fill="none" stroke="none" stroke-linecap="square" stroke-miterlimit="10" width="600" height="371" xmlns:xlink="http://www.w3.org/1999/xlink" xmlns="http://www.w3.org/2000/svg"><path fill="#ffffff" d="M0 0L600.0 0L600.0 371.0L0 371.0L0 0Z" fill-rule="nonzero"/><path fill="#6aa84f" d="M300.0 54.916668C353.1492 54.916668 402.2611 83.27143 428.83572 129.3L300.0 203.68333Z" fill-rule="nonzero"/><path fill="#fbbc04" d="M428.83572 129.3C462.50204 187.61177 452.8053 261.2659 405.1939 308.87726C357.58255 356.48862 283.92844 366.18536 225.61667 332.51904C167.30489 298.85272 138.87547 230.21802 156.30243 165.17969C173.7294 100.14135 232.66736 54.916668 300.0 54.916668L300.0 203.68333Z" fill-rule="nonzero"/><path fill="#000000" d="M214.02582 291.3729L215.27582 291.26352Q215.36957 292.01352 215.6977 292.4979Q216.02582 292.98227 216.6977 293.27914Q217.3852 293.57602 218.24457 293.57602Q218.99457 293.57602 219.5727 293.35727Q220.16644 293.1229 220.4477 292.73227Q220.72894 292.34164 220.72894 291.8729Q220.72894 291.40414 220.4477 291.0604Q220.18207 290.70102 219.55707 290.45102Q219.15082 290.29477 217.7602 289.96664Q216.3852 289.63852 215.83832 289.34164Q215.11957 288.96664 214.7602 288.41977Q214.41644 287.85727 214.41644 287.15414Q214.41644 286.40414 214.83832 285.7479Q215.27582 285.07602 216.10394 284.7479Q216.93207 284.40414 217.9477 284.40414Q219.05707 284.40414 219.90082 284.76352Q220.7602 285.1229 221.21332 285.82602Q221.66644 286.51352 221.71332 287.38852L220.43207 287.48227Q220.33832 286.54477 219.74457 286.0604Q219.15082 285.5604 217.99457 285.5604Q216.79144 285.5604 216.24457 286.01352Q215.6977 286.45102 215.6977 287.07602Q215.6977 287.60727 216.08832 287.96664Q216.46332 288.3104 218.0727 288.6854Q219.6977 289.04477 220.29144 289.3104Q221.16644 289.71664 221.58832 290.34164Q222.0102 290.95102 222.0102 291.76352Q222.0102 292.5604 221.54144 293.27914Q221.08832 293.98227 220.22894 294.3729Q219.36957 294.76352 218.30707 294.76352Q216.9477 294.76352 216.02582 294.3729Q215.10394 293.96664 214.5727 293.16977Q214.05707 292.3729 214.02582 291.3729ZM228.05707 293.70102Q227.3852 294.27914 226.74457 294.52914Q226.11957 294.76352 225.3852 294.76352Q224.1977 294.76352 223.54144 294.1854Q222.90082 293.59164 222.90082 292.66977Q222.90082 292.13852 223.1352 291.70102Q223.3852 291.26352 223.77582 290.9979Q224.18207 290.73227 224.66644 290.59164Q225.02582 290.4979 225.7602 290.40414Q227.2602 290.23227 227.96332 289.98227Q227.96332 289.73227 227.96332 289.66977Q227.96332 288.90414 227.61957 288.60727Q227.15082 288.1854 226.21332 288.1854Q225.35394 288.1854 224.93207 288.4979Q224.52582 288.79477 224.3227 289.5604L223.11957 289.40414Q223.27582 288.6229 223.65082 288.15414Q224.04144 287.6854 224.74457 287.4354Q225.46332 287.16977 226.40082 287.16977Q227.3227 287.16977 227.90082 287.38852Q228.47894 287.60727 228.74457 287.9354Q229.02582 288.26352 229.1352 288.77914Q229.1977 289.09164 229.1977 289.90414L229.1977 291.54477Q229.1977 293.26352 229.27582 293.71664Q229.35394 294.16977 229.58832 294.59164L228.30707 294.59164Q228.11957 294.20102 228.05707 293.70102ZM227.96332 290.95102Q227.29144 291.21664 225.9477 291.41977Q225.1977 291.52914 224.86957 291.66977Q224.55707 291.79477 224.3852 292.0604Q224.21332 292.32602 224.21332 292.63852Q224.21332 293.13852 224.58832 293.46664Q224.96332 293.79477 225.68207 293.79477Q226.40082 293.79477 226.9477 293.48227Q227.49457 293.16977 227.7602 292.6229Q227.96332 292.21664 227.96332 291.40414L227.96332 290.95102ZM234.0102 293.4979L234.18207 294.57602Q233.66644 294.6854 233.2602 294.6854Q232.58832 294.6854 232.21332 294.48227Q231.85394 294.26352 231.6977 293.91977Q231.55707 293.57602 231.55707 292.46664L231.55707 288.29477L230.65082 288.29477L230.65082 287.32602L231.55707 287.32602L231.55707 285.52914L232.77582 284.79477L232.77582 287.32602L234.0102 287.32602L234.0102 288.29477L232.77582 288.29477L232.77582 292.52914Q232.77582 293.0604 232.83832 293.21664Q232.90082 293.35727 233.04144 293.45102Q233.1977 293.54477 233.46332 293.54477Q233.68207 293.54477 234.0102 293.4979ZM235.33832 285.98227L235.33832 284.57602L236.55707 284.57602L236.55707 285.98227L235.33832 285.98227ZM235.33832 294.59164L235.33832 287.32602L236.55707 287.32602L236.55707 294.59164L235.33832 294.59164ZM237.83832 292.41977L239.04144 292.23227Q239.15082 292.96664 239.61957 293.35727Q240.08832 293.7479 240.93207 293.7479Q241.77582 293.7479 242.18207 293.40414Q242.60394 293.0604 242.60394 292.59164Q242.60394 292.16977 242.22894 291.9354Q241.97894 291.76352 240.97894 291.51352Q239.61957 291.16977 239.08832 290.91977Q238.5727 290.66977 238.30707 290.23227Q238.04144 289.79477 238.04144 289.26352Q238.04144 288.77914 238.2602 288.3729Q238.47894 287.95102 238.86957 287.66977Q239.15082 287.46664 239.6352 287.32602Q240.1352 287.16977 240.71332 287.16977Q241.55707 287.16977 242.1977 287.41977Q242.85394 287.65414 243.16644 288.07602Q243.47894 288.4979 243.58832 289.20102L242.3852 289.3729Q242.30707 288.8104 241.90082 288.4979Q241.5102 288.1854 240.79144 288.1854Q239.9477 288.1854 239.58832 288.46664Q239.22894 288.73227 239.22894 289.1229Q239.22894 289.35727 239.36957 289.54477Q239.52582 289.7479 239.85394 289.8729Q240.02582 289.9354 240.93207 290.1854Q242.24457 290.54477 242.7602 290.76352Q243.27582 290.98227 243.55707 291.40414Q243.85394 291.82602 243.85394 292.45102Q243.85394 293.07602 243.49457 293.6229Q243.15082 294.15414 242.46332 294.46664Q241.79144 294.76352 240.93207 294.76352Q239.52582 294.76352 238.77582 294.16977Q238.04144 293.57602 237.83832 292.41977ZM245.61957 294.59164L245.61957 288.29477L244.52582 288.29477L244.52582 287.32602L245.61957 287.32602L245.61957 286.5604Q245.61957 285.82602 245.74457 285.46664Q245.93207 284.9979 246.36957 284.70102Q246.8227 284.40414 247.6352 284.40414Q248.15082 284.40414 248.77582 284.52914L248.58832 285.59164Q248.21332 285.52914 247.86957 285.52914Q247.30707 285.52914 247.0727 285.76352Q246.83832 285.9979 246.83832 286.65414L246.83832 287.32602L248.2602 287.32602L248.2602 288.29477L246.83832 288.29477L246.83832 294.59164L245.61957 294.59164ZM254.05707 293.70102Q253.3852 294.27914 252.74457 294.52914Q252.11957 294.76352 251.3852 294.76352Q250.1977 294.76352 249.54144 294.1854Q248.90082 293.59164 248.90082 292.66977Q248.90082 292.13852 249.1352 291.70102Q249.3852 291.26352 249.77582 290.9979Q250.18207 290.73227 250.66644 290.59164Q251.02582 290.4979 251.7602 290.40414Q253.2602 290.23227 253.96332 289.98227Q253.96332 289.73227 253.96332 289.66977Q253.96332 288.90414 253.61957 288.60727Q253.15082 288.1854 252.21332 288.1854Q251.35394 288.1854 250.93207 288.4979Q250.52582 288.79477 250.3227 289.5604L249.11957 289.40414Q249.27582 288.6229 249.65082 288.15414Q250.04144 287.6854 250.74457 287.4354Q251.46332 287.16977 252.40082 287.16977Q253.3227 287.16977 253.90082 287.38852Q254.47894 287.60727 254.74457 287.9354Q255.02582 288.26352 255.1352 288.77914Q255.1977 289.09164 255.1977 289.90414L255.1977 291.54477Q255.1977 293.26352 255.27582 293.71664Q255.35394 294.16977 255.58832 294.59164L254.30707 294.59164Q254.11957 294.20102 254.05707 293.70102ZM253.96332 290.95102Q253.29144 291.21664 251.9477 291.41977Q251.1977 291.52914 250.86957 291.66977Q250.55707 291.79477 250.3852 292.0604Q250.21332 292.32602 250.21332 292.63852Q250.21332 293.13852 250.58832 293.46664Q250.96332 293.79477 251.68207 293.79477Q252.40082 293.79477 252.9477 293.48227Q253.49457 293.16977 253.7602 292.6229Q253.96332 292.21664 253.96332 291.40414L253.96332 290.95102ZM262.05707 291.9354L263.27582 292.09164Q263.0727 293.34164 262.24457 294.0604Q261.43207 294.76352 260.24457 294.76352Q258.7602 294.76352 257.85394 293.79477Q256.9477 292.8104 256.9477 290.98227Q256.9477 289.8104 257.33832 288.9354Q257.72894 288.04477 258.52582 287.60727Q259.3227 287.16977 260.2602 287.16977Q261.43207 287.16977 262.18207 287.76352Q262.9477 288.35727 263.15082 289.46664L261.96332 289.65414Q261.79144 288.91977 261.35394 288.5604Q260.91644 288.1854 260.30707 288.1854Q259.36957 288.1854 258.79144 288.85727Q258.21332 289.51352 258.21332 290.95102Q258.21332 292.41977 258.77582 293.09164Q259.33832 293.7479 260.22894 293.7479Q260.96332 293.7479 261.4477 293.3104Q261.93207 292.85727 262.05707 291.9354ZM267.0102 293.4979L267.18207 294.57602Q266.66644 294.6854 266.2602 294.6854Q265.58832 294.6854 265.21332 294.48227Q264.85394 294.26352 264.6977 293.91977Q264.55707 293.57602 264.55707 292.46664L264.55707 288.29477L263.65082 288.29477L263.65082 287.32602L264.55707 287.32602L264.55707 285.52914L265.77582 284.79477L265.77582 287.32602L267.0102 287.32602L267.0102 288.29477L265.77582 288.29477L265.77582 292.52914Q265.77582 293.0604 265.83832 293.21664Q265.90082 293.35727 266.04144 293.45102Q266.1977 293.54477 266.46332 293.54477Q266.68207 293.54477 267.0102 293.4979ZM267.86957 290.96664Q267.86957 288.95102 268.99457 287.96664Q269.91644 287.16977 271.27582 287.16977Q272.7602 287.16977 273.71332 288.15414Q274.66644 289.1229 274.66644 290.85727Q274.66644 292.26352 274.24457 293.07602Q273.8227 293.8729 273.0102 294.32602Q272.21332 294.76352 271.27582 294.76352Q269.74457 294.76352 268.80707 293.77914Q267.86957 292.79477 267.86957 290.96664ZM269.1352 290.96664Q269.1352 292.35727 269.74457 293.0604Q270.35394 293.7479 271.27582 293.7479Q272.18207 293.7479 272.79144 293.04477Q273.40082 292.34164 273.40082 290.91977Q273.40082 289.57602 272.79144 288.88852Q272.18207 288.1854 271.27582 288.1854Q270.35394 288.1854 269.74457 288.8729Q269.1352 289.5604 269.1352 290.96664ZM276.30707 294.59164L276.30707 287.32602L277.41644 287.32602L277.41644 288.4354Q277.83832 287.65414 278.1977 287.41977Q278.55707 287.16977 278.99457 287.16977Q279.61957 287.16977 280.2602 287.5604L279.83832 288.70102Q279.3852 288.4354 278.93207 288.4354Q278.52582 288.4354 278.1977 288.6854Q277.8852 288.91977 277.74457 289.35727Q277.54144 290.01352 277.54144 290.79477L277.54144 294.59164L276.30707 294.59164ZM281.27582 297.38852L281.1352 296.23227Q281.54144 296.34164 281.83832 296.34164Q282.24457 296.34164 282.49457 296.20102Q282.74457 296.07602 282.90082 295.82602Q283.0102 295.63852 283.27582 294.90414Q283.30707 294.8104 283.3852 294.60727L280.61957 287.32602L281.9477 287.32602L283.46332 291.52914Q283.7602 292.34164 283.99457 293.21664Q284.1977 292.3729 284.49457 291.5604L286.04144 287.32602L287.27582 287.32602L284.5102 294.71664Q284.0727 295.90414 283.8227 296.35727Q283.49457 296.96664 283.0727 297.2479Q282.65082 297.54477 282.05707 297.54477Q281.71332 297.54477 281.27582 297.38852Z" fill-rule="nonzero"/><path fill="#1a1a1a" d="M19.26875 316.88977L20.70625 316.76477Q20.8 317.62415 21.175 318.18665Q21.55 318.73352 22.33125 319.07727Q23.1125 319.4054 24.08125 319.4054Q24.95625 319.4054 25.6125 319.1554Q26.284374 318.88977 26.596874 318.45227Q26.925 317.99915 26.925 317.4679Q26.925 316.92102 26.6125 316.5304Q26.3 316.12415 25.58125 315.8429Q25.128124 315.67102 23.55 315.29602Q21.971874 314.9054 21.33125 314.57727Q20.51875 314.13977 20.1125 313.51477Q19.70625 312.87415 19.70625 312.07727Q19.70625 311.2179 20.190624 310.4679Q20.690624 309.70227 21.628124 309.31165Q22.58125 308.92102 23.7375 308.92102Q25.01875 308.92102 25.9875 309.3429Q26.95625 309.74915 27.471874 310.54602Q28.003124 311.3429 28.05 312.3429L26.596874 312.45227Q26.471874 311.37415 25.8 310.82727Q25.128124 310.26477 23.8 310.26477Q22.425 310.26477 21.8 310.76477Q21.175 311.26477 21.175 311.98352Q21.175 312.5929 21.6125 312.99915Q22.05 313.38977 23.89375 313.81165Q25.753124 314.23352 26.440624 314.54602Q27.440624 314.99915 27.909374 315.7179Q28.39375 316.42102 28.39375 317.3429Q28.39375 318.24915 27.8625 319.06165Q27.346874 319.87415 26.3625 320.32727Q25.378124 320.7804 24.159374 320.7804Q22.596874 320.7804 21.55 320.32727Q20.503124 319.85852 19.89375 318.95227Q19.3 318.04602 19.26875 316.88977ZM36.01875 319.54602Q35.2375 320.2179 34.51875 320.49915Q33.8 320.76477 32.971874 320.76477Q31.596874 320.76477 30.8625 320.0929Q30.128124 319.42102 30.128124 318.38977Q30.128124 317.7804 30.409374 317.2804Q30.690624 316.76477 31.128124 316.4679Q31.58125 316.1554 32.14375 315.99915Q32.565624 315.88977 33.39375 315.79602Q35.096874 315.5929 35.909374 315.31165Q35.909374 315.01477 35.909374 314.93665Q35.909374 314.07727 35.51875 313.73352Q34.971874 313.24915 33.909374 313.24915Q32.925 313.24915 32.440624 313.60852Q31.971874 313.95227 31.753124 314.82727L30.378124 314.63977Q30.565624 313.76477 30.9875 313.2179Q31.425 312.67102 32.2375 312.38977Q33.05 312.0929 34.1125 312.0929Q35.175 312.0929 35.83125 312.3429Q36.503124 312.5929 36.815624 312.9679Q37.128124 313.3429 37.253124 313.92102Q37.33125 314.2804 37.33125 315.2179L37.33125 317.0929Q37.33125 319.06165 37.409374 319.57727Q37.503124 320.0929 37.76875 320.57727L36.3 320.57727Q36.08125 320.13977 36.01875 319.54602ZM35.909374 316.4054Q35.14375 316.7179 33.6125 316.93665Q32.7375 317.06165 32.378124 317.2179Q32.01875 317.37415 31.815624 317.68665Q31.628124 317.98352 31.628124 318.3429Q31.628124 318.9054 32.05 319.2804Q32.4875 319.6554 33.3 319.6554Q34.1125 319.6554 34.7375 319.31165Q35.378124 318.95227 35.675 318.32727Q35.909374 317.85852 35.909374 316.92102L35.909374 316.4054ZM42.675 319.31165L42.878124 320.56165Q42.284374 320.68665 41.815624 320.68665Q41.05 320.68665 40.628124 320.45227Q40.20625 320.20227 40.034374 319.81165Q39.8625 319.4054 39.8625 318.13977L39.8625 313.37415L38.83125 313.37415L38.83125 312.2804L39.8625 312.2804L39.8625 310.2179L41.26875 309.37415L41.26875 312.2804L42.675 312.2804L42.675 313.37415L41.26875 313.37415L41.26875 318.2179Q41.26875 318.82727 41.33125 318.99915Q41.409374 319.17102 41.58125 319.2804Q41.753124 319.37415 42.065624 319.37415Q42.3 319.37415 42.675 319.31165ZM43.6125 310.73352L43.6125 309.12415L45.01875 309.12415L45.01875 310.73352L43.6125 310.73352ZM43.6125 320.57727L43.6125 312.2804L45.01875 312.2804L45.01875 320.57727L43.6125 320.57727ZM47.05 318.0929L48.440624 317.87415Q48.55 318.7179 49.08125 319.17102Q49.628124 319.60852 50.58125 319.60852Q51.55 319.60852 52.01875 319.2179Q52.4875 318.81165 52.4875 318.2804Q52.4875 317.81165 52.08125 317.5304Q51.784374 317.3429 50.64375 317.06165Q49.096874 316.67102 48.4875 316.38977Q47.89375 316.0929 47.58125 315.5929Q47.284374 315.0929 47.284374 314.48352Q47.284374 313.92102 47.534374 313.45227Q47.784374 312.98352 48.221874 312.67102Q48.55 312.42102 49.1125 312.26477Q49.690624 312.0929 50.33125 312.0929Q51.315624 312.0929 52.05 312.37415Q52.784374 312.6554 53.128124 313.13977Q53.4875 313.60852 53.628124 314.42102L52.253124 314.60852Q52.159374 313.9679 51.70625 313.60852Q51.253124 313.24915 50.440624 313.24915Q49.471874 313.24915 49.05 313.57727Q48.64375 313.88977 48.64375 314.31165Q48.64375 314.5929 48.815624 314.81165Q48.9875 315.0304 49.346874 315.18665Q49.565624 315.26477 50.596874 315.54602Q52.08125 315.93665 52.675 316.20227Q53.26875 316.45227 53.596874 316.93665Q53.940624 317.42102 53.940624 318.13977Q53.940624 318.8429 53.51875 319.4679Q53.1125 320.07727 52.33125 320.42102Q51.565624 320.76477 50.596874 320.76477Q48.971874 320.76477 48.128124 320.0929Q47.284374 319.42102 47.05 318.0929ZM55.940624 320.57727L55.940624 313.37415L54.70625 313.37415L54.70625 312.2804L55.940624 312.2804L55.940624 311.38977Q55.940624 310.56165 56.096874 310.1554Q56.3 309.60852 56.8 309.26477Q57.315624 308.92102 58.2375 308.92102Q58.83125 308.92102 59.55 309.06165L59.346874 310.29602Q58.909374 310.2179 58.51875 310.2179Q57.878124 310.2179 57.6125 310.49915Q57.346874 310.76477 57.346874 311.51477L57.346874 312.2804L58.95625 312.2804L58.95625 313.37415L57.346874 313.37415L57.346874 320.57727L55.940624 320.57727ZM65.01875 319.54602Q64.2375 320.2179 63.51875 320.49915Q62.8 320.76477 61.971874 320.76477Q60.596874 320.76477 59.8625 320.0929Q59.128124 319.42102 59.128124 318.38977Q59.128124 317.7804 59.409374 317.2804Q59.690624 316.76477 60.128124 316.4679Q60.58125 316.1554 61.14375 315.99915Q61.565624 315.88977 62.39375 315.79602Q64.09688 315.5929 64.90938 315.31165Q64.90938 315.01477 64.90938 314.93665Q64.90938 314.07727 64.51875 313.73352Q63.971874 313.24915 62.909374 313.24915Q61.925 313.24915 61.440624 313.60852Q60.971874 313.95227 60.753124 314.82727L59.378124 314.63977Q59.565624 313.76477 59.9875 313.2179Q60.425 312.67102 61.2375 312.38977Q62.05 312.0929 63.1125 312.0929Q64.175 312.0929 64.83125 312.3429Q65.50313 312.5929 65.81563 312.9679Q66.12813 313.3429 66.25313 313.92102Q66.33125 314.2804 66.33125 315.2179L66.33125 317.0929Q66.33125 319.06165 66.40938 319.57727Q66.50313 320.0929 66.76875 320.57727L65.3 320.57727Q65.08125 320.13977 65.01875 319.54602ZM64.90938 316.4054Q64.14375 316.7179 62.6125 316.93665Q61.7375 317.06165 61.378124 317.2179Q61.01875 317.37415 60.815624 317.68665Q60.628124 317.98352 60.628124 318.3429Q60.628124 318.9054 61.05 319.2804Q61.4875 319.6554 62.3 319.6554Q63.1125 319.6554 63.7375 319.31165Q64.37813 318.95227 64.675 318.32727Q64.90938 317.85852 64.90938 316.92102L64.90938 316.4054ZM74.01875 317.5304L75.40938 317.7179Q75.175 319.13977 74.2375 319.95227Q73.31563 320.76477 71.95625 320.76477Q70.25313 320.76477 69.20625 319.6554Q68.175 318.5304 68.175 316.45227Q68.175 315.10852 68.6125 314.10852Q69.06563 313.0929 69.97188 312.5929Q70.89375 312.0929 71.95625 312.0929Q73.31563 312.0929 74.175 312.7804Q75.03438 313.45227 75.26875 314.7179L73.90938 314.92102Q73.70625 314.0929 73.20625 313.67102Q72.72188 313.24915 72.01875 313.24915Q70.95625 313.24915 70.28438 314.01477Q69.62813 314.76477 69.62813 316.42102Q69.62813 318.0929 70.26875 318.85852Q70.90938 319.60852 71.94063 319.60852Q72.76875 319.60852 73.31563 319.10852Q73.87813 318.5929 74.01875 317.5304ZM79.675 319.31165L79.87813 320.56165Q79.28438 320.68665 78.81563 320.68665Q78.05 320.68665 77.62813 320.45227Q77.20625 320.20227 77.03438 319.81165Q76.8625 319.4054 76.8625 318.13977L76.8625 313.37415L75.83125 313.37415L75.83125 312.2804L76.8625 312.2804L76.8625 310.2179L78.26875 309.37415L78.26875 312.2804L79.675 312.2804L79.675 313.37415L78.26875 313.37415L78.26875 318.2179Q78.26875 318.82727 78.33125 318.99915Q78.40938 319.17102 78.58125 319.2804Q78.75313 319.37415 79.06563 319.37415Q79.3 319.37415 79.675 319.31165ZM80.08125 316.42102Q80.08125 314.12415 81.3625 313.01477Q82.44063 312.0929 83.97188 312.0929Q85.69063 312.0929 86.76875 313.2179Q87.8625 314.32727 87.8625 316.31165Q87.8625 317.9054 87.37813 318.82727Q86.89375 319.74915 85.97188 320.26477Q85.06563 320.76477 83.97188 320.76477Q82.2375 320.76477 81.15938 319.6554Q80.08125 318.5304 80.08125 316.42102ZM81.53438 316.42102Q81.53438 318.01477 82.22188 318.81165Q82.925 319.60852 83.97188 319.60852Q85.01875 319.60852 85.70625 318.81165Q86.40938 318.01477 86.40938 316.37415Q86.40938 314.8429 85.70625 314.04602Q85.01875 313.24915 83.97188 313.24915Q82.925 313.24915 82.22188 314.04602Q81.53438 314.82727 81.53438 316.42102ZM89.59688 320.57727L89.59688 312.2804L90.8625 312.2804L90.8625 313.5304Q91.34688 312.6554 91.75313 312.37415Q92.15938 312.0929 92.65938 312.0929Q93.3625 312.0929 94.09688 312.54602L93.6125 313.8429Q93.09688 313.54602 92.58125 313.54602Q92.12813 313.54602 91.75313 313.82727Q91.39375 314.0929 91.2375 314.5929Q91.00313 315.3429 91.00313 316.23352L91.00313 320.57727L89.59688 320.57727ZM94.55 323.7804L94.39375 322.45227Q94.84688 322.57727 95.19063 322.57727Q95.65938 322.57727 95.94063 322.42102Q96.22188 322.26477 96.40938 321.98352Q96.53438 321.7804 96.83125 320.93665Q96.87813 320.82727 96.95625 320.5929L93.81563 312.2804L95.33125 312.2804L97.05 317.07727Q97.39375 317.99915 97.65938 318.99915Q97.89375 318.0304 98.2375 317.10852L100.00313 312.2804L101.40938 312.2804L98.25313 320.7179Q97.75313 322.0929 97.47188 322.60852Q97.09688 323.29602 96.6125 323.62415Q96.12813 323.95227 95.45625 323.95227Q95.05 323.95227 94.55 323.7804Z" fill-rule="nonzero"/><path fill="#9e9e9e" d="M21.378124 336.35852Q20.503124 336.04602 20.08125 335.45227Q19.659374 334.85852 19.659374 334.0304Q19.659374 332.7804 20.55 331.93665Q21.45625 331.07727 22.95625 331.07727Q24.45625 331.07727 25.3625 331.95227Q26.284374 332.81165 26.284374 334.06165Q26.284374 334.85852 25.8625 335.45227Q25.440624 336.04602 24.596874 336.35852Q25.64375 336.70227 26.190624 337.4679Q26.753124 338.23352 26.753124 339.29602Q26.753124 340.76477 25.70625 341.7804Q24.675 342.7804 22.971874 342.7804Q21.284374 342.7804 20.2375 341.7804Q19.20625 340.76477 19.20625 339.26477Q19.20625 338.13977 19.76875 337.38977Q20.33125 336.63977 21.378124 336.35852ZM21.096874 333.98352Q21.096874 334.79602 21.6125 335.31165Q22.14375 335.82727 22.9875 335.82727Q23.8 335.82727 24.315624 335.31165Q24.83125 334.79602 24.83125 334.06165Q24.83125 333.2804 24.3 332.76477Q23.76875 332.23352 22.971874 332.23352Q22.159374 332.23352 21.628124 332.74915Q21.096874 333.26477 21.096874 333.98352ZM20.64375 339.26477Q20.64375 339.87415 20.925 340.43665Q21.221874 340.99915 21.784374 341.31165Q22.346874 341.60852 22.9875 341.60852Q24.003124 341.60852 24.659374 340.9679Q25.315624 340.31165 25.315624 339.31165Q25.315624 338.29602 24.628124 337.63977Q23.95625 336.9679 22.940624 336.9679Q21.95625 336.9679 21.3 337.62415Q20.64375 338.2804 20.64375 339.26477ZM28.221874 339.54602L29.628124 339.35852Q29.878124 340.56165 30.45625 341.0929Q31.034374 341.60852 31.878124 341.60852Q32.8625 341.60852 33.55 340.92102Q34.2375 340.23352 34.2375 339.2179Q34.2375 338.24915 33.596874 337.62415Q32.971874 336.99915 31.9875 336.99915Q31.596874 336.99915 31.003124 337.1554L31.159374 335.92102Q31.3 335.93665 31.378124 335.93665Q32.284374 335.93665 33.003124 335.4679Q33.721874 334.99915 33.721874 334.01477Q33.721874 333.24915 33.190624 332.74915Q32.675 332.23352 31.846874 332.23352Q31.01875 332.23352 30.471874 332.74915Q29.925 333.26477 29.76875 334.29602L28.3625 334.04602Q28.628124 332.62415 29.534374 331.85852Q30.45625 331.07727 31.815624 331.07727Q32.753124 331.07727 33.534374 331.48352Q34.33125 331.87415 34.7375 332.57727Q35.159374 333.26477 35.159374 334.04602Q35.159374 334.79602 34.753124 335.4054Q34.3625 336.01477 33.58125 336.37415Q34.596874 336.60852 35.159374 337.3429Q35.721874 338.07727 35.721874 339.18665Q35.721874 340.68665 34.628124 341.73352Q33.534374 342.7804 31.8625 342.7804Q30.3625 342.7804 29.3625 341.88977Q28.3625 340.98352 28.221874 339.54602ZM38.003124 342.57727L38.003124 340.9679L39.6125 340.9679L39.6125 342.57727L38.003124 342.57727ZM41.221874 339.54602L42.628124 339.35852Q42.878124 340.56165 43.45625 341.0929Q44.034374 341.60852 44.878124 341.60852Q45.8625 341.60852 46.55 340.92102Q47.2375 340.23352 47.2375 339.2179Q47.2375 338.24915 46.596874 337.62415Q45.971874 336.99915 44.9875 336.99915Q44.596874 336.99915 44.003124 337.1554L44.159374 335.92102Q44.3 335.93665 44.378124 335.93665Q45.284374 335.93665 46.003124 335.4679Q46.721874 334.99915 46.721874 334.01477Q46.721874 333.24915 46.190624 332.74915Q45.675 332.23352 44.846874 332.23352Q44.01875 332.23352 43.471874 332.74915Q42.925 333.26477 42.76875 334.29602L41.3625 334.04602Q41.628124 332.62415 42.534374 331.85852Q43.45625 331.07727 44.815624 331.07727Q45.753124 331.07727 46.534374 331.48352Q47.33125 331.87415 47.7375 332.57727Q48.159374 333.26477 48.159374 334.04602Q48.159374 334.79602 47.753124 335.4054Q47.3625 336.01477 46.58125 336.37415Q47.596874 336.60852 48.159374 337.3429Q48.721874 338.07727 48.721874 339.18665Q48.721874 340.68665 47.628124 341.73352Q46.534374 342.7804 44.8625 342.7804Q43.3625 342.7804 42.3625 341.88977Q41.3625 340.98352 41.221874 339.54602ZM50.4875 333.87415Q50.4875 332.63977 51.096874 331.7804Q51.721874 330.92102 52.89375 330.92102Q53.971874 330.92102 54.675 331.70227Q55.378124 332.4679 55.378124 333.95227Q55.378124 335.4054 54.659374 336.20227Q53.95625 336.98352 52.909374 336.98352Q51.8625 336.98352 51.175 336.2179Q50.4875 335.43665 50.4875 333.87415ZM52.925 331.88977Q52.409374 331.88977 52.05 332.3429Q51.70625 332.79602 51.70625 334.01477Q51.70625 335.10852 52.05 335.56165Q52.409374 336.01477 52.925 336.01477Q53.45625 336.01477 53.8 335.56165Q54.159374 335.10852 54.159374 333.9054Q54.159374 332.79602 53.8 332.3429Q53.45625 331.88977 52.925 331.88977ZM52.940624 342.99915L59.20625 330.92102L60.346874 330.92102L54.096874 342.99915L52.940624 342.99915ZM57.89375 339.88977Q57.89375 338.6554 58.503124 337.79602Q59.128124 336.93665 60.3 336.93665Q61.378124 336.93665 62.08125 337.7179Q62.8 338.48352 62.8 339.9679Q62.8 341.42102 62.08125 342.2179Q61.3625 342.99915 60.315624 342.99915Q59.26875 342.99915 58.58125 342.2179Q57.89375 341.43665 57.89375 339.88977ZM60.346874 337.9054Q59.815624 337.9054 59.45625 338.35852Q59.1125 338.81165 59.1125 340.0304Q59.1125 341.12415 59.45625 341.57727Q59.815624 342.0304 60.33125 342.0304Q60.878124 342.0304 61.221874 341.57727Q61.565624 341.12415 61.565624 339.92102Q61.565624 338.81165 61.20625 338.35852Q60.8625 337.9054 60.346874 337.9054Z" fill-rule="nonzero"/><path stroke="#757575" stroke-width="1.0" stroke-linecap="butt" d="M18.55 326.07727L145.23334 326.07727L229.33583 326.07727" fill-rule="nonzero"/><path fill="#9e9e9e" d="M231.33583 326.07727C231.33583 324.9727 230.4404 324.07727 229.33583 324.07727C228.23126 324.07727 227.33583 324.9727 227.33583 326.07727C227.33583 327.18182 228.23126 328.07727 229.33583 328.07727C230.4404 328.07727 231.33583 327.18182 231.33583 326.07727" fill-rule="nonzero"/><path fill="#1a1a1a" d="M477.23126 70.21128Q477.23126 67.351906 478.7625 65.74253Q480.29376 64.133156 482.71564 64.133156Q484.29376 64.133156 485.5594 64.89878Q486.84064 65.64878 487.5125 67.008156Q488.1844 68.351906 488.1844 70.070656Q488.1844 71.820656 487.48126 73.195656Q486.77814 74.570656 485.48126 75.289406Q484.2 75.99253 482.7 75.99253Q481.09064 75.99253 479.8094 75.21128Q478.54376 74.414406 477.8875 73.070656Q477.23126 71.71128 477.23126 70.21128ZM478.79376 70.226906Q478.79376 72.30503 479.90314 73.49253Q481.0125 74.68003 482.7 74.68003Q484.40314 74.68003 485.5125 73.476906Q486.6219 72.27378 486.6219 70.070656Q486.6219 68.664406 486.1375 67.633156Q485.66876 66.58628 484.7625 66.008156Q483.85626 65.43003 482.71564 65.43003Q481.10626 65.43003 479.95 66.539406Q478.79376 67.64878 478.79376 70.226906ZM491.8094 75.789406L488.65314 67.49253L490.1375 67.49253L491.91876 72.46128Q492.21564 73.258156 492.45 74.133156Q492.6375 73.476906 492.98126 72.55503L494.825 67.49253L496.2625 67.49253L493.1219 75.789406L491.8094 75.789406ZM502.1844 73.11753L503.6375 73.289406Q503.29376 74.570656 502.35626 75.27378Q501.4344 75.976906 499.9969 75.976906Q498.16876 75.976906 497.10626 74.851906Q496.04376 73.726906 496.04376 71.71128Q496.04376 69.61753 497.1219 68.46128Q498.2 67.30503 499.91876 67.30503Q501.575 67.30503 502.6219 68.445656Q503.6844 69.570656 503.6844 71.61753Q503.6844 71.74253 503.6844 71.99253L497.4969 71.99253Q497.575 73.36753 498.2625 74.101906Q498.96564 74.820656 499.9969 74.820656Q500.77814 74.820656 501.325 74.414406Q501.8719 74.008156 502.1844 73.11753ZM497.575 70.83628L502.2 70.83628Q502.10626 69.789406 501.66876 69.27378Q500.9969 68.46128 499.9344 68.46128Q498.96564 68.46128 498.29376 69.11753Q497.6375 69.758156 497.575 70.83628ZM505.4969 75.789406L505.4969 67.49253L506.7625 67.49253L506.7625 68.74253Q507.2469 67.86753 507.65314 67.58628Q508.0594 67.30503 508.5594 67.30503Q509.2625 67.30503 509.9969 67.758156L509.5125 69.05503Q508.9969 68.758156 508.48126 68.758156Q508.02814 68.758156 507.65314 69.039406Q507.29376 69.30503 507.1375 69.80503Q506.90314 70.55503 506.90314 71.445656L506.90314 75.789406L505.4969 75.789406ZM510.5125 78.976906L510.5125 67.49253L511.79376 67.49253L511.79376 68.570656Q512.2469 67.93003 512.8094 67.61753Q513.3875 67.30503 514.2 67.30503Q515.2625 67.30503 516.075 67.851906Q516.8875 68.39878 517.29376 69.39878Q517.71564 70.383156 517.71564 71.570656Q517.71564 72.851906 517.2469 73.86753Q516.79376 74.883156 515.91876 75.43003Q515.0594 75.976906 514.09064 75.976906Q513.3875 75.976906 512.825 75.68003Q512.27814 75.383156 511.91876 74.93003L511.91876 78.976906L510.5125 78.976906ZM511.77814 71.68003Q511.77814 73.289406 512.41876 74.05503Q513.075 74.820656 513.9969 74.820656Q514.9344 74.820656 515.60626 74.02378Q516.27814 73.226906 516.27814 71.570656Q516.27814 69.976906 515.6219 69.195656Q514.96564 68.39878 514.0594 68.39878Q513.16876 68.39878 512.46564 69.24253Q511.77814 70.08628 511.77814 71.68003ZM525.1844 73.11753L526.6375 73.289406Q526.29376 74.570656 525.35626 75.27378Q524.4344 75.976906 522.9969 75.976906Q521.16876 75.976906 520.10626 74.851906Q519.04376 73.726906 519.04376 71.71128Q519.04376 69.61753 520.1219 68.46128Q521.2 67.30503 522.91876 67.30503Q524.575 67.30503 525.6219 68.445656Q526.6844 69.570656 526.6844 71.61753Q526.6844 71.74253 526.6844 71.99253L520.4969 71.99253Q520.575 73.36753 521.2625 74.101906Q521.96564 74.820656 522.9969 74.820656Q523.77814 74.820656 524.325 74.414406Q524.8719 74.008156 525.1844 73.11753ZM520.575 70.83628L525.2 70.83628Q525.10626 69.789406 524.66876 69.27378Q523.9969 68.46128 522.9344 68.46128Q521.96564 68.46128 521.29376 69.11753Q520.6375 69.758156 520.575 70.83628ZM528.4969 75.789406L528.4969 67.49253L529.7625 67.49253L529.7625 68.74253Q530.2469 67.86753 530.65314 67.58628Q531.0594 67.30503 531.5594 67.30503Q532.2625 67.30503 532.9969 67.758156L532.5125 69.05503Q531.9969 68.758156 531.48126 68.758156Q531.02814 68.758156 530.65314 69.039406Q530.29376 69.30503 530.1375 69.80503Q529.90314 70.55503 529.90314 71.445656L529.90314 75.789406L528.4969 75.789406ZM533.84064 75.789406L533.84064 68.58628L532.60626 68.58628L532.60626 67.49253L533.84064 67.49253L533.84064 66.601906Q533.84064 65.77378 533.9969 65.36753Q534.2 64.820656 534.7 64.476906Q535.21564 64.133156 536.1375 64.133156Q536.73126 64.133156 537.45 64.27378L537.2469 65.508156Q536.8094 65.43003 536.41876 65.43003Q535.77814 65.43003 535.5125 65.71128Q535.2469 65.976906 535.2469 66.726906L535.2469 67.49253L536.85626 67.49253L536.85626 68.58628L535.2469 68.58628L535.2469 75.789406L533.84064 75.789406ZM536.98126 71.633156Q536.98126 69.33628 538.2625 68.226906Q539.34064 67.30503 540.8719 67.30503Q542.59064 67.30503 543.66876 68.43003Q544.7625 69.539406 544.7625 71.52378Q544.7625 73.11753 544.27814 74.039406Q543.79376 74.96128 542.8719 75.476906Q541.96564 75.976906 540.8719 75.976906Q539.1375 75.976906 538.0594 74.86753Q536.98126 73.74253 536.98126 71.633156ZM538.4344 71.633156Q538.4344 73.226906 539.1219 74.02378Q539.825 74.820656 540.8719 74.820656Q541.91876 74.820656 542.60626 74.02378Q543.3094 73.226906 543.3094 71.58628Q543.3094 70.05503 542.60626 69.258156Q541.91876 68.46128 540.8719 68.46128Q539.825 68.46128 539.1219 69.258156Q538.4344 70.039406 538.4344 71.633156ZM546.4969 75.789406L546.4969 67.49253L547.7625 67.49253L547.7625 68.74253Q548.2469 67.86753 548.65314 67.58628Q549.0594 67.30503 549.5594 67.30503Q550.2625 67.30503 550.9969 67.758156L550.5125 69.05503Q549.9969 68.758156 549.48126 68.758156Q549.02814 68.758156 548.65314 69.039406Q548.29376 69.30503 548.1375 69.80503Q547.90314 70.55503 547.90314 71.445656L547.90314 75.789406L546.4969 75.789406ZM551.5125 75.789406L551.5125 67.49253L552.7625 67.49253L552.7625 68.64878Q553.15314 68.039406 553.79376 67.68003Q554.45 67.30503 555.27814 67.30503Q556.2 67.30503 556.79376 67.695656Q557.3875 68.070656 557.6219 68.758156Q558.60626 67.30503 560.1844 67.30503Q561.41876 67.30503 562.075 67.99253Q562.7469 68.664406 562.7469 70.08628L562.7469 75.789406L561.35626 75.789406L561.35626 70.55503Q561.35626 69.71128 561.21564 69.351906Q561.075 68.976906 560.71564 68.758156Q560.35626 68.52378 559.8719 68.52378Q558.9969 68.52378 558.41876 69.101906Q557.84064 69.68003 557.84064 70.96128L557.84064 75.789406L556.4344 75.789406L556.4344 70.39878Q556.4344 69.46128 556.09064 68.99253Q555.7469 68.52378 554.96564 68.52378Q554.3719 68.52378 553.8719 68.83628Q553.3719 69.14878 553.1375 69.758156Q552.91876 70.351906 552.91876 71.476906L552.91876 75.789406L551.5125 75.789406ZM570.1844 73.11753L571.6375 73.289406Q571.29376 74.570656 570.35626 75.27378Q569.4344 75.976906 567.9969 75.976906Q566.16876 75.976906 565.10626 74.851906Q564.04376 73.726906 564.04376 71.71128Q564.04376 69.61753 565.1219 68.46128Q566.2 67.30503 567.91876 67.30503Q569.575 67.30503 570.6219 68.445656Q571.6844 69.570656 571.6844 71.61753Q571.6844 71.74253 571.6844 71.99253L565.4969 71.99253Q565.575 73.36753 566.2625 74.101906Q566.96564 74.820656 567.9969 74.820656Q568.77814 74.820656 569.325 74.414406Q569.8719 74.008156 570.1844 73.11753ZM565.575 70.83628L570.2 70.83628Q570.10626 69.789406 569.66876 69.27378Q568.9969 68.46128 567.9344 68.46128Q566.96564 68.46128 566.29376 69.11753Q565.6375 69.758156 565.575 70.83628ZM578.8875 75.789406L578.8875 74.74253Q578.10626 75.976906 576.575 75.976906Q575.575 75.976906 574.7469 75.43003Q573.91876 74.883156 573.45 73.89878Q572.9969 72.914406 572.9969 71.64878Q572.9969 70.39878 573.40314 69.39878Q573.825 68.383156 574.65314 67.851906Q575.48126 67.30503 576.5125 67.30503Q577.2625 67.30503 577.84064 67.61753Q578.4344 67.93003 578.79376 68.445656L578.79376 64.33628L580.2 64.33628L580.2 75.789406L578.8875 75.789406ZM574.45 71.64878Q574.45 73.24253 575.1219 74.039406Q575.79376 74.820656 576.7 74.820656Q577.6219 74.820656 578.2625 74.070656Q578.91876 73.30503 578.91876 71.758156Q578.91876 70.05503 578.2625 69.258156Q577.60626 68.46128 576.6375 68.46128Q575.7 68.46128 575.075 69.226906Q574.45 69.99253 574.45 71.64878Z" fill-rule="nonzero"/><path fill="#9e9e9e" d="M542.41876 97.789406L541.0125 97.789406L541.0125 88.820656Q540.4969 89.30503 539.66876 89.789406Q538.85626 90.27378 538.2 90.52378L538.2 89.164406Q539.3719 88.601906 540.2469 87.820656Q541.1375 87.02378 541.5125 86.289406L542.41876 86.289406L542.41876 97.789406ZM553.41876 89.133156L552.0125 89.24253Q551.825 88.414406 551.48126 88.039406Q550.91876 87.445656 550.075 87.445656Q549.40314 87.445656 548.90314 87.820656Q548.23126 88.30503 547.84064 89.24253Q547.46564 90.164406 547.45 91.883156Q547.96564 91.101906 548.7 90.726906Q549.4344 90.351906 550.23126 90.351906Q551.6375 90.351906 552.6219 91.39878Q553.6219 92.43003 553.6219 94.070656Q553.6219 95.14878 553.15314 96.070656Q552.6844 96.99253 551.8719 97.49253Q551.0594 97.99253 550.02814 97.99253Q548.27814 97.99253 547.16876 96.695656Q546.0594 95.39878 546.0594 92.43003Q546.0594 89.101906 547.27814 87.601906Q548.35626 86.289406 550.16876 86.289406Q551.5125 86.289406 552.3719 87.05503Q553.2469 87.80503 553.41876 89.133156ZM547.66876 94.070656Q547.66876 94.80503 547.98126 95.476906Q548.29376 96.133156 548.84064 96.476906Q549.40314 96.820656 550.0125 96.820656Q550.90314 96.820656 551.54376 96.101906Q552.1844 95.383156 552.1844 94.14878Q552.1844 92.96128 551.54376 92.289406Q550.91876 91.601906 549.95 91.601906Q548.9969 91.601906 548.325 92.289406Q547.66876 92.96128 547.66876 94.070656ZM555.90314 97.789406L555.90314 96.18003L557.5125 96.18003L557.5125 97.789406L555.90314 97.789406ZM559.21564 87.83628L559.21564 86.476906L566.6219 86.476906L566.6219 87.570656Q565.52814 88.74253 564.45 90.68003Q563.3875 92.601906 562.79376 94.633156Q562.3719 96.070656 562.2625 97.789406L560.8094 97.789406Q560.84064 96.43003 561.34064 94.52378Q561.85626 92.601906 562.79376 90.83628Q563.7469 89.05503 564.825 87.83628L559.21564 87.83628ZM568.3875 89.08628Q568.3875 87.851906 568.9969 86.99253Q569.6219 86.133156 570.79376 86.133156Q571.8719 86.133156 572.575 86.914406Q573.27814 87.68003 573.27814 89.164406Q573.27814 90.61753 572.5594 91.414406Q571.85626 92.195656 570.8094 92.195656Q569.7625 92.195656 569.075 91.43003Q568.3875 90.64878 568.3875 89.08628ZM570.825 87.101906Q570.3094 87.101906 569.95 87.55503Q569.60626 88.008156 569.60626 89.226906Q569.60626 90.320656 569.95 90.77378Q570.3094 91.226906 570.825 91.226906Q571.35626 91.226906 571.7 90.77378Q572.0594 90.320656 572.0594 89.11753Q572.0594 88.008156 571.7 87.55503Q571.35626 87.101906 570.825 87.101906ZM570.84064 98.21128L577.10626 86.133156L578.2469 86.133156L571.9969 98.21128L570.84064 98.21128ZM575.79376 95.101906Q575.79376 93.86753 576.40314 93.008156Q577.02814 92.14878 578.2 92.14878Q579.27814 92.14878 579.98126 92.93003Q580.7 93.695656 580.7 95.18003Q580.7 96.633156 579.98126 97.43003Q579.2625 98.21128 578.21564 98.21128Q577.16876 98.21128 576.48126 97.43003Q575.79376 96.64878 575.79376 95.101906ZM578.2469 93.11753Q577.71564 93.11753 577.35626 93.570656Q577.0125 94.02378 577.0125 95.24253Q577.0125 96.33628 577.35626 96.789406Q577.71564 97.24253 578.23126 97.24253Q578.77814 97.24253 579.1219 96.789406Q579.46564 96.33628 579.46564 95.133156Q579.46564 94.02378 579.10626 93.570656Q578.7625 93.11753 578.2469 93.11753Z" fill-rule="nonzero"/><path stroke="#757575" stroke-width="1.0" stroke-linecap="butt" d="M581.45 81.289406L454.76666 81.289406L370.66415 81.289406" fill-rule="nonzero"/><path fill="#9e9e9e" d="M372.66415 81.289406C372.66415 80.18484 371.76874 79.289406 370.66415 79.289406C369.5596 79.289406 368.66415 80.18484 368.66415 81.289406C368.66415 82.393974 369.5596 83.289406 370.66415 83.289406C371.76874 83.289406 372.66415 82.393974 372.66415 81.289406" fill-rule="nonzero"/><path fill="#000000" d="M22.596874 37.55L18.8 23.2375L20.7375 23.2375L22.909374 32.6125Q23.26875 34.096874 23.51875 35.55Q24.065624 33.253124 24.159374 32.89375L26.89375 23.2375L29.175 23.2375L31.221874 30.471874Q32.003124 33.175 32.346874 35.55Q32.6125 34.190624 33.05 32.425L35.3 23.2375L37.20625 23.2375L33.284374 37.55L31.45625 37.55L28.440624 26.64375Q28.05 25.26875 27.9875 24.95625Q27.753124 25.940624 27.565624 26.64375L24.534374 37.55L22.596874 37.55ZM38.878124 25.253124L38.878124 23.2375L40.64375 23.2375L40.64375 25.253124L38.878124 25.253124ZM38.878124 37.55L38.878124 27.175L40.64375 27.175L40.64375 37.55L38.878124 37.55ZM42.8625 37.55L42.8625 27.175L44.45625 27.175L44.45625 28.659374Q45.596874 26.940624 47.753124 26.940624Q48.690624 26.940624 49.471874 27.284374Q50.26875 27.6125 50.659374 28.159374Q51.05 28.70625 51.20625 29.45625Q51.3 29.95625 51.3 31.175L51.3 37.55L49.534374 37.55L49.534374 31.2375Q49.534374 30.159374 49.33125 29.628124Q49.128124 29.096874 48.596874 28.784374Q48.08125 28.471874 47.378124 28.471874Q46.253124 28.471874 45.440624 29.190624Q44.628124 29.89375 44.628124 31.878124L44.628124 37.55L42.8625 37.55ZM52.55 38.409374L54.253124 38.659374Q54.3625 39.45625 54.846874 39.815624Q55.503124 40.3 56.64375 40.3Q57.8625 40.3 58.51875 39.815624Q59.190624 39.33125 59.425 38.45625Q59.565624 37.909374 59.55 36.190624Q58.39375 37.55 56.675 37.55Q54.534374 37.55 53.3625 36.003124Q52.190624 34.45625 52.190624 32.3Q52.190624 30.815624 52.721874 29.565624Q53.26875 28.315624 54.284374 27.628124Q55.315624 26.940624 56.690624 26.940624Q58.51875 26.940624 59.721874 28.425L59.721874 27.175L61.33125 27.175L61.33125 36.14375Q61.33125 38.565624 60.83125 39.565624Q60.346874 40.58125 59.26875 41.159374Q58.20625 41.753124 56.64375 41.753124Q54.8 41.753124 53.64375 40.925Q52.503124 40.096874 52.55 38.409374ZM54.003124 32.175Q54.003124 34.221874 54.815624 35.159374Q55.628124 36.096874 56.846874 36.096874Q58.05 36.096874 58.8625 35.159374Q59.690624 34.221874 59.690624 32.2375Q59.690624 30.33125 58.846874 29.3625Q58.003124 28.39375 56.815624 28.39375Q55.64375 28.39375 54.815624 29.346874Q54.003124 30.3 54.003124 32.175ZM63.159374 34.45625L64.90938 34.175Q65.05 35.221874 65.72188 35.784374Q66.39375 36.33125 67.59688 36.33125Q68.8 36.33125 69.37813 35.846874Q69.97188 35.346874 69.97188 34.690624Q69.97188 34.096874 69.45625 33.753124Q69.09688 33.51875 67.65938 33.159374Q65.72188 32.659374 64.97188 32.315624Q64.2375 31.95625 63.846874 31.33125Q63.45625 30.690624 63.45625 29.925Q63.45625 29.2375 63.76875 28.64375Q64.09688 28.05 64.64375 27.659374Q65.05 27.3625 65.75313 27.159374Q66.47188 26.940624 67.28438 26.940624Q68.50313 26.940624 69.425 27.3Q70.34688 27.64375 70.78438 28.253124Q71.22188 28.846874 71.39375 29.846874L69.675 30.08125Q69.55 29.284374 68.9875 28.846874Q68.425 28.39375 67.40938 28.39375Q66.19063 28.39375 65.675 28.8Q65.15938 29.190624 65.15938 29.721874Q65.15938 30.065624 65.37813 30.346874Q65.58125 30.628124 66.05 30.815624Q66.31563 30.909374 67.59688 31.253124Q69.47188 31.753124 70.20625 32.08125Q70.94063 32.39375 71.3625 33.003124Q71.78438 33.596874 71.78438 34.503124Q71.78438 35.378124 71.26875 36.159374Q70.75313 36.940624 69.78438 37.3625Q68.81563 37.784374 67.59688 37.784374Q65.58125 37.784374 64.51875 36.940624Q63.45625 36.096874 63.159374 34.45625ZM80.09688 37.55L80.09688 23.2375L85.4875 23.2375Q86.925 23.2375 87.675 23.3625Q88.72188 23.55 89.44063 24.05Q90.15938 24.534374 90.58125 25.425Q91.01875 26.315624 91.01875 27.378124Q91.01875 29.20625 89.84688 30.471874Q88.69063 31.721874 85.65938 31.721874L81.9875 31.721874L81.9875 37.55L80.09688 37.55ZM81.9875 30.034374L85.69063 30.034374Q87.51875 30.034374 88.28438 29.3625Q89.06563 28.675 89.06563 27.425Q89.06563 26.534374 88.6125 25.89375Q88.15938 25.253124 87.425 25.05Q86.94063 24.925 85.64375 24.925L81.9875 24.925L81.9875 30.034374ZM99.97188 34.20625L101.78438 34.440624Q101.3625 36.01875 100.19063 36.909374Q99.03438 37.784374 97.22188 37.784374Q94.95625 37.784374 93.6125 36.39375Q92.28438 34.9875 92.28438 32.45625Q92.28438 29.83125 93.62813 28.39375Q94.97188 26.940624 97.12813 26.940624Q99.20625 26.940624 100.51875 28.3625Q101.84688 29.76875 101.84688 32.346874Q101.84688 32.503124 101.83125 32.815624L94.09688 32.815624Q94.19063 34.51875 95.06563 35.425Q95.94063 36.33125 97.2375 36.33125Q98.20625 36.33125 98.87813 35.83125Q99.56563 35.315624 99.97188 34.20625ZM94.19063 31.3625L99.9875 31.3625Q99.87813 30.065624 99.33125 29.409374Q98.4875 28.39375 97.14375 28.39375Q95.94063 28.39375 95.1125 29.20625Q94.28438 30.003124 94.19063 31.3625ZM103.84688 37.55L103.84688 27.175L105.425 27.175L105.425 28.753124Q106.03438 27.64375 106.55 27.3Q107.06563 26.940624 107.675 26.940624Q108.56563 26.940624 109.4875 27.503124L108.87813 29.14375Q108.2375 28.753124 107.59688 28.753124Q107.01875 28.753124 106.55 29.1125Q106.09688 29.45625 105.89375 30.065624Q105.6125 31.003124 105.6125 32.1125L105.6125 37.55L103.84688 37.55ZM111.28438 37.55L111.28438 28.55L109.7375 28.55L109.7375 27.175L111.28438 27.175L111.28438 26.08125Q111.28438 25.034374 111.47188 24.51875Q111.72188 23.83125 112.3625 23.409374Q113.00313 22.9875 114.15938 22.9875Q114.90938 22.9875 115.8 23.159374L115.53438 24.690624Q114.9875 24.596874 114.50313 24.596874Q113.70625 24.596874 113.3625 24.940624Q113.03438 25.284374 113.03438 26.221874L113.03438 27.175L115.06563 27.175L115.06563 28.55L113.03438 28.55L113.03438 37.55L111.28438 37.55ZM116.22188 32.3625Q116.22188 29.4875 117.81563 28.096874Q119.15938 26.940624 121.08125 26.940624Q123.22188 26.940624 124.56563 28.346874Q125.925 29.753124 125.925 32.221874Q125.925 34.221874 125.33125 35.378124Q124.7375 36.51875 123.58125 37.159374Q122.44063 37.784374 121.08125 37.784374Q118.89375 37.784374 117.55 36.39375Q116.22188 34.9875 116.22188 32.3625ZM118.01875 32.3625Q118.01875 34.3625 118.87813 35.346874Q119.75313 36.33125 121.08125 36.33125Q122.39375 36.33125 123.25313 35.346874Q124.12813 34.346874 124.12813 32.3Q124.12813 30.378124 123.25313 29.39375Q122.37813 28.39375 121.08125 28.39375Q119.75313 28.39375 118.87813 29.39375Q118.01875 30.378124 118.01875 32.3625ZM127.84688 37.55L127.84688 27.175L129.425 27.175L129.425 28.753124Q130.03438 27.64375 130.55 27.3Q131.06563 26.940624 131.675 26.940624Q132.56563 26.940624 133.4875 27.503124L132.87813 29.14375Q132.2375 28.753124 131.59688 28.753124Q131.01875 28.753124 130.55 29.1125Q130.09688 29.45625 129.89375 30.065624Q129.6125 31.003124 129.6125 32.1125L129.6125 37.55L127.84688 37.55ZM134.8625 37.55L134.8625 27.175L136.44063 27.175L136.44063 28.628124Q136.925 27.878124 137.7375 27.409374Q138.55 26.940624 139.58125 26.940624Q140.7375 26.940624 141.47188 27.425Q142.20625 27.89375 142.51875 28.753124Q143.75313 26.940624 145.72188 26.940624Q147.26875 26.940624 148.09688 27.8Q148.925 28.659374 148.925 30.425L148.925 37.55L147.175 37.55L147.175 31.01875Q147.175 29.95625 147.00313 29.503124Q146.83125 29.034374 146.37813 28.753124Q145.94063 28.471874 145.33125 28.471874Q144.2375 28.471874 143.50313 29.20625Q142.78438 29.925 142.78438 31.51875L142.78438 37.55L141.03438 37.55L141.03438 30.815624Q141.03438 29.64375 140.59688 29.065624Q140.175 28.471874 139.19063 28.471874Q138.45625 28.471874 137.81563 28.8625Q137.19063 29.253124 136.90938 30.003124Q136.62813 30.753124 136.62813 32.175L136.62813 37.55L134.8625 37.55ZM157.64375 36.26875Q156.65938 37.096874 155.75313 37.440624Q154.84688 37.784374 153.81563 37.784374Q152.1125 37.784374 151.19063 36.95625Q150.26875 36.1125 150.26875 34.815624Q150.26875 34.05 150.6125 33.425Q150.97188 32.8 151.53438 32.425Q152.09688 32.034374 152.8 31.83125Q153.31563 31.70625 154.3625 31.565624Q156.4875 31.315624 157.4875 30.971874Q157.50313 30.6125 157.50313 30.503124Q157.50313 29.440624 157.00313 28.9875Q156.33125 28.39375 155.00313 28.39375Q153.75313 28.39375 153.15938 28.83125Q152.58125 29.26875 152.3 30.378124L150.58125 30.14375Q150.81563 29.034374 151.34688 28.3625Q151.87813 27.675 152.89375 27.315624Q153.90938 26.940624 155.25313 26.940624Q156.58125 26.940624 157.40938 27.253124Q158.2375 27.565624 158.62813 28.05Q159.01875 28.51875 159.175 29.2375Q159.26875 29.690624 159.26875 30.8625L159.26875 33.20625Q159.26875 35.659374 159.37813 36.315624Q159.4875 36.95625 159.83125 37.55L157.9875 37.55Q157.72188 37.003124 157.64375 36.26875ZM157.4875 32.346874Q156.53438 32.7375 154.6125 33.003124Q153.53438 33.159374 153.08125 33.3625Q152.64375 33.55 152.39375 33.925Q152.14375 34.3 152.14375 34.76875Q152.14375 35.471874 152.675 35.940624Q153.20625 36.409374 154.2375 36.409374Q155.25313 36.409374 156.03438 35.971874Q156.83125 35.51875 157.20625 34.753124Q157.4875 34.14375 157.4875 32.9875L157.4875 32.346874ZM161.8625 37.55L161.8625 27.175L163.45625 27.175L163.45625 28.659374Q164.59688 26.940624 166.75313 26.940624Q167.69063 26.940624 168.47188 27.284374Q169.26875 27.6125 169.65938 28.159374Q170.05 28.70625 170.20625 29.45625Q170.3 29.95625 170.3 31.175L170.3 37.55L168.53438 37.55L168.53438 31.2375Q168.53438 30.159374 168.33125 29.628124Q168.12813 29.096874 167.59688 28.784374Q167.08125 28.471874 166.37813 28.471874Q165.25313 28.471874 164.44063 29.190624Q163.62813 29.89375 163.62813 31.878124L163.62813 37.55L161.8625 37.55ZM178.64375 33.753124L180.3625 33.971874Q180.08125 35.76875 178.90938 36.784374Q177.75313 37.784374 176.05 37.784374Q173.925 37.784374 172.62813 36.39375Q171.33125 35.003124 171.33125 32.409374Q171.33125 30.721874 171.87813 29.471874Q172.44063 28.20625 173.58125 27.58125Q174.72188 26.940624 176.06563 26.940624Q177.75313 26.940624 178.81563 27.8Q179.89375 28.659374 180.20625 30.221874L178.4875 30.4875Q178.25313 29.440624 177.62813 28.925Q177.00313 28.39375 176.12813 28.39375Q174.8 28.39375 173.97188 29.346874Q173.14375 30.3 173.14375 32.346874Q173.14375 34.440624 173.94063 35.39375Q174.7375 36.33125 176.03438 36.33125Q177.06563 36.33125 177.75313 35.70625Q178.45625 35.065624 178.64375 33.753124ZM188.97188 34.20625L190.78438 34.440624Q190.3625 36.01875 189.19063 36.909374Q188.03438 37.784374 186.22188 37.784374Q183.95625 37.784374 182.6125 36.39375Q181.28438 34.9875 181.28438 32.45625Q181.28438 29.83125 182.62813 28.39375Q183.97188 26.940624 186.12813 26.940624Q188.20625 26.940624 189.51875 28.3625Q190.84688 29.76875 190.84688 32.346874Q190.84688 32.503124 190.83125 32.815624L183.09688 32.815624Q183.19063 34.51875 184.06563 35.425Q184.94063 36.33125 186.2375 36.33125Q187.20625 36.33125 187.87813 35.83125Q188.56563 35.315624 188.97188 34.20625ZM183.19063 31.3625L188.9875 31.3625Q188.87813 30.065624 188.33125 29.409374Q187.4875 28.39375 186.14375 28.39375Q184.94063 28.39375 184.1125 29.20625Q183.28438 30.003124 183.19063 31.3625Z" fill-rule="nonzero"/></svg>