<?xml version="1.0" encoding="utf-8"?>
<!-- Generator: Adobe Illustrator 28.0.0, SVG Export Plug-In . SVG Version: 6.00 Build 0)  -->
<svg version="1.1" xmlns="http://www.w3.org/2000/svg" xmlns:xlink="http://www.w3.org/1999/xlink" x="0px" y="0px"
	 viewBox="0 0 900 900" style="enable-background:new 0 0 900 900;" xml:space="preserve">
<style type="text/css">
	.st0{fill:#FFC107;}
</style>
<g id="Layer_1_copy">
	<path class="st0" d="M566.7,843.3c-16.2,0-32.2-4.3-46.3-12.3c0,0-70.4-40.2-70.4-40.2L379.6,831c-14.1,8-30.1,12.3-46.3,12.3
		c0,0,0,0,0,0c-16.4,0-32.6-4.4-46.8-12.6c-28.7-16.6-46.5-47.5-46.5-80.7c0,0,0-213.4,0-213.4l-10.9-6.5
		c-27.8-16.5-45.3-46.8-45.7-79.1c0,0-0.4-29.6-0.4-29.6l-14.5-25.9c-15.8-28.2-15.8-63.2,0-91.3l14.5-25.9c0,0,0.4-29.7,0.4-29.7
		c0.4-32.3,17.9-62.5,45.7-79l25.5-15.1l15.1-25.5c16.5-27.8,46.8-45.3,79.1-45.7c0,0,29.6-0.4,29.6-0.4l25.9-14.5
		c13.9-7.8,29.7-11.9,45.7-11.9c15.9,0,31.6,4.1,45.5,11.9c0,0,26,14.6,26,14.6l29.6,0.4c32.3,0.4,62.6,17.9,79.1,45.7l15.1,25.5
		c0,0,25.6,15.2,25.6,15.2c27.7,16.5,45.1,46.8,45.5,79l0.4,29.6l14.5,25.9c15.8,28.2,15.8,63.2,0,91.3l-14.5,25.9
		c0,0-0.4,29.6-0.4,29.6c-0.4,32.3-17.9,62.6-45.7,79.1l-10.9,6.5c0,0,0,213.3,0,213.4c0,33.1-17.8,64-46.5,80.7
		C599.3,839,583.1,843.3,566.7,843.3C566.7,843.3,566.7,843.3,566.7,843.3z"/>
	<path class="st0" d="M450,150l16.3-29.1c-10.1-5.7-22.5-5.7-32.6,0L450,150z M496.6,176.1l-16.3,29.1c4.9,2.7,10.3,4.2,15.9,4.3
		L496.6,176.1z M550,176.8l28.7-17c-5.9-10-16.6-16.2-28.2-16.3L550,176.8z M577.3,222.7l-28.7,17c2.8,4.8,6.8,8.8,11.6,11.6
		L577.3,222.7z M623.2,250l33.3-0.4c-0.1-11.6-6.3-22.3-16.3-28.2L623.2,250z M623.9,303.4l-33.3,0.4c0.1,5.6,1.5,11,4.3,15.9
		L623.9,303.4z M650,350l29.1,16.3c5.7-10.1,5.7-22.5,0-32.6L650,350z M623.9,396.6l-29.1-16.3c-2.7,4.9-4.2,10.3-4.3,15.9
		L623.9,396.6z M623.2,450l17,28.7c10-5.9,16.2-16.6,16.3-28.2L623.2,450z M577.3,477.3l-17-28.7c-4.8,2.8-8.8,6.8-11.6,11.6
		L577.3,477.3z M550,523.2l0.4,33.3c11.6-0.1,22.3-6.3,28.2-16.3L550,523.2z M496.6,523.9l-0.4-33.3c-5.6,0.1-11,1.5-15.9,4.3
		L496.6,523.9z M450,550l-16.3,29.1c10.1,5.7,22.5,5.7,32.6,0L450,550z M403.4,523.9l16.3-29.1c-4.9-2.7-10.3-4.2-15.9-4.3
		L403.4,523.9z M350,523.2l-28.7,17c5.9,10,16.6,16.2,28.2,16.3L350,523.2z M322.7,477.3l28.7-17c-2.8-4.8-6.8-8.8-11.6-11.6
		L322.7,477.3z M276.8,450l-33.3,0.4c0.1,11.6,6.3,22.3,16.3,28.2L276.8,450z M276.1,396.6l33.3-0.4c-0.1-5.6-1.5-11-4.3-15.9
		L276.1,396.6z M250,350l-29.1-16.3c-5.7,10.1-5.7,22.5,0,32.6L250,350z M276.1,303.4l29.1,16.3c2.7-4.9,4.2-10.3,4.3-15.9
		L276.1,303.4z M276.8,250l-17-28.7c-10,5.9-16.2,16.6-16.3,28.2L276.8,250z M322.7,222.7l17,28.7c4.8-2.8,8.8-6.8,11.6-11.6
		L322.7,222.7z M350,176.8l-0.4-33.3c-11.6,0.1-22.3,6.3-28.2,16.3L350,176.8z M403.4,176.1l0.4,33.3c5.6-0.1,11-1.5,15.9-4.3
		L403.4,176.1z M333.3,750H300c0,11.9,6.3,22.9,16.6,28.8c10.3,6,23,6,33.3,0.1L333.3,750z M450,683.3l16.5-28.9
		c-10.2-5.9-22.8-5.9-33.1,0L450,683.3z M566.7,750l-16.5,28.9c10.3,5.9,23,5.9,33.3-0.1c10.3-6,16.6-16.9,16.6-28.8H566.7z
		 M433.7,179.1l46.6,26.1l32.6-58.1l-46.6-26.1L433.7,179.1z M496.2,209.5l53.4,0.7l0.8-66.7l-53.4-0.7L496.2,209.5z M521.3,193.8
		l27.3,45.9l57.3-34l-27.3-45.9L521.3,193.8z M560.3,251.4l45.9,27.3l34-57.3l-45.9-27.3L560.3,251.4z M589.9,250.4l0.7,53.4
		l66.7-0.8l-0.7-53.4L589.9,250.4z M594.8,319.7l26.1,46.6l58.1-32.6l-26.1-46.6L594.8,319.7z M620.9,333.7l-26.1,46.6l58.1,32.6
		l26.1-46.6L620.9,333.7z M590.5,396.2l-0.7,53.4l66.7,0.8l0.7-53.4L590.5,396.2z M549.6,489.9l-53.4,0.7l0.8,66.7l53.4-0.7
		L549.6,489.9z M403.8,490.5l-53.4-0.7l-0.8,66.7l53.4,0.7L403.8,490.5z M310.1,449.6l-0.7-53.4l-66.7,0.8l0.7,53.4L310.1,449.6z
		 M305.2,380.3l-26.1-46.6l-58.1,32.6l26.1,46.6L305.2,380.3z M279.1,366.3l26.1-46.6l-58.1-32.6l-26.1,46.6L279.1,366.3z
		 M309.5,303.8l0.7-53.4l-66.7-0.8l-0.7,53.4L309.5,303.8z M293.8,278.7l45.9-27.3l-34-57.3l-45.9,27.3L293.8,278.7z M351.4,239.7
		l27.3-45.9l-57.3-34l-27.3,45.9L351.4,239.7z M350.4,210.1l53.4-0.7l-0.8-66.7l-53.4,0.7L350.4,210.1z M419.7,205.2l46.6-26.1
		l-32.6-58.1l-46.6,26.1L419.7,205.2z M606.2,421.3l-45.9,27.3l34,57.3l45.9-27.3L606.2,421.3z M339.7,448.6l-45.9-27.3l-34,57.3
		l45.9,27.3L339.7,448.6z M480.3,494.8l-46.6,26.1l32.6,58.1l46.6-26.1L480.3,494.8z M466.3,520.9l-46.6-26.1l-32.6,58.1l46.6,26.1
		L466.3,520.9z M349.9,778.9l116.7-66.7l-33.1-57.9l-116.7,66.7L349.9,778.9z M433.5,712.3l116.7,66.7l33.1-57.9l-116.7-66.7
		L433.5,712.3z M600,750V495.1h-66.7V750H600z M548.6,460.3L538,478.1l57.3,34l10.6-17.9L548.6,460.3z M538,478.1l-16.7,28.1
		l57.3,34l16.7-28.1L538,478.1z M300,495.1V750h66.7V495.1H300z M378.7,506.2L362,478.1l-57.3,34l16.7,28.1L378.7,506.2z M362,478.1
		l-10.6-17.9l-57.3,34l10.6,17.9L362,478.1z M483.3,350c0,18.4-14.9,33.3-33.3,33.3V450c55.2,0,100-44.8,100-100H483.3z M450,383.3
		c-18.4,0-33.3-14.9-33.3-33.3H350c0,55.2,44.8,100,100,100V383.3z M416.7,350c0-18.4,14.9-33.3,33.3-33.3V250
		c-55.2,0-100,44.8-100,100H416.7z M450,316.7c18.4,0,33.3,14.9,33.3,33.3H550c0-55.2-44.8-100-100-100V316.7z"/>
</g>
<g id="Layer_1">
	<path d="M450,150l16.3-29.1c-10.1-5.7-22.5-5.7-32.6,0L450,150z M496.6,176.1l-16.3,29.1c4.9,2.7,10.3,4.2,15.9,4.3L496.6,176.1z
		 M550,176.8l28.7-17c-5.9-10-16.6-16.2-28.2-16.3L550,176.8z M577.3,222.7l-28.7,17c2.8,4.8,6.8,8.8,11.6,11.6L577.3,222.7z
		 M623.2,250l33.3-0.4c-0.1-11.6-6.3-22.3-16.3-28.2L623.2,250z M623.9,303.4l-33.3,0.4c0.1,5.6,1.5,11,4.3,15.9L623.9,303.4z
		 M650,350l29.1,16.3c5.7-10.1,5.7-22.5,0-32.6L650,350z M623.9,396.6l-29.1-16.3c-2.7,4.9-4.2,10.3-4.3,15.9L623.9,396.6z
		 M623.2,450l17,28.7c10-5.9,16.2-16.6,16.3-28.2L623.2,450z M577.3,477.3l-17-28.7c-4.8,2.8-8.8,6.8-11.6,11.6L577.3,477.3z
		 M550,523.2l0.4,33.3c11.6-0.1,22.3-6.3,28.2-16.3L550,523.2z M496.6,523.9l-0.4-33.3c-5.6,0.1-11,1.5-15.9,4.3L496.6,523.9z
		 M450,550l-16.3,29.1c10.1,5.7,22.5,5.7,32.6,0L450,550z M403.4,523.9l16.3-29.1c-4.9-2.7-10.3-4.2-15.9-4.3L403.4,523.9z
		 M350,523.2l-28.7,17c5.9,10,16.6,16.2,28.2,16.3L350,523.2z M322.7,477.3l28.7-17c-2.8-4.8-6.8-8.8-11.6-11.6L322.7,477.3z
		 M276.8,450l-33.3,0.4c0.1,11.6,6.3,22.3,16.3,28.2L276.8,450z M276.1,396.6l33.3-0.4c-0.1-5.6-1.5-11-4.3-15.9L276.1,396.6z
		 M250,350l-29.1-16.3c-5.7,10.1-5.7,22.5,0,32.6L250,350z M276.1,303.4l29.1,16.3c2.7-4.9,4.2-10.3,4.3-15.9L276.1,303.4z
		 M276.8,250l-17-28.7c-10,5.9-16.2,16.6-16.3,28.2L276.8,250z M322.7,222.7l17,28.7c4.8-2.8,8.8-6.8,11.6-11.6L322.7,222.7z
		 M350,176.8l-0.4-33.3c-11.6,0.1-22.3,6.3-28.2,16.3L350,176.8z M403.4,176.1l0.4,33.3c5.6-0.1,11-1.5,15.9-4.3L403.4,176.1z
		 M333.3,750H300c0,11.9,6.3,22.9,16.6,28.8c10.3,6,23,6,33.3,0.1L333.3,750z M450,683.3l16.5-28.9c-10.2-5.9-22.8-5.9-33.1,0
		L450,683.3z M566.7,750l-16.5,28.9c10.3,5.9,23,5.9,33.3-0.1c10.3-6,16.6-16.9,16.6-28.8H566.7z M433.7,179.1l46.6,26.1l32.6-58.1
		l-46.6-26.1L433.7,179.1z M496.2,209.5l53.4,0.7l0.8-66.7l-53.4-0.7L496.2,209.5z M521.3,193.8l27.3,45.9l57.3-34l-27.3-45.9
		L521.3,193.8z M560.3,251.4l45.9,27.3l34-57.3l-45.9-27.3L560.3,251.4z M589.9,250.4l0.7,53.4l66.7-0.8l-0.7-53.4L589.9,250.4z
		 M594.8,319.7l26.1,46.6l58.1-32.6l-26.1-46.6L594.8,319.7z M620.9,333.7l-26.1,46.6l58.1,32.6l26.1-46.6L620.9,333.7z
		 M590.5,396.2l-0.7,53.4l66.7,0.8l0.7-53.4L590.5,396.2z M549.6,489.9l-53.4,0.7l0.8,66.7l53.4-0.7L549.6,489.9z M403.8,490.5
		l-53.4-0.7l-0.8,66.7l53.4,0.7L403.8,490.5z M310.1,449.6l-0.7-53.4l-66.7,0.8l0.7,53.4L310.1,449.6z M305.2,380.3l-26.1-46.6
		l-58.1,32.6l26.1,46.6L305.2,380.3z M279.1,366.3l26.1-46.6l-58.1-32.6l-26.1,46.6L279.1,366.3z M309.5,303.8l0.7-53.4l-66.7-0.8
		l-0.7,53.4L309.5,303.8z M293.8,278.7l45.9-27.3l-34-57.3l-45.9,27.3L293.8,278.7z M351.4,239.7l27.3-45.9l-57.3-34l-27.3,45.9
		L351.4,239.7z M350.4,210.1l53.4-0.7l-0.8-66.7l-53.4,0.7L350.4,210.1z M419.7,205.2l46.6-26.1l-32.6-58.1l-46.6,26.1L419.7,205.2z
		 M606.2,421.3l-45.9,27.3l34,57.3l45.9-27.3L606.2,421.3z M339.7,448.6l-45.9-27.3l-34,57.3l45.9,27.3L339.7,448.6z M480.3,494.8
		l-46.6,26.1l32.6,58.1l46.6-26.1L480.3,494.8z M466.3,520.9l-46.6-26.1l-32.6,58.1l46.6,26.1L466.3,520.9z M349.9,778.9l116.7-66.7
		l-33.1-57.9l-116.7,66.7L349.9,778.9z M433.5,712.3l116.7,66.7l33.1-57.9l-116.7-66.7L433.5,712.3z M600,750V495.1h-66.7V750H600z
		 M548.6,460.3L538,478.1l57.3,34l10.6-17.9L548.6,460.3z M538,478.1l-16.7,28.1l57.3,34l16.7-28.1L538,478.1z M300,495.1V750h66.7
		V495.1H300z M378.7,506.2L362,478.1l-57.3,34l16.7,28.1L378.7,506.2z M362,478.1l-10.6-17.9l-57.3,34l10.6,17.9L362,478.1z
		 M483.3,350c0,18.4-14.9,33.3-33.3,33.3V450c55.2,0,100-44.8,100-100H483.3z M450,383.3c-18.4,0-33.3-14.9-33.3-33.3H350
		c0,55.2,44.8,100,100,100V383.3z M416.7,350c0-18.4,14.9-33.3,33.3-33.3V250c-55.2,0-100,44.8-100,100H416.7z M450,316.7
		c18.4,0,33.3,14.9,33.3,33.3H550c0-55.2-44.8-100-100-100V316.7z"/>
</g>
</svg>
