<?xml version="1.0" encoding="utf-8"?>
<!-- Generator: Adobe Illustrator 28.1.0, SVG Export Plug-In . SVG Version: 6.00 Build 0)  -->
<svg version="1.1" id="Layer_1" xmlns="http://www.w3.org/2000/svg" xmlns:xlink="http://www.w3.org/1999/xlink" x="0px" y="0px"
	 viewBox="0 0 900 900" style="enable-background:new 0 0 900 900;" xml:space="preserve">
<style type="text/css">
	.st0{fill:none;stroke:#F06292;stroke-width:66.6667;stroke-linecap:round;stroke-linejoin:round;stroke-miterlimit:133.3333;}
	.st1{fill:none;stroke:#000000;stroke-width:66.6667;stroke-linecap:round;stroke-linejoin:round;stroke-miterlimit:133.3333;}
</style>
<g id="Layer_1_copy">
	<path class="st0" d="M357,726.8c-10.9-7.2-18-12-21.3-13.5c-2.9-1.3-5.9-2.2-9-2.7c-3.5-0.6-12.1-0.6-25.2-0.6h-98.2
		c-23.7,0-42.4,0-62.4-10.2c-17.7-9-31.8-23.1-40.8-40.8C90,639.1,90,620.4,90,596.7v-360c0-23.7,0-42.4,10.2-62.4
		c9-17.7,23.1-31.8,40.8-40.8c20-10.2,38.7-10.2,62.4-10.2h33.3c81.5,0,126.4,0,167.8,21.1c16.9,8.6,32.1,19.4,45.6,32.2
		c13.4-12.8,28.7-23.6,45.6-32.2c41.4-21.1,86.3-21.1,167.8-21.1h33.3c23.7,0,42.4,0,62.4,10.2c17.7,9,31.8,23.1,40.8,40.8
		c10.2,20,10.2,38.7,10.2,62.4v360c0,23.7,0,42.4-10.2,62.4c-9,17.7-23.1,31.8-40.8,40.8c-20,10.2-38.7,10.2-62.4,10.2h-98.2
		c-13.1,0-21.7,0-25.2,0.6c-3.1,0.6-6.1,1.5-9,2.7c-3.3,1.4-10.8,6.5-21.3,13.5l-93,62L357,726.8z"/>
	<path class="st0" d="M359.8,722.6c-11.5-7.7-18.4-12.3-22.1-13.9c-3.2-1.4-6.6-2.4-10.1-3.1c-3.9-0.7-12.3-0.7-26.1-0.7h-98.2
		c-23,0-41.2,0-60.1-9.6c-16.7-8.5-30.1-21.9-38.6-38.6c-9.6-18.8-9.6-37-9.6-60v-360c0-23,0-41.2,9.6-60.1
		c8.5-16.7,21.9-30.1,38.6-38.6c18.9-9.6,37.1-9.6,60.1-9.6h33.3c80.7,0,125.2,0,165.5,20.5c17.9,9.1,34,20.8,47.8,34.7
		c13.9-13.9,29.9-25.6,47.8-34.7c40.3-20.5,84.8-20.5,165.5-20.5h33.3c23,0,41.2,0,60.1,9.6c16.7,8.5,30.1,21.9,38.6,38.6
		c9.6,18.9,9.6,37.1,9.6,60.1v360c0,23,0,41.2-9.6,60.1c-8.5,16.7-21.9,30.1-38.6,38.6c-18.9,9.6-37.1,9.6-60.1,9.6h-98.2
		c-13.8,0-22.1,0-26,0.7c-3.5,0.6-6.9,1.6-10.1,3.1c-3.7,1.6-10.6,6.2-22.1,13.9L450,782.8L359.8,722.6z"/>
	<path class="st0" d="M746.4,201.5c-3.2-6.3-8.3-11.4-14.6-14.6c-7.1-3.6-16.5-3.6-35.1-3.6h-33.3c-74.7,0-112,0-140.5,14.5
		c-25.1,12.8-45.5,33.2-58.3,58.3C450,284.7,450,322,450,396.7c0-74.7,0-112-14.5-140.5c-12.8-25.1-33.2-45.5-58.3-58.3
		c-28.5-14.5-65.9-14.5-140.5-14.5h-33.3c-18.7,0-28,0-35.1,3.6c-6.3,3.2-11.4,8.3-14.6,14.6c-3.6,7.1-3.6,16.5-3.6,35.1v360
		c0,18.7,0,28,3.6,35.1c3.2,6.3,8.3,11.4,14.6,14.6c7.1,3.6,16.5,3.6,35.1,3.6h98.2c18,0,27,0,35.7,1.6c7.7,1.4,15.3,3.7,22.5,6.8
		c8.1,3.5,15.6,8.5,30.6,18.5l59.7,39.8l59.7-39.8c15-10,22.5-15,30.6-18.5c7.2-3.1,14.7-5.4,22.5-6.8c8.7-1.6,17.7-1.6,35.7-1.6
		h98.2c18.7,0,28,0,35.1-3.6c6.3-3.2,11.4-8.3,14.6-14.6c3.6-7.1,3.6-16.5,3.6-35.1v-360C750,218,750,208.7,746.4,201.5z"/>
</g>
<g id="Layer_1_00000101814488500683111050000010029020620597752996_">
	<path class="st1" d="M450,396.7v320 M450,396.7c0-74.7,0-112-14.5-140.5c-12.8-25.1-33.2-45.5-58.3-58.3
		c-28.5-14.5-65.9-14.5-140.5-14.5h-33.3c-18.7,0-28,0-35.1,3.6c-6.3,3.2-11.4,8.3-14.6,14.6c-3.6,7.1-3.6,16.5-3.6,35.1v360
		c0,18.7,0,28,3.6,35.1c3.2,6.3,8.3,11.4,14.6,14.6c7.1,3.6,16.5,3.6,35.1,3.6h98.2c18,0,27,0,35.7,1.6c7.7,1.4,15.3,3.7,22.5,6.8
		c8.1,3.5,15.6,8.5,30.6,18.5l59.7,39.8 M450,396.7c0-74.7,0-112,14.5-140.5c12.8-25.1,33.2-45.5,58.3-58.3
		c28.5-14.5,65.9-14.5,140.5-14.5h33.3c18.7,0,28,0,35.1,3.6c6.3,3.2,11.4,8.3,14.6,14.6c3.6,7.1,3.6,16.5,3.6,35.1v360
		c0,18.7,0,28-3.6,35.1c-3.2,6.3-8.3,11.4-14.6,14.6c-7.1,3.6-16.5,3.6-35.1,3.6h-98.2c-18,0-27,0-35.7,1.6
		c-7.7,1.4-15.3,3.7-22.5,6.8c-8.1,3.5-15.6,8.5-30.6,18.5L450,716.7"/>
</g>
</svg>
