<?xml version="1.0" encoding="utf-8"?>
<!-- Generator: Adobe Illustrator 28.0.0, SVG Export Plug-In . SVG Version: 6.00 Build 0)  -->
<svg version="1.1" xmlns="http://www.w3.org/2000/svg" xmlns:xlink="http://www.w3.org/1999/xlink" x="0px" y="0px"
	 viewBox="0 0 900 900" style="enable-background:new 0 0 900 900;" xml:space="preserve">
<style type="text/css">
	.st0{fill:none;stroke:#FFEB3B;stroke-width:66.6667;stroke-linecap:round;stroke-linejoin:round;stroke-miterlimit:133.3333;}
	.st1{fill:none;stroke:#000000;stroke-width:66.6667;stroke-linecap:round;stroke-linejoin:round;stroke-miterlimit:133.3333;}
</style>
<g id="Layer_1_copy">
	<path class="st0" d="M450,810c-48.6,0-95.7-9.5-140.1-28.3c-42.9-18.1-81.4-44.1-114.4-77.1c-33-33-59-71.5-77.1-114.4
		C99.5,545.7,90,498.6,90,450s9.5-95.7,28.3-140.1c18.1-42.9,44.1-81.4,77.1-114.4s71.5-59,114.4-77.1C354.3,99.5,401.4,90,450,90
		c15.9,0,31.2,6.3,42.4,17.6l45.9,45.9l57.8-41.3c10.3-7.4,22.5-11.2,34.9-11.2c6.2,0,12.5,1,18.6,2.9c18.1,5.9,32.3,20,38.4,38.1
		l19.1,57.4l57.4,19.1c18.1,6,32.2,20.3,38.1,38.4c5.9,18.1,2.8,37.9-8.2,53.4L753,368.1l39.5,39.5c11.3,11.3,17.6,26.5,17.6,42.4
		c0,48.6-9.5,95.7-28.3,140.1c-18.1,42.9-44.1,81.4-77.1,114.4c-33,33-71.5,59-114.4,77.1C545.7,800.5,498.6,810,450,810z"/>
	<path class="st0" d="M750,450c0,165.7-134.3,300-300,300c-165.7,0-300-134.3-300-300c0-165.7,134.3-300,300-300 M616.7,450
		c0,92-74.6,166.7-166.7,166.7c-92,0-166.7-74.6-166.7-166.7c0-92,74.6-166.7,166.7-166.7 M541.9,361.7l132,13.9l71.5-100.1
		l-85.8-28.6L631,161l-100.1,71.5L541.9,361.7z M541.9,361.7L450,450"/>
</g>
<g id="Layer_1">
	<path class="st1" d="M750,450c0,165.7-134.3,300-300,300c-165.7,0-300-134.3-300-300c0-165.7,134.3-300,300-300 M616.7,450
		c0,92-74.6,166.7-166.7,166.7c-92,0-166.7-74.6-166.7-166.7c0-92,74.6-166.7,166.7-166.7 M541.9,361.7l132,13.9l71.5-100.1
		l-85.8-28.6L631,161l-100.1,71.5L541.9,361.7z M541.9,361.7L450,450"/>
</g>
</svg>
