<?xml version="1.0" encoding="utf-8"?>
<!-- Generator: Adobe Illustrator 28.0.0, SVG Export Plug-In . SVG Version: 6.00 Build 0)  -->
<svg version="1.1" xmlns="http://www.w3.org/2000/svg" xmlns:xlink="http://www.w3.org/1999/xlink" x="0px" y="0px"
	 viewBox="0 0 900 900" style="enable-background:new 0 0 900 900;" xml:space="preserve">
<style type="text/css">
	.st0{fill:none;stroke:#9C27B0;stroke-width:66.6667;stroke-linecap:round;stroke-linejoin:round;stroke-miterlimit:133.3333;}
	.st1{fill:none;stroke:#000000;stroke-width:66.6667;stroke-linecap:round;stroke-linejoin:round;stroke-miterlimit:133.3333;}
</style>
<g id="Layer_1_copy">
	<g>
		<path class="st0" d="M203.3,810c-23.7,0-42.4,0-62.4-10.2c-17.7-9-31.8-23.1-40.8-40.8C90,739.1,90,720.4,90,696.7v-160
			c0-23.7,0-42.4,10.2-62.4c9-17.7,23.1-31.8,40.8-40.8c20-10.2,38.7-10.2,62.4-10.2H230c23.7,0,42.4,0,62.4,10.2
			c17.7,9,31.8,23.1,40.8,40.8c10.2,20,10.2,38.7,10.2,62.4v160c0,23.7,0,42.4-10.2,62.4c-9,17.7-23.1,31.8-40.8,40.8
			C272.4,810,253.7,810,230,810H203.3z"/>
		<path class="st0" d="M265.1,487c-7.1-3.6-16.5-3.6-35.1-3.6h-26.7c-18.7,0-28,0-35.1,3.6c-6.3,3.2-11.4,8.3-14.6,14.6
			c-3.6,7.1-3.6,16.5-3.6,35.1v160c0,18.7,0,28,3.6,35.1c3.2,6.3,8.3,11.4,14.6,14.6c7.1,3.6,16.5,3.6,35.1,3.6H230
			c18.7,0,28,0,35.1-3.6c6.3-3.2,11.4-8.3,14.6-14.6c3.6-7.1,3.6-16.5,3.6-35.1v-160c0-18.7,0-28-3.6-35.1
			C276.5,495.3,271.4,490.2,265.1,487z"/>
		<path class="st0" d="M436.7,810c-23.7,0-42.4,0-62.4-10.2c-17.7-9-31.8-23.1-40.8-40.8c-10.2-20-10.2-38.7-10.2-62.4V203.3
			c0-23.7,0-42.4,10.2-62.4c9-17.7,23.1-31.8,40.8-40.8C394.3,90,413,90,436.7,90h26.7c23.7,0,42.4,0,62.4,10.2
			c17.7,9,31.8,23.1,40.8,40.8c10.2,20,10.2,38.7,10.2,62.4v493.3c0,23.7,0,42.4-10.2,62.4c-9,17.7-23.1,31.8-40.8,40.8
			C505.7,810,487,810,463.3,810H436.7z"/>
		<path class="st0" d="M498.5,153.6c-7.1-3.6-16.5-3.6-35.1-3.6h-26.7c-18.7,0-28,0-35.1,3.6c-6.3,3.2-11.4,8.3-14.6,14.6
			c-3.6,7.1-3.6,16.5-3.6,35.1v493.3c0,18.7,0,28,3.6,35.1c3.2,6.3,8.3,11.4,14.6,14.6c7.1,3.6,16.5,3.6,35.1,3.6h26.7
			c18.7,0,28,0,35.1-3.6c6.3-3.2,11.4-8.3,14.6-14.6c3.6-7.1,3.6-16.5,3.6-35.1V203.3c0-18.7,0-28-3.6-35.1
			C509.8,161.9,504.7,156.8,498.5,153.6z"/>
		<path class="st0" d="M670,810c-23.7,0-42.4,0-62.4-10.2c-17.7-9-31.8-23.1-40.8-40.8c-10.2-20-10.2-38.7-10.2-62.4V403.3
			c0-23.7,0-42.4,10.2-62.4c9-17.7,23.1-31.8,40.8-40.8c20-10.2,38.7-10.2,62.4-10.2h26.7c23.7,0,42.4,0,62.4,10.2
			c17.7,9,31.8,23.1,40.8,40.8c10.2,20,10.2,38.7,10.2,62.4v293.3c0,23.7,0,42.4-10.2,62.4c-9,17.7-23.1,31.8-40.8,40.8
			c-20,10.2-38.7,10.2-62.4,10.2H670z"/>
		<path class="st0" d="M746.4,368.2c-3.2-6.3-8.3-11.4-14.6-14.6c-7.1-3.6-16.5-3.6-35.1-3.6H670c-18.7,0-28,0-35.1,3.6
			c-6.3,3.2-11.4,8.3-14.6,14.6c-3.6,7.1-3.6,16.5-3.6,35.1v293.3c0,18.7,0,28,3.6,35.1c3.2,6.3,8.3,11.4,14.6,14.6
			c7.1,3.6,16.5,3.6,35.1,3.6h26.7c18.7,0,28,0,35.1-3.6c6.3-3.2,11.4-8.3,14.6-14.6c3.6-7.1,3.6-16.5,3.6-35.1V403.3
			C750,384.7,750,375.3,746.4,368.2z"/>
	</g>
</g>
<g id="Layer_1">
	<path class="st1" d="M150,536.7c0-18.7,0-28,3.6-35.1c3.2-6.3,8.3-11.4,14.6-14.6c7.1-3.6,16.5-3.6,35.1-3.6H230
		c18.7,0,28,0,35.1,3.6c6.3,3.2,11.4,8.3,14.6,14.6c3.6,7.1,3.6,16.5,3.6,35.1v160c0,18.7,0,28-3.6,35.1
		c-3.2,6.3-8.3,11.4-14.6,14.6C258,750,248.7,750,230,750h-26.7c-18.7,0-28,0-35.1-3.6c-6.3-3.2-11.4-8.3-14.6-14.6
		c-3.6-7.1-3.6-16.5-3.6-35.1V536.7z"/>
	<path class="st1" d="M383.3,203.3c0-18.7,0-28,3.6-35.1c3.2-6.3,8.3-11.4,14.6-14.6c7.1-3.6,16.5-3.6,35.1-3.6h26.7
		c18.7,0,28,0,35.1,3.6c6.3,3.2,11.4,8.3,14.6,14.6c3.6,7.1,3.6,16.5,3.6,35.1v493.3c0,18.7,0,28-3.6,35.1
		c-3.2,6.3-8.3,11.4-14.6,14.6c-7.1,3.6-16.5,3.6-35.1,3.6h-26.7c-18.7,0-28,0-35.1-3.6c-6.3-3.2-11.4-8.3-14.6-14.6
		c-3.6-7.1-3.6-16.5-3.6-35.1V203.3z"/>
	<path class="st1" d="M616.7,403.3c0-18.7,0-28,3.6-35.1c3.2-6.3,8.3-11.4,14.6-14.6c7.1-3.6,16.5-3.6,35.1-3.6h26.7
		c18.7,0,28,0,35.1,3.6c6.3,3.2,11.4,8.3,14.6,14.6c3.6,7.1,3.6,16.5,3.6,35.1v293.3c0,18.7,0,28-3.6,35.1
		c-3.2,6.3-8.3,11.4-14.6,14.6c-7.1,3.6-16.5,3.6-35.1,3.6H670c-18.7,0-28,0-35.1-3.6c-6.3-3.2-11.4-8.3-14.6-14.6
		c-3.6-7.1-3.6-16.5-3.6-35.1V403.3z"/>
</g>
</svg>
