<?xml version="1.0" encoding="utf-8"?>
<!-- Generator: Adobe Illustrator 28.0.0, SVG Export Plug-In . SVG Version: 6.00 Build 0)  -->
<svg version="1.1" xmlns="http://www.w3.org/2000/svg" xmlns:xlink="http://www.w3.org/1999/xlink" x="0px" y="0px"
	 viewBox="0 0 900 900" style="enable-background:new 0 0 900 900;" xml:space="preserve">
<style type="text/css">
	.st0{fill:none;stroke:#FF5722;stroke-width:66.6667;stroke-linecap:round;stroke-linejoin:round;stroke-miterlimit:133.3333;}
	.st1{fill:none;stroke:#000000;stroke-width:66.6667;stroke-linecap:round;stroke-linejoin:round;stroke-miterlimit:133.3333;}
</style>
<g id="Layer_1_copy">
	<path class="st0" d="M450,810c-48.6,0-95.7-9.5-140.1-28.3c-42.9-18.1-81.4-44.1-114.4-77.1c-33-33-59-71.5-77.1-114.4
		C99.5,545.7,90,498.6,90,450s9.5-95.7,28.3-140.1c18.1-42.9,44.1-81.4,77.1-114.4s71.5-59,114.4-77.1C354.3,99.5,401.4,90,450,90
		s95.7,9.5,140.1,28.3c42.9,18.1,81.4,44.1,114.4,77.1c33,33,59,71.5,77.1,114.4C800.5,354.3,810,401.4,810,450
		s-9.5,95.7-28.3,140.1c-18.1,42.9-44.1,81.4-77.1,114.4c-33,33-71.5,59-114.4,77.1C545.7,800.5,498.6,810,450,810z"/>
	<circle class="st0" cx="450" cy="450" r="300"/>
</g>
<g id="Layer_1">
	<path class="st1" d="M450,316.7h0.3 M450,416.7v166.7 M750,450c0,165.7-134.3,300-300,300c-165.7,0-300-134.3-300-300
		c0-165.7,134.3-300,300-300C615.7,150,750,284.3,750,450z"/>
</g>
</svg>
