<?xml version="1.0" encoding="utf-8"?>
<!-- Generator: Adobe Illustrator 28.0.0, SVG Export Plug-In . SVG Version: 6.00 Build 0)  -->
<svg version="1.1" xmlns="http://www.w3.org/2000/svg" xmlns:xlink="http://www.w3.org/1999/xlink" x="0px" y="0px"
	 viewBox="0 0 900 900" style="enable-background:new 0 0 900 900;" xml:space="preserve">
<style type="text/css">
	.st0{fill:none;stroke:#2196F3;stroke-width:66.6667;stroke-linecap:round;stroke-linejoin:round;stroke-miterlimit:133.3333;}
	.st1{fill:none;stroke:#000000;stroke-width:66.6667;stroke-linecap:round;stroke-linejoin:round;stroke-miterlimit:133.3333;}
</style>
<g id="Layer_1_copy">
	<path class="st0" d="M323.3,810c-43.9,0-70.4,0-97.5-13.8c-24-12.2-43.1-31.4-55.4-55.4c-13.8-27.1-13.8-53.6-13.8-97.5V256.7
		c0-43.9,0-70.4,13.8-97.5c12.2-24,31.4-43.1,55.4-55.4C252.9,90,279.4,90,323.3,90h160c15.9,0,31.2,6.3,42.4,17.6l200,200
		c11.3,11.3,17.6,26.5,17.6,42.4v293.3c0,43.9,0,70.4-13.8,97.5c-12.2,24-31.4,43.1-55.4,55.4C647.1,810,620.6,810,576.7,810H323.3z
		"/>
	<path class="st0" d="M383.3,616.7L316.7,550l66.7-66.7 M516.7,483.3l66.7,66.7l-66.7,66.7 M483.3,150h-160c-37.3,0-56,0-70.3,7.3
		c-12.5,6.4-22.7,16.6-29.1,29.1c-7.3,14.3-7.3,32.9-7.3,70.3v386.7c0,37.3,0,56,7.3,70.3c6.4,12.5,16.6,22.7,29.1,29.1
		c14.3,7.3,32.9,7.3,70.3,7.3h253.3c37.3,0,56,0,70.3-7.3c12.5-6.4,22.7-16.6,29.1-29.1c7.3-14.3,7.3-32.9,7.3-70.3V350 M483.3,150
		l200,200 M483.3,150v166.7c0,18.4,14.9,33.3,33.3,33.3h166.7"/>
</g>
<g id="Layer_1">
	<path class="st1" d="M383.3,616.7L316.7,550l66.7-66.7 M516.7,483.3l66.7,66.7l-66.7,66.7 M483.3,150h-160c-37.3,0-56,0-70.3,7.3
		c-12.5,6.4-22.7,16.6-29.1,29.1c-7.3,14.3-7.3,32.9-7.3,70.3v386.7c0,37.3,0,56,7.3,70.3c6.4,12.5,16.6,22.7,29.1,29.1
		c14.3,7.3,32.9,7.3,70.3,7.3h253.3c37.3,0,56,0,70.3-7.3c12.5-6.4,22.7-16.6,29.1-29.1c7.3-14.3,7.3-32.9,7.3-70.3V350 M483.3,150
		l200,200 M483.3,150v166.7c0,18.4,14.9,33.3,33.3,33.3h166.7"/>
</g>
</svg>
