<?xml version="1.0" encoding="utf-8"?>
<!-- Generator: Adobe Illustrator 28.0.0, SVG Export Plug-In . SVG Version: 6.00 Build 0)  -->
<svg version="1.1" xmlns="http://www.w3.org/2000/svg" xmlns:xlink="http://www.w3.org/1999/xlink" x="0px" y="0px"
	 viewBox="0 0 900 900" style="enable-background:new 0 0 900 900;" xml:space="preserve">
<style type="text/css">
	.st0{fill:none;stroke:#607D8B;stroke-width:66.6667;stroke-linecap:round;stroke-linejoin:round;stroke-miterlimit:133.3333;}
	.st1{fill:none;stroke:#000000;stroke-width:66.6667;stroke-linecap:round;stroke-linejoin:round;stroke-miterlimit:133.3333;}
</style>
<g id="Layer_1_copy">
	<path class="st0" d="M254.7,743.3c-43.9,0-70.4,0-97.5-13.8c-24-12.2-43.1-31.4-55.4-55.4C88,647.1,88,620.6,88,576.7V323.3
		c0-43.9,0-70.4,13.8-97.5c12.2-24,31.4-43.1,55.4-55.4c27.1-13.8,53.6-13.8,97.5-13.8h115.8c19,0,31.6,0,46.1,3.5
		c12.9,3.1,25.3,8.2,36.6,15.2c12.8,7.8,21.7,16.7,35.1,30.2l4.2,4.2c5.5,5.5,11.1,11.1,13.3,12.9c0.4,0.2,0.8,0.4,1.2,0.5
		c2.8,0.3,10.8,0.3,18.5,0.3h115.8c43.9,0,70.4,0,97.5,13.8c24,12.2,43.1,31.4,55.4,55.4C808,319.6,808,346.1,808,390v186.7
		c0,43.9,0,70.4-13.8,97.5c-12.2,24-31.4,43.1-55.4,55.4c-27.1,13.8-53.6,13.8-97.5,13.8H254.7z"/>
	<path class="st0" d="M742.7,319.7c-6.4-12.5-16.6-22.7-29.1-29.1c-14.3-7.3-32.9-7.3-70.3-7.3H527.5c-16.3,0-24.5,0-32.1-1.8
		c-6.8-1.6-13.3-4.3-19.3-8c-6.7-4.1-12.5-9.9-24-21.4l-4.2-4.2c-11.5-11.5-17.3-17.3-24-21.4c-6-3.7-12.5-6.3-19.3-8
		c-7.7-1.8-15.8-1.8-32.1-1.8H256.7c-37.3,0-56,0-70.3,7.3c-12.5,6.4-22.7,16.6-29.1,29.1c-7.3,14.3-7.3,32.9-7.3,70.3v253.3
		c0,37.3,0,56,7.3,70.3c6.4,12.5,16.6,22.7,29.1,29.1c14.3,7.3,32.9,7.3,70.3,7.3h386.7c37.3,0,56,0,70.3-7.3
		c12.5-6.4,22.7-16.6,29.1-29.1c7.3-14.3,7.3-32.9,7.3-70.3V390C750,352.7,750,334,742.7,319.7z"/>
</g>
<g id="Layer_1">
	<path class="st1" d="M150,323.3c0-37.3,0-56,7.3-70.3c6.4-12.5,16.6-22.7,29.1-29.1c14.3-7.3,32.9-7.3,70.3-7.3h115.8
		c16.3,0,24.5,0,32.1,1.8c6.8,1.6,13.3,4.3,19.3,8c6.7,4.1,12.5,9.9,24,21.4l4.2,4.2c11.5,11.5,17.3,17.3,24,21.4
		c6,3.7,12.5,6.3,19.3,8c7.7,1.8,15.8,1.8,32.1,1.8h115.8c37.3,0,56,0,70.3,7.3c12.5,6.4,22.7,16.6,29.1,29.1
		C750,334,750,352.7,750,390v186.7c0,37.3,0,56-7.3,70.3c-6.4,12.5-16.6,22.7-29.1,29.1c-14.3,7.3-32.9,7.3-70.3,7.3H256.7
		c-37.3,0-56,0-70.3-7.3c-12.5-6.4-22.7-16.6-29.1-29.1c-7.3-14.3-7.3-32.9-7.3-70.3V323.3z"/>
</g>
</svg>
