<?xml version="1.0" encoding="utf-8"?>
<!-- Generator: Adobe Illustrator 28.0.0, SVG Export Plug-In . SVG Version: 6.00 Build 0)  -->
<svg version="1.1" id="Layer_1" xmlns="http://www.w3.org/2000/svg" xmlns:xlink="http://www.w3.org/1999/xlink" x="0px" y="0px"
	 viewBox="0 0 900 900" style="enable-background:new 0 0 900 900;" xml:space="preserve">
<style type="text/css">
	.st0{fill:#FF9800;stroke:#FF9800;stroke-width:66.6667;stroke-linecap:round;stroke-linejoin:round;stroke-miterlimit:133.3333;}
	.st1{fill:none;stroke:#FF9800;stroke-width:66.6667;stroke-linecap:round;stroke-linejoin:round;stroke-miterlimit:133.3333;}
	.st2{fill:none;stroke:#000000;stroke-width:66.6667;stroke-linecap:round;stroke-linejoin:round;stroke-miterlimit:133.3333;}
</style>
<g id="Layer_1_copy">
	<path class="st0" d="M450,810c-69.8,0-126.7-56.8-126.7-126.7V638c-50.5-34-85.2-87.1-96.3-146.9c-10.9,11.7-26.5,18.9-43.7,18.9
		H150c-33.1,0-60-26.9-60-60s26.9-60,60-60h33.3c17.2,0,32.8,7.3,43.7,18.9c5.7-31.5,18-61.2,36.2-87.5c-0.6,0-1.2,0-1.8,0
		c-15.4,0-30.7-5.9-42.4-17.6l-23.6-23.6c-23.4-23.4-23.4-61.4,0-84.9c11.7-11.7,27.1-17.6,42.4-17.6s30.7,5.9,42.4,17.6l23.6,23.6
		c12.2,12.2,18,28.3,17.5,44.3c26.3-18.2,56-30.5,87.5-36.2c-11.6-10.9-18.9-26.5-18.9-43.7V150c0-33.1,26.9-60,60-60s60,26.9,60,60
		v33.3c0,17.2-7.3,32.8-18.9,43.7c31.5,5.7,61.2,18,87.5,36.2c-0.5-16,5.4-32.1,17.5-44.3l23.6-23.6c11.7-11.7,27.1-17.6,42.4-17.6
		c15.4,0,30.7,5.9,42.4,17.6c23.4,23.4,23.4,61.4,0,84.9L681,303.9c-11.7,11.7-27.1,17.6-42.4,17.6c-0.6,0-1.2,0-1.8,0
		c18.2,26.3,30.5,56,36.2,87.5c10.9-11.6,26.5-18.9,43.7-18.9H750c33.1,0,60,26.9,60,60s-26.9,60-60,60h-33.3
		c-17.2,0-32.8-7.3-43.7-18.9c-11,59.9-45.8,112.9-96.3,146.9v45.3C576.7,753.2,519.8,810,450,810z"/>
	<path class="st1" d="M383.3,602.8v80.5c0,36.8,29.8,66.7,66.7,66.7s66.7-29.8,66.7-66.7v-80.5 M450,150v33.3 M662.1,237.9
		l-23.6,23.6 M237.9,237.9l23.6,23.6 M183.3,450H150 M750,450h-33.3 M616.7,450c0,92-74.6,166.7-166.7,166.7
		c-92,0-166.7-74.6-166.7-166.7c0-92,74.6-166.7,166.7-166.7C542,283.3,616.7,358,616.7,450z"/>
</g>
<g id="Layer_1_00000140010325939131324580000004612173368372053423_">
	<path class="st2" d="M383.3,602.8v80.5c0,36.8,29.8,66.7,66.7,66.7s66.7-29.8,66.7-66.7v-80.5 M450,150v33.3 M662.1,237.9
		l-23.6,23.6 M237.9,237.9l23.6,23.6 M183.3,450H150 M750,450h-33.3 M616.7,450c0,92-74.6,166.7-166.7,166.7
		c-92,0-166.7-74.6-166.7-166.7c0-92,74.6-166.7,166.7-166.7C542,283.3,616.7,358,616.7,450z"/>
</g>
</svg>
