<?xml version="1.0" encoding="utf-8"?>
<!-- Generator: Adobe Illustrator 28.0.0, SVG Export Plug-In . SVG Version: 6.00 Build 0)  -->
<svg version="1.1" xmlns="http://www.w3.org/2000/svg" xmlns:xlink="http://www.w3.org/1999/xlink" x="0px" y="0px"
	 viewBox="0 0 900 900" style="enable-background:new 0 0 900 900;" xml:space="preserve">
<style type="text/css">
	.st0{fill:none;stroke:#F44336;stroke-width:66.6667;stroke-linecap:round;stroke-miterlimit:133.3333;}
	.st1{fill:none;stroke:#000000;stroke-width:66.6667;stroke-linecap:round;stroke-miterlimit:133.3333;}
</style>
<g id="Layer_1_copy">
	<path class="st0" d="M450,799.5c-6.7,0-13.2-1-19.6-3.1c-14.5-4.7-23.8-14.1-39.3-29.6l-46.7-46.7c-2.7-2.7-5.6-5.6-6.6-6.4
		c-0.2-0.1-0.4-0.2-0.6-0.3c-1.4-0.1-5.4-0.1-9.3-0.1H270c-22,0-35.2,0-48.8-6.9c-12-6.1-21.6-15.7-27.7-27.7
		c-6.9-13.6-6.9-26.8-6.9-48.8v-57.9c0-3.9,0-7.9-0.1-9.3c-0.1-0.2-0.1-0.4-0.2-0.6c-0.9-1.1-3.7-3.9-6.4-6.6l-46.7-46.7
		c-15.5-15.5-24.9-24.9-29.6-39.4c-4.2-12.8-4.2-26.3,0-39.1c4.7-14.5,14.1-23.8,29.6-39.4l46.7-46.7c2.7-2.7,5.6-5.6,6.4-6.6
		c0.1-0.2,0.2-0.4,0.2-0.6c0.1-1.4,0.1-5.4,0.1-9.3V270c0-22,0-35.2,6.9-48.8c6.1-12,15.7-21.6,27.7-27.7
		c13.5-6.9,26.8-6.9,48.8-6.9h57.9c3.9,0,7.9,0,9.3-0.1c0.2-0.1,0.4-0.1,0.6-0.2c1.1-0.9,3.9-3.7,6.6-6.4l46.7-46.7
		c15.5-15.5,24.9-24.9,39.4-29.6c6.3-2.1,12.9-3.1,19.6-3.1c6.7,0,13.2,1,19.6,3.1c14.5,4.7,23.8,14.1,39.4,29.6l46.7,46.7
		c2.7,2.7,5.6,5.6,6.6,6.4c0.2,0.1,0.4,0.2,0.6,0.2c1.4,0.1,5.4,0.1,9.3,0.1H630c22,0,35.2,0,48.8,6.9c12,6.1,21.6,15.7,27.7,27.7
		c6.9,13.6,6.9,26.8,6.9,48.8v57.9c0,3.9,0,7.9,0.1,9.3c0.1,0.2,0.1,0.4,0.2,0.6c0.9,1.1,3.7,3.9,6.4,6.6l46.7,46.7
		c15.5,15.5,24.9,24.9,29.6,39.4c4.2,12.8,4.2,26.3,0,39.1c-4.7,14.5-14.1,23.8-29.6,39.3l-46.7,46.7c-2.6,2.6-5.6,5.6-6.4,6.6
		c-0.1,0.2-0.2,0.4-0.2,0.6c-0.1,1.4-0.1,5.4-0.1,9.3V630c0,22,0,35.2-6.9,48.8c-6.1,12-15.7,21.6-27.7,27.7
		c-13.5,6.9-26.8,6.9-48.8,6.9h-57.9c-3.9,0-7.9,0-9.3,0.1c-0.2,0.1-0.4,0.1-0.6,0.2c-1.1,0.9-3.9,3.7-6.6,6.4l-46.7,46.7
		c-15.5,15.5-24.9,24.9-39.3,29.6C463.2,798.5,456.7,799.5,450,799.5z"/>
	<path class="st0" d="M450,809.5c-7.7,0-15.3-1.2-22.7-3.6c-16.7-5.4-27.3-16-43.3-32l-46.7-46.7c-1.3-1.3-2.8-2.8-3.9-3.9
		c-1.6,0-3.6,0-5.5,0H270c-22.6,0-37.6,0-53.3-8c-13.9-7.1-25-18.2-32-32c-8-15.7-8-30.7-8-53.3v-57.9c0-1.9,0-3.9,0-5.5
		c-1.1-1.2-2.6-2.6-3.9-3.9L126.1,516c-16-16-26.6-26.6-32-43.3c-4.8-14.8-4.8-30.5,0-45.3c5.4-16.7,16-27.3,32-43.3l46.7-46.7
		c1.3-1.3,2.8-2.8,3.9-3.9c0-1.6,0-3.6,0-5.5V270c0-22.6,0-37.6,8-53.3c7.1-13.9,18.2-25,32-32c15.7-8,30.6-8,53.3-8h57.9
		c1.9,0,3.9,0,5.5,0c1.2-1.1,2.6-2.6,3.9-3.9l46.7-46.7c16-16,26.6-26.6,43.3-32c7.3-2.4,14.9-3.6,22.7-3.6c7.7,0,15.3,1.2,22.7,3.6
		c16.7,5.4,27.3,16,43.3,32l46.7,46.7c1.3,1.3,2.8,2.8,3.9,3.9c1.6,0,3.6,0,5.5,0H630c22.6,0,37.6,0,53.3,8c13.9,7.1,25,18.2,32,32
		c8,15.7,8,30.7,8,53.3v57.9c0,1.9,0,3.9,0,5.5c1.1,1.2,2.6,2.6,3.9,3.9l46.7,46.7c16,16,26.6,26.6,32,43.3
		c4.8,14.8,4.8,30.5,0,45.3c-5.4,16.7-16,27.3-32,43.3l-46.7,46.7c-1.3,1.3-2.8,2.8-3.9,3.9c0,1.6,0,3.6,0,5.5V630
		c0,22.6,0,37.6-8,53.3c-7.1,13.9-18.2,25-32,32c-15.7,8-30.7,8-53.3,8h-57.9c-1.9,0-3.9,0-5.5,0c-1.1,1.1-2.6,2.5-3.9,3.9
		L516,773.9c-16,16-26.6,26.6-43.3,32C465.3,808.3,457.7,809.5,450,809.5z"/>
	<path class="st0" d="M450,819.5c-8.8,0-17.4-1.4-25.8-4.1c-19-6.2-30.9-18-47.3-34.5c0,0-47.3-47.3-47.6-47.6c-0.5,0-59.3,0-59.3,0
		c-23.2,0-40,0-57.8-9.1c-15.8-8-28.4-20.6-36.4-36.4c-9.1-17.8-9.1-34.6-9.1-57.8c0,0,0-58.8,0-59.3c-0.3-0.3-47.6-47.6-47.6-47.6
		c-16.4-16.4-28.3-28.3-34.5-47.3c-5.5-16.8-5.5-34.7,0-51.5c6.2-19,18-30.9,34.5-47.3c0,0,47.3-47.3,47.6-47.6c0-0.5,0-59.3,0-59.3
		c0-23.2,0-40,9.1-57.8c8-15.8,20.6-28.4,36.4-36.4c17.8-9.1,34.6-9.1,57.8-9.1c0,0,58.8,0,59.3,0c0.3-0.3,47.6-47.6,47.6-47.6
		c16.4-16.4,28.3-28.3,47.3-34.5c8.3-2.7,17-4.1,25.7-4.1c8.8,0,17.4,1.4,25.7,4.1c19,6.2,30.9,18,47.3,34.5
		c0,0,47.3,47.3,47.6,47.6c0.5,0,59.3,0,59.3,0c23.2,0,40,0,57.8,9.1c15.8,8,28.4,20.6,36.4,36.4c9.1,17.8,9.1,34.6,9.1,57.8
		c0,0,0,58.8,0,59.3c0.3,0.3,47.6,47.6,47.6,47.6c16.4,16.4,28.3,28.3,34.5,47.3c5.5,16.8,5.5,34.7,0,51.5
		c-6.2,19-18,30.9-34.5,47.3c0,0-47.3,47.3-47.6,47.6c0,0.5,0,59.3,0,59.3c0,23.2,0,40-9.1,57.8c-8.1,15.8-20.6,28.4-36.4,36.4
		c-17.8,9.1-34.6,9.1-57.8,9.1c0,0-58.8,0-59.3,0c-0.3,0.3-47.6,47.6-47.6,47.6c-16.4,16.4-28.3,28.3-47.3,34.5
		C467.4,818.2,458.8,819.5,450,819.5z"/>
	<path class="st0" d="M450,829.5c-9.8,0-19.5-1.5-28.9-4.6c-21.3-6.9-34.5-20.2-51.3-36.9l-44.7-44.7H270c-23.7,0-42.4,0-62.4-10.2
		c-17.7-9-31.8-23.1-40.8-40.8c-10.2-20-10.2-38.7-10.2-62.4v-55.1L112,530.1c-16.8-16.8-30-30-36.9-51.3c-6.1-18.9-6.1-38.8,0-57.7
		c6.9-21.3,20.2-34.5,36.9-51.3l44.7-44.7V270c0-23.7,0-42.4,10.2-62.4c9-17.7,23.1-31.8,40.8-40.8c20-10.2,38.7-10.2,62.4-10.2
		h55.1l44.7-44.7c16.8-16.8,30-30,51.3-36.9c9.3-3,19-4.6,28.8-4.6c9.8,0,19.5,1.5,28.8,4.6c21.3,6.9,34.5,20.2,51.3,36.9l44.7,44.7
		H630c23.7,0,42.4,0,62.4,10.2c17.7,9,31.8,23.1,40.8,40.8c10.2,20,10.2,38.7,10.2,62.4v55.1l44.7,44.7c16.8,16.8,30,30,36.9,51.3
		c6.1,18.9,6.1,38.8,0,57.7c-6.9,21.3-20.2,34.5-36.9,51.3l-44.7,44.7V630c0,23.7,0,42.4-10.2,62.4c-9,17.7-23.1,31.8-40.8,40.8
		c-20,10.2-38.7,10.2-62.4,10.2h-55.2L530.1,788c-16.8,16.8-30,30-51.3,36.9C469.5,828,459.8,829.5,450,829.5z"/>
	<path class="st0" d="M767.9,439.7c-2.5-7.6-9.1-14.2-22.3-27.4L699,365.6c-5.8-5.8-8.6-8.6-10.7-12c-1.8-3-3.2-6.2-4-9.6
		c-0.9-3.8-0.9-7.9-0.9-16.1V270c0-18.7,0-28-3.6-35.1c-3.2-6.3-8.3-11.4-14.6-14.6c-7.1-3.6-16.5-3.6-35.1-3.6h-57.9
		c-8.2,0-12.2,0-16.1-0.9c-3.4-0.8-6.6-2.2-9.6-4c-3.4-2.1-6.2-4.9-12-10.7l-46.7-46.7c-13.2-13.2-19.8-19.8-27.4-22.3
		c-6.7-2.2-13.9-2.2-20.6,0c-7.6,2.5-14.2,9.1-27.4,22.3L365.6,201c-5.8,5.8-8.6,8.6-12,10.7c-3,1.8-6.2,3.2-9.6,4
		c-3.8,0.9-7.9,0.9-16.1,0.9H270c-18.7,0-28,0-35.1,3.6c-6.3,3.2-11.4,8.3-14.6,14.6c-3.6,7.1-3.6,16.5-3.6,35.1v57.9
		c0,8.2,0,12.2-0.9,16.1c-0.8,3.4-2.2,6.7-4,9.6c-2.1,3.4-4.9,6.2-10.7,12l-46.7,46.7c-13.2,13.2-19.8,19.8-22.3,27.4
		c-2.2,6.7-2.2,13.9,0,20.6c2.5,7.6,9.1,14.2,22.3,27.4l46.7,46.7c5.8,5.8,8.6,8.6,10.7,12c1.8,3,3.2,6.2,4,9.6
		c0.9,3.8,0.9,7.9,0.9,16.1V630c0,18.7,0,28,3.6,35.1c3.2,6.3,8.3,11.4,14.6,14.6c7.1,3.6,16.5,3.6,35.1,3.6h57.9
		c8.2,0,12.2,0,16.1,0.9c3.4,0.8,6.7,2.2,9.6,4c3.4,2.1,6.2,4.9,12,10.7l46.7,46.7c13.2,13.2,19.8,19.8,27.4,22.3
		c6.7,2.2,13.9,2.2,20.6,0c7.6-2.5,14.2-9.1,27.4-22.3l46.7-46.7c5.8-5.8,8.7-8.6,12-10.7c3-1.8,6.2-3.2,9.6-4
		c3.8-0.9,7.9-0.9,16.1-0.9H630c18.7,0,28,0,35.1-3.6c6.3-3.2,11.4-8.3,14.6-14.6c3.6-7.1,3.6-16.5,3.6-35.1v-57.9
		c0-8.2,0-12.2,0.9-16.1c0.8-3.4,2.2-6.7,4-9.6c2.1-3.4,4.9-6.2,10.7-12l46.7-46.7c13.2-13.2,19.8-19.8,22.3-27.4
		C770.1,453.6,770.1,446.4,767.9,439.7z"/>
</g>
<g id="Layer_1">
	<path class="st1" d="M450,476.7c33.3-33.3,66.7-46.5,66.7-83.3c0-36.8-29.8-66.7-66.7-66.7c-31.1,0-57.2,21.2-64.6,50 M450,576.7
		h0.3 M699,534.4l46.7-46.7c13.2-13.2,19.8-19.8,22.3-27.4c2.2-6.7,2.2-13.9,0-20.6c-2.5-7.6-9.1-14.2-22.3-27.4L699,365.6
		c-5.8-5.8-8.6-8.6-10.7-12c-1.8-3-3.2-6.2-4-9.6c-0.9-3.8-0.9-7.9-0.9-16.1V270c0-18.7,0-28-3.6-35.1c-3.2-6.3-8.3-11.4-14.6-14.6
		c-7.1-3.6-16.5-3.6-35.1-3.6h-57.9c-8.2,0-12.2,0-16.1-0.9c-3.4-0.8-6.6-2.2-9.6-4c-3.4-2.1-6.2-4.9-12-10.7l-46.7-46.7
		c-13.2-13.2-19.8-19.8-27.4-22.3c-6.7-2.2-13.9-2.2-20.6,0c-7.6,2.5-14.2,9.1-27.4,22.3L365.6,201c-5.8,5.8-8.6,8.6-12,10.7
		c-3,1.8-6.2,3.2-9.6,4c-3.8,0.9-7.9,0.9-16.1,0.9H270c-18.7,0-28,0-35.1,3.6c-6.3,3.2-11.4,8.3-14.6,14.6
		c-3.6,7.1-3.6,16.5-3.6,35.1v57.9c0,8.2,0,12.2-0.9,16.1c-0.8,3.4-2.2,6.7-4,9.6c-2.1,3.4-4.9,6.2-10.7,12l-46.7,46.7
		c-13.2,13.2-19.8,19.8-22.3,27.4c-2.2,6.7-2.2,13.9,0,20.6c2.5,7.6,9.1,14.2,22.3,27.4l46.7,46.7c5.8,5.8,8.6,8.6,10.7,12
		c1.8,3,3.2,6.2,4,9.6c0.9,3.8,0.9,7.9,0.9,16.1V630c0,18.7,0,28,3.6,35.1c3.2,6.3,8.3,11.4,14.6,14.6c7.1,3.6,16.5,3.6,35.1,3.6
		h57.9c8.2,0,12.2,0,16.1,0.9c3.4,0.8,6.7,2.2,9.6,4c3.4,2.1,6.2,4.9,12,10.7l46.7,46.7c13.2,13.2,19.8,19.8,27.4,22.3
		c6.7,2.2,13.9,2.2,20.6,0c7.6-2.5,14.2-9.1,27.4-22.3l46.7-46.7c5.8-5.8,8.7-8.6,12-10.7c3-1.8,6.2-3.2,9.6-4
		c3.8-0.9,7.9-0.9,16.1-0.9H630c18.7,0,28,0,35.1-3.6c6.3-3.2,11.4-8.3,14.6-14.6c3.6-7.1,3.6-16.5,3.6-35.1v-57.9
		c0-8.2,0-12.2,0.9-16.1c0.8-3.4,2.2-6.7,4-9.6C690.3,543,693.2,540.1,699,534.4z"/>
</g>
</svg>
