<?xml version="1.0" encoding="UTF-8" standalone="no"?>
<!-- Created with Inkscape (http://www.inkscape.org/) -->

<svg
   width="145.74506mm"
   height="92.6689mm"
   viewBox="0 0 145.74506 92.6689"
   version="1.1"
   id="svg1"
   xml:space="preserve"
   xmlns="http://www.w3.org/2000/svg"
   xmlns:svg="http://www.w3.org/2000/svg"><defs
     id="defs1" /><g
     id="layer1"
     transform="translate(-32.132409,-101.53766)"><path
       style="fill:#ffffff;fill-opacity:1;fill-rule:evenodd;stroke-width:0.264583"
       d="m 65.594271,157.30694 c -0.604594,0.46879 -1.813778,1.40635 -2.818912,2.16057 -1.005135,0.75422 -1.806189,1.32508 -2.977722,2.25588 -1.171533,0.93079 -2.713463,2.22145 -3.894406,3.22117 -1.180944,0.99972 -2.000833,1.70844 -3.06368,2.62166 -1.062847,0.91322 -2.368581,2.03088 -3.286005,2.83934 -0.917424,0.80846 -1.446495,1.30769 -2.082335,1.86829 -0.635841,0.56061 -1.378419,1.18257 -2.677248,2.37903 -1.29883,1.19645 -3.153829,2.96733 -4.567317,4.30482 -1.413488,1.33749 -2.385381,2.24152 -3.112426,2.98225 -0.727046,0.74073 -1.209174,1.31809 -1.779349,1.99022 -0.570176,0.67213 -1.228342,1.43896 -1.723717,2.26406 -0.495375,0.8251 -0.827894,1.70837 -1.017972,2.405 -0.190079,0.69663 -0.237706,1.20658 -0.06119,1.76011 0.176521,0.55352 0.577172,1.15058 1.097111,1.67377 0.519938,0.52319 1.159118,0.97246 2.116971,1.36907 0.957854,0.39661 2.234284,0.74053 3.882248,0.7963 1.647963,0.0558 3.667256,-0.1766 6.024098,-0.71672 2.356842,-0.54013 5.051005,-1.38796 7.421046,-2.19828 2.370042,-0.81033 4.415827,-1.58309 6.772579,-2.62624 2.356753,-1.04314 5.024323,-2.3566 7.827905,-3.7371 2.803582,-1.38051 5.743006,-2.82798 8.494502,-4.22107 2.751496,-1.39308 5.314895,-2.73169 7.478798,-3.86849 2.163903,-1.1368 3.928188,-2.07174 5.121187,-2.69335 1.193,-0.6216 1.814659,-0.92985 2.271665,-1.18198 0.457005,-0.25212 0.749343,-0.44812 0.882115,-0.64016 0.132772,-0.19204 0.105976,-0.38012 0.06388,-0.55635 -0.0421,-0.17624 -0.0995,-0.34062 -0.282458,-0.46598 -0.182963,-0.12536 -0.491489,-0.21168 -0.869667,-0.21809 -0.378178,-0.006 -0.825993,0.0671 -1.265934,0.22257 -0.43994,0.15548 -0.871978,0.39291 -1.580254,0.77206 -0.708276,0.37914 -1.692739,0.89997 -3.324764,1.65949 -1.632025,0.75952 -3.911501,1.75767 -6.274394,2.78421 -2.362894,1.02654 -4.809066,2.0814 -7.156356,3.05129 -2.34729,0.96989 -4.595519,1.85474 -6.594989,2.60809 -1.99947,0.75336 -3.749955,1.37515 -4.919169,1.80691 -1.169214,0.43176 -1.757018,0.67345 -2.344625,0.87783 -0.587608,0.20438 -1.174938,0.37142 -1.840367,0.46868 -0.665429,0.0973 -1.408875,0.12472 -2.256805,0.14389 -0.84793,0.0192 -1.80024,0.03 -2.544057,-0.0314 -0.743818,-0.0614 -1.279037,-0.19514 -1.750139,-0.37459 -0.471102,-0.17946 -0.878031,-0.40463 -1.183444,-0.68659 -0.305414,-0.28196 -0.509294,-0.62069 -0.620381,-1.09453 -0.111086,-0.47384 -0.129372,-1.08276 -0.01777,-1.71283 0.111597,-0.63007 0.353068,-1.28124 0.67901,-1.95158 0.325942,-0.67034 0.736335,-1.35981 1.158543,-2.05559 0.422208,-0.69579 0.856211,-1.39786 1.373476,-2.12379 0.517264,-0.72593 1.117755,-1.47567 1.77019,-2.18556 0.652435,-0.7099 1.356774,-1.37991 1.963834,-1.95242 0.607059,-0.5725 1.116805,-1.04747 1.635279,-1.56796 0.518475,-0.52048 1.045642,-1.08644 1.519931,-1.56379 0.47429,-0.47735 0.895672,-0.86606 1.272248,-1.1974 0.376577,-0.33134 0.70833,-0.6053 1.067862,-0.93411 0.359532,-0.32881 0.74682,-0.71245 1.224371,-1.17725 0.477552,-0.46481 1.045316,-1.01073 1.47119,-1.41223 0.425874,-0.40151 0.709801,-0.65854 1.189944,-1.21032 0.480143,-0.55179 1.156466,-1.39829 1.78564,-2.10807 0.629174,-0.70979 1.211146,-1.2828 1.660886,-1.75694 0.44974,-0.47413 0.767229,-0.84937 0.943012,-1.08739 0.175783,-0.23801 0.209857,-0.3388 0.23281,-0.47302 0.02295,-0.13422 0.03478,-0.30187 0.01783,-0.43489 -0.01696,-0.13302 -0.06269,-0.23139 -0.153115,-0.29525 -0.09043,-0.0639 -0.225565,-0.0932 -0.383622,-0.0942 -0.158057,-9.5e-4 -0.339049,0.0265 -0.534146,0.12384 -0.195098,0.0974 -0.404273,0.26461 -0.549438,0.39733 -0.145164,0.13272 -0.226264,0.23085 -0.266825,0.27992 -0.04056,0.0491 -0.04056,0.049 -0.645157,0.5178 z"
       id="path5" /><path
       style="fill:#ffffff;fill-opacity:1;fill-rule:evenodd;stroke-width:0.264583"
       d="m 65.594271,157.30694 c -0.604594,0.46879 -1.813778,1.40635 -2.818912,2.16057 -1.005135,0.75422 -1.806189,1.32508 -2.977722,2.25588 -1.171533,0.93079 -2.713463,2.22145 -3.894406,3.22117 -1.180944,0.99972 -2.000833,1.70844 -3.06368,2.62166 -1.062847,0.91322 -2.368581,2.03088 -3.286005,2.83934 -0.917424,0.80846 -1.446495,1.30769 -2.082335,1.86829 -0.635841,0.56061 -1.378419,1.18257 -2.677248,2.37903 -1.29883,1.19645 -3.153829,2.96733 -4.567317,4.30482 -1.413488,1.33749 -2.385381,2.24152 -3.112426,2.98225 -0.727046,0.74073 -1.209174,1.31809 -1.779349,1.99022 -0.570176,0.67213 -1.228342,1.43896 -1.723717,2.26406 -0.495375,0.8251 -0.827894,1.70837 -1.017972,2.405 -0.190079,0.69663 -0.237706,1.20658 -0.06119,1.76011 0.176521,0.55352 0.577172,1.15058 1.097111,1.67377 0.519938,0.52319 1.159118,0.97246 2.116971,1.36907 0.957854,0.39661 2.234284,0.74053 3.882248,0.7963 1.647963,0.0558 3.667256,-0.1766 6.024098,-0.71672 2.356842,-0.54013 5.051005,-1.38796 7.421046,-2.19828 2.370042,-0.81033 4.415827,-1.58309 6.772579,-2.62624 2.356753,-1.04314 5.024323,-2.3566 7.827905,-3.7371 2.803582,-1.38051 5.743006,-2.82798 8.494502,-4.22107 2.751496,-1.39308 5.314895,-2.73169 7.478798,-3.86849 2.163903,-1.1368 3.928188,-2.07174 5.121187,-2.69335 1.193,-0.6216 1.814659,-0.92985 2.271665,-1.18198 0.457005,-0.25212 0.749343,-0.44812 0.882115,-0.64016 0.132772,-0.19204 0.105976,-0.38012 0.06388,-0.55635 -0.0421,-0.17624 -0.0995,-0.34062 -0.282458,-0.46598 -0.182963,-0.12536 -0.491489,-0.21168 -0.869667,-0.21809 -0.378178,-0.006 -0.825993,0.0671 -1.265934,0.22257 -0.43994,0.15548 -0.871978,0.39291 -1.580254,0.77206 -0.708276,0.37914 -1.692739,0.89997 -3.324764,1.65949 -1.632025,0.75952 -3.911501,1.75767 -6.274394,2.78421 -2.362894,1.02654 -4.809066,2.0814 -7.156356,3.05129 -2.34729,0.96989 -4.595519,1.85474 -6.594989,2.60809 -1.99947,0.75336 -3.749955,1.37515 -4.919169,1.80691 -1.169214,0.43176 -1.757018,0.67345 -2.344625,0.87783 -0.587608,0.20438 -1.174938,0.37142 -1.840367,0.46868 -0.665429,0.0973 -1.408875,0.12472 -2.256805,0.14389 -0.84793,0.0192 -1.80024,0.03 -2.544057,-0.0314 -0.743818,-0.0614 -1.279037,-0.19514 -1.750139,-0.37459 -0.471102,-0.17946 -0.878031,-0.40463 -1.183444,-0.68659 -0.305414,-0.28196 -0.509294,-0.62069 -0.620381,-1.09453 -0.111086,-0.47384 -0.129372,-1.08276 -0.01777,-1.71283 0.111597,-0.63007 0.353068,-1.28124 0.67901,-1.95158 0.325942,-0.67034 0.736335,-1.35981 1.158543,-2.05559 0.422208,-0.69579 0.856211,-1.39786 1.373476,-2.12379 0.517264,-0.72593 1.117755,-1.47567 1.77019,-2.18556 0.652435,-0.7099 1.356774,-1.37991 1.963834,-1.95242 0.607059,-0.5725 1.116805,-1.04747 1.635279,-1.56796 0.518475,-0.52048 1.045642,-1.08644 1.519931,-1.56379 0.47429,-0.47735 0.895672,-0.86606 1.272248,-1.1974 0.376577,-0.33134 0.70833,-0.6053 1.067862,-0.93411 0.359532,-0.32881 0.74682,-0.71245 1.224371,-1.17725 0.477552,-0.46481 1.045316,-1.01073 1.47119,-1.41223 0.425874,-0.40151 0.709801,-0.65854 1.189944,-1.21032 0.480143,-0.55179 1.156466,-1.39829 1.78564,-2.10807 0.629174,-0.70979 1.211146,-1.2828 1.660886,-1.75694 0.44974,-0.47413 0.767229,-0.84937 0.943012,-1.08739 0.175783,-0.23801 0.209857,-0.3388 0.23281,-0.47302 0.02295,-0.13422 0.03478,-0.30187 0.01783,-0.43489 -0.01696,-0.13302 -0.06269,-0.23139 -0.153115,-0.29525 -0.09043,-0.0639 -0.225565,-0.0932 -0.383622,-0.0942 -0.158057,-9.5e-4 -0.339049,0.0265 -0.534146,0.12384 -0.195098,0.0974 -0.404273,0.26461 -0.549438,0.39733 -0.145164,0.13272 -0.226264,0.23085 -0.266825,0.27992 -0.04056,0.0491 -0.04056,0.049 -0.645157,0.5178 z"
       id="path5-2"
       transform="matrix(-1,0,0,1,210.29958,0)" /><path
       style="fill:#ffffff;fill-opacity:1;fill-rule:evenodd;stroke-width:0.264583"
       d="m 135.27475,155.76224 c 1.07959,0.83695 3.23876,2.51083 5.03985,3.95724 1.80109,1.44641 3.24403,2.66531 4.80213,4.03139 1.55811,1.36608 3.23127,2.87927 4.45485,4.0117 1.22358,1.13243 1.9975,1.88404 2.92265,2.7632 0.92515,0.87916 2.00147,1.88579 2.84937,2.76213 0.84791,0.87633 1.46737,1.62231 1.99127,2.30944 0.52389,0.68713 0.95219,1.31537 1.19526,1.96379 0.24308,0.64842 0.30091,1.31697 0.16618,1.84127 -0.13472,0.52431 -0.462,0.90433 -0.88386,1.26699 -0.42185,0.36267 -0.93826,0.70795 -1.61859,0.96914 -0.68033,0.26118 -1.52454,0.43825 -2.6973,0.46024 -1.17277,0.022 -2.67399,-0.11111 -4.27102,-0.44749 -1.59703,-0.33638 -3.28971,-0.87601 -4.87404,-1.42785 -1.58432,-0.55185 -3.06021,-1.11589 -4.72856,-1.81984 -1.66835,-0.70395 -3.52905,-1.54776 -5.17842,-2.31463 -1.64938,-0.76686 -3.08734,-1.45673 -4.61827,-2.20637 -1.53093,-0.74964 -3.15474,-1.559 -4.57,-2.23866 -1.41526,-0.67966 -2.62188,-1.22958 -3.30721,-1.5648 -0.68534,-0.33523 -0.84937,-0.45577 -0.94809,-0.61042 -0.0987,-0.15465 -0.13214,-0.34339 -0.13043,-0.55176 0.002,-0.20837 0.0386,-0.43631 0.14155,-0.61278 0.10298,-0.17647 0.2721,-0.30145 0.49934,-0.34558 0.22723,-0.0441 0.51259,-0.007 0.95817,0.15874 0.44557,0.16612 1.05134,0.4616 1.61188,0.73089 0.56054,0.26929 1.07582,0.51238 1.98327,0.9151 0.90746,0.40271 2.20704,0.96503 3.28826,1.41809 1.08122,0.45305 1.94402,0.79682 2.71192,1.10786 0.7679,0.31104 1.44086,0.58933 1.97508,0.80732 0.53423,0.21798 0.92968,0.37563 1.5174,0.5934 0.58772,0.21777 1.36767,0.49564 2.0439,0.72109 0.67622,0.22544 1.24868,0.39844 1.82242,0.55746 0.57374,0.15901 1.14873,0.30403 1.68294,0.40297 0.5342,0.0989 1.0276,0.15181 1.60105,0.19314 0.57344,0.0413 1.2269,0.0711 1.81662,0.0528 0.58972,-0.0183 1.11567,-0.0847 1.5654,-0.16695 0.44972,-0.0822 0.8232,-0.18019 1.07428,-0.35246 0.25109,-0.17227 0.37974,-0.41881 0.44988,-0.73925 0.0701,-0.32045 0.0817,-0.71476 0.0705,-1.08555 -0.0112,-0.37079 -0.0453,-0.71804 -0.13336,-1.09324 -0.0881,-0.3752 -0.23015,-0.77833 -0.44659,-1.22735 -0.21645,-0.44902 -0.50725,-0.94391 -0.87847,-1.4741 -0.37122,-0.53019 -0.82284,-1.09565 -1.24513,-1.57634 -0.42229,-0.4807 -0.81524,-0.87661 -1.19147,-1.25111 -0.37623,-0.3745 -0.73572,-0.72757 -1.11303,-1.10873 -0.37732,-0.38115 -0.77244,-0.79037 -1.20751,-1.23691 -0.43507,-0.44653 -0.91006,-0.93035 -1.32344,-1.33041 -0.41338,-0.40006 -0.76512,-0.71635 -1.13998,-1.06102 -0.37486,-0.34466 -0.77281,-0.71769 -1.15106,-1.08203 -0.37825,-0.36434 -0.73679,-0.71996 -1.1113,-1.08888 -0.37452,-0.36892 -0.765,-0.75112 -1.11859,-1.14725 -0.35358,-0.39613 -0.67026,-0.80616 -1.04175,-1.21746 -0.37149,-0.41129 -0.79776,-0.82381 -1.10986,-1.17023 -0.3121,-0.34643 -0.51001,-0.62674 -0.69733,-0.88304 -0.18733,-0.25629 -0.36406,-0.48857 -0.45048,-0.68452 -0.0864,-0.19595 -0.0825,-0.35557 -0.038,-0.48543 0.0445,-0.12986 0.1297,-0.22994 0.25288,-0.2648 0.12319,-0.0349 0.28436,-0.005 0.42706,0.0556 0.1427,0.0601 0.26686,0.14981 0.40886,0.28247 0.142,0.13266 0.30181,0.30822 0.44133,0.43151 0.13952,0.12329 0.25875,0.19432 0.31835,0.22983 0.0596,0.0355 0.0596,0.0355 1.13922,0.87245 z"
       id="path6" /><path
       style="fill:#ffffff;fill-opacity:1;fill-rule:evenodd;stroke-width:0.264583"
       d="m 135.27475,155.76224 c 1.07959,0.83695 3.23876,2.51083 5.03985,3.95724 1.80109,1.44641 3.24403,2.66531 4.80213,4.03139 1.55811,1.36608 3.23127,2.87927 4.45485,4.0117 1.22358,1.13243 1.9975,1.88404 2.92265,2.7632 0.92515,0.87916 2.00147,1.88579 2.84937,2.76213 0.84791,0.87633 1.46737,1.62231 1.99127,2.30944 0.52389,0.68713 0.95219,1.31537 1.19526,1.96379 0.24308,0.64842 0.30091,1.31697 0.16618,1.84127 -0.13472,0.52431 -0.462,0.90433 -0.88386,1.26699 -0.42185,0.36267 -0.93826,0.70795 -1.61859,0.96914 -0.68033,0.26118 -1.52454,0.43825 -2.6973,0.46024 -1.17277,0.022 -2.67399,-0.11111 -4.27102,-0.44749 -1.59703,-0.33638 -3.28971,-0.87601 -4.87404,-1.42785 -1.58432,-0.55185 -3.06021,-1.11589 -4.72856,-1.81984 -1.66835,-0.70395 -3.52905,-1.54776 -5.17842,-2.31463 -1.64938,-0.76686 -3.08734,-1.45673 -4.61827,-2.20637 -1.53093,-0.74964 -3.15474,-1.559 -4.57,-2.23866 -1.41526,-0.67966 -2.62188,-1.22958 -3.30721,-1.5648 -0.68534,-0.33523 -0.84937,-0.45577 -0.94809,-0.61042 -0.0987,-0.15465 -0.13214,-0.34339 -0.13043,-0.55176 0.002,-0.20837 0.0386,-0.43631 0.14155,-0.61278 0.10298,-0.17647 0.2721,-0.30145 0.49934,-0.34558 0.22723,-0.0441 0.51259,-0.007 0.95817,0.15874 0.44557,0.16612 1.05134,0.4616 1.61188,0.73089 0.56054,0.26929 1.07582,0.51238 1.98327,0.9151 0.90746,0.40271 2.20704,0.96503 3.28826,1.41809 1.08122,0.45305 1.94402,0.79682 2.71192,1.10786 0.7679,0.31104 1.44086,0.58933 1.97508,0.80732 0.53423,0.21798 0.92968,0.37563 1.5174,0.5934 0.58772,0.21777 1.36767,0.49564 2.0439,0.72109 0.67622,0.22544 1.24868,0.39844 1.82242,0.55746 0.57374,0.15901 1.14873,0.30403 1.68294,0.40297 0.5342,0.0989 1.0276,0.15181 1.60105,0.19314 0.57344,0.0413 1.2269,0.0711 1.81662,0.0528 0.58972,-0.0183 1.11567,-0.0847 1.5654,-0.16695 0.44972,-0.0822 0.8232,-0.18019 1.07428,-0.35246 0.25109,-0.17227 0.37974,-0.41881 0.44988,-0.73925 0.0701,-0.32045 0.0817,-0.71476 0.0705,-1.08555 -0.0112,-0.37079 -0.0453,-0.71804 -0.13336,-1.09324 -0.0881,-0.3752 -0.23015,-0.77833 -0.44659,-1.22735 -0.21645,-0.44902 -0.50725,-0.94391 -0.87847,-1.4741 -0.37122,-0.53019 -0.82284,-1.09565 -1.24513,-1.57634 -0.42229,-0.4807 -0.81524,-0.87661 -1.19147,-1.25111 -0.37623,-0.3745 -0.73572,-0.72757 -1.11303,-1.10873 -0.37732,-0.38115 -0.77244,-0.79037 -1.20751,-1.23691 -0.43507,-0.44653 -0.91006,-0.93035 -1.32344,-1.33041 -0.41338,-0.40006 -0.76512,-0.71635 -1.13998,-1.06102 -0.37486,-0.34466 -0.77281,-0.71769 -1.15106,-1.08203 -0.37825,-0.36434 -0.73679,-0.71996 -1.1113,-1.08888 -0.37452,-0.36892 -0.765,-0.75112 -1.11859,-1.14725 -0.35358,-0.39613 -0.67026,-0.80616 -1.04175,-1.21746 -0.37149,-0.41129 -0.79776,-0.82381 -1.10986,-1.17023 -0.3121,-0.34643 -0.51001,-0.62674 -0.69733,-0.88304 -0.18733,-0.25629 -0.36406,-0.48857 -0.45048,-0.68452 -0.0864,-0.19595 -0.0825,-0.35557 -0.038,-0.48543 0.0445,-0.12986 0.1297,-0.22994 0.25288,-0.2648 0.12319,-0.0349 0.28436,-0.005 0.42706,0.0556 0.1427,0.0601 0.26686,0.14981 0.40886,0.28247 0.142,0.13266 0.30181,0.30822 0.44133,0.43151 0.13952,0.12329 0.25875,0.19432 0.31835,0.22983 0.0596,0.0355 0.0596,0.0355 1.13922,0.87245 z"
       id="path6-1"
       transform="matrix(-1,0,0,1,210.05586,-0.01680875)" /><path
       style="fill:#ffffff;fill-opacity:1;fill-rule:evenodd"
       d="M 266.50767,89.903347 C 260.01462,85.312186 242.32094,78.316541 224.95174,71.6405 207.58254,64.964459 190.53955,58.608683 178.76957,54.793387 166.9996,50.978091 160.50392,49.703706 153.7168,49.035119 c -6.78712,-0.668587 -13.86514,-0.731348 -18.81713,0.561385 -4.952,1.292732 -7.77737,3.940799 -8.89244,7.610094 -1.11507,3.669294 -0.51968,8.359466 0.53639,12.07565 1.05607,3.716185 2.57271,6.458124 6.49974,11.519388 3.92703,5.061265 10.26397,12.441248 21.799,24.969214 11.53503,12.52796 28.26675,30.20239 41.96653,43.27248 13.69978,13.07008 24.3662,21.53444 43.60958,35.84958 19.24339,14.31513 47.06353,34.48088 61.9246,44.94772 14.86107,10.46684 16.76303,11.23476 18.4536,10.2332 1.69058,-1.00156 3.1696,-3.77246 1.93789,-6.66307 -1.23171,-2.89061 -5.17406,-5.90065 -12.98538,-11.67908 -7.81131,-5.77844 -19.4908,-14.32468 -37.04326,-28.47911 -17.55246,-14.15443 -40.97578,-33.91535 -57.62379,-50.02333 -16.64801,-16.10797 -26.51871,-28.56107 -31.98332,-37.56552 -5.4646,-9.004443 -6.52244,-14.559134 -5.64983,-18.201644 0.87261,-3.642509 3.67563,-5.372438 6.40406,-6.301892 2.72842,-0.929453 5.38208,-1.058396 8.21103,-1.193774 2.82894,-0.135378 5.83292,-0.27718 10.18652,0.05606 4.3536,0.333242 10.05628,1.141487 17.5579,3.474925 7.50161,2.333438 16.80128,6.191797 23.8398,9.110534 7.03852,2.918738 11.81516,4.897551 14.76098,5.784183 2.94583,0.886631 4.06067,0.681058 6.97214,-0.515027 2.91147,-1.196085 7.61931,-3.38258 1.12626,-7.97374 z"
       id="path3-9"
       transform="matrix(-0.26458333,0,0,0.26458333,210.55232,88.687312)" /><path
       style="fill:#ffffff;fill-opacity:1;fill-rule:evenodd"
       d="M 266.50767,89.903347 C 260.01462,85.312186 242.32094,78.316541 224.95174,71.6405 207.58254,64.964459 190.53955,58.608683 178.76957,54.793387 166.9996,50.978091 160.50392,49.703706 153.7168,49.035119 c -6.78712,-0.668587 -13.86514,-0.731348 -18.81713,0.561385 -4.952,1.292732 -7.77737,3.940799 -8.89244,7.610094 -1.11507,3.669294 -0.51968,8.359466 0.53639,12.07565 1.05607,3.716185 2.57271,6.458124 6.49974,11.519388 3.92703,5.061265 10.26397,12.441248 21.799,24.969214 11.53503,12.52796 28.26675,30.20239 41.96653,43.27248 13.69978,13.07008 24.3662,21.53444 43.60958,35.84958 19.24339,14.31513 47.06353,34.48088 61.9246,44.94772 14.86107,10.46684 16.76303,11.23476 18.4536,10.2332 1.69058,-1.00156 3.1696,-3.77246 1.93789,-6.66307 -1.23171,-2.89061 -5.17406,-5.90065 -12.98538,-11.67908 -7.81131,-5.77844 -19.4908,-14.32468 -37.04326,-28.47911 -17.55246,-14.15443 -40.97578,-33.91535 -57.62379,-50.02333 -16.64801,-16.10797 -26.51871,-28.56107 -31.98332,-37.56552 -5.4646,-9.004443 -6.52244,-14.559134 -5.64983,-18.201644 0.87261,-3.642509 3.67563,-5.372438 6.40406,-6.301892 2.72842,-0.929453 5.38208,-1.058396 8.21103,-1.193774 2.82894,-0.135378 5.83292,-0.27718 10.18652,0.05606 4.3536,0.333242 10.05628,1.141487 17.5579,3.474925 7.50161,2.333438 16.80128,6.191797 23.8398,9.110534 7.03852,2.918738 11.81516,4.897551 14.76098,5.784183 2.94583,0.886631 4.06067,0.681058 6.97214,-0.515027 2.91147,-1.196085 7.61931,-3.38258 1.12626,-7.97374 z"
       id="path3-9-3"
       transform="matrix(0.26458333,0,0,0.26458333,-1.0485734,88.687312)" /><path
       style="fill:#ffffff;fill-opacity:1;fill-rule:evenodd"
       d="m 296.78501,122.34033 c -3.25093,-1.69381 -9.75279,-5.08142 -19.08179,-9.08396 -9.32899,-4.00254 -21.48463,-8.61981 -30.76258,-11.92653 -9.27795,-3.306729 -15.67772,-5.302739 -21.49922,-6.56411 -5.82149,-1.261371 -11.06437,-1.78804 -15.36238,-1.881115 -4.29802,-0.09307 -7.65093,0.247442 -9.90287,1.221324 -2.25194,0.973883 -3.40279,2.581062 -4.2406,4.372586 -0.8378,1.791525 -1.36252,3.767285 -1.40239,5.652515 -0.0399,1.88522 0.40508,3.6798 1.66531,5.80768 1.26023,2.12788 3.33564,4.58892 6.2412,7.98164 2.90556,3.39273 6.64109,7.71691 10.34147,11.92576 3.70037,4.20885 7.36537,8.30211 11.30574,12.58398 3.94036,4.28186 8.15583,8.75205 13.23048,13.83007 5.07465,5.07802 11.00814,10.76354 17.25205,16.20908 6.24392,5.44553 12.79787,10.65075 19.57584,15.70159 6.77797,5.05083 13.77955,9.94698 18.95,13.54049 5.17045,3.59352 8.50951,5.88421 11.2384,7.86793 2.72889,1.98373 4.84746,3.66036 6.13251,4.60265 1.28504,0.9423 1.7365,1.15021 2.25419,0.95318 0.51769,-0.19703 1.10158,-0.79898 1.43978,-1.95047 0.33819,-1.1515 0.43066,-2.85247 -0.26567,-4.45671 -0.69634,-1.60424 -2.18143,-3.11165 -3.83744,-4.62573 -1.65601,-1.51408 -3.48284,-3.03474 -8.16617,-6.79299 -4.68334,-3.75825 -12.22283,-9.75384 -18.19101,-14.77637 -5.96818,-5.02254 -10.36472,-9.07175 -14.88955,-13.27404 -4.52483,-4.20228 -9.17767,-8.55739 -13.14332,-12.6485 -3.96566,-4.09111 -7.2439,-7.91797 -9.5766,-10.53039 -2.33269,-2.61242 -3.71972,-4.01026 -5.34019,-6.45237 -1.62047,-2.44211 -3.47429,-5.92831 -4.68779,-8.33956 -1.21351,-2.41124 -1.78664,-3.7474 -2.20165,-5.13492 -0.41501,-1.38753 -0.67189,-2.82634 -0.64957,-4.1036 0.0223,-1.27726 0.32385,-2.39289 0.90707,-3.26963 0.58323,-0.87674 1.44812,-1.51454 2.77793,-2.00112 1.32981,-0.48658 3.12442,-0.82191 4.79825,-1.09409 1.67382,-0.27218 3.22664,-0.48119 4.9202,-0.57725 1.69355,-0.0961 3.52762,-0.0792 5.53111,0.18631 2.0035,0.26547 4.17623,0.77949 6.12993,1.25854 1.9537,0.47905 3.68824,0.9231 5.56611,1.53877 1.87787,0.61567 3.89895,1.40292 6.05384,2.26607 2.15489,0.86315 4.44345,1.80213 6.44048,2.62829 1.99703,0.82616 3.7024,1.53945 5.48656,2.28093 1.78415,0.74148 3.64699,1.51112 5.35052,2.14782 1.70352,0.6367 3.24764,1.14044 4.56512,1.51562 1.31747,0.37519 2.40823,0.62181 3.4087,0.70966 1.00048,0.0879 1.91062,0.0169 2.79908,-0.26238 0.88845,-0.2793 1.75516,-0.76695 2.26005,-1.39174 0.5049,-0.62479 0.64792,-1.38666 0.55924,-2.06802 -0.0887,-0.68137 -0.40906,-1.28221 -0.56925,-1.58263 -0.16019,-0.30042 -0.16019,-0.30045 -3.41112,-1.99426 z"
       id="path4"
       transform="matrix(0.26458333,0,0,0.26458333,-0.6960203,88.928969)" /><path
       style="fill:#ffffff;fill-opacity:1;fill-rule:evenodd"
       d="m 296.78501,122.34033 c -3.25093,-1.69381 -9.75279,-5.08142 -19.08179,-9.08396 -9.32899,-4.00254 -21.48463,-8.61981 -30.76258,-11.92653 -9.27795,-3.306729 -15.67772,-5.302739 -21.49922,-6.56411 -5.82149,-1.261371 -11.06437,-1.78804 -15.36238,-1.881115 -4.29802,-0.09307 -7.65093,0.247442 -9.90287,1.221324 -2.25194,0.973883 -3.40279,2.581062 -4.2406,4.372586 -0.8378,1.791525 -1.36252,3.767285 -1.40239,5.652515 -0.0399,1.88522 0.40508,3.6798 1.66531,5.80768 1.26023,2.12788 3.33564,4.58892 6.2412,7.98164 2.90556,3.39273 6.64109,7.71691 10.34147,11.92576 3.70037,4.20885 7.36537,8.30211 11.30574,12.58398 3.94036,4.28186 8.15583,8.75205 13.23048,13.83007 5.07465,5.07802 11.00814,10.76354 17.25205,16.20908 6.24392,5.44553 12.79787,10.65075 19.57584,15.70159 6.77797,5.05083 13.77955,9.94698 18.95,13.54049 5.17045,3.59352 8.50951,5.88421 11.2384,7.86793 2.72889,1.98373 4.84746,3.66036 7.01129,5.58901 2.16382,1.92866 4.37272,4.10917 5.22769,3.35614 0.85497,-0.75304 0.35591,-4.43953 -0.18467,-6.57739 -0.54058,-2.13786 -1.12263,-2.72686 -2.15624,-3.7751 -1.0336,-1.04825 -2.51869,-2.55566 -4.1747,-4.06974 -1.65601,-1.51408 -3.48284,-3.03474 -8.16617,-6.79299 -4.68334,-3.75825 -12.22283,-9.75384 -18.19101,-14.77637 -5.96818,-5.02254 -10.36472,-9.07175 -14.88955,-13.27404 -4.52483,-4.20228 -9.17767,-8.55739 -13.14332,-12.6485 -3.96566,-4.09111 -7.2439,-7.91797 -9.5766,-10.53039 -2.33269,-2.61242 -3.71972,-4.01026 -5.34019,-6.45237 -1.62047,-2.44211 -3.47429,-5.92831 -4.68779,-8.33956 -1.21351,-2.41124 -1.78664,-3.7474 -2.20165,-5.13492 -0.41501,-1.38753 -0.67189,-2.82634 -0.64957,-4.1036 0.0223,-1.27726 0.32385,-2.39289 0.90707,-3.26963 0.58323,-0.87674 1.44812,-1.51454 2.77793,-2.00112 1.32981,-0.48658 3.12442,-0.82191 4.79825,-1.09409 1.67382,-0.27218 3.22664,-0.48119 4.9202,-0.57725 1.69355,-0.0961 3.52762,-0.0792 5.53111,0.18631 2.0035,0.26547 4.17623,0.77949 6.12993,1.25854 1.9537,0.47905 3.68824,0.9231 5.56611,1.53877 1.87787,0.61567 3.89895,1.40292 6.05384,2.26607 2.15489,0.86315 4.44345,1.80213 6.44048,2.62829 1.99703,0.82616 3.7024,1.53945 5.48656,2.28093 1.78415,0.74148 3.64699,1.51112 5.35052,2.14782 1.70352,0.6367 3.24764,1.14044 4.56512,1.51562 1.31747,0.37519 2.40823,0.62181 3.4087,0.70966 1.00048,0.0879 1.91062,0.0169 2.79908,-0.26238 0.88845,-0.2793 1.75516,-0.76695 2.26005,-1.39174 0.5049,-0.62479 0.64792,-1.38666 0.55924,-2.06802 -0.0887,-0.68137 -0.40906,-1.28221 -0.56925,-1.58263 -0.16019,-0.30042 -0.16019,-0.30045 -3.41112,-1.99426 z"
       id="path4-2"
       transform="matrix(-0.26458333,0,0,0.26458333,210.67939,88.928969)" /></g><g
     id="layer3"
     transform="translate(-32.132409,-101.53766)"><path
       style="fill:#fffefe;fill-opacity:1;fill-rule:evenodd;stroke-width:0.264583"
       d="m 105.18569,178.24393 c 0.5786,-0.0829 1.3429,-0.28923 2.19555,-0.68326 0.85265,-0.39403 1.79362,-0.97572 2.45244,-1.45956 0.65883,-0.48383 1.03548,-0.86978 1.47012,-1.32816 0.43463,-0.45838 0.92722,-0.98915 1.65593,-1.86823 0.7287,-0.87909 1.69349,-2.10643 2.36769,-2.99089 0.6742,-0.88447 1.05779,-1.42602 1.523,-2.14373 0.46521,-0.71771 1.012,-1.61152 1.66808,-2.76744 0.65608,-1.15592 1.42141,-2.57387 2.14972,-4.03922 0.7283,-1.46536 1.41953,-2.97802 2.04634,-4.50573 0.62682,-1.52771 1.18919,-3.07037 1.56632,-4.36803 0.37713,-1.29767 0.569,-2.35026 0.79101,-3.57629 0.222,-1.22604 0.47412,-2.62543 0.62614,-3.75977 0.15202,-1.13434 0.20393,-2.00357 0.20477,-3.04064 8.4e-4,-1.03707 -0.0494,-2.24191 -0.20143,-3.48155 -0.15202,-1.23965 -0.40581,-2.51401 -0.69355,-3.60487 -0.28773,-1.09086 -0.60938,-1.99814 -1.01219,-2.9794 -0.40281,-0.98125 -0.88675,-2.0364 -1.48352,-3.06881 -0.59678,-1.0324 -1.30634,-2.04198 -2.20411,-3.06109 -0.89777,-1.0191 -1.98364,-2.04761 -2.96524,-2.82601 -0.98161,-0.7784 -1.85883,-1.3066 -2.73595,-1.75784 -0.87713,-0.45123 -1.75408,-0.82545 -2.53323,-1.09609 -0.77916,-0.27064 -1.46048,-0.43769 -2.24667,-0.57219 -0.78618,-0.1345 -1.67717,-0.23645 -2.45177,-0.32977 -0.77459,-0.0933 -1.43274,-0.178 -2.24975,-0.17283 -0.81702,0.005 -1.79285,0.10016 -2.83093,0.2225 -1.03807,0.12234 -2.13832,0.272 -3.192395,0.50656 -1.054075,0.23457 -2.061909,0.55402 -3.08503,1.04815 -1.023121,0.49413 -2.061464,1.1629 -3.015522,1.85772 -0.954059,0.69481 -1.82377,1.41562 -2.613606,2.2387 -0.789836,0.82307 -1.499746,1.74835 -2.082669,2.57814 -0.582923,0.82979 -1.038822,1.56403 -1.430801,2.34395 -0.391979,0.77993 -0.720015,1.60549 -1.077799,2.60504 -0.357783,0.99956 -0.745288,2.17304 -1.000267,3.07175 -0.25498,0.89871 -0.377419,1.5226 -0.509166,2.35527 -0.131747,0.83267 -0.272792,1.87406 -0.322183,3.11604 -0.04939,1.24197 -0.0071,2.68445 0.09098,3.93063 0.0981,1.24619 0.25204,2.29601 0.446013,3.40422 0.193973,1.1082 0.42797,2.27471 0.754992,3.42411 0.327023,1.1494 0.74705,2.28162 1.267672,3.60486 0.520622,1.32323 1.1418,2.83738 1.845432,4.32779 0.703632,1.49041 1.489668,2.95697 2.174994,4.22944 0.685327,1.27246 1.269907,2.35076 1.825225,3.25069 0.555318,0.89993 1.081342,1.62144 1.640788,2.40153 0.559447,0.7801 1.152277,1.61872 1.742902,2.39478 0.590625,0.77605 1.179012,1.4895 1.744669,2.11385 0.565656,0.62435 1.10855,1.15957 1.596648,1.61301 0.488098,0.45345 0.921374,0.82509 1.346934,1.1393 0.42557,0.3142 0.8434,0.57096 1.23505,0.7855 0.39164,0.21454 0.75707,0.38686 1.11003,0.53308 0.35296,0.14623 0.69342,0.26635 1.06012,0.34671 0.3667,0.0804 0.75961,0.12096 1.33822,0.0381 z"
       id="path7" /></g><g
     id="layer5"
     transform="translate(-32.132409,-101.53766)"><path
       style="fill:#2aff33;fill-opacity:1;fill-rule:evenodd"
       d="m 401.16576,224.5 5.62329,-42.65491 34.45387,-5.74019 -34.80406,-6.29524 -5.71059,-44.58054 -5.30211,44.48227 -35.55838,5.93931 35.65536,5.79303 z"
       id="path1"
       transform="matrix(0.26458333,0,0,0.26458333,-0.6960203,88.928969)" /><path
       style="fill:#000000;fill-opacity:1;fill-rule:evenodd;stroke-width:0.264583"
       d="m 115.71341,143.96542 c -0.33609,0.18372 -1.00827,0.55118 -1.82033,1.11947 -0.81206,0.56829 -1.76397,1.33739 -2.59706,2.19812 -0.8331,0.86072 -1.54734,1.81301 -2.15267,2.76398 -0.60533,0.95096 -1.10172,1.90054 -1.45482,2.71826 -0.3531,0.81772 -0.5629,1.50354 -0.7267,2.24809 -0.16379,0.74456 -0.28156,1.54782 -0.27734,2.34627 0.004,0.79845 0.13044,1.59206 0.39572,2.21935 0.26527,0.62729 0.66958,1.08823 1.2392,1.44164 0.56961,0.35341 1.30448,0.59925 2.19203,0.5989 0.88755,-3.4e-4 1.92773,-0.24688 2.96732,-0.64006 1.03959,-0.39317 2.07853,-0.93297 3.00862,-1.57077 0.9301,-0.6378 1.75131,-1.37357 2.46368,-2.12043 0.71238,-0.74686 1.31589,-1.50477 1.81998,-2.3543 0.5041,-0.84953 0.90875,-1.79061 1.21927,-2.61252 0.31051,-0.82192 0.52686,-1.52459 0.72049,-2.20357 0.19363,-0.67898 0.36453,-1.33422 0.4957,-2.00154 0.13117,-0.66732 0.22259,-1.34667 0.1822,-1.9638 -0.0404,-0.61713 -0.21258,-1.17197 -0.50881,-1.69586 -0.29623,-0.52389 -0.71646,-1.01679 -1.14775,-1.33666 -0.4313,-0.31988 -0.87364,-0.46672 -1.36085,-0.49086 -0.48722,-0.0241 -1.01925,0.0744 -1.74696,0.28698 -0.72772,0.21254 -1.65109,0.53906 -2.11277,0.70232 -0.46169,0.16326 -0.46206,0.16326 -0.79815,0.34699 z"
       id="path8"
       transform="matrix(-1,0,0,1,210.01764,-0.07219571)" /><path
       style="fill:#000000;fill-opacity:1;fill-rule:evenodd;stroke-width:0.264583"
       d="m 115.71341,143.96542 c -0.33609,0.18372 -1.00827,0.55118 -1.82033,1.11947 -0.81206,0.56829 -1.76397,1.33739 -2.59706,2.19812 -0.8331,0.86072 -1.54734,1.81301 -2.15267,2.76398 -0.60533,0.95096 -1.10172,1.90054 -1.45482,2.71826 -0.3531,0.81772 -0.5629,1.50354 -0.7267,2.24809 -0.16379,0.74456 -0.28156,1.54782 -0.27734,2.34627 0.004,0.79845 0.13044,1.59206 0.39572,2.21935 0.26527,0.62729 0.66958,1.08823 1.2392,1.44164 0.56961,0.35341 1.30448,0.59925 2.19203,0.5989 0.88755,-3.4e-4 1.92773,-0.24688 2.96732,-0.64006 1.03959,-0.39317 2.07853,-0.93297 3.00862,-1.57077 0.9301,-0.6378 1.75131,-1.37357 2.46368,-2.12043 0.71238,-0.74686 1.31589,-1.50477 1.81998,-2.3543 0.5041,-0.84953 0.90875,-1.79061 1.21927,-2.61252 0.31051,-0.82192 0.52686,-1.52459 0.72049,-2.20357 0.19363,-0.67898 0.36453,-1.33422 0.4957,-2.00154 0.13117,-0.66732 0.22259,-1.34667 0.1822,-1.9638 -0.0404,-0.61713 -0.21258,-1.17197 -0.50881,-1.69586 -0.29623,-0.52389 -0.71646,-1.01679 -1.14775,-1.33666 -0.4313,-0.31988 -0.87364,-0.46672 -1.36085,-0.49086 -0.48722,-0.0241 -1.01925,0.0744 -1.74696,0.28698 -0.72772,0.21254 -1.65109,0.53906 -2.11277,0.70232 -0.46169,0.16326 -0.46206,0.16326 -0.79815,0.34699 z"
       id="path8-9"
       transform="translate(0.20577528,-0.07219571)" /></g></svg>
