<svg version="1.1" viewBox="0.0 0.0 1152.0 2304.0" fill="none" stroke="none" stroke-linecap="square" stroke-miterlimit="10" xmlns:xlink="http://www.w3.org/1999/xlink" xmlns="http://www.w3.org/2000/svg"><clipPath id="p.0"><path d="m0 0l1152.0 0l0 2304.0l-1152.0 0l0 -2304.0z" clip-rule="nonzero"/></clipPath><g clip-path="url(#p.0)"><path fill="#000000" fill-opacity="0.0" d="m0 0l1152.0 0l0 2304.0l-1152.0 0z" fill-rule="evenodd"/><path fill="#000000" fill-opacity="0.0" d="m0 2187.6523l248.72441 0l0 116.346436l-248.72441 0z" fill-rule="evenodd"/><path stroke="#000000" stroke-width="3.0" stroke-linejoin="round" stroke-linecap="butt" d="m0 2187.6523l248.72441 0l0 116.346436l-248.72441 0z" fill-rule="evenodd"/><path fill="#000000" d="m10.203125 2216.1272l2.375 -0.21875q0.171875 1.4375 0.78125 2.359375q0.625 0.90625 1.921875 1.484375q1.3125 0.5625 2.9375 0.5625q1.4375 0 2.546875 -0.421875q1.109375 -0.4375 1.640625 -1.1875q0.546875 -0.75 0.546875 -1.640625q0 -0.890625 -0.53125 -1.5625q-0.515625 -0.671875 -1.703125 -1.125q-0.765625 -0.296875 -3.40625 -0.921875q-2.625 -0.640625 -3.671875 -1.203125q-1.375 -0.71875 -2.046875 -1.765625q-0.671875 -1.0625 -0.671875 -2.375q0 -1.453125 0.8125 -2.703125q0.828125 -1.265625 2.40625 -1.90625q1.578125 -0.65625 3.5 -0.65625q2.125 0 3.734375 0.6875q1.625 0.671875 2.5 2.0q0.875 1.328125 0.9375 3.015625l-2.421875 0.1875q-0.1875 -1.8125 -1.3125 -2.734375q-1.125 -0.9375 -3.328125 -0.9375q-2.296875 0 -3.34375 0.84375q-1.046875 0.84375 -1.046875 2.03125q0 1.015625 0.75 1.6875q0.71875 0.65625 3.796875 1.359375q3.078125 0.703125 4.234375 1.21875q1.65625 0.765625 2.453125 1.953125q0.796875 1.171875 0.796875 2.703125q0 1.53125 -0.875 2.875q-0.875 1.34375 -2.515625 2.09375q-1.625 0.75 -3.671875 0.75q-2.59375 0 -4.34375 -0.75q-1.75 -0.765625 -2.75 -2.28125q-0.984375 -1.515625 -1.03125 -3.421875zm27.357635 1.0625l2.296875 0.296875q-0.375 2.390625 -1.9375 3.734375q-1.546875 1.34375 -3.8125 1.34375q-2.84375 0 -4.5625 -1.84375q-1.71875 -1.859375 -1.71875 -5.328125q0 -2.234375 0.734375 -3.90625q0.75 -1.6875 2.265625 -2.53125q1.515625 -0.84375 3.296875 -0.84375q2.25 0 3.671875 1.140625q1.4375 1.140625 1.84375 3.234375l-2.28125 0.359375q-0.328125 -1.390625 -1.15625 -2.09375q-0.8125 -0.703125 -1.984375 -0.703125q-1.78125 0 -2.890625 1.265625q-1.09375 1.265625 -1.09375 4.015625q0 2.78125 1.0625 4.046875q1.0625 1.265625 2.78125 1.265625q1.390625 0 2.3125 -0.84375q0.921875 -0.859375 1.171875 -2.609375zm13.328125 3.359375q-1.3125 1.109375 -2.515625 1.5625q-1.203125 0.453125 -2.578125 0.453125q-2.28125 0 -3.5 -1.109375q-1.21875 -1.109375 -1.21875 -2.84375q0 -1.015625 0.453125 -1.859375q0.46875 -0.84375 1.21875 -1.34375q0.75 -0.515625 1.6875 -0.765625q0.6875 -0.1875 2.078125 -0.359375q2.828125 -0.328125 4.171875 -0.796875q0.015625 -0.484375 0.015625 -0.625q0 -1.421875 -0.65625 -2.015625q-0.90625 -0.796875 -2.671875 -0.796875q-1.65625 0 -2.453125 0.59375q-0.78125 0.578125 -1.15625 2.046875l-2.296875 -0.3125q0.3125 -1.46875 1.03125 -2.375q0.71875 -0.90625 2.0625 -1.390625q1.359375 -0.5 3.140625 -0.5q1.78125 0 2.875 0.421875q1.109375 0.421875 1.625 1.046875q0.53125 0.625 0.734375 1.59375q0.125 0.59375 0.125 2.15625l0 3.125q0 3.265625 0.140625 4.140625q0.15625 0.859375 0.59375 1.65625l-2.4375 0q-0.375 -0.734375 -0.46875 -1.703125zm-0.203125 -5.234375q-1.265625 0.515625 -3.828125 0.890625q-1.4375 0.203125 -2.046875 0.46875q-0.59375 0.25 -0.921875 0.75q-0.3125 0.5 -0.3125 1.125q0 0.9375 0.703125 1.5625q0.703125 0.625 2.078125 0.625q1.34375 0 2.390625 -0.59375q1.0625 -0.59375 1.5625 -1.625q0.375 -0.796875 0.375 -2.34375l0 -0.859375zm5.949936 6.9375l0 -19.078125l2.34375 0l0 19.078125l-2.34375 0zm15.43779 -4.453125l2.421875 0.296875q-0.578125 2.125 -2.125 3.296875q-1.546875 1.171875 -3.953125 1.171875q-3.03125 0 -4.8125 -1.859375q-1.78125 -1.875 -1.78125 -5.25q0 -3.484375 1.796875 -5.40625q1.796875 -1.9375 4.671875 -1.9375q2.765625 0 4.515625 1.890625q1.765625 1.890625 1.765625 5.3125q0 0.203125 -0.015625 0.625l-10.3125 0q0.140625 2.28125 1.296875 3.5q1.15625 1.203125 2.890625 1.203125q1.28125 0 2.1875 -0.671875q0.921875 -0.6875 1.453125 -2.171875zm-7.6875 -3.78125l7.71875 0q-0.15625 -1.75 -0.890625 -2.625q-1.125 -1.34375 -2.90625 -1.34375q-1.609375 0 -2.71875 1.078125q-1.09375 1.078125 -1.203125 2.890625zm13.699936 -2.921875l0 -2.671875l2.671875 0l0 2.671875l-2.671875 0zm0 11.15625l0 -2.671875l2.671875 0l0 2.671875l-2.671875 0zm13.68692 -9.296875q0 -4.75 2.546875 -7.4375q2.5625 -2.6875 6.59375 -2.6875q2.640625 0 4.765625 1.265625q2.125 1.265625 3.234375 3.53125q1.109375 2.25 1.109375 5.109375q0 2.90625 -1.171875 5.203125q-1.171875 2.28125 -3.3125 3.46875q-2.140625 1.171875 -4.640625 1.171875q-2.6875 0 -4.8125 -1.296875q-2.125 -1.3125 -3.21875 -3.5625q-1.09375 -2.25 -1.09375 -4.765625zm2.609375 0.046875q0 3.4375 1.84375 5.4375q1.859375 1.984375 4.671875 1.984375q2.84375 0 4.6875 -2.0q1.84375 -2.015625 1.84375 -5.703125q0 -2.328125 -0.796875 -4.0625q-0.78125 -1.734375 -2.296875 -2.6875q-1.515625 -0.96875 -3.40625 -0.96875q-2.6875 0 -4.625 1.84375q-1.921875 1.84375 -1.921875 6.15625zm18.59346 9.25l0 -13.828125l2.109375 0l0 1.96875q1.53125 -2.28125 4.40625 -2.28125q1.25 0 2.296875 0.453125q1.046875 0.453125 1.5625 1.1875q0.53125 0.71875 0.734375 1.71875q0.125 0.65625 0.125 2.28125l0 8.5l-2.34375 0l0 -8.40625q0 -1.4375 -0.28125 -2.140625q-0.265625 -0.71875 -0.96875 -1.140625q-0.6875 -0.421875 -1.625 -0.421875q-1.484375 0 -2.578125 0.953125q-1.09375 0.953125 -1.09375 3.609375l0 7.546875l-2.34375 0zm24.293686 -4.453125l2.421875 0.296875q-0.578125 2.125 -2.125 3.296875q-1.546875 1.171875 -3.953125 1.171875q-3.03125 0 -4.8125 -1.859375q-1.78125 -1.875 -1.78125 -5.25q0 -3.484375 1.796875 -5.40625q1.796875 -1.9375 4.671875 -1.9375q2.765625 0 4.515625 1.890625q1.765625 1.890625 1.765625 5.3125q0 0.203125 -0.015625 0.625l-10.3125 0q0.140625 2.28125 1.296875 3.5q1.15625 1.203125 2.890625 1.203125q1.28125 0 2.1875 -0.671875q0.921875 -0.6875 1.453125 -2.171875zm-7.6875 -3.78125l7.71875 0q-0.15625 -1.75 -0.890625 -2.625q-1.125 -1.34375 -2.90625 -1.34375q-1.609375 0 -2.71875 1.078125q-1.09375 1.078125 -1.203125 2.890625zm20.465271 -8.15625l0 -2.6875l2.34375 0l0 2.6875l-2.34375 0zm0 16.390625l0 -13.828125l2.34375 0l0 13.828125l-2.34375 0zm5.90654 0l0 -13.828125l2.109375 0l0 1.96875q1.53125 -2.28125 4.40625 -2.28125q1.25 0 2.296875 0.453125q1.046875 0.453125 1.5625 1.1875q0.53125 0.71875 0.734375 1.71875q0.125 0.65625 0.125 2.28125l0 8.5l-2.34375 0l0 -8.40625q0 -1.4375 -0.28125 -2.140625q-0.265625 -0.71875 -0.96875 -1.140625q-0.6875 -0.421875 -1.625 -0.421875q-1.484375 0 -2.578125 0.953125q-1.09375 0.953125 -1.09375 3.609375l0 7.546875l-2.34375 0zm23.856186 -5.0625l2.296875 0.296875q-0.375 2.390625 -1.9375 3.734375q-1.546875 1.34375 -3.8125 1.34375q-2.84375 0 -4.5625 -1.84375q-1.71875 -1.859375 -1.71875 -5.328125q0 -2.234375 0.734375 -3.90625q0.75 -1.6875 2.265625 -2.53125q1.515625 -0.84375 3.296875 -0.84375q2.25 0 3.671875 1.140625q1.4375 1.140625 1.84375 3.234375l-2.28125 0.359375q-0.328125 -1.390625 -1.15625 -2.09375q-0.8125 -0.703125 -1.984375 -0.703125q-1.78125 0 -2.890625 1.265625q-1.09375 1.265625 -1.09375 4.015625q0 2.78125 1.0625 4.046875q1.0625 1.265625 2.78125 1.265625q1.390625 0 2.3125 -0.84375q0.921875 -0.859375 1.171875 -2.609375zm4.296875 5.0625l0 -19.078125l2.34375 0l0 6.84375q1.640625 -1.90625 4.140625 -1.90625q1.546875 0 2.671875 0.609375q1.140625 0.609375 1.625 1.671875q0.484375 1.0625 0.484375 3.09375l0 8.765625l-2.34375 0l0 -8.765625q0 -1.75 -0.765625 -2.546875q-0.75 -0.8125 -2.15625 -0.8125q-1.03125 0 -1.953125 0.546875q-0.921875 0.546875 -1.3125 1.46875q-0.390625 0.921875 -0.390625 2.546875l0 7.5625l-2.34375 0z" fill-rule="nonzero"/><path fill="#000000" fill-opacity="0.0" d="m26.362206 2264.0432l157.10236 0" fill-rule="evenodd"/><path stroke="#000000" stroke-width="3.0" stroke-linejoin="round" stroke-linecap="butt" d="m26.362206 2264.0432l157.10236 0" fill-rule="evenodd"/><path fill="#000000" fill-opacity="0.0" d="m183.44882 2252.3604l0 22.20459" fill-rule="evenodd"/><path stroke="#000000" stroke-width="3.0" stroke-linejoin="round" stroke-linecap="butt" d="m183.44882 2252.3604l0 22.20459" fill-rule="evenodd"/><path fill="#000000" fill-opacity="0.0" d="m26.362206 2252.1692l0 22.771729" fill-rule="evenodd"/><path stroke="#000000" stroke-width="3.0" stroke-linejoin="round" stroke-linecap="butt" d="m26.362206 2252.1692l0 22.771729" fill-rule="evenodd"/><path fill="#000000" fill-opacity="0.0" d="m920.79254 2304.0l-2.86615 -722.3307" fill-rule="evenodd"/><path stroke="#000000" stroke-width="3.0" stroke-linejoin="round" stroke-linecap="butt" d="m920.79254 2304.0l-2.86615 -722.3307" fill-rule="evenodd"/><path fill="#000000" fill-opacity="0.0" d="m923.662 1588.6711l-60.252014 -76.91345" fill-rule="evenodd"/><path stroke="#000000" stroke-width="3.0" stroke-linejoin="round" stroke-linecap="butt" d="m923.662 1588.6711l-60.252014 -76.91345" fill-rule="evenodd"/><path fill="#000000" fill-opacity="0.0" d="m866.2733 1511.779l-45.921265 -72.25195" fill-rule="evenodd"/><path stroke="#000000" stroke-width="3.0" stroke-linejoin="round" stroke-linecap="butt" d="m866.2733 1511.779l-45.921265 -72.25195" fill-rule="evenodd"/><path fill="#000000" fill-opacity="0.0" d="m834.70953 1434.8871l48.75592 -102.519775" fill-rule="evenodd"/><path stroke="#000000" stroke-width="3.0" stroke-linejoin="round" stroke-linecap="butt" d="m834.70953 1434.8871l48.75592 -102.519775" fill-rule="evenodd"/><path fill="#000000" fill-opacity="0.0" d="m897.83704 1339.3545l129.10242 0" fill-rule="evenodd"/><path stroke="#000000" stroke-width="3.0" stroke-linejoin="round" stroke-linecap="butt" d="m897.83704 1339.3545l129.10242 0" fill-rule="evenodd"/><path fill="#000000" fill-opacity="0.0" d="m1044.1781 1346.3447l91.811035 104.85034" fill-rule="evenodd"/><path stroke="#000000" stroke-width="3.0" stroke-linejoin="round" stroke-linecap="butt" d="m1044.1781 1346.3447l91.811035 104.85034" fill-rule="evenodd"/><path fill="#000000" fill-opacity="0.0" d="m1136.0 1451.1975l-5.763794 745.6062" fill-rule="evenodd"/><path stroke="#000000" stroke-width="3.0" stroke-linejoin="round" stroke-linecap="butt" d="m1136.0 1451.1975l-5.763794 745.6062" fill-rule="evenodd"/><path fill="#000000" fill-opacity="0.0" d="m1130.2611 2196.8171l-197.98425 100.188965" fill-rule="evenodd"/><path stroke="#000000" stroke-width="3.0" stroke-linejoin="round" stroke-linecap="butt" d="m1130.2611 2196.8171l-197.98425 100.188965" fill-rule="evenodd"/><path fill="#000000" fill-opacity="0.0" d="m585.8425 25.198162l260.0 4.0" fill-rule="evenodd"/><path stroke="#000000" stroke-width="3.0" stroke-linejoin="round" stroke-linecap="butt" d="m585.8425 25.198162l260.0 4.0" fill-rule="evenodd"/><path fill="#000000" fill-opacity="0.0" d="m845.8425 29.198162l-164.0 243.99998" fill-rule="evenodd"/><path stroke="#000000" stroke-width="3.0" stroke-linejoin="round" stroke-linecap="butt" d="m845.8425 29.198162l-164.0 243.99998" fill-rule="evenodd"/><path fill="#000000" fill-opacity="0.0" d="m689.8425 265.19815l-232.0 0" fill-rule="evenodd"/><path stroke="#000000" stroke-width="3.0" stroke-linejoin="round" stroke-linecap="butt" d="m689.8425 265.19815l-232.0 0" fill-rule="evenodd"/><path fill="#000000" fill-opacity="0.0" d="m457.84253 265.19815l-4.0 -243.99998" fill-rule="evenodd"/><path stroke="#000000" stroke-width="3.0" stroke-linejoin="round" stroke-linecap="butt" d="m457.84253 265.19815l-4.0 -243.99998" fill-rule="evenodd"/><path fill="#000000" fill-opacity="0.0" d="m453.84253 21.198162l164.0 4.0" fill-rule="evenodd"/><path stroke="#000000" stroke-width="3.0" stroke-linejoin="round" stroke-linecap="butt" d="m453.84253 21.198162l164.0 4.0" fill-rule="evenodd"/><path fill="#000000" fill-opacity="0.0" d="m585.8425 329.19815l260.0 4.0" fill-rule="evenodd"/><path stroke="#000000" stroke-width="3.0" stroke-linejoin="round" stroke-linecap="butt" d="m585.8425 329.19815l260.0 4.0" fill-rule="evenodd"/><path fill="#000000" fill-opacity="0.0" d="m845.8425 333.19815l-164.0 244.00003" fill-rule="evenodd"/><path stroke="#000000" stroke-width="3.0" stroke-linejoin="round" stroke-linecap="butt" d="m845.8425 333.19815l-164.0 244.00003" fill-rule="evenodd"/><path fill="#000000" fill-opacity="0.0" d="m689.8425 569.1982l-232.0 0" fill-rule="evenodd"/><path stroke="#000000" stroke-width="3.0" stroke-linejoin="round" stroke-linecap="butt" d="m689.8425 569.1982l-232.0 0" fill-rule="evenodd"/><path fill="#000000" fill-opacity="0.0" d="m457.84253 569.1982l-4.0 -244.00003" fill-rule="evenodd"/><path stroke="#000000" stroke-width="3.0" stroke-linejoin="round" stroke-linecap="butt" d="m457.84253 569.1982l-4.0 -244.00003" fill-rule="evenodd"/><path fill="#000000" fill-opacity="0.0" d="m453.84253 325.19815l164.0 4.0" fill-rule="evenodd"/><path stroke="#000000" stroke-width="3.0" stroke-linejoin="round" stroke-linecap="butt" d="m453.84253 325.19815l164.0 4.0" fill-rule="evenodd"/><path fill="#000000" fill-opacity="0.0" d="m26.362206 631.27295l2.8976364 -369.4488" fill-rule="evenodd"/><path stroke="#000000" stroke-width="3.0" stroke-linejoin="round" stroke-linecap="butt" d="m26.362206 631.27295l2.8976364 -369.4488" fill-rule="evenodd"/><path fill="#000000" fill-opacity="0.0" d="m26.362206 622.54596l375.27557 -8.724426" fill-rule="evenodd"/><path stroke="#000000" stroke-width="3.0" stroke-linejoin="round" stroke-linecap="butt" d="m26.362206 622.54596l375.27557 -8.724426" fill-rule="evenodd"/><path fill="#000000" fill-opacity="0.0" d="m404.54593 616.72705l8.724426 -381.1024" fill-rule="evenodd"/><path stroke="#000000" stroke-width="3.0" stroke-linejoin="round" stroke-linecap="butt" d="m404.54593 616.72705l8.724426 -381.1024" fill-rule="evenodd"/><path fill="#000000" fill-opacity="0.0" d="m413.27298 235.63518l-58.17325 -142.55118" fill-rule="evenodd"/><path stroke="#000000" stroke-width="3.0" stroke-linejoin="round" stroke-linecap="butt" d="m413.27298 235.63518l-58.17325 -142.55118" fill-rule="evenodd"/><path fill="#000000" fill-opacity="0.0" d="m70.0 104.727036l284.7244 -11.653542" fill-rule="evenodd"/><path stroke="#000000" stroke-width="3.0" stroke-linejoin="round" stroke-linecap="butt" d="m70.0 104.727036l284.7244 -11.653542" fill-rule="evenodd"/><path fill="#000000" fill-opacity="0.0" d="m75.8189 107.63517l-46.551186 160.0" fill-rule="evenodd"/><path stroke="#000000" stroke-width="3.0" stroke-linejoin="round" stroke-linecap="butt" d="m75.8189 107.63517l-46.551186 160.0" fill-rule="evenodd"/><path fill="#000000" fill-opacity="0.0" d="m935.1495 1295.5879l-2.86615 -722.3307" fill-rule="evenodd"/><path stroke="#000000" stroke-width="3.0" stroke-linejoin="round" stroke-linecap="butt" d="m935.1495 1295.5879l-2.86615 -722.3307" fill-rule="evenodd"/><path fill="#000000" fill-opacity="0.0" d="m938.0189 580.25903l-60.251953 -76.91339" fill-rule="evenodd"/><path stroke="#000000" stroke-width="3.0" stroke-linejoin="round" stroke-linecap="butt" d="m938.0189 580.25903l-60.251953 -76.91339" fill-rule="evenodd"/><path fill="#000000" fill-opacity="0.0" d="m880.63025 503.367l-45.921265 -72.25198" fill-rule="evenodd"/><path stroke="#000000" stroke-width="3.0" stroke-linejoin="round" stroke-linecap="butt" d="m880.63025 503.367l-45.921265 -72.25198" fill-rule="evenodd"/><path fill="#000000" fill-opacity="0.0" d="m849.0665 426.47498l48.75586 -102.519684" fill-rule="evenodd"/><path stroke="#000000" stroke-width="3.0" stroke-linejoin="round" stroke-linecap="butt" d="m849.0665 426.47498l48.75586 -102.519684" fill-rule="evenodd"/><path fill="#000000" fill-opacity="0.0" d="m912.19403 330.94244l129.10236 0" fill-rule="evenodd"/><path stroke="#000000" stroke-width="3.0" stroke-linejoin="round" stroke-linecap="butt" d="m912.19403 330.94244l129.10236 0" fill-rule="evenodd"/><path fill="#000000" fill-opacity="0.0" d="m1058.535 337.93262l91.811035 104.8504" fill-rule="evenodd"/><path stroke="#000000" stroke-width="3.0" stroke-linejoin="round" stroke-linecap="butt" d="m1058.535 337.93262l91.811035 104.8504" fill-rule="evenodd"/><path fill="#000000" fill-opacity="0.0" d="m1150.3569 442.7854l-5.763794 745.6063" fill-rule="evenodd"/><path stroke="#000000" stroke-width="3.0" stroke-linejoin="round" stroke-linecap="butt" d="m1150.3569 442.7854l-5.763794 745.6063" fill-rule="evenodd"/><path fill="#000000" fill-opacity="0.0" d="m1144.618 1188.4052l-197.98425 100.188965" fill-rule="evenodd"/><path stroke="#000000" stroke-width="3.0" stroke-linejoin="round" stroke-linecap="butt" d="m1144.618 1188.4052l-197.98425 100.188965" fill-rule="evenodd"/><path fill="#000000" fill-opacity="0.0" d="m78.54593 753.39453l0 0c0 -22.460022 18.20745 -40.66748 40.66748 -40.66748l596.4918 0c10.785706 0 21.129639 4.284607 28.756287 11.911194c7.626648 7.626648 11.911194 17.970581 11.911194 28.756287l0 162.66504c0 22.460022 -18.207458 40.66748 -40.66748 40.66748l-596.4918 0l0 0c-22.46003 0 -40.66748 -18.207458 -40.66748 -40.66748z" fill-rule="evenodd"/><path stroke="#000000" stroke-width="3.0" stroke-linejoin="round" stroke-linecap="butt" d="m78.54593 753.39453l0 0c0 -22.460022 18.20745 -40.66748 40.66748 -40.66748l596.4918 0c10.785706 0 21.129639 4.284607 28.756287 11.911194c7.626648 7.626648 11.911194 17.970581 11.911194 28.756287l0 162.66504c0 22.460022 -18.207458 40.66748 -40.66748 40.66748l-596.4918 0l0 0c-22.46003 0 -40.66748 -18.207458 -40.66748 -40.66748z" fill-rule="evenodd"/><path fill="#000000" fill-opacity="0.0" d="m78.54593 1087.5756l0 0c0 -22.45996 18.20745 -40.66748 40.66748 -40.66748l596.4918 0c10.785706 0 21.129639 4.284668 28.756287 11.911255c7.626648 7.626709 11.911194 17.970581 11.911194 28.756226l0 162.66504c0 22.460083 -18.207458 40.66748 -40.66748 40.66748l-596.4918 0l0 0c-22.46003 0 -40.66748 -18.207397 -40.66748 -40.66748z" fill-rule="evenodd"/><path stroke="#000000" stroke-width="3.0" stroke-linejoin="round" stroke-linecap="butt" d="m78.54593 1087.5756l0 0c0 -22.45996 18.20745 -40.66748 40.66748 -40.66748l596.4918 0c10.785706 0 21.129639 4.284668 28.756287 11.911255c7.626648 7.626709 11.911194 17.970581 11.911194 28.756226l0 162.66504c0 22.460083 -18.207458 40.66748 -40.66748 40.66748l-596.4918 0l0 0c-22.46003 0 -40.66748 -18.207397 -40.66748 -40.66748z" fill-rule="evenodd"/><path fill="#000000" fill-opacity="0.0" d="m113.45407 1544.727l177.44882 133.82678" fill-rule="evenodd"/><path stroke="#000000" stroke-width="3.0" stroke-linejoin="round" stroke-linecap="butt" d="m113.45407 1544.727l177.44882 133.82678" fill-rule="evenodd"/><path fill="#000000" fill-opacity="0.0" d="m293.8189 1681.4541l61.102356 -69.82678" fill-rule="evenodd"/><path stroke="#000000" stroke-width="3.0" stroke-linejoin="round" stroke-linecap="butt" d="m293.8189 1681.4541l61.102356 -69.82678" fill-rule="evenodd"/><path fill="#000000" fill-opacity="0.0" d="m354.90814 1611.6351l78.55118 0" fill-rule="evenodd"/><path stroke="#000000" stroke-width="3.0" stroke-linejoin="round" stroke-linecap="butt" d="m354.90814 1611.6351l78.55118 0" fill-rule="evenodd"/><path fill="#000000" fill-opacity="0.0" d="m433.45407 1611.6351l58.173218 52.37805" fill-rule="evenodd"/><path stroke="#000000" stroke-width="3.0" stroke-linejoin="round" stroke-linecap="butt" d="m433.45407 1611.6351l58.173218 52.37805" fill-rule="evenodd"/><path fill="#000000" fill-opacity="0.0" d="m491.63516 1664.0l5.826782 139.62207" fill-rule="evenodd"/><path stroke="#000000" stroke-width="3.0" stroke-linejoin="round" stroke-linecap="butt" d="m491.63516 1664.0l5.826782 139.62207" fill-rule="evenodd"/><path fill="#000000" fill-opacity="0.0" d="m497.45407 1803.6351l101.82675 2.897705" fill-rule="evenodd"/><path stroke="#000000" stroke-width="3.0" stroke-linejoin="round" stroke-linecap="butt" d="m497.45407 1803.6351l101.82675 2.897705" fill-rule="evenodd"/><path fill="#000000" fill-opacity="0.0" d="m599.27295 1806.5459l-5.826782 -308.37793" fill-rule="evenodd"/><path stroke="#000000" stroke-width="3.0" stroke-linejoin="round" stroke-linecap="butt" d="m599.27295 1806.5459l-5.826782 -308.37793" fill-rule="evenodd"/><path fill="#000000" fill-opacity="0.0" d="m593.45404 1498.1812l-500.37793 17.44873" fill-rule="evenodd"/><path stroke="#000000" stroke-width="3.0" stroke-linejoin="round" stroke-linecap="butt" d="m593.45404 1498.1812l-500.37793 17.44873" fill-rule="evenodd"/><path fill="#000000" fill-opacity="0.0" d="m101.8189 1518.5459l34.897636 40.724487" fill-rule="evenodd"/><path stroke="#000000" stroke-width="3.0" stroke-linejoin="round" stroke-linecap="butt" d="m101.8189 1518.5459l34.897636 40.724487" fill-rule="evenodd"/><path fill="#000000" fill-opacity="0.0" d="m350.60104 1925.8346l177.44882 133.82678" fill-rule="evenodd"/><path stroke="#000000" stroke-width="3.0" stroke-linejoin="round" stroke-linecap="butt" d="m350.60104 1925.8346l177.44882 133.82678" fill-rule="evenodd"/><path fill="#000000" fill-opacity="0.0" d="m530.9659 2062.5618l61.102356 -69.826904" fill-rule="evenodd"/><path stroke="#000000" stroke-width="3.0" stroke-linejoin="round" stroke-linecap="butt" d="m530.9659 2062.5618l61.102356 -69.826904" fill-rule="evenodd"/><path fill="#000000" fill-opacity="0.0" d="m592.0551 1992.7428l78.55121 0" fill-rule="evenodd"/><path stroke="#000000" stroke-width="3.0" stroke-linejoin="round" stroke-linecap="butt" d="m592.0551 1992.7428l78.55121 0" fill-rule="evenodd"/><path fill="#000000" fill-opacity="0.0" d="m670.6011 1992.7428l58.173218 52.37793" fill-rule="evenodd"/><path stroke="#000000" stroke-width="3.0" stroke-linejoin="round" stroke-linecap="butt" d="m670.6011 1992.7428l58.173218 52.37793" fill-rule="evenodd"/><path fill="#000000" fill-opacity="0.0" d="m728.78217 2045.1077l5.826782 139.62207" fill-rule="evenodd"/><path stroke="#000000" stroke-width="3.0" stroke-linejoin="round" stroke-linecap="butt" d="m728.78217 2045.1077l5.826782 139.62207" fill-rule="evenodd"/><path fill="#000000" fill-opacity="0.0" d="m734.6011 2184.7427l101.82672 2.897705" fill-rule="evenodd"/><path stroke="#000000" stroke-width="3.0" stroke-linejoin="round" stroke-linecap="butt" d="m734.6011 2184.7427l101.82672 2.897705" fill-rule="evenodd"/><path fill="#000000" fill-opacity="0.0" d="m836.4199 2187.6536l-5.826721 -308.37793" fill-rule="evenodd"/><path stroke="#000000" stroke-width="3.0" stroke-linejoin="round" stroke-linecap="butt" d="m836.4199 2187.6536l-5.826721 -308.37793" fill-rule="evenodd"/><path fill="#000000" fill-opacity="0.0" d="m830.6011 1879.2887l-500.378 17.448853" fill-rule="evenodd"/><path stroke="#000000" stroke-width="3.0" stroke-linejoin="round" stroke-linecap="butt" d="m830.6011 1879.2887l-500.378 17.448853" fill-rule="evenodd"/><path fill="#000000" fill-opacity="0.0" d="m338.96588 1899.6536l34.897644 40.724365" fill-rule="evenodd"/><path stroke="#000000" stroke-width="3.0" stroke-linejoin="round" stroke-linecap="butt" d="m338.96588 1899.6536l34.897644 40.724365" fill-rule="evenodd"/></g></svg>