<?xml version="1.0" encoding="utf-8"?>
<!-- Generator: Adobe Illustrator 28.0.0, SVG Export Plug-In . SVG Version: 6.00 Build 0)  -->
<svg version="1.1" id="Layer_1" xmlns="http://www.w3.org/2000/svg" xmlns:xlink="http://www.w3.org/1999/xlink" x="0px" y="0px"
	 viewBox="0 0 800 800" style="enable-background:new 0 0 800 800;" xml:space="preserve">
<g>
	<g>
		<path d="M710.5,252.9L574.6,117c-9.8-9.8-25.4-10.4-35.9-1.7l-27.5,13.8l-10.8-10.8L515,89.1c9-18.5,1.3-30.3-4.1-35.7L465.3,7.8
			c-5-5-11.7-7.8-18.9-7.8h0c-7.1,0-13.8,2.8-18.8,7.8L314.5,120.9c-5,5-7.8,11.7-7.8,18.9s2.8,13.8,7.8,18.9l45.8,45.8
			c5.3,5.3,17.1,13,35.6,3.9l29.1-14.6l10.8,10.8L422,232c-4,4.8-6.1,10.7-6.1,17c0,7.1,2.8,13.8,7.8,18.9l54.2,54.2
			c5.2,5.2,13.6,5.2,18.9,0c5.2-5.2,5.2-13.7,0-18.9L442.6,249c1-1,1.9-2.2,2.5-3.5l18.9-37.7c2.6-5.1,1.6-11.3-2.5-15.4L437,168.1
			c-4.1-4.1-10.3-5-15.4-2.5L384,184.4c-3.3,1.6-4.7,1.5-4.9,1.2l-45.8-45.8L446.5,26.7l46,46.1c0,0,0.2,1.3-1.3,4.5L472.3,115
			c-2.6,5.1-1.6,11.3,2.5,15.4l24.4,24.4c4.1,4.1,10.3,5.1,15.4,2.5l37.7-18.9c1.3-0.7,2.5-1.5,3.5-2.5l136.8,136.7
			c0.8,0.7,80.8,68,80.8,140.7c0,29.2,0,49.8-10.1,78.9c-34-111.1-99.6-154.7-102.7-156.7c-3.7-2.4-8.5-2.8-12.6-1l-78.8,34.4
			c-4.1,1.8-6.4,1.7-6.6,1.8l-33.1-33.3c-2.5-2.5-5.7-4.5-9.5-3.9c-3.5,0-6.9,1.4-9.4,3.9L83.4,764.5c-2.2,2.5-9.5,8.9-16.7,8.9
			c-7.4,0-14.4-6.3-17.2-9.4L35.5,750c-2.5-2.2-8.9-9.5-8.9-16.7c0-7,6.6-14.7,9.4-17.2l393.2-393.2c5.2-5.2,5.2-13.7,0-18.9
			c-5.2-5.2-13.6-5.2-18.9,0L17.8,696.7C16,698.3,0,713.1,0,733.3c0,20.5,16.1,35.1,17.2,36.1l12.6,12.5
			c1.5,1.9,15.9,18.1,36.9,18.1c20.5,0,35.1-16.1,36.1-17.2L520,365.5l23.7,23.9c8.7,8.7,21.9,10.1,36.2,3.8l71.7-31.3
			c17.7,14.3,73.1,66.6,95.4,174.1c1.2,5.6,5.7,9.8,11.3,10.5c5.5,0.7,11.1-2.2,13.6-7.3c28.1-56.1,28.1-85.4,28.1-126
			C800,328,713.2,255.2,710.5,252.9z"/>
	</g>
</g>
<polygon points="410.5,304 429.3,322.9 454,298.2 "/>
<polyline points="410.5,304 435.1,279.3 454,298.2 "/>
<path d="M496.8,303.2"/>
</svg>
